<svg xmlns="http://www.w3.org/2000/svg" width="83" height="83" viewBox="0 0 83 83">
  <g id="Grupo_960434" data-name="Grupo 960434" transform="translate(-3832 7717)">
    <rect id="Rectángulo_340667" data-name="Rectángulo 340667" width="83" height="83" transform="translate(3832 -7717)" fill="none"/>
    <g id="oosouji" transform="translate(3814.371 -7705.19)">
      <g id="Grupo_960411" data-name="Grupo 960411" transform="translate(72.762 0.879)">
        <path id="Trazado_727499" data-name="Trazado 727499" d="M379.5,49h-3.751V9.363a1.876,1.876,0,1,1,3.751,0V49Z" transform="translate(-375.748 -7.487)" fill="#fee97d"/>
      </g>
      <g id="Grupo_960412" data-name="Grupo 960412" transform="translate(73.65 0.879)">
        <path id="Trazado_727500" data-name="Trazado 727500" d="M386.177,9.365V49H384.2V9.365a1.874,1.874,0,0,0-.549-1.327,1.934,1.934,0,0,0-.338-.268,1.876,1.876,0,0,1,2.863,1.6Z" transform="translate(-383.314 -7.49)" fill="#fedf30"/>
      </g>
      <g id="Grupo_960413" data-name="Grupo 960413" transform="translate(72.762 0.879)">
        <path id="Trazado_727501" data-name="Trazado 727501" d="M379.5,15.5h-3.751V9.363a1.876,1.876,0,1,1,3.751,0V15.5Z" transform="translate(-375.748 -7.487)" fill="#d1f19e"/>
      </g>
      <g id="Grupo_960414" data-name="Grupo 960414" transform="translate(73.649 0.879)">
        <path id="Trazado_727502" data-name="Trazado 727502" d="M386.168,9.365V15.5h-1.977V9.365a1.875,1.875,0,0,0-.887-1.594,1.875,1.875,0,0,1,2.864,1.594Z" transform="translate(-383.304 -7.49)" fill="#bbec6c"/>
      </g>
      <g id="Grupo_960415" data-name="Grupo 960415" transform="translate(66.607 40.573)">
        <path id="Trazado_727503" data-name="Trazado 727503" d="M331.332,345.736s-7.086-.21-8.03,6.561h16.06C338.418,345.526,331.332,345.736,331.332,345.736Z" transform="translate(-323.302 -345.735)" fill="#b5adb6"/>
      </g>
      <g id="Grupo_960416" data-name="Grupo 960416" transform="translate(69.531 40.573)">
        <path id="Trazado_727504" data-name="Trazado 727504" d="M361.355,352.295h-2.778c-1.546-5.578-7.79-5.393-7.79-5.393a9.549,9.549,0,0,0-2.569.364,9.431,9.431,0,0,1,5.106-1.532S360.411,345.523,361.355,352.295Z" transform="translate(-348.219 -345.733)" fill="#a79ba7"/>
      </g>
      <g id="Grupo_960419" data-name="Grupo 960419" transform="translate(65.213 47.134)">
        <g id="Grupo_960417" data-name="Grupo 960417" transform="translate(0)">
          <path id="Trazado_727505" data-name="Trazado 727505" d="M330.087,410.043c-.42-4.2-1.207-8.4-1.207-8.4h-16.06s-.787,4.2-1.207,8.4l-.184,2.576a1.026,1.026,0,0,0,1.024,1.1h16.8a1.026,1.026,0,0,0,1.024-1.1Z" transform="translate(-311.425 -401.646)" fill="#fddeb0"/>
        </g>
        <g id="Grupo_960418" data-name="Grupo 960418" transform="translate(14.676)">
          <path id="Trazado_727506" data-name="Trazado 727506" d="M439.631,413.718h-1.677l-.263-3.675c-.42-4.2-1.207-8.4-1.207-8.4h2.777s.788,4.2,1.208,8.4l.184,2.576A1.026,1.026,0,0,1,439.631,413.718Z" transform="translate(-436.485 -401.646)" fill="#fccd7f"/>
        </g>
      </g>
      <g id="Grupo_960420" data-name="Grupo 960420" transform="translate(46.411 6.999)">
        <path id="Trazado_727507" data-name="Trazado 727507" d="M155.022,59.753A7.274,7.274,0,0,1,151.3,64.42a.158.158,0,0,0,0,.289,7.274,7.274,0,0,1,3.719,4.668.157.157,0,0,0,.3,0,7.274,7.274,0,0,1,3.719-4.668.158.158,0,0,0,0-.289,7.274,7.274,0,0,1-3.719-4.668A.157.157,0,0,0,155.022,59.753Z" transform="translate(-151.209 -59.639)" fill="#fee97d"/>
      </g>
      <g id="Grupo_960421" data-name="Grupo 960421" transform="translate(33.357 10.041)">
        <path id="Trazado_727508" data-name="Trazado 727508" d="M45.236,85.722c-.461,1.583-1.8,4.956-5.14,6.452a.218.218,0,0,0,0,.4c3.338,1.5,4.679,4.869,5.14,6.452a.217.217,0,0,0,.417,0c.461-1.583,1.8-4.956,5.14-6.452a.218.218,0,0,0,0-.4c-3.338-1.5-4.679-4.869-5.14-6.452A.217.217,0,0,0,45.236,85.722Z" transform="translate(-39.966 -85.565)" fill="#fee97d"/>
      </g>
      <g id="Grupo_960422" data-name="Grupo 960422" transform="translate(49.218 10.423)">
        <path id="Trazado_727509" data-name="Trazado 727509" d="M180.154,90.463a7.278,7.278,0,0,0-3.719,4.668.157.157,0,0,1-.3,0,8.907,8.907,0,0,0-1.006-2.244,7.3,7.3,0,0,1,3.138-4.069,5.907,5.907,0,0,0,1.888,1.357.157.157,0,0,1,0,.288Z" transform="translate(-175.128 -88.817)" fill="#fedf30"/>
      </g>
      <g id="Grupo_960423" data-name="Grupo 960423" transform="translate(37.571 15.412)">
        <path id="Trazado_727510" data-name="Trazado 727510" d="M82.493,132.967c-3.338,1.5-4.68,4.869-5.14,6.453a.217.217,0,0,1-.417,0,12.5,12.5,0,0,0-1.056-2.54,9.761,9.761,0,0,1,4.666-5.55,8.041,8.041,0,0,0,1.947,1.238A.218.218,0,0,1,82.493,132.967Z" transform="translate(-75.881 -131.33)" fill="#fedf30"/>
      </g>
      <g id="Grupo_960424" data-name="Grupo 960424" transform="translate(44.449 20.22)">
        <path id="Trazado_727511" data-name="Trazado 727511" d="M157.027,182.425a2.5,2.5,0,1,0-2.938-4.051,3.3,3.3,0,0,0-5.151-1.4c0-.042,0-.083,0-.125a4.544,4.544,0,1,0-9.088,0c0,.042,0,.083,0,.125a3.3,3.3,0,0,0-5.366,2.573,3.4,3.4,0,0,0,1.583,2.879Z" transform="translate(-134.49 -172.305)" fill="#b3dafe"/>
      </g>
      <g id="Grupo_960425" data-name="Grupo 960425" transform="translate(50.096 20.22)">
        <path id="Trazado_727512" data-name="Trazado 727512" d="M200.6,180.081a2.5,2.5,0,0,1-1.1,2.342h-.375c0-.022,0-.044,0-.067a2.5,2.5,0,0,0-3.294-2.377,1.065,1.065,0,0,1-1.19-.382,2.594,2.594,0,0,0-2.33-1.19,3.3,3.3,0,0,0-.963.143,1.072,1.072,0,0,1-1.36-.729,4.569,4.569,0,0,0-.455-1.129,4.725,4.725,0,0,0-4.15-2.374,5.08,5.08,0,0,0-2.774.945,4.544,4.544,0,0,1,8.8,1.582c0,.042,0,.083,0,.125a3.3,3.3,0,0,1,5.151,1.4,2.5,2.5,0,0,1,4.038,1.709Z" transform="translate(-182.608 -172.302)" fill="#8ac9fe"/>
      </g>
      <g id="Grupo_960426" data-name="Grupo 960426" transform="translate(43.848 34.553)">
        <path id="Trazado_727513" data-name="Trazado 727513" d="M129.363,294.44,130.5,315.7a3.579,3.579,0,0,0,3.574,3.389h15.435a3.579,3.579,0,0,0,3.574-3.389l1.135-21.264Z" transform="translate(-129.363 -294.44)" fill="#d1f19e"/>
      </g>
      <g id="Grupo_960427" data-name="Grupo 960427" transform="translate(61.574 34.554)">
        <path id="Trazado_727514" data-name="Trazado 727514" d="M287.54,294.443l-1.134,21.263a3.581,3.581,0,0,1-3.575,3.389h-2.418a3.581,3.581,0,0,0,3.575-3.389l1.134-21.263Z" transform="translate(-280.413 -294.443)" fill="#bbec6c"/>
      </g>
      <g id="Grupo_960428" data-name="Grupo 960428" transform="translate(42.576 30.34)">
        <path id="Trazado_727515" data-name="Trazado 727515" d="M145.028,258.54H119.421a.9.9,0,0,0-.895.895v2.424a.9.9,0,0,0,.895.895h7.318a1.954,1.954,0,0,1,1.816,1.217,3.955,3.955,0,0,0,7.34,0,1.954,1.954,0,0,1,1.816-1.217h7.318a.9.9,0,0,0,.895-.895v-2.424A.9.9,0,0,0,145.028,258.54Z" transform="translate(-118.526 -258.54)" fill="#bbec6c"/>
      </g>
      <g id="Grupo_960429" data-name="Grupo 960429" transform="translate(66.613 30.341)">
        <path id="Trazado_727516" data-name="Trazado 727516" d="M326.713,259.436v2.424a.9.9,0,0,1-.9.9h-2.465a.9.9,0,0,0,.894-.9v-2.424a.894.894,0,0,0-.894-.894h2.465A.9.9,0,0,1,326.713,259.436Z" transform="translate(-323.353 -258.542)" fill="#a2e62e"/>
      </g>
      <g id="Grupo_960430" data-name="Grupo 960430" transform="translate(40.95 32.269)">
        <path id="Trazado_727517" data-name="Trazado 727517" d="M105.155,291.113a1.657,1.657,0,0,0,2.343,0L120.812,277.8a1.656,1.656,0,0,0-2.343-2.343l-13.315,13.315A1.657,1.657,0,0,0,105.155,291.113Z" transform="translate(-104.67 -274.971)" fill="#b5adb6"/>
      </g>
      <g id="Grupo_960431" data-name="Grupo 960431" transform="translate(40.95 32.269)">
        <path id="Trazado_727518" data-name="Trazado 727518" d="M105.155,291.113a1.657,1.657,0,0,0,2.343,0L120.812,277.8a1.656,1.656,0,0,0-2.343-2.343l-13.315,13.315A1.657,1.657,0,0,0,105.155,291.113Z" transform="translate(-104.67 -274.971)" fill="#b5adb6"/>
      </g>
      <g id="Grupo_960432" data-name="Grupo 960432" transform="translate(41.013 32.333)">
        <path id="Trazado_727519" data-name="Trazado 727519" d="M121.286,278.282,107.972,291.6a1.657,1.657,0,0,1-2.342,0,1.64,1.64,0,0,1-.422-.717,1.657,1.657,0,0,0,1.627-.421l13.315-13.315a1.657,1.657,0,0,0,.421-1.626,1.635,1.635,0,0,1,.717.421A1.656,1.656,0,0,1,121.286,278.282Z" transform="translate(-105.207 -275.518)" fill="#a79ba7"/>
      </g>
      <g id="Grupo_960433" data-name="Grupo 960433" transform="translate(32.478 0)">
        <path id="Trazado_727520" data-name="Trazado 727520" d="M144.336,58.9a6.464,6.464,0,0,1,3.234,4.111,1.036,1.036,0,0,0,1.989,0,6.463,6.463,0,0,1,3.234-4.111,1.036,1.036,0,0,0,0-1.892,6.464,6.464,0,0,1-3.234-4.111,1.036,1.036,0,0,0-1.989,0,6.464,6.464,0,0,1-3.234,4.111,1.036,1.036,0,0,0,0,1.892Zm4.229-3.778a7.9,7.9,0,0,0,2.368,2.831,7.9,7.9,0,0,0-2.368,2.831,7.9,7.9,0,0,0-2.368-2.831A7.9,7.9,0,0,0,148.564,55.124Z" transform="translate(-130.667 -46.031)"/>
        <path id="Trazado_727521" data-name="Trazado 727521" d="M44.543,86.766a1.1,1.1,0,0,0,0-2c-3.052-1.368-4.273-4.579-4.656-5.9a1.1,1.1,0,0,0-2.1,0c-.383,1.317-1.6,4.527-4.656,5.9a1.1,1.1,0,0,0,0,2c3.052,1.369,4.273,4.579,4.656,5.9a1.1,1.1,0,0,0,2.1,0C40.271,91.345,41.491,88.135,44.543,86.766Zm-5.708,3.686a10.694,10.694,0,0,0-3.872-4.688,10.694,10.694,0,0,0,3.872-4.688,10.694,10.694,0,0,0,3.872,4.688A10.7,10.7,0,0,0,38.836,90.453Z" transform="translate(-32.478 -68.915)"/>
        <path id="Trazado_727522" data-name="Trazado 727522" d="M142.044,58.044l-.184-2.576c0-.008,0-.017,0-.025-.411-4.113-1.181-8.271-1.216-8.462a7.855,7.855,0,0,0-4.894-6.477,10.066,10.066,0,0,0-1.247-.428V16.49a.879.879,0,0,0-1.757,0V39.748a8.6,8.6,0,0,0-1-.053,8.689,8.689,0,0,0-1,.053V9.771h1.994v2.567a.879.879,0,1,0,1.757,0V2.754a2.754,2.754,0,0,0-5.509,0V40.077a10.032,10.032,0,0,0-1.247.428,8.735,8.735,0,0,0-1.413.751l.314-5.886a1.775,1.775,0,0,0,1.314-1.711V31.235a1.775,1.775,0,0,0-1.773-1.773h-.321a3.386,3.386,0,0,0-4.355-4.371,4.172,4.172,0,0,0-4.771-1.589,5.423,5.423,0,0,0-10.548,0,4.176,4.176,0,0,0-5.511,3.96,4.322,4.322,0,0,0,.493,2h-.594a1.775,1.775,0,0,0-1.773,1.773v2.424a1.775,1.775,0,0,0,1.314,1.711l.4,7.481-2.6,2.6a2.535,2.535,0,0,0,2.951,4.047l.34,6.371a4.458,4.458,0,0,0,4.452,4.221H121.1a4.452,4.452,0,0,0,1.372-.217,1.906,1.906,0,0,0,.876.217h16.8a1.9,1.9,0,0,0,1.9-2.041ZM130.749,2.754a1,1,0,1,1,1.994,0v5.26h-1.994Zm.972,38.7h.048c.242-.005,5.606-.078,6.933,4.8H126.065l.139-2.609a7.88,7.88,0,0,1,5.517-2.195ZM104.859,25.04a2.394,2.394,0,0,1,1.515.533.879.879,0,0,0,1.429-.709v-.043c0-.019,0-.038,0-.058a3.665,3.665,0,0,1,7.33,0c0,.019,0,.039,0,.058v.043a.879.879,0,0,0,1.429.709,2.394,2.394,0,0,1,1.515-.533,2.435,2.435,0,0,1,2.264,1.562.879.879,0,0,0,1.365.378,1.608,1.608,0,0,1,1-.348,1.626,1.626,0,0,1,1.092,2.829H103.411a2.551,2.551,0,0,1-.974-2A2.424,2.424,0,0,1,104.859,25.04Zm-4.295,6.195a.016.016,0,0,1,.016-.016h25.607a.016.016,0,0,1,.016.016v2.424a.016.016,0,0,1-.016.016h-7.318a2.818,2.818,0,0,0-2.631,1.768,3.063,3.063,0,0,1-2.855,1.93c-.07,0-.138,0-.207-.008l1.646-1.646a2.535,2.535,0,1,0-3.585-3.585l-1.919,1.919a2.846,2.846,0,0,0-1.421-.377H100.58a.016.016,0,0,1-.016-.016Zm7.371,4.2-5.745,5.745-.307-5.747H107.9ZM121.1,58.327H105.666a2.7,2.7,0,0,1-2.7-2.557l-.415-7.784,3.782-3.782a.879.879,0,0,0-1.243-1.243l-4.828,4.828a.778.778,0,0,1-1.1-1.1L112.48,33.375a.778.778,0,1,1,1.1,1.1l-5.518,5.518a.879.879,0,0,0,1.243,1.243l2.4-2.4a4.841,4.841,0,0,0,6.161-2.734,1.068,1.068,0,0,1,1-.666h6.014L123.8,55.771a2.7,2.7,0,0,1-2.7,2.557Zm19.151-.047a.145.145,0,0,1-.108.047H137.4a40.828,40.828,0,0,0-1.032-6.757.879.879,0,0,0-1.7.444,39.727,39.727,0,0,1,.97,6.313h-3.011V51.792a.879.879,0,1,0-1.757,0v6.535h-3.011a39.935,39.935,0,0,1,.97-6.313.879.879,0,1,0-1.7-.444,40.821,40.821,0,0,0-1.032,6.757h-1.447a4.438,4.438,0,0,0,.906-2.463l.419-7.851h13.07c.239,1.369.756,4.494,1.067,7.593l.183,2.563A.144.144,0,0,1,140.252,58.28Z" transform="translate(-89.587 0)"/>
      </g>
    </g>
  </g>
</svg>
