<svg xmlns="http://www.w3.org/2000/svg" xmlns:xlink="http://www.w3.org/1999/xlink" width="83" height="83" viewBox="0 0 83 83">
  <defs>
    <clipPath id="clip-path">
      <path id="path2265" d="M0-682.665H64.164V-618.5H0Z" transform="translate(0 682.665)"/>
    </clipPath>
  </defs>
  <g id="Grupo_960407" data-name="Grupo 960407" transform="translate(-1074 -2628)">
    <g id="Grupo_960408" data-name="Grupo 960408">
      <rect id="Rectángulo_340646" data-name="Rectángulo 340646" width="83" height="83" transform="translate(1074 2628)" fill="none"/>
      <g id="g2259" transform="translate(1083.627 3320.292)">
        <g id="g2261" transform="translate(0 -682.665)">
          <g id="g2263" clip-path="url(#clip-path)">
            <g id="g2269" transform="translate(4.758 1.253)">
              <path id="path2271" d="M-438.544-181.2v4.32a4.96,4.96,0,0,1-4.978,4.919,4.929,4.929,0,0,1-4.9-4.92c0-2.115,1.741-4.426,1.741-8.549,0-6.108-3.871-12.536-9.964-14.567,4.684,9.37-.073,17.95-4.961,17.95a8.79,8.79,0,0,1-8.573-8.175,13.961,13.961,0,0,0-1.58,6.295c0,5.242,2.568,6.319,2.568,9.3a4.969,4.969,0,0,1-4.991,5.017c-1.36,0-5.019-.292-5.019-7.079a14.945,14.945,0,0,0-4.839,10.918,26.572,26.572,0,0,0,5.637,15.38l43.416.114h0a28.648,28.648,0,0,0,5.4-16.513,16.265,16.265,0,0,0-8.958-14.41" transform="translate(484.039 200)" fill="#ff9256"/>
            </g>
            <g id="g2273" transform="translate(1.253 32.834)">
              <path id="path2275" d="M-428.638-66.356a12.578,12.578,0,0,1,1.246,4.121,12.52,12.52,0,0,1,6.845,7.137,12.469,12.469,0,0,1,.6,2.194c4.433,1.036,8.5,4.993,8.5,9.741h-61.657c0-4.748,4.063-8.7,8.5-9.741a12.487,12.487,0,0,1,.647-2.308,12.523,12.523,0,0,1,6.8-7.023,12.49,12.49,0,0,1,12.378-11h5.013a12.443,12.443,0,0,1,11.132,6.884" transform="translate(473.105 73.24)" fill="#c1b0b5"/>
            </g>
            <g id="g2277" transform="translate(45.72 37.847)">
              <path id="path2279" d="M-37.654,0A5.006,5.006,0,0,0-41.56,1.871l1.246,4.121,2.1,1.135a5.015,5.015,0,0,0,3.065-4.621V0Z" transform="translate(41.56)" fill="#d8ec84"/>
            </g>
            <g id="g2281" transform="translate(37.095 50.378)">
              <path id="path2283" d="M-72.481,0V2.506a5.013,5.013,0,0,1-5.013,5.013H-80V5.013A5.013,5.013,0,0,1-74.987,0Z" transform="translate(80)" fill="#d8ec84"/>
            </g>
            <g id="g2285" transform="translate(19.55 50.378)">
              <path id="path2287" d="M-72.481-48.32v2.506h-2.506A5.013,5.013,0,0,1-80-50.827v-2.506h2.506a5.013,5.013,0,0,1,5.013,5.013" transform="translate(80 53.333)" fill="#d8ec84"/>
            </g>
            <g id="g2289" transform="translate(50.88 56.644)">
              <path id="path2291" d="M-12.08,0a1.254,1.254,0,0,1,1.253,1.253A1.254,1.254,0,0,1-12.08,2.506a1.254,1.254,0,0,1-1.253-1.253A1.254,1.254,0,0,1-12.08,0" transform="translate(13.333 0)"/>
            </g>
            <g id="g2293" transform="translate(35.841 41.606)">
              <path id="path2295" d="M-12.08,0a1.254,1.254,0,0,1,1.253,1.253A1.254,1.254,0,0,1-12.08,2.506a1.254,1.254,0,0,1-1.253-1.253A1.254,1.254,0,0,1-12.08,0" transform="translate(13.333 0)"/>
            </g>
            <g id="g2297" transform="translate(30.829 51.632)">
              <path id="path2299" d="M-12.08,0a1.254,1.254,0,0,1,1.253,1.253A1.254,1.254,0,0,1-12.08,2.506a1.254,1.254,0,0,1-1.253-1.253A1.254,1.254,0,0,1-12.08,0" transform="translate(13.333 0)"/>
            </g>
            <g id="g2301" transform="translate(10.777 56.644)">
              <path id="path2303" d="M-12.08,0a1.254,1.254,0,0,1,1.253,1.253A1.254,1.254,0,0,1-12.08,2.506a1.254,1.254,0,0,1-1.253-1.253A1.254,1.254,0,0,1-12.08,0" transform="translate(13.333 0)"/>
            </g>
            <g id="g2305" transform="translate(44.744 36.593)">
              <path id="path2307" d="M-6.053-23.62a1.254,1.254,0,0,1-1.155-.766,1.253,1.253,0,0,1,.667-1.642,3.756,3.756,0,0,0,2.3-3.466v-1.253H-5.494a3.75,3.75,0,0,0-2.931,1.4l-1.952-1.572a6.248,6.248,0,0,1,4.883-2.339h2.506A1.253,1.253,0,0,1-1.735-32v2.506a6.258,6.258,0,0,1-3.831,5.775A1.249,1.249,0,0,1-6.053-23.62Z" transform="translate(10.377 33.253)"/>
            </g>
            <g id="g2309" transform="translate(35.841 49.125)">
              <path id="path2311" d="M-36.24-83.308h-2.506A1.253,1.253,0,0,1-40-84.561v-2.506a6.273,6.273,0,0,1,6.266-6.266h2.506a1.253,1.253,0,0,1,1.253,1.253v2.506A6.273,6.273,0,0,1-36.24-83.308Zm-1.253-2.506h1.253a3.764,3.764,0,0,0,3.76-3.76v-1.253h-1.253a3.764,3.764,0,0,0-3.76,3.76Z" transform="translate(40 93.333)"/>
            </g>
            <g id="g2313" transform="translate(18.297 49.125)">
              <path id="path2315" d="M-57.894-83.308H-60.4a6.273,6.273,0,0,1-6.266-6.266V-92.08a1.253,1.253,0,0,1,1.253-1.253h2.506a6.273,6.273,0,0,1,6.266,6.266v2.506A1.253,1.253,0,0,1-57.894-83.308Zm-6.266-7.519v1.253a3.764,3.764,0,0,0,3.76,3.76h1.253v-1.253a3.764,3.764,0,0,0-3.76-3.76Z" transform="translate(66.667 93.333)"/>
            </g>
            <g id="g2317" transform="translate(23.309 36.593)">
              <path id="path2319" d="M-60.4-5.814h-5.013a1.253,1.253,0,0,1-1.253-1.253,1.253,1.253,0,0,1,1.253-1.253h3.76v-3.76A1.253,1.253,0,0,1-60.4-13.333a1.253,1.253,0,0,1,1.253,1.253v5.013A1.253,1.253,0,0,1-60.4-5.814Z" transform="translate(66.667 13.333)"/>
            </g>
            <g id="g2321" transform="translate(28.322 41.606)">
              <path id="path2323" d="M-60.4-59.147a1.249,1.249,0,0,1-.886-.367L-66.3-64.527a1.253,1.253,0,0,1,0-1.772,1.253,1.253,0,0,1,1.772,0l5.013,5.013a1.253,1.253,0,0,1,0,1.772A1.249,1.249,0,0,1-60.4-59.147Z" transform="translate(66.666 66.666)"/>
            </g>
            <g id="g2325" transform="translate(3.505 0)">
              <path id="path2327" d="M-484.933-490.118a1.248,1.248,0,0,1-.759-.256,1.253,1.253,0,0,1-.237-1.756,27.285,27.285,0,0,0,5.142-15.766,14.993,14.993,0,0,0-6.451-12.205v2.127a6.209,6.209,0,0,1-6.231,6.172,6.169,6.169,0,0,1-6.151-6.173,10.566,10.566,0,0,1,.72-3.262,15.769,15.769,0,0,0,1.021-5.288,14.618,14.618,0,0,0-6.341-12.026A15.576,15.576,0,0,1-505.4-525.9c-1.574,2.547-3.816,4.008-6.15,4.008a9.9,9.9,0,0,1-8.684-5.328,11.435,11.435,0,0,0-.216,2.2,10.511,10.511,0,0,0,1.415,5.459,8.01,8.01,0,0,1,1.153,3.844,6.191,6.191,0,0,1-6.245,6.27c-1.965,0-5.048-.762-5.99-5.29a13.02,13.02,0,0,0-2.615,7.876,25.517,25.517,0,0,0,5.359,14.593,1.253,1.253,0,0,1-.188,1.762,1.253,1.253,0,0,1-1.762-.187,27.832,27.832,0,0,1-5.915-16.168,16.14,16.14,0,0,1,5.206-11.8,1.253,1.253,0,0,1,1.366-.272,1.253,1.253,0,0,1,.774,1.158c0,5.826,2.834,5.826,3.766,5.826a3.711,3.711,0,0,0,3.738-3.763,5.7,5.7,0,0,0-.879-2.7,12.956,12.956,0,0,1-1.689-6.6,15.278,15.278,0,0,1,1.713-6.855,1.253,1.253,0,0,1,1.409-.659,1.253,1.253,0,0,1,.965,1.22,7.52,7.52,0,0,0,7.32,6.921c1.424,0,2.926-1.054,4.018-2.82,1.732-2.8,2.595-7.772-.177-13.316a1.253,1.253,0,0,1,.174-1.381,1.253,1.253,0,0,1,1.343-.368c6.27,2.09,10.821,8.717,10.821,15.756a18.127,18.127,0,0,1-1.148,6.075,8.8,8.8,0,0,0-.593,2.475,3.66,3.66,0,0,0,3.644,3.667,3.705,3.705,0,0,0,3.724-3.666v-4.32a1.253,1.253,0,0,1,.594-1.066,1.253,1.253,0,0,1,1.219-.055A17.477,17.477,0,0,1-478.28-507.9a29.894,29.894,0,0,1-5.655,17.287A1.251,1.251,0,0,1-484.933-490.118Z" transform="translate(535.239 542.346)"/>
            </g>
            <g id="g2329" transform="translate(30.829 61.657)">
              <path id="path2331" d="M-24.16-12.08a1.253,1.253,0,0,1-1.253,1.253,1.253,1.253,0,0,1-1.253-1.253,1.253,1.253,0,0,1,1.253-1.253A1.253,1.253,0,0,1-24.16-12.08" transform="translate(26.667 13.333)"/>
            </g>
            <g id="g2333" transform="translate(0 31.581)">
              <path id="path2335" d="M-338.422-300.749h-25.189A1.253,1.253,0,0,1-364.864-302a1.253,1.253,0,0,1,1.253-1.253h23.823c-.658-3.643-4.088-6.49-7.415-7.268a1.253,1.253,0,0,1-.948-1,11.243,11.243,0,0,0-.543-1.974,11.214,11.214,0,0,0-4.269-5.4,11.16,11.16,0,0,0-1.889-1.021,1.253,1.253,0,0,1-.757-1,11.305,11.305,0,0,0-1.122-3.71,11.162,11.162,0,0,0-10.012-6.193h-5.013a11.258,11.258,0,0,0-11.134,9.9,1.253,1.253,0,0,1-.758,1,11.307,11.307,0,0,0-6.12,6.32,11.261,11.261,0,0,0-.582,2.077,1.253,1.253,0,0,1-.948,1c-3.327.778-6.757,3.625-7.415,7.268h23.823A1.253,1.253,0,0,1-373.637-302a1.253,1.253,0,0,1-1.253,1.253h-25.189A1.253,1.253,0,0,1-401.332-302c0-5.36,4.338-9.406,8.68-10.749a13.772,13.772,0,0,1,.547-1.753,13.84,13.84,0,0,1,6.832-7.43,13.764,13.764,0,0,1,13.516-11.4h5.013a13.656,13.656,0,0,1,12.252,7.574,13.811,13.811,0,0,1,1.265,3.824,13.669,13.669,0,0,1,1.662.955,13.7,13.7,0,0,1,5.217,6.6,13.784,13.784,0,0,1,.5,1.627c4.342,1.342,8.68,5.389,8.68,10.749A1.253,1.253,0,0,1-338.422-300.749Z" transform="translate(401.332 333.333)"/>
            </g>
          </g>
        </g>
      </g>
    </g>
  </g>
</svg>
