<svg xmlns="http://www.w3.org/2000/svg" width="83" height="83" viewBox="0 0 83 83">
  <g id="Grupo_960397" data-name="Grupo 960397" transform="translate(-6081 9018)">
    <rect id="Rectángulo_340655" data-name="Rectángulo 340655" width="83" height="83" transform="translate(6081 -9018)" fill="none"/>
    <g id="tirar-basura" transform="translate(6092 -9007)">
      <g id="Grupo_960365" data-name="Grupo 960365">
        <g id="Grupo_960351" data-name="Grupo 960351">
          <path id="Trazado_727384" data-name="Trazado 727384" d="M59,3V15H36.08l-.37-4.77A10.036,10.036,0,0,0,35,7.22V3a2.006,2.006,0,0,1,2-2H57a2.006,2.006,0,0,1,2,2Z" fill="#b4dd7f"/>
        </g>
        <g id="Grupo_960352" data-name="Grupo 960352">
          <path id="Trazado_727385" data-name="Trazado 727385" d="M39,5H55v6H39Z" fill="#ccd1d9"/>
        </g>
        <g id="Grupo_960353" data-name="Grupo 960353">
          <path id="Trazado_727386" data-name="Trazado 727386" d="M61,16v2a1,1,0,0,1-1,1H36.39l-.31-4H60A1,1,0,0,1,61,16Z" fill="#a0d468"/>
        </g>
        <g id="Grupo_960354" data-name="Grupo 960354">
          <path id="Trazado_727387" data-name="Trazado 727387" d="M36.39,19l.11,1.47.47,6.09c.02.29.03.59.03.88a11.491,11.491,0,0,1-1.72,6.07c-.09.15-.18.29-.28.43V57a4,4,0,0,0,4,4H55a4,4,0,0,0,4-4V19Z" fill="#b4dd7f"/>
        </g>
        <g id="Grupo_960355" data-name="Grupo 960355">
          <path id="Trazado_727388" data-name="Trazado 727388" d="M7,53H1V50.04A15.032,15.032,0,0,1,7.34,37.76,13.576,13.576,0,0,1,9,36.72a14.869,14.869,0,0,1,4.01-1.44,6,6,0,0,0,11.98.05A18.833,18.833,0,0,1,35,41.26c.46.53.89,1.09,1.3,1.67L31,50V61H7Z" fill="#e6e9ed"/>
        </g>
        <g id="Grupo_960356" data-name="Grupo 960356">
          <path id="Trazado_727389" data-name="Trazado 727389" d="M36.97,26.56l-.47-6.09L36.39,19l-.31-4-.37-4.77A9.991,9.991,0,0,0,25.74,1H12.26a9.993,9.993,0,0,0-9.97,9.23L1.5,20.47l-.47,6.09c-.02.29-.03.59-.03.88A11.6,11.6,0,0,0,7.33,37.75l.01.01A13.576,13.576,0,0,1,9,36.72a14.869,14.869,0,0,1,4.01-1.44A14.445,14.445,0,0,1,15,35V32a7.174,7.174,0,0,1-6-7H7a3.995,3.995,0,0,1-4-4c0-.14.01-.27.02-.41A4,4,0,0,1,7,17H9V16a5,5,0,0,1,2.86-4.52A3.983,3.983,0,0,0,15,13h1.76A9.474,9.474,0,0,1,21,14v-.39a6.535,6.535,0,0,0-.53-2.6A9,9,0,0,1,29,20V17h2a4,4,0,0,1,3.98,3.59c.01.14.02.27.02.41a3.995,3.995,0,0,1-4,4H29a7.174,7.174,0,0,1-6,7v3c.68.08,1.34.19,1.99.33a18.82,18.82,0,0,1,5.8,2.37v-.01A11.616,11.616,0,0,0,33,36.19v-.01a11.255,11.255,0,0,0,2-2.24c.1-.14.19-.28.28-.43A11.491,11.491,0,0,0,37,27.44c0-.29-.01-.59-.03-.88Z" fill="#b27946"/>
        </g>
        <g id="Grupo_960357" data-name="Grupo 960357">
          <path id="Trazado_727390" data-name="Trazado 727390" d="M50,25v2H46V25a2.006,2.006,0,0,1,2-2,2.015,2.015,0,0,1,2,2Z" fill="#fcd770"/>
        </g>
        <g id="Grupo_960358" data-name="Grupo 960358">
          <path id="Trazado_727391" data-name="Trazado 727391" d="M45,45a2.006,2.006,0,0,1-2-2V35h2a2.006,2.006,0,0,0,2-2,2.015,2.015,0,0,0-2-2H43V30a3,3,0,0,1,3-3h4a3,3,0,0,1,3,3v1a2.006,2.006,0,0,0-2,2v4a2.006,2.006,0,0,0,2,2v4a2.006,2.006,0,0,1-2,2Z" fill="#ffeaa7"/>
        </g>
        <g id="Grupo_960359" data-name="Grupo 960359">
          <path id="Trazado_727392" data-name="Trazado 727392" d="M1,53H7v8H1Z" fill="#f0d0b4"/>
        </g>
        <g id="Grupo_960360" data-name="Grupo 960360">
          <path id="Trazado_727393" data-name="Trazado 727393" d="M54,31a1,1,0,0,1,1,1v6a1,1,0,0,1-1,1H53a2.006,2.006,0,0,1-2-2V33a2.006,2.006,0,0,1,2-2Z" fill="#f0d0b4"/>
        </g>
        <g id="Grupo_960361" data-name="Grupo 960361">
          <path id="Trazado_727394" data-name="Trazado 727394" d="M40,38l-.82-2.47A3.367,3.367,0,0,1,39,34.44,3.44,3.44,0,0,1,42.44,31H45a2.015,2.015,0,0,1,2,2,2.006,2.006,0,0,1-2,2H43v8l-2.62,6.54A5.484,5.484,0,0,1,35.28,53a1.32,1.32,0,0,1-.28-.02,5.451,5.451,0,0,1-3.61-1.59L31,51V50l5.3-7.07Z" fill="#f0d0b4"/>
        </g>
        <g id="Grupo_960362" data-name="Grupo 960362">
          <path id="Trazado_727395" data-name="Trazado 727395" d="M31,17a4,4,0,0,1,3.98,3.59c.01.14.02.27.02.41a3.995,3.995,0,0,1-4,4H29V17Z" fill="#f0d0b4"/>
        </g>
        <g id="Grupo_960363" data-name="Grupo 960363">
          <path id="Trazado_727396" data-name="Trazado 727396" d="M29,22v3a7.174,7.174,0,0,1-6,7v3c.68.08,1.34.19,1.99.33a6,6,0,0,1-11.98-.05A14.445,14.445,0,0,1,15,35V32a7.174,7.174,0,0,1-6-7V16a5,5,0,0,1,2.86-4.52A3.983,3.983,0,0,0,15,13h1.76A9.474,9.474,0,0,1,21,14v-.39a6.535,6.535,0,0,0-.53-2.6A9,9,0,0,1,29,20Z" fill="#f0d0b4"/>
        </g>
        <g id="Grupo_960364" data-name="Grupo 960364">
          <path id="Trazado_727397" data-name="Trazado 727397" d="M9,22v3H7a3.995,3.995,0,0,1-4-4c0-.14.01-.27.02-.41A4,4,0,0,1,7,17H9Z" fill="#f0d0b4"/>
        </g>
      </g>
      <g id="Grupo_960366" data-name="Grupo 960366">
        <circle id="Elipse_5794" data-name="Elipse 5794" cx="1" cy="1" r="1" transform="translate(22 18)"/>
        <circle id="Elipse_5795" data-name="Elipse 5795" cx="1" cy="1" r="1" transform="translate(14 18)"/>
        <path id="Trazado_727398" data-name="Trazado 727398" d="M22.789,25.658l.1-.211-1.789-.9-.1.212a2.236,2.236,0,0,1-4,0l-.1-.211-1.789.9.1.21a4.236,4.236,0,0,0,7.578,0Z"/>
        <path id="Trazado_727399" data-name="Trazado 727399" d="M18,18h2v4H18Z"/>
        <path id="Trazado_727400" data-name="Trazado 727400" d="M60,14V3a3,3,0,0,0-3-3H37a3,3,0,0,0-3,3v.77A11,11,0,0,0,25.739,0H12.261A11.05,11.05,0,0,0,1.293,10.156L.037,26.481C.013,26.8,0,27.123,0,27.444A12.493,12.493,0,0,0,5.6,37.891,16.062,16.062,0,0,0,0,50.036V62H32V53.107a6.4,6.4,0,0,0,2,.768V57a5.006,5.006,0,0,0,5,5H55a5.006,5.006,0,0,0,5-5V20a2,2,0,0,0,2-2V16a2,2,0,0,0-2-2ZM36,3a1,1,0,0,1,1-1H57a1,1,0,0,1,1,1V14H37l-.3-3.844A10.846,10.846,0,0,0,36,7.054Zm-.031,23.634q.031.405.031.81A10.514,10.514,0,0,1,34,33.6V28H32v7.691a10.542,10.542,0,0,1-1.237.846c-.253-.146-.5-.292-.763-.426V32H28v3.2a19.716,19.716,0,0,0-4-1.078V32.8A8.144,8.144,0,0,0,29.923,26H31a4.994,4.994,0,0,0,4.669-3.258ZM34,36.635v2.233c-.445-.4-.9-.771-1.381-1.123A12.4,12.4,0,0,0,34,36.635ZM15.164,31.014A6.162,6.162,0,0,1,10,24.917V16a4.017,4.017,0,0,1,1.706-3.269A4.956,4.956,0,0,0,15,14h1.764a8.5,8.5,0,0,1,3.789.9L22,15.618V13.605a7.679,7.679,0,0,0-.139-1.385A7.994,7.994,0,0,1,28,20v4.917a6.162,6.162,0,0,1-5.164,6.1l-.836.14V35.9l.89.1c.327.036.646.107.969.161a4.993,4.993,0,0,1-9.728-.044c.312-.044.622-.091.94-.113L16,35.931V31.153ZM30,18h1a3,3,0,0,1,0,6H30V22.535l2.555-1.7-1.109-1.664L30,20.132ZM12.261,2H25.74a9.042,9.042,0,0,1,8.974,8.31l.636,8.273A4.985,4.985,0,0,0,31,16H30V12.829a7.777,7.777,0,0,0-2.293-5.536L26.293,8.707A5.791,5.791,0,0,1,28,12.829v1.179a9.957,9.957,0,0,0-6.858-3.932,7.731,7.731,0,0,0-2.588-2.908L17.445,8.832a5.725,5.725,0,0,1,2.443,3.646A10.546,10.546,0,0,0,16.764,12H15a3,3,0,0,1-3-3V8H10V9a4.935,4.935,0,0,0,.5,2.141A6.029,6.029,0,0,0,8,16H7a4.983,4.983,0,0,0-4.349,2.583l.636-8.273A9.042,9.042,0,0,1,12.261,2ZM7,24a3,3,0,0,1,0-6H8v2.132l-1.445-.964L5.446,20.832,8,22.535V24ZM6,35.691V28H4v5.6a10.507,10.507,0,0,1-2-6.155c0-.271.011-.541.031-.81l.3-3.892A5,5,0,0,0,7,26H8.077A8.142,8.142,0,0,0,14,32.8V34.1a15.893,15.893,0,0,0-4,1.073V32H8v4.168c-.231.135-.464.266-.687.413A10.688,10.688,0,0,1,6,35.691ZM2,54H6v6H2Zm28,6H8V44H6v8H2V50.036a14.129,14.129,0,0,1,10.172-13.51,7,7,0,0,0,13.64.07,17.676,17.676,0,0,1,9.236,6.341L32,47V44H30Zm2-9.414v-.253L41.114,38.18l-.989-2.967A2.442,2.442,0,0,1,42.441,32H45a1,1,0,0,1,0,2H42v8.807l-2.546,6.366a4.5,4.5,0,0,1-7.358,1.51ZM49,26H47V25a1,1,0,1,1,2,0Zm-3,2h4a2,2,0,0,1,2,2v.184A3,3,0,0,0,50,33v4a3,3,0,0,0,2,2.816V43a1,1,0,0,1-1,1H45a1,1,0,0,1-1-1V36h1a3,3,0,0,0,0-6H44a2,2,0,0,1,2-2Zm7,10a1,1,0,0,1-1-1V33a1,1,0,0,1,1-1h1v6Zm5,19a3,3,0,0,1-3,3H39a3,3,0,0,1-3-3V53.946a6.456,6.456,0,0,0,5.312-4.03l1.831-4.578A2.968,2.968,0,0,0,45,46h6a3,3,0,0,0,3-3V40a2,2,0,0,0,2-2V32a2,2,0,0,0-2-2,4,4,0,0,0-3-3.858V25a3,3,0,0,0-6,0v1.142A4,4,0,0,0,42,30v.045a4.418,4.418,0,0,0-3.771,5.8l.657,1.973-2.594,3.458c-.1-.124-.19-.257-.292-.378V34.242a12.526,12.526,0,0,0,2-6.8c0-.321-.013-.642-.037-.963L37.464,20H58Zm2-39H37.31l-.154-2H60Z"/>
        <path id="Trazado_727401" data-name="Trazado 727401" d="M56,4H38v8H56Zm-2,6H40V6H54Z"/>
      </g>
    </g>
  </g>
</svg>
