<svg xmlns="http://www.w3.org/2000/svg" width="83" height="83" viewBox="0 0 83 83">
  <g id="Grupo_960451" data-name="Grupo 960451" transform="translate(-4753 8076)">
    <rect id="Rectángulo_340664" data-name="Rectángulo 340664" width="83" height="83" transform="translate(4753 -8076)" fill="none"/>
    <g id="pesticida" transform="translate(4765 -8064)">
      <g id="Grupo_960449" data-name="Grupo 960449" transform="translate(0.962 0.962)">
        <g id="Grupo_960435" data-name="Grupo 960435" transform="translate(0 48.078)">
          <path id="Trazado_727523" data-name="Trazado 727523" d="M34.924,408v1.923a3.847,3.847,0,0,1-3.846,3.846H11.846A3.847,3.847,0,0,1,8,409.923V408Z" transform="translate(-8 -408)" fill="#fcd770"/>
        </g>
        <g id="Grupo_960436" data-name="Grupo 960436" transform="translate(6.731 11.539)">
          <path id="Trazado_727524" data-name="Trazado 727524" d="M77.462,107.846a1.921,1.921,0,0,1-1.923,1.923H65.923A1.923,1.923,0,0,1,64,107.846,3.845,3.845,0,0,1,67.846,104h5.769A3.847,3.847,0,0,1,77.462,107.846Z" transform="translate(-64 -104)" fill="#fcd770"/>
        </g>
        <g id="Grupo_960437" data-name="Grupo 960437" transform="translate(0 17.308)">
          <path id="Trazado_727525" data-name="Trazado 727525" d="M34.924,178.924v3.846H8V158.551a5.77,5.77,0,0,1,4.518-5.631L16.654,152H26.27l4.136.919a5.77,5.77,0,0,1,4.518,5.631Z" transform="translate(-8 -152)" fill="#ffeaa7"/>
        </g>
        <g id="Grupo_960438" data-name="Grupo 960438" transform="translate(5.769)">
          <path id="Trazado_727526" data-name="Trazado 727526" d="M56,8H71.385v3.846H56Z" transform="translate(-56 -8)" fill="#aab2bd"/>
        </g>
        <g id="Grupo_960439" data-name="Grupo 960439" transform="translate(5.769 3.846)">
          <path id="Trazado_727527" data-name="Trazado 727527" d="M71.385,40l-4.808,3.846H60.808L56,40Z" transform="translate(-56 -40)" fill="#aab2bd"/>
        </g>
        <g id="Grupo_960440" data-name="Grupo 960440" transform="translate(10.577 7.693)">
          <path id="Trazado_727528" data-name="Trazado 727528" d="M96,72h5.769v3.846H96Z" transform="translate(-96 -72)" fill="#ccd1d9"/>
        </g>
        <g id="Grupo_960441" data-name="Grupo 960441" transform="translate(46.155 44.232)">
          <path id="Trazado_727529" data-name="Trazado 727529" d="M399.693,376v3.846H392V376h7.693Z" transform="translate(-392 -376)" fill="#aab2bd"/>
        </g>
        <g id="Grupo_960442" data-name="Grupo 960442" transform="translate(46.155 15.385)">
          <path id="Trazado_727530" data-name="Trazado 727530" d="M397.769,136a1.923,1.923,0,0,1,1.923,1.923v9.616a1.923,1.923,0,0,1-1.923,1.923h-3.846A1.923,1.923,0,0,1,392,147.539v-9.616A1.923,1.923,0,0,1,393.923,136Z" transform="translate(-392 -136)" fill="#aab2bd"/>
        </g>
        <g id="Grupo_960443" data-name="Grupo 960443" transform="translate(48.078 11.539)">
          <path id="Trazado_727531" data-name="Trazado 727531" d="M411.846,104v3.846H408V104h3.846Z" transform="translate(-408 -104)" fill="#ccd1d9"/>
        </g>
        <g id="Grupo_960444" data-name="Grupo 960444" transform="translate(53.848 23.078)">
          <path id="Trazado_727532" data-name="Trazado 727532" d="M456,200h3.846v3.846H456Z" transform="translate(-456 -200)" fill="#ccd1d9"/>
        </g>
        <g id="Grupo_960445" data-name="Grupo 960445" transform="translate(48.078 28.847)">
          <path id="Trazado_727533" data-name="Trazado 727533" d="M408,248h3.846v15.385H408Z" transform="translate(-408 -248)" fill="#ccd1d9"/>
        </g>
        <g id="Grupo_960446" data-name="Grupo 960446" transform="translate(3.846 23.078)">
          <path id="Trazado_727534" data-name="Trazado 727534" d="M49.616,200A9.616,9.616,0,1,1,40,209.616,9.616,9.616,0,0,1,49.616,200Z" transform="translate(-40 -200)" fill="#e6e9ed"/>
        </g>
        <g id="Grupo_960447" data-name="Grupo 960447" transform="translate(9.616 30.77)">
          <path id="Trazado_727535" data-name="Trazado 727535" d="M93.769,264H89.923A1.923,1.923,0,0,0,88,265.923v1.923a3.846,3.846,0,0,0,7.693,0v-1.923A1.923,1.923,0,0,0,93.769,264Z" transform="translate(-88 -264)" fill="#cf9e76"/>
        </g>
        <g id="Grupo_960448" data-name="Grupo 960448" transform="translate(11.539 26.924)">
          <path id="Trazado_727536" data-name="Trazado 727536" d="M107.846,233.923v1.923H104v-1.923a1.923,1.923,0,1,1,3.846,0Z" transform="translate(-104 -232)" fill="#ecc19c"/>
        </g>
      </g>
      <g id="Grupo_960450" data-name="Grupo 960450" transform="translate(0 0)">
        <path id="Trazado_727537" data-name="Trazado 727537" d="M55.771,23.078V18.27a2.889,2.889,0,0,0-1.923-2.719V11.539H51.925V3.846A3.851,3.851,0,0,0,48.078,0H42.309a3.851,3.851,0,0,0-3.846,3.846V55.771a1.923,1.923,0,1,1-3.846,0V48.078a3.851,3.851,0,0,0-3.846-3.846H28.847V24.821a6.691,6.691,0,0,0-5.271-6.571L21.7,17.834a2.867,2.867,0,0,0,.414-1.487,4.816,4.816,0,0,0-3.846-4.711V9.116L23.078,5.27V0H5.769V5.27l4.808,3.846v2.519a4.816,4.816,0,0,0-3.846,4.711,2.866,2.866,0,0,0,.414,1.487l-1.874.416A6.691,6.691,0,0,0,0,24.821V50.963a4.813,4.813,0,0,0,4.808,4.808H24.039a4.813,4.813,0,0,0,4.808-4.808V46.155H30.77a1.925,1.925,0,0,1,1.923,1.923v7.693a3.846,3.846,0,0,0,7.693,0V3.846a1.925,1.925,0,0,1,1.923-1.923h5.769A1.925,1.925,0,0,1,50,3.846v7.693H48.078V15.55a2.889,2.889,0,0,0-1.923,2.719v9.616A2.889,2.889,0,0,0,48.078,30.6V44.232H46.155V50h9.616V44.232H53.848V30.6a2.9,2.9,0,0,0,1.758-1.758h4.012V23.078ZM11.876,7.693l-2.4-1.923h9.9l-2.4,1.923Zm4.471,1.923v1.923H12.5V9.616Zm4.808-7.693V3.846H7.693V1.923ZM11.539,13.462h5.769a2.888,2.888,0,0,1,2.885,2.885.963.963,0,0,1-.962.962H9.616a.963.963,0,0,1-.962-.962A2.888,2.888,0,0,1,11.539,13.462ZM5.688,20.128l4.033-.9h9.4l4.033.9a4.779,4.779,0,0,1,3.765,4.693V48.078h-25V24.821A4.779,4.779,0,0,1,5.688,20.128Zm18.351,33.72H4.808a2.888,2.888,0,0,1-2.885-2.885V50h25v.962A2.888,2.888,0,0,1,24.039,53.848ZM51.925,13.462v1.923H50V13.462Zm1.923,34.616H48.078V46.155h5.769ZM50,44.232V30.77h1.923V44.232Zm3.846-16.347a.963.963,0,0,1-.962.962H49.04a.963.963,0,0,1-.962-.962V18.27a.963.963,0,0,1,.962-.962h3.846a.963.963,0,0,1,.962.962Zm3.846-.962H55.771V25h1.923Z" transform="translate(0 0)"/>
        <path id="Trazado_727538" data-name="Trazado 727538" d="M371.183,423.042l-1.909.23.563,4.666-1.948-3.092-.046-.054a1.923,1.923,0,0,0-3.383,1.252v2.883a.962.962,0,0,1-1.923,0v-2.883a1.923,1.923,0,0,0-3.383-1.252l-.046.054-1.948,3.092.563-4.666-1.909-.23-.565,4.681a1.923,1.923,0,0,0,3.369,1.49l.046-.053,1.951-3.1v2.864a2.885,2.885,0,0,0,5.769,0v-2.862l1.95,3.1.046.053a1.923,1.923,0,0,0,3.369-1.486Z" transform="translate(-312.535 -372.194)"/>
        <path id="Trazado_727539" data-name="Trazado 727539" d="M42.577,213.154A10.577,10.577,0,1,0,32,202.577,10.589,10.589,0,0,0,42.577,213.154Zm8.654-10.577a8.611,8.611,0,0,1-1.9,5.4L47.2,205.835a4.8,4.8,0,0,0,.19-1.335v-1.923a2.889,2.889,0,0,0-1.923-2.719v-1.127a2.884,2.884,0,0,0-5.744-.373L37.18,195.82a8.647,8.647,0,0,1,14.052,6.757Zm-7.693-2.885H41.616v-.962a.962.962,0,1,1,1.923,0Zm-3.846,2.885a.962.962,0,0,1,.625-.9l1.3,1.3v4.244a2.889,2.889,0,0,1-1.923-2.719Zm3.846,2.321,1.339,1.339a2.9,2.9,0,0,1-1.339.982Zm-.563-3.283H44.5a.963.963,0,0,1,.962.962V204.1ZM35.82,197.18l3.1,3.1a2.882,2.882,0,0,0-1.147,2.3V204.5a4.8,4.8,0,0,0,8.475,3.1l1.73,1.73A8.647,8.647,0,0,1,35.82,197.18Z" transform="translate(-28.154 -168.922)"/>
      </g>
    </g>
  </g>
</svg>
