<svg xmlns="http://www.w3.org/2000/svg" width="83" height="83" viewBox="0 0 83 83">
  <g id="Grupo_960453" data-name="Grupo 960453" transform="translate(-3817 7688)">
    <rect id="Rectángulo_340667" data-name="Rectángulo 340667" width="83" height="83" transform="translate(3817 -7688)" fill="none"/>
    <g id="_06-Wash_hands" data-name="06-Wash hands" transform="translate(3827 -7679)">
      <path id="Trazado_727540" data-name="Trazado 727540" d="M63,51V63L40.36,52.17,41,52l5-5Z" fill="#f2b59d"/>
      <path id="Trazado_727541" data-name="Trazado 727541" d="M4,43.87a4.078,4.078,0,0,1-1.83-1.04A4.025,4.025,0,0,1,1,40a3,3,0,0,1,3-3H8l.03-.04,4.53,3.47a2.8,2.8,0,0,0,3.64-.22,2.714,2.714,0,0,0,.8-1.92v-.47A2,2,0,0,0,16,36l-3.99-3.15.03-.04,7.15,5.56A2.975,2.975,0,0,0,24,36.02v-.53a2.956,2.956,0,0,0-1.15-2.35L24,34a4.022,4.022,0,0,0,2.02,1A2.97,2.97,0,0,0,29,32.02v-.53a2.965,2.965,0,0,0-1.19-2.38L25,27h1V26a2.006,2.006,0,0,0-2-2H15.47a2.469,2.469,0,0,1-1.1-4.68l2.75-.96L21,17l3,.33L30,18l3.84,3.2L48,33H63V51L46,47l-5,5-.64.17L22.39,56.9a3.056,3.056,0,0,1-.79.1H19.3a3.142,3.142,0,0,1-2.22-.92L15,54H13.71a4.015,4.015,0,0,1-3.72-2.51L9,49H8.03a2.986,2.986,0,0,1-2.78-1.89L4,44Z" fill="#f2c4b2"/>
      <path id="Trazado_727542" data-name="Trazado 727542" d="M33,16l1,5-.16.2L30,18l-6-.67V14.38a3.373,3.373,0,0,1,6.01-2.11Z" fill="#f2b59d"/>
      <path id="Trazado_727543" data-name="Trazado 727543" d="M26,26v1H25l-3.28-2.46A2.7,2.7,0,0,0,20.1,24H24a2.006,2.006,0,0,1,2,2Z" fill="#ed9776"/>
      <path id="Trazado_727544" data-name="Trazado 727544" d="M27.81,29.11,25,27l-3.28-2.46A2.7,2.7,0,0,0,20.1,24H18.69A2.684,2.684,0,0,0,16,26.69a2.887,2.887,0,0,0,.8,1.91l-.08-.06A2.7,2.7,0,0,0,15.1,28H13.69a2.687,2.687,0,0,0-1.65,4.81l7.15,5.56A2.975,2.975,0,0,0,24,36.02v-.53a2.956,2.956,0,0,0-1.15-2.35L24,34a4.022,4.022,0,0,0,2.02,1A2.97,2.97,0,0,0,29,32.02v-.53a2.965,2.965,0,0,0-1.19-2.38Z" fill="#f2b59d"/>
      <path id="Trazado_727545" data-name="Trazado 727545" d="M18,1V9H9V7H1V1Z" fill="#d4d4d4"/>
      <g id="Grupo_960452" data-name="Grupo 960452">
        <path id="Trazado_727546" data-name="Trazado 727546" d="M17,37.82v.47a2.714,2.714,0,0,1-.8,1.92,2.8,2.8,0,0,1-3.64.22L8.03,36.96l-2.08-1.6a2.429,2.429,0,0,1-.89-1.37A2.5,2.5,0,0,1,5,33.44,2.458,2.458,0,0,1,7.48,31H8.79a2.487,2.487,0,0,1,1.49.49l1.73,1.36L16,36a2,2,0,0,1,1,1.82Z" fill="#f2b59d"/>
        <path id="Trazado_727547" data-name="Trazado 727547" d="M29.81,32.11,29,31.5v.518A2.97,2.97,0,0,1,26.02,35,4.022,4.022,0,0,1,24,34l-1.15-.86A2.956,2.956,0,0,1,24,35.49v.01l.81.607-.81-.6v.514a2.978,2.978,0,0,1-4.81,2.35l-6.18-4.806a.284.284,0,0,1-.006.071L16,36a2,2,0,0,1,1,1.82v.292l4.19,3.258A2.975,2.975,0,0,0,26,39.02v-.53a2.956,2.956,0,0,0-1.15-2.35L26,37a4.022,4.022,0,0,0,2.02,1A2.97,2.97,0,0,0,31,35.02v-.53a2.965,2.965,0,0,0-1.19-2.38Z" fill="#f2b59d"/>
        <path id="Trazado_727548" data-name="Trazado 727548" d="M18,39l-1-.789v.079a2.714,2.714,0,0,1-.8,1.92,2.8,2.8,0,0,1-3.64.22L8.03,36.96,8,37H7.063a2.432,2.432,0,0,0,.887,1.36l2.08,1.6,4.53,3.47a2.8,2.8,0,0,0,3.64-.22,2.714,2.714,0,0,0,.8-1.92v-.47A2,2,0,0,0,18,39Z" fill="#f2b59d"/>
      </g>
      <path id="Trazado_727549" data-name="Trazado 727549" d="M13,60.75c0,1.66-.9,2.25-2,2.25s-2-.59-2-2.25S11,57,11,57,13,59.09,13,60.75Z" fill="#96e0ff"/>
      <path id="Trazado_727550" data-name="Trazado 727550" d="M10,59.75a5.1,5.1,0,0,1,1.1-2.638L11,57s-2,2.09-2,3.75S9.9,63,11,63a1.786,1.786,0,0,0,1.812-1.134A2.385,2.385,0,0,1,12,62C10.9,62,10,61.41,10,59.75Z" fill="#81d2f5"/>
      <path id="Trazado_727551" data-name="Trazado 727551" d="M8.03,36.96,8,37H4a3,3,0,0,0-3,3V38a4,4,0,0,1,4-4l.06-.01a2.429,2.429,0,0,0,.89,1.37Z" fill="#ed9776"/>
      <path id="Trazado_727552" data-name="Trazado 727552" d="M8,56a2.7,2.7,0,0,1-3,3,2.7,2.7,0,0,1-3-3c0-2.21,3-5,3-5S8,53.79,8,56Z" fill="#96e0ff"/>
      <path id="Trazado_727553" data-name="Trazado 727553" d="M3,54a3.114,3.114,0,0,1,.118-.8A5.382,5.382,0,0,0,2,56a2.7,2.7,0,0,0,3,3,2.651,2.651,0,0,0,2.965-2.563A3.277,3.277,0,0,1,6,57a2.7,2.7,0,0,1-3-3Z" fill="#81d2f5"/>
      <path id="Trazado_727554" data-name="Trazado 727554" d="M25.243,54.189a1,1,0,0,0,.757-.97V52l-8.66,1.87a1.851,1.851,0,0,1-.7.13H15l1.667,1.667L18,56Z" fill="#f2b59d"/>
      <path id="Trazado_727555" data-name="Trazado 727555" d="M22.358,49.3A2,2,0,0,0,24,47.331V47L13,49H9l.8,2H13Z" fill="#f2b59d"/>
      <path id="Trazado_727556" data-name="Trazado 727556" d="M19.027,44.329A2.361,2.361,0,0,0,21,42L8,44H5a3.657,3.657,0,0,1-1-.13V44l.8,2H9Z" fill="#f2b59d"/>
      <path id="Trazado_727557" data-name="Trazado 727557" d="M49.564,50.754,63,54.706V51L46,47l-5,5-.64.17L47,55.346V52.673a2,2,0,0,1,2.564-1.919Z" fill="#ed9776"/>
      <path id="Trazado_727558" data-name="Trazado 727558" d="M26.414,32.89l-7.574-5.3A1.973,1.973,0,0,1,19.97,24H18.69A2.684,2.684,0,0,0,16,26.69a2.887,2.887,0,0,0,.8,1.91l.01.01,6,4.5c.01.01.03.02.04.03L24,34a4.022,4.022,0,0,0,2.02,1,2.943,2.943,0,0,0,2.886-2.27A2,2,0,0,1,26.414,32.89Z" fill="#f2a283"/>
      <path id="Trazado_727559" data-name="Trazado 727559" d="M14.414,38.89,6.84,33.59a1.928,1.928,0,0,1-.753-2.165A2.425,2.425,0,0,0,5,33.44a2.505,2.505,0,0,0,.06.55,2.429,2.429,0,0,0,.89,1.37l2.08,1.6,4.53,3.47a2.8,2.8,0,0,0,3.64-.22,2.72,2.72,0,0,0,.761-1.54,2,2,0,0,1-2.547.22Z" fill="#f2a283"/>
      <path id="Trazado_727560" data-name="Trazado 727560" d="M21.414,36.89l-8.574-6.3a1.967,1.967,0,0,1-.8-2,2.661,2.661,0,0,0-.579.6,2.691,2.691,0,0,0,.58,3.63l7.15,5.56a2.96,2.96,0,0,0,4.716-1.64,2,2,0,0,1-2.492.152Z" fill="#f2a283"/>
      <path id="Trazado_727561" data-name="Trazado 727561" d="M63,33H59v7.838a3,3,0,0,1-3.949,2.846l-2.28-.76A5.2,5.2,0,0,0,46,47l17,4Z" fill="#f2b59d"/>
      <path id="Trazado_727562" data-name="Trazado 727562" d="M24,22H15a2,2,0,0,1-1.855-1.262A2.416,2.416,0,0,0,13,21.53,2.475,2.475,0,0,0,15.47,24H24a2.006,2.006,0,0,1,2,2V24A2,2,0,0,0,24,22Z" fill="#f2b59d"/>
      <path id="Trazado_727563" data-name="Trazado 727563" d="M18.69,24H17v.61A2.665,2.665,0,0,1,18.69,24Z" fill="#81d2f5"/>
      <path id="Trazado_727564" data-name="Trazado 727564" d="M12.01,32.85l.03-.04A2.686,2.686,0,0,1,13.69,28H15.1a2.7,2.7,0,0,1,1.62.54l.08.06a2.887,2.887,0,0,1-.8-1.91,2.671,2.671,0,0,1,1-2.08V24H15.47a2.469,2.469,0,0,1-1.1-4.68L17,18.4V9H10V31.315a2.469,2.469,0,0,1,.28.175Z" fill="#96e0ff"/>
      <path id="Trazado_727565" data-name="Trazado 727565" d="M3,1V3A2,2,0,0,0,5,5H9V7H1V1Z" fill="#bfbfbf"/>
      <path id="Trazado_727566" data-name="Trazado 727566" d="M9,8h9V9H9Z" fill="#bfbfbf"/>
      <path id="Trazado_727567" data-name="Trazado 727567" d="M14,11h3V9H10V31.315a2.469,2.469,0,0,1,.28.175l1.73,1.36.03-.04a2.644,2.644,0,0,1-.04-4.2V13a2,2,0,0,1,2-2Z" fill="#81d2f5"/>
      <rect id="Rectángulo_340702" data-name="Rectángulo 340702" width="2" height="6" rx="1" transform="translate(14 12)" fill="#b3f5ff"/>
      <rect id="Rectángulo_340703" data-name="Rectángulo 340703" width="2" height="3" rx="1" transform="translate(14 24)" fill="#b3f5ff"/>
      <rect id="Rectángulo_340704" data-name="Rectángulo 340704" width="2" height="3" rx="1" transform="translate(12 17)" fill="#b3f5ff"/>
      <path id="Trazado_727568" data-name="Trazado 727568" d="M6.3,55.991c.357.082.555-.429.541-.755A1.186,1.186,0,0,0,6.2,54.129a1.421,1.421,0,0,0-.9-.1.665.665,0,0,0-.345.154.388.388,0,0,0-.107.384.537.537,0,0,0,.139.193l1.019,1.031a.637.637,0,0,0,.294.2Z" fill="#fff"/>
      <path id="Trazado_727569" data-name="Trazado 727569" d="M12.066,61.5c.178.041.277-.215.271-.378a.594.594,0,0,0-.317-.553.716.716,0,0,0-.449-.05.333.333,0,0,0-.172.077.193.193,0,0,0-.054.192.26.26,0,0,0,.07.1l.509.515a.32.32,0,0,0,.142.1Z" fill="#fff"/>
      <path id="Trazado_727570" data-name="Trazado 727570" d="M63,32H48.362L34.937,20.812l.043-.008-1-5a.994.994,0,0,0-.2-.429L30.8,11.643A4.377,4.377,0,0,0,23,14.377V15h2v-.623a2.376,2.376,0,0,1,4.232-1.485l2.835,3.543.477,2.383-1.9-1.586a1,1,0,0,0-.531-.226l-9-1a1,1,0,0,0-.44.05L18,16.989V10a1,1,0,0,0,1-1V1a1,1,0,0,0-1-1H1V2H17V8H10V7A1,1,0,0,0,9,6H1V8H8V9a1,1,0,0,0,1,1V22h2V10h5v7.687l-1.964.686a1,1,0,0,0-.117.049A3.47,3.47,0,0,0,15.43,25,3.629,3.629,0,0,0,15,26.69c0,.107.027.209.036.314H13.687a3.679,3.679,0,0,0-3.642,3.241A3.489,3.489,0,0,0,8.789,30H7.479a3.458,3.458,0,0,0-3.444,3.1A5,5,0,0,0,0,38v2a5,5,0,0,0,3.181,4.645l1.136,2.84A3.981,3.981,0,0,0,8.031,50h.292l.742,1.856A4.976,4.976,0,0,0,13.708,55h.878l1.79,1.791A4.161,4.161,0,0,0,19.3,58h2.3a4.14,4.14,0,0,0,1.051-.136l18.609-4.9a.99.99,0,0,0,.452-.26l4.6-4.6L62,51.792v9.621l-14.572-6.97-.864,1.8,16,7.654A1,1,0,0,0,64,63V33a1,1,0,0,0-1-1ZM21.117,25.337l6.092,4.569A1.991,1.991,0,0,1,28,31.489v.533A1.981,1.981,0,0,1,26.021,34c-.065,0-.442-.038-1.423-.8l-1.168-.871c-.008-.006-.014-.014-.022-.02L17.521,27.89A1.664,1.664,0,0,1,17,26.69,1.688,1.688,0,0,1,18.687,25H20.1a1.7,1.7,0,0,1,1.017.337ZM24,25a.989.989,0,0,1,.939.7ZM13.687,29H15.1a1.7,1.7,0,0,1,1.013.337l.19.142c.047.041.083.091.132.129l5.8,4.322A1.988,1.988,0,0,1,23,35.489v.533a1.977,1.977,0,0,1-3.192,1.561l-7.157-5.566A1.686,1.686,0,0,1,13.687,29ZM7.479,32h1.31a1.5,1.5,0,0,1,.886.287L15.406,36.8c.52.384.594.563.594,1.018v.47A1.73,1.73,0,0,1,14.251,40a1.781,1.781,0,0,1-1.079-.364L6.557,34.569A1.427,1.427,0,0,1,6,33.442,1.463,1.463,0,0,1,7.479,32ZM2,40a2,2,0,0,1,2-2H5V36H4a3.966,3.966,0,0,0-1.453.283,3,3,0,0,1,1.875-1.225,3.408,3.408,0,0,0,.918,1.1l6.615,5.067a3.8,3.8,0,0,0,2.3.776,3.844,3.844,0,0,0,.494-.049L7.924,43H5a3,3,0,0,1-3-3Zm44.229,6.026a1,1,0,0,0-.936.267L40.484,51.1,22.137,55.93A2.11,2.11,0,0,1,21.6,56H19.3a2.147,2.147,0,0,1-1.506-.624l-.466-.466a2.9,2.9,0,0,0,.292-.074l8.595-1.858-.422-1.956L17.129,52.9a.848.848,0,0,0-.141.042.994.994,0,0,1-.35.063h-2.93a2.984,2.984,0,0,1-2.785-1.886L10.477,50H13a.977.977,0,0,0,.179-.016l11-2-.358-1.968L12.91,48H8.031a1.988,1.988,0,0,1-1.856-1.257L5.477,45H8a.964.964,0,0,0,.152-.012l13-2-.3-1.976L15.1,41.9a3.71,3.71,0,0,0,2.86-3.22l.619.482A3.979,3.979,0,0,0,25,36.022v-.245A2.769,2.769,0,0,0,26.021,36,3.983,3.983,0,0,0,30,32.022v-.533a4,4,0,0,0-1.592-3.182L28,28h3V26H27a3,3,0,0,0-3-3H15.472a1.472,1.472,0,0,1-.708-2.763l6.351-2.218,8.476.941L47.359,33.768A1,1,0,0,0,48,34H62V49.737Z"/>
      <path id="Trazado_727571" data-name="Trazado 727571" d="M43,52.805h2v2.217H43Z" transform="translate(-23.621 70.346) rotate(-64.46)"/>
      <path id="Trazado_727572" data-name="Trazado 727572" d="M5.681,50.268a1,1,0,0,0-1.362,0C3.979,50.584,1,53.43,1,56a3.675,3.675,0,0,0,4,4,3.675,3.675,0,0,0,4-4c0-2.57-2.979-5.416-3.319-5.732ZM5,58c-1.383,0-2-.617-2-2,0-1.026,1.048-2.517,2-3.569.856.95,2,2.469,2,3.569C7,57.383,6.383,58,5,58Z"/>
      <path id="Trazado_727573" data-name="Trazado 727573" d="M10.277,56.309C10.044,56.553,8,58.75,8,60.75A2.9,2.9,0,0,0,11,64a2.9,2.9,0,0,0,3-3.25c0-2-2.044-4.2-2.277-4.441a1.032,1.032,0,0,0-1.446,0ZM11,62c-.506,0-1-.1-1-1.25a4.5,4.5,0,0,1,1-2.184,4.5,4.5,0,0,1,1,2.184C12,61.9,11.506,62,11,62Z"/>
      <path id="Trazado_727574" data-name="Trazado 727574" d="M9,24h2v4H9Z"/>
    </g>
  </g>
</svg>
