<svg xmlns="http://www.w3.org/2000/svg" xmlns:xlink="http://www.w3.org/1999/xlink" width="83" height="83" viewBox="0 0 83 83">
  <defs>
    <clipPath id="clip-path">
      <path id="path5541" d="M0-682.665H57.8v57.8H0Z" transform="translate(0 682.665)"/>
    </clipPath>
  </defs>
  <g id="Grupo_960396" data-name="Grupo 960396" transform="translate(-5766 9018)">
    <rect id="Rectángulo_340654" data-name="Rectángulo 340654" width="83" height="83" transform="translate(5766 -9018)" fill="none"/>
    <g id="g5535" transform="translate(5779 -8322.335)">
      <g id="g5537" transform="translate(0 -682.665)">
        <g id="g5539" clip-path="url(#clip-path)">
          <g id="g5545" transform="translate(11.226 21.963)">
            <path id="path5547" d="M-312.292-378.291h-22.427a4.173,4.173,0,0,1-4.161-3.865l-2.3-31.13h35.353l-2.3,31.13a4.173,4.173,0,0,1-4.161,3.865" transform="translate(341.182 413.286)" fill="#81d261"/>
          </g>
          <g id="g5549" transform="translate(37.109 21.962)">
            <path id="path5551" d="M-102.37,0l-2.3,31.131A4.172,4.172,0,0,1-108.833,35h-3.007a4.172,4.172,0,0,0,4.161-3.865L-105.376,0Z" transform="translate(111.84)" fill="#68ca44"/>
          </g>
          <g id="g5553" transform="translate(8.937 15.089)">
            <path id="path5555" d="M-416.515-74.3h-37.132a1.4,1.4,0,0,1-1.4-1.4V-79.78a1.4,1.4,0,0,1,1.4-1.4h37.132a1.4,1.4,0,0,1,1.4,1.4V-75.7a1.4,1.4,0,0,1-1.4,1.4" transform="translate(455.046 81.178)" fill="#d9e7ec"/>
          </g>
          <g id="g5557" transform="translate(44.462 15.089)">
            <path id="path5559" d="M-47.621-15.121v4.076a1.4,1.4,0,0,1-1.4,1.4h-3.007a1.4,1.4,0,0,0,1.4-1.4v-4.076a1.4,1.4,0,0,0-1.4-1.4h3.007a1.4,1.4,0,0,1,1.4,1.4" transform="translate(52.027 16.52)" fill="#c5d3dd"/>
          </g>
          <g id="g5561" transform="translate(11.608 0.847)">
            <path id="path5563" d="M-373.9-153.958H-408.49l2.693-12.568a2.119,2.119,0,0,1,2.072-1.675h25.059a2.119,2.119,0,0,1,2.072,1.675Z" transform="translate(408.49 168.201)" fill="#81d261"/>
          </g>
          <g id="g5565" transform="translate(38.425 0.847)">
            <path id="path5567" d="M-84-153.957h-3.005L-89.7-166.524a2.118,2.118,0,0,0-2.072-1.675h3.007a2.118,2.118,0,0,1,2.072,1.675Z" transform="translate(91.773 168.2)" fill="#68ca44"/>
          </g>
          <g id="g5569" transform="translate(20.382 0.847)">
            <path id="path5571" d="M-184.2,0h-17.04V5.735a2.4,2.4,0,0,0,2.4,2.4h12.233a2.4,2.4,0,0,0,2.4-2.4Z" transform="translate(201.242)" fill="#d9e7ec"/>
          </g>
          <g id="g5573" transform="translate(32.013 0.847)">
            <path id="path5575" d="M-58.483,0V5.735a2.4,2.4,0,0,1-2.4,2.4h-3.007a2.4,2.4,0,0,0,2.4-2.4V0Z" transform="translate(63.893 0)" fill="#c5d3dd"/>
          </g>
          <g id="g5577" transform="translate(18.335 27.579)">
            <path id="path5579" d="M-198.414,0H-213.99a2.779,2.779,0,0,0-2.779,2.779V18.355a2.779,2.779,0,0,0,2.779,2.779h15.576a2.779,2.779,0,0,0,2.779-2.779V2.779A2.779,2.779,0,0,0-198.414,0" transform="translate(216.769)" fill="#fff9df"/>
          </g>
          <g id="g5581" transform="translate(33.684 27.579)">
            <path id="path5583" d="M-62.535-30.034v15.577a2.778,2.778,0,0,1-2.778,2.778H-68.32a2.779,2.779,0,0,0,2.78-2.778V-30.034a2.779,2.779,0,0,0-2.78-2.778h3.007a2.778,2.778,0,0,1,2.778,2.778" transform="translate(68.32 32.812)" fill="#fff3be"/>
          </g>
          <g id="g5585" transform="translate(10.379 21.116)">
            <path id="path5587" d="M-394.243-21.067H-416.67a5.04,5.04,0,0,1-5.006-4.649l-2.3-31.13a.847.847,0,0,1,.782-.907.847.847,0,0,1,.907.782l2.3,31.13a3.339,3.339,0,0,0,3.317,3.081h22.427a3.339,3.339,0,0,0,3.317-3.081l2-27.086a.847.847,0,0,1,.907-.782.847.847,0,0,1,.782.907l-2,27.086A5.04,5.04,0,0,1-394.243-21.067Z" transform="translate(423.979 57.755)"/>
          </g>
          <g id="g5589" transform="translate(8.091 14.242)">
            <path id="path5591" d="M-425.668-82.611H-462.8a2.248,2.248,0,0,1-2.245-2.246v-4.076a2.248,2.248,0,0,1,2.245-2.246h37.132a2.248,2.248,0,0,1,2.246,2.246v4.076A2.248,2.248,0,0,1-425.668-82.611ZM-462.8-89.485a.553.553,0,0,0-.552.552v4.076a.553.553,0,0,0,.552.552h37.132a.553.553,0,0,0,.552-.552v-4.076a.553.553,0,0,0-.552-.552Z" transform="translate(465.046 91.178)"/>
          </g>
          <g id="g5593" transform="translate(10.761 0)">
            <path id="path5595" d="M-157.477,5.936h-34.589a.847.847,0,0,1-.658-.314.847.847,0,0,1-.169-.71L-190.2-7.656A2.981,2.981,0,0,1-187.3-10h6.824a.847.847,0,0,1,.847.847.847.847,0,0,1-.847.847H-187.3A1.279,1.279,0,0,0-188.545-7.3l-2.474,11.543h32.494L-161-7.3a1.279,1.279,0,0,0-1.244-1.006h-14.336a.847.847,0,0,1-.847-.847.847.847,0,0,1,.847-.847h14.336a2.981,2.981,0,0,1,2.9,2.344l2.693,12.568a.847.847,0,0,1-.169.71A.847.847,0,0,1-157.477,5.936Z" transform="translate(192.913 10)"/>
          </g>
          <g id="g5597" transform="translate(19.536 0)">
            <path id="path5599" d="M5.484-.168H-6.75A3.254,3.254,0,0,1-10-3.418V-9.153A.847.847,0,0,1-9.153-10a.847.847,0,0,1,.847.847v5.735A1.558,1.558,0,0,0-6.75-1.861H5.484A1.558,1.558,0,0,0,7.04-3.418V-9.153A.847.847,0,0,1,7.887-10a.847.847,0,0,1,.847.847v5.735A3.254,3.254,0,0,1,5.484-.168Z" transform="translate(10 10)"/>
          </g>
          <g id="g5601" transform="translate(21.524 34.243)">
            <path id="path5603" d="M-20.369-90.992a1.865,1.865,0,0,1-1.622-.927,1.865,1.865,0,0,1-.024-1.868l3.392-6.112a.847.847,0,0,1,1.151-.329.847.847,0,0,1,.329,1.151l-3.392,6.112a.18.18,0,0,0,0,.187.18.18,0,0,0,.162.093.847.847,0,0,1,.847.847A.847.847,0,0,1-20.369-90.992Z" transform="translate(22.254 100.335)"/>
          </g>
          <g id="g5605" transform="translate(26.709 40.354)">
            <path id="path5607" d="M-93.78-6.771h-6.84a.847.847,0,0,1-.847-.847.847.847,0,0,1,.847-.847h6.84a.18.18,0,0,0,.162-.093.18.18,0,0,0,0-.187A.847.847,0,0,1-93.286-9.9a.847.847,0,0,1,1.151.329A1.865,1.865,0,0,1-92.158-7.7,1.865,1.865,0,0,1-93.78-6.771Z" transform="translate(101.466 10.002)"/>
          </g>
          <g id="g5609" transform="translate(27.15 29.924)">
            <path id="path5611" d="M-3.546-7.223a.846.846,0,0,1-.741-.436l-3.8-6.842a.179.179,0,0,0-.165-.1.179.179,0,0,0-.165.1.847.847,0,0,1-1.151.329A.847.847,0,0,1-9.9-15.323a1.883,1.883,0,0,1,1.645-.969,1.883,1.883,0,0,1,1.645.969l3.8,6.842A.847.847,0,0,1-3.136-7.33.843.843,0,0,1-3.546-7.223Z" transform="translate(10.002 16.292)"/>
          </g>
          <g id="g5613" transform="translate(26.709 39.916)">
            <path id="path5615" d="M-30.511-4.355a.844.844,0,0,1-.6-.248l-1.976-1.976a.847.847,0,0,1-.248-.6.847.847,0,0,1,.248-.6l1.976-1.976a.847.847,0,0,1,1.2,0,.847.847,0,0,1,0,1.2l-1.377,1.377L-29.912-5.8a.847.847,0,0,1,0,1.2A.844.844,0,0,1-30.511-4.355Z" transform="translate(33.333 10)"/>
          </g>
          <g id="g5617" transform="translate(22.35 34.243)">
            <path id="path5619" d="M-46.147-37.482a.847.847,0,0,1-.817-.628l-.5-1.881-1.881.5a.847.847,0,0,1-1.037-.6.847.847,0,0,1,.6-1.037l2.7-.723a.847.847,0,0,1,1.037.6l.723,2.7a.847.847,0,0,1-.6,1.037A.848.848,0,0,1-46.147-37.482Z" transform="translate(50.416 41.874)"/>
          </g>
          <g id="g5621" transform="translate(30.059 34.6)">
            <path id="path5623" d="M-6.457-28.943a.846.846,0,0,1-.219-.029l-2.7-.723a.847.847,0,0,1-.6-1.037.847.847,0,0,1,1.037-.6l1.881.5.5-1.881a.847.847,0,0,1,1.037-.6.847.847,0,0,1,.6,1.037l-.723,2.7a.847.847,0,0,1-.395.514A.847.847,0,0,1-6.457-28.943Z" transform="translate(10.002 33.336)"/>
          </g>
          <g id="g5625" transform="translate(17.489 26.732)">
            <path id="path5627" d="M9.2-148.047H-6.374A3.63,3.63,0,0,1-10-151.673v-4.733a.847.847,0,0,1,.847-.847.847.847,0,0,1,.847.847v4.733a1.934,1.934,0,0,0,1.932,1.932H9.2a1.934,1.934,0,0,0,1.932-1.932v-15.576A1.934,1.934,0,0,0,9.2-169.181H-6.374a1.934,1.934,0,0,0-1.932,1.932v6.9a.847.847,0,0,1-.847.847A.847.847,0,0,1-10-160.35v-6.9a3.63,3.63,0,0,1,3.626-3.625H9.2a3.63,3.63,0,0,1,3.625,3.625v15.576A3.63,3.63,0,0,1,9.2-148.047Z" transform="translate(10 170.874)"/>
          </g>
        </g>
      </g>
    </g>
  </g>
</svg>
