<svg xmlns="http://www.w3.org/2000/svg" width="83" height="83" viewBox="0 0 83 83">
  <g id="Grupo_960410" data-name="Grupo 960410" transform="translate(-3493 7725)">
    <rect id="Rectángulo_340666" data-name="Rectángulo 340666" width="83" height="83" transform="translate(3493 -7725)" fill="none"/>
    <g id="lesion" transform="translate(3507 -7701)">
      <path id="Trazado_727482" data-name="Trazado 727482" d="M442.485,191.539l-2.766-4.056a.382.382,0,0,0-.631,0l-2.762,4.05a3.757,3.757,0,1,0,6.159.006Zm0,0" transform="translate(-388.128 -166.88)" fill="#ff646f"/>
      <path id="Trazado_727483" data-name="Trazado 727483" d="M440.293,196.56a3.785,3.785,0,0,1-.654-5.027l1.423-2.086-1.339-1.964a.382.382,0,0,0-.631,0l-2.762,4.05a3.754,3.754,0,0,0,4.732,5.524A3.727,3.727,0,0,1,440.293,196.56Zm0,0" transform="translate(-388.13 -166.88)" fill="#ff4755"/>
      <path id="Trazado_727484" data-name="Trazado 727484" d="M126.251,23.961h6.02l-3.461-5.638H116.3a.482.482,0,0,1-.292-.865l5.9-4.5a2.873,2.873,0,0,0-2.577-5.127L106.605,13.4a11.768,11.768,0,0,0-2.934,2.045h0l-1.778,1.8c-.93.939-2.5,1.11-4.386,1.126l-.562,0V36.876h1.994c4.089,0,3.715,4.047,8.8,4.042l11.91-.009v.009h4.4A2.819,2.819,0,0,0,126.87,38.1a2.763,2.763,0,0,0-2.136-2.67.1.1,0,0,1,.019-.207,2.787,2.787,0,0,0,.832-5.412.107.107,0,0,1,.028-.208,2.785,2.785,0,0,0,2.588-2.781c0-1.267-.9-2-2.022-2.528A.174.174,0,0,1,126.251,23.961Zm0,0" transform="translate(-86.369 -6.736)" fill="#fed2a4"/>
      <g id="Grupo_960386" data-name="Grupo 960386" transform="translate(10.577 15.043)">
        <path id="Trazado_727485" data-name="Trazado 727485" d="M124.051,250.542h-4.4v-.009l-11.91.009c-5.086.005-4.712-4.045-8.8-4.042H96.945v3.246h1.994c4.089,0,3.715,4.047,8.8,4.042l11.91-.009v.009h4.4a2.819,2.819,0,0,0,2.819-2.819,2.673,2.673,0,0,0-.528-1.6A2.815,2.815,0,0,1,124.051,250.542Zm0,0" transform="translate(-96.945 -234.65)" fill="#ffbd86"/>
        <path id="Trazado_727486" data-name="Trazado 727486" d="M277.328,138.974a1.091,1.091,0,0,0,1.091,1.091h14.555l-1.339-2.181H278.419A1.091,1.091,0,0,0,277.328,138.974Zm0,0" transform="translate(-257.648 -137.883)" fill="#ffbd86"/>
        <path id="Trazado_727487" data-name="Trazado 727487" d="M278.419,189.941a1.091,1.091,0,1,0,0,2.182h7.822a.106.106,0,0,1,.075-.039,2.79,2.79,0,0,0,2.515-2.143Zm0,0" transform="translate(-257.648 -184.262)" fill="#ffbd86"/>
        <path id="Trazado_727488" data-name="Trazado 727488" d="M278.419,241.625a1.091,1.091,0,1,0,0,2.182h6.95a.1.1,0,0,1,.087-.058,2.833,2.833,0,0,0,2.613-2.124Zm0,0" transform="translate(-257.648 -230.307)" fill="#ffbd86"/>
      </g>
      <path id="Trazado_727489" data-name="Trazado 727489" d="M400.825,109.008A2.816,2.816,0,0,0,398,106.2h-9.852l3.461,5.639c5.251,0,4.752,0,6.4,0A2.823,2.823,0,0,0,400.825,109.008Zm0,0" transform="translate(-345.801 -94.609)" fill="#b4dbff"/>
      <path id="Trazado_727490" data-name="Trazado 727490" d="M407.6,137.883l1.339,2.182c5.251,0,4.752,0,6.4,0a2.823,2.823,0,0,0,2.746-2.18Zm0,0" transform="translate(-363.129 -122.84)" fill="#8bcaff"/>
      <path id="Trazado_727491" data-name="Trazado 727491" d="M443.084,109.008a2.816,2.816,0,0,0-2.825-2.812h-3.546l-1.131,5.639h4.681A2.823,2.823,0,0,0,443.084,109.008Zm0,0" transform="translate(-388.06 -94.609)" fill="#8bcaff"/>
      <path id="Trazado_727492" data-name="Trazado 727492" d="M436.02,137.883l-.438,2.182h4.681a2.824,2.824,0,0,0,2.746-2.18Zm0,0" transform="translate(-388.06 -122.84)" fill="#60b8ff"/>
      <path id="Trazado_727493" data-name="Trazado 727493" d="M461.592,106.2h-2.064l3.29,5.359a2.818,2.818,0,0,0-1.225-5.359Zm0,0" transform="translate(-409.393 -94.609)" fill="#b4dbff"/>
      <path id="Trazado_727494" data-name="Trazado 727494" d="M478.977,137.883l1.168,1.9a2.828,2.828,0,0,0,1.525-1.9Zm0,0" transform="translate(-426.72 -122.84)" fill="#8bcaff"/>
      <path id="Trazado_727495" data-name="Trazado 727495" d="M16.02,81.523H8.77A1.431,1.431,0,0,0,7.344,82.95v21.038a1.431,1.431,0,0,0,1.426,1.426h7.25a1.431,1.431,0,0,0,1.426-1.426V82.95A1.431,1.431,0,0,0,16.02,81.523Zm0,0" transform="translate(-6.543 -72.629)" fill="#d9edff"/>
      <path id="Trazado_727496" data-name="Trazado 727496" d="M16.02,259.1H8.77a1.431,1.431,0,0,1-1.426-1.426v3.246a1.43,1.43,0,0,0,1.426,1.426h7.25a1.43,1.43,0,0,0,1.426-1.426v-3.246A1.431,1.431,0,0,1,16.02,259.1Zm0,0" transform="translate(-6.543 -229.563)" fill="#b4dbff"/>
      <path id="Trazado_727497" data-name="Trazado 727497" d="M52.219,10.768H30.945l5.1-3.885a3.689,3.689,0,0,0-3.4-6.532L19.927,5.91l-.017.007a12.366,12.366,0,0,0-3.176,2.216L14.96,9.924c-.624.63-1.739.825-3.221.872v-.476A2.247,2.247,0,0,0,9.5,8.076H2.245A2.247,2.247,0,0,0,0,10.321V31.358A2.247,2.247,0,0,0,2.245,33.6h7.25a2.247,2.247,0,0,0,2.245-2.245v-.4h.852C16.145,30.957,16,35,21.38,35h.009l4.631,0a.818.818,0,0,0,0-1.637h0l-4.632,0H21.38c-4.684,0-4.252-4.042-8.792-4.042h-.849V12.434c1.6-.044,3.294-.258,4.384-1.359,1.544-1.559,2.488-2.718,4.47-3.671L33.31,1.847l.015-.007c2.094-.966,4.22,1.96,1.759,3.718l-.02.015-5.9,4.5a1.3,1.3,0,0,0,.788,2.334H41.906l2.456,4h-13a.818.818,0,1,0,0,1.637h7.512c1.527.6,2.156,1.192,2.156,2.042a2,2,0,0,1-2,2H31.365a.818.818,0,0,0,0,1.637H38.27a2,2,0,0,1,0,4H31.365a.818.818,0,1,0,0,1.637H37.7a2,2,0,0,1,0,4c-7.14,0-.787-.012-7.862-.006a.818.818,0,0,0,0,1.637h0L37.7,35a3.636,3.636,0,0,0,2.552-6.227,3.634,3.634,0,0,0,.643-5.565,3.47,3.47,0,0,0,1.016-5.165c9.224,0,8.676,0,10.31,0a3.637,3.637,0,1,0,0-7.274ZM10.1,31.358a.609.609,0,0,1-.608.608H2.245a.609.609,0,0,1-.608-.608V10.321a.609.609,0,0,1,.608-.608h7.25a.609.609,0,0,1,.608.608ZM49.694,12.4l2.456,4H48.538l.8-4Zm2.523,0h0a2,2,0,0,1,1.46,3.364L51.614,12.4Zm-8.39,0h3.845l-.8,4h-.586Zm0,0"/>
      <path id="Trazado_727498" data-name="Trazado 727498" d="M436.535,187.776a.819.819,0,0,0-1.077.423,2.938,2.938,0,1,1-5.086-2.887l2.4-3.521,2.3,3.377a.818.818,0,1,0,1.352-.922l-2.664-3.907a1.2,1.2,0,0,0-1.983,0l-2.762,4.05a4.574,4.574,0,1,0,7.937,4.463A.818.818,0,0,0,436.535,187.776Zm0,0" transform="translate(-381.48 -160.198)"/>
    </g>
  </g>
</svg>
