<svg xmlns="http://www.w3.org/2000/svg" width="83" height="83" viewBox="0 0 83 83">
  <g id="Grupo_960390" data-name="Grupo 960390" transform="translate(-4821 9035)">
    <rect id="Rectángulo_340651" data-name="Rectángulo 340651" width="83" height="83" transform="translate(4821 -9035)" fill="none"/>
    <g id="lavar-la-ropa" transform="translate(4834.071 -9021.932)">
      <path id="Trazado_727336" data-name="Trazado 727336" d="M145.067,44.576V56.048a1.911,1.911,0,0,0,1.912,1.912h28.679v-15.3H146.979A1.911,1.911,0,0,0,145.067,44.576Z" transform="translate(-128.815 -37.882)" fill="#f5a338"/>
      <rect id="Rectángulo_340668" data-name="Rectángulo 340668" width="10.516" height="9.56" transform="translate(46.843 7.65)" fill="#fbccad"/>
      <path id="Trazado_727337" data-name="Trazado 727337" d="M176.543,101.652H153.6l4.446-19.267a7.21,7.21,0,0,1,7.025-5.589h0a7.21,7.21,0,0,1,7.025,5.589Z" transform="translate(-136.392 -68.191)" fill="#97d3e6"/>
      <g id="Grupo_960339" data-name="Grupo 960339" transform="translate(22.004 18.048)">
        <rect id="Rectángulo_340669" data-name="Rectángulo 340669" width="1.912" height="16.919" transform="translate(13.548 16.789) rotate(172.877)" fill="#7dbdd1"/>
        <rect id="Rectángulo_340670" data-name="Rectángulo 340670" width="10.688" height="1.911" transform="matrix(-0.179, 0.984, -0.984, -0.179, 3.791, 5.067)" fill="#7dbdd1"/>
      </g>
      <path id="Trazado_727338" data-name="Trazado 727338" d="M146.978,42.664h6.692a1.911,1.911,0,0,1,1.912,1.912V56.048a1.911,1.911,0,0,1-1.912,1.912h-6.692a1.911,1.911,0,0,1-1.912-1.912V44.576A1.912,1.912,0,0,1,146.978,42.664Z" transform="translate(-128.814 -37.882)" fill="#f9b44d"/>
      <path id="Trazado_727339" data-name="Trazado 727339" d="M183.98,34.131h-1.912v1.912h1.912a.956.956,0,0,1,.956.956v.956H179.2v1.912h5.736v1.912H179.2v1.912h5.736V45.6H179.2v1.912h5.736v.956a.956.956,0,0,1-.956.956H179.2v1.912h4.78a2.868,2.868,0,0,0,2.868-2.868V37A2.868,2.868,0,0,0,183.98,34.131Z" transform="translate(-159.124 -30.305)" fill="#f5a338"/>
      <g id="Grupo_960340" data-name="Grupo 960340" transform="translate(0.956 8.606)">
        <circle id="Elipse_5792" data-name="Elipse 5792" cx="2.868" cy="2.868" r="2.868" fill="#ebebeb"/>
        <circle id="Elipse_5793" data-name="Elipse 5793" cx="1.912" cy="1.912" r="1.912" transform="translate(6.692 9.56)" fill="#ebebeb"/>
      </g>
      <path id="Trazado_727340" data-name="Trazado 727340" d="M209.58,12.36H213.4L210.57,9.526a3.38,3.38,0,0,0-5.77,2.39V14.75a2.39,2.39,0,0,0,4.78,0V12.36Z" transform="translate(-181.857 -7.578)" fill="#f9b44d"/>
      <g id="Grupo_960341" data-name="Grupo 960341" transform="translate(5.205 25.721)">
        <path id="Trazado_727341" data-name="Trazado 727341" d="M65.066,237.316a4.232,4.232,0,0,0-6.714-4.227v-.021a3.4,3.4,0,0,0-6.8-.182,3.448,3.448,0,0,0,.05.68,3.366,3.366,0,0,0-5.026,3.75H65.066Z" transform="translate(-46.458 -229.576)" fill="#ebebeb"/>
        <path id="Trazado_727342" data-name="Trazado 727342" d="M345.164,245.691a3.321,3.321,0,0,0-4.013-3.743,4.293,4.293,0,1,0-7.64,3.743h11.654Z" transform="translate(-300.706 -237.951)" fill="#ebebeb"/>
      </g>
      <g id="Grupo_960342" data-name="Grupo 960342" transform="translate(0.956 33.461)">
        <path id="Trazado_727343" data-name="Trazado 727343" d="M86.642,351.917H46.491L42.667,332.8h47.8Z" transform="translate(-38.843 -328.973)" fill="#4398d1"/>
        <path id="Trazado_727344" data-name="Trazado 727344" d="M10.445,298.664H62.068a1.911,1.911,0,0,1,1.912,1.912h0a1.911,1.911,0,0,1-1.912,1.912H10.445a1.911,1.911,0,0,1-1.912-1.912h0A1.911,1.911,0,0,1,10.445,298.664Z" transform="translate(-8.533 -298.664)" fill="#4398d1"/>
      </g>
      <path id="Trazado_727345" data-name="Trazado 727345" d="M285.6,458.621a3.77,3.77,0,1,0-6.888-2.923,2.852,2.852,0,0,0-4.77,2.923Z" transform="translate(-243.096 -402.216)" fill="#ebebeb"/>
      <path id="Trazado_727346" data-name="Trazado 727346" d="M89.94,335.426l.526-2.629h-47.8l.526,2.629Z" transform="translate(-37.887 -295.512)" fill="#398cc4"/>
      <path id="Trazado_727347" data-name="Trazado 727347" d="M118.581,298.664h-7.648v9.56a1.912,1.912,0,0,0,1.912,1.912h0a1.911,1.911,0,0,0,1.912-1.912V304.4a1.911,1.911,0,0,1,1.912-1.912h0a1.911,1.911,0,0,1,1.912,1.912v.956a1.911,1.911,0,0,0,1.912,1.912h0a1.911,1.911,0,0,0,1.912-1.912v-6.692Z" transform="translate(-98.505 -265.203)" fill="#97d3e6"/>
      <path id="Trazado_727348" data-name="Trazado 727348" d="M57.359,8.606V6.694H47.8V4.782a.956.956,0,0,0-.956-.956h-14.9L29.389,1.273a4.32,4.32,0,0,0-7.35,2.553H18.164A2.868,2.868,0,0,0,15.3,6.694V18.166a2.868,2.868,0,0,0,2.868,2.868h.93l-1.461,6.333a4.346,4.346,0,0,0-8.2.973,4.179,4.179,0,0,0-.831-.083A4.352,4.352,0,0,0,4.26,32.505H2.868a2.868,2.868,0,0,0,0,5.736H4L7.667,56.6a.957.957,0,0,0,.937.765H48.755a.956.956,0,0,0,.937-.765l3.671-18.355h1.128a2.868,2.868,0,0,0,0-5.736H50.619a4.253,4.253,0,0,0-4.37-3.824,5.225,5.225,0,0,0-6.779-2.422l-1.206-5.225h8.578a.956.956,0,0,0,.956-.956V18.166h9.56V16.254H47.8V8.606ZM23.9,4.338a2.423,2.423,0,0,1,4.137-1.714l1.2,1.2H26.767V7.172a1.419,1.419,0,0,1-.225.765l-.029.006.009.031a1.434,1.434,0,0,1-2.623-.8V4.338ZM17.208,18.166V6.694a.956.956,0,0,1,.956-.956h3.824V7.172a3.346,3.346,0,0,0,.049.478H20.076V9.562H23a3.138,3.138,0,0,0,2.812.907v1H20.076v1.912h5.736V15.3H20.076V17.21h5.736v.956a.956.956,0,0,1-.956.956H18.164A.957.957,0,0,1,17.208,18.166Zm4.78,2.868h2.868a2.868,2.868,0,0,0,2.868-2.868V9.642a6.2,6.2,0,0,1,7.05,4.767l3.008,13.04a5.2,5.2,0,0,0-1.249,5.055H35.259L33.452,18.047l-1.9.237,1.777,14.221H24.85a5.156,5.156,0,0,0-.41-1.93L25.8,23.118l-1.88-.342-1.047,5.755a5.176,5.176,0,0,0-3.218-1.122c-.023,0-.044.006-.066.006l1.471-6.381h.931Zm-3.824,15.3A2.868,2.868,0,0,0,15.3,39.2v3.824a.956.956,0,1,1-1.912,0v-8.6h9.56v5.736a.956.956,0,0,1-1.912,0V39.2A2.868,2.868,0,0,0,18.164,36.329ZM8.6,30.169a2.4,2.4,0,0,1,1.254.36.956.956,0,0,0,1.023-.038.979.979,0,0,0,.413-.956,2.335,2.335,0,0,1-.035-.326,2.443,2.443,0,0,1,4.886-.033v.054a.956.956,0,0,0,1.53.765,3.259,3.259,0,0,1,1.975-.677,3.3,3.3,0,0,1,3.294,3.187H6.162A2.445,2.445,0,0,1,8.6,30.169Zm-6.692,5.2a.956.956,0,0,1,.956-.956h8.6v1.912h-8.6A.956.956,0,0,1,1.912,35.373ZM31.627,55.449a1.911,1.911,0,0,1,1.912-1.912,1.891,1.891,0,0,1,1.384.6.956.956,0,0,0,1.613-.391,2.8,2.8,0,0,1,2.7-2.044,2.832,2.832,0,0,1,2.828,2.829,2.7,2.7,0,0,1-.163.916H31.627Zm16.347,0h-4.1a4.476,4.476,0,0,0,.1-.916,4.726,4.726,0,0,0-8.74-2.51,3.782,3.782,0,0,0-1.7-.4,3.824,3.824,0,0,0-3.824,3.824H9.387L5.946,38.241h5.525v4.78a2.868,2.868,0,1,0,5.736,0V39.2a.956.956,0,0,1,1.912,0v.956a2.868,2.868,0,0,0,5.736,0V38.241H51.412Zm7.473-20.076a.956.956,0,0,1-.956.956H24.855V34.417H54.491A.956.956,0,0,1,55.447,35.373ZM44.74,30.02a.956.956,0,0,0,1.113.632,2.258,2.258,0,0,1,.512-.058,2.391,2.391,0,0,1,2.342,1.912H38.562a3.337,3.337,0,0,1,6.005-2.912A3.094,3.094,0,0,1,44.74,30.02Zm1.147-10.9H37.823l-1.186-5.142a8.126,8.126,0,0,0-7.958-6.33h-.049a3.344,3.344,0,0,0,.049-.478V5.738H45.887Z" transform="translate(0)"/>
      <path id="Trazado_727349" data-name="Trazado 727349" d="M3.824,75.912A3.824,3.824,0,1,0,0,72.088,3.824,3.824,0,0,0,3.824,75.912Zm0-5.736a1.912,1.912,0,1,1-1.912,1.912A1.911,1.911,0,0,1,3.824,70.176Z" transform="translate(0 -60.614)"/>
      <path id="Trazado_727350" data-name="Trazado 727350" d="M59.733,156.465A2.868,2.868,0,1,0,62.6,153.6,2.868,2.868,0,0,0,59.733,156.465Zm3.824,0a.956.956,0,1,1-.956-.956A.956.956,0,0,1,63.557,156.465Z" transform="translate(-53.041 -136.387)"/>
    </g>
  </g>
</svg>
