<svg xmlns="http://www.w3.org/2000/svg" width="83" height="83" viewBox="0 0 83 83">
  <g id="Grupo_960393" data-name="Grupo 960393" transform="translate(-4821 8671)">
    <rect id="Rectángulo_340657" data-name="Rectángulo 340657" width="83" height="83" transform="translate(4821 -8671)" fill="none"/>
    <g id="no-tirar-basura" transform="translate(4831 -8661.036)">
      <path id="Trazado_727402" data-name="Trazado 727402" d="M41,50H23L19,24H45Z" fill="#41578e"/>
      <path id="Trazado_727403" data-name="Trazado 727403" d="M45,24H19l1.283,8.339C23.749,41.571,30.665,50,37.5,50H41Z" fill="#536bb0"/>
      <rect id="Rectángulo_340671" data-name="Rectángulo 340671" width="4" height="16" rx="2" transform="translate(26 29)" fill="#6886c5"/>
      <rect id="Rectángulo_340672" data-name="Rectángulo 340672" width="4" height="16" rx="2" transform="translate(34 29)" fill="#6886c5"/>
      <path id="Trazado_727404" data-name="Trazado 727404" d="M19,18H45a3,3,0,0,1,3,3v3H16V21A3,3,0,0,1,19,18Z" fill="#41578e"/>
      <path id="Trazado_727405" data-name="Trazado 727405" d="M48,21a3,3,0,0,0-3-3H19a2.994,2.994,0,0,0-2.518,1.378C18.3,22.026,25.221,24,33.5,24H48Z" fill="#536bb0"/>
      <path id="Trazado_727406" data-name="Trazado 727406" d="M32,2A30,30,0,1,0,62,32,30,30,0,0,0,32,2ZM6,32A25.993,25.993,0,0,1,48.819,12.181L12.181,48.819A25.888,25.888,0,0,1,6,32ZM32,58a25.888,25.888,0,0,1-16.819-6.181L51.819,15.181A25.993,25.993,0,0,1,32,58Z" fill="#d26c71"/>
      <path id="Trazado_727407" data-name="Trazado 727407" d="M38,18H36V16a1,1,0,0,0-1-1H29a1,1,0,0,0-1,1v2H26V16a3,3,0,0,1,3-3h6a3,3,0,0,1,3,3Z" fill="#6886c5"/>
      <path id="Trazado_727408" data-name="Trazado 727408" d="M32,1.036a31,31,0,1,0,31,31,31,31,0,0,0-31-31Zm0,60a29,29,0,1,1,29-29,29,29,0,0,1-29,29Z"/>
      <path id="Trazado_727409" data-name="Trazado 727409" d="M49.818,12.176a1,1,0,0,0-.351-.721A26.994,26.994,0,0,0,11.418,49.5a1,1,0,0,0,.722.351h.041a1,1,0,0,0,.707-.293L49.526,12.924A1,1,0,0,0,49.818,12.176ZM36,17H28V16a1,1,0,0,1,1-1h6a1,1,0,0,1,1,1Zm4.622,2-4,4H17V21a2,2,0,0,1,2-2Zm-6,6L30.4,29.22A2.991,2.991,0,0,0,25,31v3.622l-2.907,2.907L20.166,25Zm-5.686,5.685L27,32.622V31a1,1,0,0,1,1-1,.99.99,0,0,1,.936.685ZM42.622,17H38V16a3,3,0,0,0-3-3H29a3,3,0,0,0-3,3v1H19a4,4,0,0,0-4,4v3a1,1,0,0,0,1,1h2.142l2.2,14.282L12.26,47.364A24.994,24.994,0,0,1,47.329,12.293Z"/>
      <path id="Trazado_727410" data-name="Trazado 727410" d="M52.582,14.569a1,1,0,0,0-.722-.351.944.944,0,0,0-.748.292L14.474,51.148a1,1,0,0,0,.059,1.469A26.994,26.994,0,0,0,52.582,14.569ZM27,41.45l2-2V43a1,1,0,0,1-2,0ZM28,46a3,3,0,0,0,3-3V37.45l2-2V43a3,3,0,0,0,6,0V31a2.983,2.983,0,0,0-.287-1.262L43.45,25h.384L40.142,49H23.858l-.588-3.82,1.771-1.771A3,3,0,0,0,28,46Zm7-12.55,2-2V43a1,1,0,0,1-2,0ZM45.451,23,47,21.451V23ZM32,57.036a25,25,0,0,1-15.329-5.258l4.846-4.845.5,3.219A1,1,0,0,0,23,51H41a1,1,0,0,0,.988-.848L45.858,25H48a1,1,0,0,0,1-1V21a3.994,3.994,0,0,0-.231-1.318l2.974-2.974A24.994,24.994,0,0,1,32,57.036Z"/>
    </g>
  </g>
</svg>
