<svg xmlns="http://www.w3.org/2000/svg" width="99.514" height="153" viewBox="0 0 99.514 153">
  <g id="nino" transform="translate(-89.482)">
    <path id="Trazado_727146" data-name="Trazado 727146" d="M116.169,182.842c0,7.472-4.571,13.529-10.21,13.529s-8.915-6.956-8.915-14.428,3.276-12.63,8.915-12.63S116.169,175.37,116.169,182.842Z" transform="translate(-5.302 -118.711)" fill="#ffa78f"/>
    <path id="Trazado_727147" data-name="Trazado 727147" d="M351.049,182.842c0,7.472,4.571,13.529,10.21,13.529s8.915-6.956,8.915-14.428-3.276-12.63-8.915-12.63S351.049,175.37,351.049,182.842Z" transform="translate(-183.394 -118.711)" fill="#ffa78f"/>
    <path id="Trazado_727148" data-name="Trazado 727148" d="M203.03,381.784v5.246H124.259v-5.246a24.77,24.77,0,0,1,17.956-23.814l9.378-2.683a5.758,5.758,0,0,0,4.174-5.536v-8.1h15.754v8.1a5.758,5.758,0,0,0,4.174,5.536l9.378,2.683A24.77,24.77,0,0,1,203.03,381.784Z" transform="translate(-24.383 -239.542)" fill="#ffb09e"/>
    <path id="Trazado_727149" data-name="Trazado 727149" d="M274.918,357.97l-9.378-2.683a5.758,5.758,0,0,1-4.174-5.536v-8.1H252.4v8.1a5.758,5.758,0,0,0,4.174,5.536l9.378,2.683a24.77,24.77,0,0,1,17.956,23.814v5.246h8.966v-5.246A24.77,24.77,0,0,0,274.918,357.97Z" transform="translate(-114.227 -239.542)" fill="#ffa78f"/>
    <path id="Trazado_727150" data-name="Trazado 727150" d="M145.828,110.515V88.1a32.939,32.939,0,1,1,65.879,0v22.29a32.939,32.939,0,1,1-65.879.124Z" transform="translate(-39.506 -38.676)" fill="#ffcebf"/>
    <path id="Trazado_727151" data-name="Trazado 727151" d="M245.391,55.162a33.251,33.251,0,0,0-4.483.3A32.945,32.945,0,0,1,269.364,88.1v22.29a33.007,33.007,0,0,1-28.514,32.7,33,33,0,0,0,37.48-32.7V88.1A32.939,32.939,0,0,0,245.391,55.162Z" transform="translate(-106.129 -38.676)" fill="#ffb09e"/>
    <path id="Trazado_727152" data-name="Trazado 727152" d="M184.372,36.376s-.255-7.722-7.7-14.276a.757.757,0,0,1-.263-.582c.117-5.086-3.525-14.081-30.75-14.081-33.008,0-44.544,23.828-46.99,30.039a.9.9,0,0,0,.986,1.221c1.484-.241,3.846-.627,6.106-1a.607.607,0,0,1,.621.909c-1.5,2.536-4.892,9.348-6.137,20.613a.56.56,0,0,0,.525.621,11.785,11.785,0,0,0,7.315-1.965.816.816,0,0,1,1.267.46c1.115,4.254,3.366,11.649,3.366,11.649s6.4-5.678,6.178-7.83c-.362-3.437-2.355-24.561,6.333-22.57s13.168,3.437,20.43,3.437,11.745-1.447,20.43-3.437,6.695,19.133,6.333,22.57c-.224,2.152,6.178,7.83,6.178,7.83s.568-6.037,1.59-8.237C180.648,60.748,185.155,45.781,184.372,36.376Z" transform="translate(-6.392 -5.214)" fill="#ab695d"/>
    <g id="Grupo_960240" data-name="Grupo 960240" transform="translate(93.844 2.223)">
      <path id="Trazado_727153" data-name="Trazado 727153" d="M285.717,36.376s-.255-7.722-7.7-14.276a.758.758,0,0,1-.263-.582c.117-5.086-3.526-14.081-30.75-14.081-1.32,0-2.6.042-3.855.116,22.577,1.062,25.748,9.215,25.639,13.964a.757.757,0,0,0,.263.582c7.45,6.554,7.7,14.276,7.7,14.276.5,6.063-1.189,14.437-2.58,19.891-.093,2.72-.31,4.954-.408,5.886-.224,2.152,6.178,7.83,6.178,7.83s.568-6.037,1.59-8.237C281.993,60.748,286.5,45.781,285.717,36.376Z" transform="translate(-201.582 -7.437)" fill="#9b5e5e"/>
      <path id="Trazado_727154" data-name="Trazado 727154" d="M104.221,177.575c-.007-.025-.019-.046-.028-.071-.039.315-.077.632-.113.955a.56.56,0,0,0,.525.621h.021C104.481,178.55,104.344,178.043,104.221,177.575Z" transform="translate(-104.077 -126.677)" fill="#9b5e5e"/>
    </g>
    <path id="Trazado_727155" data-name="Trazado 727155" d="M201.736,397.885v10.94a1.793,1.793,0,0,1-1.793,1.793H122.836a1.793,1.793,0,0,1-1.793-1.793v-10.94a25.15,25.15,0,0,1,17.9-24.082l10.548-3.175c.422-.127.857,12.379,11.9,12.379s11.475-12.506,11.9-12.379l10.548,3.175A25.149,25.149,0,0,1,201.736,397.885Z" transform="translate(-22.128 -259.86)" fill="#6c7fd8"/>
    <path id="Trazado_727156" data-name="Trazado 727156" d="M245.643,432.737a4.433,4.433,0,0,1-4.433-4.433V412.049h8.866V428.3A4.433,4.433,0,0,1,245.643,432.737Z" transform="translate(-106.382 -288.902)" fill="#f3eae6"/>
    <g id="Grupo_960241" data-name="Grupo 960241" transform="translate(150.519 110.767)">
      <path id="Trazado_727157" data-name="Trazado 727157" d="M304.9,373.8l-10.548-3.175a14.768,14.768,0,0,0-.64,2.506l2.222.669a25.149,25.149,0,0,1,17.9,24.082v10.94a1.793,1.793,0,0,1-1.793,1.793h8.966a1.793,1.793,0,0,0,1.793-1.793v-10.94A25.149,25.149,0,0,0,304.9,373.8Z" transform="translate(-293.71 -370.627)" fill="#0573ce"/>
    </g>
    <path id="Trazado_727158" data-name="Trazado 727158" d="M203.7,381.622c-18.374,15.587-21.872-6.826-22.3-10.409a.667.667,0,0,1,.365-.68c6.64-3.262,10.042-1.289,10.042-1.289A17.157,17.157,0,0,0,203.7,381.622Z" transform="translate(-64.443 -258.475)" fill="#faf7f7"/>
    <path id="Trazado_727159" data-name="Trazado 727159" d="M256.115,381.622c18.374,15.587,21.872-6.826,22.3-10.409a.667.667,0,0,0-.365-.68c-6.641-3.262-10.042-1.289-10.042-1.289A17.156,17.156,0,0,1,256.115,381.622Z" transform="translate(-116.832 -258.475)" fill="#faf7f7"/>
    <g id="Grupo_960242" data-name="Grupo 960242" transform="translate(89.482 0)">
      <path id="Trazado_727160" data-name="Trazado 727160" d="M173.686,79c17.547,7.254,21.221-30.49,4.667-30.623,1.206-5.389,2.29-12.137,1.864-17.355-.044-.874-.643-8.617-7.969-15.372a11.891,11.891,0,0,0-3.529-8.025c-8.628-9.585-41.2-9.968-54.771-2.056a2.242,2.242,0,0,0,2,4.01c12.932-7.612,43.436-6.2,49.562,1.178a7.411,7.411,0,0,1,2.258,5.5,2.994,2.994,0,0,0,1.023,2.315c6.568,5.779,6.933,12.4,6.945,12.667,0,.037,0,.075.006.112.7,8.435-3.3,22.543-4,24.265a19.988,19.988,0,0,0-1.176,4.421,12.847,12.847,0,0,1-2.3-3.043c.729-7.062,1.212-19.308-3.493-23.478-3.039-2.74-6.5-1-9.9-.314-11.231,3.1-20.008,3.1-31.239,0-1.328-.317-2.752-.657-4.31-1.014a6.057,6.057,0,0,0-5.589,1.328c-4.705,4.17-4.222,16.418-3.493,23.478a15.386,15.386,0,0,1-2.837,3.616c-.734-2.477-1.687-5.75-2.29-8.054a3.057,3.057,0,0,0-4.763-1.7,8.45,8.45,0,0,1-4.044,1.471c1.354-9.75,4.328-15.638,5.6-17.8a2.861,2.861,0,0,0-.1-3.061A2.82,2.82,0,0,0,99,30.27c-1.253.207-2.536.418-3.685.606A46.566,46.566,0,0,1,107.741,14.9a2.241,2.241,0,1,0-2.842-3.467A50.847,50.847,0,0,0,90.185,31.441,3.144,3.144,0,0,0,93.617,35.7l2.893-.472a59.726,59.726,0,0,0-4.89,18.534c0,.034,0,.068-.006.1-5.488,9.615-.129,30.768,13.2,25.149A35.205,35.205,0,0,0,129.143,105.5v3.907a2.24,2.24,0,0,0-.654-.58c-.455-.264-4.655-2.467-12.154,1.216a2.909,2.909,0,0,0-1.6,2.231,27.38,27.38,0,0,0-18.064,25.749v10.94A4.039,4.039,0,0,0,100.708,153h77.107a4.039,4.039,0,0,0,4.035-4.035v-10.94c0-.856-.04-1.72-.12-2.568a2.241,2.241,0,1,0-4.463.418c.066.71.1,1.432.1,2.149v10.492H169V145.23a2.242,2.242,0,0,0-4.483,0v3.288H114.008V145.23a2.242,2.242,0,0,0-4.483,0v3.288h-8.368V138.025A22.75,22.75,0,0,1,115.4,116.819c1.056,4.611,3.491,11.213,8.94,13.347a11.244,11.244,0,0,0,8.245-.23V139.4c.337,8.845,13.016,8.838,13.349,0v-9.474a11.254,11.254,0,0,0,8.267.239c5.447-2.135,7.881-8.732,8.938-13.342a22.8,22.8,0,0,1,11.259,9.923,2.242,2.242,0,0,0,3.9-2.208,27.262,27.262,0,0,0-14.492-12.256,2.909,2.909,0,0,0-1.6-2.238c-7.5-3.684-11.7-1.48-12.155-1.216a2.229,2.229,0,0,0-.676.61v-3.984A35.369,35.369,0,0,0,173.686,79Zm-9.456-14.114c0,4.752-3.017,7.161-8.967,7.161s-8.967-2.409-8.967-7.161c0-3.465.693-7.161,8.967-7.161s8.967,3.7,8.967,7.161Zm13.637-12.039c11.125.057,7.385,28.746-3.513,21.394.059-.834.091-1.674.091-2.522V64.88a34.033,34.033,0,0,1,1.382-7.4,44.24,44.24,0,0,0,1.418-4.6,5.549,5.549,0,0,1,.622-.035Zm-61.15-15.977a1.6,1.6,0,0,1,1.614-.313c18.4,4.666,23.478,4.661,41.862,0a1.6,1.6,0,0,1,1.615.313c2.113,1.873,2.94,9.129,2.136,18.3a16.958,16.958,0,0,0-8.681-1.927c-8.015,0-12.479,3.162-13.306,9.4h-5.389c-.827-6.241-5.291-9.4-13.306-9.4a16.958,16.958,0,0,0-8.681,1.927C113.776,46,114.6,38.739,116.716,36.866Zm6.545,20.854c8.274,0,8.967,3.7,8.967,7.161,0,4.752-3.017,7.161-8.967,7.161s-8.967-2.409-8.967-7.161c0-3.465.693-7.161,8.967-7.161Zm-22.6,17.7c-6.277.059-8.118-13.077-5.541-18.537a14.61,14.61,0,0,0,6.163-1.368c1.021,3.692,2.418,8.328,2.8,9.589V71.84c0,.8.029,1.6.082,2.4A5.985,5.985,0,0,1,100.657,75.417Zm7.905-3.577V67.123h1.424c.946,5.931,5.756,9.4,13.275,9.4s12.328-3.471,13.275-9.4h5.452c.947,5.931,5.756,9.4,13.275,9.4s12.328-3.471,13.275-9.4h1.424v4.591A30.8,30.8,0,0,1,139.2,102.474c-16.467.341-30.977-14.168-30.637-30.634Zm17.416,54.152c-3.717-1.457-5.847-7.348-6.639-12.4a11.045,11.045,0,0,1,6.181-1.074,19.418,19.418,0,0,0,9.258,11.221c-2.882,1.925-6.143,3.289-8.8,2.247ZM141.453,139.4a2.192,2.192,0,0,1-4.383,0V127.6q1.084-.712,2.2-1.581,1.107.859,2.181,1.567Zm17.753-25.8c-.792,5.047-2.921,10.938-6.639,12.4-2.657,1.042-5.918-.322-8.8-2.247a19.421,19.421,0,0,0,9.258-11.221,11.043,11.043,0,0,1,6.181,1.074Zm-13.345.418a2.227,2.227,0,0,0,1.053.975,14.5,14.5,0,0,1-7.642,5.809,14.5,14.5,0,0,1-7.54-5.657,2.228,2.228,0,0,0,.665-.675,7.987,7.987,0,0,0,1.228-4.259v-3.691a35.549,35.549,0,0,0,11.271-.024v3.715a8.028,8.028,0,0,0,.964,3.807Z" transform="translate(-89.482 0)"/>
      <path id="Trazado_727161" data-name="Trazado 727161" d="M194.1,159.078a12.506,12.506,0,0,1,7.683,0,2.242,2.242,0,0,0,1.132-4.338,16.749,16.749,0,0,0-9.947,0,2.242,2.242,0,0,0,1.132,4.338Z" transform="translate(-160.861 -107.964)"/>
      <path id="Trazado_727162" data-name="Trazado 727162" d="M279.11,159.078a12.506,12.506,0,0,1,7.683,0,2.242,2.242,0,0,0,1.132-4.338,16.75,16.75,0,0,0-9.947,0,2.242,2.242,0,0,0,1.132,4.338Z" transform="translate(-220.468 -107.964)"/>
      <path id="Trazado_727163" data-name="Trazado 727163" d="M234.774,283.12a2.242,2.242,0,0,0-2.18-3.917,24.05,24.05,0,0,1-23.228,0,2.242,2.242,0,0,0-2.18,3.917A28.564,28.564,0,0,0,234.774,283.12Z" transform="translate(-171.2 -195.561)"/>
      <path id="Trazado_727164" data-name="Trazado 727164" d="M205.338,206.744a3.736,3.736,0,1,0-3.736-3.736A3.74,3.74,0,0,0,205.338,206.744Z" transform="translate(-168.093 -139.734)"/>
      <path id="Trazado_727165" data-name="Trazado 727165" d="M289.221,199.215a3.736,3.736,0,1,0,3.736,3.736A3.74,3.74,0,0,0,289.221,199.215Z" transform="translate(-226.907 -139.677)"/>
      <path id="Trazado_727166" data-name="Trazado 727166" d="M235.249,251.174a2.241,2.241,0,0,0,3.157-.281c.958-1.32,4.062-1.347,5.017-.018a2.241,2.241,0,0,0,3.155.312c2.743-2.626-1.894-5.916-5.64-5.777a7.447,7.447,0,0,0-5.97,2.606A2.241,2.241,0,0,0,235.249,251.174Z" transform="translate(-191.121 -172.063)"/>
      <path id="Trazado_727167" data-name="Trazado 727167" d="M216.075,56.681a2.242,2.242,0,0,0-2.325-3.833c-.065.039-6.652,3.925-19.718,5.685L173.7,61.271l.6,4.443,20.333-2.738C208.725,61.077,215.781,56.86,216.075,56.681Z" transform="translate(-148.529 -36.829)"/>
    </g>
  </g>
</svg>
