<svg xmlns="http://www.w3.org/2000/svg" xmlns:xlink="http://www.w3.org/1999/xlink" width="83" height="83" viewBox="0 0 83 83">
  <defs>
    <clipPath id="clip-path">
      <path id="path8652" d="M0-682.665H70.5v70.5H0Z" transform="translate(0 682.665)"/>
    </clipPath>
  </defs>
  <g id="Grupo_960315" data-name="Grupo 960315" transform="translate(-1074 -2614)">
    <rect id="Rectángulo_340646" data-name="Rectángulo 340646" width="83" height="83" transform="translate(1074 2614)" fill="none"/>
    <g id="g8610" transform="translate(1080 3302.665)">
      <g id="g8612" transform="translate(47.834 -660.139)">
        <path id="path8614" d="M-187.864-211.02H-209.5v-24.3h14.949l6.687,11.254Z" transform="translate(209.501 235.323)" fill="#d9e7ec"/>
      </g>
      <g id="g8616" transform="translate(60.189 -660.138)">
        <path id="path8618" d="M-80.585-97.719V-84.67h-2.593V-97.719l-6.688-11.254h2.594Z" transform="translate(89.866 108.973)" fill="#c5d3dd"/>
      </g>
      <g id="g8620" transform="translate(1.033 -635.836)">
        <path id="path8622" d="M-594.227-34.124h-64.038l-4.4-3.93h68.438Z" transform="translate(662.665 38.055)" fill="#a8d3d8"/>
      </g>
      <path id="path8624" d="M650.151-225.3h-2.593v-3.93h2.593Z" transform="translate(-580.681 -406.609)" fill="#8ebac5"/>
      <g id="g8626" transform="translate(1.033 -667.169)">
        <path id="path8628" d="M-148.043,0V31.334h-17.05V17.05Z" transform="translate(165.093)" fill="#02905d"/>
      </g>
      <g id="g8630" transform="translate(15.244 -667.169)">
        <path id="path8632" d="M-24.654,0V31.334h-2.839V2.839Z" transform="translate(27.493)" fill="#017b4e"/>
      </g>
      <path id="path8634" d="M204.843-501.291h-29.75v-31.334h29.75Z" transform="translate(-157.01 -134.544)" fill="#81d261"/>
      <path id="path8636" d="M433.639-501.291h-3.4v-31.334h3.4Z" transform="translate(-385.805 -134.544)" fill="#68ca44"/>
      <g id="g8638" transform="translate(52.213 -655.66)">
        <path id="path8640" d="M-106.754-60.41h-12.295v-6.958h8.292Z" transform="translate(119.049 67.368)" fill="#8ac9fe"/>
      </g>
      <g id="g8642" transform="translate(57.544 -655.66)">
        <path id="path8644" d="M-60.463-60.416h-2.961l-4-6.958h2.961Z" transform="translate(67.426 67.374)" fill="#60b8fe"/>
      </g>
      <path id="path8646" d="M581.528-349.093h-4.962v-4.718h4.962Z" transform="translate(-517.02 -294.891)" fill="#a8d3d8"/>
      <g id="g8648" transform="translate(0 -682.665)">
        <g id="g8650" clip-path="url(#clip-path)">
          <g id="g8656" transform="translate(51.438 46.512)">
            <path id="path8658" d="M-73.765-36.884a4.248,4.248,0,0,1-4.248,4.248,4.248,4.248,0,0,1-4.248-4.248,4.248,4.248,0,0,1,4.248-4.248,4.248,4.248,0,0,1,4.248,4.248" transform="translate(82.261 41.132)" fill="#314dc9"/>
          </g>
          <g id="g8660" transform="translate(54.367 46.511)">
            <path id="path8662" d="M-48.327-36.886a4.248,4.248,0,0,1-4.248,4.248,4.216,4.216,0,0,1-1.318-.209,4.246,4.246,0,0,0,2.93-4.039,4.246,4.246,0,0,0-2.93-4.039,4.212,4.212,0,0,1,1.318-.209,4.248,4.248,0,0,1,4.248,4.248" transform="translate(53.893 41.135)" fill="#2740b0"/>
          </g>
          <g id="g8664" transform="translate(26.924 46.512)">
            <path id="path8666" d="M-73.767-36.884a4.248,4.248,0,0,1-4.248,4.248,4.248,4.248,0,0,1-4.248-4.248,4.248,4.248,0,0,1,4.248-4.248,4.248,4.248,0,0,1,4.248,4.248" transform="translate(82.262 41.132)" fill="#314dc9"/>
          </g>
          <g id="g8668" transform="translate(29.854 46.511)">
            <path id="path8670" d="M-48.327-36.886a4.248,4.248,0,0,1-4.248,4.248,4.217,4.217,0,0,1-1.318-.209,4.246,4.246,0,0,0,2.93-4.039,4.246,4.246,0,0,0-2.93-4.039,4.214,4.214,0,0,1,1.318-.209,4.248,4.248,0,0,1,4.248,4.248" transform="translate(53.893 41.135)" fill="#2740b0"/>
          </g>
          <g id="g8672" transform="translate(13.835 46.512)">
            <path id="path8674" d="M-73.765-36.884a4.248,4.248,0,0,1-4.248,4.248,4.248,4.248,0,0,1-4.248-4.248,4.248,4.248,0,0,1,4.248-4.248,4.248,4.248,0,0,1,4.248,4.248" transform="translate(82.261 41.132)" fill="#314dc9"/>
          </g>
          <g id="g8676" transform="translate(16.765 46.511)">
            <path id="path8678" d="M-48.327-36.886a4.248,4.248,0,0,1-4.248,4.248,4.217,4.217,0,0,1-1.318-.209,4.248,4.248,0,0,0,2.93-4.039,4.248,4.248,0,0,0-2.93-4.039,4.213,4.213,0,0,1,1.318-.209,4.248,4.248,0,0,1,4.248,4.248" transform="translate(53.893 41.135)" fill="#2740b0"/>
          </g>
          <g id="g8680" transform="translate(1.291 15.808)">
            <path id="path8682" d="M-121.147-21.943l-11.425,11.425-2.527-2.527,11.425-11.425Z" transform="translate(135.1 24.471)" fill="#81d261"/>
          </g>
          <g id="g8684" transform="translate(46.801 21.493)">
            <path id="path8686" d="M12.669-218.954a1.033,1.033,0,0,1-1.033-1.033v-12.765L5.394-243.258H-7.934v23.271a1.033,1.033,0,0,1-1.033,1.033A1.033,1.033,0,0,1-10-219.987v-24.3a1.033,1.033,0,0,1,1.033-1.033H5.982a1.033,1.033,0,0,1,.888.505l6.687,11.254a1.033,1.033,0,0,1,.145.528v13.049A1.033,1.033,0,0,1,12.669-218.954Z" transform="translate(10 245.323)"/>
          </g>
          <g id="g8688" transform="translate(56.265 45.797)">
            <path id="path8690" d="M3.205-4H-6.332A1.033,1.033,0,0,1-7.365-5.037,1.033,1.033,0,0,1-6.332-6.07h8.5V-7.934H-8.967A1.033,1.033,0,0,1-10-8.967,1.033,1.033,0,0,1-8.967-10H3.205A1.033,1.033,0,0,1,4.238-8.967v3.93A1.033,1.033,0,0,1,3.205-4Z" transform="translate(10 10)"/>
          </g>
          <g id="g8692" transform="translate(31.751 45.797)">
            <path id="path8694" d="M12.321-7.934H-8.967A1.033,1.033,0,0,1-10-8.967,1.033,1.033,0,0,1-8.967-10H12.321a1.033,1.033,0,0,1,1.033,1.033A1.033,1.033,0,0,1,12.321-7.934Z" transform="translate(10 10)"/>
          </g>
          <g id="g8696" transform="translate(18.663 45.797)">
            <path id="path8698" d="M.9-7.934H-8.967A1.033,1.033,0,0,1-10-8.967,1.033,1.033,0,0,1-8.967-10H.9A1.033,1.033,0,0,1,1.929-8.967,1.033,1.033,0,0,1,.9-7.934Z" transform="translate(10 10)"/>
          </g>
          <g id="g8700" transform="translate(0 45.797)">
            <path id="path8702" d="M-120.13-42.059h-8.4a1.033,1.033,0,0,1-.688-.263l-4.4-3.93a1.033,1.033,0,0,1-.277-1.138,1.033,1.033,0,0,1,.965-.665h15.438a1.033,1.033,0,0,1,1.033,1.033,1.033,1.033,0,0,1-1.033,1.033h-12.731l2.087,1.865h8.009a1.033,1.033,0,0,1,1.033,1.033A1.033,1.033,0,0,1-120.13-42.059Z" transform="translate(133.965 48.055)"/>
          </g>
          <g id="g8704" transform="translate(21.298 49.727)">
            <path id="path8706" d="M-48.844-7.934h-4.593a1.033,1.033,0,0,1-1.033-1.033A1.033,1.033,0,0,1-53.436-10h4.593a1.033,1.033,0,0,1,1.033,1.033A1.033,1.033,0,0,1-48.844-7.934Z" transform="translate(54.469 10)"/>
          </g>
          <g id="g8708" transform="translate(34.387 49.727)">
            <path id="path8710" d="M-107.145-7.934h-11.307a1.033,1.033,0,0,1-1.033-1.033A1.033,1.033,0,0,1-118.452-10h11.307a1.033,1.033,0,0,1,1.033,1.033A1.033,1.033,0,0,1-107.145-7.934Z" transform="translate(119.485 10)"/>
          </g>
          <g id="g8712" transform="translate(0 14.463)">
            <path id="path8714" d="M-415.33-280a1.033,1.033,0,0,1-1.033-1.033v-30.3h-28.29L-461.1-294.886v13.855A1.033,1.033,0,0,1-462.131-280a1.033,1.033,0,0,1-1.033-1.033v-14.283a1.033,1.033,0,0,1,.3-.73l17.05-17.051a1.033,1.033,0,0,1,.73-.3h29.751a1.033,1.033,0,0,1,1.033,1.033v31.334A1.033,1.033,0,0,1-415.33-280Z" transform="translate(463.164 313.397)"/>
          </g>
          <g id="g8716" transform="translate(17.051 19.76)">
            <path id="path8718" d="M-8.967,17.784A1.033,1.033,0,0,1-10,16.751V-8.967A1.033,1.033,0,0,1-8.967-10,1.033,1.033,0,0,1-7.934-8.967V16.751A1.033,1.033,0,0,1-8.967,17.784Z" transform="translate(10 10)"/>
          </g>
          <g id="g8720" transform="translate(51.18 25.973)">
            <path id="path8722" d="M-115.721-68.345h-12.295a1.033,1.033,0,0,1-1.033-1.033v-6.958a1.033,1.033,0,0,1,1.033-1.033h8.292a1.033,1.033,0,0,1,.9.518l4,6.957a1.033,1.033,0,0,1,0,1.032A1.033,1.033,0,0,1-115.721-68.345Zm-11.262-2.066h9.476l-2.815-4.892h-6.662Z" transform="translate(129.049 77.368)"/>
          </g>
          <path id="path8724" d="M572.56-357.028H567.6a1.033,1.033,0,0,1-1.033-1.033v-4.718a1.033,1.033,0,0,1,1.033-1.033h4.962a1.033,1.033,0,0,1,1.033,1.033v4.718A1.033,1.033,0,0,1,572.56-357.028Zm-3.93-2.066h2.9v-2.652h-2.9Z" transform="translate(-508.052 396.741)"/>
          <g id="g8726" transform="translate(50.405 45.479)">
            <path id="path8728" d="M-86.981-51.132A5.287,5.287,0,0,1-81.7-45.851a5.287,5.287,0,0,1-5.281,5.281,5.287,5.287,0,0,1-5.28-5.281A5.287,5.287,0,0,1-86.981-51.132Zm0,8.5a3.219,3.219,0,0,0,3.215-3.215,3.219,3.219,0,0,0-3.215-3.215A3.219,3.219,0,0,0-90.2-45.851,3.219,3.219,0,0,0-86.981-42.636Z" transform="translate(92.261 51.132)"/>
          </g>
          <g id="g8730" transform="translate(25.891 45.479)">
            <path id="path8732" d="M-86.982-51.132A5.287,5.287,0,0,1-81.7-45.851a5.287,5.287,0,0,1-5.281,5.281,5.287,5.287,0,0,1-5.281-5.281A5.287,5.287,0,0,1-86.982-51.132Zm0,8.5a3.219,3.219,0,0,0,3.215-3.215,3.219,3.219,0,0,0-3.215-3.215A3.219,3.219,0,0,0-90.2-45.851,3.219,3.219,0,0,0-86.982-42.636Z" transform="translate(92.262 51.132)"/>
          </g>
          <g id="g8734" transform="translate(12.803 45.479)">
            <path id="path8736" d="M-86.981-51.132A5.287,5.287,0,0,1-81.7-45.851a5.287,5.287,0,0,1-5.281,5.281,5.287,5.287,0,0,1-5.281-5.281A5.287,5.287,0,0,1-86.981-51.132Zm0,8.5a3.219,3.219,0,0,0,3.215-3.215,3.219,3.219,0,0,0-3.215-3.215A3.219,3.219,0,0,0-90.2-45.851,3.219,3.219,0,0,0-86.981-42.636Z" transform="translate(92.261 51.132)"/>
          </g>
          <g id="g8738" transform="translate(23.041 27.368)">
            <path id="path8740" d="M-21.222-98.284a2.419,2.419,0,0,1-2.1-1.2,2.419,2.419,0,0,1-.031-2.423l4.615-8.314a1.033,1.033,0,0,1,1.4-.4,1.033,1.033,0,0,1,.4,1.4l-4.615,8.314a.364.364,0,0,0,0,.373.364.364,0,0,0,.323.185,1.033,1.033,0,0,1,1.033,1.033A1.033,1.033,0,0,1-21.222-98.284Z" transform="translate(23.666 110.755)"/>
          </g>
          <g id="g8742" transform="translate(30.094 35.682)">
            <path id="path8744" d="M-101.679-5.845h-9.305a1.033,1.033,0,0,1-1.033-1.033,1.033,1.033,0,0,1,1.033-1.033h9.305a.363.363,0,0,0,.323-.185.364.364,0,0,0,0-.373,1.033,1.033,0,0,1,.4-1.4,1.033,1.033,0,0,1,1.4.4,2.419,2.419,0,0,1-.031,2.423A2.418,2.418,0,0,1-101.679-5.845Z" transform="translate(112.017 10.002)"/>
          </g>
          <g id="g8746" transform="translate(30.695 21.493)">
            <path id="path8748" d="M-1.339-4.918a1.032,1.032,0,0,1-.9-.532L-7.41-14.758a.363.363,0,0,0-.328-.193.363.363,0,0,0-.328.193,1.033,1.033,0,0,1-1.4.4,1.033,1.033,0,0,1-.4-1.4,2.442,2.442,0,0,1,2.134-1.256A2.442,2.442,0,0,1-5.6-15.761L-.437-6.453a1.033,1.033,0,0,1-.4,1.4A1.028,1.028,0,0,1-1.339-4.918Z" transform="translate(10.002 17.017)"/>
          </g>
          <g id="g8750" transform="translate(30.094 35.086)">
            <path id="path8752" d="M-32.3-2.559a1.029,1.029,0,0,1-.73-.3l-2.688-2.688a1.033,1.033,0,0,1-.3-.73,1.033,1.033,0,0,1,.3-.73L-33.034-9.7a1.033,1.033,0,0,1,1.461,0,1.033,1.033,0,0,1,0,1.461l-1.957,1.958,1.957,1.957a1.033,1.033,0,0,1,0,1.461A1.03,1.03,0,0,1-32.3-2.559Z" transform="translate(36.024 10)"/>
          </g>
          <g id="g8754" transform="translate(24.164 27.368)">
            <path id="path8756" d="M-49.391-39.814a1.033,1.033,0,0,1-1-.766l-.716-2.674-2.674.716a1.033,1.033,0,0,1-1.265-.73,1.033,1.033,0,0,1,.73-1.265l3.672-.984a1.033,1.033,0,0,1,1.265.73l.984,3.671a1.033,1.033,0,0,1-.73,1.265A1.034,1.034,0,0,1-49.391-39.814Z" transform="translate(55.078 45.552)"/>
          </g>
          <g id="g8758" transform="translate(34.652 27.854)">
            <path id="path8760" d="M-5.3-30.29a1.032,1.032,0,0,1-.267-.035l-3.671-.984a1.033,1.033,0,0,1-.73-1.265A1.033,1.033,0,0,1-8.7-33.3l2.674.716.716-2.674a1.033,1.033,0,0,1,1.265-.73,1.033,1.033,0,0,1,.73,1.265L-4.3-31.056a1.033,1.033,0,0,1-.481.627A1.033,1.033,0,0,1-5.3-30.29Z" transform="translate(10.002 36.028)"/>
          </g>
          <g id="g8762" transform="translate(0.258 14.775)">
            <path id="path8764" d="M-55.2-55.846a1.033,1.033,0,0,1-.73-.3l-2.527-2.527a1.033,1.033,0,0,1,0-1.461l1.68-1.68a1.033,1.033,0,0,1,1.461,0,1.033,1.033,0,0,1,0,1.461l-.949.949,1.067,1.067,9.965-9.965L-46.3-69.371l-5.659,5.659a1.033,1.033,0,0,1-1.461,0,1.033,1.033,0,0,1,0-1.461l6.389-6.389a1.033,1.033,0,0,1,1.46,0l2.527,2.527a1.033,1.033,0,0,1,.3.73,1.033,1.033,0,0,1-.3.73L-54.472-56.148A1.033,1.033,0,0,1-55.2-55.846Z" transform="translate(58.763 71.864)"/>
          </g>
          <g id="g8766" transform="translate(54.653 49.727)">
            <path id="path8768" d="M-17.934-8.967a1.033,1.033,0,0,1-1.033,1.033A1.033,1.033,0,0,1-20-8.967,1.033,1.033,0,0,1-18.967-10a1.033,1.033,0,0,1,1.033,1.033" transform="translate(20 10)"/>
          </g>
          <g id="g8770" transform="translate(30.139 49.727)">
            <path id="path8772" d="M-17.934-8.967a1.033,1.033,0,0,1-1.033,1.033A1.033,1.033,0,0,1-20-8.967,1.033,1.033,0,0,1-18.967-10a1.033,1.033,0,0,1,1.033,1.033" transform="translate(20 10)"/>
          </g>
          <g id="g8774" transform="translate(17.051 49.727)">
            <path id="path8776" d="M-17.934-8.967a1.033,1.033,0,0,1-1.033,1.033A1.033,1.033,0,0,1-20-8.967,1.033,1.033,0,0,1-18.967-10a1.033,1.033,0,0,1,1.033,1.033" transform="translate(20 10)"/>
          </g>
        </g>
      </g>
    </g>
  </g>
</svg>
