<svg xmlns="http://www.w3.org/2000/svg" width="83" height="83" viewBox="0 0 83 83">
  <g id="Grupo_960384" data-name="Grupo 960384" transform="translate(-4753 8076)">
    <rect id="Rectángulo_340664" data-name="Rectángulo 340664" width="83" height="83" transform="translate(4753 -8076)" fill="none"/>
    <g id="Layer_31" data-name="Layer 31" transform="translate(4762.89 -8066.669)">
      <path id="Trazado_727467" data-name="Trazado 727467" d="M52.38,45.24a1.394,1.394,0,0,1-.03-.41v-.16a16,16,0,0,1,8.71-13.76l1.83-.93-.06-.3a3.466,3.466,0,0,0-4.99-2.49l-3.65,1.87a1.771,1.771,0,0,1-2.58-1.43L49.98,8.16a2.011,2.011,0,0,0-2-1.84c-.06,0-.11.01-.17.01A2,2,0,0,0,46,8.5l1.29,14.8c0,.05.01.09.01.14a1.406,1.406,0,0,1-2.79.23L41.63,7.32A1.994,1.994,0,0,0,39.32,5.7h-.01a2,2,0,0,0-1.62,2.32l2.87,16.25a2.275,2.275,0,0,1,.02.26,1.495,1.495,0,0,1-2.94.39L34.33,12.58a2,2,0,0,0-2.44-1.41l-.15.04a1.991,1.991,0,0,0-1.44,2.3L33.28,29.1s-2.83-5.69-4.4-8.87a1.986,1.986,0,0,0-3.56,1.76l6.22,12.49a15.632,15.632,0,0,1,1.42,4.3l.22,1.26a13.834,13.834,0,0,0,2.5,5.81l.2.26a3.941,3.941,0,0,1,.69,1.6L39.265,63H55.506Z" fill="#ffd3b6"/>
      <path id="Trazado_727468" data-name="Trazado 727468" d="M54.8,59H43.94a2,2,0,0,0-1.97,2.35L42.26,63h-3l-.74-4.21L38.21,57H54.45Z" fill="#f9b995"/>
      <path id="Trazado_727469" data-name="Trazado 727469" d="M35.88,46.11l-.2-.26a13.834,13.834,0,0,1-2.5-5.81l-.22-1.26a15.632,15.632,0,0,0-1.42-4.3L25.32,21.99a1.986,1.986,0,0,1,3.56-1.76c1.57,3.18,4.4,8.87,4.4,8.87L30.3,13.51a1.991,1.991,0,0,1,1.44-2.3l.15-.04a2,2,0,0,1,2.44,1.41l3.31,12.34a1.495,1.495,0,0,0,2.94-.39,2.274,2.274,0,0,0-.02-.26L37.69,8.02A2,2,0,0,1,39.31,5.7h.01a1.994,1.994,0,0,1,2.31,1.62l2.88,16.35a1.406,1.406,0,0,0,2.79-.23c0-.05-.01-.09-.01-.14L46,8.5a2,2,0,0,1,1.81-2.17c.06,0,.11-.01.17-.01a2.011,2.011,0,0,1,2,1.84l1.63,19.47a1.771,1.771,0,0,0,2.58,1.43l3.65-1.87a3.466,3.466,0,0,1,4.99,2.49l.06.3-1.83.93a16,16,0,0,0-8.71,13.76v.16a1.394,1.394,0,0,0,.03.41L53.746,53H37.5l-.932-5.29a3.941,3.941,0,0,0-.688-1.6Z" fill="#a7d0e1"/>
      <path id="Trazado_727470" data-name="Trazado 727470" d="M53,36.747a1,1,0,0,1-.852-1.523,19.232,19.232,0,0,1,1.289-1.844A1,1,0,1,1,55,34.62a17.07,17.07,0,0,0-1.152,1.651A1,1,0,0,1,53,36.747Z" fill="#fff"/>
      <path id="Trazado_727471" data-name="Trazado 727471" d="M40.04,15.49a1.932,1.932,0,0,0-1.093-.353l.826,4.675.907-1.822a1.988,1.988,0,0,0-.64-2.5Z" fill="#80bbce"/>
      <path id="Trazado_727472" data-name="Trazado 727472" d="M34.46,30.48l3.036-6.1-1.55-5.78c-1.5,3.034-3.226,6.5-3.226,6.5l2.067-10.815-.457-1.7a2,2,0,0,0-2.44-1.41l-.15.04a1.977,1.977,0,0,0-.923.551l-.5,1.852L33.28,29.1s-2.83-5.69-4.4-8.87a1.9,1.9,0,0,0-.241-.351L28.36,20.92a1.5,1.5,0,0,1-2.94-.39,2.275,2.275,0,0,1,.02-.26l.056-.317a1.986,1.986,0,0,0-.176,2.037l6.22,12.49a15.74,15.74,0,0,1,1.024,2.64c.094-.358.192-.715.256-1.08l.22-1.26A15.632,15.632,0,0,1,34.46,30.48Z" fill="#80bbce"/>
      <path id="Trazado_727473" data-name="Trazado 727473" d="M38.88,46.11l-.2-.26a13.834,13.834,0,0,1-2.5-5.81l-.22-1.26a15.632,15.632,0,0,0-1.42-4.3L28.32,21.99a1.985,1.985,0,0,1,.282-2.166,1.971,1.971,0,0,0-1.5-.694,1.948,1.948,0,0,0-1.14.36,1.988,1.988,0,0,0-.64,2.5l6.22,12.49a15.632,15.632,0,0,1,1.42,4.3l.22,1.26a13.834,13.834,0,0,0,2.5,5.81l.2.26a3.941,3.941,0,0,1,.69,1.6L37.5,53h3l-.932-5.29a3.941,3.941,0,0,0-.688-1.6Z" fill="#80bbce"/>
      <rect id="Rectángulo_340673" data-name="Rectángulo 340673" width="22" height="4" rx="2" transform="translate(57 57) rotate(180)" fill="#80bbce"/>
      <path id="Trazado_727474" data-name="Trazado 727474" d="M38.68,17.99,32.46,30.48a15.632,15.632,0,0,0-1.42,4.3l-.22,1.26a13.834,13.834,0,0,1-2.5,5.81l-.2.26a3.941,3.941,0,0,0-.69,1.6L24.03,63H7.79l3.83-21.76a1.394,1.394,0,0,0,.03-.41v-.16A16,16,0,0,0,2.94,26.91l-1.83-.93.06-.3a3.466,3.466,0,0,1,4.99-2.49l3.65,1.87a1.771,1.771,0,0,0,2.58-1.43L14.02,4.16a2.011,2.011,0,0,1,2-1.84c.06,0,.11.01.17.01A2,2,0,0,1,18,4.5L16.71,19.3c0,.05-.01.09-.01.14a1.406,1.406,0,0,0,2.79.23L22.37,3.32A1.994,1.994,0,0,1,24.68,1.7h.01a2,2,0,0,1,1.62,2.32L23.44,20.27a2.275,2.275,0,0,0-.02.26,1.5,1.5,0,0,0,2.94.39L29.67,8.58a2,2,0,0,1,2.44-1.41l.15.04a1.991,1.991,0,0,1,1.44,2.3L30.72,25.1s2.83-5.69,4.4-8.87a1.986,1.986,0,0,1,3.56,1.76Z" fill="#ffd3b6"/>
      <path id="Trazado_727475" data-name="Trazado 727475" d="M28.12,42.11l.2-.26a13.834,13.834,0,0,0,2.5-5.81l.22-1.26a15.632,15.632,0,0,1,1.42-4.3l6.22-12.49a1.986,1.986,0,0,0-3.56-1.76c-1.57,3.18-4.4,8.87-4.4,8.87L33.7,9.51a1.991,1.991,0,0,0-1.44-2.3l-.15-.04a2,2,0,0,0-2.44,1.41L26.36,20.92a1.5,1.5,0,0,1-2.94-.39,2.275,2.275,0,0,1,.02-.26L26.31,4.02A2,2,0,0,0,24.69,1.7h-.01a1.994,1.994,0,0,0-2.31,1.62L19.49,19.67a1.406,1.406,0,0,1-2.79-.23c0-.05.01-.09.01-.14L18,4.5a2,2,0,0,0-1.81-2.17c-.06,0-.11-.01-.17-.01a2.011,2.011,0,0,0-2,1.84L12.39,23.63a1.771,1.771,0,0,1-2.58,1.43L6.16,23.19a3.466,3.466,0,0,0-4.99,2.49l-.06.3,1.83.93a16,16,0,0,1,8.71,13.76v.16a1.394,1.394,0,0,1-.03.41L10.254,49H26.5l.932-5.29a3.941,3.941,0,0,1,.688-1.6Z" fill="#a7d0e1"/>
      <path id="Trazado_727476" data-name="Trazado 727476" d="M14.65,40.83v-.16A16,16,0,0,0,5.94,26.91h0a1.981,1.981,0,0,1-.719-2.922,2.643,2.643,0,0,1,.858-.828A3.461,3.461,0,0,0,1.17,25.68l-.06.3,1.83.93a16,16,0,0,1,8.71,13.76v.16a1.394,1.394,0,0,1-.03.41L10.254,49h3l1.366-7.76A1.394,1.394,0,0,0,14.65,40.83Z" fill="#80bbce"/>
      <rect id="Rectángulo_340674" data-name="Rectángulo 340674" width="22" height="4" rx="2" transform="translate(7 49)" fill="#80bbce"/>
      <path id="Trazado_727477" data-name="Trazado 727477" d="M25.793,53H9.55L7.79,63h3l.826-4.693A4,4,0,0,1,15.555,55H25.44Z" fill="#f9b995"/>
      <path id="Trazado_727478" data-name="Trazado 727478" d="M63.871,29.784l-.056-.275A4.466,4.466,0,0,0,57.384,26.3l-3.651,1.87A.771.771,0,0,1,53,28.16a.763.763,0,0,1-.392-.614L50.977,8.075a3.03,3.03,0,0,0-3-2.755,2.2,2.2,0,0,0-.261.014A3,3,0,0,0,45,8.587L46.29,23.3a.676.676,0,0,0,.01.14.4.4,0,0,1-.326.384A.416.416,0,0,1,45.5,23.5L42.615,7.148A2.993,2.993,0,0,0,39.2,4.706a.25.25,0,0,0-.066.009A3.005,3.005,0,0,0,36.7,8.194l.7,3.98a1,1,0,0,0,1.97-.348l-.7-3.978a1,1,0,0,1,.771-1.156l.048-.007a1,1,0,0,1,1.151.808l2.882,16.358a2.432,2.432,0,0,0,2.789,1.943A2.4,2.4,0,0,0,48.3,23.44a1.5,1.5,0,0,0-.014-.227L47,8.409a.993.993,0,0,1,.81-1.079,1.415,1.415,0,0,0,.17-.01,1.015,1.015,0,0,1,1,.924l1.63,19.465a2.77,2.77,0,0,0,4.033,2.241L58.3,28.08a2.466,2.466,0,0,1,3.441,1.365L60.6,30.02a17.022,17.022,0,0,0-9.25,14.65v.087a2.258,2.258,0,0,0,.042.656L52.554,52H38.342l-.79-4.477a4.927,4.927,0,0,0-.878-2.021l-.19-.246a12.9,12.9,0,0,1-2.319-5.388l-.18-1.031a1,1,0,1,0-1.97.344l.18,1.033a14.922,14.922,0,0,0,2.691,6.244l.186.242a2.916,2.916,0,0,1,.513,1.184l.74,4.2A3,3,0,0,0,37,58h.368l.912,5.174a1,1,0,0,0,.985.826H55.506a1,1,0,0,0,.985-1.174l-.862-4.9A3,3,0,0,0,55,52h-.415l-1.231-6.983a.77.77,0,0,1,0-.187V44.7a15.007,15.007,0,0,1,8.163-12.9l1.83-.93a1,1,0,0,0,.524-1.086ZM40.1,62l-.7-4H53.61l.7,4ZM56,55a1,1,0,0,1-1,1H37a1,1,0,0,1,0-2H55A1,1,0,0,1,56,55Z"/>
      <path id="Trazado_727479" data-name="Trazado 727479" d="M28.921,42.71l.2-.267A14.887,14.887,0,0,0,31.8,36.212l.22-1.26a14.641,14.641,0,0,1,1.33-4.026l6.222-12.493a2.987,2.987,0,0,0-5.356-2.646l-1.15,2.323L34.682,9.7a3,3,0,0,0-2.164-3.458L32.365,6.2A2.994,2.994,0,0,0,28.7,8.321L25.39,20.663a.5.5,0,0,1-.974-.133.378.378,0,0,0,0-.086L27.3,4.192A3,3,0,0,0,24.861.715L24.8.707a2.994,2.994,0,0,0-3.419,2.439L18.507,19.489a.415.415,0,0,1-.471.337.4.4,0,0,1-.338-.338l.008-.1L19,4.591a3.018,3.018,0,0,0-2.8-3.262c-.031,0-.147-.009-.178-.009a3.03,3.03,0,0,0-3,2.757l-1.63,19.474A.758.758,0,0,1,11,24.16a.774.774,0,0,1-.736.01L6.616,22.3a4.418,4.418,0,0,0-4.026-.019,4.409,4.409,0,0,0-2.4,3.2l-.06.3a1,1,0,0,0,.528,1.088l1.827.928A15,15,0,0,1,10.65,40.67V40.9a.525.525,0,0,1-.017.163L9.414,48H9a3,3,0,0,0-.629,5.931l-1.566,8.9A1,1,0,0,0,7.79,64H24.03a1,1,0,0,0,.985-.826L26.632,54H27a3,3,0,0,0,.675-5.917l.738-4.187a2.93,2.93,0,0,1,.508-1.186ZM23.191,62H8.981l1.409-8H24.6ZM28,51a1,1,0,0,1-1,1H9a1,1,0,0,1,0-2H27A1,1,0,0,1,28,51Zm-.474-9.759-.2.261-.014.019a4.926,4.926,0,0,0-.867,2.015L25.658,48H11.445l1.15-6.536a2.2,2.2,0,0,0,.055-.634v-.191a17.008,17.008,0,0,0-9.256-14.62l-1.131-.575A2.468,2.468,0,0,1,5.7,24.08l3.65,1.87a2.771,2.771,0,0,0,4.033-2.237l1.63-19.467A1.011,1.011,0,0,1,16,3.319l.1.007A1,1,0,0,1,17,4.413l-1.293,14.85c0,.035-.011.141-.011.177a2.4,2.4,0,0,0,2,2.36,2.426,2.426,0,0,0,2.782-1.953L23.355,3.5a.994.994,0,0,1,1.151-.807l.045.006a.985.985,0,0,1,.609.4,1.008,1.008,0,0,1,.165.752L22.442,20.192a3.163,3.163,0,0,0-.022.338,2.5,2.5,0,0,0,4.906.649L30.637,8.835a1,1,0,0,1,1.215-.7l.149.04a.991.991,0,0,1,.717,1.146l-2.981,15.59a1,1,0,0,0,1.878.633s2.831-5.691,4.4-8.873a.986.986,0,0,1,1.768.872l-6.22,12.489a16.617,16.617,0,0,0-1.51,4.575l-.22,1.258A12.86,12.86,0,0,1,27.526,41.241Z"/>
      <path id="Trazado_727480" data-name="Trazado 727480" d="M20.22,32.307a8.1,8.1,0,0,0-6.13-5.057,1,1,0,1,0-.347,1.97,6.092,6.092,0,0,1,4.61,3.8l.655,1.71a1,1,0,1,0,1.867-.716Z"/>
      <path id="Trazado_727481" data-name="Trazado 727481" d="M44.058,38.374a1,1,0,0,0,.934-.642l.655-1.71a6.094,6.094,0,0,1,4.61-3.8,1,1,0,0,0-.347-1.97,8.1,8.1,0,0,0-6.13,5.057l-.655,1.709a1,1,0,0,0,.933,1.358Z"/>
    </g>
  </g>
</svg>
