<svg xmlns="http://www.w3.org/2000/svg" width="83" height="83" viewBox="0 0 83 83">
  <g id="Grupo_960312" data-name="Grupo 960312" transform="translate(-444 -2614)">
    <g id="mascarilla-medica" transform="translate(430.012 2623)">
      <g id="Grupo_960297" data-name="Grupo 960297" transform="translate(42.879 22.888)">
        <path id="Trazado_727218" data-name="Trazado 727218" d="M183.764,184.993c-7.77-1.107-8.127-4.463-12.268-4.449-4.144-.014-4.5,3.342-12.268,4.449a10.993,10.993,0,0,0,3.535,7.351,12.554,12.554,0,0,0,17.461,0A10.982,10.982,0,0,0,183.764,184.993Z" transform="translate(-159.229 -180.545)" fill="#ccf49e" fill-rule="evenodd"/>
      </g>
      <g id="Grupo_960298" data-name="Grupo 960298" transform="translate(42.857 17.34)">
        <path id="Trazado_727219" data-name="Trazado 727219" d="M183.633,141.232c-7.784-1.107-8.141-4.467-12.286-4.452-4.148-.014-4.5,3.346-12.289,4.452v4.9q0,.324.022.649c7.766-1.107,8.123-4.463,12.268-4.449,4.141-.014,4.5,3.342,12.268,4.449.011-.216.018-.433.018-.649Z" transform="translate(-159.058 -136.78)" fill="#eceaed" fill-rule="evenodd"/>
      </g>
      <g id="Grupo_960299" data-name="Grupo 960299" transform="translate(48.094 26.223)">
        <path id="Trazado_727220" data-name="Trazado 727220" d="M216.146,215.317a10.982,10.982,0,0,0,3.539-7.351,20.261,20.261,0,0,1-4.48-1.114,11.079,11.079,0,0,1-3.463,6.568,12.98,12.98,0,0,1-8.729,3.533,12.015,12.015,0,0,1-2.649-.3,12.488,12.488,0,0,0,15.781-1.334Z" transform="translate(-200.365 -206.852)" fill="#b3e59e" fill-rule="evenodd"/>
      </g>
      <g id="Grupo_960300" data-name="Grupo 960300" transform="translate(62.934 20.71)">
        <path id="Trazado_727221" data-name="Trazado 727221" d="M317.434,168.882a20.253,20.253,0,0,0,4.48,1.114A20.254,20.254,0,0,1,317.434,168.882Zm4.5.465v-4.9a20.542,20.542,0,0,1-4.4-1.081v4.081c0,.216,0,.433-.018.649-.014.263-.043.526-.076.782a20.251,20.251,0,0,0,4.48,1.114C321.925,169.78,321.932,169.563,321.932,169.347Z" transform="translate(-317.434 -163.37)" fill="#dad8db" fill-rule="evenodd"/>
      </g>
      <g id="Grupo_960301" data-name="Grupo 960301" transform="translate(60.406 45.055)">
        <path id="Trazado_727222" data-name="Trazado 727222" d="M299.171,365.976l9.8-1.359,5.114-4.193c.378-.144.76-.281,1.139-.422a2.372,2.372,0,1,0-1.636-4.452l-5.687,2.123-10.3,3.843C297.257,363.506,297.657,365.979,299.171,365.976Z" transform="translate(-297.485 -355.405)" fill="#f1d0a5" fill-rule="evenodd"/>
      </g>
      <g id="Grupo_960302" data-name="Grupo 960302" transform="translate(46.919 42.107)">
        <path id="Trazado_727223" data-name="Trazado 727223" d="M197.72,338.805l4.829-.588,1.55-1.792a2.217,2.217,0,0,0-1.6-4.135l-11.4,4.229,1.121,2.185Z" transform="translate(-191.096 -332.154)" fill="#f1d0a5" fill-rule="evenodd"/>
      </g>
      <g id="Grupo_960303" data-name="Grupo 960303" transform="translate(53.543 42.951)">
        <path id="Trazado_727224" data-name="Trazado 727224" d="M250.326,347.028l6.725-1.435,3.579-2.408a2.371,2.371,0,0,0-2.1-4.225l-8.8,3.281a.583.583,0,0,1-.072.025l-6.307,2.354,1.906,2.711Z" transform="translate(-243.349 -338.813)" fill="#f1d0a5" fill-rule="evenodd"/>
      </g>
      <g id="Grupo_960304" data-name="Grupo 960304" transform="translate(50.905 42.398)">
        <path id="Trazado_727225" data-name="Trazado 727225" d="M225.178,340.811l6.307-2.354.072-.025a2.223,2.223,0,0,0,1.279-2.8,2.188,2.188,0,0,0-.987-1.175,2.227,2.227,0,0,1-1.4,2.242l-.068.025L222.54,339.9Z" transform="translate(-222.54 -334.452)" fill="#e5c093" fill-rule="evenodd"/>
      </g>
      <g id="Grupo_960305" data-name="Grupo 960305" transform="translate(57.031 42.95)">
        <path id="Trazado_727226" data-name="Trazado 727226" d="M274.357,347.02l10.3-3.843A2.366,2.366,0,0,0,283.4,338.8a2.43,2.43,0,0,1,.216.458c.375,1.06.123,1.511-.8,2.087l-11.947,4.467Z" transform="translate(-270.868 -338.804)" fill="#e5c093" fill-rule="evenodd"/>
      </g>
      <g id="Grupo_960306" data-name="Grupo 960306" transform="translate(62.091 45.167)">
        <path id="Trazado_727227" data-name="Trazado 727227" d="M310.782,366.751c4.995-1.857,9.994-3.764,15-5.581l1.056-.393a2.379,2.379,0,0,0,1.441-3.028,2.347,2.347,0,0,0-1.506-1.456,2.1,2.1,0,0,1-1.528,2.6c-4.721,1.759-9.449,3.609-14.171,5.368.018.065.032.13.047.195a3.231,3.231,0,0,1-.04,1.586A3.032,3.032,0,0,1,310.782,366.751Z" transform="translate(-310.782 -356.293)" fill="#e5c093" fill-rule="evenodd"/>
      </g>
      <g id="Grupo_960307" data-name="Grupo 960307" transform="translate(31.595 44.919)">
        <path id="Trazado_727228" data-name="Trazado 727228" d="M83.355,371.138l5.961,1.781a16.036,16.036,0,0,0,7.766-.036c3.063-.948,7.95-2.816,9.752-3.551l11.882-4.838c1.5-.609,1.806-2.668.955-4.045-.833-1.348-2.469-1.521-3.957-.984l-.083.029-14.916,5.552a3.08,3.08,0,0,0-1.571-4.46l-13.6-4.694c-3.355-1.157-4.39-2.733-11.219-.18l-4.1,7.311,4.1,6.648a27.347,27.347,0,0,1,9.031,1.467Z" transform="translate(-70.219 -354.339)" fill="#ffe4c1" fill-rule="evenodd"/>
      </g>
      <g id="Grupo_960308" data-name="Grupo 960308" transform="translate(35.7 50.975)">
        <path id="Trazado_727229" data-name="Trazado 727229" d="M102.6,411.383a27.355,27.355,0,0,1,9.031,1.467l5.961,1.781a16.036,16.036,0,0,0,7.766-.036c3.063-.948,7.95-2.816,9.752-3.551l11.882-4.838c1.5-.609,1.806-2.668.955-4.045l-.032-.054a2.148,2.148,0,0,1-.923.725L135.11,407.67c-1.8.735-6.689,2.6-9.752,3.551a16.08,16.08,0,0,1-7.766.04l-5.961-1.785a27.345,27.345,0,0,0-9.031-1.464v3.371Z" transform="translate(-102.599 -402.107)" fill="#f1d0a5" fill-rule="evenodd"/>
      </g>
      <g id="Grupo_960309" data-name="Grupo 960309" transform="translate(27.184 43.74)">
        <path id="Trazado_727230" data-name="Trazado 727230" d="M43.938,360.8v-14.11a1.663,1.663,0,0,0-1.658-1.658h-5.2a1.663,1.663,0,0,0-1.658,1.658v15.2a1.665,1.665,0,0,0,1.658,1.658h5.2a1.663,1.663,0,0,0,1.658-1.658Z" transform="translate(-35.422 -345.031)" fill="#eceaed" fill-rule="evenodd"/>
      </g>
      <g id="Grupo_960310" data-name="Grupo 960310" transform="translate(27.184 56.88)">
        <path id="Trazado_727231" data-name="Trazado 727231" d="M37.08,454.068h5.2a1.663,1.663,0,0,0,1.658-1.658v-3.72a1.665,1.665,0,0,1-1.658,1.658h-5.2a1.667,1.667,0,0,1-1.658-1.655v3.717A1.665,1.665,0,0,0,37.08,454.068Z" transform="translate(-35.422 -448.689)" fill="#dad8db" fill-rule="evenodd"/>
      </g>
      <g id="Grupo_960311" data-name="Grupo 960311" transform="translate(25.988 0)">
        <path id="Trazado_727232" data-name="Trazado 727232" d="M115.31,127.9c-1.723,0-3.467,1.464-3.467,4.262,0,7.226,4.947,11.5,8.921,14.931l.013.01c.1.1.208.192.315.286a13.478,13.478,0,0,0,18.051,0c.11-.1.217-.2.323-.295h0c3.975-3.43,8.921-7.7,8.921-14.931,0-2.8-1.744-4.262-3.467-4.262s-3.469,1.464-3.469,4.262v.2a16.4,16.4,0,0,1-6.476-2.6,8.345,8.345,0,0,0-4.826-1.687h-.058a8.352,8.352,0,0,0-4.835,1.687,16.4,16.4,0,0,1-6.477,2.6v-.2c0-2.8-1.745-4.262-3.469-4.262Zm-1.566,4.262c0-1.622.812-2.36,1.566-2.36s1.567.739,1.567,2.36v6.212a11.557,11.557,0,0,0,.3,2.627A13.376,13.376,0,0,1,113.745,132.165Zm29.609,6.211v-6.212c0-1.622.812-2.36,1.567-2.36s1.566.739,1.566,2.36a13.375,13.375,0,0,1-3.436,8.843A11.553,11.553,0,0,0,143.354,138.376Zm-13.236,10.582c-5.047,0-10.423-3.613-11.234-9.135a18.34,18.34,0,0,0,7.382-2.9,6.559,6.559,0,0,1,3.832-1.4h.046a6.556,6.556,0,0,1,3.824,1.4,18.339,18.339,0,0,0,7.381,2.9C140.538,145.345,135.163,148.958,130.118,148.958Zm-3.851-17.582a6.559,6.559,0,0,1,3.832-1.4h.046a6.556,6.556,0,0,1,3.824,1.4,18.365,18.365,0,0,0,7.485,2.918v3.616a16.4,16.4,0,0,1-6.476-2.6,8.345,8.345,0,0,0-4.826-1.687h-.058a8.353,8.353,0,0,0-4.835,1.687,16.4,16.4,0,0,1-6.477,2.6v-3.616a18.368,18.368,0,0,0,7.487-2.918Z" transform="translate(-100.959 -111.689)"/>
        <path id="Trazado_727233" data-name="Trazado 727233" d="M80.207,49.115a3.315,3.315,0,0,0,.278-2.807,3.27,3.27,0,0,0-.849-1.3A29.164,29.164,0,0,0,35.51,7.6a.951.951,0,0,0,1.281,1.406A27.264,27.264,0,0,1,77.92,44.153a3.415,3.415,0,0,0-1.727.151l-.015.005-3.307,1.234A3.274,3.274,0,0,0,71,42.325a3.374,3.374,0,0,0-2.6-.122l-.013,0-6.112,2.279a3.151,3.151,0,0,0-1.814-3.03A3.227,3.227,0,0,0,58,41.347l-.013,0L46.914,45.46c-.432-.159-.832-.325-1.219-.486-2.248-.938-4.06-1.691-9.084-.013a2.611,2.611,0,0,0-2.569-2.172H31.528a27.3,27.3,0,0,1,2.24-30.537.951.951,0,0,0-1.491-1.181,29.2,29.2,0,0,0-2.921,31.718h-.514A2.612,2.612,0,0,0,26.233,45.4V50.42a.951.951,0,0,0,1.9,0V45.4a.708.708,0,0,1,.707-.708h5.2a.708.708,0,0,1,.707.708V60.6a.708.708,0,0,1-.707.708h-5.2a.717.717,0,0,1-.707-.708V55.143a.951.951,0,0,0-1.9,0V60.6a2.612,2.612,0,0,0,2.609,2.609h5.2a2.611,2.611,0,0,0,2.531-1.988,26.041,26.041,0,0,1,7.886,1.407l5.959,1.78a14.911,14.911,0,0,0,4.066.5,15.25,15.25,0,0,0,4.255-.535c3.066-.949,7.993-2.829,9.829-3.579l11.882-4.838a3.179,3.179,0,0,0,1.821-2.012,4.189,4.189,0,0,0-.415-3.412,3.516,3.516,0,0,0-1.65-1.416Zm-9.059-.9.01,0,5.677-2.118a1.492,1.492,0,0,1,1.144.054,1.384,1.384,0,0,1,.714.794,1.423,1.423,0,0,1-.864,1.814l-.013,0-.981.365c-.055.019-.109.038-.164.059l-.028.012L63.457,54.1a4.3,4.3,0,0,0-.1-.99,4.009,4.009,0,0,0-.814-1.686Zm-2.1-4.224a1.485,1.485,0,0,1,1.139.051,1.393,1.393,0,0,1,.721.8,1.435,1.435,0,0,1-.523,1.634l-9.873,3.684-4.151-1.433Zm-10.4-.854a1.336,1.336,0,0,1,1.012.042,1.235,1.235,0,0,1,.648.712,1.272,1.272,0,0,1-.77,1.616l-.047.019L53.53,47.748,49.74,46.44Zm21.82,10.215a1.308,1.308,0,0,1-.73.841L67.851,59.032c-1.811.739-6.664,2.591-9.674,3.523a15.032,15.032,0,0,1-7.213.033L45,60.807a27.9,27.9,0,0,0-8.353-1.485V46.958c4.782-1.7,6.2-1.108,8.312-.229.507.211,15.247,5.336,15.247,5.336l.032.01A1.9,1.9,0,0,1,61.5,53.527a2.146,2.146,0,0,1-.591,2.068c-.756.684-2.085.76-3.741.213l-8.379-2.769a.951.951,0,0,0-.6,1.806l8.379,2.769a8.191,8.191,0,0,0,2.566.456A4.41,4.41,0,0,0,62.185,57a3.747,3.747,0,0,0,.532-.6l14.727-5.479a2.051,2.051,0,0,1,3.021,2.425Z" transform="translate(-25.988 0)"/>
      </g>
    </g>
    <rect id="Rectángulo_340644" data-name="Rectángulo 340644" width="83" height="83" transform="translate(444 2614)" fill="none"/>
  </g>
</svg>
