<svg xmlns="http://www.w3.org/2000/svg" width="83" height="83" viewBox="0 0 83 83">
  <g id="Grupo_960349" data-name="Grupo 960349" transform="translate(-5451 9018)">
    <rect id="Rectángulo_340653" data-name="Rectángulo 340653" width="83" height="83" transform="translate(5451 -9018)" fill="none"/>
    <g id="pie" transform="translate(5462.998 -9007)">
      <path id="Trazado_727373" data-name="Trazado 727373" d="M50.9,43H4c0-6.08,1.28-10.08,2.24-11.88A2.155,2.155,0,0,1,8.15,30H9.43a2.173,2.173,0,0,1,1.35.47A12.009,12.009,0,0,0,19,34a5.5,5.5,0,0,0,5.17-3.05,5.307,5.307,0,0,0,.48-1.3.821.821,0,0,1,.81-.65.849.849,0,0,1,.38.09c2.07.98,13.28,9.45,16.64,11.53A16.023,16.023,0,0,0,50.9,43Z" fill="#ff9801"/>
      <path id="Trazado_727374" data-name="Trazado 727374" d="M42.48,40.62c-3.36-2.08-14.57-10.55-16.64-11.53a.849.849,0,0,0-.38-.09.821.821,0,0,0-.81.65,4.707,4.707,0,0,1-.134.465c3.845,2.551,12.149,8.763,14.964,10.5A16.023,16.023,0,0,0,47.9,43h3a16.023,16.023,0,0,1-8.42-2.38Z" fill="#f57c00"/>
      <path id="Trazado_727375" data-name="Trazado 727375" d="M59,45a2.015,2.015,0,0,1-2,2H3a2.006,2.006,0,0,1-2-2,1.955,1.955,0,0,1,.59-1.41A1.955,1.955,0,0,1,3,43H57A2.006,2.006,0,0,1,59,45Z" fill="#3f51b5"/>
      <path id="Trazado_727376" data-name="Trazado 727376" d="M57,43H54a2,2,0,0,1,0,4h3a2,2,0,1,0,0-4Z" fill="#283593"/>
      <path id="Trazado_727377" data-name="Trazado 727377" d="M24.17,30.95A5.5,5.5,0,0,1,19,34a12.009,12.009,0,0,1-8.22-3.53A2.173,2.173,0,0,0,9.43,30H9V24H23v3a7.317,7.317,0,0,0,1.17,3.95Z" fill="#ffe0b2"/>
      <path id="Trazado_727378" data-name="Trazado 727378" d="M23,27V24H20v3a7.317,7.317,0,0,0,1.17,3.95,5.411,5.411,0,0,1-3.853,2.912A10.578,10.578,0,0,0,19,34a5.5,5.5,0,0,0,5.17-3.05A7.317,7.317,0,0,1,23,27Z" fill="#dfc49c"/>
      <path id="Trazado_727379" data-name="Trazado 727379" d="M27,2V22a2.006,2.006,0,0,1-2,2H7.91a1.986,1.986,0,0,1-1.99-1.91L5.05,2.04A.992.992,0,0,1,6.04,1H26a1,1,0,0,1,1,1Z" fill="#3f51b5"/>
      <path id="Trazado_727380" data-name="Trazado 727380" d="M26,1H23a1,1,0,0,1,1,1V22a2.006,2.006,0,0,1-2,2h3a2.006,2.006,0,0,0,2-2V2A1,1,0,0,0,26,1Z" fill="#283593"/>
      <path id="Trazado_727381" data-name="Trazado 727381" d="M57,47v5.66a6.009,6.009,0,0,1-5.31,5.96A65.911,65.911,0,0,1,44,59H6.16A5.155,5.155,0,0,1,1,53.84a5.244,5.244,0,0,1,.26-1.629L3,47Z" fill="#02a9f4"/>
      <path id="Trazado_727382" data-name="Trazado 727382" d="M54,47v5.66a6.009,6.009,0,0,1-5.31,5.96A65.911,65.911,0,0,1,41,59h3a65.911,65.911,0,0,0,7.69-.38A6.009,6.009,0,0,0,57,52.66V47Z" fill="#0377bc"/>
      <path id="Trazado_727383" data-name="Trazado 727383" d="M57,42H50.9A15.034,15.034,0,0,1,43,39.768c-3.376-2.093-14.5-10.531-16.753-11.594a1.855,1.855,0,0,0-2.044.353A12.549,12.549,0,0,1,24,25h1a3,3,0,0,0,3-3V2a2,2,0,0,0-2-2H6.044a2,2,0,0,0-2,2.086L4.918,22.13a2.994,2.994,0,0,0,3,2.87C8.037,25,8,24.563,8,29.01a3.126,3.126,0,0,0-2.642,1.641C4.831,31.644,3.17,35.3,3.015,42a3,3,0,0,0-1.3,5.7l-1.4,4.191A6.169,6.169,0,0,0,6.162,60c39.106,0,41.214.151,45.648-.387A7.024,7.024,0,0,0,58,52.659V47.816A2.993,2.993,0,0,0,57,42ZM6.916,22.044,6.044,2H26V22a1,1,0,0,1-1,1H7.915a1,1,0,0,1-1-.956ZM22,25c0,2.251-.159,3.773,1.027,5.934A4.513,4.513,0,0,1,19,33a11.093,11.093,0,0,1-7.477-3.2A3.037,3.037,0,0,0,10,29.056V25ZM7.125,31.588A1.159,1.159,0,0,1,8.154,31c1.156,0,1.545-.077,1.959.22A12.941,12.941,0,0,0,19,35a6.53,6.53,0,0,0,6.58-4.923c.649.352,1.971,1.246,3.565,2.364l-1.852,1.852a1,1,0,1,0,1.414,1.414l2.093-2.1c.984.7,2.012,1.438,3.014,2.159l-1.522,1.522a1,1,0,1,0,1.414,1.414l1.753-1.754C37.7,38.565,41.17,41.087,42.883,42H5.025c.125-4.946,1.137-8.6,2.1-10.412ZM51.569,57.627C47.51,58.121,47.151,58,6.162,58a4.166,4.166,0,0,1-3.948-5.479L3.721,48H8.39a10.594,10.594,0,0,0-.155,5.18,1,1,0,1,0,1.968-.36A7.639,7.639,0,0,1,10.547,48H16.39a10.594,10.594,0,0,0-.155,5.18,1,1,0,0,0,1.968-.36A7.639,7.639,0,0,1,18.547,48H25v5a1,1,0,0,0,2,0V48h6v5a1,1,0,0,0,2,0V48h6.451a7.612,7.612,0,0,1,.346,4.82,1,1,0,0,0,1.968.36A10.594,10.594,0,0,0,43.61,48h5.841a7.612,7.612,0,0,1,.346,4.82,1,1,0,0,0,1.968.36A10.594,10.594,0,0,0,51.61,48H56v4.659a5.022,5.022,0,0,1-4.431,4.968ZM57,46H3a1,1,0,0,1,0-2H57a1,1,0,0,1,0,2Z"/>
    </g>
  </g>
</svg>
