<svg xmlns="http://www.w3.org/2000/svg" xmlns:xlink="http://www.w3.org/1999/xlink" width="83" height="83" viewBox="0 0 83 83">
  <defs>
    <clipPath id="clip-path">
      <path id="path4062" d="M0-682.665H62.665V-620H0Z" transform="translate(0 682.665)"/>
    </clipPath>
  </defs>
  <g id="Grupo_960381" data-name="Grupo 960381" transform="translate(-3808 8081)">
    <rect id="Rectángulo_340661" data-name="Rectángulo 340661" width="83" height="83" transform="translate(3808 -8081)" fill="none"/>
    <g id="g4056" transform="translate(3818 -7388.335)">
      <g id="g4058" transform="translate(0 -682.665)">
        <g id="g4060" clip-path="url(#clip-path)">
          <g id="g4066" transform="translate(0.918 33.372)">
            <path id="path4068" d="M-53.413-137.182c.085,0,.172,0,.257.007a8.874,8.874,0,0,1,6.3-6.935,8.831,8.831,0,0,1,2.087-.325c.006-.054.013-.109.02-.163a7.435,7.435,0,0,1,6.28-6.45v22a8.823,8.823,0,0,1-5.974,2.324,8.814,8.814,0,0,1-4.924-1.494,5.387,5.387,0,0,1-4.34,1.823,5.425,5.425,0,0,1-5.1-5.046,5.4,5.4,0,0,1,5.388-5.744" transform="translate(58.812 151.048)" fill="#9f8a8a"/>
          </g>
          <g id="g4070" transform="translate(0 32.454)">
            <path id="path4072" d="M-62.5-134.548q-.168,0-.337-.009a6.305,6.305,0,0,1-5.965-5.906,6.266,6.266,0,0,1,1.7-4.727,6.345,6.345,0,0,1,4.123-1.973,9.843,9.843,0,0,1,6.792-6.911,9.756,9.756,0,0,1,1.543-.3,8.323,8.323,0,0,1,6.944-6.658.918.918,0,0,1,.743.206.918.918,0,0,1,.324.7v22a.918.918,0,0,1-.3.677,9.748,9.748,0,0,1-6.594,2.565,9.731,9.731,0,0,1-4.788-1.251A6.32,6.32,0,0,1-62.5-134.548Zm0-10.8a4.439,4.439,0,0,0-3.266,1.413,4.448,4.448,0,0,0-1.206,3.356,4.526,4.526,0,0,0,4.229,4.187,4.487,4.487,0,0,0,3.6-1.513.918.918,0,0,1,1.2-.156,7.9,7.9,0,0,0,4.413,1.339,7.912,7.912,0,0,0,5.056-1.824v-20.419a6.5,6.5,0,0,0-4.452,5.406l-.016.133a.918.918,0,0,1-.881.825,7.928,7.928,0,0,0-1.87.291,7.986,7.986,0,0,0-5.65,6.215.918.918,0,0,1-.941.753Z" transform="translate(68.814 161.048)"/>
          </g>
          <g id="g4074" transform="translate(48.256 41.681)">
            <path id="path4076" d="M-98.062-90.967c-.056,0-.114,0-.17,0a5.885,5.885,0,0,0-4.18-4.6,5.859,5.859,0,0,0-1.384-.216c0-.036-.008-.072-.013-.108a4.93,4.93,0,0,0-4.164-4.277v14.59a5.85,5.85,0,0,0,3.961,1.541,5.845,5.845,0,0,0,3.265-.991,3.572,3.572,0,0,0,2.878,1.209,3.6,3.6,0,0,0,3.38-3.346,3.58,3.58,0,0,0-3.573-3.809" transform="translate(107.973 100.161)" fill="#9f8a8a"/>
          </g>
          <g id="g4078" transform="translate(47.338 40.763)">
            <path id="path4080" d="M-107.143-91.971a4.5,4.5,0,0,1-2.814-.99,6.763,6.763,0,0,1-3.137.767,6.772,6.772,0,0,1-4.581-1.782.918.918,0,0,1-.3-.677v-14.59a.918.918,0,0,1,.324-.7.918.918,0,0,1,.743-.206,5.818,5.818,0,0,1,4.81,4.442,6.77,6.77,0,0,1,.851.181,6.84,6.84,0,0,1,4.661,4.595,4.518,4.518,0,0,1,2.719,1.383,4.461,4.461,0,0,1,1.211,3.366,4.49,4.49,0,0,1-4.248,4.206C-106.983-91.973-107.063-91.971-107.143-91.971Zm-2.686-3.05a.917.917,0,0,1,.689.311,2.664,2.664,0,0,0,2,.9l.144,0a2.688,2.688,0,0,0,2.512-2.486,2.643,2.643,0,0,0-.716-1.995,2.637,2.637,0,0,0-1.94-.84l-.13,0a.918.918,0,0,1-.943-.753,4.984,4.984,0,0,0-3.527-3.879,4.949,4.949,0,0,0-1.166-.181.918.918,0,0,1-.881-.827,4.021,4.021,0,0,0-2.346-3.241v12.931a4.936,4.936,0,0,0,3.044,1.048,4.93,4.93,0,0,0,2.754-.835A.915.915,0,0,1-109.829-95.021Z" transform="translate(117.973 110.161)"/>
          </g>
          <g id="g4082" transform="translate(15.405 3.404)">
            <path id="path4084" d="M-324.787-59.044h-32.827l2.213-5.195a1.271,1.271,0,0,1,1.17-.773h26.061a1.272,1.272,0,0,1,1.17.773Z" transform="translate(357.614 65.012)" fill="#fdb659"/>
          </g>
          <g id="g4086" transform="translate(14.487 2.486)">
            <path id="path4088" d="M-85.809-2.2h-32.827a.918.918,0,0,1-.766-.412.918.918,0,0,1-.079-.866l2.213-5.195A2.186,2.186,0,0,1-115.254-10h6.674a.918.918,0,0,1,.918.918.918.918,0,0,1-.918.918h-6.674a.353.353,0,0,0-.325.215l-1.669,3.917H-87.2l-1.669-3.917a.353.353,0,0,0-.325-.215h-15.39a.918.918,0,0,1-.918-.918.918.918,0,0,1,.918-.918h15.39a2.186,2.186,0,0,1,2.014,1.331l2.213,5.195a.918.918,0,0,1-.079.866A.918.918,0,0,1-85.809-2.2Z" transform="translate(119.554 10)"/>
          </g>
          <g id="g4090" transform="translate(15.28 11.769)">
            <path id="path4092" d="M0,0V21.708a3.54,3.54,0,0,0,2.872,3.476,1.985,1.985,0,0,1,1.61,1.949V44.6a1.271,1.271,0,0,0,1.271,1.271H33.078V0Z" fill="#fd9e28"/>
          </g>
          <g id="g4094" transform="translate(15.28 11.769)">
            <path id="path4096" d="M-76.687-255.293v20.063h-2a1.271,1.271,0,0,1-1.271-1.271v-17.462a1.979,1.979,0,0,0-.455-1.265,1.979,1.979,0,0,0-1.156-.684,3.54,3.54,0,0,1-2.872-3.477V-281.1h3.268v20.379a3.54,3.54,0,0,0,2.872,3.476,1.98,1.98,0,0,1,1.157.685,1.986,1.986,0,0,1,.454,1.264" transform="translate(84.438 281.097)" fill="#fdb659"/>
          </g>
          <path id="path4098" d="M494.672-508.587h-3.248v-45.866h3.248Z" transform="translate(-446.314 566.222)" fill="#fd8724"/>
          <g id="g4100" transform="translate(14.362 10.851)">
            <path id="path4102" d="M-369.435-132.395a.918.918,0,0,1-.918-.918v-13.069a.918.918,0,0,1,.918-.918h33.078a.918.918,0,0,1,.918.918v12.6a.918.918,0,0,1-.918.918.918.918,0,0,1-.918-.918v-11.685h-31.243v12.151A.918.918,0,0,1-369.435-132.395Z" transform="translate(370.352 147.3)"/>
          </g>
          <g id="g4104" transform="translate(14.362 27.451)">
            <path id="path4106" d="M24,16.027H-3.329a2.192,2.192,0,0,1-2.189-2.189V-3.624a1.068,1.068,0,0,0-.866-1.048A4.464,4.464,0,0,1-10-9.05v-4.641a.918.918,0,0,1,.918-.918.918.918,0,0,1,.918.918V-9.05A2.625,2.625,0,0,0-6.037-6.475,2.907,2.907,0,0,1-3.682-3.624V13.838a.354.354,0,0,0,.353.353H23.078V-14.157A.918.918,0,0,1,24-15.075a.918.918,0,0,1,.918.918V15.109A.918.918,0,0,1,24,16.027Z" transform="translate(10 15.075)"/>
          </g>
          <g id="g4108" transform="translate(21.051 13.825)">
            <path id="path4110" d="M0,0V8.513A2.905,2.905,0,0,0,2.756,11.44,2.86,2.86,0,0,0,5.721,8.581V7.151a2.574,2.574,0,0,1,5.149,0v7.082a2.905,2.905,0,0,0,2.756,2.927A2.86,2.86,0,0,0,16.59,14.3V0Z" fill="#34e8b1"/>
          </g>
          <g id="g4112" transform="translate(20.133 12.907)">
            <path id="path4114" d="M4.65,9,4.511,9A3.846,3.846,0,0,1,.869,5.151V-1.931A1.658,1.658,0,0,0-.787-3.587,1.658,1.658,0,0,0-2.443-1.931V-.5A3.747,3.747,0,0,1-3.6,2.218a3.749,3.749,0,0,1-2.76,1.057A3.846,3.846,0,0,1-10-.569V-9.082A.918.918,0,0,1-9.082-10a.918.918,0,0,1,.918.918V-.569A1.994,1.994,0,0,0-6.293,1.44,1.929,1.929,0,0,0-4.873.9,1.927,1.927,0,0,0-4.279-.5v-1.43A3.5,3.5,0,0,1-.787-5.423,3.5,3.5,0,0,1,2.705-1.931V5.151a1.994,1.994,0,0,0,1.871,2.01A1.943,1.943,0,0,0,6.59,5.22v-14.3A.918.918,0,0,1,7.508-10a.918.918,0,0,1,.918.918V5.22A3.778,3.778,0,0,1,4.65,9Z" transform="translate(10 10)"/>
          </g>
          <g id="g4116" transform="translate(33.428 39.247)">
            <path id="path4118" d="M-198.02-99.01A10.007,10.007,0,0,1-208.027-89,10.007,10.007,0,0,1-218.034-99.01a10.007,10.007,0,0,1,10.007-10.007A10.007,10.007,0,0,1-198.02-99.01" transform="translate(218.034 109.017)" fill="#695a69"/>
          </g>
          <g id="g4120" transform="translate(32.51 38.329)">
            <path id="path4122" d="M-217.109-119.017a10.938,10.938,0,0,1,10.925,10.925,10.938,10.938,0,0,1-10.925,10.925,10.938,10.938,0,0,1-10.925-10.925A10.937,10.937,0,0,1-217.109-119.017Zm0,20.014a9.1,9.1,0,0,0,9.089-9.089,9.1,9.1,0,0,0-9.089-9.089,9.1,9.1,0,0,0-9.089,9.089A9.1,9.1,0,0,0-217.109-99Z" transform="translate(228.034 119.017)"/>
          </g>
          <g id="g4124" transform="translate(38.596 44.415)">
            <path id="path4126" d="M-95.746-47.873a4.839,4.839,0,0,1-4.839,4.839,4.839,4.839,0,0,1-4.839-4.839,4.839,4.839,0,0,1,4.839-4.839,4.839,4.839,0,0,1,4.839,4.839" transform="translate(105.424 52.712)" fill="#eae1dc"/>
          </g>
          <g id="g4128" transform="translate(37.678 43.497)">
            <path id="path4130" d="M-109.667-62.712a5.763,5.763,0,0,1,5.757,5.757,5.763,5.763,0,0,1-5.757,5.757,5.763,5.763,0,0,1-5.757-5.757A5.763,5.763,0,0,1-109.667-62.712Zm0,9.677a3.925,3.925,0,0,0,3.921-3.921,3.925,3.925,0,0,0-3.921-3.921,3.925,3.925,0,0,0-3.921,3.921A3.925,3.925,0,0,0-109.667-53.034Z" transform="translate(115.424 62.712)"/>
          </g>
          <g id="g4132" transform="translate(12.032 7.194)">
            <path id="path4134" d="M-372.481-70.414H-408.2a1.271,1.271,0,0,1-1.258-1.091l-.654-4.574a1.271,1.271,0,0,1,1.258-1.451h37.03a1.271,1.271,0,0,1,1.259,1.451l-.654,4.574a1.271,1.271,0,0,1-1.258,1.091" transform="translate(410.129 77.53)" fill="#fede93"/>
          </g>
          <g id="g4136" transform="translate(46.032 7.194)">
            <path id="path4138" d="M-55.017-14.364-55.67-9.79A1.273,1.273,0,0,1-56.929-8.7h-3.649A1.271,1.271,0,0,0-59.318-9.79l.655-4.574a1.272,1.272,0,0,0-1.259-1.452h3.647a1.271,1.271,0,0,1,1.259,1.452" transform="translate(60.577 15.816)" fill="#fdb659"/>
          </g>
          <g id="g4140" transform="translate(11.115 6.276)">
            <path id="path4142" d="M-381.562-78.578h-35.722a2.2,2.2,0,0,1-2.167-1.88l-.654-4.574a2.188,2.188,0,0,1,.513-1.744,2.188,2.188,0,0,1,1.654-.755h37.03a2.188,2.188,0,0,1,1.654.755,2.188,2.188,0,0,1,.513,1.744l-.654,4.574A2.2,2.2,0,0,1-381.562-78.578Zm-36.376-7.117a.349.349,0,0,0-.267.122.349.349,0,0,0-.083.281l.654,4.575a.355.355,0,0,0,.35.3h35.722a.355.355,0,0,0,.35-.3l.654-4.575a.349.349,0,0,0-.083-.281.349.349,0,0,0-.267-.122Z" transform="translate(420.127 87.53)"/>
          </g>
          <g id="g4144" transform="translate(3.614 35.214)">
            <path id="path4146" d="M-39.675-33.955l-1.3-3.4a.056.056,0,0,0-.073-.033l-2.639,1.009,1.319,3.448a3.436,3.436,0,0,1,.008,2.354,2.952,2.952,0,0,0,.034,2.026l2.573,6.729a1.017,1.017,0,0,0,1.313.587l3.641-1.392a1.017,1.017,0,0,0,.587-1.313l-2.573-6.729A2.952,2.952,0,0,0-38.11-32.2a3.436,3.436,0,0,1-1.565-1.759" transform="translate(43.685 37.387)" fill="#f04343"/>
          </g>
          <g id="g4148" transform="translate(2.696 34.296)">
            <path id="path4150" d="M-50.108-47.387h0a1.024,1.024,0,0,1,.91.627l1.3,3.4a2.534,2.534,0,0,0,1.154,1.284,3.886,3.886,0,0,1,1.738,2.005l2.573,6.729a1.923,1.923,0,0,1-.041,1.48,1.922,1.922,0,0,1-1.076,1.018l-3.641,1.392a1.928,1.928,0,0,1-.691.128,1.946,1.946,0,0,1-1.807-1.244L-52.264-37.3a3.886,3.886,0,0,1-.044-2.653,2.534,2.534,0,0,0,0-1.726l-1.319-3.448a.918.918,0,0,1,.019-.7.918.918,0,0,1,.51-.483l2.639-1.009A1.034,1.034,0,0,1-50.108-47.387Zm2.224,16.223,3.677-1.4a.112.112,0,0,0,.057-.128l-2.573-6.729a2.047,2.047,0,0,0-.915-1.057,4.371,4.371,0,0,1-1.976-2.233l-.991-2.591-.977.373.991,2.591a4.371,4.371,0,0,1,.018,2.981,2.047,2.047,0,0,0,.023,1.4l2.573,6.729A.1.1,0,0,0-47.884-31.163Z" transform="translate(53.685 47.387)"/>
          </g>
          <g id="g4152" transform="translate(2.036 33.681)">
            <path id="path4154" d="M-48.681-23.274l-3.269,1.25a1.216,1.216,0,0,1-1.57-.7,1.216,1.216,0,0,1,.7-1.57l3.269-1.25a1.216,1.216,0,0,1,1.57.7h0a1.216,1.216,0,0,1-.7,1.57" transform="translate(53.601 25.627)" fill="#f16464"/>
          </g>
          <g id="g4156" transform="translate(1.117 32.763)">
            <path id="path4158" d="M-61.475-30.108a2.147,2.147,0,0,1-1.994-1.372,2.12,2.12,0,0,1,.045-1.633,2.12,2.12,0,0,1,1.186-1.123l3.269-1.25a2.126,2.126,0,0,1,.762-.141,2.147,2.147,0,0,1,1.994,1.372A2.137,2.137,0,0,1-57.443-31.5l-3.269,1.25A2.126,2.126,0,0,1-61.475-30.108Zm3.269-3.683a.3.3,0,0,0-.106.02l-3.269,1.25a.3.3,0,0,0-.166.157.3.3,0,0,0-.006.228.3.3,0,0,0,.279.192.3.3,0,0,0,.106-.02l3.269-1.25a.3.3,0,0,0,.166-.157.3.3,0,0,0,.006-.228A.3.3,0,0,0-58.206-33.791Z" transform="translate(63.61 35.627)"/>
          </g>
          <g id="g4160" transform="translate(5.087 48.631)">
            <path id="path4162" d="M-121.9-41.059a6.648,6.648,0,0,0-6.16-4.15,6.648,6.648,0,0,0-6.16,4.15Z" transform="translate(134.216 45.209)" fill="#9f8a8a"/>
          </g>
          <g id="g4164" transform="translate(4.169 47.713)">
            <path id="path4166" d="M-132.548-30.976a.915.915,0,0,1-.345-.068.918.918,0,0,1-.505-1.2,7.536,7.536,0,0,1,7.011-4.723,7.533,7.533,0,0,1,5.888,2.816.918.918,0,0,1-.138,1.291.918.918,0,0,1-1.291-.138,5.705,5.705,0,0,0-4.459-2.134,5.708,5.708,0,0,0-5.31,3.577A.918.918,0,0,1-132.548-30.976Z" transform="translate(133.466 36.963)"/>
          </g>
          <g id="g4168" transform="translate(56.108 34.296)">
            <path id="path4170" d="M-9.013-8.164a.923.923,0,0,1-.924-.918A.913.913,0,0,1-9.025-10h.012a.918.918,0,0,1,.918.918A.918.918,0,0,1-9.013-8.164Z" transform="translate(9.937 10)"/>
          </g>
          <g id="g4172" transform="translate(52.849 31.078)">
            <path id="path4174" d="M-9.014-8.164a.923.923,0,0,1-.924-.918A.913.913,0,0,1-9.025-10h.012a.918.918,0,0,1,.918.918A.918.918,0,0,1-9.014-8.164Z" transform="translate(9.937 10)"/>
          </g>
          <g id="g4176" transform="translate(8.954 21.581)">
            <path id="path4178" d="M-9.013-8.164a.923.923,0,0,1-.924-.918A.913.913,0,0,1-9.025-10h.012a.918.918,0,0,1,.918.918A.918.918,0,0,1-9.013-8.164Z" transform="translate(9.937 10)"/>
          </g>
        </g>
      </g>
    </g>
  </g>
</svg>
