<svg xmlns="http://www.w3.org/2000/svg" xmlns:xlink="http://www.w3.org/1999/xlink" width="83" height="83" viewBox="0 0 83 83">
  <defs>
    <clipPath id="clip-path">
      <path id="path1047" d="M0-682.665H59.5v59.5H0Z" transform="translate(0 682.665)"/>
    </clipPath>
  </defs>
  <g id="Grupo_960388" data-name="Grupo 960388" transform="translate(-3817 7717)">
    <rect id="Rectángulo_340667" data-name="Rectángulo 340667" width="83" height="83" transform="translate(3817 -7717)" fill="none"/>
    <g id="g1041" transform="translate(3829 -7022.335)">
      <g id="g1043" transform="translate(0 -682.665)">
        <g id="g1045" clip-path="url(#clip-path)">
          <g id="g1051" transform="translate(44.06 6.979)">
            <path id="path1053" d="M-57.562-88.633l-5.5-5.5,3.753-2.725a1.265,1.265,0,0,1,1.638.129l2.7,2.7a1.265,1.265,0,0,1,.129,1.638Z" transform="translate(63.059 97.095)" fill="#bac5e2"/>
          </g>
          <g id="g1055" transform="translate(43.872 6.104)">
            <path id="path1057" d="M-3.821-28.848a.867.867,0,0,1-.511-.166.872.872,0,0,1-.193-1.217L-2.3-33.3a.392.392,0,0,0-.04-.509l-2.7-2.7a.392.392,0,0,0-.509-.04l-3.069,2.228a.872.872,0,0,1-1.217-.193.872.872,0,0,1,.193-1.217l3.068-2.228a2.127,2.127,0,0,1,2.766.218l2.7,2.7a2.127,2.127,0,0,1,.218,2.766l-2.228,3.068A.871.871,0,0,1-3.821-28.848Z" transform="translate(10.001 38.373)"/>
          </g>
          <g id="g1059" transform="translate(50.114 0.002)">
            <path id="path1061" d="M-9.128-88.3a.869.869,0,0,1-.616-.255.872.872,0,0,1,0-1.233L-2.1-97.435a.872.872,0,0,1,1.233,0,.872.872,0,0,1,0,1.233L-8.512-88.56A.869.869,0,0,1-9.128-88.3Z" transform="translate(10 97.69)"/>
          </g>
          <g id="g1063" transform="translate(25.824 7.329)">
            <path id="path1065" d="M-186.62-10.669a3.478,3.478,0,0,0-4.919,0l-12.9,12.9h24.861l.469-.469a3.478,3.478,0,0,0,0-4.919Z" transform="translate(204.438 11.688)" fill="#e9efff"/>
          </g>
          <g id="g1067" transform="translate(16.229 21.247)">
            <path id="path1069" d="M-100.487,0l-9.594,9.594L-97.65,22.025-75.625,0Z" transform="translate(110.081)" fill="#42c3fc"/>
          </g>
          <g id="g1071" transform="translate(25.824 7.329)">
            <path id="path1073" d="M-186.62-10.669a3.478,3.478,0,0,0-4.919,0l-12.9,12.9h4.568l10.616-10.616a3.478,3.478,0,0,1,4.919,0Z" transform="translate(204.438 11.688)" fill="#d3dcfb"/>
          </g>
          <g id="g1075" transform="translate(16.229 21.247)">
            <path id="path1077" d="M-23.924-124.409l11.879-11.879h-4.568l-9.594,9.594Z" transform="translate(26.208 136.288)" fill="#1aa9e8"/>
          </g>
          <g id="g1079" transform="translate(7.307 35.086)">
            <path id="path1081" d="M-65.353-179.178l-6.24-6.24,10.868-10.868,6.24,6.24Z" transform="translate(71.593 196.286)" fill="#e9efff"/>
          </g>
          <g id="g1083" transform="translate(7.307 35.086)">
            <path id="path1085" d="M-113.826,0l-10.868,10.868,1.463,1.463,6.013-6.013a1.162,1.162,0,0,1,1.643,0l3.956,3.955,4.033-4.033Z" transform="translate(124.694)" fill="#d3dcfb"/>
          </g>
          <g id="g1087" transform="translate(7.11 38.876)">
            <path id="path1089" d="M-9.128-66.2a.869.869,0,0,1-.616-.255.872.872,0,0,1,0-1.233l5.532-5.532a.872.872,0,0,1,1.233,0,.872.872,0,0,1,0,1.233l-5.532,5.532A.869.869,0,0,1-9.128-66.2Z" transform="translate(10 73.472)"/>
          </g>
          <g id="g1091" transform="translate(13.35 42.816)">
            <path id="path1093" d="M-98.994-.424A.869.869,0,0,1-99.61-.68a.872.872,0,0,1,0-1.233l7.832-7.832a.872.872,0,0,1,1.233,0,.872.872,0,0,1,0,1.233L-98.377-.68A.869.869,0,0,1-98.994-.424Z" transform="translate(99.865 10)"/>
          </g>
          <g id="g1095" transform="translate(0.875 42.061)">
            <path id="path1097" d="M-167.208-126.479l-11.476-11.476a2.05,2.05,0,0,0-2.9,0l-.99.99a2.05,2.05,0,0,0,0,2.9L-171.1-122.59a2.05,2.05,0,0,0,2.9,0l.99-.99a2.05,2.05,0,0,0,0-2.9" transform="translate(183.173 138.555)" fill="#bac5e2"/>
          </g>
          <g id="g1099" transform="translate(0.872 42.058)">
            <path id="path1101" d="M-36-38.5l.239-.239a2.581,2.581,0,0,1,3.65,0h0l-2.839-2.839a2.042,2.042,0,0,0-2.888,0l-1,1a2.042,2.042,0,0,0,0,2.888L-36-34.851a2.581,2.581,0,0,1,0-3.65" transform="translate(39.434 42.177)" fill="#a7b4d1"/>
          </g>
          <g id="g1103" transform="translate(0.003 41.19)">
            <path id="path1105" d="M-178.775-130.247a2.9,2.9,0,0,1-2.066-.856l-11.476-11.476a2.9,2.9,0,0,1-.856-2.066,2.9,2.9,0,0,1,.856-2.066l.99-.99a2.9,2.9,0,0,1,2.066-.856,2.9,2.9,0,0,1,2.066.856l11.476,11.476a2.9,2.9,0,0,1,.856,2.066,2.9,2.9,0,0,1-.856,2.066l-.99.99A2.9,2.9,0,0,1-178.775-130.247Zm-10.486-16.565a1.171,1.171,0,0,0-.833.345l-.99.99a1.17,1.17,0,0,0-.345.833,1.171,1.171,0,0,0,.345.833l11.476,11.476a1.171,1.171,0,0,0,.833.345,1.171,1.171,0,0,0,.833-.345l.99-.99a1.17,1.17,0,0,0,.345-.833,1.171,1.171,0,0,0-.345-.833l-11.476-11.476A1.171,1.171,0,0,0-189.261-146.812Z" transform="translate(193.173 148.555)"/>
          </g>
          <g id="g1107" transform="translate(28.792 6.457)">
            <path id="path1109" d="M-9.128-374.2a.869.869,0,0,1-.616-.255.872.872,0,0,1,0-1.233l21.491-21.491a2.589,2.589,0,0,0,.763-1.843,2.589,2.589,0,0,0-.763-1.843l-7.512-7.512a2.589,2.589,0,0,0-1.843-.763,2.589,2.589,0,0,0-1.843.763l-4.936,4.936a.872.872,0,0,1-1.233,0,.872.872,0,0,1,0-1.233l4.936-4.936a4.321,4.321,0,0,1,3.076-1.274,4.321,4.321,0,0,1,3.076,1.274l7.512,7.512a4.321,4.321,0,0,1,1.274,3.076,4.321,4.321,0,0,1-1.274,3.076L-8.512-374.455A.869.869,0,0,1-9.128-374.2Z" transform="translate(10 410.883)"/>
          </g>
          <g id="g1111" transform="translate(16.359 14.591)">
            <path id="path1113" d="M-174.092,6.121a.869.869,0,0,1-.616-.255.872.872,0,0,1,0-1.233L-160.33-9.745a.872.872,0,0,1,1.233,0,.872.872,0,0,1,0,1.233L-173.476,5.866A.869.869,0,0,1-174.092,6.121Z" transform="translate(174.964 10)"/>
          </g>
          <g id="g1115" transform="translate(9.453 26.575)">
            <path id="path1117" d="M-238.553-191.3l-17.569-17.569a2.379,2.379,0,0,0-3.364,0l-1.148,1.148a2.378,2.378,0,0,0,0,3.363l17.569,17.569a2.378,2.378,0,0,0,3.363,0l1.148-1.148a2.378,2.378,0,0,0,0-3.363" transform="translate(261.33 209.565)" fill="#bac5e2"/>
          </g>
          <g id="g1119" transform="translate(9.45 26.571)">
            <path id="path1121" d="M-37.64-40.544l.277-.277a2.994,2.994,0,0,1,4.234,0l-2.9-2.9a2.369,2.369,0,0,0-3.35,0L-40.54-42.56a2.369,2.369,0,0,0,0,3.35l2.9,2.9a2.994,2.994,0,0,1,0-4.234" transform="translate(41.234 44.415)" fill="#a7b4d1"/>
          </g>
          <g id="g1123" transform="translate(8.582 25.703)">
            <path id="path1125" d="M-250.511-194.348a3.228,3.228,0,0,1-2.3-.952l-17.569-17.569a3.228,3.228,0,0,1-.952-2.3,3.228,3.228,0,0,1,.952-2.3l1.148-1.148a3.229,3.229,0,0,1,2.3-.952,3.229,3.229,0,0,1,2.3.952l17.569,17.569a3.254,3.254,0,0,1,0,4.6l-1.148,1.148A3.229,3.229,0,0,1-250.511-194.348Zm-16.421-23.474a1.5,1.5,0,0,0-1.066.441l-1.148,1.148a1.5,1.5,0,0,0-.441,1.065,1.5,1.5,0,0,0,.441,1.065l17.569,17.569a1.5,1.5,0,0,0,1.065.441,1.5,1.5,0,0,0,1.065-.441l1.148-1.148a1.509,1.509,0,0,0,0-2.131l-17.569-17.569A1.5,1.5,0,0,0-266.932-217.822Z" transform="translate(271.33 219.565)"/>
          </g>
          <g id="g1127" transform="translate(10.23 39.696)">
            <path id="path1129" d="M-98.994-.424A.869.869,0,0,1-99.61-.68a.872.872,0,0,1,0-1.233l7.832-7.832a.872.872,0,0,1,1.233,0,.872.872,0,0,1,0,1.233L-98.377-.68A.869.869,0,0,1-98.994-.424Z" transform="translate(99.865 10)"/>
          </g>
          <g id="g1131" transform="translate(36.435 28.473)">
            <path id="path1133" d="M-36.779-35.907a.869.869,0,0,1-.616-.255l-2.64-2.64a.872.872,0,0,1,0-1.233.872.872,0,0,1,1.233,0l2.64,2.64a.872.872,0,0,1,0,1.233A.869.869,0,0,1-36.779-35.907Z" transform="translate(40.291 40.291)"/>
          </g>
          <g id="g1135" transform="translate(32.916 31.993)">
            <path id="path1137" d="M-36.779-35.907a.869.869,0,0,1-.616-.255l-2.64-2.64a.872.872,0,0,1,0-1.233.872.872,0,0,1,1.233,0l2.64,2.64a.872.872,0,0,1,0,1.233A.869.869,0,0,1-36.779-35.907Z" transform="translate(40.291 40.291)"/>
          </g>
          <g id="g1139" transform="translate(29.397 35.512)">
            <path id="path1141" d="M-36.778-35.907a.869.869,0,0,1-.616-.255l-2.64-2.64a.872.872,0,0,1,0-1.233.872.872,0,0,1,1.233,0l2.64,2.64a.872.872,0,0,1,0,1.233A.869.869,0,0,1-36.778-35.907Z" transform="translate(40.289 40.291)"/>
          </g>
          <g id="g1143" transform="translate(24.952 20.376)">
            <path id="path1145" d="M-176.878-8.257h-16.017a.872.872,0,0,1-.872-.872.872.872,0,0,1,.872-.872h16.017a.872.872,0,0,1,.872.872A.872.872,0,0,1-176.878-8.257Z" transform="translate(193.766 10)"/>
          </g>
          <g id="g1147" transform="translate(44.483 20.376)">
            <path id="path1149" d="M-64.953-8.257h-5.33a.872.872,0,0,1-.872-.872A.872.872,0,0,1-70.283-10h5.33a.872.872,0,0,1,.872.872A.872.872,0,0,1-64.953-8.257Z" transform="translate(71.154 10)"/>
          </g>
        </g>
      </g>
    </g>
  </g>
</svg>
