<svg xmlns="http://www.w3.org/2000/svg" xmlns:xlink="http://www.w3.org/1999/xlink" width="83" height="83" viewBox="0 0 83 83">
  <defs>
    <clipPath id="clip-path">
      <path id="path438" d="M0-682.665H61.787v61.787H0Z" transform="translate(0 682.665)"/>
    </clipPath>
  </defs>
  <g id="Grupo_960385" data-name="Grupo 960385" transform="translate(-3178 7651)">
    <rect id="Rectángulo_340665" data-name="Rectángulo 340665" width="83" height="83" transform="translate(3178 -7651)" fill="none"/>
    <g id="g432" transform="translate(3189 -6957.335)">
      <g id="g434" transform="translate(0 -682.665)">
        <g id="g436" clip-path="url(#clip-path)">
          <g id="g442" transform="translate(46.877 28.896)">
            <path id="path444" d="M0-60.231H2.385A1.209,1.209,0,0,0,3.594-61.44v-3.576a1.209,1.209,0,0,0-1.209-1.209H0Z" transform="translate(0 66.225)" fill="#fd6930"/>
          </g>
          <g id="g446" transform="translate(46.877 31.683)">
            <path id="path448" d="M-36.113,0V2a1.209,1.209,0,0,1-1.209,1.209h-2.384v-2h2.384A1.209,1.209,0,0,0-36.113,0" transform="translate(39.707)" fill="#fd5426"/>
          </g>
          <g id="g450" transform="translate(0.93 0.93)">
            <path id="path452" d="M-482.757-460.056l0,.006a.607.607,0,0,1-.928-.023l-28.9-35.943a.608.608,0,0,1,.179-.914,23.9,23.9,0,0,1,11.55-2.969,24.062,24.062,0,0,1,24.05,24.022,23.938,23.938,0,0,1-2.271,10.206,23.931,23.931,0,0,1-3.673,5.614m-6.5,5.234a23.9,23.9,0,0,1-11.55,2.969,24.062,24.062,0,0,1-24.05-24.022,23.937,23.937,0,0,1,2.271-10.206,23.942,23.942,0,0,1,3.673-5.614l0-.006a.607.607,0,0,1,.928.023l28.9,35.943a.608.608,0,0,1-.179.914m-11.577-51.016A29.962,29.962,0,0,0-530.8-475.876a29.963,29.963,0,0,0,29.963,29.963,29.963,29.963,0,0,0,29.963-29.963,29.962,29.962,0,0,0-29.963-29.963" transform="translate(530.799 505.839)" fill="#fb2b3a"/>
          </g>
          <g id="g454" transform="translate(11.422 6.174)">
            <path id="path456" d="M-365.857,0a29.9,29.9,0,0,1,10.492,22.774,29.962,29.962,0,0,1-29.963,29.963,29.823,29.823,0,0,1-16.937-5.243,29.846,29.846,0,0,0,19.471,7.189A29.963,29.963,0,0,0-352.831,24.72,29.927,29.927,0,0,0-365.857,0" transform="translate(402.266)" fill="#e41f2d"/>
          </g>
          <g id="g458" transform="translate(0.025 0.025)">
            <path id="path460" d="M-446.18-581.249a30.9,30.9,0,0,1-30.869-30.869,30.9,30.9,0,0,1,30.869-30.869,30.9,30.9,0,0,1,30.869,30.869A30.741,30.741,0,0,1-429.7-586.012a.905.905,0,0,1-1.249-.281.905.905,0,0,1,.281-1.249,28.941,28.941,0,0,0,13.546-24.576,29.091,29.091,0,0,0-29.058-29.058,29.091,29.091,0,0,0-29.059,29.058,29.091,29.091,0,0,0,29.059,29.058,28.833,28.833,0,0,0,11.936-2.557.905.905,0,0,1,1.2.453.905.905,0,0,1-.453,1.2A30.632,30.632,0,0,1-446.18-581.249Z" transform="translate(477.048 642.986)"/>
          </g>
          <g id="g462" transform="translate(5.966 13.958)">
            <path id="path464" d="M-78.674-12.519a1.509,1.509,0,0,1,1.181.566l28.9,35.942a1.511,1.511,0,0,1,.306,1.242,1.507,1.507,0,0,1-.753,1.031,24.947,24.947,0,0,1-11.986,3.082,24.774,24.774,0,0,1-17.643-7.312A24.756,24.756,0,0,1-85.98,4.416,24.7,24.7,0,0,1-83.624-6.174,24.873,24.873,0,0,1-79.812-12,1.507,1.507,0,0,1-78.674-12.519Zm28.449,37.365L-78.68-10.541A23.063,23.063,0,0,0-81.985-5.4,22.906,22.906,0,0,0-84.17,4.416a22.958,22.958,0,0,0,6.783,16.336,22.959,22.959,0,0,0,16.335,6.782A23.172,23.172,0,0,0-50.225,24.846Z" transform="translate(85.98 12.519)"/>
          </g>
          <g id="g466" transform="translate(18.098 5.966)">
            <path id="path468" d="M-376.373-233.558a1.509,1.509,0,0,1-1.181-.566l-28.9-35.942a1.511,1.511,0,0,1-.305-1.243,1.507,1.507,0,0,1,.753-1.031,24.949,24.949,0,0,1,11.986-3.082,24.962,24.962,0,0,1,24.955,24.928,24.705,24.705,0,0,1-2.356,10.591,24.881,24.881,0,0,1-3.812,5.825A1.508,1.508,0,0,1-376.373-233.558Zm-28.449-37.365,28.455,35.387a23.074,23.074,0,0,0,3.305-5.136,22.909,22.909,0,0,0,2.184-9.821A23.144,23.144,0,0,0-394-273.61,23.173,23.173,0,0,0-404.822-270.923Z" transform="translate(406.79 275.421)"/>
          </g>
          <g id="g470" transform="translate(11.316 28.896)">
            <path id="path472" d="M-93.764-60.231h-8.122a1.209,1.209,0,0,1-1.209-1.209v-3.576a1.209,1.209,0,0,1,1.209-1.209h8.122Z" transform="translate(103.094 66.225)" fill="#e9b765"/>
          </g>
          <g id="g474" transform="translate(11.316 31.683)">
            <path id="path476" d="M-93.762-12.151v2h-8.122a1.209,1.209,0,0,1-1.209-1.209v-2a1.209,1.209,0,0,0,1.209,1.209Z" transform="translate(103.093 13.36)" fill="#d8aa5e"/>
          </g>
          <g id="g478" transform="translate(10.411 27.991)">
            <path id="path480" d="M-102.858-68.421h-8.122a2.117,2.117,0,0,1-2.114-2.114v-3.576a2.117,2.117,0,0,1,2.114-2.114h8.122a.905.905,0,0,1,.905.905v5.994A.905.905,0,0,1-102.858-68.421Zm-8.122-5.994a.3.3,0,0,0-.3.3v3.576a.3.3,0,0,0,.3.3h7.217v-4.184Z" transform="translate(113.094 76.225)"/>
          </g>
          <path id="path482" d="M254.349-357.41H228.118V-363.4h26.231Z" transform="translate(-207.472 392.3)" fill="#ececec"/>
          <path id="path484" d="M254.349-317.255H228.118v-2h26.231Z" transform="translate(-207.472 352.144)" fill="#d3d1d1"/>
          <g id="g486" transform="translate(19.742 27.991)">
            <path id="path488" d="M-9.856-68.421h-19.6a.905.905,0,0,1-.905-.905.905.905,0,0,1,.905-.905h18.7v-4.184H-35.182v4.184h1.538a.905.905,0,0,1,.905.905.905.905,0,0,1-.905.905h-2.443a.905.905,0,0,1-.905-.905V-75.32a.905.905,0,0,1,.905-.905H-9.856a.905.905,0,0,1,.905.905v5.994A.905.905,0,0,1-9.856-68.421Z" transform="translate(36.992 76.225)"/>
          </g>
          <g id="g490" transform="translate(45.972 27.991)">
            <path id="path492" d="M-6.71-68.421H-9.095A.905.905,0,0,1-10-69.326V-75.32a.905.905,0,0,1,.905-.905H-6.71A2.117,2.117,0,0,1-4.6-74.111v3.576A2.117,2.117,0,0,1-6.71-68.421Zm-1.48-1.81h1.48a.3.3,0,0,0,.3-.3v-3.576a.3.3,0,0,0-.3-.3H-8.19Z" transform="translate(10 76.225)"/>
          </g>
          <g id="g494" transform="translate(35.177 16.445)">
            <path id="path496" d="M-134.6-96.713a.905.905,0,0,1-.905-.905v-.75a1.485,1.485,0,0,0-1.483-1.483h-7.266A3.745,3.745,0,0,1-148-103.592a3.745,3.745,0,0,1,3.741-3.741h6.215a.905.905,0,0,1,.905.905.905.905,0,0,1-.905.905h-6.215a1.933,1.933,0,0,0-1.931,1.931,1.933,1.933,0,0,0,1.931,1.931h7.266a3.3,3.3,0,0,1,3.293,3.293v.75A.905.905,0,0,1-134.6-96.713Z" transform="translate(148 107.333)"/>
          </g>
        </g>
      </g>
    </g>
  </g>
</svg>
