<svg xmlns="http://www.w3.org/2000/svg" width="83" height="83" viewBox="0 0 83 83">
  <g id="Grupo_960338" data-name="Grupo 960338" transform="translate(-4506 9023)">
    <rect id="Rectángulo_340650" data-name="Rectángulo 340650" width="83" height="83" transform="translate(4506 -9023)" fill="none"/>
    <g id="el-plastico" transform="translate(4516 -9013)">
      <g id="Grupo_960336" data-name="Grupo 960336">
        <g id="Grupo_960323" data-name="Grupo 960323">
          <path id="Trazado_727313" data-name="Trazado 727313" d="M20.18,36.18,16.6,32.6l.91-.61a3.971,3.971,0,0,0,1.74-2.76l.46-3.22A3.9,3.9,0,0,1,20,25a3.947,3.947,0,0,1,1.79-1.95l4.08-2.18L32,17.6l1.25-.67a7.937,7.937,0,0,1,8.52.68,8.819,8.819,0,0,1,.86.76,7.76,7.76,0,0,1,1.98,3.43l2.3,8.29.08.27a8,8,0,0,0,4.46,5.17l2.93,1.3a8.052,8.052,0,0,1,3.9,3.74L60,44H43.71a6.005,6.005,0,0,0-4.42,1.94,6.379,6.379,0,0,0-.95,1.38L38,48H35a1,1,0,0,0-1,1v4a1,1,0,0,0,1,1h3l.34.68A6,6,0,0,0,43.71,58H20l3-3,2.29-2.29a2.414,2.414,0,0,0,0-3.42L25,49l2.29-2.29a2.414,2.414,0,0,0,0-3.42l-.58-.58a2.414,2.414,0,0,0-3.42,0L21,45l-.29-.29a2.414,2.414,0,0,0-3.42,0L15,47l-4,4L8.71,53.29a2.414,2.414,0,0,0,0,3.42L10,58H4.96a2.959,2.959,0,0,1-2.31-4.81L5.12,50.1A3.989,3.989,0,0,0,6,47.6V46.11a4.018,4.018,0,0,1,.57-2.06L8.2,41.33a2.213,2.213,0,0,1,.52-.61A2.7,2.7,0,0,1,10.55,40a2.83,2.83,0,0,1,.87.14l1.87.62.33-.81a2.011,2.011,0,0,1,1.37-1.2l2.2-.55a2.973,2.973,0,0,0,1.4-.79l.59-.59a2.674,2.674,0,0,1,1-.64Z" fill="#e6e9ed"/>
        </g>
        <g id="Grupo_960324" data-name="Grupo 960324">
          <path id="Trazado_727314" data-name="Trazado 727314" d="M24,19l1.87,1.87-4.08,2.18A3.947,3.947,0,0,0,20,25l-3.29-3.29a2.414,2.414,0,0,1,0-3.42l1.58-1.58a2.414,2.414,0,0,1,3.42,0Z" fill="#fcd770"/>
        </g>
        <g id="Grupo_960325" data-name="Grupo 960325">
          <path id="Trazado_727315" data-name="Trazado 727315" d="M30,6H26a2.006,2.006,0,0,0-2,2V19l1.87,1.87L32,17.6V8A2.006,2.006,0,0,0,30,6Z" fill="#69d6f4"/>
        </g>
        <g id="Grupo_960326" data-name="Grupo 960326">
          <path id="Trazado_727316" data-name="Trazado 727316" d="M55.29,18.29,55,18l-4-4-.29-.29a2.414,2.414,0,0,0-3.42,0l-4.66,4.66a7.76,7.76,0,0,1,1.98,3.43l2.3,8.29,8.38-8.38a2.414,2.414,0,0,0,0-3.42Z" fill="#69d6f4"/>
        </g>
        <g id="Grupo_960327" data-name="Grupo 960327">
          <path id="Trazado_727317" data-name="Trazado 727317" d="M57.29,12.29a2.414,2.414,0,0,1,0,3.42L55,18l-4-4,2.29-2.29a2.414,2.414,0,0,1,3.42,0Z" fill="#4fc1e9"/>
        </g>
        <g id="Grupo_960328" data-name="Grupo 960328">
          <path id="Trazado_727318" data-name="Trazado 727318" d="M30,3V6H26V3a1,1,0,0,1,1-1h2A1,1,0,0,1,30,3Z" fill="#4fc1e9"/>
        </g>
        <g id="Grupo_960329" data-name="Grupo 960329">
          <path id="Trazado_727319" data-name="Trazado 727319" d="M38,48v6H35a1,1,0,0,1-1-1V49a1,1,0,0,1,1-1Z" fill="#fcd770"/>
        </g>
        <g id="Grupo_960330" data-name="Grupo 960330">
          <path id="Trazado_727320" data-name="Trazado 727320" d="M60,44H43.71a6.005,6.005,0,0,0-4.42,1.94,6.379,6.379,0,0,0-.95,1.38L38,48v6l.34.68A6,6,0,0,0,43.71,58H60a2.006,2.006,0,0,0,2-2V46A2.006,2.006,0,0,0,60,44Z" fill="#ffeaa7"/>
        </g>
        <g id="Grupo_960331" data-name="Grupo 960331">
          <path id="Trazado_727321" data-name="Trazado 727321" d="M27.29,43.29a2.414,2.414,0,0,1,0,3.42L25,49l-4-4,2.29-2.29a2.414,2.414,0,0,1,3.42,0Z" fill="#4fc1e9"/>
        </g>
        <g id="Grupo_960332" data-name="Grupo 960332">
          <path id="Trazado_727322" data-name="Trazado 727322" d="M25.29,49.29,25,49l-4-4-.29-.29a2.414,2.414,0,0,0-3.42,0L8.71,53.29a2.414,2.414,0,0,0,0,3.42l4.58,4.58a2.414,2.414,0,0,0,3.42,0l8.58-8.58a2.414,2.414,0,0,0,0-3.42Z" fill="#69d6f4"/>
        </g>
        <g id="Grupo_960333" data-name="Grupo 960333">
          <path id="Trazado_727323" data-name="Trazado 727323" d="M40.29,25.29l1.62,7.32A3.988,3.988,0,0,0,39.79,32H36.44a2.009,2.009,0,0,1-1.9-1.37l-.22-.68a1.96,1.96,0,0,0-1.08-1.19l4.28-4.28A1.626,1.626,0,0,1,38.68,24a1.657,1.657,0,0,1,1.61,1.29Z" fill="#a0d468"/>
        </g>
        <g id="Grupo_960334" data-name="Grupo 960334">
          <path id="Trazado_727324" data-name="Trazado 727324" d="M42,40l-4,4-1.41-2.11A1.981,1.981,0,0,0,34.93,41H33l5-5a3.995,3.995,0,0,1,4,4Z" fill="#fcd770"/>
        </g>
        <g id="Grupo_960335" data-name="Grupo 960335">
          <path id="Trazado_727325" data-name="Trazado 727325" d="M16.6,32.6l3.58,3.58a2.674,2.674,0,0,0-1,.64l-.59.59a2.973,2.973,0,0,1-1.4.79l-2.2.55a2.011,2.011,0,0,0-1.37,1.2l-.33.81-1.87-.62a2.83,2.83,0,0,0-.87-.14,2.7,2.7,0,0,0-1.83.72l-.01-.01-6-6a2.414,2.414,0,0,1,0-3.42l4.58-4.58a2.414,2.414,0,0,1,3.42,0Z" fill="#ffeaa7"/>
        </g>
      </g>
      <g id="Grupo_960337" data-name="Grupo 960337">
        <path id="Trazado_727326" data-name="Trazado 727326" d="M60.657,43.078l-1.479-2.957a9.025,9.025,0,0,0-4.4-4.2l-2.928-1.3a6.971,6.971,0,0,1-3.81-4.25L56,22.414a3.4,3.4,0,0,0,.374-4.373L58,16.414a3.414,3.414,0,0,0,0-4.828L57.415,11a3.5,3.5,0,0,0-4.829,0l-1.63,1.63a3.509,3.509,0,0,0-4.37.37l-4,4A8.843,8.843,0,0,0,33,15.95V8a3,3,0,0,0-2-2.816V3a2,2,0,0,0-2-2H27a2,2,0,0,0-2,2V5.184A3,3,0,0,0,23,8v8.585L22.415,16a3.5,3.5,0,0,0-4.829,0L16,17.586a3.414,3.414,0,0,0,0,4.828l2.85,2.85a4.9,4.9,0,0,0-.126.6l-.46,3.221a3,3,0,0,1-1.306,2.072l-.23.153L11.415,26a3.5,3.5,0,0,0-4.829,0L2,30.586a3.414,3.414,0,0,0,0,4.828l5.369,5.368c-.008.013-.018.023-.026.036L5.712,43.536A5,5,0,0,0,5,46.108V47.6a3.007,3.007,0,0,1-.657,1.874L1.868,52.564A3.961,3.961,0,0,0,4.961,59H9.585l3,3a3.415,3.415,0,0,0,4.829,0l3-3H60a3,3,0,0,0,3-3V46a3,3,0,0,0-2.343-2.922ZM45.575,21.533a8.857,8.857,0,0,0-1.582-3.112L45,17.414,51.586,24l-4.168,4.168ZM54,12.414a1.447,1.447,0,0,1,2,0l.585.586a1.414,1.414,0,0,1,0,2L55,16.586,52.414,14Zm-6,2a1.447,1.447,0,0,1,2,0L54.585,19a1.414,1.414,0,0,1,0,2L53,22.586,46.414,16ZM31,13H25V11h6ZM29,3V5H27V3ZM26,7h4a1,1,0,0,1,1,1V9H25V8A1,1,0,0,1,26,7Zm-1,8h6v2l-4.947,2.639L25,18.585Zm-7.585,6a1.414,1.414,0,0,1,0-2L19,17.414a1.447,1.447,0,0,1,2,0l3.208,3.208-2.889,1.541a4.989,4.989,0,0,0-1.5,1.241ZM3,33a1.406,1.406,0,0,1,.414-1L8,27.414a1.447,1.447,0,0,1,2,0l8.6,8.6c-.038.035-.082.062-.119.1l-.6.6a2,2,0,0,1-.929.526l-2.2.551a3.006,3.006,0,0,0-2.026,1.738l-.986-.329a3.781,3.781,0,0,0-2.883.249L3.415,34A1.4,1.4,0,0,1,3,33ZM16,60.586a1.447,1.447,0,0,1-2,0L9.414,56a1.415,1.415,0,0,1,0-2L11,52.414,17.586,59Zm9-13L22.414,45,24,43.414a1.447,1.447,0,0,1,2,0l.585.586a1.414,1.414,0,0,1,0,2ZM24.585,50a1.414,1.414,0,0,1,0,2L23,53.586,16.414,47,18,45.414a1.447,1.447,0,0,1,2,0ZM15,48.414,21.586,55,19,57.586,12.414,51ZM22.414,57,26,53.414a3.4,3.4,0,0,0,.374-4.373L28,47.414a3.414,3.414,0,0,0,0-4.828L27.415,42a3.5,3.5,0,0,0-4.829,0l-1.63,1.63a3.509,3.509,0,0,0-4.37.37L8,52.586A3.39,3.39,0,0,0,7.66,57h-2.7A1.961,1.961,0,0,1,3.43,53.813L5.905,50.72A5.015,5.015,0,0,0,7,47.6V46.109a3.012,3.012,0,0,1,.427-1.544l1.63-2.717a1.783,1.783,0,0,1,2.049-.759l.865.289-.9,2.251,1.857.742,1.62-4.05a1.009,1.009,0,0,1,.687-.6l2.2-.551a3.985,3.985,0,0,0,1.857-1.051l.6-.6a1.822,1.822,0,0,1,2.257-.224l1.594,1.063a3.777,3.777,0,0,0,2.1.638H29V37H25.845a1.784,1.784,0,0,1-.993-.3l-1.594-1.063a3.809,3.809,0,0,0-2.753-.546L18.16,32.745a5,5,0,0,0,2.083-3.375l.46-3.221a3.013,3.013,0,0,1,1.559-2.223l11.462-6.113a6.921,6.921,0,0,1,9.925,4.254l2.378,8.563a8.966,8.966,0,0,0,5.017,5.816l2.928,1.3a7.016,7.016,0,0,1,3.418,3.267L58.382,43H43.708a6.961,6.961,0,0,0-4.222,1.426l-.2-.3L43,40.414V40a5.006,5.006,0,0,0-5-5h-.414l-5,5H31v2h3.93a1,1,0,0,1,.832.445l2.293,3.44a7.117,7.117,0,0,0-.607.984L37.382,47H35a2,2,0,0,0-2,2v4a2,2,0,0,0,2,2h2.382l.065.131A7.031,7.031,0,0,0,38.8,57ZM45,45h4V57H45Zm6,0h4V57H51ZM35,53V49h2v4Zm2.426-11.664a2.976,2.976,0,0,0-2.065-1.283l3.028-3.028a3.007,3.007,0,0,1,2.586,2.586l-2.82,2.819Zm1.81,12.9L39,53.764V48.237l.236-.473A4.966,4.966,0,0,1,43,45.05v11.9a4.966,4.966,0,0,1-3.764-2.714ZM61,56a1,1,0,0,1-1,1H57V45h3a1,1,0,0,1,1,1Z"/>
        <path id="Trazado_727327" data-name="Trazado 727327" d="M5.172,31h5.657v2H5.172Z" transform="translate(-20.284 15.029) rotate(-45)"/>
        <path id="Trazado_727328" data-name="Trazado 727328" d="M8.172,34h5.657v2H8.172Z" transform="translate(-21.527 18.029) rotate(-45)"/>
        <path id="Trazado_727329" data-name="Trazado 727329" d="M23,27h2v2H23Z"/>
        <path id="Trazado_727330" data-name="Trazado 727330" d="M27,23h2v2H27Z"/>
        <path id="Trazado_727331" data-name="Trazado 727331" d="M35,19h2v2H35Z"/>
        <path id="Trazado_727332" data-name="Trazado 727332" d="M33.368,30.264l.228.686A3,3,0,0,0,36.441,33h3.348a2.984,2.984,0,0,1,1.664.5l1.992,1.328,1.109-1.664L42.8,32l-1.54-6.929a2.644,2.644,0,0,0-4.45-1.3l-3.832,3.832-1.663-.554-.632,1.9,2.051.684a1.007,1.007,0,0,1,.633.632Zm4.858-5.076a.671.671,0,0,1,1.084.315l1.234,5.554A5.253,5.253,0,0,0,39.789,31H36.441a1,1,0,0,1-.949-.683l-.228-.686a2.981,2.981,0,0,0-.543-.94Z"/>
        <path id="Trazado_727333" data-name="Trazado 727333" d="M47,39h2v2H47Z"/>
        <path id="Trazado_727334" data-name="Trazado 727334" d="M31,44h2v2H31Z"/>
        <path id="Trazado_727335" data-name="Trazado 727335" d="M29,33h2v2H29Z"/>
      </g>
    </g>
  </g>
</svg>
