<svg xmlns="http://www.w3.org/2000/svg" width="83" height="83" viewBox="0 0 83 83">
  <g id="Grupo_960380" data-name="Grupo 960380" transform="translate(-4123 8081)">
    <rect id="Rectángulo_340662" data-name="Rectángulo 340662" width="83" height="83" transform="translate(4123 -8081)" fill="none"/>
    <g id="contenedor-de-basura" transform="translate(4093.066 -8069)">
      <g id="Grupo_960378" data-name="Grupo 960378" transform="translate(47.916 0.982)">
        <path id="Trazado_727435" data-name="Trazado 727435" d="M400.067,58.733H404a1.965,1.965,0,1,1,0,3.929h-3.929Z" transform="translate(-360.283 -52.839)" fill="#607d8b"/>
        <path id="Trazado_727436" data-name="Trazado 727436" d="M94.741,13.427v3.929a1.97,1.97,0,0,1-1.965,1.965h-.982L90.429,50.785c-.2,0-.6,13.723-.6,13.723H64.122A3.926,3.926,0,0,1,60.2,60.745L58.4,19.321H56.431a1.965,1.965,0,1,1,0-3.929h.982a3.924,3.924,0,0,1,3.929-3.929H69.2V9.5a1.971,1.971,0,0,1,1.965-1.965h7.858A1.971,1.971,0,0,1,80.989,9.5v1.965H92.777A1.97,1.97,0,0,1,94.741,13.427Z" transform="translate(-54.466 -7.533)" fill="#2e7d32"/>
        <path id="Trazado_727437" data-name="Trazado 727437" d="M91.794,13.427v3.929a1.971,1.971,0,0,1-1.965,1.965h-.982L87.482,50.785c-.2,0-.6,13.723-.6,13.723H64.122A3.926,3.926,0,0,1,60.2,60.745L58.4,19.321H56.431a1.965,1.965,0,1,1,0-3.929h.982a3.924,3.924,0,0,1,3.929-3.929H69.2V9.5a1.971,1.971,0,0,1,1.965-1.965h4.912A1.971,1.971,0,0,1,78.042,9.5v1.965H89.83A1.97,1.97,0,0,1,91.794,13.427Z" transform="translate(-54.466 -7.533)" fill="#4caf50"/>
        <path id="Trazado_727438" data-name="Trazado 727438" d="M315.763,389.877a6.871,6.871,0,0,1-6.876,6.876,7.2,7.2,0,0,1-1.473-.157,6.879,6.879,0,0,1,1.473-13.6,5.988,5.988,0,0,1,.6.029A6.86,6.86,0,0,1,315.763,389.877Z" transform="translate(-273.523 -339.779)" fill="#37474f"/>
        <path id="Trazado_727439" data-name="Trazado 727439" d="M312.739,391.159a5.531,5.531,0,1,1-5.422-6.709A6.879,6.879,0,0,1,312.739,391.159Z" transform="translate(-273.447 -341.061)" fill="#607d8b"/>
        <circle id="Elipse_5799" data-name="Elipse 5799" cx="2.947" cy="2.947" r="2.947" transform="translate(32.417 47.151)" fill="#f4f4f4"/>
        <g id="Grupo_960376" data-name="Grupo 960376" transform="translate(0)">
          <path id="Trazado_727440" data-name="Trazado 727440" d="M94.741,75.8v1.965a1.971,1.971,0,0,1-1.965,1.965H56.431a1.965,1.965,0,1,1,0-3.929Z" transform="translate(-54.466 -67.941)" fill="#558b30"/>
          <path id="Trazado_727441" data-name="Trazado 727441" d="M194.255,9.5v1.965H182.467V9.5a1.971,1.971,0,0,1,1.965-1.965h7.858A1.971,1.971,0,0,1,194.255,9.5Z" transform="translate(-167.732 -7.533)" fill="#558b30"/>
        </g>
        <g id="Grupo_960377" data-name="Grupo 960377" transform="translate(0)">
          <path id="Trazado_727442" data-name="Trazado 727442" d="M91.794,75.8v1.965a1.971,1.971,0,0,1-1.965,1.965h-33.4a1.965,1.965,0,1,1,0-3.929Z" transform="translate(-54.466 -67.941)" fill="#8bc34a"/>
          <path id="Trazado_727443" data-name="Trazado 727443" d="M191.308,9.5v1.965h-8.841V9.5a1.971,1.971,0,0,1,1.965-1.965h4.912A1.971,1.971,0,0,1,191.308,9.5Z" transform="translate(-167.732 -7.533)" fill="#8bc34a"/>
        </g>
        <path id="Trazado_727444" data-name="Trazado 727444" d="M184.431,152.6h7.859a1.965,1.965,0,0,1,1.965,1.965h0a1.965,1.965,0,0,1-1.965,1.965h-7.859a1.965,1.965,0,0,1-1.965-1.965h0A1.965,1.965,0,0,1,184.431,152.6Z" transform="translate(-167.731 -135.901)" fill="#009688"/>
      </g>
      <g id="Grupo_960379" data-name="Grupo 960379" transform="translate(46.934)">
        <path id="Trazado_727445" data-name="Trazado 727445" d="M332.463,409.6a3.929,3.929,0,1,0,3.929,3.929A3.929,3.929,0,0,0,332.463,409.6Zm0,5.894a1.965,1.965,0,1,1,1.965-1.965A1.965,1.965,0,0,1,332.463,415.494Z" transform="translate(-296.117 -362.449)"/>
        <path id="Trazado_727446" data-name="Trazado 727446" d="M177.88,150.961h7.859a2.947,2.947,0,0,0,0-5.894H177.88a2.947,2.947,0,0,0,0,5.894Zm0-3.929h7.859a.982.982,0,0,1,0,1.965H177.88a.982.982,0,0,1,0-1.965Z" transform="translate(-160.198 -128.367)"/>
        <path id="Trazado_727447" data-name="Trazado 727447" d="M92.121,5.894H88.993a2.942,2.942,0,0,0-2.766-1.965H75.421V2.947A2.95,2.95,0,0,0,72.474,0H64.616a2.95,2.95,0,0,0-2.947,2.947v.982H54.792A4.92,4.92,0,0,0,49.98,7.858h-.1a2.947,2.947,0,0,0,0,5.894h1.024l1.766,40.483a4.9,4.9,0,0,0,4.9,4.7H83.28A7.858,7.858,0,0,0,84.9,43.392l1.286-29.639h.042a2.942,2.942,0,0,0,2.766-1.965h3.128a2.947,2.947,0,1,0,0-5.894ZM63.633,2.947a.983.983,0,0,1,.982-.982h7.859a.983.983,0,0,1,.982.982v.982H63.633ZM54.792,5.894H86.227a.983.983,0,0,1,.982.982v.982h-35.2A2.953,2.953,0,0,1,54.792,5.894ZM89.174,51.081a5.894,5.894,0,1,1-5.894-5.894c.187,0,.372.011.555.028h.006A5.9,5.9,0,0,1,89.174,51.081Zm-6.234-7.841A7.841,7.841,0,0,0,78.1,56.975H57.573a2.936,2.936,0,0,1-2.938-2.823l-1.762-40.4H84.219Zm3.287-31.452H49.881a.982.982,0,0,1,0-1.965H87.209v.982A.983.983,0,0,1,86.227,11.788Zm5.894-1.965H89.174V7.859h2.947a.982.982,0,1,1,0,1.965Z" transform="translate(-46.934)"/>
      </g>
    </g>
  </g>
</svg>
