<svg xmlns="http://www.w3.org/2000/svg" width="83" height="83" viewBox="0 0 83 83">
  <g id="Grupo_960348" data-name="Grupo 960348" transform="translate(-5136 9085)">
    <rect id="Rectángulo_340652" data-name="Rectángulo 340652" width="83" height="83" transform="translate(5136 -9085)" fill="none"/>
    <g id="basura" transform="translate(5093.003 -9075.001)">
      <g id="Grupo_960346" data-name="Grupo 960346" transform="translate(60.917 0.92)">
        <path id="Trazado_727351" data-name="Trazado 727351" d="M153.357,478.176H122.223l-1.087-.2a.628.628,0,0,1-.628-.628l.055-2.851h32.791l.633,1.962v1.089A.628.628,0,0,1,153.357,478.176Z" transform="translate(-114.006 -417.226)" fill="#607882"/>
        <path id="Trazado_727352" data-name="Trazado 727352" d="M152.222,465.827v1.962H120.95a.491.491,0,0,0-.491.491v1.226h-1.334a.628.628,0,0,1-.628-.628v-3.051l16.986-1.212Z" transform="translate(-112.243 -408.556)" fill="#546b75"/>
        <path id="Trazado_727353" data-name="Trazado 727353" d="M129.551,225.707l-34.008-.1a1.226,1.226,0,0,1-1.223-1.135L92.227,193.2l20.656-1.859,20.706,1.859-.206,2.759-.549.92.412.92-.243,3.25-1.918,9.778.362,11.07-.128,1.717-.545.961A1.226,1.226,0,0,1,129.551,225.707Z" transform="translate(-89.194 -168.792)" fill="#738c96"/>
        <path id="Trazado_727354" data-name="Trazado 727354" d="M122.781,228.39l-.1,1.317a1.227,1.227,0,0,1-1.223,1.136H86.087a1.227,1.227,0,0,1-1.223-1.136l-.226-3.034.661-10.882-2.217-9.966-.243-3.25.757-.874-.894-.965-.206-2.759,1.131-1.191,1.328,1.191,2.228,29.846a.613.613,0,0,0,.611.568Z" transform="translate(-80.657 -173.571)" fill="#607882"/>
        <g id="Grupo_960344" data-name="Grupo 960344" transform="translate(2.426 32.253)">
          <path id="Trazado_727355" data-name="Trazado 727355" d="M167.575,271.97v17.9a1.472,1.472,0,0,1-1.472,1.472h-2.155a1.472,1.472,0,0,1-1.472-1.472v-17.9a1.472,1.472,0,0,1,1.472-1.472H166.1A1.472,1.472,0,0,1,167.575,271.97Z" transform="translate(-153.255 -270.498)" fill="#607882"/>
          <path id="Trazado_727356" data-name="Trazado 727356" d="M240.314,271.97v17.9a1.471,1.471,0,0,1-1.472,1.472h-2.153a1.471,1.471,0,0,1-1.472-1.472v-17.9a1.471,1.471,0,0,1,1.472-1.472h2.153A1.471,1.471,0,0,1,240.314,271.97Z" transform="translate(-217.074 -270.498)" fill="#607882"/>
          <path id="Trazado_727357" data-name="Trazado 727357" d="M313.045,271.97v17.9a1.472,1.472,0,0,1-1.472,1.472h-2.155a1.472,1.472,0,0,1-1.472-1.472v-17.9a1.472,1.472,0,0,1,1.472-1.472h2.155A1.472,1.472,0,0,1,313.045,271.97Z" transform="translate(-280.885 -270.498)" fill="#607882"/>
          <path id="Trazado_727358" data-name="Trazado 727358" d="M386.087,270.5l-1.555,20.848h-2.373a1.471,1.471,0,0,1-1.472-1.472v-17.9a1.471,1.471,0,0,1,1.472-1.472Z" transform="translate(-344.704 -270.498)" fill="#607882"/>
          <path id="Trazado_727359" data-name="Trazado 727359" d="M92.677,271.97v17.9a1.471,1.471,0,0,1-1.472,1.472H88.98l.513-10.882L87.277,270.5h3.928A1.471,1.471,0,0,1,92.677,271.97Z" transform="translate(-87.277 -270.498)" fill="#607882"/>
        </g>
        <g id="Grupo_960345" data-name="Grupo 960345" transform="translate(2.425 32.253)">
          <path id="Trazado_727360" data-name="Trazado 727360" d="M91.287,291.342c-.028,0-.058,0-.086,0H88.829L87.273,270.5h2.459Z" transform="translate(-87.273 -270.498)" fill="#546b75"/>
        </g>
        <path id="Trazado_727361" data-name="Trazado 727361" d="M126.764,66.5l-4.7,1.379s-2.447,1.176-3.668,1.887a16.293,16.293,0,0,0-6.763,7.772h35.5l-.6-2.208a17.688,17.688,0,0,0-10.1-7.546L131.914,66.5h-5.151Z" transform="translate(-106.222 -59.261)" fill="#edf4f9"/>
        <path id="Trazado_727362" data-name="Trazado 727362" d="M142.788,87.3l-17.312,1.59L106,87.3a17.689,17.689,0,0,1,11.123-9.659l.047-.013a17.679,17.679,0,0,0-4.873,4.78,1.717,1.717,0,0,0,1.419,2.685h27.875a17.656,17.656,0,0,1,.93,1.66Z" transform="translate(-101.276 -69.027)" fill="#d5ebf7"/>
        <path id="Trazado_727363" data-name="Trazado 727363" d="M225.409,14.664c-1.629.776-4.65.057-4.65.057l-2.333-6.038a.735.735,0,0,1,1.031-.9,4.928,4.928,0,0,0,.936.288,8.15,8.15,0,0,0,6.358-.491.735.735,0,0,1,1.031.9l-1.595,4.507Z" transform="translate(-199.879 -7.497)" fill="#edf4f9"/>
        <path id="Trazado_727364" data-name="Trazado 727364" d="M220.563,12.98l-1.736-4.907a8.128,8.128,0,0,1-1.155-.492.735.735,0,0,0-1.031.9l1.595,4.507h0l.618,1.746a5.985,5.985,0,0,0,2.534.581h0A5.985,5.985,0,0,0,224,14.732l.618-1.746a10.555,10.555,0,0,1-3.384.485.733.733,0,0,1-.675-.491Z" transform="translate(-198.312 -7.496)" fill="#d5ebf7"/>
        <path id="Trazado_727365" data-name="Trazado 727365" d="M115.288,162.18l-42.99-.125a1.226,1.226,0,0,1-1.226-1.226l-.031-2.865a1.226,1.226,0,0,1,1.226-1.226l.792-.239h42.555a1.226,1.226,0,0,1,1.226,1.226v2.453l-.325.776A1.226,1.226,0,0,1,115.288,162.18Z" transform="translate(-70.605 -138.225)" fill="#738c96"/>
        <path id="Trazado_727366" data-name="Trazado 727366" d="M113.731,160.177V161.4a1.227,1.227,0,0,1-1.226,1.226H68.723A1.227,1.227,0,0,1,67.5,161.4v-3.679a1.227,1.227,0,0,1,1.226-1.226H69.95v2.943a.736.736,0,0,0,.736.736Z" transform="translate(-67.497 -138.225)" fill="#607882"/>
      </g>
      <g id="Grupo_960347" data-name="Grupo 960347" transform="translate(59.997 0.001)">
        <path id="Trazado_727367" data-name="Trazado 727367" d="M108.07,24.1V20.419a2.149,2.149,0,0,0-2.146-2.146H103l-.017-.034c-2.828-5.962-8.131-8.53-11.608-9.685l-3.123-.888A3.126,3.126,0,0,1,90.7,6.5a3.5,3.5,0,0,1,1.1.258,3.923,3.923,0,0,0,2.608.194,3.354,3.354,0,0,0,2.155-1.7,3.462,3.462,0,0,0,.019-2.868A.92.92,0,1,0,94.9,3.13a1.628,1.628,0,0,1,.019,1.3,1.628,1.628,0,0,1-1.034.757,2.176,2.176,0,0,1-1.481-.169,5.135,5.135,0,0,0-1.676-.36,4.481,4.481,0,0,0-2.063.432l1.02-2.883A1.654,1.654,0,0,0,87.366.189a7.237,7.237,0,0,1-6.666,0,1.654,1.654,0,0,0-2.322,2.02l1.869,5.283a3.17,3.17,0,0,1-1.286-.1A4.259,4.259,0,0,1,77.24,6.223a4.224,4.224,0,0,0-2.56-1.436,4.125,4.125,0,0,0-2.838.907.92.92,0,1,0,1.081,1.488A2.38,2.38,0,0,1,74.5,6.618c.521.051.879.372,1.468.935a9.181,9.181,0,0,0,1.094.934l-.56.164a18.591,18.591,0,0,0-11.445,9.621H62.143A2.149,2.149,0,0,0,60,20.418V24.1a2.149,2.149,0,0,0,1.9,2.132l2.306,30.895a2.154,2.154,0,0,0,2.044,1.982v2.136A1.55,1.55,0,0,0,67.8,62.789h32.469a1.55,1.55,0,0,0,1.548-1.548V59.105a2.154,2.154,0,0,0,2.044-1.982l2.306-30.895A2.148,2.148,0,0,0,108.07,24.1ZM63.885,28.083l-.137-1.84H104.32l-.137,1.84ZM87.8,2.021l-1.929,5.45a5.042,5.042,0,0,1-3.684,0l-1.929-5.45A9.082,9.082,0,0,0,87.8,2.021ZM62.143,24.4a.307.307,0,0,1-.307-.307V20.419a.307.307,0,0,1,.307-.307H86.118a.92.92,0,1,0,0-1.84H67.136a16.752,16.752,0,0,1,9.884-7.856c.135-.038,4.22-1.243,4.377-1.283a6.866,6.866,0,0,0,5.279,0l4.2,1.193a16.787,16.787,0,0,1,10.052,7.949H90.411a.92.92,0,1,0,0,1.84h15.513a.307.307,0,0,1,.307.307V24.1a.307.307,0,0,1-.307.307H62.143ZM101.72,57.271H84.6a.92.92,0,1,0,0,1.84H99.976v1.84H68.091V59.11H80.309a.92.92,0,1,0,0-1.84H66.347a.308.308,0,0,1-.306-.284l-.153-2.046h1.382a2.394,2.394,0,0,0,2.391-2.391V46.586a.92.92,0,1,0-1.84,0v5.963a.553.553,0,0,1-.552.552H65.752L64.333,34.092h2.938a.553.553,0,0,1,.552.552v7.649a.92.92,0,1,0,1.84,0V34.644a2.394,2.394,0,0,0-2.391-2.391H64.2l-.174-2.33h40.023l-.174,2.33H100.8A2.394,2.394,0,0,0,98.4,34.644v17.9a2.394,2.394,0,0,0,2.391,2.391h1.382l-.153,2.046a.308.308,0,0,1-.306.284Zm.6-4.17H100.8a.553.553,0,0,1-.552-.552v-17.9a.553.553,0,0,1,.552-.552h2.938Z" transform="translate(-59.997 -0.001)"/>
        <path id="Trazado_727368" data-name="Trazado 727368" d="M178.929,99.822a5.089,5.089,0,0,0-6.763,2.462.92.92,0,1,0,1.667.777,3.253,3.253,0,0,1,4.319-1.572.92.92,0,1,0,.777-1.667Z" transform="translate(-158.334 -87.16)"/>
        <path id="Trazado_727369" data-name="Trazado 727369" d="M257.814,93.558a.967.967,0,0,0,.917-1,4.406,4.406,0,0,0-4.766-4,.92.92,0,1,0,.16,1.833,2.563,2.563,0,0,1,2.774,2.327A.92.92,0,0,0,257.814,93.558Z" transform="translate(-229.441 -77.683)"/>
        <path id="Trazado_727370" data-name="Trazado 727370" d="M232.261,262.994h-2.154a2.394,2.394,0,0,0-2.391,2.391v17.9a2.394,2.394,0,0,0,2.391,2.391h2.154a2.394,2.394,0,0,0,2.391-2.391v-17.9A2.394,2.394,0,0,0,232.261,262.994Zm.552,20.3a.553.553,0,0,1-.552.552h-2.154a.553.553,0,0,1-.552-.552v-17.9a.553.553,0,0,1,.552-.552h2.154a.553.553,0,0,1,.552.552Z" transform="translate(-207.148 -230.742)"/>
        <path id="Trazado_727371" data-name="Trazado 727371" d="M159.527,262.994h-2.154a2.394,2.394,0,0,0-2.391,2.391v17.9a2.394,2.394,0,0,0,2.391,2.391h2.154a2.394,2.394,0,0,0,2.391-2.391v-17.9A2.394,2.394,0,0,0,159.527,262.994Zm.552,20.3a.553.553,0,0,1-.552.552h-2.154a.553.553,0,0,1-.552-.552v-17.9a.553.553,0,0,1,.552-.552h2.154a.553.553,0,0,1,.552.552Z" transform="translate(-143.333 -230.742)"/>
        <path id="Trazado_727372" data-name="Trazado 727372" d="M305,262.994h-2.154a2.394,2.394,0,0,0-2.391,2.391v17.9a2.394,2.394,0,0,0,2.391,2.391H305a2.394,2.394,0,0,0,2.391-2.391v-10a.92.92,0,0,0-1.84,0v10a.553.553,0,0,1-.552.552h-2.154a.553.553,0,0,1-.552-.552v-17.9a.553.553,0,0,1,.552-.552H305a.553.553,0,0,1,.552.552V269a.92.92,0,0,0,1.84,0v-3.61A2.394,2.394,0,0,0,305,262.994Z" transform="translate(-270.962 -230.742)"/>
      </g>
    </g>
  </g>
</svg>
