<svg xmlns="http://www.w3.org/2000/svg" width="83" height="83" viewBox="0 0 83 83">
  <g id="Grupo_960369" data-name="Grupo 960369" transform="translate(-4499 8674)">
    <g id="Grupo_960368" data-name="Grupo 960368" transform="translate(4062 -11696)">
      <rect id="Rectángulo_340647" data-name="Rectángulo 340647" width="83" height="83" transform="translate(437 3022)" fill="none"/>
      <g id="Artboard_02" data-name="Artboard 02" transform="translate(454 3031.006)">
        <path id="Trazado_727252" data-name="Trazado 727252" d="M39.317,17.368l2.392-4.784A2.887,2.887,0,0,0,40.417,8.71l-1.675-.838-4.09-.589-2.119,9.489,4.134,2.25Z" fill="#434446"/>
        <path id="Trazado_727253" data-name="Trazado 727253" d="M26.59,15.158l-1.511-6.8a1.553,1.553,0,0,1,.224-1.2l3.142-4.713a1,1,0,0,1,1.387-.278L31.517,3.29a1,1,0,0,0,1,.063L35.445,2.1a1,1,0,0,1,1.047.094L38.6,3.78a2.247,2.247,0,0,1,.726,2.663l-3.27,7.98Z" fill="#595a5d"/>
        <path id="Trazado_727254" data-name="Trazado 727254" d="M38.6,3.78,36.494,2.2a1,1,0,0,0-1.047-.094L32.519,3.357a1,1,0,0,1-1-.063L29.832,2.171a1,1,0,0,0-1.387.278L27.363,4.072c.682,3.16,2.75,8.081,9.264,8.959l2.7-6.588A2.247,2.247,0,0,0,38.6,3.78Z" fill="#68696b"/>
        <path id="Trazado_727255" data-name="Trazado 727255" d="M40,21.4V20.2a6.193,6.193,0,0,0-6.193-6.193H30.193A6.193,6.193,0,0,0,24,20.194v1.2Z" fill="#77787c"/>
        <path id="Trazado_727256" data-name="Trazado 727256" d="M32,14H30c0-.18.026-4.44,2.293-6.707l1.414,1.415C32.029,10.387,32,13.967,32,14Z" fill="#434446"/>
        <path id="Trazado_727257" data-name="Trazado 727257" d="M36.107,14.444a6.2,6.2,0,0,0-2.3-.443H30.193a6.167,6.167,0,0,0-1.787.293c.633,2.464,3.1,5.71,11.594,5.948v-.048a6.194,6.194,0,0,0-3.892-5.75Z" fill="#68696b"/>
        <path id="Trazado_727258" data-name="Trazado 727258" d="M45.49,62a6.278,6.278,0,0,0,4.484-1.894A14.22,14.22,0,0,0,52.64,44.123L43.991,25.8A9.945,9.945,0,0,0,35,20H28.984a9.921,9.921,0,0,0-8.975,5.8L10.994,44.9A10.421,10.421,0,0,0,10,49.339v2.42A10.344,10.344,0,0,0,12.942,59a9.943,9.943,0,0,0,7.1,3Z" fill="#77787c"/>
        <path id="Trazado_727259" data-name="Trazado 727259" d="M43.991,25.8A9.945,9.945,0,0,0,35,20H28.984a9.921,9.921,0,0,0-8.975,5.8l-2.518,5.333C21.056,41.984,30.183,53.97,52.946,55.576A14.255,14.255,0,0,0,52.64,44.12Z" fill="#88898d"/>
        <g id="Grupo_960316" data-name="Grupo 960316">
          <path id="Trazado_727260" data-name="Trazado 727260" d="M41,32a4.214,4.214,0,0,1-3.789-2.341L34.1,23.449l1.79-.9L39,28.765A2.223,2.223,0,0,0,41,30Z" fill="#77787c"/>
          <path id="Trazado_727261" data-name="Trazado 727261" d="M30.707,34.709l-1.414-1.415,1.052-1.052A2.218,2.218,0,0,0,31,30.661V23h2v7.66a4.2,4.2,0,0,1-1.241,3Z" fill="#77787c"/>
          <path id="Trazado_727262" data-name="Trazado 727262" d="M24.707,33.709l-1.414-1.415A5.789,5.789,0,0,0,25,28.173V28h2v.172a7.777,7.777,0,0,1-2.293,5.537Z" fill="#77787c"/>
          <path id="Trazado_727263" data-name="Trazado 727263" d="M35,21V20H30.379a8.567,8.567,0,0,0-5.369,6.86l1.98.283C27.853,21.1,34.71,21,35,21Z" fill="#77787c"/>
        </g>
        <path id="Trazado_727264" data-name="Trazado 727264" d="M40.417,8.71l-.443-.222L38.647,11.9a3.254,3.254,0,0,0,.721,3.471l.629.635,1.712-3.422A2.887,2.887,0,0,0,40.417,8.71Z" fill="#595a5d"/>
        <path id="Trazado_727265" data-name="Trazado 727265" d="M42.626,58.979l-.409-1.958a7.273,7.273,0,0,0,4.4-11.432l1.616-1.178a9.825,9.825,0,0,1,1.12,8.964,9.683,9.683,0,0,1-6.727,5.6Z" fill="#77787c"/>
        <path id="Trazado_727266" data-name="Trazado 727266" d="M40.316,38.949a21.366,21.366,0,0,0,7.721-4.579l-.891-1.887L46.9,32.7a19.37,19.37,0,0,1-7.216,4.349Z" fill="#77787c"/>
        <path id="Trazado_727267" data-name="Trazado 727267" d="M20.043,63H45.49a7.229,7.229,0,0,0,5.18-2.176l.02-.02A15.052,15.052,0,0,0,55,50.2a15.32,15.32,0,0,0-1.456-6.5L44.9,25.373A11.2,11.2,0,0,0,41,20.82v-.628a7.18,7.18,0,0,0-.579-2.8L42.6,13.03a3.892,3.892,0,0,0-1.739-5.216l-.845-.422.231-.565A3.245,3.245,0,0,0,39.2,2.979L37.094,1.4a1.959,1.959,0,0,0-2.04-.213L32.072,2.461,30.387,1.338a2,2,0,0,0-2.774.555L24.471,6.605A2.561,2.561,0,0,0,24.1,8.574l1.376,6.2A7.148,7.148,0,0,0,23,20.192v.625a11.214,11.214,0,0,0-3.9,4.556L10.09,44.467A11.484,11.484,0,0,0,9,49.337v2.42A11.272,11.272,0,0,0,12.228,59.7,10.871,10.871,0,0,0,20.043,63ZM39.97,9.6a1.886,1.886,0,0,1,.844,2.532L39.178,15.4a7.153,7.153,0,0,0-1.841-1.473l1.921-4.688ZM26.056,8.14a.551.551,0,0,1,.079-.425L29.277,3l1.685,1.123a1.983,1.983,0,0,0,1.95.15L35.9,3,38,4.579a1.247,1.247,0,0,1,.4,1.483L35.475,13.2a7.169,7.169,0,0,0-1.667-.2H32.069a7.553,7.553,0,0,1,1.638-4.293L32.293,7.293c-1.629,1.629-2.1,4.279-2.236,5.713a7.169,7.169,0,0,0-2.536.508c-.086.034-.161.083-.245.12Zm2.208,7.232A5.159,5.159,0,0,1,30.192,15h3.616a5.175,5.175,0,0,1,5.159,4.756A10.789,10.789,0,0,0,35,19H28.983a10.746,10.746,0,0,0-3.95.751,5.153,5.153,0,0,1,3.231-4.379ZM11,49.337a9.478,9.478,0,0,1,.9-4.016l2.072-4.388A16.072,16.072,0,0,0,23,44h3V42H23a14.261,14.261,0,0,1-8.163-2.9l6.077-12.871a8.91,8.91,0,0,1,7.608-5.192,8.341,8.341,0,0,0-3.512,5.824l1.98.284C27.852,21.1,34.7,21,35,21a8.917,8.917,0,0,1,8.086,5.226l3.284,6.955a19.4,19.4,0,0,1-6.686,3.87l.632,1.9a21.4,21.4,0,0,0,6.941-3.89l4.479,9.487A13.321,13.321,0,0,1,53,50.2a13.066,13.066,0,0,1-3.721,9.19l-.019.018A5.245,5.245,0,0,1,45.49,61H20.043a8.892,8.892,0,0,1-6.388-2.7A9.287,9.287,0,0,1,11,51.757Z"/>
        <path id="Trazado_727268" data-name="Trazado 727268" d="M49.349,53.375a9.825,9.825,0,0,0-1.12-8.964l-1.616,1.178a7.273,7.273,0,0,1-4.4,11.432l.409,1.958a9.683,9.683,0,0,0,6.727-5.6Z"/>
        <path id="Trazado_727269" data-name="Trazado 727269" d="M41,32V30a2.224,2.224,0,0,1-2-1.236l-3.1-6.211-1.79.894,3.106,6.211A4.212,4.212,0,0,0,41,32Z"/>
        <path id="Trazado_727270" data-name="Trazado 727270" d="M31.759,33.655a4.2,4.2,0,0,0,1.241-3V23H31v7.66a2.22,2.22,0,0,1-.655,1.581l-1.052,1.052,1.414,1.414Z"/>
        <path id="Trazado_727271" data-name="Trazado 727271" d="M27,28H25v.171a5.789,5.789,0,0,1-1.707,4.122l1.414,1.414A7.774,7.774,0,0,0,27,28.171Z"/>
      </g>
    </g>
    <line id="Línea_186" data-name="Línea 186" x1="16" transform="translate(4509.5 -8603.5)" fill="none" stroke="#000" stroke-linecap="round" stroke-width="2"/>
    <line id="Línea_187" data-name="Línea 187" x1="16" transform="translate(4506 -8606.5)" fill="none" stroke="#000" stroke-linecap="round" stroke-width="2"/>
    <line id="Línea_188" data-name="Línea 188" x1="16" transform="translate(4508 -8609.5)" fill="none" stroke="#000" stroke-linecap="round" stroke-width="2"/>
  </g>
</svg>
