<svg xmlns="http://www.w3.org/2000/svg" width="83" height="83" viewBox="0 0 83 83">
  <g id="Grupo_960373" data-name="Grupo 960373" transform="translate(-3178 8099)">
    <rect id="Rectángulo_340659" data-name="Rectángulo 340659" width="83" height="83" transform="translate(3178 -8099)" fill="none"/>
    <g id="reciclaje" transform="translate(3172 -8120)">
      <path id="Trazado_727411" data-name="Trazado 727411" d="M24,280H43.16v4.258H24Z" transform="translate(-6.936 -215.003)" fill="#2d85cc"/>
      <path id="Trazado_727412" data-name="Trazado 727412" d="M184,280h19.16v4.258H184Z" transform="translate(-145.647 -215.003)" fill="#8f9e46"/>
      <path id="Trazado_727413" data-name="Trazado 727413" d="M344,280h19.16v4.258H344Z" transform="translate(-284.358 -215.003)" fill="#f7b030"/>
      <path id="Trazado_727414" data-name="Trazado 727414" d="M42.1,184H25.064L24,196.773H43.16Z" transform="translate(-6.936 -131.776)" fill="#3397e8"/>
      <path id="Trazado_727415" data-name="Trazado 727415" d="M33.064,335.418h14.9L49.031,312H32Z" transform="translate(-13.871 -242.745)" fill="#3397e8"/>
      <path id="Trazado_727416" data-name="Trazado 727416" d="M193.064,335.418h14.9L209.031,312H192Z" transform="translate(-152.582 -242.745)" fill="#b1bd70"/>
      <path id="Trazado_727417" data-name="Trazado 727417" d="M353.064,335.418h14.9L369.031,312H352Z" transform="translate(-291.294 -242.745)" fill="#ffb632"/>
      <path id="Trazado_727418" data-name="Trazado 727418" d="M65.58,216H57.064L56,224.515H66.644Z" transform="translate(-34.678 -159.518)" fill="#2978b8"/>
      <path id="Trazado_727419" data-name="Trazado 727419" d="M202.1,184H185.064L184,196.773h19.16Z" transform="translate(-145.647 -131.776)" fill="#b1bd70"/>
      <path id="Trazado_727420" data-name="Trazado 727420" d="M225.58,216h-8.515L216,224.515h10.644Z" transform="translate(-173.389 -159.518)" fill="#828c52"/>
      <path id="Trazado_727421" data-name="Trazado 727421" d="M362.1,184H345.064L344,196.773h19.16Z" transform="translate(-284.358 -131.776)" fill="#ffb632"/>
      <path id="Trazado_727422" data-name="Trazado 727422" d="M385.58,216h-8.515L376,224.515h10.644Z" transform="translate(-312.1 -159.518)" fill="#e09f2c"/>
      <g id="Grupo_960372" data-name="Grupo 960372" transform="translate(23.782 78.174)">
        <circle id="Elipse_5796" data-name="Elipse 5796" cx="3.026" cy="3.026" r="3.026" transform="translate(42.366 0)" fill="#e9eef2"/>
        <ellipse id="Elipse_5797" data-name="Elipse 5797" cx="3.458" cy="3.026" rx="3.458" ry="3.026" transform="translate(20.751 0)" fill="#e9eef2"/>
        <circle id="Elipse_5798" data-name="Elipse 5798" cx="3.026" cy="3.026" r="3.026" transform="translate(0 0)" fill="#e9eef2"/>
      </g>
      <path id="Trazado_727423" data-name="Trazado 727423" d="M400,40h4.258v4.258H400Z" transform="translate(-332.907 -6.936)" fill="#2978b8"/>
      <path id="Trazado_727424" data-name="Trazado 727424" d="M389.435,86.426l-1.177-.588-1.177.588a2.129,2.129,0,0,1-3.081-1.9V74.129A2.129,2.129,0,0,1,386.129,72h4.258a2.129,2.129,0,0,1,2.129,2.129V84.522a2.129,2.129,0,0,1-3.081,1.9Z" transform="translate(-319.036 -34.678)" fill="#dadcde"/>
      <path id="Trazado_727425" data-name="Trazado 727425" d="M384,104h8.515v5.322H384Z" transform="translate(-319.036 -62.42)" fill="#2978b8"/>
      <path id="Trazado_727426" data-name="Trazado 727426" d="M4.258,0A4.258,4.258,0,0,1,8.515,4.258H0A4.258,4.258,0,0,1,4.258,0Z" transform="translate(52.191 52.224) rotate(180)" fill="#eb423f"/>
      <path id="Trazado_727427" data-name="Trazado 727427" d="M228.258,88a4.258,4.258,0,0,1,4.258,4.258H224A4.258,4.258,0,0,1,228.258,88Z" transform="translate(-180.325 -48.549)" fill="#eb423f"/>
      <path id="Trazado_727428" data-name="Trazado 727428" d="M232,124.258l1.064-2.129V120h4.258v2.129l1.064,2.129Z" transform="translate(-187.26 -76.291)" fill="#dadcde"/>
      <path id="Trazado_727429" data-name="Trazado 727429" d="M48,104H60.773v10.644H48Z" transform="translate(-27.742 -62.42)" fill="#e09f2c"/>
      <path id="Trazado_727430" data-name="Trazado 727430" d="M80,104h4.258v4.258H80Z" transform="translate(-55.484 -62.42)" fill="#dadcde"/>
      <path id="Trazado_727431" data-name="Trazado 727431" d="M79.862,64.909h0L78.8,52.136a1.064,1.064,0,0,0-1.061-.976H74.262a3.2,3.2,0,0,0,.282-1.316V39.451a3.2,3.2,0,0,0-2.129-3.01V33.064A1.064,1.064,0,0,0,71.351,32H67.093a1.064,1.064,0,0,0-1.064,1.064v3.376a3.2,3.2,0,0,0-2.129,3.01V49.844a3.2,3.2,0,0,0,.282,1.316H60.706a1.064,1.064,0,0,0-1.061.976L58.581,64.909h0c0,.029,0,.059,0,.088,0-.03,0-.059,0-.088h0L57.509,52.136a1.064,1.064,0,0,0-1.061-.976H52.188a5.294,5.294,0,0,0,1.067-3.193A1.064,1.064,0,0,0,52.191,46.9h-.407l-.658-1.316v-.813h1.064a1.064,1.064,0,0,0,1.064-1.064A5.331,5.331,0,0,0,49,38.494V37.322a1.064,1.064,0,1,0-2.129,0v1.172a5.331,5.331,0,0,0-4.258,5.215,1.064,1.064,0,0,0,1.064,1.064H44.74v.813L44.082,46.9h-.407a1.064,1.064,0,0,0-1.064,1.064,5.294,5.294,0,0,0,1.067,3.193H39.418a1.064,1.064,0,0,0-1.061.976L37.292,64.909h0c0,.029,0,.059,0,.088,0-.03,0-.059,0-.088h0L36.221,52.136a1.064,1.064,0,0,0-1.061-.976H34.1V41.58a1.058,1.058,0,0,0-.179-.59l0,0,0,0L29.659,34.6a1.064,1.064,0,1,0-1.771,1.181l3.154,4.732h-7.75l2.953-2.362a1.065,1.065,0,1,0-1.331-1.662l-5.322,4.258a1.062,1.062,0,0,0-.4.831v9.58H18.129a1.064,1.064,0,0,0-1.061.976L16,64.909h0c0,.029,0,.059,0,.088v4.258a1.064,1.064,0,0,0,1.064,1.064h.047l1.018,22.4a1.064,1.064,0,0,0,1.063,1.016H34.1a1.064,1.064,0,0,0,1.063-1.016l1.018-22.4h.047a1.064,1.064,0,0,0,1.064-1.064,1.064,1.064,0,0,0,1.064,1.064H38.4l1.018,22.4a1.064,1.064,0,0,0,1.063,1.016h14.9a1.064,1.064,0,0,0,1.063-1.016l1.018-22.4h.047a1.064,1.064,0,0,0,1.064-1.064,1.064,1.064,0,0,0,1.064,1.064h.047l1.018,22.4a1.064,1.064,0,0,0,1.063,1.016h14.9a1.064,1.064,0,0,0,1.063-1.016l1.018-22.4H78.8a1.064,1.064,0,0,0,1.064-1.064V65c0-.03,0-.059,0-.088Zm-11.7-30.78h2.129v2.129H68.157Zm-2.129,5.322a1.066,1.066,0,0,1,1.064-1.064h4.258a1.066,1.066,0,0,1,1.064,1.064v1.064H66.028Zm0,3.193h6.387v3.193H66.028Zm0,5.322h6.387v1.878a1.064,1.064,0,0,1-1.54.952L69.7,50.208a1.063,1.063,0,0,0-.952,0l-1.177.588a1.064,1.064,0,0,1-1.541-.952ZM25.58,42.644h2.129v2.129H25.58Zm-4.258,0h2.129v3.193A1.064,1.064,0,0,0,24.516,46.9h4.258a1.064,1.064,0,0,0,1.064-1.064V42.644h2.129V51.16H21.322ZM19.108,53.289H34.18l.887,10.644H32.906l-.948-7.583a1.064,1.064,0,0,0-1.056-.932H22.387a1.064,1.064,0,0,0-1.056.933l-.948,7.583H18.222ZM30.761,63.933H22.528l.8-6.387h6.636Zm2.317,27.675H20.21L19.243,70.32h14.8ZM35.16,68.191H18.129V66.062H35.16ZM47.933,40.515a3.2,3.2,0,0,1,3.011,2.129H44.922A3.2,3.2,0,0,1,47.933,40.515Zm1.177,5.8.294.588H46.462l.294-.588a1.064,1.064,0,0,0,.112-.476V44.773H49v1.064a1.064,1.064,0,0,0,.112.476Zm-4.188,2.717h6.022a3.193,3.193,0,0,1-6.022,0ZM40.4,53.289H55.469l.887,10.644H54.195l-.948-7.583a1.064,1.064,0,0,0-1.056-.932H43.675a1.064,1.064,0,0,0-1.056.933l-.948,7.583H39.511ZM52.05,63.933H43.817l.8-6.387h6.636Zm2.317,27.675H41.5L40.532,70.32h14.8Zm2.082-23.418H39.418V66.062H56.449Zm5.237-14.9H76.758l.887,10.644H75.484l-.948-7.583a1.064,1.064,0,0,0-1.056-.932H64.964a1.064,1.064,0,0,0-1.056.932l-.948,7.583H60.8ZM73.338,63.933H65.105l.8-6.387H72.54Zm2.317,27.675H62.788L61.82,70.32h14.8Zm2.082-23.418H60.706V66.062H77.737Z"/>
      <path id="Trazado_727432" data-name="Trazado 727432" d="M388.258,376.515A4.258,4.258,0,1,0,384,372.258,4.258,4.258,0,0,0,388.258,376.515Zm0-6.387a2.129,2.129,0,1,1-2.129,2.129A2.129,2.129,0,0,1,388.258,370.129Z" transform="translate(-319.036 -291.294)"/>
      <path id="Trazado_727433" data-name="Trazado 727433" d="M228.258,376.515A4.258,4.258,0,1,0,224,372.258,4.258,4.258,0,0,0,228.258,376.515Zm0-6.387a2.129,2.129,0,1,1-2.129,2.129A2.129,2.129,0,0,1,228.258,370.129Z" transform="translate(-180.325 -291.294)"/>
      <path id="Trazado_727434" data-name="Trazado 727434" d="M68.258,376.515A4.258,4.258,0,1,0,64,372.258,4.258,4.258,0,0,0,68.258,376.515Zm0-6.387a2.129,2.129,0,1,1-2.129,2.129A2.129,2.129,0,0,1,68.258,370.129Z" transform="translate(-41.613 -291.294)"/>
    </g>
  </g>
</svg>
