<svg xmlns="http://www.w3.org/2000/svg" width="83" height="83" viewBox="0 0 83 83">
  <g id="Grupo_960321" data-name="Grupo 960321" transform="translate(-1074 -3006)">
    <rect id="Rectángulo_340649" data-name="Rectángulo 340649" width="83" height="83" transform="translate(1074 3006)" fill="none"/>
    <g id="desperdicio" transform="translate(1088 3019.999)">
      <g id="Grupo_960318" data-name="Grupo 960318" transform="translate(4.453 10.707)">
        <path id="Trazado_727272" data-name="Trazado 727272" d="M44.035,112.363l-3.166-6.251a.806.806,0,0,1,.763-1.169l1.885.1a12.543,12.543,0,0,1,7.569-6.922,1.638,1.638,0,0,1,1.04,3.106,9.294,9.294,0,0,0-5.03,4.012l1.533.084a.806.806,0,0,1,.631,1.245l-3.831,5.867A.806.806,0,0,1,44.035,112.363Z" transform="translate(-40.78 -98.039)" fill="#fe5694"/>
        <path id="Trazado_727273" data-name="Trazado 727273" d="M366.286,112.363l3.166-6.251a.806.806,0,0,0-.763-1.169l-1.885.1a12.543,12.543,0,0,0-7.569-6.922,1.638,1.638,0,1,0-1.04,3.106,9.294,9.294,0,0,1,5.03,4.012l-1.533.084a.806.806,0,0,0-.631,1.245l3.831,5.867A.806.806,0,0,0,366.286,112.363Z" transform="translate(-322.537 -98.039)" fill="#fe5694"/>
      </g>
      <path id="Trazado_727274" data-name="Trazado 727274" d="M37.893,352.459v12.619a1.809,1.809,0,0,1-1.808,1.808H25.048a1.808,1.808,0,0,1-1.808-1.808V352.459l7.326-2.442Z" transform="translate(-20.702 -311.795)" fill="#60b7ff"/>
      <path id="Trazado_727275" data-name="Trazado 727275" d="M37.893,352.459v2.422H23.24v-2.422l7.326-2.442Z" transform="translate(-20.702 -311.795)" fill="#26a6fe"/>
      <path id="Trazado_727276" data-name="Trazado 727276" d="M44.953,284.051H35.817a1.555,1.555,0,0,1-1.555-1.555v-4.3a3.525,3.525,0,0,1,3.521-3.521h5.2a3.525,3.525,0,0,1,3.521,3.521v4.3A1.555,1.555,0,0,1,44.953,284.051Zm-7.581-3.11H43.4V278.2a.412.412,0,0,0-.411-.411h-5.2a.412.412,0,0,0-.411.411Z" transform="translate(-30.521 -244.683)" fill="#7a6d79"/>
      <path id="Trazado_727277" data-name="Trazado 727277" d="M36.715,274.6a.818.818,0,0,1-.288-.052L30.4,272.286a.819.819,0,0,1-.531-.767,1.231,1.231,0,0,1,1.231-1.23h5.2a1.231,1.231,0,0,1,1.231,1.23v2.264a.819.819,0,0,1-.819.819Zm-2.61-2.674,1.791.673v-.673Zm5.719,2.674a.819.819,0,0,1-.819-.819v-2.264a2.7,2.7,0,0,0-2.7-2.7H33.011a.819.819,0,1,1,0-1.638H36.3a4.344,4.344,0,0,1,4.339,4.339v2.264A.819.819,0,0,1,39.824,274.6Zm-12.245-2.264a.819.819,0,0,1-.819-.819,4.316,4.316,0,0,1,2.073-3.7.819.819,0,0,1,1.143,1.1l-1.683,3A.819.819,0,0,1,27.579,272.338Z" transform="translate(-23.838 -238.004)"/>
      <g id="Grupo_960319" data-name="Grupo 960319" transform="translate(3.634 9.888)">
        <path id="Trazado_727278" data-name="Trazado 727278" d="M38.071,106.943a1.618,1.618,0,0,1-1.451-.891L33.454,99.8A1.625,1.625,0,0,1,34.9,97.442l1.421.076a13.274,13.274,0,0,1,7.82-6.851,2.457,2.457,0,0,1,1.56,4.66,8.56,8.56,0,0,0-3.745,2.5l.033,0a1.625,1.625,0,0,1,1.271,2.511l-3.831,5.867A1.619,1.619,0,0,1,38.071,106.943ZM34.9,99.08l3.168,6.212,3.819-5.848-1.523-.064a.819.819,0,0,1-.656-1.242,10.166,10.166,0,0,1,5.471-4.365.819.819,0,1,0-.52-1.553,11.665,11.665,0,0,0-7.078,6.472.819.819,0,0,1-.8.491Z" transform="translate(-33.277 -90.539)"/>
        <path id="Trazado_727279" data-name="Trazado 727279" d="M358.878,106.943h0a1.619,1.619,0,0,1-1.36-.736l-3.831-5.867a1.625,1.625,0,0,1,1.271-2.511l.033,0a8.56,8.56,0,0,0-3.745-2.5,2.457,2.457,0,1,1,1.56-4.66,13.274,13.274,0,0,1,7.82,6.85l1.329-.073a1.649,1.649,0,0,1,1.474.772,1.614,1.614,0,0,1,.065,1.584l-3.166,6.251A1.618,1.618,0,0,1,358.878,106.943Zm-6.852-14.766a.819.819,0,0,0-.26,1.6,10.166,10.166,0,0,1,5.471,4.365.819.819,0,0,1-.656,1.242l-1.533.084,3.829,5.828,3.156-6.231-1.873.122a.819.819,0,0,1-.8-.491,11.665,11.665,0,0,0-7.078-6.472A.818.818,0,0,0,352.026,92.177Z" transform="translate(-315.031 -90.539)"/>
      </g>
      <path id="Trazado_727280" data-name="Trazado 727280" d="M28.332,366.886H25.048a1.809,1.809,0,0,1-1.808-1.809V352.459l7.326-2.442,1.642.547-5.685,1.895v12.618A1.809,1.809,0,0,0,28.332,366.886Z" transform="translate(-20.702 -311.795)" fill="#26a6fe"/>
      <path id="Trazado_727281" data-name="Trazado 727281" d="M16.556,364.878H31.209a.819.819,0,0,1,.819.819v12.618a2.631,2.631,0,0,1-2.628,2.628H18.365a2.631,2.631,0,0,1-2.628-2.628V365.7A.819.819,0,0,1,16.556,364.878Zm13.834,1.638H17.375v11.8a.991.991,0,0,0,.99.99H29.4a.991.991,0,0,0,.99-.99Z" transform="translate(-14.019 -325.033)"/>
      <path id="Trazado_727282" data-name="Trazado 727282" d="M24.155,332.538H8.935A1.435,1.435,0,0,1,7.5,331.1v-2.013a1.435,1.435,0,0,1,1.435-1.435h15.22a1.435,1.435,0,0,1,1.435,1.435V331.1A1.435,1.435,0,0,1,24.155,332.538Z" transform="translate(-6.681 -291.874)" fill="#60b7ff"/>
      <path id="Trazado_727283" data-name="Trazado 727283" d="M12.218,332.531H8.935A1.434,1.434,0,0,1,7.5,331.1v-2.014a1.435,1.435,0,0,1,1.435-1.436h3.284a1.436,1.436,0,0,0-1.435,1.436V331.1A1.435,1.435,0,0,0,12.218,332.531Z" transform="translate(-6.681 -291.868)" fill="#26a6fe"/>
      <path id="Trazado_727284" data-name="Trazado 727284" d="M17.474,326.676H2.254A2.257,2.257,0,0,1,0,324.421v-2.013a2.257,2.257,0,0,1,2.254-2.254h15.22a2.257,2.257,0,0,1,2.254,2.254v2.013a2.254,2.254,0,0,1-2.254,2.254Zm-15.22-4.884a.617.617,0,0,0-.616.616v2.013a.617.617,0,0,0,.616.616h15.22a.616.616,0,0,0,.616-.616v-2.013a.617.617,0,0,0-.616-.616Z" transform="translate(0 -285.193)"/>
      <path id="Trazado_727285" data-name="Trazado 727285" d="M203.556,352.458l-7.327-2.442-7.327,2.442v12.618a1.809,1.809,0,0,0,1.809,1.809h11.036a1.809,1.809,0,0,0,1.809-1.809Z" transform="translate(-168.275 -311.794)" fill="#fee45a"/>
      <path id="Trazado_727286" data-name="Trazado 727286" d="M203.56,352.459v2.422H188.907v-2.422l7.326-2.442Z" transform="translate(-168.279 -311.795)" fill="#ffd15b"/>
      <path id="Trazado_727287" data-name="Trazado 727287" d="M194,366.886h-3.284a1.809,1.809,0,0,1-1.808-1.809V352.459l7.326-2.442,1.642.547-5.685,1.895v12.618A1.809,1.809,0,0,0,194,366.886Z" transform="translate(-168.279 -311.795)" fill="#ffd15b"/>
      <path id="Trazado_727288" data-name="Trazado 727288" d="M210.619,284.051h-9.136a1.555,1.555,0,0,1-1.555-1.555v-4.3a3.525,3.525,0,0,1,3.521-3.521h5.2a3.525,3.525,0,0,1,3.521,3.521v4.3A1.555,1.555,0,0,1,210.619,284.051Zm-7.581-3.11h6.026V278.2a.412.412,0,0,0-.411-.411h-5.2a.412.412,0,0,0-.411.411Z" transform="translate(-178.097 -244.683)" fill="#7a6d79"/>
      <path id="Trazado_727289" data-name="Trazado 727289" d="M202.384,274.6a.818.818,0,0,1-.288-.052l-6.025-2.264a.819.819,0,0,1-.531-.767,1.231,1.231,0,0,1,1.23-1.23h5.2a1.231,1.231,0,0,1,1.23,1.23v2.264a.819.819,0,0,1-.819.819Zm-2.61-2.674,1.791.673v-.673Zm5.72,2.674a.819.819,0,0,1-.819-.819v-2.264a2.7,2.7,0,0,0-2.7-2.7h-5.2a2.7,2.7,0,0,0-2.7,2.7v2.264a.819.819,0,1,1-1.638,0v-2.264a4.344,4.344,0,0,1,4.339-4.339h5.2a4.344,4.344,0,0,1,4.339,4.339v2.264A.819.819,0,0,1,205.494,274.6Z" transform="translate(-171.417 -238.004)"/>
      <path id="Trazado_727290" data-name="Trazado 727290" d="M182.222,364.878h14.653a.819.819,0,0,1,.819.819v12.618a2.631,2.631,0,0,1-2.628,2.628H184.031a2.631,2.631,0,0,1-2.628-2.628V365.7A.819.819,0,0,1,182.222,364.878Zm13.835,1.638H183.041v11.8a.991.991,0,0,0,.99.99h11.036a.991.991,0,0,0,.99-.99Z" transform="translate(-161.594 -325.033)"/>
      <path id="Trazado_727291" data-name="Trazado 727291" d="M189.822,332.538H174.6a1.435,1.435,0,0,1-1.435-1.435v-2.013a1.435,1.435,0,0,1,1.435-1.435h15.22a1.435,1.435,0,0,1,1.435,1.435V331.1A1.435,1.435,0,0,1,189.822,332.538Z" transform="translate(-154.258 -291.874)" fill="#fee45a"/>
      <path id="Trazado_727292" data-name="Trazado 727292" d="M177.885,332.531H174.6a1.434,1.434,0,0,1-1.435-1.435v-2.014a1.435,1.435,0,0,1,1.435-1.436h3.284a1.436,1.436,0,0,0-1.435,1.436V331.1A1.435,1.435,0,0,0,177.885,332.531Z" transform="translate(-154.258 -291.868)" fill="#ffd15b"/>
      <path id="Trazado_727293" data-name="Trazado 727293" d="M183.141,326.676h-15.22a2.257,2.257,0,0,1-2.254-2.254v-2.013a2.257,2.257,0,0,1,2.254-2.254h15.22a2.257,2.257,0,0,1,2.254,2.254v2.013A2.257,2.257,0,0,1,183.141,326.676Zm-15.22-4.884a.617.617,0,0,0-.616.616v2.013a.617.617,0,0,0,.616.616h15.22a.617.617,0,0,0,.616-.616v-2.013a.617.617,0,0,0-.616-.616Z" transform="translate(-147.577 -285.193)"/>
      <path id="Trazado_727294" data-name="Trazado 727294" d="M369.222,352.458l-7.327-2.442-7.327,2.442v12.618a1.809,1.809,0,0,0,1.809,1.809h11.036a1.809,1.809,0,0,0,1.809-1.809Z" transform="translate(-315.851 -311.794)" fill="#0ed2b3"/>
      <path id="Trazado_727295" data-name="Trazado 727295" d="M369.226,352.459v2.422H354.573v-2.422l7.326-2.442Z" transform="translate(-315.855 -311.795)" fill="#0ab69f"/>
      <path id="Trazado_727296" data-name="Trazado 727296" d="M359.665,366.886h-3.284a1.809,1.809,0,0,1-1.808-1.809V352.459l7.326-2.442,1.642.547-5.685,1.895v12.618A1.809,1.809,0,0,0,359.665,366.886Z" transform="translate(-315.855 -311.795)" fill="#0ab69f"/>
      <path id="Trazado_727297" data-name="Trazado 727297" d="M376.286,284.051H367.15A1.555,1.555,0,0,1,365.6,282.5v-4.3a3.525,3.525,0,0,1,3.521-3.521h5.2a3.525,3.525,0,0,1,3.521,3.521v4.3A1.555,1.555,0,0,1,376.286,284.051Zm-7.581-3.11h6.026V278.2a.412.412,0,0,0-.411-.411h-5.2a.412.412,0,0,0-.411.411Z" transform="translate(-325.673 -244.683)" fill="#7a6d79"/>
      <path id="Trazado_727298" data-name="Trazado 727298" d="M368.054,274.6a.818.818,0,0,1-.288-.052l-6.027-2.264a.819.819,0,0,1-.531-.767,1.231,1.231,0,0,1,1.231-1.23h5.2a1.232,1.232,0,0,1,1.231,1.23v2.264a.819.819,0,0,1-.819.819Zm-2.61-2.674,1.791.673v-.673Zm5.72,2.674a.819.819,0,0,1-.819-.819v-2.264a2.705,2.705,0,0,0-2.7-2.7h-5.2a2.7,2.7,0,0,0-2.7,2.7v2.264a.819.819,0,0,1-1.638,0v-2.264a4.344,4.344,0,0,1,4.339-4.339h5.2a4.345,4.345,0,0,1,4.341,4.339v2.264A.819.819,0,0,1,371.164,274.6Z" transform="translate(-318.997 -238.004)"/>
      <path id="Trazado_727299" data-name="Trazado 727299" d="M360.734,380.945H349.7a2.63,2.63,0,0,1-2.627-2.627v-2.2a.819.819,0,0,1,1.638,0v2.2a.99.99,0,0,0,.989.989h11.036a.99.99,0,0,0,.989-.989v-11.8H348.708v5.773a.819.819,0,0,1-1.638,0V365.7a.819.819,0,0,1,.819-.819h14.653a.819.819,0,0,1,.819.819v12.619A2.63,2.63,0,0,1,360.734,380.945Z" transform="translate(-309.171 -325.035)"/>
      <path id="Trazado_727300" data-name="Trazado 727300" d="M355.489,332.538h-15.22a1.435,1.435,0,0,1-1.435-1.435v-2.013a1.435,1.435,0,0,1,1.435-1.435h15.22a1.435,1.435,0,0,1,1.435,1.435V331.1A1.435,1.435,0,0,1,355.489,332.538Z" transform="translate(-301.835 -291.874)" fill="#0ed2b3"/>
      <path id="Trazado_727301" data-name="Trazado 727301" d="M343.551,332.531h-3.284a1.434,1.434,0,0,1-1.435-1.435v-2.014a1.435,1.435,0,0,1,1.435-1.436h3.284a1.436,1.436,0,0,0-1.435,1.436V331.1A1.435,1.435,0,0,0,343.551,332.531Z" transform="translate(-301.834 -291.868)" fill="#0ab69f"/>
      <path id="Trazado_727302" data-name="Trazado 727302" d="M348.808,326.676h-15.22a2.257,2.257,0,0,1-2.254-2.254v-2.013a2.257,2.257,0,0,1,2.254-2.254h15.22a2.257,2.257,0,0,1,2.254,2.254v2.013A2.257,2.257,0,0,1,348.808,326.676Zm-15.22-4.884a.617.617,0,0,0-.616.616v2.013a.617.617,0,0,0,.616.616h15.22a.617.617,0,0,0,.616-.616v-2.013a.617.617,0,0,0-.616-.616Z" transform="translate(-295.154 -285.193)"/>
      <circle id="Elipse_5791" data-name="Elipse 5791" cx="3.289" cy="3.289" r="3.289" transform="translate(6.575 44.847)" fill="#f5f8f9"/>
      <path id="Elipse_5792" data-name="Elipse 5792" d="M-3.392-7.5A4.113,4.113,0,0,1,.716-3.392,4.113,4.113,0,0,1-3.392.716,4.113,4.113,0,0,1-7.5-3.392,4.113,4.113,0,0,1-3.392-7.5Zm0,6.578a2.473,2.473,0,0,0,2.47-2.47,2.473,2.473,0,0,0-2.47-2.47,2.473,2.473,0,0,0-2.47,2.47A2.473,2.473,0,0,0-3.392-.922Z" transform="translate(13.256 51.528)"/>
      <path id="Trazado_727303" data-name="Trazado 727303" d="M233.48,413.215h-4.12a.953.953,0,0,0-.953.953v4.12a.953.953,0,0,0,.953.953h4.12a.953.953,0,0,0,.953-.953v-4.12A.953.953,0,0,0,233.48,413.215Z" transform="translate(-203.466 -368.092)" fill="#f5f8f9"/>
      <path id="Trazado_727304" data-name="Trazado 727304" d="M222.679,405.715h4.12a1.774,1.774,0,0,1,1.772,1.772v4.12a1.774,1.774,0,0,1-1.772,1.772h-4.12a1.774,1.774,0,0,1-1.772-1.772v-4.12A1.774,1.774,0,0,1,222.679,405.715Zm4.12,6.026a.134.134,0,0,0,.134-.134v-4.12a.134.134,0,0,0-.134-.134h-4.12a.134.134,0,0,0-.134.134v4.12a.134.134,0,0,0,.134.134Z" transform="translate(-196.785 -361.411)"/>
      <path id="Trazado_727305" data-name="Trazado 727305" d="M392.6,412.656l-2.606,4.514a.864.864,0,0,0,.748,1.3h5.213a.864.864,0,0,0,.748-1.3l-2.606-4.514A.864.864,0,0,0,392.6,412.656Z" transform="translate(-347.301 -367.209)" fill="#f5f8f9"/>
      <path id="Trazado_727306" data-name="Trazado 727306" d="M386.653,404.724a1.666,1.666,0,0,1,1.457.841l2.606,4.515a1.683,1.683,0,0,1-1.457,2.524h-5.213a1.683,1.683,0,0,1-1.458-2.524l2.606-4.515A1.666,1.666,0,0,1,386.653,404.724Zm2.606,6.242-2.567-4.582-.039-.023a.038.038,0,0,0-.039.023l-2.606,4.514Z" transform="translate(-340.608 -360.528)"/>
      <g id="Grupo_960320" data-name="Grupo 960320" transform="translate(20.13 0.001)">
        <path id="Trazado_727307" data-name="Trazado 727307" d="M205.259,17.511,201.4,11.129l.978-2.15A1.042,1.042,0,0,0,200.8,7.713a3.225,3.225,0,0,1-3.855,0h0a1.042,1.042,0,0,0-1.571,1.266l.978,2.15-3.862,6.382a4.246,4.246,0,0,0,3.632,6.444h5.5A4.245,4.245,0,0,0,205.259,17.511Z" transform="translate(-191.052 -6.681)" fill="#7a6d79"/>
        <path id="Trazado_727308" data-name="Trazado 727308" d="M197.941,23.965h-1.813a4.246,4.246,0,0,1-3.633-6.444l3.862-6.381-.978-2.151a1.046,1.046,0,0,1,.952-1.478,1.03,1.03,0,0,1,.619.212,3.224,3.224,0,0,0,.734.41,2.789,2.789,0,0,0,0,.856l.333,2.151L196.7,17.521C196.12,20.35,196.815,23.965,197.941,23.965Z" transform="translate(-191.054 -6.691)" fill="#685e68"/>
        <path id="Trazado_727309" data-name="Trazado 727309" d="M190.533,47.7h-1.113a5.064,5.064,0,0,1-4.333-7.687l3.862-6.381a.819.819,0,0,1,.7-.395h5.041a.819.819,0,0,1,.7.395l2.873,4.747a.819.819,0,1,1-1.4.848l-2.634-4.352h-4.117l-3.623,5.987a3.426,3.426,0,0,0,2.931,5.2h1.113a.819.819,0,1,1,0,1.638Z" transform="translate(-184.347 -29.61)"/>
        <path id="Trazado_727310" data-name="Trazado 727310" d="M265.432,114.549h-1.113a.819.819,0,0,1,0-1.638h1.113a3.371,3.371,0,0,0,2.521-1.1,3.457,3.457,0,0,0,.9-2.635.819.819,0,0,1,1.631-.149,5.1,5.1,0,0,1-1.32,3.888A4.99,4.99,0,0,1,265.432,114.549Z" transform="translate(-254.857 -96.456)"/>
        <path id="Trazado_727311" data-name="Trazado 727311" d="M222.5,5.269a.819.819,0,0,1-.745-1.158l.978-2.15a.2.2,0,0,0-.063-.265.2.2,0,0,0-.273-.005,4.069,4.069,0,0,1-4.834,0,.2.2,0,0,0-.273.005.2.2,0,0,0-.063.265l.978,2.15a.819.819,0,1,1-1.491.678l-.978-2.15A1.837,1.837,0,0,1,216.261.42a1.837,1.837,0,0,1,2.28-.043,2.421,2.421,0,0,0,2.876,0A1.837,1.837,0,0,1,223.7.42a1.837,1.837,0,0,1,.526,2.219l-.978,2.15A.819.819,0,0,1,222.5,5.269Z" transform="translate(-212.154 -0.001)"/>
      </g>
      <path id="Trazado_727312" data-name="Trazado 727312" d="M219.4,117.728v5.526h-1.806a.841.841,0,0,0-.728,1.261l3.444,5.964a.841.841,0,0,0,1.456,0l3.444-5.964a.841.841,0,0,0-.728-1.261h-1.806v-5.526a1.638,1.638,0,1,0-3.276,0Z" transform="translate(-193.084 -103.412)" fill="#fe5694"/>
      <path id="Trazado_727313" data-name="Trazado 727313" d="M214.346,108.59h0a2.46,2.46,0,0,1,2.457,2.457v4.707h.987a1.66,1.66,0,0,1,1.437,2.49l-3.444,5.964a1.66,1.66,0,0,1-2.875,0l-3.444-5.964a1.66,1.66,0,0,1,1.437-2.49h.987v-4.707A2.46,2.46,0,0,1,214.346,108.59Zm-.019,14.8,3.482-5.964-1.825-.033a.819.819,0,0,1-.819-.819v-5.526a.819.819,0,1,0-1.638,0v5.526a.819.819,0,0,1-.819.819H210.9Z" transform="translate(-186.392 -96.731)"/>
    </g>
  </g>
</svg>
