<svg xmlns="http://www.w3.org/2000/svg" xmlns:xlink="http://www.w3.org/1999/xlink" width="83" height="83" viewBox="0 0 83 83">
  <defs>
    <clipPath id="clip-path">
      <path id="path6934" d="M0-682.665H64.8v64.8H0Z" transform="translate(0 682.665)"/>
    </clipPath>
  </defs>
  <g id="Grupo_960371" data-name="Grupo 960371" transform="translate(-5136 8662)">
    <rect id="Rectángulo_340658" data-name="Rectángulo 340658" width="83" height="83" transform="translate(5136 -8662)" fill="none"/>
    <g id="g6924" transform="translate(5145 -7970.335)">
      <g id="g6926" transform="translate(32.326 -650.227)">
        <path id="path6928" d="M0,0,2.4,7.08H8.3L10.7,0Z" fill="#ffb954"/>
      </g>
      <g id="g6930" transform="translate(0 -682.665)">
        <g id="g6932" clip-path="url(#clip-path)">
          <g id="g6938" transform="translate(24.463 39.518)">
            <path id="path6940" d="M-154.072,0l7.787,8.417a9.293,9.293,0,0,1,1.924,9.454h0a9.293,9.293,0,0,1-8.745,6.15h-7.832a9.293,9.293,0,0,1-8.745-6.15h0a9.293,9.293,0,0,1,1.924-9.454L-159.973,0Z" transform="translate(170.232)" fill="#ffb954"/>
          </g>
          <g id="g6942" transform="translate(31.674 31.172)">
            <path id="path6944" d="M-4.388-22.844h-5.9a1.266,1.266,0,0,1-1.2-.86l-1.781-5.265a1.266,1.266,0,0,1,.746-1.588,1.26,1.26,0,0,1-.17-.633,1.266,1.266,0,0,1,1.266-1.266h9.443a1.266,1.266,0,0,1,1.029.528,1.266,1.266,0,0,1,.17,1.144l-2.4,7.08A1.266,1.266,0,0,1-4.388-22.844Zm-4.993-2.531H-5.3l1.544-4.548H-10.93a1.279,1.279,0,0,1,.059.144Z" transform="translate(13.337 32.455)"/>
          </g>
          <g id="g6946" transform="translate(23.192 38.252)">
            <path id="path6948" d="M-198.379-237.089h-7.832a10.584,10.584,0,0,1-9.936-6.987,10.523,10.523,0,0,1,2.186-10.742l7.787-8.417a1.266,1.266,0,0,1,.929-.406h5.9a1.266,1.266,0,0,1,.929.406l3.245,3.507a1.266,1.266,0,0,1-.07,1.789,1.266,1.266,0,0,1-1.789-.07l-2.869-3.1h-4.794L-212.1-253.1a8,8,0,0,0-1.662,8.166,8.047,8.047,0,0,0,7.554,5.312h7.832a8.043,8.043,0,0,0,1.885-.224,1.266,1.266,0,0,1,1.527.933,1.266,1.266,0,0,1-.933,1.527A10.576,10.576,0,0,1-198.379-237.089Z" transform="translate(216.775 263.641)"/>
          </g>
          <g id="g6950" transform="translate(44.983 32.438)">
            <path id="path6952" d="M0,0,2.4,7.08H8.3L10.7,0Z" fill="#ffb954"/>
          </g>
          <g id="g6954" transform="translate(37.12 39.518)">
            <path id="path6956" d="M-154.072,0l7.787,8.417a9.293,9.293,0,0,1,1.924,9.454h0a9.293,9.293,0,0,1-8.745,6.15h-7.832a9.293,9.293,0,0,1-8.745-6.15h0a9.293,9.293,0,0,1,1.924-9.454L-159.973,0Z" transform="translate(170.232)" fill="#ffb954"/>
          </g>
          <g id="g6958" transform="translate(43.717 31.172)">
            <path id="path6960" d="M-12.068-13.333h10.7A1.266,1.266,0,0,1-.339-12.8a1.266,1.266,0,0,1,.17,1.144l-2.4,7.08a1.266,1.266,0,0,1-1.2.859h-5.9a1.266,1.266,0,0,1-1.2-.86l-2.4-7.08a1.266,1.266,0,0,1,.17-1.143A1.266,1.266,0,0,1-12.068-13.333ZM-3.134-10.8H-10.3l1.539,4.548h4.087Z" transform="translate(13.333 13.333)"/>
          </g>
          <g id="g6962" transform="translate(35.849 38.252)">
            <path id="path6964" d="M-172.083-13.333h5.9a1.266,1.266,0,0,1,.929.406l7.787,8.417A10.524,10.524,0,0,1-155.28,6.231a10.584,10.584,0,0,1-9.936,6.987h-7.832a10.584,10.584,0,0,1-9.936-6.987A10.524,10.524,0,0,1-180.8-4.51l7.787-8.417A1.266,1.266,0,0,1-172.083-13.333Zm5.348,2.531h-4.794l-7.411,8.011A8,8,0,0,0-180.6,5.375a8.047,8.047,0,0,0,7.554,5.312h7.832a8.047,8.047,0,0,0,7.554-5.312,8,8,0,0,0-1.662-8.166Z" transform="translate(183.612 13.333)"/>
          </g>
          <g id="g6966" transform="translate(52.092 45.791)">
            <path id="path6968" d="M-12.393-11.136a1.225,1.225,0,0,1-.9-.4l-.032-.034a1.266,1.266,0,0,1,.069-1.789,1.266,1.266,0,0,1,1.789.069,1.286,1.286,0,0,1-.053,1.806A1.278,1.278,0,0,1-12.393-11.136Z" transform="translate(13.665 13.692)"/>
          </g>
          <g id="g6970" transform="translate(52.979 49.709)">
            <path id="path6972" d="M-12.068-82.31a1.266,1.266,0,0,1-1.266-1.266,1.266,1.266,0,0,1,1.266-1.266A2.971,2.971,0,0,0-9.278-86.8a2.954,2.954,0,0,0-.614-3.016l-.368-.4A1.266,1.266,0,0,1-10.19-92a1.266,1.266,0,0,1,1.789.07l.368.4A5.477,5.477,0,0,1-6.9-85.946,5.509,5.509,0,0,1-12.068-82.31Z" transform="translate(13.333 92.341)"/>
          </g>
          <g id="g6974" transform="translate(6.835 32.438)">
            <path id="path6976" d="M0,0V27.809A3.291,3.291,0,0,0,3.291,31.1h0a3.291,3.291,0,0,0,3.291-3.291V0Z" fill="#72d8ff"/>
          </g>
          <g id="g6978" transform="translate(13.416 32.438)">
            <path id="path6980" d="M-62.752,0V27.809A3.291,3.291,0,0,1-66.042,31.1h0a3.291,3.291,0,0,1-3.291-3.291V0Z" transform="translate(69.333)" fill="#72d8ff"/>
          </g>
          <g id="g6982" transform="translate(8.354 1.266)">
            <path id="path6984" d="M-48.27,0h0a5.063,5.063,0,0,0-5.063,5.063V6.075a5.063,5.063,0,0,0,5.063,5.063h0a5.063,5.063,0,0,0,5.063-5.063V5.063A5.063,5.063,0,0,0-48.27,0" transform="translate(53.333)" fill="#feda9b"/>
          </g>
          <g id="g6986" transform="translate(7.088 0)">
            <path id="path6988" d="M-60.338-13.333A6.336,6.336,0,0,1-54.01-7v1.013A6.336,6.336,0,0,1-60.338.336a6.336,6.336,0,0,1-6.328-6.328V-7A6.336,6.336,0,0,1-60.338-13.333Zm0,11.138a3.8,3.8,0,0,0,3.8-3.8V-7a3.8,3.8,0,0,0-3.8-3.8,3.8,3.8,0,0,0-3.8,3.8v1.013A3.8,3.8,0,0,0-60.338-2.2Z" transform="translate(66.666 13.333)"/>
          </g>
          <path id="path6990" d="M85.163-552H72v20.034H85.163Z" transform="translate(-65.165 564.402)" fill="#ff5d5d"/>
          <g id="g6992" transform="translate(6.039 31.172)">
            <path id="path6994" d="M-.168-10.8h-11.9a1.266,1.266,0,0,1-1.266-1.266,1.266,1.266,0,0,1,1.266-1.266h11.9A1.266,1.266,0,0,1,1.1-12.068,1.266,1.266,0,0,1-.168-10.8Z" transform="translate(13.333 13.333)"/>
          </g>
          <g id="g6996" transform="translate(11.639 11.138)">
            <path id="path6998" d="M0,0H3.869a9.042,9.042,0,0,1,8.56,6.129l2.343,6.886,4.579,5.441a2.915,2.915,0,0,1,0,3.756h0a2.915,2.915,0,0,1-4.29.182L10.574,17.91,7.093,12.646" transform="translate(1.266 1.266)" fill="#ff5d5d"/>
            <path id="path6998_-_Contorno" data-name="path6998 - Contorno" d="M5.054,12.447A4.191,4.191,0,0,1,2.1,11.222L-2.389,6.737a1.266,1.266,0,0,1-.161-.2L-6.03,1.276A1.266,1.266,0,0,1-5.672-.478,1.266,1.266,0,0,1-3.919-.12l3.41,5.157L3.887,9.432A1.649,1.649,0,0,0,6.315,7.2L1.736,1.763a1.266,1.266,0,0,1-.23-.407L-.837-5.531A7.774,7.774,0,0,0-8.2-10.8h-3.869a1.266,1.266,0,0,1-1.266-1.266,1.266,1.266,0,0,1,1.266-1.266H-8.2A10.3,10.3,0,0,1,1.559-6.346L3.826.315,8.251,5.574A4.181,4.181,0,0,1,5.23,12.443C5.171,12.445,5.113,12.447,5.054,12.447Z" transform="translate(13.333 13.333)"/>
          </g>
          <g id="g7000" transform="translate(1.266 12.404)">
            <path id="path7002" d="M-120.612,0h-3.609a9.042,9.042,0,0,0-9.042,9.042V24.429a2.784,2.784,0,0,0,2.784,2.784h0a2.784,2.784,0,0,0,2.784-2.784V14.745" transform="translate(133.262)" fill="#ff5d5d"/>
          </g>
          <g id="g7004" transform="translate(0 11.138)">
            <path id="path7006" d="M-142.546,16.411a4.054,4.054,0,0,1-4.05-4.049V-3.026a10.319,10.319,0,0,1,10.307-10.307h3.609a1.266,1.266,0,0,1,1.266,1.266A1.266,1.266,0,0,1-132.68-10.8h-3.609a7.785,7.785,0,0,0-7.776,7.776V12.361a1.52,1.52,0,0,0,1.518,1.518,1.52,1.52,0,0,0,1.518-1.518V2.678a1.266,1.266,0,0,1,1.266-1.266A1.266,1.266,0,0,1-138.5,2.678v9.683A4.054,4.054,0,0,1-142.546,16.411Z" transform="translate(146.596 13.333)"/>
          </g>
          <g id="g7008" transform="translate(5.569 38.983)">
            <path id="path7010" d="M-8.777-131.906a4.562,4.562,0,0,1-4.557-4.556v-6.291a1.266,1.266,0,0,1,1.266-1.266,1.266,1.266,0,0,1,1.266,1.266v6.291a2.027,2.027,0,0,0,2.025,2.025,2.027,2.027,0,0,0,2.025-2.025v-20a1.266,1.266,0,0,1,1.266-1.266,1.266,1.266,0,0,1,1.266,1.266v20A4.562,4.562,0,0,1-8.777-131.906Z" transform="translate(13.333 157.726)"/>
          </g>
          <g id="g7012" transform="translate(6.835 49.001)">
            <path id="path7014" transform="translate(0)"/>
          </g>
          <g id="g7016" transform="translate(5.569 21.028)">
            <path id="path7018" d="M-12.068,10.842a1.266,1.266,0,0,1-1.266-1.266V-12.068a1.266,1.266,0,0,1,1.266-1.266A1.266,1.266,0,0,1-10.8-12.068V9.577A1.266,1.266,0,0,1-12.068,10.842Z" transform="translate(13.333 13.333)"/>
          </g>
          <g id="g7020" transform="translate(12.151 21.028)">
            <path id="path7022" d="M-78.11,30.442a4.562,4.562,0,0,1-4.557-4.557V7.533A1.266,1.266,0,0,1-81.4,6.267a1.266,1.266,0,0,1,1.266,1.266V25.886a2.027,2.027,0,0,0,2.025,2.025,2.027,2.027,0,0,0,2.025-2.025V-12.068a1.266,1.266,0,0,1,1.266-1.266,1.266,1.266,0,0,1,1.266,1.266V25.886A4.562,4.562,0,0,1-78.11,30.442Z" transform="translate(82.666 13.333)"/>
          </g>
        </g>
      </g>
    </g>
  </g>
</svg>
