<svg xmlns="http://www.w3.org/2000/svg" width="83" height="83" viewBox="0 0 83 83">
  <g id="Grupo_960383" data-name="Grupo 960383" transform="translate(-4438 8114)">
    <rect id="Rectángulo_340663" data-name="Rectángulo 340663" width="83" height="83" transform="translate(4438 -8114)" fill="none"/>
    <g id="trash-bin-garbage-ecology-recycle" transform="translate(4447.999 -8105)">
      <circle id="Elipse_5800" data-name="Elipse 5800" cx="6" cy="6" r="6" transform="translate(7 49)" fill="#414042"/>
      <circle id="Elipse_5801" data-name="Elipse 5801" cx="2" cy="2" r="2" transform="translate(11 53)" fill="#a7a9ac"/>
      <circle id="Elipse_5802" data-name="Elipse 5802" cx="6" cy="6" r="6" transform="translate(45 49)" fill="#414042"/>
      <circle id="Elipse_5803" data-name="Elipse 5803" cx="2" cy="2" r="2" transform="translate(49 53)" fill="#a7a9ac"/>
      <path id="Trazado_727448" data-name="Trazado 727448" d="M39.01,9.52A11,11,0,0,0,21,18c0,.34.02.67.05,1h21.9c.03-.33.05-.66.05-1a10.964,10.964,0,0,0-3.99-8.48Z" fill="#58595b"/>
      <path id="Trazado_727449" data-name="Trazado 727449" d="M39.01,9.52A10.837,10.837,0,0,0,30.5,7.113,10.967,10.967,0,0,1,40,18c0,.34-.02.67-.05,1h3c.03-.33.05-.66.05-1A10.964,10.964,0,0,0,39.01,9.52Z" fill="#414042"/>
      <path id="Trazado_727450" data-name="Trazado 727450" d="M24.99,9.52A10.986,10.986,0,0,0,7.05,19h14c-.03-.33-.05-.66-.05-1a10.964,10.964,0,0,1,3.99-8.48Z" fill="#6d6e71"/>
      <path id="Trazado_727451" data-name="Trazado 727451" d="M24.99,9.52a10.954,10.954,0,0,0-9-2.324,10.894,10.894,0,0,1,5,2.324A10.964,10.964,0,0,0,17,18c0,.34.02.67.05,1h4c-.03-.33-.05-.66-.05-1a10.964,10.964,0,0,1,3.99-8.48Z" fill="#58595b"/>
      <path id="Trazado_727452" data-name="Trazado 727452" d="M53.78,10.22a10.989,10.989,0,0,0-14.77-.7A10.964,10.964,0,0,1,43,18c0,.34-.02.67-.05,1h14a10.961,10.961,0,0,0-3.17-8.78Z" fill="#6d6e71"/>
      <path id="Trazado_727453" data-name="Trazado 727453" d="M53.78,10.22A10.977,10.977,0,0,0,44.007,7.2,10.96,10.96,0,0,1,52.95,19h4a10.961,10.961,0,0,0-3.17-8.78Z" fill="#58595b"/>
      <path id="Trazado_727454" data-name="Trazado 727454" d="M57,19H7a4,4,0,0,0,0,8H57a4,4,0,0,0,0-8Z" fill="#d80027"/>
      <path id="Trazado_727455" data-name="Trazado 727455" d="M7,27l5.322,24.838A4,4,0,0,0,16.234,55H47.766a4,4,0,0,0,3.912-3.163L57,27Z" fill="#ed1c24"/>
      <path id="Trazado_727456" data-name="Trazado 727456" d="M56.357,30,57,27H7l.643,3Z" fill="#bd0022"/>
      <path id="Trazado_727457" data-name="Trazado 727457" d="M34.3,7.251,36,3H28l1.7,4.251a10.654,10.654,0,0,1,4.6,0Z" fill="#414042"/>
      <path id="Trazado_727458" data-name="Trazado 727458" d="M12.016,8.776,10.1,4.444,4.444,10.1l4.331,1.916a10.686,10.686,0,0,1,3.241-3.24Z" fill="#58595b"/>
      <path id="Trazado_727459" data-name="Trazado 727459" d="M51.984,8.776,53.9,4.444,59.556,10.1l-4.331,1.916a10.686,10.686,0,0,0-3.241-3.24Z" fill="#58595b"/>
      <g id="Grupo_960382" data-name="Grupo 960382">
        <path id="Trazado_727460" data-name="Trazado 727460" d="M22.9,42.207l1.531-.41L22,46a2,2,0,0,0,1.732,3H30a1,1,0,0,0,0-2H23.732l2.427-4.2.41,1.531a1,1,0,0,0,.965.742.974.974,0,0,0,.26-.035,1,1,0,0,0,.707-1.224L27.466,39.95a1,1,0,0,0-1.225-.707l-3.863,1.035A1,1,0,1,0,22.9,42.21Z" fill="#231f20"/>
        <path id="Trazado_727461" data-name="Trazado 727461" d="M38.134,41.572,41.268,47H36.414l1.121-1.122a1,1,0,1,0-1.414-1.414l-2.828,2.829a1,1,0,0,0,0,1.414l2.828,2.829a1,1,0,1,0,1.414-1.414L36.414,49h4.854A2,2,0,0,0,43,46l-3.134-5.428a1,1,0,1,0-1.732,1Z" fill="#231f20"/>
        <path id="Trazado_727462" data-name="Trazado 727462" d="M27.5,37.794a1,1,0,0,0,1.366-.366L32,32l2.427,4.2L32.9,35.79a1,1,0,1,0-.518,1.932l3.863,1.035a1,1,0,0,0,1.225-.707L38.5,34.189a1,1,0,1,0-1.932-.517l-.41,1.531L33.732,31a2,2,0,0,0-3.464,0l-3.134,5.428a1,1,0,0,0,.366,1.366Z" fill="#231f20"/>
        <path id="Trazado_727463" data-name="Trazado 727463" d="M62,23a5.008,5.008,0,0,0-4.02-4.9,12,12,0,0,0-1.32-5.6l3.17-1.36a1,1,0,0,0,.31-1.63L54.49,3.86a1,1,0,0,0-.9-.28,1.021,1.021,0,0,0-.73.59L51.5,7.34a11.893,11.893,0,0,0-12.49.93,11.978,11.978,0,0,0-3.37-1.69l1.29-3.21a1.021,1.021,0,0,0-.1-.93A1,1,0,0,0,36,2H28a1,1,0,0,0-.83.44,1.021,1.021,0,0,0-.1.93l1.29,3.21a11.978,11.978,0,0,0-3.37,1.69A11.893,11.893,0,0,0,12.5,7.34L11.14,4.17a1.021,1.021,0,0,0-.73-.59,1,1,0,0,0-.9.28L3.86,9.51a1,1,0,0,0,.31,1.63L7.34,12.5a12,12,0,0,0-1.32,5.6,4.992,4.992,0,0,0,.15,9.82l4.4,20.53A6.993,6.993,0,1,0,19.92,56H44.08a7,7,0,1,0,9.35-7.55l4.4-20.53A5.006,5.006,0,0,0,62,23ZM54.12,6.32l3.56,3.56-2.1.9a13.057,13.057,0,0,0-1.09-1.27,14.36,14.36,0,0,0-1.27-1.09Zm-1.05,4.61A9.974,9.974,0,0,1,55.99,18H44a11.965,11.965,0,0,0-3.42-8.39,9.937,9.937,0,0,1,12.49,1.32ZM34.52,4l-.85,2.13a10.792,10.792,0,0,0-3.34,0L29.48,4Zm-8.89,6.29A10,10,0,0,1,42,18H22a9.971,9.971,0,0,1,3.63-7.71Zm-14.7.64A9.937,9.937,0,0,1,23.42,9.61,12.009,12.009,0,0,0,20,18H8.01a9.974,9.974,0,0,1,2.92-7.07ZM6.32,9.88,9.88,6.32l.9,2.1A13.057,13.057,0,0,0,9.51,9.51a13.057,13.057,0,0,0-1.09,1.27ZM13,60a4.992,4.992,0,0,1-2-9.57l.34,1.62c.03.13.08.25.12.38a3,3,0,1,0,4.37,3.53,2.711,2.711,0,0,0,.4.04H17.9A5.017,5.017,0,0,1,13,60Zm-1-5a.985.985,0,0,1,.42-.79,4.959,4.959,0,0,0,1.49,1.2A1,1,0,0,1,12,55Zm44,0a5,5,0,0,1-9.9,1h1.67a2.711,2.711,0,0,0,.4-.04,2.994,2.994,0,1,0,4.37-3.53c.04-.13.09-.25.12-.38L53,50.43A5.022,5.022,0,0,1,56,55Zm-5.9.41a5.075,5.075,0,0,0,1.48-1.2A.985.985,0,0,1,52,55a1,1,0,0,1-1,1,.989.989,0,0,1-.9-.59Zm.6-3.78A3.015,3.015,0,0,1,47.77,54H16.23a3.015,3.015,0,0,1-2.93-2.37L8.24,28H55.76ZM7,26a3,3,0,1,1,0-6H57a3,3,0,1,1,0,6Z" fill="#231f20"/>
        <path id="Trazado_727464" data-name="Trazado 727464" d="M37.1,11.831A8.015,8.015,0,0,0,32,10a1,1,0,1,0,0,2,6,6,0,0,1,5.43,3.442,1,1,0,0,0,1.81-.851,7.953,7.953,0,0,0-2.14-2.76Z" fill="#231f20"/>
        <path id="Trazado_727465" data-name="Trazado 727465" d="M15,12.34a.992.992,0,0,0,.5-.134,6.01,6.01,0,0,1,4-.723,1,1,0,1,0,.332-1.972,8.01,8.01,0,0,0-5.328.963A1,1,0,0,0,15,12.34Z" fill="#231f20"/>
        <path id="Trazado_727466" data-name="Trazado 727466" d="M44.5,11.483a6.011,6.011,0,0,1,4,.723,1,1,0,1,0,1-1.732,8.01,8.01,0,0,0-5.328-.963,1,1,0,1,0,.332,1.972Z" fill="#231f20"/>
      </g>
    </g>
  </g>
</svg>
