<svg xmlns="http://www.w3.org/2000/svg" xmlns:xlink="http://www.w3.org/1999/xlink" width="138" height="138" viewBox="0 0 138 138">
  <defs>
    <filter id="Elipse_5733" x="0" y="0" width="138" height="138" filterUnits="userSpaceOnUse">
      <feOffset dy="3" input="SourceAlpha"/>
      <feGaussianBlur stdDeviation="3" result="blur"/>
      <feFlood flood-opacity="0.161"/>
      <feComposite operator="in" in2="blur"/>
      <feComposite in="SourceGraphic"/>
    </filter>
  </defs>
  <g id="Grupo_959760" data-name="Grupo 959760" transform="translate(-381 -648)">
    <g transform="matrix(1, 0, 0, 1, 381, 648)" filter="url(#Elipse_5733)">
      <circle id="Elipse_5733-2" data-name="Elipse 5733" cx="60" cy="60" r="60" transform="translate(9 6)" fill="#badc61"/>
    </g>
    <g id="residuos_1_" data-name="residuos (1)" transform="translate(418 681.998)">
      <g id="Grupo_959545" data-name="Grupo 959545" transform="translate(24.077 8.333)">
        <g id="Grupo_959544" data-name="Grupo 959544">
          <path id="Trazado_725949" data-name="Trazado 725949" d="M207.8,66.3c-2.608,0-4.723,3.307-4.723,7.386s2.115,7.386,4.723,7.386h-16.18c2.608,0,4.723-3.307,4.723-7.386s-2.115-7.386-4.723-7.386Z" transform="translate(-191.617 -66.303)" fill="#fff5cc"/>
        </g>
      </g>
      <g id="Grupo_959547" data-name="Grupo 959547" transform="translate(24.077 8.333)">
        <g id="Grupo_959546" data-name="Grupo 959546">
          <path id="Trazado_725950" data-name="Trazado 725950" d="M199.62,73.689c0-4.079-2.115-7.386-4.723-7.386h-3.28c2.608,0,4.723,3.307,4.723,7.386s-2.115,7.386-4.723,7.386h3.28C197.505,81.076,199.62,77.769,199.62,73.689Z" transform="translate(-191.617 -66.303)" fill="#ffeb99"/>
        </g>
      </g>
      <g id="Grupo_959549" data-name="Grupo 959549" transform="translate(20.944 3.29)">
        <g id="Grupo_959548" data-name="Grupo 959548">
          <path id="Trazado_725951" data-name="Trazado 725951" d="M166.682,31.183a1.89,1.89,0,0,0,2.564,1.771,3.149,3.149,0,0,1,1.177-.2c1.871,0,1.871,1.122,3.741,1.122s1.87-1.122,3.741-1.122,1.87,1.122,3.741,1.122,1.87-1.122,3.741-1.122a3.151,3.151,0,0,1,1.177.2,1.894,1.894,0,0,0,2.106-3.007c-2.723-3.164-6.476-4.6-9.609-3.3l-.012.005a2.965,2.965,0,0,1-2.286,0l-.012-.005c-3.133-1.3-6.885.137-9.608,3.3a1.9,1.9,0,0,0-.459,1.236Z" transform="translate(-166.682 -26.169)" fill="#ff8fa2"/>
        </g>
      </g>
      <g id="Grupo_959551" data-name="Grupo 959551" transform="translate(20.944 3.29)">
        <g id="Grupo_959550" data-name="Grupo 959550" transform="translate(0 0)">
          <path id="Trazado_725952" data-name="Trazado 725952" d="M176.34,26.5c-3.046-1.018-6.594.426-9.2,3.453a1.9,1.9,0,0,0-.459,1.236h0a1.89,1.89,0,0,0,2.564,1.771,3.149,3.149,0,0,1,1.177-.2c1.58,0,1.826.8,2.991,1.049C171.529,29.569,176.34,28.709,176.34,26.5Z" transform="translate(-166.682 -26.172)" fill="#ff768d"/>
        </g>
      </g>
      <g id="Grupo_959553" data-name="Grupo 959553" transform="translate(0.942 16.907)">
        <g id="Grupo_959552" data-name="Grupo 959552">
          <path id="Trazado_725953" data-name="Trazado 725953" d="M59.9,173.115a10.053,10.053,0,0,0,5.212-18.649A11.315,11.315,0,0,0,50.83,143.731a12.569,12.569,0,0,0-24.212,0A11.315,11.315,0,0,0,12.34,154.466a10.053,10.053,0,0,0,5.212,18.649Z" transform="translate(-7.5 -134.54)" fill="#c68d6d"/>
        </g>
      </g>
      <g id="Grupo_959555" data-name="Grupo 959555" transform="translate(10.009 15.78)">
        <g id="Grupo_959554" data-name="Grupo 959554">
          <path id="Trazado_725954" data-name="Trazado 725954" d="M83.964,125.573l-4.307,1.784a11.22,11.22,0,0,1,.494,7.13,14.463,14.463,0,0,0,.631,9.194l3.368,8.131a3.77,3.77,0,0,0,4.925,2.04l6.965-2.885a3.77,3.77,0,0,0,2.04-4.925l-3.368-8.131a14.463,14.463,0,0,0-6.055-6.947,11.221,11.221,0,0,1-4.693-5.391Z" transform="translate(-79.657 -125.573)" fill="#b1ef97"/>
        </g>
      </g>
      <g id="Grupo_959557" data-name="Grupo 959557" transform="translate(10.009 15.78)">
        <g id="Grupo_959556" data-name="Grupo 959556">
          <path id="Trazado_725955" data-name="Trazado 725955" d="M88.794,149.888l-3.368-8.131a14.453,14.453,0,0,1-1.06-4.445,9.593,9.593,0,0,1,2.735-7.45,11.238,11.238,0,0,1-3.136-4.291l-4.307,1.784a11.22,11.22,0,0,1,.494,7.13,14.463,14.463,0,0,0,.631,9.194l3.368,8.131a3.77,3.77,0,0,0,4.925,2.04l4.643-1.923a3.77,3.77,0,0,1-4.925-2.04Z" transform="translate(-79.658 -125.572)" fill="#92dd7a"/>
        </g>
      </g>
      <g id="Grupo_959559" data-name="Grupo 959559" transform="translate(7.622 12.132)">
        <g id="Grupo_959558" data-name="Grupo 959558">
          <path id="Trazado_725956" data-name="Trazado 725956" d="M68,101.277,63.361,103.2a1.257,1.257,0,0,1-1.642-.68l-.962-2.322a1.257,1.257,0,0,1,.68-1.642l4.643-1.923a1.257,1.257,0,0,1,1.642.68l.962,2.322A1.256,1.256,0,0,1,68,101.277Z" transform="translate(-60.661 -96.537)" fill="#5f7080"/>
        </g>
      </g>
      <g id="Grupo_959561" data-name="Grupo 959561" transform="translate(7.622 13.189)">
        <g id="Grupo_959560" data-name="Grupo 959560">
          <path id="Trazado_725957" data-name="Trazado 725957" d="M64.041,108.919l-.962-2.322a1.257,1.257,0,0,1,.68-1.642l-2.322.962a1.257,1.257,0,0,0-.68,1.642l.962,2.322a1.257,1.257,0,0,0,1.642.68l2.322-.962A1.257,1.257,0,0,1,64.041,108.919Z" transform="translate(-60.661 -104.955)" fill="#495560"/>
        </g>
      </g>
      <g id="Grupo_959563" data-name="Grupo 959563" transform="translate(39.656 19.4)">
        <g id="Grupo_959562" data-name="Grupo 959562">
          <path id="Trazado_725958" data-name="Trazado 725958" d="M323.446,165.777,319.119,163l-2.78-4.328a2.513,2.513,0,0,1,3.554-3.554l4.29,2.818,2.818,4.29a2.513,2.513,0,0,1-3.554,3.554Z" transform="translate(-315.602 -154.38)" fill="#a0f0f2"/>
        </g>
      </g>
      <g id="Grupo_959565" data-name="Grupo 959565" transform="translate(39.656 19.4)">
        <g id="Grupo_959564" data-name="Grupo 959564">
          <path id="Trazado_725959" data-name="Trazado 725959" d="M319.892,155.115a2.513,2.513,0,0,0-3.554,3.554l2.78,4.328.774-.774a2.513,2.513,0,1,1,3.554-3.554l.736-.736Z" transform="translate(-315.602 -154.379)" fill="#7de2e2"/>
        </g>
      </g>
      <g id="Grupo_959567" data-name="Grupo 959567" transform="translate(36.102 22.954)">
        <g id="Grupo_959566" data-name="Grupo 959566">
          <path id="Trazado_725960" data-name="Trazado 725960" d="M295.161,194.061l-7.108-7.108a2.513,2.513,0,1,1,3.554-3.554l7.108,7.108a2.513,2.513,0,1,1-3.554,3.554Z" transform="translate(-287.318 -182.663)" fill="#bdfaff"/>
        </g>
      </g>
      <g id="Grupo_959569" data-name="Grupo 959569" transform="translate(36.102 22.954)">
        <g id="Grupo_959568" data-name="Grupo 959568">
          <path id="Trazado_725961" data-name="Trazado 725961" d="M291.608,186.953a2.513,2.513,0,0,1,3.554,0l-3.554-3.554a2.513,2.513,0,1,0-3.554,3.554l3.554,3.554A2.513,2.513,0,0,1,291.608,186.953Z" transform="translate(-287.318 -182.663)" fill="#7de2e2"/>
        </g>
      </g>
      <g id="Grupo_959571" data-name="Grupo 959571" transform="translate(42.949 13.77)">
        <g id="Grupo_959570" data-name="Grupo 959570">
          <path id="Trazado_725962" data-name="Trazado 725962" d="M354.4,115.681a3.182,3.182,0,0,1,.9-1.827l.98-.98-3.3-3.3-.98.98a3.181,3.181,0,0,1-3.869.489,3.771,3.771,0,0,0-4.573.587l-1.2,1.2a1.885,1.885,0,0,0,0,2.665l8,8a1.885,1.885,0,0,0,2.665,0l1.2-1.2a3.771,3.771,0,0,0,.587-4.573A3.194,3.194,0,0,1,354.4,115.681Z" transform="translate(-341.815 -109.578)" fill="#bdfaff"/>
        </g>
      </g>
      <g id="Grupo_959573" data-name="Grupo 959573" transform="translate(42.949 13.77)">
        <g id="Grupo_959572" data-name="Grupo 959572">
          <path id="Trazado_725963" data-name="Trazado 725963" d="M345.921,116.388l1.2-1.2a3.769,3.769,0,0,1,5.331,0l2.187,2.187a3.178,3.178,0,0,1,.666-3.521l.98-.98-3.3-3.3-.98.98a3.181,3.181,0,0,1-3.869.489,3.771,3.771,0,0,0-4.573.587l-1.2,1.2a1.885,1.885,0,0,0,0,2.665l3.554,3.554A1.885,1.885,0,0,1,345.921,116.388Z" transform="translate(-341.815 -109.578)" fill="#a0f0f2"/>
        </g>
      </g>
      <g id="Grupo_959575" data-name="Grupo 959575" transform="translate(52.773 10.572)">
        <g id="Grupo_959574" data-name="Grupo 959574">
          <path id="Trazado_725964" data-name="Trazado 725964" d="M423.923,91.6l-3.554-3.554a1.257,1.257,0,0,1,0-1.777l1.777-1.777a1.257,1.257,0,0,1,1.777,0l3.554,3.554a1.257,1.257,0,0,1,0,1.777L425.7,91.6A1.257,1.257,0,0,1,423.923,91.6Z" transform="translate(-420.001 -84.123)" fill="#5e9cd3"/>
        </g>
      </g>
      <g id="Grupo_959577" data-name="Grupo 959577" transform="translate(52.773 10.572)">
        <g id="Grupo_959576" data-name="Grupo 959576">
          <path id="Trazado_725965" data-name="Trazado 725965" d="M422.144,88.043l1.777-1.777a1.257,1.257,0,0,1,1.777,0l-1.774-1.774a1.257,1.257,0,0,0-1.777,0l-1.777,1.777a1.257,1.257,0,0,0,0,1.777l1.774,1.774A1.257,1.257,0,0,1,422.144,88.043Z" transform="translate(-420.001 -84.123)" fill="#4a88c6"/>
        </g>
      </g>
      <g id="Grupo_959579" data-name="Grupo 959579" transform="translate(40.636 20.707)">
        <g id="Grupo_959578" data-name="Grupo 959578">
          <path id="Trazado_725966" data-name="Trazado 725966" d="M323.4,174.632l9.846-9.846" transform="translate(-323.401 -164.785)" fill="#a0f0f2"/>
        </g>
      </g>
      <g id="Grupo_959581" data-name="Grupo 959581" transform="translate(0.942 33.848)">
        <g id="Grupo_959580" data-name="Grupo 959580">
          <path id="Trazado_725967" data-name="Trazado 725967" d="M61.445,281.909a8.491,8.491,0,0,0-2.634.418c0-.087.007-.173.007-.26a6.617,6.617,0,0,0-9.368-6.021,11.956,11.956,0,0,0-21.455,0,6.617,6.617,0,0,0-9.368,6.021c0,.087,0,.174.007.26A8.5,8.5,0,1,0,16,298.913H61.445a8.5,8.5,0,0,0,0-17Z" transform="translate(-7.498 -269.368)" fill="#e0ae94"/>
        </g>
      </g>
      <g id="Grupo_959583" data-name="Grupo 959583" transform="translate(0.942 39.927)">
        <g id="Grupo_959582" data-name="Grupo 959582">
          <path id="Trazado_725968" data-name="Trazado 725968" d="M25.248,317.749a6.62,6.62,0,0,0-6.62,6.62c0,.087,0,.174.007.26A8.5,8.5,0,1,0,16,341.215H38.723c-10.616,0-14.92-15.887-10.727-22.867A6.585,6.585,0,0,0,25.248,317.749Z" transform="translate(-7.499 -317.749)" fill="#d6a085"/>
        </g>
      </g>
      <g id="Grupo_959595" data-name="Grupo 959595" transform="translate(17.878 47.913)">
        <g id="Grupo_959588" data-name="Grupo 959588" transform="translate(0 1.732)">
          <g id="Grupo_959585" data-name="Grupo 959585" transform="translate(0 0.02)">
            <g id="Grupo_959584" data-name="Grupo 959584">
              <ellipse id="Elipse_5740" data-name="Elipse 5740" cx="3.851" cy="3.067" rx="3.851" ry="3.067" fill="#fff"/>
            </g>
          </g>
          <g id="Grupo_959587" data-name="Grupo 959587" transform="translate(20.875)">
            <g id="Grupo_959586" data-name="Grupo 959586">
              <ellipse id="Elipse_5741" data-name="Elipse 5741" cx="3.851" cy="3.067" rx="3.851" ry="3.067" fill="#fff"/>
            </g>
          </g>
        </g>
        <g id="Grupo_959590" data-name="Grupo 959590" transform="translate(3.809 0.015)">
          <g id="Grupo_959589" data-name="Grupo 959589">
            <path id="Trazado_725969" data-name="Trazado 725969" d="M174.877,383.921a2.721,2.721,0,0,1-2.05-.932.942.942,0,1,1,1.42-1.24.837.837,0,0,0,.63.287h0a.837.837,0,0,0,.63-.288.942.942,0,1,1,1.422,1.237,2.72,2.72,0,0,1-2.05.936Z" transform="translate(-172.594 -381.424)"/>
          </g>
        </g>
        <g id="Grupo_959592" data-name="Grupo 959592" transform="translate(20.195)">
          <g id="Grupo_959591" data-name="Grupo 959591">
            <path id="Trazado_725970" data-name="Trazado 725970" d="M305.288,383.8a2.72,2.72,0,0,1-2.05-.932.942.942,0,0,1,1.42-1.239.836.836,0,0,0,.63.287h0a.837.837,0,0,0,.63-.288.942.942,0,0,1,1.422,1.237,2.72,2.72,0,0,1-2.05.936Z" transform="translate(-303.006 -381.301)"/>
          </g>
        </g>
        <g id="Grupo_959594" data-name="Grupo 959594" transform="translate(11.278 1.133)">
          <g id="Grupo_959593" data-name="Grupo 959593">
            <path id="Trazado_725971" data-name="Trazado 725971" d="M237.116,393.145a.94.94,0,0,1-.711-.323,1.8,1.8,0,0,0-2.717,0,.942.942,0,1,1-1.421-1.238,3.684,3.684,0,0,1,5.558,0,.942.942,0,0,1-.71,1.561Z" transform="translate(-232.036 -390.318)"/>
          </g>
        </g>
      </g>
      <path id="Trazado_725972" data-name="Trazado 725972" d="M64.333,45.43a10.915,10.915,0,0,0-4.858-9.125,12.156,12.156,0,0,0-4.12-8.476l.674-.674a4.711,4.711,0,0,0,.733-5.717,2.228,2.228,0,0,1-.019-2.246,2.2,2.2,0,0,0,2.4-.478l1.777-1.777a2.2,2.2,0,0,0,0-3.11l-3.554-3.554a2.2,2.2,0,0,0-3.11,0L52.475,12.05a2.2,2.2,0,0,0-.478,2.4,2.228,2.228,0,0,1-2.246-.019,4.712,4.712,0,0,0-5.717.733l-1.2,1.2a2.808,2.808,0,0,0-.828,2c0,.035,0,.069.005.1a3.456,3.456,0,0,0-1.478.406,13.485,13.485,0,0,0-4.013-2.181c-.029-.32-.045-.644-.045-.969a9.471,9.471,0,0,1,.843-4,5.023,5.023,0,0,0,.944-.471,2.248,2.248,0,0,1,1.385-.427,2.193,2.193,0,0,1,.835.136,2.836,2.836,0,0,0,3.162-4.5C40.638,2.96,36.566,1.548,33.2,2.806a1.4,1.4,0,0,1,1.313-.919H36.1A.942.942,0,1,0,36.1,0H34.508a3.288,3.288,0,0,0-3.254,2.849c-3.392-1.335-7.524.068-10.566,3.6a2.835,2.835,0,0,0,3.162,4.5,2.2,2.2,0,0,1,.835-.136,2.25,2.25,0,0,1,1.386.427,5.017,5.017,0,0,0,.944.471,9.47,9.47,0,0,1,.843,4.005c0,.322-.015.643-.044.959a13.432,13.432,0,0,0-6.588,4.872,15.218,15.218,0,0,0-1.741-1.192,10.267,10.267,0,0,1-3.363-3.184,2.2,2.2,0,0,0,.394-2.305l-.962-2.322a2.2,2.2,0,0,0-2.873-1.19L8.038,13.281a2.2,2.2,0,0,0-1.19,2.873l.962,2.322a2.2,2.2,0,0,0,1.91,1.353,10.272,10.272,0,0,1-.127,4.628,15.332,15.332,0,0,0-.481,3.26A12.233,12.233,0,0,0,4.859,36.3,10.916,10.916,0,0,0,0,45.43a11.029,11.029,0,0,0,1.164,4.925,9.44,9.44,0,0,0,8.281,13.98H54.889a9.44,9.44,0,0,0,8.281-13.98,11.024,11.024,0,0,0,1.164-4.925ZM53.808,13.383l1.777-1.777a.314.314,0,0,1,.444,0l3.554,3.554a.314.314,0,0,1,0,.444l-1.777,1.777a.314.314,0,0,1-.444,0l-3.554-3.554a.314.314,0,0,1,0-.444Zm-9.64,4.309,1.2-1.2a2.826,2.826,0,0,1,3.429-.441,4.11,4.11,0,0,0,4.421-.15l2.069,2.069a4.11,4.11,0,0,0-.15,4.421,2.826,2.826,0,0,1-.441,3.429l-1.2,1.2a.943.943,0,0,1-1.333,0l-.443-.443h0l-.917-.917a.942.942,0,0,0-1.333,1.333l.917.916h0a1.571,1.571,0,0,1-2.221,2.221l-7.108-7.108a1.571,1.571,0,0,1,2.22-2.222l3.513,3.513a.942.942,0,0,0,1.333-1.333l-3.956-3.956a.943.943,0,0,1,0-1.333Zm2.665,15.993a1.572,1.572,0,0,1-2.221,0L37.5,26.577a1.571,1.571,0,0,1,2.221-2.221l7.108,7.108A1.572,1.572,0,0,1,46.833,33.685ZM24.685,8.931a4.121,4.121,0,0,0-1.519.264.917.917,0,0,1-.862-.1.955.955,0,0,1-.188-1.412C24.653,4.736,28,3.541,30.65,4.637l.012.005a3.882,3.882,0,0,0,3,0l.015-.006c2.649-1.1,6,.1,8.534,3.045a.955.955,0,0,1-.187,1.412.917.917,0,0,1-.862.1,4.394,4.394,0,0,0-3.874.431,2.462,2.462,0,0,1-2.771,0,4.336,4.336,0,0,0-4.711,0,2.463,2.463,0,0,1-2.771,0,4.08,4.08,0,0,0-2.355-.7Zm4.435,2.958a4.163,4.163,0,0,0,1.661-.646,2.462,2.462,0,0,1,2.771,0,4.162,4.162,0,0,0,1.66.646,11.673,11.673,0,0,0-.622,3.83c0,.156,0,.311.009.467a13.51,13.51,0,0,0-2.434-.221,13.663,13.663,0,0,0-2.434.219c.006-.155.009-.309.009-.464a11.671,11.671,0,0,0-.622-3.83Zm3.046,5.96a11.615,11.615,0,0,1,7,2.349,3.459,3.459,0,0,0-.451,1.817,3.453,3.453,0,0,0-2.546,5.895l7.108,7.108a3.453,3.453,0,0,0,5.895-2.546l.1,0a3.449,3.449,0,0,0,3.45-3.3c.035,0,.069,0,.1,0A2.838,2.838,0,0,0,53.822,29a10.3,10.3,0,0,1,3.787,7.848.942.942,0,0,0,.453.791,9.053,9.053,0,0,1,4.387,7.792,9.156,9.156,0,0,1-.555,3.133,9.435,9.435,0,0,0-8.747-2.954,7.573,7.573,0,0,0-7.5-6.624,7.5,7.5,0,0,0-2.311.361,12.9,12.9,0,0,0-15.02-5.851l-2.376-5.737a15.461,15.461,0,0,0-3.3-4.943,11.563,11.563,0,0,1,9.527-4.966ZM8.759,15.022,13.4,13.1a.309.309,0,0,1,.119-.024.317.317,0,0,1,.121.024.312.312,0,0,1,.17.17l.962,2.322a.314.314,0,0,1-.17.41h0L9.961,17.924a.314.314,0,0,1-.411-.17l-.961-2.322a.315.315,0,0,1,.17-.411ZM1.885,45.43a9.053,9.053,0,0,1,4.387-7.792.942.942,0,0,0,.453-.791,10.346,10.346,0,0,1,2.493-6.58,15.374,15.374,0,0,0,1.046,3.982l.478,1.153a.942.942,0,1,0,1.742-.721L12,33.528a13.6,13.6,0,0,1-.59-8.6,12.157,12.157,0,0,0,.121-5.621L14.472,18.1a12.155,12.155,0,0,0,4.06,3.889,13.6,13.6,0,0,1,5.661,6.495l2.365,5.709A12.888,12.888,0,0,0,21,39.346a7.554,7.554,0,0,0-6.272.762l-.8-1.941a.942.942,0,0,0-1.741.721L13.2,41.349a7.542,7.542,0,0,0-2.017,4.259A9.435,9.435,0,0,0,2.44,48.563a9.158,9.158,0,0,1-.555-3.133Zm53,17.021H9.444A7.559,7.559,0,1,1,11.787,47.7a.942.942,0,0,0,1.234-.932c0-.075-.006-.149-.006-.224a5.684,5.684,0,0,1,5.677-5.677,5.623,5.623,0,0,1,2.356.513.942.942,0,0,0,1.238-.44,11.013,11.013,0,0,1,19.764,0,.942.942,0,0,0,1.238.44,5.624,5.624,0,0,1,2.356-.513,5.684,5.684,0,0,1,5.677,5.677c0,.075,0,.15-.006.224a.942.942,0,0,0,1.234.932A7.56,7.56,0,1,1,54.889,62.45Z"/>
    </g>
  </g>
</svg>
