<svg xmlns="http://www.w3.org/2000/svg" xmlns:xlink="http://www.w3.org/1999/xlink" width="505" height="430" viewBox="0 0 505 430">
  <defs>
    <radialGradient id="radial-gradient" cx="0.5" cy="0.5" r="0.5" gradientUnits="objectBoundingBox">
      <stop offset="0" stop-color="#fff"/>
      <stop offset="1" stop-color="#d9d9d9"/>
    </radialGradient>
  </defs>
  <g id="Grupo_960543" data-name="Grupo 960543" transform="translate(-180 -7901)">
    <path id="Trazado_727746" data-name="Trazado 727746" d="M16,0H489a16,16,0,0,1,16,16V414a16,16,0,0,1-16,16H16A16,16,0,0,1,0,414V16A16,16,0,0,1,16,0Z" transform="translate(180 7901)" fill="#fff"/>
    <path id="Trazado_727750" data-name="Trazado 727750" d="M0,258.027a4.646,4.646,0,0,1,.042-.627H0V0H210V257.4h-.041a4.8,4.8,0,0,1,.041.627C210,270.164,162.992,280,105,280S0,270.164,0,258.027Z" transform="translate(350 7985)" fill="#eae7e7"/>
    <path id="Trazado_727751" data-name="Trazado 727751" d="M105,0c57.99,0,105,10.074,105,22.5S162.99,45,105,45,0,34.926,0,22.5,47.01,0,105,0Z" transform="translate(350 7966)" fill="#f6f6f6"/>
    <path id="Trazado_727752" data-name="Trazado 727752" d="M.465,172.754H0V0H210V172.754h-.465C204.529,184.112,159.638,193,105,193S5.471,184.112.465,172.754Z" transform="translate(350 8073)" fill="#96c3eb"/>
    <path id="Trazado_727753" data-name="Trazado 727753" d="M105,0c57.99,0,105,10.074,105,22.5S162.99,45,105,45,0,34.926,0,22.5,47.01,0,105,0Z" transform="translate(350 8051)" fill="#c4f0fe"/>
    <path id="Trazado_727754" data-name="Trazado 727754" d="M7,0A7,7,0,1,1,0,7,7,7,0,0,1,7,0Z" transform="translate(400 8106)" fill="url(#radial-gradient)"/>
    <path id="Trazado_727755" data-name="Trazado 727755" d="M7,0A7,7,0,1,1,0,7,7,7,0,0,1,7,0Z" transform="translate(430 8106)" fill="url(#radial-gradient)"/>
    <path id="Trazado_727756" data-name="Trazado 727756" d="M7,0A7,7,0,1,1,0,7,7,7,0,0,1,7,0Z" transform="translate(448 8119)" fill="url(#radial-gradient)"/>
    <path id="Trazado_727757" data-name="Trazado 727757" d="M7,0A7,7,0,1,1,0,7,7,7,0,0,1,7,0Z" transform="translate(466 8105)" fill="url(#radial-gradient)"/>
    <path id="Trazado_727758" data-name="Trazado 727758" d="M7,0A7,7,0,1,1,0,7,7,7,0,0,1,7,0Z" transform="translate(459 8067)" fill="url(#radial-gradient)"/>
    <path id="Trazado_727759" data-name="Trazado 727759" d="M7,0A7,7,0,1,1,0,7,7,7,0,0,1,7,0Z" transform="translate(402 8067)" fill="url(#radial-gradient)"/>
    <path id="Trazado_727760" data-name="Trazado 727760" d="M7,0A7,7,0,1,1,0,7,7,7,0,0,1,7,0Z" transform="translate(395 8063)" fill="url(#radial-gradient)"/>
    <path id="Trazado_727761" data-name="Trazado 727761" d="M7,0A7,7,0,1,1,0,7,7,7,0,0,1,7,0Z" transform="translate(434 8057)" fill="url(#radial-gradient)"/>
    <path id="Trazado_727762" data-name="Trazado 727762" d="M7,0A7,7,0,1,1,0,7,7,7,0,0,1,7,0Z" transform="translate(439 8081)" fill="url(#radial-gradient)"/>
    <path id="Trazado_727763" data-name="Trazado 727763" d="M7,0A7,7,0,1,1,0,7,7,7,0,0,1,7,0Z" transform="translate(417 8078)" fill="url(#radial-gradient)"/>
    <path id="Trazado_727764" data-name="Trazado 727764" d="M7,0A7,7,0,1,1,0,7,7,7,0,0,1,7,0Z" transform="translate(507 8077)" fill="url(#radial-gradient)"/>
    <path id="Trazado_727765" data-name="Trazado 727765" d="M7,0A7,7,0,1,1,0,7,7,7,0,0,1,7,0Z" transform="translate(503 8063)" fill="url(#radial-gradient)"/>
    <path id="Trazado_727766" data-name="Trazado 727766" d="M7,0A7,7,0,1,1,0,7,7,7,0,0,1,7,0Z" transform="translate(365 8069)" fill="url(#radial-gradient)"/>
    <path id="Trazado_727767" data-name="Trazado 727767" d="M7,0A7,7,0,1,1,0,7,7,7,0,0,1,7,0Z" transform="translate(368 8108)" fill="url(#radial-gradient)"/>
    <path id="Trazado_727768" data-name="Trazado 727768" d="M7,0A7,7,0,1,1,0,7,7,7,0,0,1,7,0Z" transform="translate(372 8148)" fill="url(#radial-gradient)"/>
    <path id="Trazado_727769" data-name="Trazado 727769" d="M7,0A7,7,0,1,1,0,7,7,7,0,0,1,7,0Z" transform="translate(425 8155)" fill="url(#radial-gradient)"/>
    <path id="Trazado_727770" data-name="Trazado 727770" d="M7,0A7,7,0,1,1,0,7,7,7,0,0,1,7,0Z" transform="translate(406 8134)" fill="url(#radial-gradient)"/>
    <path id="Trazado_727771" data-name="Trazado 727771" d="M7,0A7,7,0,1,1,0,7,7,7,0,0,1,7,0Z" transform="translate(382 8123)" fill="url(#radial-gradient)"/>
    <path id="Trazado_727772" data-name="Trazado 727772" d="M7,0A7,7,0,1,1,0,7,7,7,0,0,1,7,0Z" transform="translate(402 8185)" fill="url(#radial-gradient)"/>
    <path id="Trazado_727773" data-name="Trazado 727773" d="M7,0A7,7,0,1,1,0,7,7,7,0,0,1,7,0Z" transform="translate(372 8164)" fill="url(#radial-gradient)"/>
    <path id="Trazado_727774" data-name="Trazado 727774" d="M7,0A7,7,0,1,1,0,7,7,7,0,0,1,7,0Z" transform="translate(400 8159)" fill="url(#radial-gradient)"/>
    <path id="Trazado_727775" data-name="Trazado 727775" d="M7,0A7,7,0,1,1,0,7,7,7,0,0,1,7,0Z" transform="translate(362 8186)" fill="url(#radial-gradient)"/>
    <path id="Trazado_727776" data-name="Trazado 727776" d="M7,0A7,7,0,1,1,0,7,7,7,0,0,1,7,0Z" transform="translate(360 8218)" fill="url(#radial-gradient)"/>
    <path id="Trazado_727777" data-name="Trazado 727777" d="M7,0A7,7,0,1,1,0,7,7,7,0,0,1,7,0Z" transform="translate(402 8216)" fill="url(#radial-gradient)"/>
    <path id="Trazado_727778" data-name="Trazado 727778" d="M7,0A7,7,0,1,1,0,7,7,7,0,0,1,7,0Z" transform="translate(389 8195)" fill="url(#radial-gradient)"/>
    <path id="Trazado_727779" data-name="Trazado 727779" d="M7,0A7,7,0,1,1,0,7,7,7,0,0,1,7,0Z" transform="translate(383 8232)" fill="url(#radial-gradient)"/>
    <path id="Trazado_727780" data-name="Trazado 727780" d="M7,0A7,7,0,1,1,0,7,7,7,0,0,1,7,0Z" transform="translate(421 8193)" fill="url(#radial-gradient)"/>
    <path id="Trazado_727781" data-name="Trazado 727781" d="M7,0A7,7,0,1,1,0,7,7,7,0,0,1,7,0Z" transform="translate(448 8162)" fill="url(#radial-gradient)"/>
    <path id="Trazado_727782" data-name="Trazado 727782" d="M7,0A7,7,0,1,1,0,7,7,7,0,0,1,7,0Z" transform="translate(458 8141)" fill="url(#radial-gradient)"/>
    <path id="Trazado_727783" data-name="Trazado 727783" d="M7,0A7,7,0,1,1,0,7,7,7,0,0,1,7,0Z" transform="translate(493 8153)" fill="url(#radial-gradient)"/>
    <path id="Trazado_727784" data-name="Trazado 727784" d="M7,0A7,7,0,1,1,0,7,7,7,0,0,1,7,0Z" transform="translate(482 8131)" fill="url(#radial-gradient)"/>
    <path id="Trazado_727785" data-name="Trazado 727785" d="M7,0A7,7,0,1,1,0,7,7,7,0,0,1,7,0Z" transform="translate(508 8108)" fill="url(#radial-gradient)"/>
    <path id="Trazado_727786" data-name="Trazado 727786" d="M6.5,0C10.09,0,13,3.358,13,7.5S10.09,15,6.5,15,0,11.642,0,7.5,2.91,0,6.5,0Z" transform="translate(535 8093)" fill="url(#radial-gradient)"/>
    <path id="Trazado_727787" data-name="Trazado 727787" d="M6.5,0A6.764,6.764,0,0,1,13,7a6.764,6.764,0,0,1-6.5,7A6.764,6.764,0,0,1,0,7,6.764,6.764,0,0,1,6.5,0Z" transform="translate(535 8145)" fill="url(#radial-gradient)"/>
    <path id="Trazado_727788" data-name="Trazado 727788" d="M7,0A7,7,0,1,1,0,7,7,7,0,0,1,7,0Z" transform="translate(535 8120)" fill="url(#radial-gradient)"/>
    <path id="Trazado_727789" data-name="Trazado 727789" d="M7,0A7,7,0,1,1,0,7,7,7,0,0,1,7,0Z" transform="translate(528 8067)" fill="url(#radial-gradient)"/>
    <path id="Trazado_727790" data-name="Trazado 727790" d="M7,0A7,7,0,1,1,0,7,7,7,0,0,1,7,0Z" transform="translate(480 8063)" fill="url(#radial-gradient)"/>
    <path id="Trazado_727791" data-name="Trazado 727791" d="M7,0A7,7,0,1,1,0,7,7,7,0,0,1,7,0Z" transform="translate(501 8134)" fill="url(#radial-gradient)"/>
    <path id="Trazado_727792" data-name="Trazado 727792" d="M7,0A7,7,0,1,1,0,7,7,7,0,0,1,7,0Z" transform="translate(511 8186)" fill="url(#radial-gradient)"/>
    <path id="Trazado_727793" data-name="Trazado 727793" d="M7,0A7,7,0,1,1,0,7,7,7,0,0,1,7,0Z" transform="translate(528 8169)" fill="url(#radial-gradient)"/>
    <path id="Trazado_727794" data-name="Trazado 727794" d="M7,0A7,7,0,1,1,0,7,7,7,0,0,1,7,0Z" transform="translate(528 8210)" fill="url(#radial-gradient)"/>
    <path id="Trazado_727795" data-name="Trazado 727795" d="M7,0A7,7,0,1,1,0,7,7,7,0,0,1,7,0Z" transform="translate(486 8224)" fill="url(#radial-gradient)"/>
    <path id="Trazado_727796" data-name="Trazado 727796" d="M7,0A7,7,0,1,1,0,7,7,7,0,0,1,7,0Z" transform="translate(514 8230)" fill="url(#radial-gradient)"/>
    <path id="Trazado_727797" data-name="Trazado 727797" d="M7,0A7,7,0,1,1,0,7,7,7,0,0,1,7,0Z" transform="translate(503 8210)" fill="url(#radial-gradient)"/>
    <path id="Trazado_727798" data-name="Trazado 727798" d="M7,0A7,7,0,1,1,0,7,7,7,0,0,1,7,0Z" transform="translate(490 8191)" fill="url(#radial-gradient)"/>
    <path id="Trazado_727799" data-name="Trazado 727799" d="M7,0A7,7,0,1,1,0,7,7,7,0,0,1,7,0Z" transform="translate(463 8220)" fill="url(#radial-gradient)"/>
    <path id="Trazado_727800" data-name="Trazado 727800" d="M7,0A7,7,0,1,1,0,7,7,7,0,0,1,7,0Z" transform="translate(439 8244)" fill="url(#radial-gradient)"/>
    <path id="Trazado_727801" data-name="Trazado 727801" d="M7,0A7,7,0,1,1,0,7,7,7,0,0,1,7,0Z" transform="translate(477 8244)" fill="url(#radial-gradient)"/>
    <path id="Trazado_727802" data-name="Trazado 727802" d="M7,0A7,7,0,1,1,0,7,7,7,0,0,1,7,0Z" transform="translate(470 8204)" fill="url(#radial-gradient)"/>
    <path id="Trazado_727803" data-name="Trazado 727803" d="M7,0A7,7,0,1,1,0,7,7,7,0,0,1,7,0Z" transform="translate(462 8183)" fill="url(#radial-gradient)"/>
    <path id="Trazado_727804" data-name="Trazado 727804" d="M7,0A7,7,0,1,1,0,7,7,7,0,0,1,7,0Z" transform="translate(427 8232)" fill="url(#radial-gradient)"/>
    <path id="Trazado_727805" data-name="Trazado 727805" d="M7,0A7,7,0,1,1,0,7,7,7,0,0,1,7,0Z" transform="translate(441 8207)" fill="url(#radial-gradient)"/>
    <path id="Trazado_727596" data-name="Trazado 727596" d="M588.634,7987h26.684v184.673H588.634" transform="translate(-21.809 75.643)" fill="none" stroke="#34bc85" stroke-width="3"/>
    <path id="Trazado_727747" data-name="Trazado 727747" d="M5.715,0H3.4V-7.355l-2.27.663v-1.75L5.5-9.953h.212Zm9.03-1.846h4.177V0H12.346V-9.953h2.4ZM22.258,0H19.947V-7.4h2.311ZM19.811-9.311a1.037,1.037,0,0,1,.355-.812,1.336,1.336,0,0,1,.923-.316,1.336,1.336,0,0,1,.923.316,1.037,1.037,0,0,1,.355.812,1.037,1.037,0,0,1-.355.812,1.336,1.336,0,0,1-.923.316,1.336,1.336,0,0,1-.923-.316A1.037,1.037,0,0,1,19.811-9.311Zm6.549.075V-7.4h1.217v1.6H26.359v3.384a.864.864,0,0,0,.15.581.807.807,0,0,0,.595.164,3.38,3.38,0,0,0,.574-.041V-.062a4.252,4.252,0,0,1-1.3.2,2.413,2.413,0,0,1-1.757-.561,2.3,2.3,0,0,1-.567-1.7V-5.8h-.943V-7.4h.943V-9.235Zm6.6,3.924L32.2-5.366a1.363,1.363,0,0,0-1.395.684V0H28.5V-7.4h2.16l.075.95a1.784,1.784,0,0,1,1.62-1.087A2.247,2.247,0,0,1,33-7.451Zm.294,1.545a4.366,4.366,0,0,1,.431-1.972,3.08,3.08,0,0,1,1.237-1.33,3.726,3.726,0,0,1,1.894-.465A3.4,3.4,0,0,1,39.43-6.5a3.948,3.948,0,0,1,.957,2.8v.082a3.83,3.83,0,0,1-.96,2.745,3.41,3.41,0,0,1-2.6,1.015A3.449,3.449,0,0,1,34.289-.81a3.7,3.7,0,0,1-1.032-2.567Zm2.3.144a2.752,2.752,0,0,0,.321,1.5,1.07,1.07,0,0,0,.95.479q1.23,0,1.258-1.894v-.232q0-1.989-1.271-1.989-1.155,0-1.251,1.716ZM5.715,15H3.4V7.645l-2.27.663V6.558L5.5,5.047h.212Zm9.912-4.067a4.752,4.752,0,0,1-.906,3.11,3.13,3.13,0,0,1-2.553,1.094,3.147,3.147,0,0,1-2.57-1.1,4.745,4.745,0,0,1-.909-3.1V9.114A4.752,4.752,0,0,1,9.594,6a3.138,3.138,0,0,1,2.56-1.094,3.139,3.139,0,0,1,2.563,1.1,4.757,4.757,0,0,1,.909,3.11Zm-2.3-2.112a3.55,3.55,0,0,0-.28-1.6.937.937,0,0,0-.889-.53.915.915,0,0,0-.865.492A3.344,3.344,0,0,0,11,8.67v2.543a3.577,3.577,0,0,0,.28,1.63.94.94,0,0,0,.889.516.928.928,0,0,0,.868-.5,3.414,3.414,0,0,0,.287-1.576Zm10.411,2.112a4.752,4.752,0,0,1-.906,3.11,3.13,3.13,0,0,1-2.553,1.094,3.147,3.147,0,0,1-2.57-1.1,4.745,4.745,0,0,1-.909-3.1V9.114A4.752,4.752,0,0,1,17.7,6a3.138,3.138,0,0,1,2.56-1.094,3.139,3.139,0,0,1,2.563,1.1,4.757,4.757,0,0,1,.909,3.11Zm-2.3-2.112a3.55,3.55,0,0,0-.28-1.6.937.937,0,0,0-.889-.53.915.915,0,0,0-.865.492,3.344,3.344,0,0,0-.291,1.49v2.543a3.577,3.577,0,0,0,.28,1.63.94.94,0,0,0,.889.516.928.928,0,0,0,.868-.5,3.414,3.414,0,0,0,.287-1.576Zm10.411,2.112a4.752,4.752,0,0,1-.906,3.11,3.13,3.13,0,0,1-2.553,1.094,3.147,3.147,0,0,1-2.57-1.1,4.745,4.745,0,0,1-.909-3.1V9.114A4.752,4.752,0,0,1,25.809,6a3.138,3.138,0,0,1,2.56-1.094,3.139,3.139,0,0,1,2.563,1.1,4.757,4.757,0,0,1,.909,3.11Zm-2.3-2.112a3.55,3.55,0,0,0-.28-1.6.937.937,0,0,0-.889-.53.915.915,0,0,0-.865.492,3.344,3.344,0,0,0-.291,1.49v2.543a3.577,3.577,0,0,0,.28,1.63.94.94,0,0,0,.889.516.928.928,0,0,0,.868-.5,3.414,3.414,0,0,0,.287-1.576Zm9.2-1.217.075.868a2.543,2.543,0,0,1,2.112-1A1.872,1.872,0,0,1,42.82,8.581a2.462,2.462,0,0,1,2.174-1.114q2.249,0,2.311,2.721V15H44.994V10.331A1.41,1.41,0,0,0,44.8,9.5a.815.815,0,0,0-.7-.26,1.091,1.091,0,0,0-1.019.608l.007.1V15H40.783V10.345A1.482,1.482,0,0,0,40.6,9.5a.812.812,0,0,0-.7-.26,1.1,1.1,0,0,0-1.012.608V15h-2.3V7.6Zm12.387,5.551H55.3V15H48.727V5.047h2.4Z" transform="translate(612 8146)" fill="#12263f"/>
    <path id="Trazado_727748" data-name="Trazado 727748" d="M-38.568-3.849a2.433,2.433,0,0,1-1.668.67,2.693,2.693,0,0,1-2.146-.916,3.609,3.609,0,0,1-.793-2.447,3.673,3.673,0,0,1,.444-1.777,3.334,3.334,0,0,1,1.248-1.3A3.4,3.4,0,0,1-39.71-10.1a3.3,3.3,0,0,1,1.781.5,3.337,3.337,0,0,1,1.241,1.4,4.814,4.814,0,0,1,.458,2.088v.882a5.983,5.983,0,0,1-.646,2.857A4.46,4.46,0,0,1-38.719-.513a5.757,5.757,0,0,1-2.789.649h-.144V-1.709l.438-.007Q-38.835-1.832-38.568-3.849Zm-1.046-.991a1.122,1.122,0,0,0,1.08-.649v-.957a2.488,2.488,0,0,0-.321-1.415,1.008,1.008,0,0,0-.868-.458.952.952,0,0,0-.813.52,2.308,2.308,0,0,0-.328,1.258A2.069,2.069,0,0,0-40.53-5.3,1.071,1.071,0,0,0-39.614-4.84Zm4.751-.022.608-5.091h5.817v1.777h-3.944l-.226,1.991a2.717,2.717,0,0,1,.646-.254,2.947,2.947,0,0,1,.783-.11,2.92,2.92,0,0,1,2.28.878,3.538,3.538,0,0,1,.8,2.464,3.532,3.532,0,0,1-.427,1.733,2.937,2.937,0,0,1-1.2,1.193,3.788,3.788,0,0,1-1.825.417,4.076,4.076,0,0,1-1.757-.386A3.152,3.152,0,0,1-34.6-1.308a2.573,2.573,0,0,1-.458-1.52h2.311a1.307,1.307,0,0,0,.349.866,1.107,1.107,0,0,0,.827.321q1.162,0,1.162-1.719,0-1.589-1.422-1.589a1.419,1.419,0,0,0-1.2.518Zm14.882.794a4.752,4.752,0,0,1-.906,3.11A3.13,3.13,0,0,1-23.44.137a3.147,3.147,0,0,1-2.57-1.1,4.745,4.745,0,0,1-.909-3.1V-5.886A4.752,4.752,0,0,1-26.014-9a3.138,3.138,0,0,1,2.56-1.094,3.139,3.139,0,0,1,2.563,1.1,4.757,4.757,0,0,1,.909,3.11Zm-2.3-2.112a3.55,3.55,0,0,0-.28-1.6.937.937,0,0,0-.889-.53.915.915,0,0,0-.865.492,3.344,3.344,0,0,0-.291,1.49v2.543a3.577,3.577,0,0,0,.28,1.63.94.94,0,0,0,.889.516.928.928,0,0,0,.868-.5,3.414,3.414,0,0,0,.287-1.576Zm9.2-1.217.075.868a2.543,2.543,0,0,1,2.112-1A1.872,1.872,0,0,1-9-6.419,2.462,2.462,0,0,1-6.829-7.533q2.249,0,2.311,2.721V0H-6.829V-4.669A1.41,1.41,0,0,0-7.021-5.5a.815.815,0,0,0-.7-.26,1.091,1.091,0,0,0-1.019.608l.007.1V0H-11.04V-4.655a1.482,1.482,0,0,0-.185-.841.812.812,0,0,0-.7-.26,1.1,1.1,0,0,0-1.012.608V0h-2.3V-7.4ZM-.772,0H-3.083V-10.5H-.772ZM-49.437,11.247a4.518,4.518,0,0,1,.759-2.769A2.5,2.5,0,0,1-46.56,7.467a2.124,2.124,0,0,1,1.668.779V4.5h2.311V15h-2.071l-.116-.793a2.181,2.181,0,0,1-1.8.93,2.493,2.493,0,0,1-2.092-1.012A4.662,4.662,0,0,1-49.437,11.247Zm2.3.144q0,1.969,1.148,1.969a1.134,1.134,0,0,0,1.094-.643V9.9a1.1,1.1,0,0,0-1.08-.656q-1.066,0-1.155,1.723Zm9.44,3.746a3.8,3.8,0,0,1-2.755-1.015A3.506,3.506,0,0,1-41.5,11.479v-.191a4.542,4.542,0,0,1,.42-2,3.076,3.076,0,0,1,1.227-1.343,3.7,3.7,0,0,1,1.914-.475,3.2,3.2,0,0,1,2.461.967,3.8,3.8,0,0,1,.9,2.7v.9h-4.58a1.66,1.66,0,0,0,.54.978,1.607,1.607,0,0,0,1.08.355,2.07,2.07,0,0,0,1.709-.766l1.053,1.244a2.943,2.943,0,0,1-1.22.947A4.123,4.123,0,0,1-37.693,15.137Zm-.26-5.893q-1.012,0-1.2,1.34h2.324v-.178a1.141,1.141,0,0,0-.28-.858A1.115,1.115,0,0,0-37.953,9.244ZM-26,15a2.6,2.6,0,0,1-.219-.663,2.142,2.142,0,0,1-1.777.8,2.624,2.624,0,0,1-1.777-.632,2.013,2.013,0,0,1-.731-1.589,2.069,2.069,0,0,1,.889-1.818,4.527,4.527,0,0,1,2.584-.615h.711V10.09q0-1.023-.882-1.023a.721.721,0,0,0-.82.811h-2.3a2.065,2.065,0,0,1,.913-1.741,3.835,3.835,0,0,1,2.328-.669,3.363,3.363,0,0,1,2.235.69,2.4,2.4,0,0,1,.841,1.894v3.274a3.353,3.353,0,0,0,.314,1.559V15Zm-1.442-1.5a1.285,1.285,0,0,0,.714-.185,1.157,1.157,0,0,0,.407-.417V11.712h-.67q-1.2,0-1.2,1.08a.659.659,0,0,0,.212.509A.767.767,0,0,0-27.439,13.5ZM-23,11.247a4.994,4.994,0,0,1,.369-1.982,2.972,2.972,0,0,1,1.06-1.33,2.793,2.793,0,0,1,1.606-.468,2.221,2.221,0,0,1,1.8.779l.082-.643h2.092V14.72a3.118,3.118,0,0,1-.455,1.7,2.917,2.917,0,0,1-1.316,1.107,4.837,4.837,0,0,1-2,.386,4.173,4.173,0,0,1-1.576-.308,2.844,2.844,0,0,1-1.166-.8l.964-1.354a2.112,2.112,0,0,0,1.7.759,1.372,1.372,0,0,0,1.531-1.572v-.232a2.163,2.163,0,0,1-1.675.731A2.673,2.673,0,0,1-22.169,14.1,4.291,4.291,0,0,1-23,11.329Zm2.311.144a2.631,2.631,0,0,0,.342,1.439,1.078,1.078,0,0,0,.957.53,1.224,1.224,0,0,0,1.087-.5V9.75a1.193,1.193,0,0,0-1.073-.506,1.086,1.086,0,0,0-.964.55A3,3,0,0,0-20.692,11.391Zm10.418,2.81a2.375,2.375,0,0,1-1.976.937,2.329,2.329,0,0,1-1.842-.708,2.976,2.976,0,0,1-.625-2.034V7.6h2.3v4.806a.828.828,0,0,0,.923.95,1.2,1.2,0,0,0,1.128-.567V7.6h2.317V15h-2.16Zm7.656.8a2.6,2.6,0,0,1-.219-.663,2.142,2.142,0,0,1-1.777.8A2.624,2.624,0,0,1-6.392,14.5a2.013,2.013,0,0,1-.731-1.589A2.069,2.069,0,0,1-6.234,11.1a4.527,4.527,0,0,1,2.584-.615h.711V10.09q0-1.023-.882-1.023a.721.721,0,0,0-.82.811h-2.3a2.065,2.065,0,0,1,.913-1.741,3.835,3.835,0,0,1,2.328-.669,3.363,3.363,0,0,1,2.235.69,2.4,2.4,0,0,1,.841,1.894v3.274a3.353,3.353,0,0,0,.314,1.559V15Zm-1.442-1.5a1.285,1.285,0,0,0,.714-.185,1.157,1.157,0,0,0,.407-.417V11.712h-.67q-1.2,0-1.2,1.08A.659.659,0,0,0-4.6,13.3.767.767,0,0,0-4.061,13.5Z" transform="translate(320 8172)" fill="#12263f"/>
    <path id="Trazado_727749" data-name="Trazado 727749" d="M-130.847-4.862l.608-5.091h5.817v1.777h-3.944l-.226,1.991a2.717,2.717,0,0,1,.646-.254,2.947,2.947,0,0,1,.783-.11,2.92,2.92,0,0,1,2.28.878,3.538,3.538,0,0,1,.8,2.464,3.532,3.532,0,0,1-.427,1.733,2.936,2.936,0,0,1-1.2,1.193,3.788,3.788,0,0,1-1.825.417,4.076,4.076,0,0,1-1.757-.386,3.152,3.152,0,0,1-1.285-1.059,2.573,2.573,0,0,1-.458-1.52h2.311a1.307,1.307,0,0,0,.349.866,1.107,1.107,0,0,0,.827.321q1.162,0,1.162-1.719,0-1.589-1.422-1.589a1.419,1.419,0,0,0-1.2.518Zm14.882.794a4.752,4.752,0,0,1-.906,3.11A3.13,3.13,0,0,1-119.424.137a3.147,3.147,0,0,1-2.57-1.1,4.745,4.745,0,0,1-.909-3.1V-5.886A4.752,4.752,0,0,1-122-9a3.138,3.138,0,0,1,2.56-1.094,3.139,3.139,0,0,1,2.563,1.1,4.757,4.757,0,0,1,.909,3.11Zm-2.3-2.112a3.55,3.55,0,0,0-.28-1.6.937.937,0,0,0-.889-.53.915.915,0,0,0-.865.492,3.344,3.344,0,0,0-.291,1.49v2.543a3.577,3.577,0,0,0,.28,1.63.94.94,0,0,0,.889.516.928.928,0,0,0,.868-.5,3.414,3.414,0,0,0,.287-1.576Zm9.2-1.217.075.868a2.543,2.543,0,0,1,2.112-1,1.872,1.872,0,0,1,1.894,1.114,2.462,2.462,0,0,1,2.174-1.114q2.249,0,2.311,2.721V0h-2.311V-4.669A1.41,1.41,0,0,0-103-5.5a.815.815,0,0,0-.7-.26,1.091,1.091,0,0,0-1.019.608l.007.1V0h-2.311V-4.655a1.482,1.482,0,0,0-.185-.841.812.812,0,0,0-.7-.26,1.1,1.1,0,0,0-1.012.608V0h-2.3V-7.4ZM-96.756,0h-2.311V-10.5h2.311Zm4.614-3.753a4.518,4.518,0,0,1,.759-2.769,2.5,2.5,0,0,1,2.119-1.012,2.124,2.124,0,0,1,1.668.779V-10.5h2.311V0h-2.071l-.116-.793a2.181,2.181,0,0,1-1.8.93A2.493,2.493,0,0,1-91.369-.875,4.661,4.661,0,0,1-92.142-3.753Zm2.3.144q0,1.969,1.148,1.969A1.134,1.134,0,0,0-87.6-2.283V-5.1a1.1,1.1,0,0,0-1.08-.656q-1.066,0-1.155,1.723ZM-80.4.137A3.8,3.8,0,0,1-83.152-.878a3.506,3.506,0,0,1-1.053-2.642v-.191a4.542,4.542,0,0,1,.42-2,3.076,3.076,0,0,1,1.227-1.343,3.7,3.7,0,0,1,1.914-.475,3.2,3.2,0,0,1,2.461.967,3.8,3.8,0,0,1,.9,2.7v.9h-4.58A1.66,1.66,0,0,0-81.32-2a1.607,1.607,0,0,0,1.08.355,2.07,2.07,0,0,0,1.709-.766l1.053,1.244a2.943,2.943,0,0,1-1.22.947A4.124,4.124,0,0,1-80.4.137Zm-.26-5.893q-1.012,0-1.2,1.34h2.324v-.178a1.141,1.141,0,0,0-.28-.858A1.115,1.115,0,0,0-80.657-5.756ZM-64.442,0h-2.386V-4.156h-3.534V0h-2.4V-9.953h2.4V-6h3.534V-9.953h2.386ZM-60.6,0h-2.311V-7.4H-60.6Zm-2.447-9.311a1.037,1.037,0,0,1,.355-.812,1.336,1.336,0,0,1,.923-.316,1.336,1.336,0,0,1,.923.316,1.037,1.037,0,0,1,.355.812,1.037,1.037,0,0,1-.355.812,1.336,1.336,0,0,1-.923.316,1.336,1.336,0,0,1-.923-.316A1.037,1.037,0,0,1-63.048-9.311Zm10.732,5.667a4.46,4.46,0,0,1-.776,2.751,2.488,2.488,0,0,1-2.1,1.029,2.132,2.132,0,0,1-1.675-.745V2.844h-2.3V-7.4h2.153l.068.684a2.132,2.132,0,0,1,1.743-.82,2.508,2.508,0,0,1,2.126,1.008,4.515,4.515,0,0,1,.759,2.772Zm-2.3-.144q0-1.969-1.148-1.969a1.084,1.084,0,0,0-1.094.588v2.912a1.119,1.119,0,0,0,1.107.615q1.1,0,1.135-1.9Zm3.028.021a4.366,4.366,0,0,1,.431-1.972,3.08,3.08,0,0,1,1.237-1.33,3.726,3.726,0,0,1,1.894-.465A3.4,3.4,0,0,1-45.411-6.5a3.948,3.948,0,0,1,.957,2.8v.082a3.83,3.83,0,0,1-.96,2.745,3.41,3.41,0,0,1-2.6,1.015A3.449,3.449,0,0,1-50.552-.81a3.7,3.7,0,0,1-1.032-2.567Zm2.3.144a2.752,2.752,0,0,0,.321,1.5,1.07,1.07,0,0,0,.95.479q1.23,0,1.258-1.894v-.232q0-1.989-1.271-1.989-1.155,0-1.251,1.716Zm8.976,1.982A1.025,1.025,0,0,0-39.56-1.9a.965.965,0,0,0,.26-.735h2.16a2.557,2.557,0,0,1-.872,2,3.242,3.242,0,0,1-2.246.779A3.282,3.282,0,0,1-42.8-.875a3.986,3.986,0,0,1-.93-2.8v-.1a4.505,4.505,0,0,1,.414-1.979,3.011,3.011,0,0,1,1.193-1.319,3.557,3.557,0,0,1,1.846-.461,3.2,3.2,0,0,1,2.29.8,2.837,2.837,0,0,1,.848,2.167H-39.3a1.265,1.265,0,0,0-.28-.882.967.967,0,0,0-.752-.308q-.9,0-1.046,1.142a8.055,8.055,0,0,0-.048,1,3.164,3.164,0,0,0,.267,1.545A.923.923,0,0,0-40.312-1.641ZM-33.735,0h-2.311V-10.5h2.311Zm1.128-3.767a4.366,4.366,0,0,1,.431-1.972,3.08,3.08,0,0,1,1.237-1.33,3.726,3.726,0,0,1,1.894-.465A3.4,3.4,0,0,1-26.428-6.5a3.948,3.948,0,0,1,.957,2.8v.082a3.83,3.83,0,0,1-.96,2.745,3.41,3.41,0,0,1-2.6,1.015A3.449,3.449,0,0,1-31.568-.81,3.7,3.7,0,0,1-32.6-3.377Zm2.3.144a2.752,2.752,0,0,0,.321,1.5,1.07,1.07,0,0,0,.95.479q1.23,0,1.258-1.894v-.232q0-1.989-1.271-1.989-1.155,0-1.251,1.716Zm10.322-1.688-.759-.055a1.363,1.363,0,0,0-1.395.684V0h-2.3V-7.4h2.16l.075.95a1.784,1.784,0,0,1,1.62-1.087,2.247,2.247,0,0,1,.643.082ZM-16.721,0h-2.311V-7.4h2.311Zm-2.447-9.311a1.037,1.037,0,0,1,.355-.812,1.336,1.336,0,0,1,.923-.316,1.336,1.336,0,0,1,.923.316,1.037,1.037,0,0,1,.355.812,1.037,1.037,0,0,1-.355.812,1.336,1.336,0,0,1-.923.316,1.336,1.336,0,0,1-.923-.316A1.037,1.037,0,0,1-19.168-9.311Zm6.549.075V-7.4H-11.4v1.6h-1.217v3.384a.864.864,0,0,0,.15.581.807.807,0,0,0,.595.164,3.38,3.38,0,0,0,.574-.041V-.062a4.252,4.252,0,0,1-1.3.2,2.413,2.413,0,0,1-1.757-.561,2.3,2.3,0,0,1-.567-1.7V-5.8h-.943V-7.4h.943V-9.235Zm1.627,5.469a4.366,4.366,0,0,1,.431-1.972,3.08,3.08,0,0,1,1.237-1.33,3.726,3.726,0,0,1,1.894-.465A3.4,3.4,0,0,1-4.812-6.5a3.948,3.948,0,0,1,.957,2.8v.082a3.83,3.83,0,0,1-.96,2.745A3.41,3.41,0,0,1-7.417.137,3.449,3.449,0,0,1-9.953-.81a3.7,3.7,0,0,1-1.032-2.567Zm2.3.144a2.752,2.752,0,0,0,.321,1.5,1.07,1.07,0,0,0,.95.479q1.23,0,1.258-1.894v-.232q0-1.989-1.271-1.989-1.155,0-1.251,1.716ZM-90,11.247a4.518,4.518,0,0,1,.759-2.769,2.5,2.5,0,0,1,2.119-1.012,2.124,2.124,0,0,1,1.668.779V4.5h2.311V15H-85.21l-.116-.793a2.181,2.181,0,0,1-1.8.93,2.493,2.493,0,0,1-2.092-1.012A4.661,4.661,0,0,1-90,11.247Zm2.3.144q0,1.969,1.148,1.969a1.134,1.134,0,0,0,1.094-.643V9.9a1.1,1.1,0,0,0-1.08-.656q-1.066,0-1.155,1.723Zm9.44,3.746a3.8,3.8,0,0,1-2.755-1.015,3.506,3.506,0,0,1-1.053-2.642v-.191a4.542,4.542,0,0,1,.42-2,3.076,3.076,0,0,1,1.227-1.343A3.7,3.7,0,0,1-78.5,7.467a3.2,3.2,0,0,1,2.461.967,3.8,3.8,0,0,1,.9,2.7v.9h-4.58a1.66,1.66,0,0,0,.54.978,1.607,1.607,0,0,0,1.08.355,2.07,2.07,0,0,0,1.709-.766l1.053,1.244a2.943,2.943,0,0,1-1.22.947A4.124,4.124,0,0,1-78.251,15.137Zm-.26-5.893q-1.012,0-1.2,1.34h2.324v-.178a1.141,1.141,0,0,0-.28-.858A1.115,1.115,0,0,0-78.511,9.244Zm11.662,3.678a.532.532,0,0,0-.308-.472,4.679,4.679,0,0,0-1.169-.369,5.33,5.33,0,0,1-1.422-.5,2.382,2.382,0,0,1-.854-.755A1.8,1.8,0,0,1-70.9,9.8a2.044,2.044,0,0,1,.841-1.678,3.464,3.464,0,0,1,2.2-.66A3.837,3.837,0,0,1-65.5,8.13a2.074,2.074,0,0,1,.889,1.743h-2.311q0-.889-.937-.889a.928.928,0,0,0-.608.2.624.624,0,0,0-.246.5.573.573,0,0,0,.3.5,2.842,2.842,0,0,0,.96.314,8.3,8.3,0,0,1,1.159.294,2.105,2.105,0,0,1,1.668,2.058,1.937,1.937,0,0,1-.9,1.647,3.942,3.942,0,0,1-2.328.636,4.023,4.023,0,0,1-1.7-.342,2.835,2.835,0,0,1-1.162-.93,2.105,2.105,0,0,1-.417-1.237h2.153a.89.89,0,0,0,.342.749,1.406,1.406,0,0,0,.841.236,1.106,1.106,0,0,0,.708-.191A.612.612,0,0,0-66.849,12.922Zm3.008-1.688a4.366,4.366,0,0,1,.431-1.972,3.08,3.08,0,0,1,1.237-1.33,3.726,3.726,0,0,1,1.894-.465A3.4,3.4,0,0,1-57.661,8.5a3.948,3.948,0,0,1,.957,2.8v.082a3.83,3.83,0,0,1-.96,2.745,3.41,3.41,0,0,1-2.6,1.015A3.449,3.449,0,0,1-62.8,14.19a3.7,3.7,0,0,1-1.032-2.567Zm2.3.144a2.752,2.752,0,0,0,.321,1.5,1.07,1.07,0,0,0,.95.479q1.23,0,1.258-1.894v-.232q0-1.989-1.271-1.989-1.155,0-1.251,1.716Zm5.558-.13a4.518,4.518,0,0,1,.759-2.769A2.5,2.5,0,0,1-53.1,7.467a2.124,2.124,0,0,1,1.668.779V4.5h2.311V15h-2.071l-.116-.793a2.181,2.181,0,0,1-1.8.93,2.493,2.493,0,0,1-2.092-1.012A4.662,4.662,0,0,1-55.979,11.247Zm2.3.144q0,1.969,1.148,1.969a1.134,1.134,0,0,0,1.094-.643V9.9a1.1,1.1,0,0,0-1.08-.656q-1.066,0-1.155,1.723ZM-45.384,15h-2.311V7.6h2.311Zm-2.447-9.311a1.037,1.037,0,0,1,.355-.812,1.336,1.336,0,0,1,.923-.316,1.336,1.336,0,0,1,.923.316,1.037,1.037,0,0,1,.355.812,1.037,1.037,0,0,1-.355.812,1.336,1.336,0,0,1-.923.316,1.336,1.336,0,0,1-.923-.316A1.037,1.037,0,0,1-47.831,5.689Zm3.575,5.544a4.366,4.366,0,0,1,.431-1.972,3.08,3.08,0,0,1,1.237-1.33,3.726,3.726,0,0,1,1.894-.465A3.4,3.4,0,0,1-38.076,8.5a3.948,3.948,0,0,1,.957,2.8v.082a3.83,3.83,0,0,1-.96,2.745,3.41,3.41,0,0,1-2.6,1.015,3.449,3.449,0,0,1-2.536-.947,3.7,3.7,0,0,1-1.032-2.567Zm2.3.144a2.752,2.752,0,0,0,.321,1.5,1.07,1.07,0,0,0,.95.479q1.23,0,1.258-1.894v-.232q0-1.989-1.271-1.989-1.155,0-1.251,1.716ZM-28.451,15a2.6,2.6,0,0,1-.219-.663,2.142,2.142,0,0,1-1.777.8,2.624,2.624,0,0,1-1.777-.632,2.013,2.013,0,0,1-.731-1.589,2.069,2.069,0,0,1,.889-1.818,4.527,4.527,0,0,1,2.584-.615h.711V10.09q0-1.023-.882-1.023a.721.721,0,0,0-.82.811h-2.3a2.065,2.065,0,0,1,.913-1.741,3.835,3.835,0,0,1,2.328-.669,3.363,3.363,0,0,1,2.235.69,2.4,2.4,0,0,1,.841,1.894v3.274a3.353,3.353,0,0,0,.314,1.559V15Zm-1.442-1.5a1.285,1.285,0,0,0,.714-.185,1.157,1.157,0,0,0,.407-.417V11.712h-.67q-1.2,0-1.2,1.08a.659.659,0,0,0,.212.509A.767.767,0,0,0-29.894,13.5Zm7.137,1.5h-2.311V4.5h2.311Zm5-4.862.608-5.091h5.817V6.824h-3.944L-15.5,8.815a2.717,2.717,0,0,1,.646-.254,2.947,2.947,0,0,1,.783-.11,2.92,2.92,0,0,1,2.28.878,3.538,3.538,0,0,1,.8,2.464,3.532,3.532,0,0,1-.427,1.733,2.937,2.937,0,0,1-1.2,1.193,3.788,3.788,0,0,1-1.825.417,4.076,4.076,0,0,1-1.757-.386,3.152,3.152,0,0,1-1.285-1.059,2.573,2.573,0,0,1-.458-1.52h2.311a1.307,1.307,0,0,0,.349.866,1.107,1.107,0,0,0,.827.321q1.162,0,1.162-1.719,0-1.589-1.422-1.589a1.419,1.419,0,0,0-1.2.518Zm7.978-3.177a1.954,1.954,0,0,1,.6-1.49A2.255,2.255,0,0,1-7.561,4.9a2.258,2.258,0,0,1,1.62.564A2.005,2.005,0,0,1-5.346,7v.492A1.943,1.943,0,0,1-5.94,8.971a2.247,2.247,0,0,1-1.606.561,2.308,2.308,0,0,1-1.617-.557,1.963,1.963,0,0,1-.612-1.528Zm1.483.525a.826.826,0,0,0,.2.574.7.7,0,0,0,.547.221q.718,0,.718-.91V6.963a.871.871,0,0,0-.191-.581.667.667,0,0,0-.54-.228.681.681,0,0,0-.533.221.867.867,0,0,0-.2.6Zm3.247,5.074a1.935,1.935,0,0,1,.6-1.49,2.275,2.275,0,0,1,1.61-.561,2.3,2.3,0,0,1,1.62.554,2,2,0,0,1,.6,1.545v.479a1.951,1.951,0,0,1-.595,1.49,2.257,2.257,0,0,1-1.613.561,2.308,2.308,0,0,1-1.617-.557,1.963,1.963,0,0,1-.612-1.528Zm1.477.525a.808.808,0,0,0,.219.56.693.693,0,0,0,.533.241.629.629,0,0,0,.718-.625l.007-.7a.836.836,0,0,0-.2-.581.689.689,0,0,0-.54-.221.7.7,0,0,0-.526.207.826.826,0,0,0-.212.56Zm-3.541,1.171-1.073-.54,4.86-7.779,1.073.54ZM-80.9,25.953a10.447,10.447,0,0,1,.444-3.1,7.49,7.49,0,0,1,1.227-2.434,4.358,4.358,0,0,1,1.74-1.395l.438,1.135a4.457,4.457,0,0,0-1.48,2.2,10.719,10.719,0,0,0-.53,3.5v.3a10.928,10.928,0,0,0,.523,3.568,4.438,4.438,0,0,0,1.487,2.215l-.437,1.135a4.314,4.314,0,0,1-1.74-1.4,7.377,7.377,0,0,1-1.227-2.423,10.5,10.5,0,0,1-.444-2.994Zm4.867-.815.608-5.091H-69.6v1.777h-3.944l-.226,1.991a2.717,2.717,0,0,1,.646-.254,2.947,2.947,0,0,1,.783-.11,2.92,2.92,0,0,1,2.28.878,3.538,3.538,0,0,1,.8,2.464,3.532,3.532,0,0,1-.427,1.733,2.936,2.936,0,0,1-1.2,1.193,3.788,3.788,0,0,1-1.825.417,4.076,4.076,0,0,1-1.757-.386,3.152,3.152,0,0,1-1.285-1.059,2.573,2.573,0,0,1-.458-1.52h2.311a1.307,1.307,0,0,0,.349.866,1.107,1.107,0,0,0,.827.321q1.162,0,1.162-1.719,0-1.589-1.422-1.589a1.419,1.419,0,0,0-1.2.518Zm14.882.794a4.753,4.753,0,0,1-.906,3.11,3.13,3.13,0,0,1-2.553,1.094,3.147,3.147,0,0,1-2.57-1.1,4.745,4.745,0,0,1-.909-3.1V24.114A4.752,4.752,0,0,1-67.18,21a3.138,3.138,0,0,1,2.56-1.094,3.139,3.139,0,0,1,2.563,1.1,4.757,4.757,0,0,1,.909,3.11Zm-2.3-2.112a3.55,3.55,0,0,0-.28-1.6.937.937,0,0,0-.889-.53.915.915,0,0,0-.865.492,3.344,3.344,0,0,0-.291,1.49v2.543a3.577,3.577,0,0,0,.28,1.63.94.94,0,0,0,.889.516.928.928,0,0,0,.868-.5,3.415,3.415,0,0,0,.287-1.576Zm10.411,2.112a4.753,4.753,0,0,1-.906,3.11A3.13,3.13,0,0,1-56.5,30.137a3.147,3.147,0,0,1-2.57-1.1,4.745,4.745,0,0,1-.909-3.1V24.114A4.753,4.753,0,0,1-59.073,21a3.138,3.138,0,0,1,2.56-1.094,3.139,3.139,0,0,1,2.563,1.1,4.757,4.757,0,0,1,.909,3.11Zm-2.3-2.112a3.55,3.55,0,0,0-.28-1.6.937.937,0,0,0-.889-.53.915.915,0,0,0-.865.492,3.344,3.344,0,0,0-.291,1.49v2.543a3.577,3.577,0,0,0,.28,1.63.94.94,0,0,0,.889.516.928.928,0,0,0,.868-.5,3.415,3.415,0,0,0,.287-1.576Zm10.411,2.112a4.753,4.753,0,0,1-.906,3.11,3.13,3.13,0,0,1-2.553,1.094,3.147,3.147,0,0,1-2.57-1.1,4.745,4.745,0,0,1-.909-3.1V24.114A4.753,4.753,0,0,1-50.965,21a3.138,3.138,0,0,1,2.56-1.094,3.139,3.139,0,0,1,2.563,1.1,4.757,4.757,0,0,1,.909,3.11Zm-2.3-2.112a3.55,3.55,0,0,0-.28-1.6.937.937,0,0,0-.889-.53.915.915,0,0,0-.865.492,3.344,3.344,0,0,0-.291,1.49v2.543a3.577,3.577,0,0,0,.28,1.63.94.94,0,0,0,.889.516.928.928,0,0,0,.868-.5,3.415,3.415,0,0,0,.287-1.576Zm10.411,2.112a4.753,4.753,0,0,1-.906,3.11,3.13,3.13,0,0,1-2.553,1.094,3.147,3.147,0,0,1-2.57-1.1,4.745,4.745,0,0,1-.909-3.1V24.114A4.753,4.753,0,0,1-42.858,21,3.138,3.138,0,0,1-40.3,19.91a3.139,3.139,0,0,1,2.563,1.1,4.757,4.757,0,0,1,.909,3.11Zm-2.3-2.112a3.55,3.55,0,0,0-.28-1.6.937.937,0,0,0-.889-.53.915.915,0,0,0-.865.492,3.344,3.344,0,0,0-.291,1.49v2.543a3.577,3.577,0,0,0,.28,1.63.94.94,0,0,0,.889.516.928.928,0,0,0,.868-.5,3.415,3.415,0,0,0,.287-1.576Zm13.891,2.536a4.46,4.46,0,0,1-.776,2.751,2.488,2.488,0,0,1-2.1,1.029,2.132,2.132,0,0,1-1.675-.745v3.452h-2.3V22.6h2.153l.068.684a2.132,2.132,0,0,1,1.743-.82A2.508,2.508,0,0,1-26,23.475a4.515,4.515,0,0,1,.759,2.772Zm-2.3-.144q0-1.969-1.148-1.969a1.084,1.084,0,0,0-1.094.588v2.912a1.119,1.119,0,0,0,1.107.615q1.1,0,1.135-1.9Zm10.186.144a4.46,4.46,0,0,1-.776,2.751,2.488,2.488,0,0,1-2.1,1.029,2.132,2.132,0,0,1-1.675-.745v3.452h-2.3V22.6h2.153l.068.684a2.132,2.132,0,0,1,1.743-.82,2.508,2.508,0,0,1,2.126,1.008,4.515,4.515,0,0,1,.759,2.772Zm-2.3-.144q0-1.969-1.148-1.969a1.084,1.084,0,0,0-1.094.588v2.912a1.119,1.119,0,0,0,1.107.615q1.1,0,1.135-1.9Zm5.5-3.609.075.868a2.543,2.543,0,0,1,2.112-1,1.872,1.872,0,0,1,1.894,1.114,2.462,2.462,0,0,1,2.174-1.114q2.249,0,2.311,2.721V30H-7.909V25.331A1.41,1.41,0,0,0-8.1,24.5a.815.815,0,0,0-.7-.26,1.091,1.091,0,0,0-1.019.608l.007.1V30H-12.12V25.345A1.482,1.482,0,0,0-12.3,24.5a.812.812,0,0,0-.7-.26,1.1,1.1,0,0,0-1.012.608V30h-2.3V22.6ZM-.649,26.145a9.747,9.747,0,0,1-.472,3.049,7.784,7.784,0,0,1-1.3,2.478,4.335,4.335,0,0,1-1.794,1.4l-.437-1.135a4.5,4.5,0,0,0,1.47-2.187,10.56,10.56,0,0,0,.54-3.4v-.417a10.928,10.928,0,0,0-.523-3.568,4.438,4.438,0,0,0-1.487-2.215l.438-1.135a4.415,4.415,0,0,1,1.781,1.391,7.689,7.689,0,0,1,1.3,2.44,9.665,9.665,0,0,1,.489,2.991Z" transform="translate(328 8078)" fill="#12263f"/>
    <path id="Trazado_727806" data-name="Trazado 727806" d="M0,0,40.692,24.161" transform="translate(331.407 8088.71)" fill="none" stroke="#0e494d" stroke-width="3"/>
    <path id="Trazado_727807" data-name="Trazado 727807" d="M8.5,0,17,14H0Z" transform="translate(365 8103)" fill="#0e494d"/>
    <g id="Grupo_960535" data-name="Grupo 960535" transform="translate(325.049 8138.099)">
      <line id="Línea_218" data-name="Línea 218" y1="14.624" x2="68.667" transform="translate(0 14.192)" fill="none" stroke="#0e494d" stroke-width="3"/>
      <path id="Polígono_5" data-name="Polígono 5" d="M8.265,0l8.265,13.988H0Z" transform="translate(60.395 11.274) rotate(-43)" fill="#0e494d"/>
    </g>
  </g>
</svg>
