<svg xmlns="http://www.w3.org/2000/svg" width="298.677" height="112.156" viewBox="0 0 298.677 112.156">
  <g id="Grupo_960525" data-name="Grupo 960525" transform="translate(-654 -7008.5)">
    <path id="Trazado_727763" data-name="Trazado 727763" d="M11.188-4.263A4.528,4.528,0,0,1,9.664-1.011,5.355,5.355,0,0,1,6.038.176,4.816,4.816,0,0,1,2.167-1.481,6.793,6.793,0,0,1,.756-6.029v-.782a7.671,7.671,0,0,1,.65-3.252,4.874,4.874,0,0,1,1.859-2.158,5.207,5.207,0,0,1,2.808-.751,5.217,5.217,0,0,1,3.568,1.187,4.866,4.866,0,0,1,1.564,3.331H8.569a2.673,2.673,0,0,0-.69-1.8,2.555,2.555,0,0,0-1.806-.558A2.24,2.24,0,0,0,4.1-9.866a5.3,5.3,0,0,0-.672,2.931v.967a5.667,5.667,0,0,0,.628,3.032,2.2,2.2,0,0,0,1.982.958,2.6,2.6,0,0,0,1.824-.558,2.521,2.521,0,0,0,.69-1.727Zm1.169-.562a5.731,5.731,0,0,1,1-3.542,3.237,3.237,0,0,1,2.729-1.318,2.913,2.913,0,0,1,2.294,1.037V-13.5h2.549V0H18.633L18.51-1.011A2.989,2.989,0,0,1,16.066.176a3.228,3.228,0,0,1-2.694-1.323A5.916,5.916,0,0,1,12.357-4.825Zm2.54.181a3.775,3.775,0,0,0,.466,2.057,1.516,1.516,0,0,0,1.354.715,1.7,1.7,0,0,0,1.661-1V-6.64a1.675,1.675,0,0,0-1.644-1Q14.9-7.638,14.9-4.644ZM31-6.671,32.6-9.51h2.716L32.607-4.852,35.429,0H32.7l-1.7-2.988L29.32,0H26.587l2.821-4.852L26.71-9.51h2.725Zm14.915,3.5,2.9-9.624H51.75L47.294,0H44.543L40.1-12.8h2.927ZM52-4.825a5.731,5.731,0,0,1,1-3.542,3.237,3.237,0,0,1,2.729-1.318,2.913,2.913,0,0,1,2.294,1.037V-13.5h2.549V0H58.28l-.123-1.011A2.989,2.989,0,0,1,55.714.176,3.228,3.228,0,0,1,53.02-1.147,5.916,5.916,0,0,1,52-4.825Zm2.54.181a3.775,3.775,0,0,0,.466,2.057,1.516,1.516,0,0,0,1.354.715,1.7,1.7,0,0,0,1.661-1V-6.64a1.675,1.675,0,0,0-1.644-1Q54.545-7.638,54.545-4.644Z" transform="translate(760 7022)" fill="#34bc85"/>
    <path id="Trazado_727764" data-name="Trazado 727764" d="M9.053-6.557H1.2V-8.631H9.053Zm0,3.806H1.2V-4.825H9.053Zm2.5-3.542.738-6.5h7.172v2.118H14.37l-.316,2.751a4.027,4.027,0,0,1,1.925-.483,3.689,3.689,0,0,1,2.865,1.134A4.529,4.529,0,0,1,19.881-4.1a4.64,4.64,0,0,1-.523,2.219,3.691,3.691,0,0,1-1.5,1.521,4.678,4.678,0,0,1-2.3.541A4.968,4.968,0,0,1,13.4-.294a3.819,3.819,0,0,1-1.569-1.323,3.605,3.605,0,0,1-.611-1.942h2.514A1.878,1.878,0,0,0,14.3-2.316a1.769,1.769,0,0,0,1.252.444,1.562,1.562,0,0,0,1.327-.62,2.87,2.87,0,0,0,.466-1.753,2.374,2.374,0,0,0-.536-1.67,1.967,1.967,0,0,0-1.521-.58,2.2,2.2,0,0,0-1.468.475l-.246.229Zm18.563,1a6.483,6.483,0,0,1-1.1,4.061A3.835,3.835,0,0,1,25.8.176,3.862,3.862,0,0,1,22.6-1.2a6.293,6.293,0,0,1-1.134-3.955V-7.515a6.4,6.4,0,0,1,1.112-4.069,3.864,3.864,0,0,1,3.2-1.389,3.867,3.867,0,0,1,3.2,1.375,6.273,6.273,0,0,1,1.134,3.951Zm-2.54-2.59a4.686,4.686,0,0,0-.435-2.318,1.47,1.47,0,0,0-1.358-.726,1.444,1.444,0,0,0-1.323.691A4.385,4.385,0,0,0,24-8.074V-4.96a4.919,4.919,0,0,0,.426,2.327,1.451,1.451,0,0,0,1.367.761,1.426,1.426,0,0,0,1.345-.73,4.8,4.8,0,0,0,.431-2.235ZM38.795-9.51l.079,1.063a3.342,3.342,0,0,1,2.733-1.239,2.536,2.536,0,0,1,2.522,1.45,3.265,3.265,0,0,1,2.856-1.45,2.836,2.836,0,0,1,2.3.9,4.141,4.141,0,0,1,.756,2.711V0H47.5V-6.078a1.818,1.818,0,0,0-.316-1.185,1.4,1.4,0,0,0-1.116-.374,1.585,1.585,0,0,0-1.582,1.092L44.49,0H41.95V-6.07a1.8,1.8,0,0,0-.325-1.2,1.414,1.414,0,0,0-1.107-.37,1.645,1.645,0,0,0-1.564.9V0h-2.54V-9.51ZM54.677,0H52.128V-13.5h2.549Z" transform="translate(898 7103)" fill="#2b64d6"/>
    <path id="Trazado_727765" data-name="Trazado 727765" d="M11.188-4.263A4.528,4.528,0,0,1,9.664-1.011,5.355,5.355,0,0,1,6.038.176,4.816,4.816,0,0,1,2.167-1.481,6.793,6.793,0,0,1,.756-6.029v-.782a7.671,7.671,0,0,1,.65-3.252,4.874,4.874,0,0,1,1.859-2.158,5.207,5.207,0,0,1,2.808-.751,5.217,5.217,0,0,1,3.568,1.187,4.866,4.866,0,0,1,1.564,3.331H8.569a2.673,2.673,0,0,0-.69-1.8,2.555,2.555,0,0,0-1.806-.558A2.24,2.24,0,0,0,4.1-9.866a5.3,5.3,0,0,0-.672,2.931v.967a5.667,5.667,0,0,0,.628,3.032,2.2,2.2,0,0,0,1.982.958,2.6,2.6,0,0,0,1.824-.558,2.521,2.521,0,0,0,.69-1.727Zm5.52,2.391a1.666,1.666,0,0,0,1.143-.387,1.355,1.355,0,0,0,.457-1.028h2.382a3.258,3.258,0,0,1-.527,1.771A3.48,3.48,0,0,1,18.743-.268a4.442,4.442,0,0,1-1.991.444,4.129,4.129,0,0,1-3.217-1.3A5.13,5.13,0,0,1,12.357-4.7v-.167a5.071,5.071,0,0,1,1.169-3.507,4.08,4.08,0,0,1,3.208-1.31A4,4,0,0,1,19.6-8.67a3.594,3.594,0,0,1,1.094,2.7H18.308a1.745,1.745,0,0,0-.457-1.206,1.524,1.524,0,0,0-1.16-.464,1.53,1.53,0,0,0-1.34.647,3.749,3.749,0,0,0-.453,2.1v.264a3.8,3.8,0,0,0,.448,2.113A1.549,1.549,0,0,0,16.708-1.872Z" transform="translate(777 7043)" fill="#34bc85"/>
    <path id="Trazado_727766" data-name="Trazado 727766" d="M0,0H83" transform="translate(746.5 7026.5)" fill="none" stroke="#34bc85" stroke-width="3"/>
    <path id="Trazado_727771" data-name="Trazado 727771" d="M9.642,0H.87V-1.74L5.01-6.152A10.212,10.212,0,0,0,6.271-7.778,2.612,2.612,0,0,0,6.68-9.1a1.955,1.955,0,0,0-.431-1.34,1.555,1.555,0,0,0-1.23-.488,1.677,1.677,0,0,0-1.358.593,2.35,2.35,0,0,0-.5,1.56H.615a4.2,4.2,0,0,1,.558-2.136,3.934,3.934,0,0,1,1.578-1.516,4.8,4.8,0,0,1,2.312-.549,4.54,4.54,0,0,1,3.072.949A3.358,3.358,0,0,1,9.229-9.343a4.3,4.3,0,0,1-.492,1.934A10.745,10.745,0,0,1,7.049-5.115L4.14-2.048h5.5Zm1.934-6.293.738-6.5h7.172v2.118H14.4L14.08-7.928A4.027,4.027,0,0,1,16-8.411,3.689,3.689,0,0,1,18.87-7.277,4.529,4.529,0,0,1,19.907-4.1a4.64,4.64,0,0,1-.523,2.219,3.691,3.691,0,0,1-1.5,1.521,4.678,4.678,0,0,1-2.3.541,4.968,4.968,0,0,1-2.153-.47,3.819,3.819,0,0,1-1.569-1.323A3.605,3.605,0,0,1,11.25-3.56h2.514a1.878,1.878,0,0,0,.558,1.244,1.769,1.769,0,0,0,1.252.444,1.562,1.562,0,0,0,1.327-.62,2.87,2.87,0,0,0,.466-1.753,2.374,2.374,0,0,0-.536-1.67,1.967,1.967,0,0,0-1.521-.58,2.2,2.2,0,0,0-1.468.475l-.246.229Zm18.563,1a6.483,6.483,0,0,1-1.1,4.061A3.835,3.835,0,0,1,25.822.176a3.862,3.862,0,0,1-3.2-1.38,6.293,6.293,0,0,1-1.134-3.955V-7.515A6.4,6.4,0,0,1,22.6-11.584a3.864,3.864,0,0,1,3.2-1.389A3.867,3.867,0,0,1,29-11.6a6.273,6.273,0,0,1,1.134,3.951ZM27.6-7.881a4.686,4.686,0,0,0-.435-2.318,1.47,1.47,0,0,0-1.358-.726,1.444,1.444,0,0,0-1.323.691,4.385,4.385,0,0,0-.453,2.16V-4.96a4.919,4.919,0,0,0,.426,2.327,1.451,1.451,0,0,0,1.367.761,1.426,1.426,0,0,0,1.345-.73A4.8,4.8,0,0,0,27.6-4.837Zm12.867,2.59a6.483,6.483,0,0,1-1.1,4.061A3.835,3.835,0,0,1,36.149.176a3.862,3.862,0,0,1-3.2-1.38,6.293,6.293,0,0,1-1.134-3.955V-7.515a6.4,6.4,0,0,1,1.112-4.069,3.864,3.864,0,0,1,3.2-1.389,3.867,3.867,0,0,1,3.2,1.375,6.273,6.273,0,0,1,1.134,3.951Zm-2.54-2.59A4.686,4.686,0,0,0,37.49-10.2a1.47,1.47,0,0,0-1.358-.726,1.444,1.444,0,0,0-1.323.691,4.385,4.385,0,0,0-.453,2.16V-4.96a4.919,4.919,0,0,0,.426,2.327,1.451,1.451,0,0,0,1.367.761,1.426,1.426,0,0,0,1.345-.73,4.8,4.8,0,0,0,.431-2.235Zm17.4,3.214a5.7,5.7,0,0,1-1,3.52A3.2,3.2,0,0,1,51.636.176a2.963,2.963,0,0,1-2.329-1V3.656h-2.54V-9.51h2.355l.088.932a2.985,2.985,0,0,1,2.408-1.107,3.22,3.22,0,0,1,2.733,1.3A5.858,5.858,0,0,1,55.327-4.8Zm-2.54-.194a3.763,3.763,0,0,0-.47-2.054,1.53,1.53,0,0,0-1.367-.723,1.662,1.662,0,0,0-1.644.917v3.906a1.691,1.691,0,0,0,1.661.943Q52.787-1.872,52.787-4.861Zm12.674.194a5.7,5.7,0,0,1-1,3.52A3.2,3.2,0,0,1,61.77.176a2.963,2.963,0,0,1-2.329-1V3.656H56.9V-9.51h2.355l.088.932a2.985,2.985,0,0,1,2.408-1.107,3.22,3.22,0,0,1,2.733,1.3A5.858,5.858,0,0,1,65.461-4.8Zm-2.54-.194a3.763,3.763,0,0,0-.47-2.054,1.53,1.53,0,0,0-1.367-.723,1.662,1.662,0,0,0-1.644.917v3.906a1.691,1.691,0,0,0,1.661.943Q62.921-1.872,62.921-4.861Zm6.5-4.649L69.5-8.446a3.342,3.342,0,0,1,2.733-1.239,2.536,2.536,0,0,1,2.522,1.45,3.265,3.265,0,0,1,2.856-1.45,2.836,2.836,0,0,1,2.3.9,4.141,4.141,0,0,1,.756,2.711V0H78.117V-6.078A1.818,1.818,0,0,0,77.8-7.263a1.4,1.4,0,0,0-1.116-.374A1.585,1.585,0,0,0,75.1-6.545L75.111,0h-2.54V-6.07a1.8,1.8,0,0,0-.325-1.2,1.414,1.414,0,0,0-1.107-.37,1.645,1.645,0,0,0-1.564.9V0h-2.54V-9.51Zm21.3,2.839,1.6-2.839h2.716L92.329-4.852,95.15,0H92.426l-1.7-2.988L89.042,0H86.309L89.13-4.852l-2.7-4.658h2.725ZM106.8,0h-2.54V-9.8l-3.032.936v-2.048l5.3-1.9h.272Zm12.771-5.291a6.483,6.483,0,0,1-1.1,4.061A3.835,3.835,0,0,1,115.26.176a3.862,3.862,0,0,1-3.2-1.38,6.293,6.293,0,0,1-1.134-3.955V-7.515a6.4,6.4,0,0,1,1.112-4.069,3.864,3.864,0,0,1,3.2-1.389,3.867,3.867,0,0,1,3.2,1.375,6.273,6.273,0,0,1,1.134,3.951Zm-2.54-2.59A4.686,4.686,0,0,0,116.6-10.2a1.47,1.47,0,0,0-1.358-.726,1.444,1.444,0,0,0-1.323.691,4.385,4.385,0,0,0-.453,2.16V-4.96a4.919,4.919,0,0,0,.426,2.327,1.451,1.451,0,0,0,1.367.761A1.426,1.426,0,0,0,116.6-2.6a4.8,4.8,0,0,0,.431-2.235ZM129.9-5.291a6.483,6.483,0,0,1-1.1,4.061A3.835,3.835,0,0,1,125.587.176a3.862,3.862,0,0,1-3.2-1.38,6.293,6.293,0,0,1-1.134-3.955V-7.515a6.4,6.4,0,0,1,1.112-4.069,3.864,3.864,0,0,1,3.2-1.389,3.867,3.867,0,0,1,3.2,1.375A6.273,6.273,0,0,1,129.9-7.646Zm-2.54-2.59a4.686,4.686,0,0,0-.435-2.318,1.47,1.47,0,0,0-1.358-.726,1.444,1.444,0,0,0-1.323.691,4.385,4.385,0,0,0-.453,2.16V-4.96a4.919,4.919,0,0,0,.426,2.327,1.451,1.451,0,0,0,1.367.761,1.426,1.426,0,0,0,1.345-.73,4.8,4.8,0,0,0,.431-2.235Zm12.867,2.59a6.483,6.483,0,0,1-1.1,4.061A3.835,3.835,0,0,1,135.914.176a3.862,3.862,0,0,1-3.2-1.38,6.293,6.293,0,0,1-1.134-3.955V-7.515a6.4,6.4,0,0,1,1.112-4.069,3.864,3.864,0,0,1,3.2-1.389,3.867,3.867,0,0,1,3.2,1.375,6.273,6.273,0,0,1,1.134,3.951Zm-2.54-2.59a4.686,4.686,0,0,0-.435-2.318,1.47,1.47,0,0,0-1.358-.726,1.444,1.444,0,0,0-1.323.691,4.385,4.385,0,0,0-.453,2.16V-4.96a4.919,4.919,0,0,0,.426,2.327,1.451,1.451,0,0,0,1.367.761,1.426,1.426,0,0,0,1.345-.73,4.8,4.8,0,0,0,.431-2.235ZM148.913-9.51l.079,1.063a3.342,3.342,0,0,1,2.733-1.239,2.536,2.536,0,0,1,2.522,1.45,3.265,3.265,0,0,1,2.856-1.45,2.836,2.836,0,0,1,2.3.9,4.141,4.141,0,0,1,.756,2.711V0h-2.549V-6.078a1.818,1.818,0,0,0-.316-1.185,1.4,1.4,0,0,0-1.116-.374A1.585,1.585,0,0,0,154.6-6.545L154.608,0h-2.54V-6.07a1.8,1.8,0,0,0-.325-1.2,1.414,1.414,0,0,0-1.107-.37,1.645,1.645,0,0,0-1.564.9V0h-2.54V-9.51ZM164.795,0h-2.549V-13.5h2.549Z" transform="translate(732 7089)" fill="#2b64d6"/>
    <path id="Trazado_727772" data-name="Trazado 727772" d="M1.248-6.293l.738-6.5H9.158v2.118H4.069L3.753-7.928a4.027,4.027,0,0,1,1.925-.483A3.689,3.689,0,0,1,8.543-7.277,4.529,4.529,0,0,1,9.58-4.1a4.64,4.64,0,0,1-.523,2.219,3.691,3.691,0,0,1-1.5,1.521,4.678,4.678,0,0,1-2.3.541A4.968,4.968,0,0,1,3.1-.294,3.819,3.819,0,0,1,1.534-1.617,3.605,3.605,0,0,1,.923-3.56H3.437a1.878,1.878,0,0,0,.558,1.244,1.769,1.769,0,0,0,1.252.444,1.562,1.562,0,0,0,1.327-.62A2.87,2.87,0,0,0,7.04-4.245,2.374,2.374,0,0,0,6.5-5.915,1.967,1.967,0,0,0,4.983-6.5a2.2,2.2,0,0,0-1.468.475l-.246.229Zm18.563,1a6.483,6.483,0,0,1-1.1,4.061A3.835,3.835,0,0,1,15.5.176,3.862,3.862,0,0,1,12.3-1.2a6.293,6.293,0,0,1-1.134-3.955V-7.515a6.4,6.4,0,0,1,1.112-4.069,3.864,3.864,0,0,1,3.2-1.389,3.867,3.867,0,0,1,3.2,1.375,6.273,6.273,0,0,1,1.134,3.951Zm-2.54-2.59a4.686,4.686,0,0,0-.435-2.318,1.47,1.47,0,0,0-1.358-.726,1.444,1.444,0,0,0-1.323.691,4.385,4.385,0,0,0-.453,2.16V-4.96a4.919,4.919,0,0,0,.426,2.327,1.451,1.451,0,0,0,1.367.761A1.426,1.426,0,0,0,16.84-2.6a4.8,4.8,0,0,0,.431-2.235Zm12.867,2.59a6.483,6.483,0,0,1-1.1,4.061A3.835,3.835,0,0,1,25.822.176a3.862,3.862,0,0,1-3.2-1.38,6.293,6.293,0,0,1-1.134-3.955V-7.515A6.4,6.4,0,0,1,22.6-11.584a3.864,3.864,0,0,1,3.2-1.389A3.867,3.867,0,0,1,29-11.6a6.273,6.273,0,0,1,1.134,3.951ZM27.6-7.881a4.686,4.686,0,0,0-.435-2.318,1.47,1.47,0,0,0-1.358-.726,1.444,1.444,0,0,0-1.323.691,4.385,4.385,0,0,0-.453,2.16V-4.96a4.919,4.919,0,0,0,.426,2.327,1.451,1.451,0,0,0,1.367.761,1.426,1.426,0,0,0,1.345-.73A4.8,4.8,0,0,0,27.6-4.837Zm12.867,2.59a6.483,6.483,0,0,1-1.1,4.061A3.835,3.835,0,0,1,36.149.176a3.862,3.862,0,0,1-3.2-1.38,6.293,6.293,0,0,1-1.134-3.955V-7.515a6.4,6.4,0,0,1,1.112-4.069,3.864,3.864,0,0,1,3.2-1.389,3.867,3.867,0,0,1,3.2,1.375,6.273,6.273,0,0,1,1.134,3.951Zm-2.54-2.59A4.686,4.686,0,0,0,37.49-10.2a1.47,1.47,0,0,0-1.358-.726,1.444,1.444,0,0,0-1.323.691,4.385,4.385,0,0,0-.453,2.16V-4.96a4.919,4.919,0,0,0,.426,2.327,1.451,1.451,0,0,0,1.367.761,1.426,1.426,0,0,0,1.345-.73,4.8,4.8,0,0,0,.431-2.235Zm12.867,2.59a6.483,6.483,0,0,1-1.1,4.061A3.835,3.835,0,0,1,46.477.176a3.862,3.862,0,0,1-3.2-1.38,6.293,6.293,0,0,1-1.134-3.955V-7.515a6.4,6.4,0,0,1,1.112-4.069,3.864,3.864,0,0,1,3.2-1.389,3.867,3.867,0,0,1,3.2,1.375,6.273,6.273,0,0,1,1.134,3.951Zm-2.54-2.59a4.686,4.686,0,0,0-.435-2.318,1.47,1.47,0,0,0-1.358-.726,1.444,1.444,0,0,0-1.323.691,4.385,4.385,0,0,0-.453,2.16V-4.96a4.919,4.919,0,0,0,.426,2.327,1.451,1.451,0,0,0,1.367.761,1.426,1.426,0,0,0,1.345-.73,4.8,4.8,0,0,0,.431-2.235Zm17.4,3.214a5.7,5.7,0,0,1-1,3.52A3.2,3.2,0,0,1,61.963.176a2.963,2.963,0,0,1-2.329-1V3.656h-2.54V-9.51h2.355l.088.932a2.985,2.985,0,0,1,2.408-1.107,3.22,3.22,0,0,1,2.733,1.3A5.858,5.858,0,0,1,65.654-4.8Zm-2.54-.194a3.763,3.763,0,0,0-.47-2.054,1.53,1.53,0,0,0-1.367-.723,1.662,1.662,0,0,0-1.644.917v3.906a1.691,1.691,0,0,0,1.661.943Q63.114-1.872,63.114-4.861Zm12.674.194a5.7,5.7,0,0,1-1,3.52A3.2,3.2,0,0,1,72.1.176a2.963,2.963,0,0,1-2.329-1V3.656h-2.54V-9.51h2.355l.088.932a2.985,2.985,0,0,1,2.408-1.107,3.22,3.22,0,0,1,2.733,1.3A5.858,5.858,0,0,1,75.788-4.8Zm-2.54-.194a3.763,3.763,0,0,0-.47-2.054,1.53,1.53,0,0,0-1.367-.723,1.662,1.662,0,0,0-1.644.917v3.906a1.691,1.691,0,0,0,1.661.943Q73.248-1.872,73.248-4.861Zm6.5-4.649.079,1.063a3.342,3.342,0,0,1,2.733-1.239,2.536,2.536,0,0,1,2.522,1.45,3.265,3.265,0,0,1,2.856-1.45,2.836,2.836,0,0,1,2.3.9,4.141,4.141,0,0,1,.756,2.711V0H88.444V-6.078a1.818,1.818,0,0,0-.316-1.185,1.4,1.4,0,0,0-1.116-.374A1.585,1.585,0,0,0,85.43-6.545L85.438,0H82.9V-6.07a1.8,1.8,0,0,0-.325-1.2,1.414,1.414,0,0,0-1.107-.37,1.645,1.645,0,0,0-1.564.9V0h-2.54V-9.51Z" transform="translate(769 7117)" fill="#2b64d6"/>
    <path id="Trazado_727773" data-name="Trazado 727773" d="M0,0H159.5" transform="translate(735.5 7096.5)" fill="none" stroke="#2b64d6" stroke-width="3"/>
    <path id="Trazado_727767" data-name="Trazado 727767" d="M8,0H43a8,8,0,0,1,8,8V24a8,8,0,0,1-8,8H8a8,8,0,0,1-8-8V8A8,8,0,0,1,8,0Z" transform="translate(654 7010)" fill="#34bc85"/>
    <path id="Trazado_727768" data-name="Trazado 727768" d="M8,0H43a8,8,0,0,1,8,8V24a8,8,0,0,1-8,8H8a8,8,0,0,1-8-8V8A8,8,0,0,1,8,0Z" transform="translate(654 7075)" fill="#2b64d6"/>
    <path id="Trazado_727769" data-name="Trazado 727769" d="M5.871-3.173l2.9-9.624h2.936L7.251,0H4.5L.062-12.8H2.988Zm8.947-.747a5.288,5.288,0,0,1,.3-1.962A4.025,4.025,0,0,1,16.211-7.32a5.6,5.6,0,0,0,1.059-1.153,1.81,1.81,0,0,0,.264-.938q0-1.488-1.371-1.488a1.389,1.389,0,0,0-1.042.4,1.575,1.575,0,0,0-.409,1.106H12.164a3.39,3.39,0,0,1,1.085-2.63,4.226,4.226,0,0,1,2.914-.95,4.244,4.244,0,0,1,2.892.9,3.208,3.208,0,0,1,1.028,2.547,3.1,3.1,0,0,1-.334,1.412A5.817,5.817,0,0,1,18.58-6.638l-.712.677a2.413,2.413,0,0,0-.765,1.5l-.035.537Zm-.255,2.694a1.279,1.279,0,0,1,.4-.968,1.424,1.424,0,0,1,1.024-.381,1.424,1.424,0,0,1,1.024.381,1.279,1.279,0,0,1,.4.968,1.269,1.269,0,0,1-.391.955,1.426,1.426,0,0,1-1.033.377,1.426,1.426,0,0,1-1.033-.377A1.269,1.269,0,0,1,14.563-1.226ZM29.777-6.557H21.92V-8.631h7.857Zm0,3.806H21.92V-4.825h7.857Z" transform="translate(664 7033)" fill="#12263f"/>
    <path id="Trazado_727770" data-name="Trazado 727770" d="M5.871-3.173l2.9-9.624h2.936L7.251,0H4.5L.062-12.8H2.988Zm8.947-.747a5.288,5.288,0,0,1,.3-1.962A4.025,4.025,0,0,1,16.211-7.32a5.6,5.6,0,0,0,1.059-1.153,1.81,1.81,0,0,0,.264-.938q0-1.488-1.371-1.488a1.389,1.389,0,0,0-1.042.4,1.575,1.575,0,0,0-.409,1.106H12.164a3.39,3.39,0,0,1,1.085-2.63,4.226,4.226,0,0,1,2.914-.95,4.244,4.244,0,0,1,2.892.9,3.208,3.208,0,0,1,1.028,2.547,3.1,3.1,0,0,1-.334,1.412A5.817,5.817,0,0,1,18.58-6.638l-.712.677a2.413,2.413,0,0,0-.765,1.5l-.035.537Zm-.255,2.694a1.279,1.279,0,0,1,.4-.968,1.424,1.424,0,0,1,1.024-.381,1.424,1.424,0,0,1,1.024.381,1.279,1.279,0,0,1,.4.968,1.269,1.269,0,0,1-.391.955,1.426,1.426,0,0,1-1.033.377,1.426,1.426,0,0,1-1.033-.377A1.269,1.269,0,0,1,14.563-1.226ZM29.777-6.557H21.92V-8.631h7.857Zm0,3.806H21.92V-4.825h7.857Z" transform="translate(664 7098)" fill="#fff"/>
  </g>
</svg>
