<svg xmlns="http://www.w3.org/2000/svg" width="83" height="83" viewBox="0 0 83 83">
  <g id="Grupo_960468" data-name="Grupo 960468" transform="translate(-3493 8111)">
    <rect id="Rectángulo_340660" data-name="Rectángulo 340660" width="83" height="83" transform="translate(3493 -8111)" fill="none"/>
    <g id="Page-1" transform="translate(3505 -8099)">
      <g id="_036---Bin-Lorry" data-name="036---Bin-Lorry">
        <path id="Shape" d="M55,53a6,6,0,0,1-12,0,5.8,5.8,0,0,1,.35-2,5.99,5.99,0,0,1,11.3,0A5.8,5.8,0,0,1,55,53Z" fill="#3f51b5"/>
        <path id="Shape-2" data-name="Shape" d="M54.65,51a5.912,5.912,0,0,0-7.15-3.792A5.965,5.965,0,0,1,51.65,51,5.8,5.8,0,0,1,52,53a6,6,0,0,1-4.5,5.8A5.978,5.978,0,0,0,55,53,5.8,5.8,0,0,0,54.65,51Z" fill="#283593"/>
        <circle id="Oval" cx="2" cy="2" r="2" transform="translate(47 51)" fill="#7f8e94"/>
        <path id="Shape-3" data-name="Shape" d="M20,53A6,6,0,0,1,8,53a5.8,5.8,0,0,1,.35-2,5.99,5.99,0,0,1,11.3,0A5.8,5.8,0,0,1,20,53Z" fill="#3f51b5"/>
        <path id="Shape-4" data-name="Shape" d="M19.65,51a5.912,5.912,0,0,0-7.15-3.792A5.965,5.965,0,0,1,16.65,51,5.8,5.8,0,0,1,17,53a6,6,0,0,1-4.5,5.8A5.978,5.978,0,0,0,20,53,5.8,5.8,0,0,0,19.65,51Z" fill="#283593"/>
        <circle id="Oval-2" data-name="Oval" cx="2" cy="2" r="2" transform="translate(12 51)" fill="#7f8e94"/>
        <path id="Shape-5" data-name="Shape" d="M54,40H40V28a1,1,0,0,1,1-1h7a3,3,0,0,1,3,3v7A3,3,0,0,0,54,40Z" fill="#02a9f4"/>
        <path id="Shape-6" data-name="Shape" d="M51,37V30a3,3,0,0,0-3-3H45a3,3,0,0,1,3,3v7a3,3,0,0,0,3,3h3A3,3,0,0,1,51,37Z" fill="#0377bc"/>
        <path id="Shape-7" data-name="Shape" d="M59,42v2H56a2.006,2.006,0,0,1-2-2V40h3A2.006,2.006,0,0,1,59,42Z" fill="#ffdc00"/>
        <path id="Shape-8" data-name="Shape" d="M59,44v5a2.006,2.006,0,0,1-2,2H54.65a5.99,5.99,0,0,0-11.3,0H40V40H54v2a2.006,2.006,0,0,0,2,2Z" fill="#f44335"/>
        <path id="Shape-9" data-name="Shape" d="M56,44v5a2,2,0,0,1-1.4,1.9c.014.036.034.068.046.1H57a2.006,2.006,0,0,0,2-2V44Z" fill="#c81e1e"/>
        <path id="Shape-10" data-name="Shape" d="M14,47a5.981,5.981,0,0,0-5.65,4H3a1,1,0,0,1-1-1V48a1,1,0,0,1,1-1Z" fill="#f44335"/>
        <path id="Shape-11" data-name="Shape" d="M40,47v4H19.65A5.981,5.981,0,0,0,14,47Z" fill="#f44335"/>
        <path id="Rectangle-path" d="M37,47h3v4H37Z" fill="#c81e1e"/>
        <path id="Shape-12" data-name="Shape" d="M36,47V22a2,2,0,0,0-2-2H7a4,4,0,0,0-4,4V47Z" fill="#7f8e94"/>
        <path id="Shape-13" data-name="Shape" d="M34,20H31a2,2,0,0,1,2,2V47h3V22A2,2,0,0,0,34,20Z" fill="#545c60"/>
        <rect id="Rectangle-path-2" data-name="Rectangle-path" width="5" height="19" rx="2.5" transform="translate(31 43) rotate(180)" fill="#607d8b"/>
        <rect id="Rectangle-path-3" data-name="Rectangle-path" width="5" height="19" rx="2.5" transform="translate(22 43) rotate(180)" fill="#607d8b"/>
        <rect id="Rectangle-path-4" data-name="Rectangle-path" width="5" height="19" rx="2.5" transform="translate(13 43) rotate(180)" fill="#607d8b"/>
        <path id="Shape-14" data-name="Shape" d="M44,37a1,1,0,0,1-.856-1.515l3-5a1,1,0,1,1,1.714,1.03l-3,5A1,1,0,0,1,44,37Z" fill="#f5f5f5"/>
        <path id="Shape-15" data-name="Shape" d="M34,18.5a2.467,2.467,0,0,1-.53,1.53L7.06,20A3.441,3.441,0,0,1,6,17.5a3.5,3.5,0,0,1,3.16-3.48c.11-.01.23-.02.34-.02a4.2,4.2,0,0,1,.62.06A4.008,4.008,0,0,1,14,11a3.941,3.941,0,0,1,1.09.17,3.97,3.97,0,0,1,2.48-2.9A3.827,3.827,0,0,1,19,8a4,4,0,0,1,4,4,3.992,3.992,0,0,1,3.53,2.15A3.451,3.451,0,0,1,27.5,14a3.489,3.489,0,0,1,3.22,2.14A2.29,2.29,0,0,1,31.5,16,2.5,2.5,0,0,1,34,18.5Z" fill="sienna"/>
        <path id="Shape-16" data-name="Shape" d="M31.5,16a2.29,2.29,0,0,0-.78.14A3.489,3.489,0,0,0,27.5,14a3.451,3.451,0,0,0-.97.15A3.992,3.992,0,0,0,23,12a4,4,0,0,0-4-4,3.827,3.827,0,0,0-1.43.27c-.022.008-.042.02-.063.028A4,4,0,0,1,20,12a3.992,3.992,0,0,1,3.53,2.15A3.451,3.451,0,0,1,24.5,14a3.489,3.489,0,0,1,3.22,2.14A2.29,2.29,0,0,1,28.5,16,2.5,2.5,0,0,1,31,18.5a2.467,2.467,0,0,1-.528,1.527h3A2.467,2.467,0,0,0,34,18.5,2.5,2.5,0,0,0,31.5,16Z" fill="#783e22"/>
        <path id="Shape-17" data-name="Shape" d="M17.57,8.27a3.97,3.97,0,0,0-2.48,2.9A3.941,3.941,0,0,0,14,11a4.008,4.008,0,0,0-3.88,3.06A4.2,4.2,0,0,0,9.5,14c-.11,0-.23.01-.34.02A5.828,5.828,0,0,1,8,10.5,5.267,5.267,0,0,1,13,5,4.992,4.992,0,0,1,17.57,8.27Z" fill="#ffdc00"/>
        <path id="Shape-18" data-name="Shape" d="M11,1h4a1,1,0,0,1,1,1,3,3,0,0,1-6,0A1,1,0,0,1,11,1Z" fill="#ffeb3a"/>
        <path id="Shape-19" data-name="Shape" d="M20.251,16a1,1,0,0,1-.917-.6,1.068,1.068,0,0,0-1.668,0,1,1,0,0,1-1.832-.8A2.85,2.85,0,0,1,18.5,13a2.85,2.85,0,0,1,2.666,1.6,1,1,0,0,1-.516,1.317A.986.986,0,0,1,20.251,16Z" fill="#783e22"/>
        <g id="Grupo_960374" data-name="Grupo 960374">
          <path id="Shape-20" data-name="Shape" d="M49,50a3,3,0,1,0,3,3A3,3,0,0,0,49,50Zm0,4a1,1,0,1,1,1-1A1,1,0,0,1,49,54Z"/>
          <path id="Shape-21" data-name="Shape" d="M14,50a3,3,0,1,0,3,3A3,3,0,0,0,14,50Zm0,4a1,1,0,1,1,1-1A1,1,0,0,1,14,54Z"/>
          <path id="Shape-22" data-name="Shape" d="M57,39H54a2,2,0,0,1-2-2V30a4,4,0,0,0-4-4H41a2,2,0,0,0-2,2V46H37V22a2.994,2.994,0,0,0-2.069-2.837,3.475,3.475,0,0,0-3.686-4.153,4.41,4.41,0,0,0-4.239-1.979,4.992,4.992,0,0,0-3.09-1.946A5.009,5.009,0,0,0,19,7a4.879,4.879,0,0,0-.892.09A6.17,6.17,0,0,0,15.853,4.8,3.987,3.987,0,0,0,17,2a2,2,0,0,0-2-2H11A2,2,0,0,0,9,2a3.982,3.982,0,0,0,1.14,2.787A6.6,6.6,0,0,0,7,10.5a6.937,6.937,0,0,0,.653,2.9,4.477,4.477,0,0,0-2.274,5.891A4.992,4.992,0,0,0,2,24V46.278A1.993,1.993,0,0,0,1,48v2a2,2,0,0,0,2,2H7.08a6.868,6.868,0,0,0,2.031,6H1a1,1,0,0,0,0,2H59a1,1,0,0,0,0-2H53.889a6.868,6.868,0,0,0,2.031-6H57a3,3,0,0,0,3-3V42A3,3,0,0,0,57,39Zm1,3v1H56a1,1,0,0,1-1-1V41h2A1,1,0,0,1,58,42ZM39,50H20.315a7.016,7.016,0,0,0-1.426-2H39ZM11,2h4a2,2,0,0,1-4,0Zm2,4a3.871,3.871,0,0,1,3.222,1.851,5.016,5.016,0,0,0-1.811,2.169,4.908,4.908,0,0,0-4.862,2.749A4.93,4.93,0,0,1,9,10.5,4.277,4.277,0,0,1,13,6ZM9.5,15a3.185,3.185,0,0,1,.471.049,1,1,0,0,0,1.12-.751A3,3,0,0,1,14,12a2.944,2.944,0,0,1,.814.131,1,1,0,0,0,1.254-.756A3,3,0,0,1,22,12a1,1,0,0,0,1,1,3,3,0,0,1,2.646,1.617,1,1,0,0,0,1.163.493A2.451,2.451,0,0,1,27.5,15a2.489,2.489,0,0,1,2.3,1.527,1,1,0,0,0,1.262.554A1.483,1.483,0,0,1,32.91,19H7.514A2.437,2.437,0,0,1,7,17.5,2.5,2.5,0,0,1,9.5,15ZM7,21H34a1,1,0,0,1,1,1V46H4V24A3,3,0,0,1,7,21ZM3,50V48H9.111a7.016,7.016,0,0,0-1.426,2Zm6,3a5,5,0,1,1,5,5A5,5,0,0,1,9,53Zm9.889,5a6.868,6.868,0,0,0,2.031-6H42.08a6.868,6.868,0,0,0,2.031,6ZM49,58a5,5,0,1,1,5-5A5,5,0,0,1,49,58Zm8-8H55.315a6.985,6.985,0,0,0-12.63,0H41V41h6a1,1,0,0,0,0-2H41V28h7a2,2,0,0,1,2,2v7a4,4,0,0,0,3,3.858V42a3,3,0,0,0,3,3h2v4A1,1,0,0,1,57,50Z"/>
          <path id="Shape-23" data-name="Shape" d="M28.5,44A3.5,3.5,0,0,0,32,40.5v-14a3.5,3.5,0,0,0-7,0v14A3.5,3.5,0,0,0,28.5,44ZM27,26.5a1.5,1.5,0,0,1,3,0v14a1.5,1.5,0,0,1-3,0Z"/>
          <path id="Shape-24" data-name="Shape" d="M19.5,44A3.5,3.5,0,0,0,23,40.5v-14a3.5,3.5,0,0,0-7,0v14A3.5,3.5,0,0,0,19.5,44ZM18,26.5a1.5,1.5,0,0,1,3,0v14a1.5,1.5,0,0,1-3,0Z"/>
          <path id="Shape-25" data-name="Shape" d="M10.5,44A3.5,3.5,0,0,0,14,40.5v-14a3.5,3.5,0,0,0-7,0v14A3.5,3.5,0,0,0,10.5,44ZM9,26.5a1.5,1.5,0,0,1,3,0v14a1.5,1.5,0,0,1-3,0Z"/>
        </g>
      </g>
    </g>
  </g>
</svg>
