<svg xmlns="http://www.w3.org/2000/svg" xmlns:xlink="http://www.w3.org/1999/xlink" width="83" height="83" viewBox="0 0 83 83">
  <defs>
    <clipPath id="clip-path">
      <path id="path165" d="M0-682.665H57.439v57.439H0Z" transform="translate(0 682.665)"/>
    </clipPath>
  </defs>
  <g id="Grupo_960470" data-name="Grupo 960470" transform="translate(-759 -3022)">
    <rect id="Rectángulo_340648" data-name="Rectángulo 340648" width="83" height="83" transform="translate(759 3022)" fill="none"/>
    <g id="g159" transform="translate(772 3717.665)">
      <g id="g161" transform="translate(0 -682.665)">
        <g id="g163" clip-path="url(#clip-path)">
          <g id="g169" transform="translate(36.935 0.841)">
            <path id="path171" d="M-149.8-141.853a13.032,13.032,0,0,0-13.032-13.032h-.73a5.7,5.7,0,0,1,5.7,5.7v.856a1.506,1.506,0,0,0,1.506,1.506h.856a5.7,5.7,0,0,1,5.7,5.7Z" transform="translate(163.566 154.885)" fill="#e2dfe2"/>
          </g>
          <g id="g173" transform="translate(6.741 7.012)">
            <path id="path175" d="M-167.983,0H-181.14a2.276,2.276,0,0,0-2.276,2.276v8.429A2.276,2.276,0,0,1-181.14,8.43h13.157a2.276,2.276,0,0,0,2.276-2.276V2.276A2.276,2.276,0,0,0-167.983,0" transform="translate(183.416)" fill="#a2f4c1"/>
          </g>
          <g id="g177" transform="translate(10.602 0.841)">
            <path id="path179" d="M-374.387-87.754h-.856a1.506,1.506,0,0,1-1.506-1.506v-.856a5.7,5.7,0,0,0-5.7-5.7h-24.827a1.506,1.506,0,0,0-1.506,1.506v4.665h11.571a2.276,2.276,0,0,1,2.276,2.276v3.878a2.276,2.276,0,0,1-2.276,2.276h-11.571v39.651a1.505,1.505,0,0,0,1.506,1.506h37.084a1.505,1.505,0,0,0,1.506-1.506V-82.053a5.7,5.7,0,0,0-5.7-5.7" transform="translate(408.782 95.816)" fill="#f9f6f9"/>
          </g>
          <g id="g181" transform="translate(10.602 8.903)">
            <path id="path183" d="M-374.888,0a5.676,5.676,0,0,1,1.167,3.457V34.244A11.206,11.206,0,0,1-384.926,45.45h-24.4v.738a1.506,1.506,0,0,0,1.506,1.506h37.084a1.506,1.506,0,0,0,1.506-1.506V5.7A5.7,5.7,0,0,0-374.888,0" transform="translate(409.328)" fill="#efecef"/>
          </g>
          <g id="g185" transform="translate(6.741 15.441)">
            <path id="path187" d="M-42.029-49.541h-1.586a2.276,2.276,0,0,1-2.276-2.276,2.276,2.276,0,0,1,2.276-2.276h1.586Z" transform="translate(45.891 54.092)" fill="#86f1a7"/>
          </g>
          <g id="g189" transform="translate(20.626 20.99)">
            <path id="path191" d="M-278.483-60.263v-4.414a1.122,1.122,0,0,0-1.122-1.122h-24.462v5.536Z" transform="translate(304.067 65.8)" fill="#80e29d"/>
          </g>
          <g id="g193" transform="translate(15.09 20.99)">
            <path id="path195" d="M-60.263,0h-4.414A1.122,1.122,0,0,0-65.8,1.122V5.536h5.536Z" transform="translate(65.8)" fill="#78d090"/>
          </g>
          <g id="g197" transform="translate(15.09 26.526)">
            <path id="path199" d="M0,0V24.462a1.122,1.122,0,0,0,1.122,1.122H5.536V0Z" fill="#80e29d"/>
          </g>
          <g id="g201" transform="translate(20.626 26.526)">
            <path id="path203" d="M0,0V25.584H24.462a1.122,1.122,0,0,0,1.122-1.122V0Z" fill="#a2f4c1"/>
          </g>
          <g id="g205" transform="translate(41.732 43.152)">
            <path id="path207" d="M-36.533-97.508a1.122,1.122,0,0,0,1.122-1.122v-7.836a11.189,11.189,0,0,1-4.478,8.958Z" transform="translate(39.889 106.466)" fill="#86f1a7"/>
          </g>
          <g id="g209" transform="translate(36.094 0)">
            <path id="path211" d="M-158.962-149.44a.841.841,0,0,1-.841-.841,4.865,4.865,0,0,0-4.859-4.859h-.856a2.35,2.35,0,0,1-2.347-2.347v-.856a4.865,4.865,0,0,0-4.859-4.859.841.841,0,0,1-.841-.841.841.841,0,0,1,.841-.841h.73a13.889,13.889,0,0,1,13.873,13.873v.731A.841.841,0,0,1-158.962-149.44Zm-8.613-12.934a6.509,6.509,0,0,1,1.392,4.03v.856a.665.665,0,0,0,.664.664h.856a6.509,6.509,0,0,1,4.031,1.392A12.257,12.257,0,0,0-167.575-162.373Z" transform="translate(173.566 164.885)"/>
          </g>
          <g id="g213" transform="translate(5.9 6.17)">
            <path id="path215" d="M-155.049-97.8a.841.841,0,0,1-.841-.841v-8.429a3.121,3.121,0,0,1,3.117-3.117h13.157a3.121,3.121,0,0,1,3.117,3.117v3.878a3.121,3.121,0,0,1-3.117,3.117h-3.157a.841.841,0,0,1-.841-.841.841.841,0,0,1,.841-.841h3.157a1.436,1.436,0,0,0,1.435-1.435v-3.878a1.436,1.436,0,0,0-1.435-1.435h-13.157a1.436,1.436,0,0,0-1.435,1.435v5.662a3.1,3.1,0,0,1,1.434-.35h6.073a.841.841,0,0,1,.841.841.841.841,0,0,1-.841.841h-6.073a1.436,1.436,0,0,0-1.434,1.434A.841.841,0,0,1-155.049-97.8Z" transform="translate(155.89 110.185)"/>
          </g>
          <g id="g217" transform="translate(9.761 0)">
            <path id="path219" d="M-322.126-2.147a.841.841,0,0,1-.841-.841V-7.653A2.35,2.35,0,0,1-320.62-10h24.827a.841.841,0,0,1,.841.841.841.841,0,0,1-.841.841H-320.62a.665.665,0,0,0-.664.664v4.665A.841.841,0,0,1-322.126-2.147Z" transform="translate(322.967 10)"/>
          </g>
          <g id="g221" transform="translate(49.856 13.762)">
            <path id="path223" d="M-9.159-301.028a.841.841,0,0,1-.841-.841V-328.76a.841.841,0,0,1,.841-.841.841.841,0,0,1,.841.841v26.891A.841.841,0,0,1-9.159-301.028Z" transform="translate(10 329.602)"/>
          </g>
          <g id="g225" transform="translate(9.761 14.6)">
            <path id="path227" d="M29.431,32.839H-7.653A2.35,2.35,0,0,1-10,30.492V-9.159A.841.841,0,0,1-9.159-10a.841.841,0,0,1,.841.841V30.492a.665.665,0,0,0,.664.664H29.431a.665.665,0,0,0,.664-.664V20.822a.841.841,0,0,1,1.683,0v9.671A2.35,2.35,0,0,1,29.431,32.839Z" transform="translate(10 10)"/>
          </g>
          <g id="g229" transform="translate(5.9 16.875)">
            <path id="path231" d="M-51.188-33.088h-1.586a3.121,3.121,0,0,1-3.117-3.117.841.841,0,0,1,.841-.841.841.841,0,0,1,.841.841,1.436,1.436,0,0,0,1.434,1.434h1.586a.841.841,0,0,1,.841.841A.841.841,0,0,1-51.188-33.088Z" transform="translate(55.891 37.047)"/>
          </g>
          <g id="g233" transform="translate(19.785 20.148)">
            <path id="path235" d="M-287.642-68.581a.841.841,0,0,1-.841-.841v-4.415a.281.281,0,0,0-.28-.28h-23.621v4.695a.841.841,0,0,1-.841.841.841.841,0,0,1-.841-.841v-5.536a.841.841,0,0,1,.841-.841h24.462a1.965,1.965,0,0,1,1.963,1.963v4.415A.841.841,0,0,1-287.642-68.581Z" transform="translate(314.067 75.8)"/>
          </g>
          <g id="g237" transform="translate(14.248 20.148)">
            <path id="path239" d="M-73.837-10h4.415a.841.841,0,0,1,.841.841v5.536a.841.841,0,0,1-.841.841h-5.536a.841.841,0,0,1-.841-.841V-8.037A1.965,1.965,0,0,1-73.837-10Zm3.573,1.683h-3.573a.281.281,0,0,0-.28.28v3.573h3.854Z" transform="translate(75.8 10)"/>
          </g>
          <g id="g241" transform="translate(14.248 25.685)">
            <path id="path243" d="M-3.622,17.267H-8.037A1.965,1.965,0,0,1-10,15.3V-9.159A.841.841,0,0,1-9.159-10a.841.841,0,0,1,.841.841V15.3a.281.281,0,0,0,.28.28h4.415a.841.841,0,0,1,.841.841A.841.841,0,0,1-3.622,17.267Z" transform="translate(10 10)"/>
          </g>
          <g id="g245" transform="translate(19.785 25.685)">
            <path id="path247" d="M-102.785,17.267h-24.462a.841.841,0,0,1-.841-.841V-9.159a.841.841,0,0,1,.841-.841h9.936a.841.841,0,0,1,.841.841.841.841,0,0,1-.841.841h-9.095v23.9h23.621a.281.281,0,0,0,.28-.28V-8.317h-10.88a.841.841,0,0,1-.841-.841.841.841,0,0,1,.841-.841h11.722a.841.841,0,0,1,.841.841V15.3A1.965,1.965,0,0,1-102.785,17.267Z" transform="translate(128.089 10)"/>
          </g>
          <g id="g249" transform="translate(28.313 20.148)">
            <path id="path251" d="M-9.159,22.8A.841.841,0,0,1-10,21.962V-9.159A.841.841,0,0,1-9.159-10a.841.841,0,0,1,.841.841v31.12A.841.841,0,0,1-9.159,22.8Z" transform="translate(10 10)"/>
          </g>
          <g id="g253" transform="translate(36.841 20.148)">
            <path id="path255" d="M-9.159,22.8A.841.841,0,0,1-10,21.962V-9.159A.841.841,0,0,1-9.159-10a.841.841,0,0,1,.841.841v31.12A.841.841,0,0,1-9.159,22.8Z" transform="translate(10 10)"/>
          </g>
          <g id="g257" transform="translate(14.248 30.802)">
            <path id="path259" d="M21.962-8.317H-9.159A.841.841,0,0,1-10-9.159.841.841,0,0,1-9.159-10h31.12a.841.841,0,0,1,.841.841A.841.841,0,0,1,21.962-8.317Z" transform="translate(10 10)"/>
          </g>
          <g id="g261" transform="translate(14.248 35.918)">
            <path id="path263" d="M21.962-8.317H-9.159A.841.841,0,0,1-10-9.159.841.841,0,0,1-9.159-10h31.12a.841.841,0,0,1,.841.841A.841.841,0,0,1,21.962-8.317Z" transform="translate(10 10)"/>
          </g>
          <g id="g265" transform="translate(14.248 41.035)">
            <path id="path267" d="M21.962-8.317H-9.159A.841.841,0,0,1-10-9.159.841.841,0,0,1-9.159-10h31.12a.841.841,0,0,1,.841.841A.841.841,0,0,1,21.962-8.317Z" transform="translate(10 10)"/>
          </g>
          <g id="g269" transform="translate(14.248 46.152)">
            <path id="path271" d="M21.962-8.317H-9.159A.841.841,0,0,1-10-9.159.841.841,0,0,1-9.159-10h31.12a.841.841,0,0,1,.841.841A.841.841,0,0,1,21.962-8.317Z" transform="translate(10 10)"/>
          </g>
        </g>
      </g>
    </g>
  </g>
</svg>
