<svg xmlns="http://www.w3.org/2000/svg" width="83" height="83" viewBox="0 0 83 83">
  <g id="Grupo_960467" data-name="Grupo 960467" transform="translate(-750 -2614)">
    <rect id="Rectángulo_340645" data-name="Rectángulo 340645" width="83" height="83" transform="translate(750 2614)" fill="none"/>
    <g id="limpiar-deslizar" transform="translate(762 2626)">
      <path id="Trazado_727234" data-name="Trazado 727234" d="M6.251,31.53,28.762,54.042a5.488,5.488,0,0,0,7.762,0L54.811,35.754a6.585,6.585,0,0,0,0-9.312L32.3,3.929a6.587,6.587,0,0,0-9.314,0L6.25,20.665a7.685,7.685,0,0,0,0,10.866" transform="translate(-0.272 -0.091)" fill="#f9d266"/>
      <path id="Trazado_727235" data-name="Trazado 727235" d="M11.093,58.1l13.35-13.348a8.6,8.6,0,0,1,3.364-2.081,8.606,8.606,0,0,0,3.364-2.081l8.207-8.207a1.818,1.818,0,1,0-2.572-2.572l2.572-2.572a1.818,1.818,0,0,0-2.572-2.572L39.379,22.1a1.818,1.818,0,0,0-2.572-2.572L34.235,22.1a1.818,1.818,0,0,0-2.572-2.572L26.52,24.668l-1.286-1.287a1.819,1.819,0,0,0-2.572,0l-3.968,3.968a6.213,6.213,0,0,0-1.819,4.391,6.207,6.207,0,0,1-1.819,4.391L2,49.188Z" transform="translate(-0.091 -1.632)" fill="#fbe1ca"/>
      <g id="Grupo_960313" data-name="Grupo 960313" transform="translate(20.64 19.823)">
        <path id="Trazado_727236" data-name="Trazado 727236" d="M0,0H8.184V1.819H0Z" transform="translate(9.644 13.501) rotate(-45)" fill="#ffd2b0"/>
        <path id="Trazado_727237" data-name="Trazado 727237" d="M0,0H11.821V1.819H0Z" transform="translate(7.072 10.929) rotate(-45)" fill="#ffd2b0"/>
        <path id="Trazado_727238" data-name="Trazado 727238" d="M0,0H11.821V1.819H0Z" transform="translate(4.502 8.357) rotate(-45)" fill="#ffd2b0"/>
        <path id="Trazado_727239" data-name="Trazado 727239" d="M0,0H7.275V1.819H0Z" transform="translate(0 7.713) rotate(-45)" fill="#ffd2b0"/>
      </g>
      <path id="Trazado_727240" data-name="Trazado 727240" d="M47.912,55.456a5.456,5.456,0,0,0-5.456,5.456A5.456,5.456,0,0,0,37,55.456,5.456,5.456,0,0,0,42.456,50a5.456,5.456,0,0,0,5.456,5.456Z" transform="translate(-3.265 -4.444)" fill="#f2f2f2"/>
      <path id="Trazado_727241" data-name="Trazado 727241" d="M43.912,7.456a5.456,5.456,0,0,0-5.456,5.456A5.456,5.456,0,0,0,33,7.456,5.456,5.456,0,0,0,38.456,2a5.456,5.456,0,0,0,5.456,5.456Z" transform="translate(-2.902 -0.091)" fill="#f2f2f2"/>
      <path id="Trazado_727242" data-name="Trazado 727242" d="M13.912,19.456a5.456,5.456,0,0,0-5.456,5.456A5.456,5.456,0,0,0,3,19.456,5.456,5.456,0,0,0,8.456,14a5.456,5.456,0,0,0,5.456,5.456Z" transform="translate(-0.181 -1.179)" fill="#f2f2f2"/>
      <path id="Trazado_727243" data-name="Trazado 727243" d="M2.819,9.184H1A8.193,8.193,0,0,1,9.184,1V2.819A6.373,6.373,0,0,0,2.819,9.184Z" transform="translate(0 0)" fill="#e8e9ea"/>
      <path id="Trazado_727244" data-name="Trazado 727244" d="M11.819,11.184H10A8.193,8.193,0,0,1,18.184,3V4.819A6.373,6.373,0,0,0,11.819,11.184Z" transform="translate(-0.816 -0.181)" fill="#e8e9ea"/>
      <path id="Trazado_727245" data-name="Trazado 727245" d="M54,62.184V60.365A6.373,6.373,0,0,0,60.365,54h1.819A8.193,8.193,0,0,1,54,62.184Z" transform="translate(-4.806 -4.806)" fill="#e8e9ea"/>
      <path id="Trazado_727246" data-name="Trazado 727246" d="M52,53.184V51.365A6.373,6.373,0,0,0,58.365,45h1.819A8.193,8.193,0,0,1,52,53.184Z" transform="translate(-4.625 -3.99)" fill="#e8e9ea"/>
      <path id="Trazado_727247" data-name="Trazado 727247" d="M44.674,50.1a4.518,4.518,0,0,1-2.5-.757l13.04-13.04a7.547,7.547,0,0,0,2.2-5.3,7.445,7.445,0,0,0-2.2-5.3L38.533,9.032a4.518,4.518,0,0,1,2.5-.757.909.909,0,1,0,0-1.819A4.552,4.552,0,0,1,36.49,1.909a.909.909,0,0,0-1.819,0,4.518,4.518,0,0,1-.757,2.5L32.7,3.2a7.5,7.5,0,0,0-10.6,0L9.968,15.324a4.518,4.518,0,0,1-.757-2.5.909.909,0,1,0-1.819,0,4.552,4.552,0,0,1-4.547,4.547.909.909,0,1,0,0,1.819,4.518,4.518,0,0,1,2.5.757,8.592,8.592,0,0,0,.013,12.139l5.382,5.38-9.45,9.451L2.58,48.2,15.638,35.142a7.07,7.07,0,0,0,2.085-5.033,5.336,5.336,0,0,1,1.552-3.747l3.97-3.969a.929.929,0,0,1,1.285,0l.643.643-4.506,4.5,1.29,1.288L27.1,23.68l5.145-5.143a.928.928,0,0,1,1.285,0,.909.909,0,0,1,0,1.285l-8.358,8.359,1.286,1.286,10.93-10.931a.909.909,0,0,1,1.283,1.287L36.1,22.392,27.744,30.75l1.289,1.288L37.4,23.672a.909.909,0,0,1,1.282,1.288l-2.567,2.568-.005,0L30.322,33.32l1.286,1.286L37.4,28.815A.909.909,0,1,1,38.68,30.1l-8.207,8.206a7.747,7.747,0,0,1-3.013,1.861,9.585,9.585,0,0,0-3.721,2.3L10.384,55.832l1.286,1.286,9.361-9.365,6.842,6.842a6.4,6.4,0,0,0,9.048,0l.629-.629a4.518,4.518,0,0,1,.758,2.5.909.909,0,1,0,1.819,0,4.552,4.552,0,0,1,4.547-4.547.909.909,0,1,0,0-1.819ZM35.581,5.183a6.425,6.425,0,0,0,2.182,2.182,6.425,6.425,0,0,0-2.182,2.182A6.425,6.425,0,0,0,33.4,7.365a6.425,6.425,0,0,0,2.182-2.182ZM8.3,16.095a6.425,6.425,0,0,0,2.182,2.182A6.425,6.425,0,0,0,8.3,20.459a6.425,6.425,0,0,0-2.182-2.182A6.425,6.425,0,0,0,8.3,16.095ZM32.4,54.649a4.547,4.547,0,0,1-3.238-1.341l-6.842-6.843,2.7-2.7a7.762,7.762,0,0,1,3.012-1.86,9.57,9.57,0,0,0,3.723-2.3l8.207-8.207a2.734,2.734,0,0,0,0-3.857,2.7,2.7,0,0,0-.76-.525l.761-.761a2.734,2.734,0,0,0,0-3.859,2.694,2.694,0,0,0-.76-.524l.761-.762a2.728,2.728,0,0,0-3.859-3.857l-.759.759a2.723,2.723,0,0,0-.526-.759,2.793,2.793,0,0,0-3.857,0l-4.5,4.5-.643-.643a2.794,2.794,0,0,0-3.857,0l-3.969,3.969a7.167,7.167,0,0,0-2.085,5.033,5.265,5.265,0,0,1-1.552,3.747l-2.326,2.322L6.648,30.8a6.774,6.774,0,0,1-.014-9.567,4.513,4.513,0,0,1,.757,2.5.909.909,0,0,0,1.819,0,4.552,4.552,0,0,1,4.547-4.547.909.909,0,0,0,0-1.819,4.518,4.518,0,0,1-2.5-.757L23.382,4.481a5.678,5.678,0,0,1,8.028,0L32.628,5.7a4.518,4.518,0,0,1-2.5.757.909.909,0,1,0,0,1.819,4.552,4.552,0,0,1,4.547,4.547.909.909,0,1,0,1.819,0,4.518,4.518,0,0,1,.757-2.5L53.923,26.994a5.638,5.638,0,0,1,1.662,4.014,5.711,5.711,0,0,1-1.662,4.013L40.885,48.059a4.513,4.513,0,0,1-.757-2.5.909.909,0,1,0-1.819,0A4.552,4.552,0,0,1,33.762,50.1a.909.909,0,1,0,0,1.819,4.518,4.518,0,0,1,2.5.757l-.628.63A4.547,4.547,0,0,1,32.4,54.649Zm6.82-1.455a6.425,6.425,0,0,0-2.182-2.182,6.425,6.425,0,0,0,2.182-2.182A6.425,6.425,0,0,0,41.4,51.012a6.425,6.425,0,0,0-2.182,2.182Z" transform="translate(-0.027)"/>
      <path id="Trazado_727248" data-name="Trazado 727248" d="M9.184,2.819V1A8.193,8.193,0,0,0,1,9.184H2.819A6.373,6.373,0,0,1,9.184,2.819Z" transform="translate(0 0)"/>
      <path id="Trazado_727249" data-name="Trazado 727249" d="M11.819,11.184a6.373,6.373,0,0,1,6.365-6.365V3A8.193,8.193,0,0,0,10,11.184Z" transform="translate(-0.816 -0.181)"/>
      <path id="Trazado_727250" data-name="Trazado 727250" d="M54,60.365v1.819A8.193,8.193,0,0,0,62.184,54H60.365A6.373,6.373,0,0,1,54,60.365Z" transform="translate(-4.806 -4.806)"/>
      <path id="Trazado_727251" data-name="Trazado 727251" d="M60.184,45H58.365A6.373,6.373,0,0,1,52,51.365v1.819A8.193,8.193,0,0,0,60.184,45Z" transform="translate(-4.625 -3.99)"/>
    </g>
  </g>
</svg>
