<svg xmlns="http://www.w3.org/2000/svg" width="100" height="100" viewBox="0 0 100 100">
  <g id="Grupo_960520" data-name="Grupo 960520" transform="translate(-330 -2172)">
    <circle id="Elipse_5756" data-name="Elipse 5756" cx="50" cy="50" r="50" transform="translate(330 2172)" fill="#badc61"/>
    <g id="desinfeccion" transform="translate(345.997 2188.02)">
      <path id="Trazado_726798" data-name="Trazado 726798" d="M35.574,38.643a2.072,2.072,0,1,1-2.931,2.931C31.834,40.765,31,37,31,37s3.765.834,4.574,1.643Z" transform="translate(1.122 0.978)" fill="#68c3e4"/>
      <path id="Trazado_726799" data-name="Trazado 726799" d="M51.726,26.209a2.073,2.073,0,1,1-3.59,2.072c-.572-.991-.4-4.843-.4-4.843S51.153,25.218,51.726,26.209Z" transform="translate(1.727 0.487)" fill="#68c3e4"/>
      <g id="Grupo_960132" data-name="Grupo 960132" transform="translate(2.435 11.037)">
        <path id="Trazado_726800" data-name="Trazado 726800" d="M40.189,38.986a.777.777,0,0,1-.777-.777c0-2.591-3.68-4.469-3.717-4.488a.777.777,0,1,1,.7-1.39c.187.093,4.575,2.329,4.575,5.877a.777.777,0,0,1-.777.777Z" transform="translate(-1.158 -10.231)" fill="#8bd1ea"/>
        <path id="Trazado_726801" data-name="Trazado 726801" d="M45.1,31.876a.771.771,0,0,1-.549-.228l-2.072-2.072a.777.777,0,0,1,1.1-1.1l2.072,2.072a.782.782,0,0,1-.549,1.326Z" transform="translate(-0.904 -10.375)" fill="#8bd1ea"/>
        <path id="Trazado_726802" data-name="Trazado 726802" d="M47.208,20.821a.748.748,0,0,1-.246-.04,6.424,6.424,0,0,0-4.592-.039.777.777,0,1,1-.69-1.393,7.931,7.931,0,0,1,5.774-.041.78.78,0,0,1-.246,1.514Z" transform="translate(-0.941 -10.718)" fill="#8bd1ea"/>
        <path id="Trazado_726803" data-name="Trazado 726803" d="M56.208,23.913a.776.776,0,0,1-.647-.346A5.891,5.891,0,0,0,51.027,20.8a.777.777,0,1,1,0-1.554A7.441,7.441,0,0,1,56.855,22.7a.782.782,0,0,1-.647,1.208Z" transform="translate(-0.616 -10.701)" fill="#8bd1ea"/>
        <path id="Trazado_726804" data-name="Trazado 726804" d="M27.063,39.985a.777.777,0,0,1-.7-.43,14.507,14.507,0,0,1-1.118-5.528.777.777,0,1,1,1.554,0,13.16,13.16,0,0,0,.954,4.834.781.781,0,0,1-.7,1.124Z" transform="translate(-1.521 -10.195)" fill="#8bd1ea"/>
        <path id="Trazado_726805" data-name="Trazado 726805" d="M28.063,47.949a.777.777,0,0,1-.7-.43,11.062,11.062,0,0,1-1.118-4.492.777.777,0,1,1,1.554,0,9.643,9.643,0,0,0,.954,3.8.781.781,0,0,1-.7,1.123Z" transform="translate(-1.484 -9.869)" fill="#8bd1ea"/>
        <path id="Trazado_726806" data-name="Trazado 726806" d="M29.752,55.867c-2.474-1.237-2.5-4.693-2.5-4.84a.777.777,0,0,1,1.554,0c0,.026.031,2.646,1.642,3.452a.777.777,0,0,1-.694,1.389Z" transform="translate(-1.448 -9.579)" fill="#8bd1ea"/>
        <path id="Trazado_726807" data-name="Trazado 726807" d="M24.045,25.9,19.169,21.71a2.072,2.072,0,0,0-2.961.268L3.734,37.386a6.217,6.217,0,0,0,.782,8.628l5.043,4.33a6.217,6.217,0,0,0,8.882-.805l3.328-4.111a6.217,6.217,0,0,0-.738-8.591,2.188,2.188,0,0,1-.651-3.217l3.923-4.846a2.072,2.072,0,0,0-.26-2.876Z" transform="translate(-2.35 -10.63)" fill="#8bd1ea"/>
        <path id="Trazado_726808" data-name="Trazado 726808" d="M13.76,15.145c10.362,1.036,12.434,12.434,23.833,12.434L40.7,23.434C33.448,19.29,34.484,11,22.05,11c-6.217,0-8.29,4.145-8.29,4.145Z" transform="translate(-1.937 -11)" fill="#8bd1ea"/>
      </g>
      <path id="Trazado_726809" data-name="Trazado 726809" d="M39.869,23,36.76,27.145l3.357,1.036,2.072-3.109Z" transform="translate(1.331 0.471)" fill="#5b9ad8"/>
      <path id="Trazado_726810" data-name="Trazado 726810" d="M11.325,45.413a.777.777,0,0,1-.115-1.093l4.411-5.449a.777.777,0,0,1,1.208.978L12.418,45.3a.8.8,0,0,1-1.093.116Z" transform="translate(0.399 1.035)" fill="#5b9ad8"/>
      <path id="Trazado_726811" data-name="Trazado 726811" d="M16.274,44.875l-5.45-4.411a.777.777,0,0,1,.978-1.208l5.449,4.411a.777.777,0,0,1-.977,1.208Z" transform="translate(0.381 1.054)" fill="#5b9ad8"/>
      <path id="Trazado_726812" data-name="Trazado 726812" d="M65.362,39.362a13.752,13.752,0,0,0-8.29,3.1v.01A10.512,10.512,0,0,0,55,34.181,22.613,22.613,0,0,0,65.362,29Z" transform="translate(1.991 0.689)" fill="#ffba55"/>
      <path id="Trazado_726813" data-name="Trazado 726813" d="M53.709,48.217s-2.253-.119-5.48-.053a2.24,2.24,0,0,1-.251-4.467c4-.4,7.3.022,9.876-1.7l2.072,8.29s-4.145,5.181-16.579,5.181a37.593,37.593,0,0,1-7.959-.753,2.517,2.517,0,0,1,.994-4.933,36.474,36.474,0,0,0,5.929.506,43.23,43.23,0,0,0,11.4-2.072" transform="translate(1.21 1.159)" fill="#f6ccaf"/>
      <path id="Trazado_726814" data-name="Trazado 726814" d="M48.1,48.469c3.228-.066,5.48.053,5.48.053a43.23,43.23,0,0,1-11.4,2.072,36.164,36.164,0,0,1-5.115-.378c.378-1.776,2.716-9.326,15.477-12.056-2.038.407-4.118.7-5.524.872a2.455,2.455,0,0,1-.854-4.828,21.973,21.973,0,0,1,9.486-.19,10.512,10.512,0,0,1,2.072,8.29c-2.579,1.719-5.871,1.3-9.876,1.7a2.24,2.24,0,0,0,.251,4.467c3.228-.066,5.48.053,5.48.053" transform="translate(1.342 0.855)" fill="#edb996"/>
      <path id="Trazado_726815" data-name="Trazado 726815" d="M29.494,24.983c-1.948,3.409-2.1,6.579,1.362,8.307,0,0,0-4.629,1.75-6.886a14.418,14.418,0,0,1-3.112-1.422Z" transform="translate(1.018 0.543)" fill="#fc6"/>
      <path id="Trazado_726816" data-name="Trazado 726816" d="M26.2,22.47c-1.451-1.287-2.836-2.659-4.333-3.881l-2.888,3.568,4.409,3.786Z" transform="translate(0.687 0.312)" fill="#fc6"/>
      <path id="Trazado_726817" data-name="Trazado 726817" d="M11.4,50.612a6.186,6.186,0,0,1-1.792-1.078C8.5,48.453,3.866,44.975,3.233,43.6L1.523,45.4a2.072,2.072,0,0,0,.2,2.948l5.019,4.32a2.072,2.072,0,0,0,2.9-.194Z" transform="translate(0.036 1.217)" fill="#fc6"/>
      <path id="Trazado_726818" data-name="Trazado 726818" d="M65.29,39A13.752,13.752,0,0,0,57,42.1v.01l2.072,8.29a10.391,10.391,0,0,0,6.217,1.036Z" transform="translate(2.063 1.051)" fill="#fc6"/>
      <path id="Trazado_726819" data-name="Trazado 726819" d="M31.386,37.228a1.036,1.036,0,0,0-.279.957c.27,1.22,1,4.159,1.935,5.094,2.751,2.8,7.288-1.4,4.4-4.4-.924-.933-3.867-1.658-5.1-1.935a1.047,1.047,0,0,0-.957.279Zm4.571,3.109A1.036,1.036,0,0,1,34.5,41.8a8.808,8.808,0,0,1-.941-2.406,8.9,8.9,0,0,1,2.4.936ZM48.939,23.01a1.036,1.036,0,0,0-.518.852c-.055,1.25-.112,4.276.55,5.422,2,3.448,7.4.491,5.376-3.123-.653-1.132-3.3-2.591-4.412-3.173A1.036,1.036,0,0,0,48.939,23.01Zm3.612,4.183a1.037,1.037,0,0,1-1.793,1.041,8.814,8.814,0,0,1-.286-2.568A8.937,8.937,0,0,1,52.551,27.193Zm-15.7,7.549a1.037,1.037,0,0,1,.933-1.853c.193.1,4.718,2.4,4.718,6.114a1.036,1.036,0,1,1-2.072,0c0-2.017-2.584-3.759-3.578-4.261Zm9.041-2.266L43.821,30.4a1.036,1.036,0,0,1,1.461-1.465l2.072,2.072a1.035,1.035,0,1,1-1.461,1.465ZM43.054,19.42a8.209,8.209,0,0,1,5.973-.056,1.038,1.038,0,1,1-.656,1.969,6.189,6.189,0,0,0-4.4-.052,1.038,1.038,0,0,1-.918-1.862Zm9.792-.111a7.71,7.71,0,0,1,6.043,3.571,1.036,1.036,0,1,1-1.724,1.149,5.647,5.647,0,0,0-4.326-2.648,1.036,1.036,0,1,1,.007-2.072ZM28.91,39.57a1.036,1.036,0,0,1-1.854.927A14.8,14.8,0,0,1,25.9,34.852a1.036,1.036,0,0,1,2.072,0A12.892,12.892,0,0,0,28.9,39.57Zm1.036,8.29a1.036,1.036,0,1,1-1.854.927,11.364,11.364,0,0,1-1.151-4.609,1.036,1.036,0,1,1,2.072,0,9.381,9.381,0,0,0,.924,3.682Zm1.609,7.826a1.036,1.036,0,1,1-.927,1.854c-2.624-1.308-2.651-4.919-2.651-5.072a1.036,1.036,0,1,1,2.072,0c0,.047.061,2.5,1.5,3.218ZM11.048,41.7a1.036,1.036,0,1,1,1.3-1.61l1.919,1.554,1.554-1.919a1.037,1.037,0,1,1,1.611,1.3l-1.563,1.925,1.919,1.554a1.037,1.037,0,0,1-1.3,1.611L14.57,44.563l-1.554,1.92a1.037,1.037,0,0,1-1.611-1.3l1.554-1.919ZM6.105,54.65a3.115,3.115,0,0,0,4.327-.265l1.333-1.4a7.186,7.186,0,0,0,7.574-2.4l3.32-4.106a7.217,7.217,0,0,0-.971-10.105,1.165,1.165,0,0,1-.414-1.7L25.2,29.821a3.083,3.083,0,0,0,.217-3.587l1.605-1.982a25.519,25.519,0,0,0,2.131,1.622c-1.826,3.685-1.379,7.028,2.258,8.87a1.036,1.036,0,0,0,1.5-.933,14.173,14.173,0,0,1,1.175-5.676,15.919,15.919,0,0,0,3.834.49l3.226,1a1.036,1.036,0,0,0,1.168-.414L44.381,26.1a1.036,1.036,0,0,0-.172-1.347l-2.32-2.072a.761.761,0,0,1-.176-.126,17.4,17.4,0,0,1-5.388-5.339C33.68,13.657,30.945,9.98,22.551,9.98c-6.78,0-9.119,4.525-9.217,4.718a1.043,1.043,0,0,0,.829,1.494,13.424,13.424,0,0,1,6.927,2.855L19.5,21.007a3.109,3.109,0,0,0-4.008.706L3.011,37.123a7.208,7.208,0,0,0-1,7.494L.782,45.907a3.124,3.124,0,0,0,.3,4.421ZM23.936,24.756,21.1,22.321l1.585-1.958c.933.807,1.852,1.676,2.772,2.515Zm7.022,7.137c-1.2-1.435-.909-2.913-.021-4.956q.562.291,1.157.538a14.4,14.4,0,0,0-1.139,4.418Zm10.386-6.915.808.725-1.14,1.717L39.8,27.047ZM16.128,14.416a8.751,8.751,0,0,1,6.417-2.36c7.357,0,9.558,2.965,12.111,6.4a21.061,21.061,0,0,0,5.035,5.285l-2.116,2.822a13.124,13.124,0,0,1-6.546-1.948.048.048,0,0,0-.016-.009c-2.865-1.729-5.166-4.37-7.792-6.5a.11.11,0,0,0-.052-.042,16.722,16.722,0,0,0-7.042-3.642ZM4.622,38.428,17.1,23.02a1.036,1.036,0,0,1,1.481-.134l4.876,4.188a1.03,1.03,0,0,1,.13,1.437l-3.916,4.838a3.225,3.225,0,0,0,.81,4.7,5.163,5.163,0,0,1,.571,7.119l-3.33,4.107a5.181,5.181,0,0,1-7.4.671L5.273,45.618a5.155,5.155,0,0,1-.651-7.19ZM2.306,47.31l.852-.893a86.27,86.27,0,0,0,6.594,5.667l-.854.9a1.036,1.036,0,0,1-1.451.1L2.43,48.755a1.047,1.047,0,0,1-.123-1.444Zm44.96-13.278a3.51,3.51,0,0,0-.911,6.447c-5.944,3-8.008,7.166-8.713,9.415a3.549,3.549,0,0,0-1.279,6.974c9.829,2.2,21.384-.339,24.992-4.183.475.364,7.253,2.157,7.021-.36a1.036,1.036,0,0,0-1.168-.885,9.62,9.62,0,0,1-5.186-.725l-1.8-7.19a13.084,13.084,0,0,1,7.184-2.458,1.038,1.038,0,1,0-.118-2.072,15.58,15.58,0,0,0-7.033,2.038,12,12,0,0,0-1.585-5.512,24.227,24.227,0,0,0,9.361-5.077,1.036,1.036,0,1,0-1.368-1.554A21.977,21.977,0,0,1,56.981,33.8a23.021,23.021,0,0,0-9.714.236Zm12.721,17.09c-3.251,3.444-14.023,5.755-23.16,3.73A1.5,1.5,0,0,1,35.7,53.082c.291-1.23,1.521-1.259,2.552-1,5.285.951,11.754.015,16.973-1.727a1.057,1.057,0,0,0,.713-.876,1.072,1.072,0,0,0-.3-.86,1.208,1.208,0,0,0-.657-.288H54.96c-1.776-.087-3.767-.077-5.583-.059a1.261,1.261,0,0,1-.588-.142,1.219,1.219,0,0,1,.5-2.252c3.087-.348,6.185,0,9.091-1.184Zm-1.865-8.635c-1.805,1.012-3.938.995-5.954,1.117-2.832.071-6.068.078-6.01,3.656A3.342,3.342,0,0,0,47.9,50a28.04,28.04,0,0,1-8.158.184c.926-2.529,4.077-7.965,14.359-10.168a1.04,1.04,0,1,0-.422-2.036c-2.02.4-4.077.69-5.448.86a1.429,1.429,0,0,1-1.451-2.015,1.405,1.405,0,0,1,.96-.775,20.989,20.989,0,0,1,8.641-.26,9.647,9.647,0,0,1,1.754,6.7Z"/>
    </g>
  </g>
</svg>
