<svg xmlns="http://www.w3.org/2000/svg" width="58" height="58" viewBox="0 0 58 58">
  <g id="Grupo_960536" data-name="Grupo 960536" transform="translate(-332 -6899)">
    <circle id="Elipse_5753" data-name="Elipse 5753" cx="29" cy="29" r="29" transform="translate(332 6899)" fill="#badc61"/>
    <g id="contenedor-de-basura" transform="translate(343 6911)">
      <path id="Trazado_726455" data-name="Trazado 726455" d="M35.756,9.99v1.682H1V9.99H35.756Z" transform="translate(-0.439 -4.39)" fill="#afafaf"/>
      <path id="Trazado_726456" data-name="Trazado 726456" d="M61.12,9.99H60v1.682H61.68V9.99Z" transform="translate(-26.364 -4.39)" fill="#939393"/>
      <path id="Trazado_726457" data-name="Trazado 726457" d="M35.635,8.232H2A2.242,2.242,0,0,1,4.242,5.99h29.15A2.242,2.242,0,0,1,35.635,8.232Z" transform="translate(-0.879 -2.632)" fill="#afafaf"/>
      <path id="Trazado_726458" data-name="Trazado 726458" d="M56.68,5.99H55a2.242,2.242,0,0,1,2.242,2.242h1.683A2.242,2.242,0,0,0,56.68,5.99Z" transform="translate(-24.167 -2.632)" fill="#848484"/>
      <path id="Trazado_726459" data-name="Trazado 726459" d="M10,54.01h4.485a2.242,2.242,0,0,1-4.485,0Z" transform="translate(-4.394 -23.733)" fill="#656d78"/>
      <path id="Trazado_726460" data-name="Trazado 726460" d="M46,54.01h4.485a2.242,2.242,0,0,1-4.485,0Z" transform="translate(-20.213 -23.733)" fill="#656d78"/>
      <path id="Trazado_726461" data-name="Trazado 726461" d="M50.606,51.01v1.682H45V51.01Z" transform="translate(-19.774 -22.415)" fill="#ccd1d9"/>
      <path id="Trazado_726462" data-name="Trazado 726462" d="M14.606,51.01v1.682H9V51.01Z" transform="translate(-3.955 -22.415)" fill="#ccd1d9"/>
      <path id="Trazado_726463" data-name="Trazado 726463" d="M20.609,12.99H35.756v2.242a1.117,1.117,0,0,0-1.121,1.121V32.061A2.242,2.242,0,0,1,32.393,34.3H4.363a2.242,2.242,0,0,1-2.242-2.242V16.354A1.117,1.117,0,0,0,1,15.232V12.99H20.609Z" transform="translate(-0.439 -5.708)" fill="#e8e8e8"/>
      <path id="Trazado_726464" data-name="Trazado 726464" d="M57.36,12.99v1.681a1.117,1.117,0,0,0-1.121,1.121V32.061A2.242,2.242,0,0,1,54,34.3H55.68a2.242,2.242,0,0,0,2.242-2.242V16.354a1.117,1.117,0,0,1,1.121-1.121V12.99Z" transform="translate(-23.727 -5.708)" fill="#939393"/>
      <path id="Trazado_726465" data-name="Trazado 726465" fill="#37bc9b" stroke="#000" stroke-miterlimit="10" stroke-width="4"/>
      <path id="Trazado_726466" data-name="Trazado 726466" d="M35.317,11.791H.561A.56.56,0,0,1,0,11.23V9.549a.56.56,0,0,1,.561-.561H35.317a.56.56,0,0,1,.561.561V11.23A.56.56,0,0,1,35.317,11.791ZM1.121,10.67H34.756v-.561H1.121Z" transform="translate(0 -3.949)"/>
      <path id="Trazado_726467" data-name="Trazado 726467" d="M1.682,18.23a.56.56,0,0,1-.561-.561.561.561,0,0,0-.561-.561.561.561,0,1,1,0-1.121A1.684,1.684,0,0,1,2.242,17.67.56.56,0,0,1,1.682,18.23Z" transform="translate(0 -7.025)"/>
      <path id="Trazado_726468" data-name="Trazado 726468" d="M.561,15.351A.56.56,0,0,1,0,14.791V12.549a.561.561,0,0,1,1.121,0v2.242A.56.56,0,0,1,.561,15.351Z" transform="translate(0 -5.268)"/>
      <path id="Trazado_726469" data-name="Trazado 726469" d="M60.561,18.23A.56.56,0,0,1,60,17.67a1.684,1.684,0,0,1,1.682-1.682.561.561,0,1,1,0,1.121.561.561,0,0,0-.561.561A.56.56,0,0,1,60.561,18.23Z" transform="translate(-26.365 -7.025)"/>
      <path id="Trazado_726470" data-name="Trazado 726470" d="M62.561,15.351A.56.56,0,0,1,62,14.791V12.549a.561.561,0,1,1,1.121,0v2.242A.56.56,0,0,1,62.561,15.351Z" transform="translate(-27.244 -5.268)"/>
      <path id="Trazado_726471" data-name="Trazado 726471" d="M4.8,49.375a2.807,2.807,0,0,1-2.8-2.8.561.561,0,1,1,1.121,0A1.684,1.684,0,0,0,4.8,48.253a.561.561,0,1,1,0,1.121Z" transform="translate(-0.879 -20.218)"/>
      <path id="Trazado_726472" data-name="Trazado 726472" d="M56.563,49.375a.561.561,0,1,1,0-1.121,1.684,1.684,0,0,0,1.682-1.683.561.561,0,0,1,1.121,0A2.807,2.807,0,0,1,56.563,49.375Z" transform="translate(-24.608 -20.218)"/>
      <path id="Trazado_726473" data-name="Trazado 726473" d="M2.561,34.818A.56.56,0,0,1,2,34.257V18.549a.561.561,0,1,1,1.121,0V34.257A.56.56,0,0,1,2.561,34.818Z" transform="translate(-0.879 -7.904)"/>
      <path id="Trazado_726474" data-name="Trazado 726474" d="M60.561,34.818A.56.56,0,0,1,60,34.257V18.549a.561.561,0,1,1,1.121,0V34.257A.56.56,0,0,1,60.561,34.818Z" transform="translate(-26.365 -7.904)"/>
      <path id="Trazado_726475" data-name="Trazado 726475" d="M34.591,51.133H6.561a.561.561,0,1,1,0-1.121h28.03a.561.561,0,1,1,0,1.121Z" transform="translate(-2.637 -21.976)"/>
      <path id="Trazado_726476" data-name="Trazado 726476" d="M1.561,8.351A.56.56,0,0,1,1,7.791a2.806,2.806,0,0,1,2.8-2.8.561.561,0,0,1,0,1.121A1.684,1.684,0,0,0,2.121,7.791.56.56,0,0,1,1.561,8.351Z" transform="translate(-0.439 -2.192)"/>
      <path id="Trazado_726477" data-name="Trazado 726477" d="M59.8,8.351a.56.56,0,0,1-.561-.561A1.684,1.684,0,0,0,57.56,6.109a.561.561,0,1,1,0-1.121,2.806,2.806,0,0,1,2.8,2.8A.56.56,0,0,1,59.8,8.351Z" transform="translate(-25.046 -2.192)"/>
      <path id="Trazado_726478" data-name="Trazado 726478" d="M34.71,6.109H5.561a.561.561,0,0,1,0-1.121H34.71a.561.561,0,1,1,0,1.121Z" transform="translate(-2.197 -2.192)"/>
      <path id="Trazado_726479" data-name="Trazado 726479" d="M11.545,14.791a.56.56,0,0,1-.561-.561V12.549a.561.561,0,0,1,1.121,0V14.23A.56.56,0,0,1,11.545,14.791Z" transform="translate(-4.827 -5.268)"/>
      <path id="Trazado_726480" data-name="Trazado 726480" d="M19.545,14.791a.56.56,0,0,1-.561-.561V12.549a.561.561,0,0,1,1.121,0V14.23A.56.56,0,0,1,19.545,14.791Z" transform="translate(-8.342 -5.268)"/>
      <path id="Trazado_726481" data-name="Trazado 726481" d="M27.545,14.791a.56.56,0,0,1-.561-.561V12.549a.561.561,0,1,1,1.121,0V14.23A.56.56,0,0,1,27.545,14.791Z" transform="translate(-11.857 -5.268)"/>
      <path id="Trazado_726482" data-name="Trazado 726482" d="M35.545,14.791a.56.56,0,0,1-.561-.561V12.549a.561.561,0,1,1,1.121,0V14.23A.56.56,0,0,1,35.545,14.791Z" transform="translate(-15.373 -5.268)"/>
      <path id="Trazado_726483" data-name="Trazado 726483" d="M43.545,14.791a.56.56,0,0,1-.561-.561V12.549a.561.561,0,1,1,1.121,0V14.23A.56.56,0,0,1,43.545,14.791Z" transform="translate(-18.888 -5.268)"/>
      <path id="Trazado_726484" data-name="Trazado 726484" d="M51.545,14.791a.56.56,0,0,1-.561-.561V12.549a.561.561,0,1,1,1.121,0V14.23A.56.56,0,0,1,51.545,14.791Z" transform="translate(-22.403 -5.268)"/>
      <path id="Trazado_726485" data-name="Trazado 726485" d="M11.806,56.375a2.806,2.806,0,0,1-2.8-2.8.561.561,0,1,1,1.121,0,1.682,1.682,0,0,0,3.363,0,.561.561,0,1,1,1.121,0A2.806,2.806,0,0,1,11.806,56.375Z" transform="translate(-3.956 -23.294)"/>
      <path id="Trazado_726486" data-name="Trazado 726486" d="M14.169,52.8H8.564A.56.56,0,0,1,8,52.244V50.55a.561.561,0,0,1,1.121,0v1.134h4.484V50.55a.561.561,0,0,1,1.121,0v1.695A.56.56,0,0,1,14.169,52.8Z" transform="translate(-3.517 -21.966)"/>
      <path id="Trazado_726487" data-name="Trazado 726487" d="M47.8,56.375a2.806,2.806,0,0,1-2.8-2.8.561.561,0,1,1,1.121,0,1.682,1.682,0,0,0,3.363,0,.561.561,0,1,1,1.121,0A2.806,2.806,0,0,1,47.8,56.375Z" transform="translate(-19.773 -23.294)"/>
      <path id="Trazado_726488" data-name="Trazado 726488" d="M50.164,52.8H44.559A.56.56,0,0,1,44,52.244V50.55a.561.561,0,0,1,1.121,0v1.134H49.6V50.55a.561.561,0,0,1,1.121,0v1.695A.56.56,0,0,1,50.164,52.8Z" transform="translate(-19.333 -21.966)"/>
      <path id="Trazado_726489" data-name="Trazado 726489" d="M24.545,31.034a.56.56,0,0,1-.561-.561A4.485,4.485,0,0,1,31.64,27.3a.56.56,0,0,1-.793.793,3.364,3.364,0,0,0-5.743,2.377.56.56,0,0,1-.561.561Z" transform="translate(-10.539 -11.421)"/>
      <path id="Trazado_726490" data-name="Trazado 726490" d="M29.371,38.029A4.471,4.471,0,0,1,26.2,36.717a.56.56,0,0,1,.793-.793,3.363,3.363,0,0,0,5.741-2.38.561.561,0,1,1,1.121,0,4.48,4.48,0,0,1-4.484,4.484Z" transform="translate(-11.44 -14.494)"/>
      <path id="Trazado_726491" data-name="Trazado 726491" d="M35.247,29.16H33.655a.561.561,0,1,1,0-1.121h1.592a.561.561,0,0,1,0,1.121Z" transform="translate(-14.542 -12.321)"/>
      <path id="Trazado_726492" data-name="Trazado 726492" d="M35.874,27.911a.559.559,0,0,1-.5-.311l-.793-1.593a.561.561,0,1,1,1-.5l.793,1.593a.561.561,0,0,1-.5.811Z" transform="translate(-15.169 -11.072)"/>
      <path id="Trazado_726493" data-name="Trazado 726493" d="M28.184,39.062H26.592a.561.561,0,1,1,0-1.121h1.592a.561.561,0,1,1,0,1.121Z" transform="translate(-11.438 -16.672)"/>
      <path id="Trazado_726494" data-name="Trazado 726494" d="M27.386,40.654a.561.561,0,0,1-.5-.311l-.794-1.592a.56.56,0,1,1,1-.5l.794,1.592a.56.56,0,0,1-.251.752A.546.546,0,0,1,27.386,40.654Z" transform="translate(-11.438 -16.671)"/>
    </g>
  </g>
</svg>
