<svg xmlns="http://www.w3.org/2000/svg" width="58" height="58" viewBox="0 0 58 58">
  <g id="Grupo_960535" data-name="Grupo 960535" transform="translate(-332 -6772)">
    <circle id="Elipse_5752" data-name="Elipse 5752" cx="29" cy="29" r="29" transform="translate(332 6772)" fill="#badc61"/>
    <g id="linear" transform="translate(343 6783)">
      <path id="Trazado_726327" data-name="Trazado 726327" d="M30.652,54.742H6.132a1.093,1.093,0,0,1-1.06-.828L2,46H34.784l-3.071,7.914A1.093,1.093,0,0,1,30.652,54.742Z" transform="translate(-0.454 -20.412)" fill="#c1dfea"/>
      <path id="Trazado_726328" data-name="Trazado 726328" d="M30.681,32H6.1a1.093,1.093,0,0,0-1.051.793L2,39.649H34.784l-3.052-6.857A1.093,1.093,0,0,0,30.681,32Z" transform="translate(-0.454 -14.062)" fill="#d4eef9"/>
      <path id="Trazado_726329" data-name="Trazado 726329" d="M34.784,46H2l.635,1.639H34.149Z" transform="translate(-0.454 -20.412)" fill="#231f20" opacity="0.1"/>
      <path id="Trazado_726330" data-name="Trazado 726330" d="M27,46h5.464v2.732a1.093,1.093,0,0,1-1.093,1.093H28.093A1.093,1.093,0,0,1,27,48.732Z" transform="translate(-11.794 -20.412)" fill="#231f20" opacity="0.1"/>
      <path id="Trazado_726331" data-name="Trazado 726331" d="M27,46h5.464v1.639a1.093,1.093,0,0,1-1.093,1.093H28.093A1.093,1.093,0,0,1,27,47.639Z" transform="translate(-11.794 -20.412)" fill="#e5f5fb"/>
      <path id="Trazado_726332" data-name="Trazado 726332" d="M21,32H33.021v2.186a1.093,1.093,0,0,1-1.093,1.093H22.093A1.093,1.093,0,0,1,21,34.186Z" transform="translate(-9.072 -14.062)" fill="#e5f5fb"/>
      <path id="Trazado_726333" data-name="Trazado 726333" d="M30.652,24.742H6.132a1.093,1.093,0,0,1-1.06-.828L2,16H34.784l-3.071,7.914A1.093,1.093,0,0,1,30.652,24.742Z" transform="translate(-0.454 -6.804)" fill="#c1dfea"/>
      <path id="Trazado_726334" data-name="Trazado 726334" d="M30.681,2H6.1a1.093,1.093,0,0,0-1.051.793L2,9.649H34.784L31.731,2.793A1.093,1.093,0,0,0,30.681,2Z" transform="translate(-0.454 -0.454)" fill="#d4eef9"/>
      <path id="Trazado_726335" data-name="Trazado 726335" d="M34.784,16H2l.635,1.639H34.149Z" transform="translate(-0.454 -6.804)" fill="#231f20" opacity="0.1"/>
      <path id="Trazado_726336" data-name="Trazado 726336" d="M27,16h5.464v2.732a1.093,1.093,0,0,1-1.093,1.093H28.093A1.093,1.093,0,0,1,27,18.732Z" transform="translate(-11.794 -6.804)" fill="#231f20" opacity="0.1"/>
      <path id="Trazado_726337" data-name="Trazado 726337" d="M27,16h5.464v1.639a1.093,1.093,0,0,1-1.093,1.093H28.093A1.093,1.093,0,0,1,27,17.639Z" transform="translate(-11.794 -6.804)" fill="#e5f5fb"/>
      <path id="Trazado_726338" data-name="Trazado 726338" d="M21,2H33.021V4.186a1.093,1.093,0,0,1-1.093,1.093H22.093A1.093,1.093,0,0,1,21,4.186Z" transform="translate(-9.072 -0.454)" fill="#e5f5fb"/>
      <g id="Grupo_959822" data-name="Grupo 959822" transform="translate(0.999 1)">
        <path id="Trazado_726339" data-name="Trazado 726339" d="M30.2,54.835H5.678A1.639,1.639,0,0,1,4.1,53.63l-3.06-7.886A.546.546,0,0,1,1.546,45H34.33a.546.546,0,0,1,.51.744L31.78,53.63A1.639,1.639,0,0,1,30.2,54.835ZM2.345,46.093l2.783,7.17a.557.557,0,0,1,.02.065.546.546,0,0,0,.531.414H30.2a.546.546,0,0,0,.531-.414.557.557,0,0,1,.02-.065l2.783-7.17Z" transform="translate(-1 -20.959)" fill="#231f20"/>
        <path id="Trazado_726340" data-name="Trazado 726340" d="M34.33,39.742H1.546a.546.546,0,0,1-.5-.769l3.038-6.826A1.646,1.646,0,0,1,5.649,31H30.227a1.646,1.646,0,0,1,1.564,1.147l3.038,6.825a.546.546,0,0,1-.5.77ZM2.388,38.649h31.1l-2.71-6.088a.688.688,0,0,1-.026-.072.546.546,0,0,0-.525-.4H5.649a.546.546,0,0,0-.525.4.687.687,0,0,1-.026.072Z" transform="translate(-0.999 -14.608)" fill="#231f20"/>
        <path id="Trazado_726341" data-name="Trazado 726341" d="M30.2,24.835H5.678A1.639,1.639,0,0,1,4.1,23.63l-3.06-7.886A.546.546,0,0,1,1.546,15H34.33a.546.546,0,0,1,.51.744L31.78,23.63A1.639,1.639,0,0,1,30.2,24.835ZM2.345,16.093l2.783,7.17a.557.557,0,0,1,.02.065.546.546,0,0,0,.531.414H30.2a.546.546,0,0,0,.531-.414.557.557,0,0,1,.02-.065l2.783-7.17Z" transform="translate(-1 -7.351)" fill="#231f20"/>
        <path id="Trazado_726342" data-name="Trazado 726342" d="M34.33,9.742H1.546a.546.546,0,0,1-.5-.769L4.085,2.147A1.646,1.646,0,0,1,5.649,1H30.227a1.646,1.646,0,0,1,1.564,1.147l3.038,6.825a.546.546,0,0,1-.5.77ZM2.388,8.649h31.1l-2.71-6.088a.687.687,0,0,1-.026-.072.546.546,0,0,0-.525-.4H5.649a.546.546,0,0,0-.525.4.687.687,0,0,1-.026.072Z" transform="translate(-0.999 -1)" fill="#231f20"/>
        <path id="Trazado_726343" data-name="Trazado 726343" d="M30.918,18.825H27.639A1.639,1.639,0,0,1,26,17.186V15.546A.546.546,0,0,1,26.546,15H32.01a.546.546,0,0,1,.546.546v1.639A1.639,1.639,0,0,1,30.918,18.825Zm-3.825-2.732v1.093a.546.546,0,0,0,.546.546h3.278a.546.546,0,0,0,.546-.546V16.093Z" transform="translate(-12.34 -7.351)" fill="#231f20"/>
        <path id="Trazado_726344" data-name="Trazado 726344" d="M30.918,48.825H27.639A1.639,1.639,0,0,1,26,47.186V45.546A.546.546,0,0,1,26.546,45H32.01a.546.546,0,0,1,.546.546v1.639A1.639,1.639,0,0,1,30.918,48.825Zm-3.825-2.732v1.093a.546.546,0,0,0,.546.546h3.278a.546.546,0,0,0,.546-.546V46.093Z" transform="translate(-12.34 -20.959)" fill="#231f20"/>
        <path id="Trazado_726345" data-name="Trazado 726345" d="M51.546,28.01A.546.546,0,0,1,51,27.464V22.546a.546.546,0,1,1,1.093,0v4.918A.546.546,0,0,1,51.546,28.01Z" transform="translate(-23.68 -10.526)" fill="#231f20"/>
        <path id="Trazado_726346" data-name="Trazado 726346" d="M46.546,28.01A.546.546,0,0,1,46,27.464V22.546a.546.546,0,0,1,1.093,0v4.918A.546.546,0,0,1,46.546,28.01Z" transform="translate(-21.412 -10.526)" fill="#231f20"/>
        <path id="Trazado_726347" data-name="Trazado 726347" d="M41.546,28.01A.546.546,0,0,1,41,27.464V22.546a.546.546,0,0,1,1.093,0v4.918A.546.546,0,0,1,41.546,28.01Z" transform="translate(-19.144 -10.526)" fill="#231f20"/>
        <path id="Trazado_726348" data-name="Trazado 726348" d="M11.546,27.557A.546.546,0,0,1,11,27.01V21.546a.546.546,0,1,1,1.093,0V27.01A.546.546,0,0,1,11.546,27.557Z" transform="translate(-5.536 -10.072)" fill="#231f20"/>
        <path id="Trazado_726349" data-name="Trazado 726349" d="M16.546,27.557A.546.546,0,0,1,16,27.01V21.546a.546.546,0,1,1,1.093,0V27.01A.546.546,0,0,1,16.546,27.557Z" transform="translate(-7.804 -10.072)" fill="#231f20"/>
        <path id="Trazado_726350" data-name="Trazado 726350" d="M21.546,27.557A.546.546,0,0,1,21,27.01V21.546a.546.546,0,1,1,1.093,0V27.01A.546.546,0,0,1,21.546,27.557Z" transform="translate(-10.072 -10.072)" fill="#231f20"/>
        <path id="Trazado_726351" data-name="Trazado 726351" d="M51.546,58.01A.546.546,0,0,1,51,57.464V52.546a.546.546,0,1,1,1.093,0v4.918A.546.546,0,0,1,51.546,58.01Z" transform="translate(-23.68 -24.134)" fill="#231f20"/>
        <path id="Trazado_726352" data-name="Trazado 726352" d="M46.546,58.01A.546.546,0,0,1,46,57.464V52.546a.546.546,0,1,1,1.093,0v4.918A.546.546,0,0,1,46.546,58.01Z" transform="translate(-21.412 -24.134)" fill="#231f20"/>
        <path id="Trazado_726353" data-name="Trazado 726353" d="M41.546,58.01A.546.546,0,0,1,41,57.464V52.546a.546.546,0,1,1,1.093,0v4.918A.546.546,0,0,1,41.546,58.01Z" transform="translate(-19.144 -24.134)" fill="#231f20"/>
        <path id="Trazado_726354" data-name="Trazado 726354" d="M11.546,57.557A.546.546,0,0,1,11,57.01V51.546a.546.546,0,1,1,1.093,0V57.01A.546.546,0,0,1,11.546,57.557Z" transform="translate(-5.536 -23.68)" fill="#231f20"/>
        <path id="Trazado_726355" data-name="Trazado 726355" d="M16.546,57.557A.546.546,0,0,1,16,57.01V51.546a.546.546,0,1,1,1.093,0V57.01A.546.546,0,0,1,16.546,57.557Z" transform="translate(-7.804 -23.68)" fill="#231f20"/>
        <path id="Trazado_726356" data-name="Trazado 726356" d="M21.546,57.557A.546.546,0,0,1,21,57.01V51.546a.546.546,0,1,1,1.093,0V57.01A.546.546,0,0,1,21.546,57.557Z" transform="translate(-10.072 -23.68)" fill="#231f20"/>
        <path id="Trazado_726357" data-name="Trazado 726357" d="M31.474,5.371H21.639A1.639,1.639,0,0,1,20,3.732V1.546A.546.546,0,0,1,20.546,1H32.567a.546.546,0,0,1,.546.546V3.732A1.639,1.639,0,0,1,31.474,5.371ZM21.093,2.093V3.732a.546.546,0,0,0,.546.546h9.835a.546.546,0,0,0,.546-.546V2.093Z" transform="translate(-9.618 -1)" fill="#231f20"/>
        <path id="Trazado_726358" data-name="Trazado 726358" d="M31.474,35.371H21.639A1.639,1.639,0,0,1,20,33.732V31.546A.546.546,0,0,1,20.546,31H32.567a.546.546,0,0,1,.546.546v2.186A1.639,1.639,0,0,1,31.474,35.371ZM21.093,32.093v1.639a.546.546,0,0,0,.546.546h9.835a.546.546,0,0,0,.546-.546V32.093Z" transform="translate(-9.618 -14.608)" fill="#231f20"/>
      </g>
    </g>
  </g>
</svg>
