<svg xmlns="http://www.w3.org/2000/svg" width="136" height="136" viewBox="0 0 136 136">
  <g id="Grupo_960526" data-name="Grupo 960526" transform="translate(-180 -882)">
    <rect id="Rectángulo_340402" data-name="Rectángulo 340402" width="136" height="136" transform="translate(180 882)" fill="#badc61"/>
    <g id="lista-de-verificacion_3_" data-name="lista-de-verificacion (3)" transform="translate(171.926 909.96)">
      <path id="Trazado_726154" data-name="Trazado 726154" d="M97.125,9.568,112,67.169a4.353,4.353,0,0,1-3.116,5.3L68.709,82.844a4.346,4.346,0,0,1-5.3-3.116L48.536,22.111a4.346,4.346,0,0,1,3.116-5.3L91.829,6.436a4.343,4.343,0,0,1,5.3,3.132Z" transform="translate(-4.506 -4.45)" fill="#e77c6a"/>
      <path id="Trazado_726155" data-name="Trazado 726155" d="M97.041,9.568l.276,1.075a9.11,9.11,0,0,1-1.489,7.691l-1.689,2.287a9.071,9.071,0,0,1-5.051,3.408L62.406,30.923a9.072,9.072,0,0,1-6.064-.537L53.748,29.2a9.138,9.138,0,0,1-5.035-6l-.276-1.075a4.346,4.346,0,0,1,3.116-5.3L91.744,6.436a4.343,4.343,0,0,1,5.3,3.132Z" transform="translate(-4.422 -4.45)" fill="#f1b2a3"/>
      <path id="Trazado_726156" data-name="Trazado 726156" d="M172.21,9.568l14.876,57.6a4.353,4.353,0,0,1-3.116,5.3L143.794,82.844a4.346,4.346,0,0,1-5.3-3.116l-1.4-5.389a50.183,50.183,0,0,0,31.656-59.8L166.7,6.5l.23-.061a4.334,4.334,0,0,1,5.281,3.132Z" transform="translate(-79.591 -4.45)" opacity="0.1"/>
      <path id="Trazado_726157" data-name="Trazado 726157" d="M143.933,37.777V98.4a3.774,3.774,0,0,1-3.777,3.777H98.077A3.774,3.774,0,0,1,94.3,98.4V37.777A3.774,3.774,0,0,1,98.077,34h42.08A3.774,3.774,0,0,1,143.933,37.777Z" transform="translate(-43.362 -27.9)" fill="#e8f1f8"/>
      <path id="Trazado_726158" data-name="Trazado 726158" d="M144.033,37.692V98.318a3.774,3.774,0,0,1-3.777,3.777H98.177A3.774,3.774,0,0,1,94.4,98.318v-2.3a45.856,45.856,0,0,0,41.328-45.627V33.9h4.529a3.8,3.8,0,0,1,3.777,3.792Z" transform="translate(-43.447 -27.815)" opacity="0.1"/>
      <path id="Trazado_726159" data-name="Trazado 726159" d="M148.524,94.462a7.062,7.062,0,1,1-7.062-7.062A7.063,7.063,0,0,1,148.524,94.462Z" transform="translate(-77.306 -73.102)" fill="#f14f4a"/>
      <path id="Trazado_726160" data-name="Trazado 726160" d="M148.524,217.062A7.062,7.062,0,1,1,141.462,210,7.063,7.063,0,0,1,148.524,217.062Z" transform="translate(-77.306 -176.88)" fill="#0e9c4a"/>
      <path id="Trazado_726161" data-name="Trazado 726161" d="M148.524,339.562a7.062,7.062,0,1,1-7.062-7.062A7.063,7.063,0,0,1,148.524,339.562Z" transform="translate(-77.306 -280.573)" fill="#f78721"/>
      <g id="Grupo_959787" data-name="Grupo 959787" transform="translate(43.074 1.04)">
        <path id="Trazado_726162" data-name="Trazado 726162" d="M108.294,62.5,101.4,35.822V9.877a4.593,4.593,0,0,0-4.59-4.59h-3.3l-.092-.368A5.171,5.171,0,0,0,87.123,1.2L71.31,5.287H54.73a4.6,4.6,0,0,0-4.606,4.59v.875l-3.178.829a5.2,5.2,0,0,0-3.715,6.294l6.893,26.667V70.5a4.593,4.593,0,0,0,4.59,4.59h3.3l.092.368A5.159,5.159,0,0,0,64.4,79.177l15.782-4.068H96.795a4.593,4.593,0,0,0,4.59-4.59v-.89l3.178-.829a5.207,5.207,0,0,0,3.731-6.294ZM91.821,5.287H77.835l9.7-2.5A3.531,3.531,0,0,1,91.821,5.287ZM44.812,17.461a3.562,3.562,0,0,1,2.548-4.314l2.763-.706V24.2l-.445-.215a8.854,8.854,0,0,1-4.867-6.525Zm1.643,6.325A9.516,9.516,0,0,0,49,25.459l1.136.522V38ZM63.987,77.58a3.511,3.511,0,0,1-4.283-2.5H73.659ZM99.758,70.5a2.965,2.965,0,0,1-2.963,2.963H54.715A2.975,2.975,0,0,1,51.752,70.5V9.877a2.965,2.965,0,0,1,2.963-2.963c47.975.015,41.481.015,42.08,0a2.965,2.965,0,0,1,2.963,2.963Zm4.406-3.285-2.779.722V42.347L106.712,62.9A3.562,3.562,0,0,1,104.164,67.217Z" transform="translate(-43.074 -1.04)"/>
        <path id="Trazado_726163" data-name="Trazado 726163" d="M161.267,120.032a.806.806,0,0,0,0,1.151l1.182,1.182a.806.806,0,0,0,1.151,0l3.147-3.147a.814.814,0,0,0-1.151-1.151l-2.579,2.579-.6-.6A.793.793,0,0,0,161.267,120.032Z" transform="translate(-142.917 -99.896)"/>
        <path id="Trazado_726164" data-name="Trazado 726164" d="M271.282,110.9H252.814a.814.814,0,0,0,0,1.627h18.469a.819.819,0,0,0,.814-.814A.809.809,0,0,0,271.282,110.9Z" transform="translate(-219.925 -94.034)"/>
        <path id="Trazado_726165" data-name="Trazado 726165" d="M252.814,147.027h11.7a.814.814,0,1,0,0-1.627h-11.7a.814.814,0,1,0,0,1.627Z" transform="translate(-219.925 -123.238)"/>
        <path id="Trazado_726166" data-name="Trazado 726166" d="M165.581,240.667l-2.564,2.564-.6-.6a.814.814,0,0,0-1.151,1.151l1.182,1.182a.806.806,0,0,0,1.151,0l3.147-3.147a.806.806,0,0,0,0-1.151A.825.825,0,0,0,165.581,240.667Z" transform="translate(-142.917 -203.674)"/>
        <path id="Trazado_726167" data-name="Trazado 726167" d="M271.282,233.4H252.814a.814.814,0,0,0,0,1.627h18.469a.819.819,0,0,0,.814-.814A.809.809,0,0,0,271.282,233.4Z" transform="translate(-219.925 -197.728)"/>
        <path id="Trazado_726168" data-name="Trazado 726168" d="M252.814,269.627h11.7a.814.814,0,1,0,0-1.627h-11.7a.814.814,0,1,0,0,1.627Z" transform="translate(-219.925 -227.016)"/>
        <path id="Trazado_726169" data-name="Trazado 726169" d="M165.581,363.267l-2.564,2.564-.6-.6a.814.814,0,0,0-1.151,1.151l1.182,1.182a.806.806,0,0,0,1.151,0l3.147-3.147a.806.806,0,0,0,0-1.151.825.825,0,0,0-1.167,0Z" transform="translate(-142.917 -307.453)"/>
        <path id="Trazado_726170" data-name="Trazado 726170" d="M271.282,356H252.814a.814.814,0,0,0,0,1.627h18.469a.819.819,0,0,0,.814-.814A.809.809,0,0,0,271.282,356Z" transform="translate(-219.925 -301.506)"/>
        <path id="Trazado_726171" data-name="Trazado 726171" d="M264.512,390.5h-11.7a.814.814,0,1,0,0,1.627h11.7a.814.814,0,1,0,0-1.627Z" transform="translate(-219.925 -330.71)"/>
        <path id="Trazado_726172" data-name="Trazado 726172" d="M136.876,97.851A7.876,7.876,0,1,0,129,89.976h0a7.882,7.882,0,0,0,7.876,7.876Zm0-14.124a6.248,6.248,0,1,1-6.233,6.248,6.254,6.254,0,0,1,6.233-6.248Z" transform="translate(-115.808 -69.656)"/>
        <path id="Trazado_726173" data-name="Trazado 726173" d="M136.976,204.7a7.883,7.883,0,1,0,7.891,7.876A7.882,7.882,0,0,0,136.976,204.7Zm0,14.124a6.248,6.248,0,1,1,6.248-6.248A6.264,6.264,0,0,1,136.976,218.824Z" transform="translate(-115.893 -173.434)"/>
        <path id="Trazado_726174" data-name="Trazado 726174" d="M136.976,327.2a7.883,7.883,0,1,0,7.891,7.876A7.882,7.882,0,0,0,136.976,327.2Zm0,14.139a6.248,6.248,0,1,1,6.248-6.248A6.264,6.264,0,0,1,136.976,341.339Z" transform="translate(-115.893 -277.128)"/>
      </g>
    </g>
  </g>
</svg>
