<svg xmlns="http://www.w3.org/2000/svg" width="136" height="136" viewBox="0 0 136 136">
  <g id="Grupo_960527" data-name="Grupo 960527" transform="translate(-600 -882)">
    <rect id="Rectángulo_340402" data-name="Rectángulo 340402" width="136" height="136" transform="translate(600 882)" fill="#badc61"/>
    <g id="bloques" transform="translate(631 919)">
      <path id="Trazado_726199" data-name="Trazado 726199" d="M75.243,241.089H11.43a3.93,3.93,0,0,1-3.93-3.93V213.293a3.93,3.93,0,0,1,3.93-3.93H75.243a3.93,3.93,0,0,1,3.93,3.93V237.16A3.93,3.93,0,0,1,75.243,241.089Zm0,0" transform="translate(-6.418 -179.171)" fill="#da9783"/>
      <path id="Trazado_726200" data-name="Trazado 726200" d="M75.58,209.438c.006.091.01.182.01.274v23.867a3.93,3.93,0,0,1-3.93,3.93H7.848c-.092,0-.184,0-.274-.011a3.929,3.929,0,0,0,3.919,3.656H75.306a3.93,3.93,0,0,0,3.93-3.93V213.358a3.929,3.929,0,0,0-3.655-3.92Zm0,0" transform="translate(-6.482 -179.235)" fill="#ba8170"/>
      <path id="Trazado_726201" data-name="Trazado 726201" d="M51.087,268.841a8.514,8.514,0,1,1-8.514-8.513A8.514,8.514,0,0,1,51.087,268.841Zm0,0" transform="translate(-29.147 -222.786)" fill="#d67046"/>
      <path id="Trazado_726202" data-name="Trazado 726202" d="M53.848,268.465A8.513,8.513,0,0,1,42.2,280.117a8.513,8.513,0,1,0,11.652-11.652Zm0,0" transform="translate(-36.11 -229.75)" fill="#bd633e"/>
      <path id="Trazado_726203" data-name="Trazado 726203" d="M210.278,277.355H196.506a1.628,1.628,0,0,1-1.627-1.628V261.955a1.627,1.627,0,0,1,1.627-1.627h13.772a1.628,1.628,0,0,1,1.628,1.627v13.772A1.628,1.628,0,0,1,210.278,277.355Zm0,0" transform="translate(-166.775 -222.786)" fill="#d67046"/>
      <path id="Trazado_726204" data-name="Trazado 726204" d="M210.278,260.328h-1.759V272.34a1.628,1.628,0,0,1-1.628,1.628H194.879v1.759a1.628,1.628,0,0,0,1.627,1.628h13.772a1.628,1.628,0,0,0,1.628-1.628V261.955A1.628,1.628,0,0,0,210.278,260.328Zm0,0" transform="translate(-166.775 -222.786)" fill="#bd633e"/>
      <path id="Trazado_726205" data-name="Trazado 726205" d="M359.369,258.042,351.683,273.1a1.427,1.427,0,0,0,1.271,2.076h15.371A1.427,1.427,0,0,0,369.6,273.1l-7.685-15.056a1.428,1.428,0,0,0-2.543,0Zm0,0" transform="translate(-300.832 -220.164)" fill="#d67046"/>
      <path id="Trazado_726206" data-name="Trazado 726206" d="M369.6,273.1l-7.685-15.056a1.428,1.428,0,0,0-2.543,0l-.191.373,6.093,11.936A1.427,1.427,0,0,1,364,272.428H352.026l-.342.671a1.427,1.427,0,0,0,1.271,2.076h15.371A1.428,1.428,0,0,0,369.6,273.1Zm0,0" transform="translate(-300.832 -220.164)" fill="#bd633e"/>
      <path id="Trazado_726207" data-name="Trazado 726207" d="M372.723,19.073a8.514,8.514,0,1,1-8.513-8.514,8.514,8.514,0,0,1,8.513,8.514Zm0,0" transform="translate(-304.401 -9.036)" fill="#4cb4a4"/>
      <path id="Trazado_726208" data-name="Trazado 726208" d="M375.574,18.777a8.513,8.513,0,0,1-11.661,11.661,8.514,8.514,0,1,0,11.661-11.661Zm0,0" transform="translate(-311.434 -16.069)" fill="#41998b"/>
      <path id="Trazado_726209" data-name="Trazado 726209" d="M45.291,27.587H31.519a1.628,1.628,0,0,1-1.628-1.628V12.187a1.628,1.628,0,0,1,1.628-1.628H45.291a1.628,1.628,0,0,1,1.627,1.628V25.959A1.628,1.628,0,0,1,45.291,27.587Zm0,0" transform="translate(-25.58 -9.036)" fill="#ff6e88"/>
      <path id="Trazado_726210" data-name="Trazado 726210" d="M45.291,10.559h-1.4V22.934a1.628,1.628,0,0,1-1.628,1.628H29.891v1.4a1.628,1.628,0,0,0,1.628,1.628H45.291a1.628,1.628,0,0,0,1.627-1.628V12.187a1.628,1.628,0,0,0-1.627-1.628Zm0,0" transform="translate(-25.58 -9.036)" fill="#e36278"/>
      <path id="Trazado_726211" data-name="Trazado 726211" d="M194.383,8.276,186.7,23.333a1.428,1.428,0,0,0,1.271,2.076H203.34a1.428,1.428,0,0,0,1.271-2.076L196.925,8.276a1.428,1.428,0,0,0-2.543,0Zm0,0" transform="translate(-159.638 -6.417)" fill="#ffe675"/>
      <path id="Trazado_726212" data-name="Trazado 726212" d="M204.611,23.333,196.925,8.277a1.428,1.428,0,0,0-2.543,0l-.49.959,5.757,11.278a1.428,1.428,0,0,1-1.271,2.076h-11.3l-.38.744a1.428,1.428,0,0,0,1.271,2.076h15.372a1.428,1.428,0,0,0,1.271-2.076Zm0,0" transform="translate(-159.638 -6.417)" fill="#dec866"/>
      <path id="Trazado_726213" data-name="Trazado 726213" d="M26.559,262.419a9.6,9.6,0,1,0,9.6-9.6,9.606,9.606,0,0,0-9.6,9.6Zm9.6-7.432a7.432,7.432,0,1,1-7.432,7.432,7.441,7.441,0,0,1,7.432-7.432Zm0,0" transform="translate(-22.729 -216.364)"/>
      <path id="Trazado_726214" data-name="Trazado 726214" d="M346.527,269.821H361.9a2.509,2.509,0,0,0,2.235-3.65l-7.685-15.056a2.509,2.509,0,0,0-4.469,0l-7.686,15.056a2.509,2.509,0,0,0,2.235,3.65Zm7.378-17.723a.345.345,0,0,1,.616,0c7.912,15.733,7.885,15.049,7.673,15.394a.335.335,0,0,1-.3.165c-16.052-.106-15.455.18-15.667-.165-.223-.364-.143.147,7.673-15.394Zm0,0" transform="translate(-294.404 -213.729)"/>
      <path id="Trazado_726215" data-name="Trazado 726215" d="M25.1,22.246H38.872a2.712,2.712,0,0,0,2.709-2.71V5.764a2.712,2.712,0,0,0-2.709-2.71H25.1a2.713,2.713,0,0,0-2.71,2.71V19.536A2.713,2.713,0,0,0,25.1,22.246ZM24.554,5.764a.547.547,0,0,1,.546-.546H38.872a.547.547,0,0,1,.546.546V19.536a.547.547,0,0,1-.546.546H25.1a.547.547,0,0,1-.546-.546Zm0,0" transform="translate(-19.162 -2.614)"/>
      <path id="Trazado_726216" data-name="Trazado 726216" d="M181.54,20.073h15.372a2.509,2.509,0,0,0,2.235-3.65L191.46,1.367a2.51,2.51,0,0,0-4.469,0l-7.686,15.056a2.509,2.509,0,0,0,2.235,3.65Zm7.378-17.723a.345.345,0,0,1,.616,0c7.912,15.733,7.884,15.048,7.673,15.394s.228.06-15.667.166a.335.335,0,0,1-.295-.166c-.223-.362-.154.171,7.672-15.394Zm0,0" transform="translate(-153.21 0)"/>
      <path id="Trazado_726217" data-name="Trazado 726217" d="M357.79,23.685a9.6,9.6,0,0,0,2.275-18.917,1.081,1.081,0,0,0-.511,2.1,7.432,7.432,0,1,1-3.527,0,1.081,1.081,0,0,0-.511-2.1,9.6,9.6,0,0,0,2.274,18.917Zm0,0" transform="translate(-297.982 -4.053)"/>
      <path id="Trazado_726218" data-name="Trazado 726218" d="M203.86,269.851h-2.542a1.082,1.082,0,0,0,0,2.163h2.542a2.713,2.713,0,0,0,2.71-2.709V255.533a2.713,2.713,0,0,0-2.71-2.71H190.088a2.712,2.712,0,0,0-2.709,2.71v13.772a2.712,2.712,0,0,0,2.709,2.709h7.192a1.082,1.082,0,0,0,0-2.163h-7.192a.547.547,0,0,1-.546-.546V255.533a.546.546,0,0,1,.546-.546H203.86a.547.547,0,0,1,.546.546v13.772A.547.547,0,0,1,203.86,269.851Zm0,0" transform="translate(-160.357 -216.364)"/>
      <path id="Trazado_726219" data-name="Trazado 726219" d="M68.824,201.863H14.013a1.082,1.082,0,1,0,0,2.163H68.824a2.851,2.851,0,0,1,2.848,2.848v23.867a2.851,2.851,0,0,1-2.848,2.848H5.011a2.851,2.851,0,0,1-2.848-2.848V206.874a2.851,2.851,0,0,1,2.848-2.848H9.975a1.082,1.082,0,1,0,0-2.163H5.011A5.017,5.017,0,0,0,0,206.874v23.867a5.017,5.017,0,0,0,5.011,5.011H68.824a5.017,5.017,0,0,0,5.011-5.011V206.874A5.017,5.017,0,0,0,68.824,201.863Zm0,0" transform="translate(0 -172.752)"/>
    </g>
  </g>
</svg>
