<svg xmlns="http://www.w3.org/2000/svg" width="41.321" height="39.939" viewBox="0 0 41.321 39.939">
  <g id="reciclar-senal" transform="translate(0 -8.027)">
    <path id="Trazado_726278" data-name="Trazado 726278" d="M131.256,19.7l-2.288-3.672h-3.222a4.2,4.2,0,0,0-3.6,2.04l-2.135,3.469,7.575,4.82Z" transform="translate(-109.679 -7.312)" fill="#6a9923"/>
    <path id="Trazado_726279" data-name="Trazado 726279" d="M238.446,22.647l-2.65-4.554a3.88,3.88,0,0,0-3.443-2.066H224.1l6.19,11.706L226.844,29.8l10.248,1.166,4.9-10.118Z" transform="translate(-204.807 -7.312)" fill="#88b337"/>
    <path id="Trazado_726280" data-name="Trazado 726280" d="M352.272,184.028l-8.263,4.82,3.443,6.2h5.509l1.439-2.324a4.2,4.2,0,0,0,.1-4.248Z" transform="translate(-314.398 -160.851)" fill="#6a9923"/>
    <path id="Trazado_726281" data-name="Trazado 726281" d="M214.9,275.471v-3.443l-6.886,7.575,6.886,8.952V285.8H220.4a3.751,3.751,0,0,0,3.443-2.066l4.82-8.263Z" transform="translate(-190.104 -241.277)" fill="#88b337"/>
    <path id="Trazado_726282" data-name="Trazado 726282" d="M70.206,320.028l-1.677,3.864,2.1,3.63a4.369,4.369,0,0,0,3.713,2.146h2.754v-9.64Z" transform="translate(-62.63 -285.145)" fill="#6a9923"/>
    <path id="Trazado_726283" data-name="Trazado 726283" d="M23.158,152.98l-4.132-8.952-11.018.689,3.938,2.442-2.561,5.133a4.261,4.261,0,0,0,0,4.132l3.831,6.619,1.434-2.487,5.118-8.883Z" transform="translate(-7.319 -124.294)" fill="#88b337"/>
    <path id="Trazado_726284" data-name="Trazado 726284" d="M123.735,22.634a.689.689,0,0,0,.595.538l10.248,1.165a.734.734,0,0,0,.078,0,.689.689,0,0,0,.62-.388l4.9-10.117a.689.689,0,0,0-.931-.914l-2.968,1.505-2.323-3.99a4.554,4.554,0,0,0-4.039-2.41H118.438a4.91,4.91,0,0,0-4.189,2.367l-2.135,3.469a.689.689,0,0,0,.217.942l7.575,4.82a.689.689,0,0,0,.369.107.677.677,0,0,0,.169-.021.688.688,0,0,0,.432-.333l2.892-5.2,3.168,5.991-2.884,1.73a.689.689,0,0,0-.319.737Zm-3.706-4.563-6.385-4.063,1.783-2.9A3.53,3.53,0,0,1,118.438,9.4h2.8l1.706,3.426Zm8.176,2.941a.689.689,0,0,0,.254-.912L122.8,9.4h7.113a3.209,3.209,0,0,1,2.848,1.722l2.65,4.554a.689.689,0,0,0,.906.266l1.726-.875-3.8,7.843-7.745-.881Z" transform="translate(-102.371)"/>
    <path id="Trazado_726285" data-name="Trazado 726285" d="M217.131,196.3l4.82-8.259,1.432-2.314a4.88,4.88,0,0,0,.128-4.918l-2.226-4.446a.689.689,0,0,0-.924-.308l-.04.022-8.263,4.82a.689.689,0,0,0-.255.93l2.873,5.177h-6.4v-2.754a.689.689,0,0,0-1.2-.463l-6.886,7.575a.689.689,0,0,0-.036.883l6.886,8.952a.689.689,0,0,0,1.234-.42v-2.066h4.82a4.407,4.407,0,0,0,4.038-2.41Zm-3.8-14.549,7.046-4.112,1.911,3.815a3.516,3.516,0,0,1-.082,3.552l-1.24,2h-4.718Zm-5.75,15.582a.689.689,0,0,0-.689.689v.73l-5.3-6.89,5.3-5.831V187.7a.689.689,0,0,0,.689.689h12.573l-4.224,7.241a3.068,3.068,0,0,1-2.84,1.71Z" transform="translate(-182.793 -153.501)"/>
    <path id="Trazado_726286" data-name="Trazado 726286" d="M.327,137.976l3.4,2.111-2.272,4.55a4.958,4.958,0,0,0,.012,4.8L5.3,156.059l2.1,3.63a5.058,5.058,0,0,0,4.309,2.492h2.754a.689.689,0,0,0,.689-.689v-9.64a.689.689,0,0,0-.689-.689H9.317l3.435-5.96,2.84,1.094a.689.689,0,0,0,.872-.931l-4.132-8.952a.689.689,0,0,0-.669-.4L.646,136.7a.689.689,0,0,0-.32,1.273ZM13.773,160.8H11.707A3.659,3.659,0,0,1,8.59,159L6.7,155.727l1.95-3.186h5.123ZM11.28,137.419,14.5,144.4l-1.806-.7a.689.689,0,0,0-.844.3L5.9,154.34l-3.234-5.587a3.581,3.581,0,0,1,.023-3.48l2.561-5.133a.689.689,0,0,0-.253-.9l-2.106-1.3Z" transform="translate(0 -116.969)"/>
  </g>
</svg>
