<svg xmlns="http://www.w3.org/2000/svg" width="74" height="68.197" viewBox="0 0 74 68.197">
  <g id="riesgo-biologico_2_" data-name="riesgo-biologico (2)" transform="translate(-8.308 -1.484)">
    <path id="Trazado_726540" data-name="Trazado 726540" d="M55.18,7.5ZM94.938,47.258" transform="translate(-12.63 -6.016)" fill="#ff5368"/>
    <path id="Trazado_726542" data-name="Trazado 726542" d="M99.415,69.324A18.375,18.375,0,0,0,88.567,44.8a1.444,1.444,0,0,0-.921-.023,1.557,1.557,0,0,0-.128,2.848,12.634,12.634,0,0,1,5.989,17.984,17,17,0,0,0-21.969.015,12.642,12.642,0,0,1,5.818-17.93,1.614,1.614,0,0,0,.548-2.351,1.415,1.415,0,0,0-1.61-.481A18.387,18.387,0,0,0,65.62,69.324,18.375,18.375,0,0,0,49.8,90.986c.37,1.945,3.177,1.207,2.972-.5A12.7,12.7,0,0,1,65.49,76.262,17.215,17.215,0,0,0,76.522,94.937a12.594,12.594,0,0,1-18.609,4.309,1.606,1.606,0,0,0-2.309.7,1.414,1.414,0,0,0,.388,1.635,18.387,18.387,0,0,0,26.526-2.989,18.373,18.373,0,0,0,26.667,2.869,1.445,1.445,0,0,0,.481-.786,1.557,1.557,0,0,0-2.4-1.535A12.64,12.64,0,0,1,88.4,94.811a17.09,17.09,0,0,0,11.131-18.55,12.713,12.713,0,0,1,12.748,14.045,1.606,1.606,0,0,0,1.762,1.65,1.415,1.415,0,0,0,1.221-1.154A18.387,18.387,0,0,0,99.415,69.324ZM86.972,89.709l-.009.026a12.654,12.654,0,0,1,.492-4.377,2,2,0,0,0-.9-2.318l-.218-.126a2.041,2.041,0,0,0-1.934-.036,4.241,4.241,0,0,1-3.762,0,2.041,2.041,0,0,0-1.934.036l-.218.126a2,2,0,0,0-.9,2.318,12.66,12.66,0,0,1,.492,4.38l-.009-.026A11.784,11.784,0,0,1,70.8,77.475a12.662,12.662,0,0,1,3.658,2.587A2.347,2.347,0,0,0,78.471,78.7a10.73,10.73,0,0,1,.252-1.5,3.349,3.349,0,0,1,1.453-1.648,2.091,2.091,0,0,0,.929-1.737v-.127a2.074,2.074,0,0,0-1.57-2.023,12.244,12.244,0,0,1-4.414-2.109,12,12,0,0,1,14.774.014A12.316,12.316,0,0,1,85.5,71.662a2.073,2.073,0,0,0-1.57,2.023v.127a2.092,2.092,0,0,0,.929,1.736A3.352,3.352,0,0,1,86.312,77.2a10.907,10.907,0,0,1,.252,1.5,2.348,2.348,0,0,0,4.009,1.362,12.66,12.66,0,0,1,3.649-2.584,11.784,11.784,0,0,1-7.25,12.23Zm0,0" transform="translate(-39.968 -37.271)" fill="#fff9eb"/>
    <path id="Trazado_726543" data-name="Trazado 726543" d="M98.054,62.056a1.2,1.2,0,0,0-.879,2.233A17.192,17.192,0,0,1,107.786,83.3a.216.216,0,0,1-.192.176c-.077.012-.242-.1-.311-.137a.205.205,0,0,1-.106-.2A13.912,13.912,0,0,0,83.419,71.929a1.153,1.153,0,0,1-1.4.194c-1.327-.767.375-2.736-2.794-4.863a.923.923,0,0,1-.4-.867.879.879,0,0,1,.651-.857,13.917,13.917,0,0,0,2.209-26.311.212.212,0,0,1-.129-.195c0-.184-.031-.349.156-.409a.272.272,0,0,1,.156.016A17.176,17.176,0,0,1,92.013,61.563a1.2,1.2,0,0,0,2.208.939A19.579,19.579,0,0,0,82.664,36.371a2.666,2.666,0,0,0-1.688-.031,2.758,2.758,0,0,0-.229,5.092A11.5,11.5,0,0,1,86.779,56.59a18.4,18.4,0,0,0-21.123-.006,11.514,11.514,0,0,1,5.89-15.09,2.8,2.8,0,0,0,1.016-4.172,2.608,2.608,0,0,0-2.972-.884A19.6,19.6,0,0,0,56.852,57.605a1.2,1.2,0,0,0,2.376-.339A17.193,17.193,0,0,1,70.4,38.695c.13-.046.284.03.284.239,0,.154.024.3-.117.367a13.913,13.913,0,0,0,2.385,26.235.982.982,0,0,1,.254,1.724c-1.936,1.3-2.036,2.381-2.229,4.007a1.148,1.148,0,0,1-1.961.662A13.912,13.912,0,0,0,45.284,83.341a.207.207,0,0,1-.106.2c-.164.095-.287.2-.432.069a.256.256,0,0,1-.064-.14A17.174,17.174,0,0,1,59.466,63.224a1.2,1.2,0,0,0-.291-2.382A19.578,19.578,0,0,0,42.325,83.918a2.712,2.712,0,0,0,5.342-.864A11.5,11.5,0,0,1,57.859,70.232a18.489,18.489,0,0,0,10.6,18.133,11.51,11.51,0,0,1-16.13,2.622A2.789,2.789,0,0,0,48,92.978a2.614,2.614,0,0,0,.916,2.228,19.6,19.6,0,0,0,24.781.383,1.2,1.2,0,0,0-1.491-1.881,17.194,17.194,0,0,1-21.741-.336.213.213,0,0,1,.031-.346c.151-.087.278-.2.419-.1A13.913,13.913,0,0,0,72.233,77.107l1.164-.672a5.432,5.432,0,0,0,5.645,0l1.164.672a13.915,13.915,0,0,0,21.477,15.7.212.212,0,0,1,.234-.014c.131.076.267.124.281.265a.214.214,0,0,1-.072.181,17.168,17.168,0,0,1-24.947-2.662,1.2,1.2,0,0,0-1.918,1.443A19.577,19.577,0,0,0,103.7,95.056a2.618,2.618,0,0,0,.891-2.224,2.777,2.777,0,0,0-4.342-1.944,11.5,11.5,0,0,1-16.265-2.525,18.416,18.416,0,0,0,10.589-18.13,11.515,11.515,0,0,1,10.222,12.657,2.813,2.813,0,0,0,3.108,2.965,2.608,2.608,0,0,0,2.25-2.132,19.6,19.6,0,0,0-12.1-21.666Zm-31.2-3.374a15.993,15.993,0,0,1,18.733,0A11.714,11.714,0,0,1,83.5,60.917a12.98,12.98,0,0,0-14.562,0,11.692,11.692,0,0,1-2.085-2.232ZM60.269,70.234a11.683,11.683,0,0,1,2.982.717,12.938,12.938,0,0,0,7.227,12.365,11.658,11.658,0,0,1-.839,2.95,16.068,16.068,0,0,1-9.37-16.032Zm19.3,3.736a1.2,1.2,0,0,0-1.38.127,3.035,3.035,0,0,1-3.945,0,1.2,1.2,0,0,0-1.38-.127l-2.727,1.574a1.2,1.2,0,0,0-.5,1.521,11.422,11.422,0,0,1,.909,3.545,10.536,10.536,0,0,1-4.9-8.395,11.4,11.4,0,0,1,1.662,1.395,3.55,3.55,0,0,0,6.056-2.061c.158-1.334.119-1.582,1.183-2.3a3.38,3.38,0,0,0-1.028-6.05,11.349,11.349,0,0,1-2.345-.849,10.607,10.607,0,0,1,10.086,0,11.361,11.361,0,0,1-2.34.847,3.38,3.38,0,0,0-1.028,6.05c1.064.714,1.024.961,1.182,2.3a3.55,3.55,0,0,0,6.057,2.061,11.344,11.344,0,0,1,1.651-1.387,10.539,10.539,0,0,1-4.893,8.38,11.415,11.415,0,0,1,.909-3.539,1.2,1.2,0,0,0-.5-1.521ZM82.8,86.262a11.687,11.687,0,0,1-.837-2.95,12.94,12.94,0,0,0,7.218-12.357,11.689,11.689,0,0,1,2.982-.721A16.069,16.069,0,0,1,82.8,86.262Zm0,0" transform="translate(-33.669 -30.139)"/>
  </g>
</svg>
