<svg xmlns="http://www.w3.org/2000/svg" width="58" height="58" viewBox="0 0 58 58">
  <g id="Grupo_960532" data-name="Grupo 960532" transform="translate(-332 -6501)">
    <circle id="Elipse_5749" data-name="Elipse 5749" cx="29" cy="29" r="29" transform="translate(332 6501)" fill="#badc61"/>
    <g id="recipiente-de-vidrio" transform="translate(297.758 6513)">
      <g id="Grupo_959858" data-name="Grupo 959858" transform="translate(53.483 3.665)">
        <g id="Grupo_959857" data-name="Grupo 959857">
          <path id="Trazado_726437" data-name="Trazado 726437" d="M134.419,58.521l-.547.547a.547.547,0,0,0,0,.774l.547.547a.547.547,0,0,1,0,.774l-.547.547a.547.547,0,0,0,0,.774.547.547,0,0,1-.387.934h-1.324a7.6,7.6,0,0,1-4.606-1.554,5.855,5.855,0,0,0-3.549-1.184V58.23a5.855,5.855,0,0,0,3.549-1.184,7.6,7.6,0,0,1,4.606-1.554h1.324a.547.547,0,0,1,.387.934h0a.547.547,0,0,0,0,.774l.547.547A.547.547,0,0,1,134.419,58.521Z" transform="translate(-124.006 -55.492)" fill="#67b758"/>
        </g>
      </g>
      <g id="Grupo_959860" data-name="Grupo 959860" transform="translate(51.501 5.647)">
        <g id="Grupo_959859" data-name="Grupo 959859">
          <path id="Trazado_726438" data-name="Trazado 726438" d="M96.648,88.794V86.152a.661.661,0,0,0-.661-.661H94.667a.661.661,0,0,0-.661.661v2.642a.661.661,0,0,0,.661.661h1.321A.661.661,0,0,0,96.648,88.794Z" transform="translate(-94.006 -85.491)" fill="#c68d6d"/>
        </g>
      </g>
      <g id="Grupo_959862" data-name="Grupo 959862" transform="translate(60.463 2.157)">
        <g id="Grupo_959861" data-name="Grupo 959861">
          <path id="Trazado_726439" data-name="Trazado 726439" d="M242.962,34.391l-1.733-1.733a5.9,5.9,0,0,1-3.364,1.674,7.6,7.6,0,0,0-4.339,2.156l-3.272,3.272a1.982,1.982,0,0,0,0,2.8l2.8,2.8a1.982,1.982,0,0,0,2.8,0l3.272-3.272a7.6,7.6,0,0,0,2.156-4.339A5.9,5.9,0,0,1,242.962,34.391Z" transform="translate(-229.674 -32.658)" fill="#bdfaff"/>
        </g>
      </g>
      <g id="Grupo_959864" data-name="Grupo 959864" transform="translate(60.463 2.157)">
        <g id="Grupo_959863" data-name="Grupo 959863">
          <path id="Trazado_726440" data-name="Trazado 726440" d="M232.123,41.629l3.272-3.272a7.6,7.6,0,0,1,1.946-1.409,5.043,5.043,0,0,1,4.168-.171,5.908,5.908,0,0,1,1.453-2.386l-1.733-1.733a5.9,5.9,0,0,1-3.364,1.674,7.6,7.6,0,0,0-4.339,2.156l-3.272,3.272a1.982,1.982,0,0,0,0,2.8l1.868,1.868A1.981,1.981,0,0,1,232.123,41.629Z" transform="translate(-229.674 -32.658)" fill="#a0f0f2"/>
        </g>
      </g>
      <g id="Grupo_959866" data-name="Grupo 959866" transform="translate(71.29 0.494)">
        <g id="Grupo_959865" data-name="Grupo 959865">
          <path id="Trazado_726441" data-name="Trazado 726441" d="M395.632,11.421l-1.868-1.868a.661.661,0,0,1,0-.934l.934-.934a.661.661,0,0,1,.934,0L397.5,9.553a.661.661,0,0,1,0,.934l-.934.934A.66.66,0,0,1,395.632,11.421Z" transform="translate(-393.57 -7.491)" fill="#5f7080"/>
        </g>
      </g>
      <g id="Grupo_959868" data-name="Grupo 959868" transform="translate(71.29 0.494)">
        <g id="Grupo_959867" data-name="Grupo 959867">
          <path id="Trazado_726442" data-name="Trazado 726442" d="M394.7,9.553l.934-.934a.661.661,0,0,1,.934,0l-.934-.934a.661.661,0,0,0-.934,0l-.934.934a.661.661,0,0,0,0,.934l.934.934A.661.661,0,0,1,394.7,9.553Z" transform="translate(-393.57 -7.491)" fill="#495560"/>
        </g>
      </g>
      <g id="Grupo_959870" data-name="Grupo 959870" transform="translate(50.841 10.403)">
        <g id="Grupo_959869" data-name="Grupo 959869" transform="translate(0)">
          <path id="Trazado_726443" data-name="Trazado 726443" d="M105.359,175.1l1.369-17.606H84.006L85.375,175.1l9.992,2.658Z" transform="translate(-84.006 -157.491)" fill="#92dd7a"/>
        </g>
      </g>
      <g id="Grupo_959872" data-name="Grupo 959872" transform="translate(50.841 10.403)">
        <g id="Grupo_959871" data-name="Grupo 959871" transform="translate(0)">
          <path id="Trazado_726444" data-name="Trazado 726444" d="M106.369,162.115l.36-4.624H84.006L85.375,175.1l3.715.988L88,162.115Z" transform="translate(-84.006 -157.491)" fill="#7ec66a"/>
        </g>
      </g>
      <g id="Grupo_959874" data-name="Grupo 959874" transform="translate(48.991 8.421)">
        <g id="Grupo_959873" data-name="Grupo 959873">
          <path id="Trazado_726445" data-name="Trazado 726445" d="M80.437,131.454H57.978a1.982,1.982,0,0,1,0-3.963H80.437a1.982,1.982,0,1,1,0,3.963Z" transform="translate(-55.996 -127.491)" fill="#b1ef97"/>
        </g>
      </g>
      <g id="Grupo_959876" data-name="Grupo 959876" transform="translate(48.991 8.421)">
        <g id="Grupo_959875" data-name="Grupo 959875">
          <path id="Trazado_726446" data-name="Trazado 726446" d="M64.922,129.473a1.982,1.982,0,0,1,1.982-1.982H57.978a1.982,1.982,0,0,0,0,3.963H66.9A1.982,1.982,0,0,1,64.922,129.473Z" transform="translate(-55.996 -127.491)" fill="#92dd7a"/>
        </g>
      </g>
      <g id="Grupo_959878" data-name="Grupo 959878" transform="translate(52.21 28.009)">
        <g id="Grupo_959877" data-name="Grupo 959877">
          <path id="Trazado_726447" data-name="Trazado 726447" d="M104.736,424.017l.129,1.66a3.963,3.963,0,0,0,3.951,3.656h11.822a3.963,3.963,0,0,0,3.951-3.656l.129-1.66Z" transform="translate(-104.736 -424.017)" fill="#7ec66a"/>
        </g>
      </g>
      <g id="Grupo_959880" data-name="Grupo 959880" transform="translate(52.21 28.009)">
        <g id="Grupo_959879" data-name="Grupo 959879">
          <path id="Trazado_726448" data-name="Trazado 726448" d="M104.866,425.677a3.963,3.963,0,0,0,3.951,3.656h3.638a3.963,3.963,0,0,1-3.951-3.656l-.129-1.66h-3.638Z" transform="translate(-104.737 -424.017)" fill="#67b758"/>
        </g>
      </g>
      <g id="Grupo_959884" data-name="Grupo 959884" transform="translate(58.205 24.718)">
        <g id="Grupo_959883" data-name="Grupo 959883">
          <g id="Grupo_959881" data-name="Grupo 959881" transform="translate(0.033)">
            <path id="Trazado_726449" data-name="Trazado 726449" d="M196,374.2h0Z" transform="translate(-195.996 -374.197)" fill="#fff"/>
          </g>
          <g id="Grupo_959882" data-name="Grupo 959882" transform="translate(0 0)">
            <path id="Trazado_726450" data-name="Trazado 726450" d="M195.5,374.2h0Z" transform="translate(-195.496 -374.197)"/>
          </g>
        </g>
      </g>
      <g id="Grupo_959889" data-name="Grupo 959889" transform="translate(58.238 14.581)">
        <g id="Grupo_959886" data-name="Grupo 959886">
          <g id="Grupo_959885" data-name="Grupo 959885">
            <path id="Trazado_726451" data-name="Trazado 726451" d="M202.369,226.273a5.822,5.822,0,0,1-1.147-2.888h.058a.661.661,0,0,0,.661-.661V221.4a.661.661,0,0,0-.661-.661h-2.642a.661.661,0,0,0-.661.661v1.321a.661.661,0,0,0,.661.661h.058a5.822,5.822,0,0,1-1.147,2.888A7.6,7.6,0,0,0,196,230.88a.547.547,0,0,0,.934.387.547.547,0,0,1,.774,0l.547.547a.547.547,0,0,0,.774,0l.547-.547a.547.547,0,0,1,.774,0l.547.547a.547.547,0,0,0,.774,0l.547-.547a.547.547,0,0,1,.774,0h0a.547.547,0,0,0,.934-.387A7.6,7.6,0,0,0,202.369,226.273Z" transform="translate(-195.996 -220.743)" fill="#67b758"/>
          </g>
        </g>
        <g id="Grupo_959888" data-name="Grupo 959888" transform="translate(0 10.137)">
          <g id="Grupo_959887" data-name="Grupo 959887">
            <path id="Trazado_726452" data-name="Trazado 726452" d="M196,374.2h0Z" transform="translate(-195.996 -374.197)" fill="#eebf00"/>
          </g>
        </g>
      </g>
      <g id="Grupo_959892" data-name="Grupo 959892" transform="translate(48.495 0)">
        <g id="Grupo_959890" data-name="Grupo 959890">
          <path id="Trazado_726453" data-name="Trazado 726453" d="M75.909,10.4a2.48,2.48,0,0,0-2.477-2.477H72.46c.043-.2.079-.4.107-.6a5.4,5.4,0,0,1,.87-2.273,1.152,1.152,0,0,0,1.2-.273l.934-.934a1.157,1.157,0,0,0,0-1.635L73.7.337a1.157,1.157,0,0,0-1.635,0l-.934.934a1.152,1.152,0,0,0-.273,1.2,5.4,5.4,0,0,1-2.273.87,8.15,8.15,0,0,0-4.444,2.126L63.7,5.023a.052.052,0,0,1,0-.072h0a1.043,1.043,0,0,0-.737-1.78H61.638a8.145,8.145,0,0,0-4.907,1.655,5.31,5.31,0,0,1-2.208.983,1.156,1.156,0,0,0-1.041-.657H52.162a1.157,1.157,0,0,0-1.156,1.156V7.926h-.034a2.477,2.477,0,0,0-.439,4.915l1.312,16.867a4.459,4.459,0,0,0,4.445,4.113H68.113a4.459,4.459,0,0,0,4.445-4.113l.985-12.659a.5.5,0,0,0-.988-.077l-.82,10.542H52.669L51.53,12.88H72.873l-.164,2.109a.5.5,0,0,0,.456.532l.039,0a.5.5,0,0,0,.493-.457l.173-2.226A2.481,2.481,0,0,0,75.909,10.4ZM71.833,1.972l.934-.934a.165.165,0,0,1,.234,0L74.87,2.907a.165.165,0,0,1,0,.234l-.934.934a.165.165,0,0,1-.234,0L71.833,2.206a.165.165,0,0,1,0-.234Zm-3.112,2.35A6.388,6.388,0,0,0,71.477,3.25l1.181,1.181a6.389,6.389,0,0,0-1.072,2.755,7.125,7.125,0,0,1-.143.74H63.077l1.588-1.588A7.151,7.151,0,0,1,68.722,4.322ZM57.332,5.613a7.149,7.149,0,0,1,4.306-1.453h1.324a.045.045,0,0,1,.048.032A.044.044,0,0,1,63,4.247l0,0a1.044,1.044,0,0,0,0,1.474l.44.44L61.676,7.926H54.639V6.794A6.309,6.309,0,0,0,57.332,5.613ZM52,6.307a.165.165,0,0,1,.165-.165h1.321a.165.165,0,0,1,.165.165V7.926H52ZM71.658,28.5l-.088,1.126a3.485,3.485,0,0,1-3.458,3.2H56.291a3.485,3.485,0,0,1-3.458-3.2L52.746,28.5Zm1.773-16.615H50.972a1.486,1.486,0,0,1,0-2.973H73.432a1.486,1.486,0,0,1,0,2.973Z" transform="translate(-48.495 0)"/>
        </g>
        <g id="Grupo_959891" data-name="Grupo 959891" transform="translate(9.248 14.086)">
          <path id="Trazado_726454" data-name="Trazado 726454" d="M189.682,220.668a.5.5,0,0,0-.641.283,8.067,8.067,0,0,0-.546,2.922h0a1.043,1.043,0,0,0,1.78.736.052.052,0,0,1,.073,0l.547.547a1.044,1.044,0,0,0,1.474,0l.547-.547a.052.052,0,0,1,.073,0l.547.547a1.044,1.044,0,0,0,1.475,0l.547-.547a.052.052,0,0,1,.074,0,1.043,1.043,0,0,0,1.78-.737,8.145,8.145,0,0,0-1.655-4.907,5.308,5.308,0,0,1-.983-2.208,1.156,1.156,0,0,0,.656-1.041V214.4a1.157,1.157,0,0,0-1.156-1.156h-2.642a1.157,1.157,0,0,0-1.156,1.156v1.321a1.156,1.156,0,0,0,.656,1.041,5.309,5.309,0,0,1-.983,2.208q-.064.085-.127.171a.5.5,0,0,0,.8.58q.055-.076.111-.15a6.3,6.3,0,0,0,1.181-2.693h1.669a6.3,6.3,0,0,0,1.181,2.693,7.149,7.149,0,0,1,1.453,4.306.052.052,0,0,1-.089.036,1.044,1.044,0,0,0-1.474,0l-.547.547a.052.052,0,0,1-.073,0l-.547-.547a1.044,1.044,0,0,0-1.474,0l-.547.547a.052.052,0,0,1-.073,0l-.547-.547a1.044,1.044,0,0,0-1.475,0,.052.052,0,0,1-.088-.036,7.08,7.08,0,0,1,.479-2.565.5.5,0,0,0-.284-.641Zm1.786-6.271a.165.165,0,0,1,.165-.165h2.642a.165.165,0,0,1,.165.165v1.321a.165.165,0,0,1-.165.165h-2.642a.165.165,0,0,1-.165-.165Z" transform="translate(-188.496 -213.241)"/>
        </g>
      </g>
    </g>
  </g>
</svg>
