<svg xmlns="http://www.w3.org/2000/svg" width="58" height="58" viewBox="0 0 58 58">
  <g id="Grupo_960533" data-name="Grupo 960533" transform="translate(-332 -6593)">
    <circle id="Elipse_5750" data-name="Elipse 5750" cx="29" cy="29" r="29" transform="translate(332 6593)" fill="#badc61"/>
    <g id="botella-de-plastico" transform="translate(342 6604)">
      <g id="Grupo_959823" data-name="Grupo 959823" transform="translate(0.723 0.723)">
        <path id="Trazado_726359" data-name="Trazado 726359" d="M13.933,10.555l-3.378,3.378a1.91,1.91,0,0,0,0,2.692L12.8,18.87l.567-.567L18.3,13.365l.567-.567-2.245-2.243A1.91,1.91,0,0,0,13.933,10.555Z" transform="translate(-10 -10)" fill="#ffda8f" fill-rule="evenodd"/>
      </g>
      <g id="Grupo_959824" data-name="Grupo 959824" transform="translate(4.088 4.088)">
        <path id="Trazado_726360" data-name="Trazado 726360" d="M72.145,60.7c-4-4-7.6-1.092-9.206-2.7L61.5,56.566,56.566,61.5,58,62.939c1.608,1.608-1.3,5.2,2.7,9.206l1.747,1.747,2.923-2.923a5.985,5.985,0,0,1,5.6-5.6l2.923-2.923Z" transform="translate(-56.566 -56.566)" fill="#fff" fill-rule="evenodd"/>
      </g>
      <g id="Grupo_959825" data-name="Grupo 959825" transform="translate(9.971 9.971)">
        <path id="Trazado_726361" data-name="Trazado 726361" d="M157.446,146l-8.026-8.024L146.5,140.9a5.985,5.985,0,0,0-5.6,5.6l-2.923,2.923L146,157.446l2.925-2.925a5.977,5.977,0,0,0,5.594-5.594Z" transform="translate(-137.977 -137.977)" fill="#ff7d95" fill-rule="evenodd"/>
      </g>
      <g id="Grupo_959826" data-name="Grupo 959826" transform="translate(17.995 17.995)">
        <path id="Trazado_726362" data-name="Trazado 726362" d="M255.788,255.788a5.97,5.97,0,0,1-3.855,1.739l-2.925,2.925,5.857,5.855a3.35,3.35,0,0,0,5.721-2.37,3.35,3.35,0,0,0,3.351-3.351,3.35,3.35,0,0,0,2.37-5.721l-5.855-5.857-2.925,2.925A5.969,5.969,0,0,1,255.788,255.788Z" transform="translate(-249.008 -249.008)" fill="#b7eabc" fill-rule="evenodd"/>
      </g>
      <g id="Grupo_959827" data-name="Grupo 959827" transform="translate(0 0)">
        <path id="Trazado_726363" data-name="Trazado 726363" d="M37,26.221a4.049,4.049,0,0,0-1.195-2.881L29.97,17.506l-.02-.022-.022-.02L27.98,15.515a.723.723,0,1,0-1.022,1.022L28.416,18,26,20.409a.723.723,0,0,0-.21.468,5.255,5.255,0,0,1-4.916,4.916.723.723,0,0,0-.468.21L18,28.417l-7-7L13.4,19a.723.723,0,0,0,.21-.468,5.263,5.263,0,0,1,4.918-4.918.723.723,0,0,0,.468-.21l2.412-2.412.915.915a.723.723,0,1,0,1.022-1.022L21.925,9.46h0L20.177,7.713A8.092,8.092,0,0,0,13.092,5.3c-1.1.068-1.745.087-2.12-.288l-.925-.925.056-.056a.723.723,0,0,0,0-1.022L7.858.766a2.633,2.633,0,0,0-3.714,0L.766,4.144a2.633,2.633,0,0,0,0,3.713L3.009,10.1a.723.723,0,0,0,.511.212h0a.723.723,0,0,0,.511-.212l.056-.056.925.925c.375.375.355,1.017.288,2.12a8.092,8.092,0,0,0,2.412,7.086L9.46,21.924h0l8,8,.019.021.021.019,5.836,5.836a4.072,4.072,0,0,0,6.9-2.214,4.083,4.083,0,0,0,3.351-3.351A4.081,4.081,0,0,0,37,26.222ZM1.788,6.836a1.188,1.188,0,0,1,0-1.67L5.166,1.788a1.188,1.188,0,0,1,1.67,0L8.57,3.521,3.521,8.57ZM6.743,13.18c.075-1.222.145-2.377-.708-3.23L5.11,9.025,9.025,5.11l.925.925c.854.854,2.008.783,3.23.708a6.684,6.684,0,0,1,5.975,1.991l1.236,1.236L18.167,12.2A6.711,6.711,0,0,0,12.2,18.167L9.971,20.392,8.735,19.155A6.684,6.684,0,0,1,6.743,13.18ZM33.568,28.77a4.057,4.057,0,0,0-1.113-2.078.723.723,0,1,0-1.024,1.02,2.629,2.629,0,1,1-3.718,3.718.723.723,0,0,0-1.02,1.024,4.057,4.057,0,0,0,2.078,1.113,2.627,2.627,0,0,1-4.408,1.215l-5.344-5.345,2.226-2.226a6.7,6.7,0,0,0,5.969-5.97l2.226-2.226,5.345,5.344a2.627,2.627,0,0,1-1.215,4.408Z" transform="translate(0 0)"/>
        <path id="Trazado_726364" data-name="Trazado 726364" d="M217.033,210.138a.723.723,0,0,0-1.022,0l-4.74,4.74a.723.723,0,1,0,1.022,1.022l4.74-4.74A.723.723,0,0,0,217.033,210.138Z" transform="translate(-195.807 -194.756)"/>
        <path id="Trazado_726365" data-name="Trazado 726365" d="M250.027,244.154l-4.74,4.74a.723.723,0,1,0,1.022,1.022l4.74-4.74a.723.723,0,0,0-1.022-1.022Z" transform="translate(-227.365 -226.313)"/>
        <path id="Trazado_726366" data-name="Trazado 726366" d="M337.558,181.146a.72.72,0,0,0,1.02,0,.724.724,0,1,0-1.024,0Z" transform="translate(-312.964 -166.907)"/>
      </g>
    </g>
  </g>
</svg>
