<svg xmlns="http://www.w3.org/2000/svg" width="610" height="323" viewBox="0 0 610 323">
  <g id="Grupo_960531" data-name="Grupo 960531" transform="translate(-285 -7232)">
    <rect id="Rectángulo_340439" data-name="Rectángulo 340439" width="610" height="323" transform="translate(285 7232)" fill="#fdf8e4"/>
    <g id="Grupo_959896" data-name="Grupo 959896" transform="translate(6 -30)">
      <g id="nuclear_1_" data-name="nuclear (1)" transform="translate(620 7308)">
        <path id="Trazado_726495" data-name="Trazado 726495" d="M28.523,65l7.154,102.386a6.76,6.76,0,0,0,6.738,6.217H43.8l4.617,46.054a6.76,6.76,0,0,0,6.738,6.217h79.208a6.761,6.761,0,0,0,6.738-6.217l4.615-46.054H147.1a6.761,6.761,0,0,0,6.738-6.217L160.992,65Zm0,0" transform="translate(-15.67 -35.709)" fill="#ff5368"/>
        <path id="Trazado_726496" data-name="Trazado 726496" d="M157.917,82.5a3.38,3.38,0,0,0-3.369,3.109l-5.68,84.089c-.271,0-105.5-.009-105.774.012l.271,3.367.317,3.92a6.757,6.757,0,0,0,6.726,6.217h89.93l-4.209,38.754c-.271,0-80.025-.007-80.3.014.556,6.9.167,10.106,3.6,12.38l1.494,18.565a6.758,6.758,0,0,0,6.737,6.217h70.2a6.76,6.76,0,0,0,6.738-6.217l1.494-18.565a6.792,6.792,0,0,0,3.012-5.092l4.795-46.054H155.1A6.761,6.761,0,0,0,161.843,177l6.516-94.486c-.273-.023-10.169-.014-10.444-.014Zm0,0" transform="translate(-23.674 -45.321)" fill="#d9435b"/>
        <path id="Trazado_726497" data-name="Trazado 726497" d="M112.777,444.5A13.519,13.519,0,1,0,126.3,458.019,13.534,13.534,0,0,0,112.777,444.5Zm0,0" transform="translate(-54.53 -244.196)" fill="#4d5967"/>
        <path id="Trazado_726498" data-name="Trazado 726498" d="M205.277,444.5A13.519,13.519,0,1,0,218.8,458.019,13.534,13.534,0,0,0,205.277,444.5Zm0,0" transform="translate(-105.347 -244.196)" fill="#4d5967"/>
        <path id="Trazado_726499" data-name="Trazado 726499" d="M152.157,31.158h-.9V21.019A13.519,13.519,0,0,0,137.735,7.5H29.585A13.518,13.518,0,0,0,16.066,21.019V31.158H14.26A6.759,6.759,0,0,0,7.5,37.917V48.056a6.759,6.759,0,0,0,6.759,6.759h137.9a6.759,6.759,0,0,0,6.759-6.759V37.917a6.759,6.759,0,0,0-6.759-6.759Zm0,0" transform="translate(-4.12 -4.12)" fill="#6c7a88"/>
        <path id="Trazado_726500" data-name="Trazado 726500" d="M152.157,31.158h-.9V21.019A13.518,13.518,0,0,0,137.735,7.5V17.639H16.491a13.542,13.542,0,0,0-.426,3.38V31.158H145.4V41.3H7.5v6.759a6.759,6.759,0,0,0,6.759,6.759h137.9a6.759,6.759,0,0,0,6.759-6.759V37.917a6.759,6.759,0,0,0-6.759-6.759Zm0,0" transform="translate(-4.12 -4.12)" fill="#4d5967"/>
        <path id="Trazado_726501" data-name="Trazado 726501" d="M128.517,470.38a3.38,3.38,0,1,1-3.38-3.38A3.381,3.381,0,0,1,128.517,470.38Zm0,0" transform="translate(-66.89 -256.557)"/>
        <path id="Trazado_726502" data-name="Trazado 726502" d="M221.017,470.38a3.38,3.38,0,1,1-3.38-3.38A3.381,3.381,0,0,1,221.017,470.38Zm0,0" transform="translate(-117.707 -256.557)"/>
        <path id="Trazado_726503" data-name="Trazado 726503" d="M150.513,23.964V16.9A16.916,16.916,0,0,0,133.615,0H25.464a16.916,16.916,0,0,0-16.9,16.9v6.881A10.156,10.156,0,0,0,0,33.8V43.936A10.151,10.151,0,0,0,10.139,54.075h1.318l5.18,77.872a10.207,10.207,0,0,0,8.18,9.139l4.559,43.132a10.071,10.071,0,0,0,3.13,6.539l1.377,17.119A10.193,10.193,0,0,0,43.989,217.2h.739a3.379,3.379,0,0,0,3.38-3.38,10.15,10.15,0,1,1,4.666,8.53,3.38,3.38,0,1,0-3.663,5.682,16.8,16.8,0,0,0,9.13,2.686h.005A16.913,16.913,0,0,0,74.8,217.2H86.411a3.379,3.379,0,0,0,3.38-3.38,10.15,10.15,0,1,1,4.666,8.53,3.382,3.382,0,0,0-5.136,3.556,3.338,3.338,0,0,0,1.473,2.126,16.8,16.8,0,0,0,9.125,2.686h.011a16.907,16.907,0,0,0,16.612-13.811,10.2,10.2,0,0,0,7.75-9.034l1.378-17.119a10.078,10.078,0,0,0,3.128-6.539l4.559-43.132a10.207,10.207,0,0,0,8.18-9.139l5.18-77.872h1.318a10.151,10.151,0,0,0,10.139-10.139V33.8a10.156,10.156,0,0,0-7.662-9.833ZM134.8,131.405a3.4,3.4,0,0,1-3.369,3.109H101.62a3.38,3.38,0,1,0,0,6.759h24.943l-4.5,42.4a3.363,3.363,0,0,1-1.507,2.542l-.007.005a3.367,3.367,0,0,1-1.855.562H85.846a3.38,3.38,0,0,0,0,6.759h32.818l-1.111,13.79a3.381,3.381,0,0,1-1.239,2.346,16.9,16.9,0,0,0-32.945.762H74.806a16.9,16.9,0,0,0-32.945-.762,3.381,3.381,0,0,1-1.239-2.346l-1.111-13.79H72.329a3.38,3.38,0,0,0,0-6.759H39.485a3.393,3.393,0,0,1-3.369-3.109l-4.5-42.4H56.557a3.38,3.38,0,1,0,0-6.759H26.746a3.4,3.4,0,0,1-3.371-3.109L18.24,54.076h121.7Zm16.615-87.469a3.383,3.383,0,0,1-3.38,3.38H10.139a3.383,3.383,0,0,1-3.38-3.38V33.8a3.383,3.383,0,0,1,3.38-3.38h123.7a3.38,3.38,0,0,0,0-6.759H15.325V16.9A10.151,10.151,0,0,1,25.464,6.76h108.15A10.151,10.151,0,0,1,143.754,16.9V27.038a3.378,3.378,0,0,0,3.38,3.38h.9a3.383,3.383,0,0,1,3.38,3.38Zm0,0"/>
        <path id="Trazado_726504" data-name="Trazado 726504" d="M99.222,191.986a3.381,3.381,0,0,0,2.206-4.24,11.289,11.289,0,0,1,9.694-14.645,19.7,19.7,0,0,0,10.614,17.258,11.263,11.263,0,0,1-12.954,4.74,3.38,3.38,0,1,0-2.035,6.446,18.034,18.034,0,0,0,21.586-9.127,19.179,19.179,0,0,0,4.941,0,18.017,18.017,0,0,0,21.577,9.129,3.38,3.38,0,1,0-2.035-6.446,11.261,11.261,0,0,1-12.954-4.74A19.7,19.7,0,0,0,150.477,173.1a11.289,11.289,0,0,1,9.694,14.645,3.38,3.38,0,1,0,6.446,2.035,18.046,18.046,0,0,0-17.277-23.489,19.72,19.72,0,0,0-3.1-5.578,18.033,18.033,0,0,0-7.126-25.344,3.379,3.379,0,0,0-3.119,6,11.274,11.274,0,0,1,5.054,14.735,19.632,19.632,0,0,0-20.505,0,11.273,11.273,0,0,1,5.052-14.735,3.379,3.379,0,1,0-3.119-6,18.034,18.034,0,0,0-7.124,25.346,19.634,19.634,0,0,0-3.1,5.578l-.07,0a18.046,18.046,0,0,0-17.207,23.489,3.38,3.38,0,0,0,4.24,2.207ZM143.6,174.654a12.922,12.922,0,0,1-5.439,8.852A11.27,11.27,0,0,1,143.6,174.654Zm-7.268-13.438a11.248,11.248,0,0,1-11.063,0A12.9,12.9,0,0,1,136.33,161.216Zm-16.342,4.608a18,18,0,0,0,21.621,0,12.725,12.725,0,0,1,.982,1.794,18.043,18.043,0,0,0-11.16,18.182,12,12,0,0,1-1.259,0,18.034,18.034,0,0,0-11.167-18.182A12.907,12.907,0,0,1,119.988,165.825Zm3.45,17.682A12.928,12.928,0,0,1,118,174.654,11.27,11.27,0,0,1,123.438,183.506Zm0,0" transform="translate(-51.71 -74.157)"/>
      </g>
      <g id="riesgo-biologico" transform="translate(390 7324.406)">
        <g id="Grupo_959895" data-name="Grupo 959895" transform="translate(0 13.594)">
          <g id="Grupo_959894" data-name="Grupo 959894" transform="translate(0 0)">
            <path id="Trazado_726505" data-name="Trazado 726505" d="M154.706,81.9a46.775,46.775,0,0,0-11.048-4.655,47.49,47.49,0,0,0,1.49-11.917c0-26.814-21.414-48.879-49-51.735l-.031.124a39.8,39.8,0,0,1,33.7,39.352,38.951,38.951,0,0,1-5.369,19.893,27.764,27.764,0,0,1-1.738,2.762,38.46,38.46,0,0,1-6.021,6.859,39.719,39.719,0,0,1-53.379,0,38.476,38.476,0,0,1-6.021-6.859,27.6,27.6,0,0,1-1.738-2.762A38.953,38.953,0,0,1,50.181,53.07a39.8,39.8,0,0,1,33.7-39.352v-.124C56.295,16.418,34.85,38.515,34.85,65.328a47.492,47.492,0,0,0,1.49,11.917A46.06,46.06,0,0,0,25.322,81.9C1.7,95.525-6.613,125.908,5.584,151.481l.062-.031A39.869,39.869,0,0,1,32.119,97.232a40.382,40.382,0,0,1,10.3-1.272c1.086,0,2.079.062,3.135.155a39.094,39.094,0,0,1,9.062,1.8,39.694,39.694,0,0,1,22.1,17.907.032.032,0,0,1,.022.009.029.029,0,0,1,.009.022v.031a39.4,39.4,0,0,1,4.531,27.652,40.636,40.636,0,0,1-3.041,9.217c-.372.776-.776,1.583-1.179,2.359a39.853,39.853,0,0,1-64.925,6.766l-.124.124c16.417,21.507,45.621,28.552,68.431,15.393A47.21,47.21,0,0,0,90,170.164a48.07,48.07,0,0,0,9.559,7.231c22.841,13.159,52.076,6.114,68.463-15.455l-.124-.093a39.808,39.808,0,0,1-64.924-6.735c-.435-.776-.838-1.583-1.21-2.359a40.631,40.631,0,0,1-3.041-9.217,39.567,39.567,0,0,1,4.531-27.652v-.031a.032.032,0,0,1,.009-.022.029.029,0,0,1,.022-.009,39.7,39.7,0,0,1,22.1-17.907,39.087,39.087,0,0,1,9.062-1.8c1.055-.093,2.079-.155,3.135-.155a39.761,39.761,0,0,1,36.776,55.428l.093.031C186.578,125.846,178.323,95.525,154.706,81.9Z" transform="translate(0 -13.594)"/>
            <path id="Trazado_726506" data-name="Trazado 726506" d="M297.748,304.883a6.8,6.8,0,0,0,.124.776,33.676,33.676,0,0,0,2.576,7.852c.31.59.652,1.272.993,1.924a10.005,10.005,0,0,0,.59.962,48.936,48.936,0,0,0,30.042-45.187,42.429,42.429,0,0,0-.341-5.648,8.635,8.635,0,0,0-.9-.031c-1.055,0-1.893.062-2.762.124a32.833,32.833,0,0,0-7.7,1.521,7.484,7.484,0,0,1-.776.248,30.627,30.627,0,0,1,.217,3.786A36.7,36.7,0,0,1,297.748,304.883Z" transform="translate(-193.07 -176.958)"/>
            <path id="Trazado_726507" data-name="Trazado 726507" d="M172.161,153.2a19.836,19.836,0,0,0,1.459,2.3,32.629,32.629,0,0,0,5.09,5.866c.186.155.341.31.528.465a36.637,36.637,0,0,1,44.038,0,3.3,3.3,0,0,0,.5-.435,31.6,31.6,0,0,0,5.09-5.8,22.023,22.023,0,0,0,1.428-2.2c.217-.4.465-.776.652-1.179h0a49.04,49.04,0,0,0-59.338,0C171.788,152.546,171.974,152.857,172.161,153.2Z" transform="translate(-111.273 -96.994)"/>
            <path id="Trazado_726508" data-name="Trazado 726508" d="M128.3,267.175a32.989,32.989,0,0,0-7.635-1.521c-.931-.062-1.738-.124-2.638-.124h-.341a5.985,5.985,0,0,0-.745.031,42.428,42.428,0,0,0-.341,5.648A48.917,48.917,0,0,0,146.677,316.4c.217-.31.372-.621.559-.931.31-.559.683-1.3,1.024-2.048a33.4,33.4,0,0,0,2.545-7.7c.062-.279.093-.559.155-.838a36.7,36.7,0,0,1-22.1-33.672,30.124,30.124,0,0,1,.217-3.755C128.832,267.361,128.553,267.268,128.3,267.175Z" transform="translate(-75.61 -176.957)"/>
          </g>
        </g>
      </g>
    </g>
  </g>
</svg>
