<svg xmlns="http://www.w3.org/2000/svg" width="100" height="100" viewBox="0 0 100 100">
  <g id="Grupo_960283" data-name="Grupo 960283" transform="translate(-330 -997)">
    <path id="Trazado_727199" data-name="Trazado 727199" d="M50,0A50,50,0,1,1,0,50,50,50,0,0,1,50,0Z" transform="translate(330 997)" fill="#0e494d"/>
    <g id="residuos" transform="translate(352 1019)">
      <rect id="Rectángulo_340369" data-name="Rectángulo 340369" width="23" height="3" rx="1.5" transform="translate(30 15)" fill="#ff675b"/>
      <rect id="Rectángulo_340370" data-name="Rectángulo 340370" width="4" height="5" rx="1" transform="translate(48 53) rotate(180)" fill="#898989"/>
      <path id="Trazado_725924" data-name="Trazado 725924" d="M55.944,21V43.389l-1.4,5.584a1.722,1.722,0,0,1-1.671,1.3H49.917a.861.861,0,0,0-.861.861v1.722a.861.861,0,0,1-.861.861H41.305V50.278H40.067a1.722,1.722,0,0,1-1.671-1.3L37,43.389V21Z" transform="translate(-4.861 -2.639)" fill="#e65d52"/>
      <path id="Trazado_725925" data-name="Trazado 725925" d="M50.85,13H43.206a1.722,1.722,0,0,0-1.671,1.3L41,16.444H53.056l-.535-2.14A1.722,1.722,0,0,0,50.85,13Z" transform="translate(-5.416 -1.528)" fill="#cc5249"/>
      <rect id="Rectángulo_340371" data-name="Rectángulo 340371" width="3" height="5" rx="1" transform="translate(8 48)" fill="#898989"/>
      <rect id="Rectángulo_340372" data-name="Rectángulo 340372" width="22" height="3" rx="1.5" transform="translate(3 15)" fill="#82e28c"/>
      <path id="Trazado_725926" data-name="Trazado 725926" d="M23.944,21V43.389l-1.4,5.584a1.722,1.722,0,0,1-1.671,1.3H19.639v3.444H12.75a.861.861,0,0,1-.861-.861V51.139a.861.861,0,0,0-.861-.861H8.067a1.722,1.722,0,0,1-1.671-1.3L5,43.389V21Z" transform="translate(-0.417 -2.639)" fill="#73c97c"/>
      <path id="Trazado_725927" data-name="Trazado 725927" d="M18.85,13H11.206a1.722,1.722,0,0,0-1.671,1.3L9,16.444H21.056l-.535-2.14A1.722,1.722,0,0,0,18.85,13Z" transform="translate(-0.972 -1.528)" fill="#73c97c"/>
      <rect id="Rectángulo_340373" data-name="Rectángulo 340373" width="33" height="4" rx="2" transform="translate(11 6)" fill="#ffde7e"/>
      <rect id="Rectángulo_340374" data-name="Rectángulo 340374" width="3" height="5" rx="1" transform="translate(18 48)" fill="#a3a3a3"/>
      <path id="Trazado_725928" data-name="Trazado 725928" d="M43.556,11V35.111L41.928,48.135a.861.861,0,0,1-.854.754H37.528a.861.861,0,0,0-.861.861v1.722a.861.861,0,0,1-.861.861H23.75a.861.861,0,0,1-.861-.861V49.75a.861.861,0,0,0-.861-.861H18.482a.861.861,0,0,1-.854-.754L16,35.111V11Z" transform="translate(-1.944 -1.25)" fill="#ffd04a"/>
      <rect id="Rectángulo_340375" data-name="Rectángulo 340375" width="3" height="5" rx="1" transform="translate(38 53) rotate(180)" fill="#a3a3a3"/>
      <path id="Trazado_725929" data-name="Trazado 725929" d="M38.6,3H21.787a1.722,1.722,0,0,0-1.54.952L19,6.444H41.389L40.143,3.952A1.722,1.722,0,0,0,38.6,3Z" transform="translate(-2.361 -0.139)" fill="#e6bb43"/>
      <path id="Trazado_725930" data-name="Trazado 725930" d="M12.333,49.906a1.724,1.724,0,0,0-1.722-1.722H7.65a.861.861,0,0,1-.836-.653L5.444,42.05V20.628h6.028V18.906H4.583a.861.861,0,1,1,0-1.722h6.889V15.461H9.13l.267-1.07a.865.865,0,0,1,.594-.618l-.483-1.653a2.591,2.591,0,0,0-1.781,1.853l-.372,1.488H4.583a2.577,2.577,0,0,0-.861,5.008V42.156l1.422,5.793a2.577,2.577,0,0,0,2.027,1.909c0,.016,0,.031,0,.048V53.35a1.724,1.724,0,0,0,1.722,1.722h1.722a1.724,1.724,0,0,0,1.722-1.722h2.583V51.628H12.333ZM10.611,53.35H8.889V49.906h1.723Z" transform="translate(0 -1.406)"/>
      <path id="Trazado_725931" data-name="Trazado 725931" d="M59.917,18.044a2.586,2.586,0,0,0-2.583-2.583H54.561l-.372-1.486a2.592,2.592,0,0,0-1.782-1.855l-.483,1.653a.863.863,0,0,1,.594.618l.267,1.07H50.444v1.722h6.89a.861.861,0,1,1,0,1.722H50.444v1.722h6.028V42.05L55.1,47.531a.861.861,0,0,1-.835.653H51.306a1.724,1.724,0,0,0-1.722,1.722v1.722H47V53.35h2.583a1.724,1.724,0,0,0,1.722,1.722h1.722A1.724,1.724,0,0,0,54.75,53.35V49.906c0-.016,0-.031,0-.048a2.576,2.576,0,0,0,2.026-1.909l1.4-5.584.024-21.895a2.579,2.579,0,0,0,1.724-2.425ZM53.028,53.35H51.306V49.906h1.722Z" transform="translate(-6.25 -1.406)"/>
      <path id="Trazado_725932" data-name="Trazado 725932" d="M43.855,33.968l.006-23.357h0a2.583,2.583,0,1,0,0-5.167H40.949L39.941,3.428A2.57,2.57,0,0,0,37.63,2H20.815A2.57,2.57,0,0,0,18.5,3.428L17.5,5.444H14.583a2.583,2.583,0,0,0,0,5.167v23.25l1.635,13.13A1.725,1.725,0,0,0,17.927,48.5h.1v3.444a1.724,1.724,0,0,0,1.722,1.722h1.722a1.724,1.724,0,0,0,1.722-1.722H35.25a1.724,1.724,0,0,0,1.722,1.722h1.722a1.724,1.724,0,0,0,1.722-1.722V48.5h.1a1.725,1.725,0,0,0,1.709-1.509ZM20.044,4.2a.857.857,0,0,1,.77-.476H37.63a.857.857,0,0,1,.77.476l.623,1.246h-19.6Zm-6.322,3.83a.862.862,0,0,1,.861-.861H43.861a.861.861,0,1,1,0,1.722H14.583A.862.862,0,0,1,13.722,8.028Zm7.75,43.917H19.75V48.5h1.723Zm17.222,0H36.972V48.5h1.722Zm3.444-18.137L40.518,46.778H36.972A1.724,1.724,0,0,0,35.25,48.5v1.722H23.195V48.5a1.724,1.724,0,0,0-1.722-1.722H17.927L16.306,33.807v-23.2H42.139Z" transform="translate(-1.389)"/>
      <path id="Trazado_725933" data-name="Trazado 725933" d="M25.722,30.513a4.311,4.311,0,0,1,4.306-4.306h2.227L30.28,28.182,31.5,29.4l4.053-4.053L31.5,21.293,30.28,22.511l1.974,1.975H30.028A6.035,6.035,0,0,0,24,30.513V33.1h1.722Z" transform="translate(-3.055 -2.679)"/>
      <path id="Trazado_725934" data-name="Trazado 725934" d="M30.882,35.889l1.975-1.975L31.639,32.7,27.586,36.75,31.639,40.8l1.218-1.218-1.974-1.975h2.227a6.035,6.035,0,0,0,6.028-6.028V29H37.415v2.583a4.311,4.311,0,0,1-4.306,4.306Z" transform="translate(-3.554 -3.75)"/>
    </g>
  </g>
</svg>
