<svg xmlns="http://www.w3.org/2000/svg" width="100" height="100" viewBox="0 0 100 100">
  <g id="Grupo_960284" data-name="Grupo 960284" transform="translate(-750 -997)">
    <circle id="Elipse_5730" data-name="Elipse 5730" cx="50" cy="50" r="50" transform="translate(750 997)" fill="#0e494d"/>
    <g id="filled_outline" data-name="filled outline" transform="translate(751 1005)">
      <path id="Trazado_725889" data-name="Trazado 725889" d="M236.978,206.361a.872.872,0,0,0-1.234,0l-.255.255v-5.744a.872.872,0,0,0-1.744,0v5.744l-.255-.255a.872.872,0,0,0-1.234,1.234L234,209.339a.872.872,0,0,0,1.234,0l1.744-1.744A.872.872,0,0,0,236.978,206.361Z" transform="translate(-185.322 -163.939)" fill="#bce1ff"/>
      <path id="Trazado_725890" data-name="Trazado 725890" d="M203.339,64h-8.722L192,70.106v7.959a1.635,1.635,0,0,0,1.635,1.635h9.812a1.635,1.635,0,0,0,1.635-1.635V67.489Zm-3.489,7.85h-3.489V70.106l.872-1.744h2.617Z" transform="translate(-149.683 -42.767)" fill="#e4e4e2"/>
      <path id="Trazado_725891" data-name="Trazado 725891" d="M264.436,40h2.617a.436.436,0,0,1,.436.436v2.181H264V40.436A.436.436,0,0,1,264.436,40Z" transform="translate(-213.834 -21.383)" fill="#01afea"/>
      <path id="Trazado_725892" data-name="Trazado 725892" d="M101.669,79.7H97.308A1.308,1.308,0,0,1,96,78.392V69.233L97.744,64h3.489l1.744,5.233v9.158A1.308,1.308,0,0,1,101.669,79.7Z" transform="translate(-64.15 -42.767)" fill="#bce1ff"/>
      <path id="Trazado_725893" data-name="Trazado 725893" d="M102.978,104.872v.872H96v-.872l.291-.872h6.4Z" transform="translate(-64.15 -78.406)" fill="#bce1ff"/>
      <path id="Trazado_725894" data-name="Trazado 725894" d="M112.654,40h2.181a.654.654,0,0,1,.654.654v1.962H112V40.654A.654.654,0,0,1,112.654,40Z" transform="translate(-78.406 -21.383)" fill="#76afd4"/>
      <path id="Trazado_725895" data-name="Trazado 725895" d="M96,168h6.978v1.744H96Z" transform="translate(-64.15 -135.428)" fill="#8ed2ff"/>
      <path id="Trazado_725896" data-name="Trazado 725896" d="M96,136h6.978v1.744H96Z" transform="translate(-64.15 -106.917)" fill="#8ed2ff"/>
      <path id="Trazado_725897" data-name="Trazado 725897" d="M102.978,104.872v.872H96v-.872l.291-.872h6.4Z" transform="translate(-64.15 -78.406)" fill="#8ed2ff"/>
      <path id="Trazado_725898" data-name="Trazado 725898" d="M349.015,65.444h-3.053A1.962,1.962,0,0,1,344,63.482V54.723a2.617,2.617,0,0,1,.276-1.17l1.054-2.108a3.924,3.924,0,0,0,.414-1.755V48h3.489v1.69a3.925,3.925,0,0,0,.414,1.756l1.054,2.107a2.617,2.617,0,0,1,.276,1.17v8.759A1.962,1.962,0,0,1,349.015,65.444Z" transform="translate(-285.111 -28.511)" fill="#01afea"/>
      <path id="Trazado_725899" data-name="Trazado 725899" d="M357.233,26.617H352V24.763a.763.763,0,0,1,.763-.763h3.707a.763.763,0,0,1,.763.763Z" transform="translate(-292.239 -7.128)" fill="#e4e4e2"/>
      <path id="Trazado_725900" data-name="Trazado 725900" d="M210.467,381.083h-8.722v-3.489l-.872-1.744L200,368h12.211l-.872,7.85-.872,1.744Z" transform="translate(-156.811 -313.622)" fill="#06c7a6"/>
      <path id="Trazado_725901" data-name="Trazado 725901" d="M218.467,307.489H208l.748-2.993a.654.654,0,0,1,.635-.5h7.7a.654.654,0,0,1,.635.5Z" transform="translate(-163.939 -256.6)" fill="#06c7a6"/>
      <g id="Grupo_959532" data-name="Grupo 959532" transform="translate(42.317 50.889)">
        <path id="Trazado_725902" data-name="Trazado 725902" d="M192,336h13.955v3.489H192Z" transform="translate(-192 -336)" fill="#05b093"/>
        <circle id="Elipse_5732" data-name="Elipse 5732" cx="1.5" cy="1.5" r="1.5" transform="translate(5.684 7.111)" fill="#05b093"/>
        <rect id="Rectángulo_340363" data-name="Rectángulo 340363" width="3" height="3" rx="1.5" transform="translate(-0.316 13.111)" fill="#05b093"/>
        <rect id="Rectángulo_340364" data-name="Rectángulo 340364" width="2" height="3" rx="1" transform="translate(11.684 13.111)" fill="#05b093"/>
      </g>
      <path id="Trazado_725903" data-name="Trazado 725903" d="M50.467,381.083H41.744v-3.489l-.872-1.744L40,368H52.211l-.872,7.85-.872,1.744Z" transform="translate(-14.256 -313.622)" fill="#01afea"/>
      <path id="Trazado_725904" data-name="Trazado 725904" d="M58.467,307.489H48l.748-2.993a.654.654,0,0,1,.635-.5h7.7a.654.654,0,0,1,.635.5Z" transform="translate(-21.383 -256.6)" fill="#01afea"/>
      <path id="Trazado_725905" data-name="Trazado 725905" d="M32,336H45.955v3.489H32Z" transform="translate(-7.128 -285.111)" fill="#0198cb"/>
      <rect id="Rectángulo_340365" data-name="Rectángulo 340365" width="2" height="3" rx="1" transform="translate(25 64)" fill="#0198cb"/>
      <rect id="Rectángulo_340366" data-name="Rectángulo 340366" width="3" height="3" rx="1.5" transform="translate(36 64)" fill="#0198cb"/>
      <path id="Trazado_725906" data-name="Trazado 725906" d="M370.467,381.083h-8.722v-3.489l-.872-1.744L360,368h12.211l-.872,7.85-.872,1.744Z" transform="translate(-299.367 -313.622)" fill="#fbb540"/>
      <path id="Trazado_725907" data-name="Trazado 725907" d="M378.467,307.489H368l.748-2.993a.654.654,0,0,1,.635-.5h7.7a.654.654,0,0,1,.635.5Z" transform="translate(-306.495 -256.6)" fill="#fbb540"/>
      <path id="Trazado_725908" data-name="Trazado 725908" d="M352,336h13.955v3.489H352Z" transform="translate(-292.239 -285.111)" fill="#ea9d2d"/>
      <rect id="Rectángulo_340367" data-name="Rectángulo 340367" width="2" height="3" rx="1" transform="translate(60 64)" fill="#ea9d2d"/>
      <rect id="Rectángulo_340368" data-name="Rectángulo 340368" width="3" height="3" rx="1.5" transform="translate(71 64)" fill="#ea9d2d"/>
      <path id="Trazado_725909" data-name="Trazado 725909" d="M400,400h3.489v3.489H400Z" transform="translate(-335.006 -342.134)" fill="#ea9d2d"/>
      <path id="Trazado_725910" data-name="Trazado 725910" d="M81.744,400,80,403.489h3.489Z" transform="translate(-49.894 -342.134)" fill="#0198cb"/>
      <path id="Trazado_725911" data-name="Trazado 725911" d="M77.233,209.936l-2.828.707a.872.872,0,0,0-.661.846v2.255l-.255-.255a.872.872,0,0,0-1.234,1.234L74,216.467a.872.872,0,0,0,1.234,0l1.744-1.744a.872.872,0,0,0-1.234-1.234l-.255.255V212.17l2.828-.707a.872.872,0,0,0,.661-.846V208H77.233Z" transform="translate(-42.767 -171.067)" fill="#8ed2ff"/>
      <path id="Trazado_725912" data-name="Trazado 725912" d="M375.595,213.489a.872.872,0,0,0-1.234,0l-.255.255v-2.255a.872.872,0,0,0-.7-.855l-3.66-.732V208H368v2.617a.872.872,0,0,0,.7.855l3.66.732v1.54l-.255-.255a.872.872,0,1,0-1.234,1.234l1.744,1.744a.872.872,0,0,0,1.234,0l1.744-1.744A.872.872,0,0,0,375.595,213.489Z" transform="translate(-306.495 -171.067)" fill="#8ed2ff"/>
      <path id="Trazado_725913" data-name="Trazado 725913" d="M360,48h3.489v.872H360Z" transform="translate(-299.367 -28.511)" fill="#0198cb"/>
      <path id="Trazado_725914" data-name="Trazado 725914" d="M228.361,96h-2.617a.872.872,0,0,0-.78.482l-.872,1.744a.871.871,0,0,0-.092.39v1.744a.872.872,0,0,0,.872.872h3.489a.872.872,0,0,0,.872-.872V96.872A.872.872,0,0,0,228.361,96Zm-.872,3.489h-1.744v-.666l.539-1.078h1.205Z" transform="translate(-178.195 -71.278)"/>
      <path id="Trazado_725915" data-name="Trazado 725915" d="M195.775,32h-2.617a1.31,1.31,0,0,0-1.308,1.308v1.308h-4.361a.872.872,0,0,0-.8.529l-2.617,6.105a.874.874,0,0,0-.07.344v7.959a2.51,2.51,0,0,0,2.508,2.508h4.47v4.872l-.255-.255a.872.872,0,1,0-1.234,1.234l1.744,1.744a.872.872,0,0,0,1.234,0l1.744-1.744a.872.872,0,0,0-1.234-1.234l-.255.255V52.061h3.6a2.51,2.51,0,0,0,2.508-2.508V38.978a.872.872,0,0,0-.092-.39l-1.652-3.3V33.308A1.31,1.31,0,0,0,195.775,32Zm-2.181,1.744h1.744v.872h-1.744Zm3.489,15.809a.764.764,0,0,1-.763.763h-9.812a.764.764,0,0,1-.763-.763v-7.78l2.32-5.412h7.608l1.411,2.823Z" transform="translate(-142.556 -14.256)"/>
      <path id="Trazado_725916" data-name="Trazado 725916" d="M80.722,35.347V33.526A1.528,1.528,0,0,0,79.2,32H77.015a1.528,1.528,0,0,0-1.526,1.526v1.821l-1.7,5.1a.876.876,0,0,0-.045.276V49.88a2.183,2.183,0,0,0,2.181,2.181h1.308v1.063l-2.828.707a.872.872,0,0,0-.661.846v2.255l-.255-.255a.872.872,0,0,0-1.234,1.234L74,59.655a.872.872,0,0,0,1.234,0l1.744-1.744a.872.872,0,0,0-1.234-1.234l-.255.255V55.359l2.828-.707a.872.872,0,0,0,.661-.846V52.061h1.308a2.183,2.183,0,0,0,2.181-2.181V40.722a.876.876,0,0,0-.045-.276Zm-3.489-1.6h1.744v.872H77.233Zm-.244,2.617h2.232l1.163,3.489H75.827ZM80.722,49.88a.436.436,0,0,1-.436.436H75.925a.436.436,0,0,1-.436-.436V48.572h5.233Zm0-3.053H75.489V45.083h5.233Zm0-3.489H75.489V41.594h5.233Z" transform="translate(-42.767 -14.256)"/>
      <path id="Trazado_725917" data-name="Trazado 725917" d="M339.489,37.805V39.55a.872.872,0,0,0,.7.855l3.66.732v1.54l-.255-.255a.872.872,0,0,0-1.234,1.234l1.744,1.744a.872.872,0,0,0,1.234,0l1.744-1.744a.872.872,0,0,0-1.234-1.234l-.255.255V40.422a.872.872,0,0,0-.7-.855l-3.66-.732V37.805h.654a2.838,2.838,0,0,0,2.835-2.835V26.212a3.505,3.505,0,0,0-.368-1.56L343.3,22.544a3.067,3.067,0,0,1-.322-1.365v-.818a.872.872,0,0,0,.872-.872V17.635A1.637,1.637,0,0,0,342.215,16h-3.707a1.637,1.637,0,0,0-1.635,1.635v1.853a.872.872,0,0,0,.872.872v.818a3.068,3.068,0,0,1-.322,1.365l-1.054,2.107A3.5,3.5,0,0,0,336,26.212v8.759a2.838,2.838,0,0,0,2.835,2.835Zm-.872-20.061h3.489v.872h-3.489Zm-.872,17.226V26.212a1.754,1.754,0,0,1,.184-.78l1.054-2.107a4.82,4.82,0,0,0,.507-2.146v-.818h1.744v.818a4.819,4.819,0,0,0,.507,2.145l1.054,2.108a1.753,1.753,0,0,1,.184.78v8.759a1.091,1.091,0,0,1-1.09,1.09h-3.053A1.091,1.091,0,0,1,337.744,34.971Z" transform="translate(-277.984)"/>
      <path id="Trazado_725918" data-name="Trazado 725918" d="M198.828,299.489h-1.063l-.583-2.333A1.524,1.524,0,0,0,195.7,296H188a1.524,1.524,0,0,0-1.481,1.156l-.583,2.333h-1.063a.872.872,0,0,0-.872.872v3.489a.872.872,0,0,0,.872.872h.092l.786,7.074a.873.873,0,0,0,.087.294l.244.487A2.181,2.181,0,0,0,184,314.753v.872a2.177,2.177,0,0,0,2.99,2.023.869.869,0,0,0,.5.157h8.722a.868.868,0,0,0,.5-.157,2.177,2.177,0,0,0,2.99-2.023v-.872a2.181,2.181,0,0,0-2.08-2.175l.244-.487a.873.873,0,0,0,.087-.294l.786-7.074h.092a.872.872,0,0,0,.872-.872v-3.489a.872.872,0,0,0-.872-.872Zm-10.658-1.744h7.36l.436,1.744h-8.232Zm-1.553,17.88a.436.436,0,1,1-.872,0v-.872a.436.436,0,1,1,.872,0Zm9.617-4.176-.8,1.605a.871.871,0,0,0-.092.39v2.617h-6.978v-2.617a.871.871,0,0,0-.092-.39l-.8-1.605-.747-6.727h10.262Zm1.722,3.3v.872a.436.436,0,1,1-.872,0v-.872a.436.436,0,1,1,.872,0Zm0-11.775H185.744v-1.744h12.211Z" transform="translate(-142.556 -249.472)"/>
      <path id="Trazado_725919" data-name="Trazado 725919" d="M234.617,397.233A2.617,2.617,0,1,0,232,394.617,2.617,2.617,0,0,0,234.617,397.233Zm0-3.489a.872.872,0,1,1-.872.872A.872.872,0,0,1,234.617,393.744Z" transform="translate(-185.322 -335.006)"/>
      <path id="Trazado_725920" data-name="Trazado 725920" d="M38.828,299.489H37.764l-.583-2.333A1.524,1.524,0,0,0,35.7,296H28a1.524,1.524,0,0,0-1.481,1.156l-.583,2.333H24.872a.872.872,0,0,0-.872.872v3.489a.872.872,0,0,0,.872.872h.092l.786,7.074a.873.873,0,0,0,.087.294l.244.487A2.181,2.181,0,0,0,24,314.753v.872a2.177,2.177,0,0,0,2.99,2.023.868.868,0,0,0,.5.157h8.722a.868.868,0,0,0,.5-.157,2.177,2.177,0,0,0,2.99-2.023v-.872a2.181,2.181,0,0,0-2.08-2.175l.244-.487a.873.873,0,0,0,.087-.294l.786-7.074h.092a.872.872,0,0,0,.872-.872v-3.489A.872.872,0,0,0,38.828,299.489ZM28.17,297.744h7.36l.436,1.744H27.734Zm-1.553,17.88a.436.436,0,1,1-.872,0v-.872a.436.436,0,1,1,.872,0Zm9.617-4.176-.8,1.605a.871.871,0,0,0-.092.39v2.617H28.361v-2.617a.872.872,0,0,0-.092-.39l-.8-1.605-.747-6.727H36.981Zm1.722,3.3v.872a.436.436,0,1,1-.872,0v-.872a.436.436,0,1,1,.872,0Zm0-11.775H25.744v-1.744H37.955Z" transform="translate(0 -249.472)"/>
      <path id="Trazado_725921" data-name="Trazado 725921" d="M358.828,299.489h-1.063l-.583-2.333A1.524,1.524,0,0,0,355.7,296H348a1.524,1.524,0,0,0-1.481,1.156l-.583,2.333h-1.063a.872.872,0,0,0-.872.872v3.489a.872.872,0,0,0,.872.872h.092l.786,7.074a.873.873,0,0,0,.087.294l.244.487A2.181,2.181,0,0,0,344,314.753v.872a2.177,2.177,0,0,0,2.99,2.023.868.868,0,0,0,.5.157h8.722a.868.868,0,0,0,.5-.157,2.177,2.177,0,0,0,2.99-2.023v-.872a2.181,2.181,0,0,0-2.08-2.175l.244-.487a.873.873,0,0,0,.087-.294l.786-7.074h.092a.872.872,0,0,0,.872-.872v-3.489A.872.872,0,0,0,358.828,299.489Zm-10.658-1.744h7.36l.436,1.744h-8.232Zm-1.553,17.88a.436.436,0,1,1-.872,0v-.872a.436.436,0,1,1,.872,0Zm9.617-4.176-.8,1.605a.871.871,0,0,0-.092.39v2.617h-6.978v-2.617a.872.872,0,0,0-.092-.39l-.8-1.605-.747-6.727h10.262Zm1.722,3.3v.872a.436.436,0,1,1-.872,0v-.872a.436.436,0,1,1,.872,0Zm0-11.775H345.744v-1.744h12.211Z" transform="translate(-285.111 -249.472)"/>
      <path id="Trazado_725922" data-name="Trazado 725922" d="M392.872,397.233h3.489a.872.872,0,0,0,.872-.872v-3.489a.872.872,0,0,0-.872-.872h-3.489a.872.872,0,0,0-.872.872v3.489A.872.872,0,0,0,392.872,397.233Zm.872-3.489h1.744v1.744h-1.744Z" transform="translate(-327.878 -335.006)"/>
      <path id="Trazado_725923" data-name="Trazado 725923" d="M72.872,397.234h3.489a.872.872,0,0,0,.78-1.262L75.4,392.483a.872.872,0,0,0-1.56,0l-1.744,3.489a.872.872,0,0,0,.78,1.262Zm1.744-2.411.333.666h-.666Z" transform="translate(-42.767 -335.006)"/>
    </g>
  </g>
</svg>
