<svg xmlns="http://www.w3.org/2000/svg" xmlns:xlink="http://www.w3.org/1999/xlink" width="138" height="138" viewBox="0 0 138 138">
  <defs>
    <filter id="Elipse_5734" x="0" y="0" width="138" height="138" filterUnits="userSpaceOnUse">
      <feOffset dy="3" input="SourceAlpha"/>
      <feGaussianBlur stdDeviation="3" result="blur"/>
      <feFlood flood-opacity="0.161"/>
      <feComposite operator="in" in2="blur"/>
      <feComposite in="SourceGraphic"/>
    </filter>
  </defs>
  <g id="Grupo_959759" data-name="Grupo 959759" transform="translate(-732 -648)">
    <g transform="matrix(1, 0, 0, 1, 732, 648)" filter="url(#Elipse_5734)">
      <circle id="Elipse_5734-2" data-name="Elipse 5734" cx="60" cy="60" r="60" transform="translate(9 6)" fill="#badc61"/>
    </g>
    <g id="Layer_42" transform="translate(755.671 678)">
      <g id="Grupo_959597" data-name="Grupo 959597" transform="translate(21.745 71.247)">
        <g id="Grupo_959596" data-name="Grupo 959596" transform="translate(0)">
          <path id="Trazado_725973" data-name="Trazado 725973" d="M91.626,251H46.21a.71.71,0,1,0,0,1.419H91.626a.71.71,0,0,0,0-1.419Z" transform="translate(-45.5 -251)"/>
        </g>
      </g>
      <g id="Grupo_959726" data-name="Grupo 959726" transform="translate(12.329)">
        <g id="Grupo_959599" data-name="Grupo 959599" transform="translate(2.709 14.361)">
          <g id="Grupo_959598" data-name="Grupo 959598">
            <path id="Trazado_725974" data-name="Trazado 725974" d="M78.662,65.526a1.578,1.578,0,0,1-1.576-1.009,3.211,3.211,0,0,0-3.185-1.98,1.615,1.615,0,0,1-1.623-1,3.211,3.211,0,0,0-3.186-1.981,1.616,1.616,0,0,1-1.623-1,3.211,3.211,0,0,0-3.186-1.981,1.616,1.616,0,0,1-1.623-1,3.211,3.211,0,0,0-3.189-1.981,1.614,1.614,0,0,1-.928-.214,3.139,3.139,0,0,0,.225.748.793.793,0,0,1-.081.744l0,0a1.549,1.549,0,0,0-.233.926.769.769,0,0,1-.668.791,6.81,6.81,0,0,1-7.469-4.663.772.772,0,0,1,.349-.911,3.174,3.174,0,0,0-4.511,1.563,1.624,1.624,0,0,1-1.627,1.013,3.212,3.212,0,0,0-3.19,1.981,1.615,1.615,0,0,1-1.623,1,3.212,3.212,0,0,0-3.186,1.981,1.615,1.615,0,0,1-1.623,1,3.212,3.212,0,0,0-3.186,1.981,1.615,1.615,0,0,1-1.623,1,3.213,3.213,0,0,0-3.186,1.98,1.578,1.578,0,0,1-1.576,1.009,3.182,3.182,0,0,0-3.458,3.241,3.076,3.076,0,0,0,.444,1.526H81.676a3.082,3.082,0,0,0,.444-1.525,3.182,3.182,0,0,0-3.458-3.242Z" transform="translate(-21.874 -50.592)" fill="#818182"/>
          </g>
        </g>
        <g id="Grupo_959601" data-name="Grupo 959601" transform="translate(31.112 6.797)">
          <g id="Grupo_959600" data-name="Grupo 959600">
            <path id="Trazado_725975" data-name="Trazado 725975" d="M134.949,28.682a6.81,6.81,0,0,0-7.469-4.663.769.769,0,0,0-.668.791,1.549,1.549,0,0,1-.233.926l0,0a.793.793,0,0,0-.081.744,3.115,3.115,0,0,1-2.739,4.386.794.794,0,0,0-.633.4l0,0a1.549,1.549,0,0,1-.73.616.769.769,0,0,0-.418.948,6.81,6.81,0,0,0,7.469,4.663.769.769,0,0,0,.668-.791,1.549,1.549,0,0,1,.233-.926l0,0a.793.793,0,0,0,.081-.744,3.115,3.115,0,0,1,2.739-4.386.794.794,0,0,0,.633-.4l0,0a1.549,1.549,0,0,1,.729-.616.769.769,0,0,0,.418-.948Z" transform="translate(-121.936 -23.947)" fill="#fc657e"/>
          </g>
        </g>
        <g id="Grupo_959603" data-name="Grupo 959603" transform="translate(16.089 7.619)">
          <g id="Grupo_959602" data-name="Grupo 959602">
            <path id="Trazado_725976" data-name="Trazado 725976" d="M77.112,30.83l-.421-1.342a3.788,3.788,0,0,0-4.734-2.473l-.3.094a3.788,3.788,0,0,0-2.473,4.734l.842,2.683a.8.8,0,0,0,.633.548l1.76.284a.8.8,0,0,0,.365-.026l2.382-.747a.8.8,0,0,0,.54-.59l.344-1.576a.8.8,0,0,1,.54-.59.8.8,0,0,0,.522-1Z" transform="translate(-69.011 -26.842)" fill="#fc8c48"/>
          </g>
        </g>
        <g id="Grupo_959605" data-name="Grupo 959605" transform="translate(39.788 25.121)">
          <g id="Grupo_959604" data-name="Grupo 959604">
            <circle id="Elipse_5742" data-name="Elipse 5742" cx="2.413" cy="2.413" r="2.413" fill="#b2e26d"/>
          </g>
        </g>
        <g id="Grupo_959607" data-name="Grupo 959607" transform="translate(17.463 23.481)">
          <g id="Grupo_959606" data-name="Grupo 959606">
            <path id="Trazado_725977" data-name="Trazado 725977" d="M86.762,90.834a3.168,3.168,0,0,1-.9-.2,3.112,3.112,0,0,1-1.876-3.841.848.848,0,0,0-.363-.972,2.181,2.181,0,0,1-1.027-1.852c0-.07,0-.139.01-.207a.866.866,0,0,0-.708-.967A7.021,7.021,0,0,0,74.819,93.3h12.1a6.9,6.9,0,0,0,.621-1.347A.862.862,0,0,0,86.762,90.834Z" transform="translate(-73.85 -82.723)" fill="#f5c84c"/>
          </g>
        </g>
        <g id="Grupo_959609" data-name="Grupo 959609" transform="translate(27.932 2.64)">
          <g id="Grupo_959608" data-name="Grupo 959608">
            <path id="Trazado_725978" data-name="Trazado 725978" d="M114.389,11.063a2.21,2.21,0,0,1-1.773-1.733c0-.04-.08-.04-.08,0a2.21,2.21,0,0,1-1.773,1.733c-.04,0-.04.06,0,.08a2.21,2.21,0,0,1,1.773,1.733c0,.04.08.04.08,0a2.21,2.21,0,0,1,1.773-1.733C114.429,11.123,114.429,11.063,114.389,11.063Z" transform="translate(-110.734 -9.301)" fill="#70d6f9"/>
          </g>
        </g>
        <g id="Grupo_959611" data-name="Grupo 959611" transform="translate(1.184 13.666)">
          <g id="Grupo_959610" data-name="Grupo 959610">
            <path id="Trazado_725979" data-name="Trazado 725979" d="M20.531,49.707h-.653v-.653a.915.915,0,0,0-.908-.908.9.9,0,0,0-.908.908v.653h-.653a.915.915,0,0,0-.908.908.9.9,0,0,0,.908.908h.653v.653a.915.915,0,0,0,.908.908.9.9,0,0,0,.908-.908v-.653h.653a.915.915,0,0,0,.908-.908.9.9,0,0,0-.908-.908Z" transform="translate(-16.5 -48.146)" fill="#87d147"/>
          </g>
        </g>
        <g id="Grupo_959613" data-name="Grupo 959613" transform="translate(9.671 19.359)">
          <g id="Grupo_959612" data-name="Grupo 959612">
            <path id="Trazado_725980" data-name="Trazado 725980" d="M47.365,68.2a.965.965,0,1,0,.965.965A.965.965,0,0,0,47.365,68.2Z" transform="translate(-46.4 -68.2)" fill="#f5c84c"/>
          </g>
        </g>
        <g id="Grupo_959615" data-name="Grupo 959615" transform="translate(53.682 5.264)">
          <g id="Grupo_959614" data-name="Grupo 959614">
            <path id="Trazado_725981" data-name="Trazado 725981" d="M206.659,21.058a3.15,3.15,0,0,1-2.526-2.47c0-.057-.114-.057-.114,0a3.15,3.15,0,0,1-2.526,2.47c-.057,0-.057.085,0,.114a3.15,3.15,0,0,1,2.526,2.47c0,.057.114.057.114,0a3.15,3.15,0,0,1,2.526-2.47C206.715,21.144,206.715,21.058,206.659,21.058Z" transform="translate(-201.45 -18.546)" fill="#f5c84c"/>
          </g>
        </g>
        <g id="Grupo_959617" data-name="Grupo 959617" transform="translate(49.126)">
          <g id="Grupo_959616" data-name="Grupo 959616">
            <path id="Trazado_725982" data-name="Trazado 725982" d="M186.365,0a.965.965,0,1,0,.965.965A.965.965,0,0,0,186.365,0Z" transform="translate(-185.4)" fill="#fc657e"/>
          </g>
        </g>
        <g id="Grupo_959619" data-name="Grupo 959619" transform="translate(40.611 4.909)">
          <g id="Grupo_959618" data-name="Grupo 959618">
            <path id="Trazado_725983" data-name="Trazado 725983" d="M159.858,17.318a4.533,4.533,0,0,0-4.35,2.4.71.71,0,1,0,1.2.752,3.17,3.17,0,0,1,2.936-1.751.71.71,0,0,0,.21-1.4Z" transform="translate(-155.4 -17.295)"/>
          </g>
        </g>
        <g id="Grupo_959621" data-name="Grupo 959621" transform="translate(16.521 1.855)">
          <g id="Grupo_959620" data-name="Grupo 959620">
            <path id="Trazado_725984" data-name="Trazado 725984" d="M73.407,11.777,71.918,7.031a.71.71,0,0,0-1.354.425L72.053,12.2a.71.71,0,1,0,1.354-.425Z" transform="translate(-70.531 -6.534)"/>
          </g>
        </g>
        <g id="Grupo_959623" data-name="Grupo 959623" transform="translate(14.153 4.493)">
          <g id="Grupo_959622" data-name="Grupo 959622">
            <path id="Trazado_725985" data-name="Trazado 725985" d="M66.115,18.781l-2.71-2.74a.71.71,0,0,0-1.009,1l2.71,2.74a.71.71,0,0,0,1.009-1Z" transform="translate(-62.19 -15.83)"/>
          </g>
        </g>
        <g id="Grupo_959625" data-name="Grupo 959625" transform="translate(19.312 2.668)">
          <g id="Grupo_959624" data-name="Grupo 959624">
            <path id="Trazado_725986" data-name="Trazado 725986" d="M81.855,9.41a.709.709,0,0,0-.821.578l-.66,3.8a.71.71,0,0,0,.578.821.72.72,0,0,0,.122.011.71.71,0,0,0,.7-.588l.66-3.8A.709.709,0,0,0,81.855,9.41Z" transform="translate(-80.364 -9.399)"/>
          </g>
        </g>
        <g id="Grupo_959627" data-name="Grupo 959627" transform="translate(16.358 11.893)">
          <g id="Grupo_959626" data-name="Grupo 959626">
            <path id="Trazado_725987" data-name="Trazado 725987" d="M73.24,42.4a.709.709,0,0,0-.889-.465l-1.9.595a.71.71,0,1,0,.425,1.354l1.9-.595A.709.709,0,0,0,73.24,42.4Z" transform="translate(-69.957 -41.9)"/>
          </g>
        </g>
        <g id="Grupo_959629" data-name="Grupo 959629" transform="translate(2 13.651)">
          <g id="Grupo_959628" data-name="Grupo 959628">
            <path id="Trazado_725988" data-name="Trazado 725988" d="M49.055,48.51a3.833,3.833,0,0,0-1.748-.417,3.872,3.872,0,0,0-3.6,2.42.917.917,0,0,1-.917.573,3.932,3.932,0,0,0-3.9,2.424.907.907,0,0,1-.913.561,3.927,3.927,0,0,0-3.9,2.424.909.909,0,0,1-.913.561,3.925,3.925,0,0,0-3.9,2.424.909.909,0,0,1-.913.561,3.923,3.923,0,0,0-3.9,2.423.868.868,0,0,1-.855.567A3.912,3.912,0,0,0,20.6,64.077a3.829,3.829,0,0,0-1.219,2.916,3.757,3.757,0,0,0,.41,1.633.71.71,0,1,0,1.265-.642,2.35,2.35,0,0,1-.257-1.022,2.426,2.426,0,0,1,.769-1.849,2.493,2.493,0,0,1,1.917-.67,2.3,2.3,0,0,0,2.3-1.45,2.5,2.5,0,0,1,2.476-1.538,2.318,2.318,0,0,0,2.333-1.447,2.494,2.494,0,0,1,2.476-1.538A2.318,2.318,0,0,0,35.4,57.025a2.5,2.5,0,0,1,2.476-1.538A2.318,2.318,0,0,0,40.2,54.04,2.492,2.492,0,0,1,42.683,52.5a2.333,2.333,0,0,0,2.336-1.453,2.458,2.458,0,0,1,2.287-1.536,2.427,2.427,0,0,1,1.107.264.71.71,0,0,0,.642-1.267Z" transform="translate(-19.376 -48.093)"/>
          </g>
        </g>
        <g id="Grupo_959631" data-name="Grupo 959631" transform="translate(38.834 16.511)">
          <g id="Grupo_959630" data-name="Grupo 959630">
            <path id="Trazado_725989" data-name="Trazado 725989" d="M172.754,71.293a3.912,3.912,0,0,0-3.012-1.047.872.872,0,0,1-.855-.567,3.93,3.93,0,0,0-3.9-2.423.9.9,0,0,1-.913-.561,3.928,3.928,0,0,0-3.9-2.424.9.9,0,0,1-.913-.561,3.927,3.927,0,0,0-3.9-2.424.906.906,0,0,1-.913-.561,3.927,3.927,0,0,0-3.9-2.424.891.891,0,0,1-.426-.073.71.71,0,0,0-.567,1.3,2.333,2.333,0,0,0,1.1.188,2.5,2.5,0,0,1,2.478,1.538,2.323,2.323,0,0,0,2.333,1.447,2.492,2.492,0,0,1,2.476,1.538,2.322,2.322,0,0,0,2.333,1.447,2.5,2.5,0,0,1,2.475,1.538,2.319,2.319,0,0,0,2.333,1.447,2.5,2.5,0,0,1,2.475,1.537,2.3,2.3,0,0,0,2.3,1.451,2.49,2.49,0,0,1,1.917.67,2.425,2.425,0,0,1,.769,1.85,2.353,2.353,0,0,1-.264,1.035.71.71,0,1,0,1.261.651,3.76,3.76,0,0,0,.422-1.654A3.826,3.826,0,0,0,172.754,71.293Z" transform="translate(-149.141 -58.169)"/>
          </g>
        </g>
        <g id="Grupo_959634" data-name="Grupo 959634" transform="translate(30.403 6.088)">
          <g id="Grupo_959633" data-name="Grupo 959633">
            <g id="Grupo_959632" data-name="Grupo 959632">
              <path id="Trazado_725990" data-name="Trazado 725990" d="M133.835,26.677a7.52,7.52,0,0,0-8.247-5.149,1.481,1.481,0,0,0-1.274,1.54.841.841,0,0,1-.128.505,1.5,1.5,0,0,0-.128,1.41,2.406,2.406,0,0,1-2.115,3.389,1.5,1.5,0,0,0-1.209.731l0,.006a.841.841,0,0,1-.4.334,1.481,1.481,0,0,0-.825,1.821,7.52,7.52,0,0,0,8.247,5.15,1.481,1.481,0,0,0,1.274-1.54.841.841,0,0,1,.128-.505,1.5,1.5,0,0,0,.128-1.41A2.406,2.406,0,0,1,131.4,29.57a1.505,1.505,0,0,0,1.212-.737.843.843,0,0,1,.4-.335,1.481,1.481,0,0,0,.825-1.821Zm-1.362.507a2.257,2.257,0,0,0-1.066.9.264.264,0,0,1-.055.064,3.824,3.824,0,0,0-3.364,5.377.185.185,0,0,1-.035.091,2.246,2.246,0,0,0-.339,1.347.084.084,0,0,1-.063.043,6.1,6.1,0,0,1-6.69-4.177.085.085,0,0,1,.011-.076,2.247,2.247,0,0,0,1.062-.9l0-.006a.266.266,0,0,1,.056-.064,3.824,3.824,0,0,0,3.364-5.377.185.185,0,0,1,.035-.091,2.25,2.25,0,0,0,.339-1.347.084.084,0,0,1,.063-.043,6.1,6.1,0,0,1,6.69,4.177A.086.086,0,0,1,132.473,27.185Z" transform="translate(-119.437 -21.449)"/>
            </g>
          </g>
        </g>
        <g id="Grupo_959637" data-name="Grupo 959637" transform="translate(15.379 6.908)">
          <g id="Grupo_959636" data-name="Grupo 959636">
            <g id="Grupo_959635" data-name="Grupo 959635">
              <path id="Trazado_725991" data-name="Trazado 725991" d="M76,28.824l-.421-1.342a4.5,4.5,0,0,0-5.623-2.938l-.3.094a4.491,4.491,0,0,0-2.938,5.623l.842,2.683a1.5,1.5,0,0,0,1.2,1.036l1.76.284a1.53,1.53,0,0,0,.239.019,1.512,1.512,0,0,0,.452-.069l2.382-.747a1.509,1.509,0,0,0,1.021-1.116l.344-1.575a.088.088,0,0,1,.059-.065A1.508,1.508,0,0,0,76,28.824Zm-1.36.491a.083.083,0,0,1-.051.043,1.51,1.51,0,0,0-1.02,1.116l-.344,1.575a.087.087,0,0,1-.059.065l-2.382.747a.086.086,0,0,1-.04,0l-1.76-.284a.088.088,0,0,1-.069-.06l-.842-2.683a3.07,3.07,0,0,1,2.008-3.844l.3-.094a3.078,3.078,0,0,1,3.844,2.008l.421,1.342A.085.085,0,0,1,74.636,29.315Z" transform="translate(-66.508 -24.338)"/>
            </g>
          </g>
        </g>
        <g id="Grupo_959640" data-name="Grupo 959640" transform="translate(39.078 24.411)">
          <g id="Grupo_959639" data-name="Grupo 959639">
            <g id="Grupo_959638" data-name="Grupo 959638">
              <path id="Trazado_725992" data-name="Trazado 725992" d="M153.122,86a3.122,3.122,0,1,0,3.122,3.122A3.126,3.126,0,0,0,153.122,86Zm0,4.825a1.7,1.7,0,1,1,1.7-1.7A1.7,1.7,0,0,1,153.122,90.825Z" transform="translate(-150 -86)"/>
            </g>
          </g>
        </g>
        <g id="Grupo_959642" data-name="Grupo 959642" transform="translate(16.754 22.771)">
          <g id="Grupo_959641" data-name="Grupo 959641">
            <path id="Trazado_725993" data-name="Trazado 725993" d="M86.244,89.037a1.591,1.591,0,0,0-1.224-.7,2.476,2.476,0,0,1-.7-.154,2.4,2.4,0,0,1-1.447-2.965,1.56,1.56,0,0,0-.664-1.785,1.467,1.467,0,0,1-.693-1.25c0-.047,0-.094.007-.139A1.578,1.578,0,0,0,80.208,80.3,7.732,7.732,0,0,0,72.222,91.52a.71.71,0,1,0,1.259-.655A6.312,6.312,0,0,1,80,81.709c.076.011.114.111.105.2s-.013.182-.013.275a2.878,2.878,0,0,0,1.36,2.453.138.138,0,0,1,.063.158,3.822,3.822,0,0,0,2.3,4.718,3.89,3.89,0,0,0,1.106.242.18.18,0,0,1,.141.077.125.125,0,0,1,.015.116,6.034,6.034,0,0,1-.435.992.71.71,0,1,0,1.246.68,7.452,7.452,0,0,0,.536-1.226,1.543,1.543,0,0,0-.186-1.354Z" transform="translate(-71.352 -80.223)"/>
          </g>
        </g>
        <g id="Grupo_959644" data-name="Grupo 959644" transform="translate(10.125 41.158)">
          <g id="Grupo_959643" data-name="Grupo 959643">
            <path id="Trazado_725994" data-name="Trazado 725994" d="M48,145H93.416v23.7H48Z" transform="translate(-48 -145)" fill="#754e34"/>
          </g>
        </g>
        <g id="Grupo_959646" data-name="Grupo 959646" transform="translate(3.597 34.062)">
          <g id="Grupo_959645" data-name="Grupo 959645">
            <path id="Trazado_725995" data-name="Trazado 725995" d="M25,120h6.529v37.894H25Z" transform="translate(-25 -120)" fill="#c18e6b"/>
          </g>
        </g>
        <g id="Grupo_959648" data-name="Grupo 959648" transform="translate(55.541 34.062)">
          <g id="Grupo_959647" data-name="Grupo 959647">
            <path id="Trazado_725996" data-name="Trazado 725996" d="M208,120h6.529v37.894H208Z" transform="translate(-208 -120)" fill="#c18e6b"/>
          </g>
        </g>
        <g id="Grupo_959650" data-name="Grupo 959650" transform="translate(10.125 34.062)">
          <g id="Grupo_959649" data-name="Grupo 959649">
            <path id="Trazado_725997" data-name="Trazado 725997" d="M48,120H93.416v7.1H48Z" transform="translate(-48 -120)" fill="#a57453"/>
          </g>
        </g>
        <g id="Grupo_959652" data-name="Grupo 959652" transform="translate(0.71 34.062)">
          <g id="Grupo_959651" data-name="Grupo 959651">
            <path id="Trazado_725998" data-name="Trazado 725998" d="M15.756,120a.927.927,0,0,0-.927.927v5.241a.927.927,0,0,0,.927.927h1.96V120h-1.96Z" transform="translate(-14.829 -119.999)" fill="#a57453"/>
          </g>
        </g>
        <g id="Grupo_959654" data-name="Grupo 959654" transform="translate(62.07 34.062)">
          <g id="Grupo_959653" data-name="Grupo 959653">
            <path id="Trazado_725999" data-name="Trazado 725999" d="M232.96,120H231v7.1h1.96a.927.927,0,0,0,.927-.927v-5.241A.927.927,0,0,0,232.96,120Z" transform="translate(-231 -120)" fill="#a57453"/>
          </g>
        </g>
        <g id="Grupo_959656" data-name="Grupo 959656" transform="translate(0.71 44.328)">
          <g id="Grupo_959655" data-name="Grupo 959655">
            <path id="Trazado_726000" data-name="Trazado 726000" d="M15.756,156.167a.927.927,0,0,0-.927.928v5.241a.927.927,0,0,0,.927.927h1.96v-7.1Z" transform="translate(-14.829 -156.167)" fill="#a57453"/>
          </g>
        </g>
        <g id="Grupo_959658" data-name="Grupo 959658" transform="translate(10.125 44.328)">
          <g id="Grupo_959657" data-name="Grupo 959657">
            <path id="Trazado_726001" data-name="Trazado 726001" d="M48,156.167H93.416v7.1H48Z" transform="translate(-48 -156.167)" fill="#a57453"/>
          </g>
        </g>
        <g id="Grupo_959660" data-name="Grupo 959660" transform="translate(62.07 44.328)">
          <g id="Grupo_959659" data-name="Grupo 959659">
            <path id="Trazado_726002" data-name="Trazado 726002" d="M232.96,156.167H231v7.1h1.96a.927.927,0,0,0,.927-.927v-5.241A.927.927,0,0,0,232.96,156.167Z" transform="translate(-231 -156.167)" fill="#a57453"/>
          </g>
        </g>
        <g id="Grupo_959662" data-name="Grupo 959662" transform="translate(10.125 54.594)">
          <g id="Grupo_959661" data-name="Grupo 959661">
            <path id="Trazado_726003" data-name="Trazado 726003" d="M48,192.333H93.416v7.1H48Z" transform="translate(-48 -192.333)" fill="#a57453"/>
          </g>
        </g>
        <g id="Grupo_959664" data-name="Grupo 959664" transform="translate(0.71 54.594)">
          <g id="Grupo_959663" data-name="Grupo 959663">
            <path id="Trazado_726004" data-name="Trazado 726004" d="M15.756,192.332a.927.927,0,0,0-.927.927V198.5a.927.927,0,0,0,.927.927h1.96v-7.1h-1.96Z" transform="translate(-14.829 -192.332)" fill="#a57453"/>
          </g>
        </g>
        <g id="Grupo_959666" data-name="Grupo 959666" transform="translate(62.07 54.594)">
          <g id="Grupo_959665" data-name="Grupo 959665">
            <path id="Trazado_726005" data-name="Trazado 726005" d="M232.96,192.333H231v7.1h1.96a.927.927,0,0,0,.927-.927v-5.241A.927.927,0,0,0,232.96,192.333Z" transform="translate(-231 -192.333)" fill="#a57453"/>
          </g>
        </g>
        <g id="Grupo_959668" data-name="Grupo 959668" transform="translate(10.125 64.86)">
          <g id="Grupo_959667" data-name="Grupo 959667">
            <path id="Trazado_726006" data-name="Trazado 726006" d="M48,228.5H93.416v7.1H48Z" transform="translate(-48 -228.5)" fill="#a57453"/>
          </g>
        </g>
        <g id="Grupo_959670" data-name="Grupo 959670" transform="translate(62.07 64.86)">
          <g id="Grupo_959669" data-name="Grupo 959669">
            <path id="Trazado_726007" data-name="Trazado 726007" d="M232.96,228.5H231v7.1h1.96a.927.927,0,0,0,.927-.927v-5.241A.927.927,0,0,0,232.96,228.5Z" transform="translate(-231 -228.5)" fill="#a57453"/>
          </g>
        </g>
        <g id="Grupo_959672" data-name="Grupo 959672" transform="translate(0.71 64.86)">
          <g id="Grupo_959671" data-name="Grupo 959671">
            <path id="Trazado_726008" data-name="Trazado 726008" d="M15.756,228.5a.927.927,0,0,0-.927.927v5.241a.927.927,0,0,0,.927.927h1.96v-7.1h-1.96Z" transform="translate(-14.829 -228.499)" fill="#a57453"/>
          </g>
        </g>
        <g id="Grupo_959674" data-name="Grupo 959674" transform="translate(5.867 36.901)">
          <g id="Grupo_959673" data-name="Grupo 959673">
            <path id="Trazado_726009" data-name="Trazado 726009" d="M33.993,130H33.71a.71.71,0,0,0,0,1.419h.284a.71.71,0,1,0,0-1.419Z" transform="translate(-33 -130)"/>
          </g>
        </g>
        <g id="Grupo_959676" data-name="Grupo 959676" transform="translate(5.867 47.119)">
          <g id="Grupo_959675" data-name="Grupo 959675">
            <path id="Trazado_726010" data-name="Trazado 726010" d="M33.993,166H33.71a.71.71,0,0,0,0,1.419h.284a.71.71,0,1,0,0-1.419Z" transform="translate(-33 -166)"/>
          </g>
        </g>
        <g id="Grupo_959678" data-name="Grupo 959678" transform="translate(5.867 57.338)">
          <g id="Grupo_959677" data-name="Grupo 959677">
            <path id="Trazado_726011" data-name="Trazado 726011" d="M33.993,202H33.71a.71.71,0,0,0,0,1.419h.284a.71.71,0,1,0,0-1.419Z" transform="translate(-33 -202)"/>
          </g>
        </g>
        <g id="Grupo_959680" data-name="Grupo 959680" transform="translate(5.867 67.84)">
          <g id="Grupo_959679" data-name="Grupo 959679">
            <path id="Trazado_726012" data-name="Trazado 726012" d="M33.993,239H33.71a.71.71,0,1,0,0,1.419h.284a.71.71,0,1,0,0-1.419Z" transform="translate(-33 -239)"/>
          </g>
        </g>
        <g id="Grupo_959682" data-name="Grupo 959682" transform="translate(58.096 36.901)">
          <g id="Grupo_959681" data-name="Grupo 959681">
            <path id="Trazado_726013" data-name="Trazado 726013" d="M217.993,130h-.284a.71.71,0,0,0,0,1.419h.284a.71.71,0,1,0,0-1.419Z" transform="translate(-217 -130)"/>
          </g>
        </g>
        <g id="Grupo_959684" data-name="Grupo 959684" transform="translate(58.096 47.119)">
          <g id="Grupo_959683" data-name="Grupo 959683">
            <path id="Trazado_726014" data-name="Trazado 726014" d="M217.993,166h-.284a.71.71,0,0,0,0,1.419h.284a.71.71,0,1,0,0-1.419Z" transform="translate(-217 -166)"/>
          </g>
        </g>
        <g id="Grupo_959686" data-name="Grupo 959686" transform="translate(58.096 57.338)">
          <g id="Grupo_959685" data-name="Grupo 959685">
            <path id="Trazado_726015" data-name="Trazado 726015" d="M217.993,202h-.284a.71.71,0,0,0,0,1.419h.284a.71.71,0,1,0,0-1.419Z" transform="translate(-217 -202)"/>
          </g>
        </g>
        <g id="Grupo_959688" data-name="Grupo 959688" transform="translate(58.096 67.84)">
          <g id="Grupo_959687" data-name="Grupo 959687">
            <path id="Trazado_726016" data-name="Trazado 726016" d="M217.993,239h-.284a.71.71,0,0,0,0,1.419h.284a.71.71,0,1,0,0-1.419Z" transform="translate(-217 -239)"/>
          </g>
        </g>
        <g id="Grupo_959692" data-name="Grupo 959692" transform="translate(2.887 33.352)">
          <g id="Grupo_959691" data-name="Grupo 959691">
            <g id="Grupo_959690" data-name="Grupo 959690">
              <g id="Grupo_959689" data-name="Grupo 959689">
                <path id="Trazado_726017" data-name="Trazado 726017" d="M29.738,117.5H23.21a.71.71,0,0,0-.71.71V156.1a.71.71,0,0,0,.71.71h6.529a.71.71,0,0,0,.71-.71V118.21A.71.71,0,0,0,29.738,117.5Zm-.71,37.894H23.919V118.919h5.109Z" transform="translate(-22.5 -117.5)"/>
              </g>
            </g>
          </g>
        </g>
        <g id="Grupo_959695" data-name="Grupo 959695" transform="translate(54.832 33.352)">
          <g id="Grupo_959694" data-name="Grupo 959694">
            <g id="Grupo_959693" data-name="Grupo 959693">
              <path id="Trazado_726018" data-name="Trazado 726018" d="M212.738,117.5H206.21a.71.71,0,0,0-.71.71V156.1a.71.71,0,0,0,.71.71h6.529a.71.71,0,0,0,.71-.71V118.21A.71.71,0,0,0,212.738,117.5Zm-.71,37.894h-5.109V118.919h5.109Z" transform="translate(-205.5 -117.5)"/>
            </g>
          </g>
        </g>
        <g id="Grupo_959697" data-name="Grupo 959697" transform="translate(9.794 40.449)">
          <g id="Grupo_959696" data-name="Grupo 959696">
            <path id="Trazado_726019" data-name="Trazado 726019" d="M92.214,142.5H47.543a.71.71,0,1,0,0,1.419H92.214a.71.71,0,1,0,0-1.419Z" transform="translate(-46.833 -142.5)"/>
          </g>
        </g>
        <g id="Grupo_959699" data-name="Grupo 959699" transform="translate(0 33.352)">
          <g id="Grupo_959698" data-name="Grupo 959698">
            <path id="Trazado_726020" data-name="Trazado 726020" d="M13.966,118.919h1.96a.71.71,0,1,0,0-1.419h-1.96a1.639,1.639,0,0,0-1.637,1.637v5.241a1.639,1.639,0,0,0,1.637,1.637h1.676a.71.71,0,1,0,0-1.419H13.966a.218.218,0,0,1-.218-.218v-5.241a.218.218,0,0,1,.218-.218Z" transform="translate(-12.329 -117.5)"/>
          </g>
        </g>
        <g id="Grupo_959701" data-name="Grupo 959701" transform="translate(61.36 33.352)">
          <g id="Grupo_959700" data-name="Grupo 959700">
            <path id="Trazado_726021" data-name="Trazado 726021" d="M231.169,117.5h-1.96a.71.71,0,0,0,0,1.419h1.96a.218.218,0,0,1,.218.218v5.241a.218.218,0,0,1-.218.218h-1.581a.71.71,0,0,0,0,1.419h1.581a1.639,1.639,0,0,0,1.637-1.637v-5.241A1.639,1.639,0,0,0,231.169,117.5Z" transform="translate(-228.5 -117.5)"/>
          </g>
        </g>
        <g id="Grupo_959703" data-name="Grupo 959703" transform="translate(0 43.618)">
          <g id="Grupo_959702" data-name="Grupo 959702">
            <path id="Trazado_726022" data-name="Trazado 726022" d="M15.523,160.763H13.966a.218.218,0,0,1-.218-.218V155.3a.218.218,0,0,1,.218-.218h1.569a.71.71,0,1,0,0-1.419H13.966a1.639,1.639,0,0,0-1.637,1.637v5.241a1.639,1.639,0,0,0,1.637,1.637h1.557a.71.71,0,1,0,0-1.419Z" transform="translate(-12.329 -153.667)"/>
          </g>
        </g>
        <g id="Grupo_959705" data-name="Grupo 959705" transform="translate(9.652 50.715)">
          <g id="Grupo_959704" data-name="Grupo 959704">
            <path id="Trazado_726023" data-name="Trazado 726023" d="M91.867,178.667H47.043a.71.71,0,1,0,0,1.419H91.867a.71.71,0,0,0,0-1.419Z" transform="translate(-46.333 -178.667)"/>
          </g>
        </g>
        <g id="Grupo_959707" data-name="Grupo 959707" transform="translate(9.652 43.618)">
          <g id="Grupo_959706" data-name="Grupo 959706">
            <path id="Trazado_726024" data-name="Trazado 726024" d="M91.9,153.667H47.043a.71.71,0,1,0,0,1.419H91.9a.71.71,0,1,0,0-1.419Z" transform="translate(-46.333 -153.667)"/>
          </g>
        </g>
        <g id="Grupo_959709" data-name="Grupo 959709" transform="translate(61.739 43.618)">
          <g id="Grupo_959708" data-name="Grupo 959708">
            <path id="Trazado_726025" data-name="Trazado 726025" d="M232.124,153.667H230.59a.71.71,0,1,0,0,1.419h1.534a.218.218,0,0,1,.218.218v5.241a.218.218,0,0,1-.218.218h-1.581a.71.71,0,0,0,0,1.419h1.581a1.639,1.639,0,0,0,1.637-1.637V155.3A1.639,1.639,0,0,0,232.124,153.667Z" transform="translate(-229.833 -153.667)"/>
          </g>
        </g>
        <g id="Grupo_959711" data-name="Grupo 959711" transform="translate(9.782 60.981)">
          <g id="Grupo_959710" data-name="Grupo 959710">
            <path id="Trazado_726026" data-name="Trazado 726026" d="M92.285,214.833H47.5a.71.71,0,0,0,0,1.419H92.285a.71.71,0,0,0,0-1.419Z" transform="translate(-46.792 -214.833)"/>
          </g>
        </g>
        <g id="Grupo_959713" data-name="Grupo 959713" transform="translate(9.782 53.884)">
          <g id="Grupo_959712" data-name="Grupo 959712">
            <path id="Trazado_726027" data-name="Trazado 726027" d="M92.315,189.833H47.5a.71.71,0,0,0,0,1.419H92.315a.71.71,0,0,0,0-1.419Z" transform="translate(-46.792 -189.833)"/>
          </g>
        </g>
        <g id="Grupo_959715" data-name="Grupo 959715" transform="translate(0 53.884)">
          <g id="Grupo_959714" data-name="Grupo 959714">
            <path id="Trazado_726028" data-name="Trazado 726028" d="M15.518,196.929H13.966a.218.218,0,0,1-.218-.218V191.47a.218.218,0,0,1,.218-.218h1.569a.71.71,0,1,0,0-1.419H13.966a1.639,1.639,0,0,0-1.637,1.637v5.241a1.639,1.639,0,0,0,1.637,1.637h1.552a.71.71,0,0,0,0-1.419Z" transform="translate(-12.329 -189.833)"/>
          </g>
        </g>
        <g id="Grupo_959717" data-name="Grupo 959717" transform="translate(61.739 53.884)">
          <g id="Grupo_959716" data-name="Grupo 959716">
            <path id="Trazado_726029" data-name="Trazado 726029" d="M232.124,189.833H230.59a.71.71,0,1,0,0,1.419h1.534a.218.218,0,0,1,.218.218v5.241a.218.218,0,0,1-.218.218h-1.581a.71.71,0,0,0,0,1.419h1.581a1.639,1.639,0,0,0,1.637-1.637V191.47A1.639,1.639,0,0,0,232.124,189.833Z" transform="translate(-229.833 -189.833)"/>
          </g>
        </g>
        <g id="Grupo_959719" data-name="Grupo 959719" transform="translate(9.753 64.15)">
          <g id="Grupo_959718" data-name="Grupo 959718">
            <path id="Trazado_726030" data-name="Trazado 726030" d="M92.069,226H47.4a.71.71,0,1,0,0,1.419H92.069a.71.71,0,1,0,0-1.419Z" transform="translate(-46.688 -226)"/>
          </g>
        </g>
        <g id="Grupo_959721" data-name="Grupo 959721" transform="translate(61.36 64.15)">
          <g id="Grupo_959720" data-name="Grupo 959720">
            <path id="Trazado_726031" data-name="Trazado 726031" d="M231.169,226h-1.791a.71.71,0,0,0,0,1.419h1.791a.218.218,0,0,1,.218.218v5.241a.218.218,0,0,1-.218.218h-1.96a.71.71,0,0,0,0,1.419h1.96a1.639,1.639,0,0,0,1.637-1.637v-5.241A1.639,1.639,0,0,0,231.169,226Z" transform="translate(-228.5 -226)"/>
          </g>
        </g>
        <g id="Grupo_959723" data-name="Grupo 959723" transform="translate(0 64.15)">
          <g id="Grupo_959722" data-name="Grupo 959722">
            <path id="Trazado_726032" data-name="Trazado 726032" d="M15.926,233.1h-1.96a.218.218,0,0,1-.218-.218v-5.241a.218.218,0,0,1,.218-.218H15.6a.71.71,0,1,0,0-1.419H13.966a1.639,1.639,0,0,0-1.637,1.637v5.241a1.639,1.639,0,0,0,1.637,1.637h1.96a.71.71,0,1,0,0-1.419Z" transform="translate(-12.329 -226)"/>
          </g>
        </g>
        <g id="Grupo_959725" data-name="Grupo 959725" transform="translate(9.416 33.352)">
          <g id="Grupo_959724" data-name="Grupo 959724">
            <path id="Trazado_726033" data-name="Trazado 726033" d="M91.626,117.5H46.21a.71.71,0,0,0,0,1.419H91.626a.71.71,0,1,0,0-1.419Z" transform="translate(-45.5 -117.5)"/>
          </g>
        </g>
      </g>
    </g>
  </g>
</svg>
