<svg xmlns="http://www.w3.org/2000/svg" width="136" height="136" viewBox="0 0 136 136">
  <g id="Grupo_960529" data-name="Grupo 960529" transform="translate(-1020 -882)">
    <rect id="Rectángulo_340402" data-name="Rectángulo 340402" width="136" height="136" transform="translate(1020 882)" fill="#badc61"/>
    <g id="reciclaje" transform="translate(1032 879)">
      <path id="Trazado_726175" data-name="Trazado 726175" d="M24,280H48.3v5.4H24Z" transform="translate(-6.65 -206.15)" fill="#2d85cc"/>
      <path id="Trazado_726176" data-name="Trazado 726176" d="M184,280h24.3v5.4H184Z" transform="translate(-139.65 -206.15)" fill="#8f9e46"/>
      <path id="Trazado_726177" data-name="Trazado 726177" d="M344,280h24.3v5.4H344Z" transform="translate(-272.65 -206.15)" fill="#f7b030"/>
      <path id="Trazado_726178" data-name="Trazado 726178" d="M46.95,184H25.35L24,200.2H48.3Z" transform="translate(-6.65 -126.35)" fill="#3397e8"/>
      <path id="Trazado_726179" data-name="Trazado 726179" d="M33.35,341.7h18.9L53.6,312H32Z" transform="translate(-13.3 -232.75)" fill="#3397e8"/>
      <path id="Trazado_726180" data-name="Trazado 726180" d="M193.35,341.7h18.9L213.6,312H192Z" transform="translate(-146.3 -232.75)" fill="#b1bd70"/>
      <path id="Trazado_726181" data-name="Trazado 726181" d="M353.35,341.7h18.9L373.6,312H352Z" transform="translate(-279.3 -232.75)" fill="#ffb632"/>
      <path id="Trazado_726182" data-name="Trazado 726182" d="M68.15,216H57.35L56,226.8H69.5Z" transform="translate(-33.25 -152.95)" fill="#2978b8"/>
      <path id="Trazado_726183" data-name="Trazado 726183" d="M206.95,184h-21.6L184,200.2h24.3Z" transform="translate(-139.65 -126.35)" fill="#b1bd70"/>
      <path id="Trazado_726184" data-name="Trazado 726184" d="M228.15,216h-10.8L216,226.8h13.5Z" transform="translate(-166.25 -152.95)" fill="#828c52"/>
      <path id="Trazado_726185" data-name="Trazado 726185" d="M366.95,184h-21.6L344,200.2h24.3Z" transform="translate(-272.65 -126.35)" fill="#ffb632"/>
      <path id="Trazado_726186" data-name="Trazado 726186" d="M388.15,216h-10.8L376,226.8h13.5Z" transform="translate(-299.25 -152.95)" fill="#e09f2c"/>
      <g id="Grupo_959788" data-name="Grupo 959788" transform="translate(25.295 89.762)">
        <ellipse id="Elipse_5744" data-name="Elipse 5744" cx="3.984" cy="4.316" rx="3.984" ry="4.316" transform="translate(54.443 0)" fill="#e9eef2"/>
        <ellipse id="Elipse_5745" data-name="Elipse 5745" cx="3.984" cy="4.316" rx="3.984" ry="4.316" transform="translate(27.221 0)" fill="#e9eef2"/>
        <ellipse id="Elipse_5746" data-name="Elipse 5746" cx="3.984" cy="4.316" rx="3.984" ry="4.316" transform="translate(0 0)" fill="#e9eef2"/>
      </g>
      <path id="Trazado_726187" data-name="Trazado 726187" d="M400,40h5.4v5.4H400Z" transform="translate(-319.2 -6.65)" fill="#2978b8"/>
      <path id="Trazado_726188" data-name="Trazado 726188" d="M390.893,90.3,389.4,89.55l-1.493.746A2.7,2.7,0,0,1,384,87.881V74.7a2.7,2.7,0,0,1,2.7-2.7h5.4a2.7,2.7,0,0,1,2.7,2.7V87.881a2.7,2.7,0,0,1-3.907,2.415Z" transform="translate(-305.9 -33.25)" fill="#dadcde"/>
      <path id="Trazado_726189" data-name="Trazado 726189" d="M384,104h10.8v6.75H384Z" transform="translate(-305.9 -59.85)" fill="#2978b8"/>
      <path id="Trazado_726190" data-name="Trazado 726190" d="M5.4,0a5.4,5.4,0,0,1,5.4,5.4H0A5.4,5.4,0,0,1,5.4,0Z" transform="translate(61.9 57.65) rotate(180)" fill="#eb423f"/>
      <path id="Trazado_726191" data-name="Trazado 726191" d="M229.4,88a5.4,5.4,0,0,1,5.4,5.4H224A5.4,5.4,0,0,1,229.4,88Z" transform="translate(-172.9 -46.55)" fill="#eb423f"/>
      <path id="Trazado_726192" data-name="Trazado 726192" d="M232,125.4l1.35-2.7V120h5.4v2.7l1.35,2.7Z" transform="translate(-179.55 -73.15)" fill="#dadcde"/>
      <path id="Trazado_726193" data-name="Trazado 726193" d="M48,104H64.2v13.5H48Z" transform="translate(-26.6 -59.85)" fill="#e09f2c"/>
      <path id="Trazado_726194" data-name="Trazado 726194" d="M80,104h5.4v5.4H80Z" transform="translate(-53.2 -59.85)" fill="#dadcde"/>
      <path id="Trazado_726195" data-name="Trazado 726195" d="M96.994,73.738h0l-1.35-16.2A1.35,1.35,0,0,0,94.3,56.3H89.892a4.056,4.056,0,0,0,.358-1.669V41.45a4.057,4.057,0,0,0-2.7-3.818V33.35A1.35,1.35,0,0,0,86.2,32H80.8a1.35,1.35,0,0,0-1.35,1.35v4.282a4.057,4.057,0,0,0-2.7,3.818V54.631a4.056,4.056,0,0,0,.358,1.669H72.7a1.35,1.35,0,0,0-1.345,1.238L70,73.738h0c0,.037-.006.074-.006.112,0-.038,0-.075-.006-.112h0l-1.35-16.2A1.35,1.35,0,0,0,67.3,56.3H61.9a6.714,6.714,0,0,0,1.354-4.05A1.35,1.35,0,0,0,61.9,50.9h-.516l-.834-1.669V48.2H61.9a1.35,1.35,0,0,0,1.35-1.35,6.761,6.761,0,0,0-5.4-6.614V38.75a1.35,1.35,0,0,0-2.7,0v1.486a6.761,6.761,0,0,0-5.4,6.614A1.35,1.35,0,0,0,51.1,48.2h1.35v1.031L51.616,50.9H51.1a1.35,1.35,0,0,0-1.35,1.35A6.714,6.714,0,0,0,51.1,56.3H45.7a1.35,1.35,0,0,0-1.345,1.238L43,73.738h0c0,.037-.006.074-.006.112,0-.038,0-.075-.006-.112h0l-1.35-16.2A1.35,1.35,0,0,0,40.3,56.3H38.95V44.15a1.342,1.342,0,0,0-.227-.749l0,0,0,0L33.323,35.3a1.35,1.35,0,1,0-2.246,1.5l4,6H25.249l3.745-3A1.35,1.35,0,0,0,27.306,37.7l-6.75,5.4a1.347,1.347,0,0,0-.506,1.054V56.3H18.7a1.35,1.35,0,0,0-1.345,1.238L16,73.738h0c0,.037-.006.074-.006.112v5.4a1.35,1.35,0,0,0,1.35,1.35h.06L18.7,109.011A1.35,1.35,0,0,0,20.05,110.3h18.9a1.35,1.35,0,0,0,1.349-1.289L41.59,80.6h.06A1.35,1.35,0,0,0,43,79.25a1.35,1.35,0,0,0,1.35,1.35h.06L45.7,109.011A1.35,1.35,0,0,0,47.05,110.3h18.9a1.35,1.35,0,0,0,1.349-1.289L68.59,80.6h.06A1.35,1.35,0,0,0,70,79.25a1.35,1.35,0,0,0,1.35,1.35h.06L72.7,109.011A1.35,1.35,0,0,0,74.05,110.3h18.9a1.35,1.35,0,0,0,1.349-1.289L95.59,80.6h.06A1.35,1.35,0,0,0,97,79.25v-5.4c0-.038,0-.075-.006-.112ZM82.15,34.7h2.7v2.7h-2.7Zm-2.7,6.75A1.352,1.352,0,0,1,80.8,40.1h5.4a1.352,1.352,0,0,1,1.35,1.35V42.8h-8.1Zm0,4.05h8.1v4.05h-8.1Zm0,6.75h8.1v2.381A1.35,1.35,0,0,1,85.6,55.839L84.1,55.093a1.349,1.349,0,0,0-1.207,0l-1.493.746a1.35,1.35,0,0,1-1.954-1.208ZM28.15,45.5h2.7v2.7h-2.7Zm-5.4,0h2.7v4.05A1.35,1.35,0,0,0,26.8,50.9h5.4a1.35,1.35,0,0,0,1.35-1.35V45.5h2.7V56.3H22.75ZM19.942,59H39.058l1.125,13.5H37.442l-1.2-9.617A1.35,1.35,0,0,0,34.9,61.7H24.1a1.35,1.35,0,0,0-1.34,1.183l-1.2,9.617h-2.74ZM34.721,72.5H24.279l1.012-8.1h8.417Zm2.939,35.1H21.34l-1.227-27H38.887ZM40.3,77.9H18.7V75.2H40.3ZM56.5,42.8a4.057,4.057,0,0,1,3.819,2.7H52.681A4.057,4.057,0,0,1,56.5,42.8Zm1.493,7.354.373.746H54.634l.373-.746a1.349,1.349,0,0,0,.143-.6V48.2h2.7v1.35a1.349,1.349,0,0,0,.143.6ZM52.681,53.6h7.637a4.05,4.05,0,0,1-7.637,0ZM46.942,59H66.058l1.125,13.5H64.442l-1.2-9.617A1.35,1.35,0,0,0,61.9,61.7H51.1a1.35,1.35,0,0,0-1.34,1.183l-1.2,9.617h-2.74ZM61.721,72.5H51.279l1.012-8.1h8.417Zm2.939,35.1H48.34l-1.227-27H65.887ZM67.3,77.9H45.7V75.2H67.3ZM73.942,59H93.058l1.125,13.5H91.442l-1.2-9.617A1.35,1.35,0,0,0,88.9,61.7H78.1a1.35,1.35,0,0,0-1.34,1.183l-1.2,9.617h-2.74ZM88.721,72.5H78.279l1.013-8.1h8.417Zm2.939,35.1H75.34l-1.227-27H92.887ZM94.3,77.9H72.7V75.2H94.3Z"/>
      <path id="Trazado_726196" data-name="Trazado 726196" d="M389.4,378.8a5.4,5.4,0,1,0-5.4-5.4A5.4,5.4,0,0,0,389.4,378.8Zm0-8.1a2.7,2.7,0,1,1-2.7,2.7A2.7,2.7,0,0,1,389.4,370.7Z" transform="translate(-305.9 -279.3)"/>
      <path id="Trazado_726197" data-name="Trazado 726197" d="M229.4,378.8a5.4,5.4,0,1,0-5.4-5.4A5.4,5.4,0,0,0,229.4,378.8Zm0-8.1a2.7,2.7,0,1,1-2.7,2.7A2.7,2.7,0,0,1,229.4,370.7Z" transform="translate(-172.9 -279.3)"/>
      <path id="Trazado_726198" data-name="Trazado 726198" d="M69.4,378.8a5.4,5.4,0,1,0-5.4-5.4,5.4,5.4,0,0,0,5.4,5.4Zm0-8.1a2.7,2.7,0,1,1-2.7,2.7A2.7,2.7,0,0,1,69.4,370.7Z" transform="translate(-39.9 -279.3)"/>
    </g>
  </g>
</svg>
