<svg xmlns="http://www.w3.org/2000/svg" width="100" height="100" viewBox="0 0 100 100">
  <g id="Grupo_960285" data-name="Grupo 960285" transform="translate(-1170 -997)">
    <circle id="Elipse_5731" data-name="Elipse 5731" cx="50" cy="50" r="50" transform="translate(1170 997)" fill="#0e494d"/>
    <g id="peligro-biologico" transform="translate(1193 992.929)">
      <g id="Grupo_959533" data-name="Grupo 959533" transform="translate(0.797 30.867)">
        <path id="Trazado_725935" data-name="Trazado 725935" d="M77.662,91.889,54.525,51.98l-3.43.83L27.893,93l1.591,2.756.089-.346,3.92,1.008h41.56A3.015,3.015,0,0,0,77.662,91.889Z" transform="translate(-25.731 -50.451)" fill="#aa9ea9"/>
        <path id="Trazado_725936" data-name="Trazado 725936" d="M15.2,79.009,37.324,40.85,36.309,39.1l-.015-.026a3.015,3.015,0,0,0-5.216,0L7.926,79.009a3.015,3.015,0,0,0,2.608,4.527H17.81A3.015,3.015,0,0,1,15.2,79.009Z" transform="translate(-7.515 -37.571)" fill="#9b8e99"/>
        <path id="Trazado_725937" data-name="Trazado 725937" d="M88.278,112.171,66.2,74.1a.343.343,0,0,0-.592,0L43.5,112.408a.294.294,0,0,0,.239.444H87.886A.453.453,0,0,0,88.278,112.171Z" transform="translate(-39.642 -70.07)" fill="#fee97d"/>
        <path id="Trazado_725938" data-name="Trazado 725938" d="M66.2,74.1a.343.343,0,0,0-.592,0L43.5,112.408a.294.294,0,0,0,.239.444h3.188a3,3,0,0,1,.406-1.344L67.611,76.522Z" transform="translate(-39.642 -70.07)" fill="#fedf30"/>
      </g>
      <g id="Grupo_959534" data-name="Grupo 959534" transform="translate(0 30.071)">
        <path id="Trazado_725939" data-name="Trazado 725939" d="M53.416,71.905,38.758,46.62a.8.8,0,1,0-1.377.8L52.04,72.7a2.219,2.219,0,0,1-1.92,3.332H3.816A2.219,2.219,0,0,1,1.9,72.7L25.048,32.769a2.219,2.219,0,0,1,3.84,0L35.68,44.485a.8.8,0,0,0,1.377-.8L30.265,31.97a3.81,3.81,0,0,0-6.593,0L.52,71.905a3.81,3.81,0,0,0,3.3,5.722h46.3a3.81,3.81,0,0,0,3.3-5.722Z" transform="translate(0 -30.071)"/>
        <path id="Trazado_725940" data-name="Trazado 725940" d="M49.335,164.17a.8.8,0,1,0-1.377-.8L31.331,192.052a.8.8,0,0,0,.688,1.195h45.72a.8.8,0,0,0,.688-1.195l-3.26-5.623a.8.8,0,0,0-1.377.8l2.567,4.428H33.4Z" transform="translate(-27.911 -148.874)"/>
        <path id="Trazado_725941" data-name="Trazado 725941" d="M209.986,62.045a.8.8,0,0,0-1.377,0l-4.532,7.817a.8.8,0,1,0,1.377.8L209.3,64.03l17.211,29.687a.8.8,0,0,0,1.377-.8Z" transform="translate(-182.329 -58.298)"/>
        <path id="Trazado_725942" data-name="Trazado 725942" d="M161.353,206.843a.8.8,0,1,0-.777-1.389,5.812,5.812,0,0,0-2.464,7.473,6.355,6.355,0,0,0-.474.847,5.818,5.818,0,0,0-4.787,7.32.8.8,0,0,0,1.534-.425,4.229,4.229,0,0,1,2.731-5.144,6.359,6.359,0,0,0,4.349,6.976l-.034.036a4.234,4.234,0,0,1-4.147,1.058.8.8,0,1,0-.44,1.53,5.826,5.826,0,0,0,5.707-1.457,5.886,5.886,0,0,0,.719-.864c.048,0,.1,0,.143,0,.091,0,.181,0,.271-.007a5.826,5.826,0,0,0,6.428,2.324.8.8,0,1,0-.44-1.53,4.235,4.235,0,0,1-4.147-1.058c-.023-.022-.044-.046-.066-.069a6.366,6.366,0,0,0,4.245-6.986,4.23,4.23,0,0,1,2.867,5.187.8.8,0,1,0,1.534.425,5.816,5.816,0,0,0-4.925-7.337,6.367,6.367,0,0,0-.467-.831,5.812,5.812,0,0,0-2.464-7.473.8.8,0,0,0-.777,1.389,4.228,4.228,0,0,1,2.036,4.736,6.347,6.347,0,0,0-8.191,0,4.228,4.228,0,0,1,2.036-4.736Zm-2.713,9.6a4.77,4.77,0,0,1,.135-1.123,4.228,4.228,0,0,1,3.607,5.782A4.78,4.78,0,0,1,158.64,216.444Zm5.923,4.631a4.228,4.228,0,0,1,3.49-5.744,4.769,4.769,0,0,1-3.49,5.744Zm-1.151-9.4a4.758,4.758,0,0,1,3.375,1.4,4.222,4.222,0,0,1-6.751,0A4.757,4.757,0,0,1,163.413,211.672Z" transform="translate(-136.444 -186.755)"/>
        <path id="Trazado_725943" data-name="Trazado 725943" d="M248.274,120.571v-.684a.8.8,0,0,0-1.591,0v.684a.8.8,0,1,0,1.591,0Z" transform="translate(-220.51 -109.646)"/>
        <path id="Trazado_725944" data-name="Trazado 725944" d="M80.636,405.483a.8.8,0,0,0,0,1.591h.882a.8.8,0,0,0,0-1.591Z" transform="translate(-71.369 -365.652)"/>
        <path id="Trazado_725945" data-name="Trazado 725945" d="M408.118,407.074a.8.8,0,1,0,0-1.591h-.882a.8.8,0,0,0,0,1.591Z" transform="translate(-363.317 -365.652)"/>
      </g>
    </g>
  </g>
</svg>
