<svg xmlns="http://www.w3.org/2000/svg" xmlns:xlink="http://www.w3.org/1999/xlink" width="138" height="138" viewBox="0 0 138 138">
  <defs>
    <filter id="Elipse_5735" x="0" y="0" width="138" height="138" filterUnits="userSpaceOnUse">
      <feOffset dy="3" input="SourceAlpha"/>
      <feGaussianBlur stdDeviation="3" result="blur"/>
      <feFlood flood-opacity="0.161"/>
      <feComposite operator="in" in2="blur"/>
      <feComposite in="SourceGraphic"/>
    </filter>
  </defs>
  <g id="Grupo_959758" data-name="Grupo 959758" transform="translate(-1083 -648)">
    <g transform="matrix(1, 0, 0, 1, 1083, 648)" filter="url(#Elipse_5735)">
      <circle id="Elipse_5735-2" data-name="Elipse 5735" cx="60" cy="60" r="60" transform="translate(9 6)" fill="#badc61"/>
    </g>
    <g id="normas" transform="translate(1115 636)">
      <path id="Trazado_726034" data-name="Trazado 726034" d="M289.748,100.5a2.168,2.168,0,0,1,2.168,2.168v43.5a5.781,5.781,0,0,1-5.781,5.781H258.891A2.891,2.891,0,0,1,256,149.063V100.5Z" transform="translate(-219 -44.912)" fill="#ccad76"/>
      <path id="Trazado_726035" data-name="Trazado 726035" d="M444.617,102.668v43.5a5.782,5.782,0,0,1-5.781,5.781H434.5a5.782,5.782,0,0,0,5.781-5.781v-43.5a2.169,2.169,0,0,0-2.168-2.168h4.336A2.169,2.169,0,0,1,444.617,102.668Z" transform="translate(-371.701 -44.912)" fill="#b5884d"/>
      <path id="Trazado_726036" data-name="Trazado 726036" d="M9.668,100.5A2.168,2.168,0,0,0,7.5,102.668v43.5a5.781,5.781,0,0,0,5.781,5.781H40.525a2.891,2.891,0,0,0,2.891-2.891V100.5Z" transform="translate(-6.416 -44.912)" fill="#ccad76"/>
      <path id="Trazado_726037" data-name="Trazado 726037" d="M66.912,121.964H39.668A2.168,2.168,0,0,1,37.5,119.8V72.668A2.168,2.168,0,0,1,39.668,70.5H66.912a2.168,2.168,0,0,1,2.168,2.168V119.8A2.168,2.168,0,0,1,66.912,121.964Z" transform="translate(-32.08 -19.248)" fill="#f2f2f2"/>
      <path id="Trazado_726038" data-name="Trazado 726038" d="M285.412,121.962H258.168A2.168,2.168,0,0,1,256,119.794V72.666a2.168,2.168,0,0,1,2.168-2.168h27.244a2.168,2.168,0,0,1,2.168,2.168v47.128A2.168,2.168,0,0,1,285.412,121.962Z" transform="translate(-219 -19.246)" fill="#fff"/>
      <path id="Trazado_726039" data-name="Trazado 726039" d="M429.5,121.961h4.336A2.168,2.168,0,0,0,436,119.793V72.666a2.169,2.169,0,0,0-2.168-2.168H429.5a2.169,2.169,0,0,1,2.168,2.168v47.127A2.168,2.168,0,0,1,429.5,121.961Z" transform="translate(-367.424 -19.246)" fill="#e8e8e8"/>
      <path id="Trazado_726040" data-name="Trazado 726040" d="M89.25,68.041l-2.3-2.009a.723.723,0,0,0-.95,0l-2.3,2.009a.723.723,0,0,1-1.2-.544V56.223a.723.723,0,0,1,.723-.723h6.5a.723.723,0,0,1,.723.723V67.5A.723.723,0,0,1,89.25,68.041Z" transform="translate(-70.575 -6.416)" fill="#f7aa74"/>
      <path id="Trazado_726041" data-name="Trazado 726041" d="M333.2,176.74l1.635-1.635a2.168,2.168,0,1,0-3.066-3.066l-1.635,1.635a1.445,1.445,0,0,1-2.044,0l-1.737-1.737A2.168,2.168,0,0,0,323.29,175l1.737,1.737a1.445,1.445,0,0,1,0,2.044l-1.737,1.737a2.168,2.168,0,0,0,3.066,3.066l1.737-1.737a1.445,1.445,0,0,1,2.044,0l1.635,1.635a2.168,2.168,0,0,0,3.066-3.066l-1.635-1.635A1.445,1.445,0,0,1,333.2,176.74Z" transform="translate(-276.022 -105.481)" fill="#f49595"/>
      <path id="Trazado_726042" data-name="Trazado 726042" d="M90.446,175.875l2.351,2.351a.723.723,0,0,0,1.022,0l6.643-6.643a2.168,2.168,0,1,1,3.066,3.066l-8.687,8.687a2.168,2.168,0,0,1-3.066,0l-4.395-4.395a2.168,2.168,0,1,1,3.066-3.066Z" transform="translate(-74.207 -105.178)" fill="#90d399"/>
      <path id="Trazado_726043" data-name="Trazado 726043" d="M72.916,94.395A1.084,1.084,0,0,0,74,93.311V57.756A3.256,3.256,0,0,0,70.748,54.5H69.664V53.42a3.256,3.256,0,0,0-3.252-3.252H39.168A3.239,3.239,0,0,0,37,51a3.239,3.239,0,0,0-2.168-.831h-9.9a1.084,1.084,0,1,0,0,2.168h9.9a1.085,1.085,0,0,1,1.084,1.084v2.818H35.41a1.084,1.084,0,1,0,0,2.168h.506v5.637h-.65a1.084,1.084,0,1,0,0,2.168h.65v5.781h-.65a1.084,1.084,0,1,0,0,2.168h.65v5.781h-.65a1.084,1.084,0,1,0,0,2.168h.65v5.781h-.65a1.084,1.084,0,1,0,0,2.168h.65V95.84h-.65a1.084,1.084,0,1,0,0,2.168h.65v2.54a1.085,1.085,0,0,1-1.084,1.084H7.588A1.085,1.085,0,0,1,6.5,100.548V53.42a1.085,1.085,0,0,1,1.084-1.084H10.84V61.08A1.788,1.788,0,0,0,11.9,62.725a1.818,1.818,0,0,0,.753.165,1.792,1.792,0,0,0,1.182-.449l2.064-1.8,2.064,1.8a1.807,1.807,0,0,0,2.995-1.361V49.807A1.809,1.809,0,0,0,19.151,48h-6.5a1.809,1.809,0,0,0-1.807,1.807v.361H7.588A3.256,3.256,0,0,0,4.336,53.42V54.5H3.252A3.256,3.256,0,0,0,0,57.756v43.5a6.873,6.873,0,0,0,6.865,6.865H34.109A3.963,3.963,0,0,0,37,106.874a3.963,3.963,0,0,0,2.891,1.251H67.135A6.873,6.873,0,0,0,74,101.26V98.369a1.084,1.084,0,0,0-2.168,0v2.891a4.7,4.7,0,0,1-4.7,4.7H39.891a1.809,1.809,0,0,1-1.807-1.807v-.537a3.235,3.235,0,0,0,1.084.186H66.412a3.256,3.256,0,0,0,3.252-3.252V56.672h1.084a1.085,1.085,0,0,1,1.084,1.084V93.311A1.084,1.084,0,0,0,72.916,94.395ZM13.008,50.168h5.781V60.285l-1.7-1.486a1.813,1.813,0,0,0-2.376,0l-1.7,1.486Zm21.1,55.789H6.865a4.7,4.7,0,0,1-4.7-4.7v-43.5a1.085,1.085,0,0,1,1.084-1.084H4.336v43.876A3.256,3.256,0,0,0,7.588,103.8H34.832a3.238,3.238,0,0,0,1.084-.186v.537A1.809,1.809,0,0,1,34.109,105.957Zm33.387-5.41a1.085,1.085,0,0,1-1.084,1.084H39.168a1.085,1.085,0,0,1-1.084-1.084v-2.54h.506a1.084,1.084,0,1,0,0-2.168h-.506V90.059h.506a1.084,1.084,0,0,0,0-2.168h-.506V82.109h.506a1.084,1.084,0,0,0,0-2.168h-.506V74.16h.506a1.084,1.084,0,0,0,0-2.168h-.506V66.211h.506a1.084,1.084,0,0,0,0-2.168h-.506V58.406h.65a1.084,1.084,0,0,0,0-2.168h-.65V53.42a1.085,1.085,0,0,1,1.084-1.084H66.412A1.085,1.085,0,0,1,67.5,53.42Z"/>
      <path id="Trazado_726044" data-name="Trazado 726044" d="M316.116,173.349a3.252,3.252,0,0,0,4.6,4.6l1.737-1.737a.361.361,0,0,1,.511,0l1.635,1.635a3.252,3.252,0,0,0,4.6-4.6l-1.635-1.635a.362.362,0,0,1,0-.511l1.635-1.635a3.252,3.252,0,0,0-4.6-4.6l-1.635,1.635a.362.362,0,0,1-.511,0l-1.737-1.737a3.252,3.252,0,0,0-4.6,4.6l1.737,1.737a.362.362,0,0,1,0,.511Zm3.27-3.782-1.737-1.737a1.084,1.084,0,0,1,1.533-1.533l1.737,1.737a2.532,2.532,0,0,0,3.577,0l1.635-1.635a1.084,1.084,0,0,1,1.533,1.533l-1.635,1.635a2.532,2.532,0,0,0,0,3.577l1.635,1.635a1.084,1.084,0,0,1-1.533,1.533l-1.635-1.635a2.532,2.532,0,0,0-3.577,0l-1.737,1.737a1.084,1.084,0,1,1-1.533-1.533l1.737-1.737A2.532,2.532,0,0,0,319.387,169.568Z" transform="translate(-269.614 -99.075)"/>
      <path id="Trazado_726045" data-name="Trazado 726045" d="M97.888,164.41a3.256,3.256,0,0,0-4.6,0L86.9,170.8l-2.1-2.1a3.252,3.252,0,1,0-4.6,4.6L84.6,177.7a3.256,3.256,0,0,0,4.6,0l8.687-8.687A3.256,3.256,0,0,0,97.888,164.41Zm-1.533,3.066-8.687,8.687a1.084,1.084,0,0,1-1.533,0l-4.394-4.394a1.084,1.084,0,1,1,1.533-1.533l2.351,2.351a1.807,1.807,0,0,0,2.555,0l6.643-6.643a1.084,1.084,0,1,1,1.533,1.533Z" transform="translate(-67.801 -98.772)"/>
      <path id="Trazado_726046" data-name="Trazado 726046" d="M106.121,295.084A1.084,1.084,0,0,0,105.037,294H90.584a1.084,1.084,0,0,0,0,2.168h14.453A1.084,1.084,0,0,0,106.121,295.084Z" transform="translate(-76.564 -210.445)"/>
      <path id="Trazado_726047" data-name="Trazado 726047" d="M110.584,324a1.084,1.084,0,0,0,0,2.168h8.672a1.084,1.084,0,0,0,0-2.168Z" transform="translate(-93.674 -236.109)"/>
      <path id="Trazado_726048" data-name="Trazado 726048" d="M325.037,294H310.584a1.084,1.084,0,0,0,0,2.168h14.453a1.084,1.084,0,0,0,0-2.168Z" transform="translate(-264.768 -210.445)"/>
      <path id="Trazado_726049" data-name="Trazado 726049" d="M339.256,324h-8.672a1.084,1.084,0,0,0,0,2.168h8.672a1.084,1.084,0,0,0,0-2.168Z" transform="translate(-281.877 -236.109)"/>
    </g>
  </g>
</svg>
