<svg xmlns="http://www.w3.org/2000/svg" xmlns:xlink="http://www.w3.org/1999/xlink" width="138" height="138" viewBox="0 0 138 138">
  <defs>
    <filter id="Elipse_5736" x="0" y="0" width="138" height="138" filterUnits="userSpaceOnUse">
      <feOffset dy="3" input="SourceAlpha"/>
      <feGaussianBlur stdDeviation="3" result="blur"/>
      <feFlood flood-opacity="0.161"/>
      <feComposite operator="in" in2="blur"/>
      <feComposite in="SourceGraphic"/>
    </filter>
  </defs>
  <g id="Grupo_960510" data-name="Grupo 960510" transform="translate(3628.593 11055)">
    <g transform="matrix(1, 0, 0, 1, -3628.59, -11055)" filter="url(#Elipse_5736)">
      <circle id="Elipse_5736-2" data-name="Elipse 5736" cx="60" cy="60" r="60" transform="translate(9 6)" fill="#badc61"/>
    </g>
    <g id="peligro-biologico" transform="translate(-3598.593 -11053.072)">
      <g id="Grupo_959727" data-name="Grupo 959727" transform="translate(1.151 31.22)">
        <path id="Trazado_726050" data-name="Trazado 726050" d="M99.756,109.605,66.348,51.98l-4.953,1.2-33.5,58.027,2.3,3.98.128-.5,5.661,1.455H95.99A4.353,4.353,0,0,0,99.756,109.605Z" transform="translate(-24.771 -49.773)" fill="#aa9ea9"/>
        <path id="Trazado_726051" data-name="Trazado 726051" d="M18.614,97.4l31.943-55.1-1.465-2.527-.022-.038a4.353,4.353,0,0,0-7.532,0L8.109,97.4a4.353,4.353,0,0,0,3.766,6.536H22.38A4.353,4.353,0,0,1,18.614,97.4Z" transform="translate(-7.515 -37.571)" fill="#9b8e99"/>
        <path id="Trazado_726052" data-name="Trazado 726052" d="M108.177,129.149,76.3,74.172a.5.5,0,0,0-.855,0L43.513,129.49a.425.425,0,0,0,.346.641h63.752A.654.654,0,0,0,108.177,129.149Z" transform="translate(-37.949 -68.358)" fill="#fee97d"/>
        <path id="Trazado_726053" data-name="Trazado 726053" d="M76.3,74.172a.5.5,0,0,0-.855,0L43.513,129.49a.425.425,0,0,0,.346.641h4.6a4.33,4.33,0,0,1,.586-1.94L78.335,77.674Z" transform="translate(-37.949 -68.358)" fill="#fedf30"/>
      </g>
      <g id="Grupo_959728" data-name="Grupo 959728" transform="translate(0 30.071)">
        <path id="Trazado_726054" data-name="Trazado 726054" d="M77.13,90.477,55.964,53.967a1.149,1.149,0,1,0-1.988,1.153l21.166,36.51A3.2,3.2,0,0,1,72.37,96.44H5.511a3.2,3.2,0,0,1-2.772-4.811l33.43-57.663a3.2,3.2,0,0,1,5.544,0L51.52,50.883a1.149,1.149,0,1,0,1.988-1.153L43.7,32.814a5.5,5.5,0,0,0-9.52,0L.751,90.477a5.5,5.5,0,0,0,4.76,8.262H72.37a5.5,5.5,0,0,0,4.76-8.262Z" transform="translate(0 -30.071)"/>
        <path id="Trazado_726055" data-name="Trazado 726055" d="M57.375,164.7a1.149,1.149,0,0,0-1.988-1.153L31.379,204.96a1.149,1.149,0,0,0,.994,1.725H98.389a1.149,1.149,0,0,0,.994-1.725l-4.707-8.119a1.149,1.149,0,1,0-1.988,1.153l3.707,6.394H34.367Z" transform="translate(-26.44 -142.614)"/>
        <path id="Trazado_726056" data-name="Trazado 726056" d="M212.657,62.221a1.149,1.149,0,0,0-1.988,0l-6.543,11.287a1.149,1.149,0,1,0,1.988,1.153l5.549-9.572,24.851,42.866A1.149,1.149,0,0,0,238.5,106.8Z" transform="translate(-172.722 -56.81)"/>
        <path id="Trazado_726057" data-name="Trazado 726057" d="M165.222,207.5A1.149,1.149,0,1,0,164.1,205.5a8.392,8.392,0,0,0-3.558,10.791,9.179,9.179,0,0,0-.685,1.224,8.4,8.4,0,0,0-6.912,10.57,1.149,1.149,0,0,0,2.214-.614,6.106,6.106,0,0,1,3.944-7.427,9.182,9.182,0,0,0,6.279,10.073l-.049.051a6.114,6.114,0,0,1-5.988,1.528,1.149,1.149,0,1,0-.635,2.208,8.413,8.413,0,0,0,8.24-2.1,8.5,8.5,0,0,0,1.039-1.247c.069,0,.137.005.207.005.131,0,.262,0,.392-.01a8.413,8.413,0,0,0,9.282,3.355,1.149,1.149,0,0,0-.635-2.209,6.115,6.115,0,0,1-5.988-1.528c-.033-.032-.064-.066-.1-.1a9.192,9.192,0,0,0,6.129-10.088,6.108,6.108,0,0,1,4.14,7.49,1.149,1.149,0,1,0,2.214.614,8.4,8.4,0,0,0-7.111-10.594,9.2,9.2,0,0,0-.674-1.2,8.392,8.392,0,0,0-3.558-10.791,1.149,1.149,0,0,0-1.122,2.005,6.1,6.1,0,0,1,2.94,6.838,9.164,9.164,0,0,0-11.827,0,6.105,6.105,0,0,1,2.939-6.838ZM161.3,221.368a6.888,6.888,0,0,1,.194-1.621,6.105,6.105,0,0,1,5.208,8.348A6.9,6.9,0,0,1,161.3,221.368Zm8.552,6.687a6.105,6.105,0,0,1,5.039-8.293,6.885,6.885,0,0,1-5.039,8.293ZM168.2,214.477a6.87,6.87,0,0,1,4.874,2.024,6.1,6.1,0,0,1-9.748,0A6.869,6.869,0,0,1,168.2,214.477Z" transform="translate(-129.255 -178.499)"/>
        <path id="Trazado_726058" data-name="Trazado 726058" d="M248.981,121.228v-.988a1.149,1.149,0,0,0-2.3,0v.988a1.149,1.149,0,0,0,2.3,0Z" transform="translate(-208.891 -105.453)"/>
        <path id="Trazado_726059" data-name="Trazado 726059" d="M80.989,405.483a1.149,1.149,0,1,0,0,2.3h1.274a1.149,1.149,0,0,0,0-2.3Z" transform="translate(-67.609 -347.97)"/>
        <path id="Trazado_726060" data-name="Trazado 726060" d="M408.863,407.781a1.149,1.149,0,1,0,0-2.3h-1.274a1.149,1.149,0,0,0,0,2.3Z" transform="translate(-344.174 -347.97)"/>
      </g>
    </g>
  </g>
</svg>
