<svg xmlns="http://www.w3.org/2000/svg" xmlns:xlink="http://www.w3.org/1999/xlink" width="138" height="138" viewBox="0 0 138 138">
  <defs>
    <filter id="Elipse_5737" x="0" y="0" width="138" height="138" filterUnits="userSpaceOnUse">
      <feOffset dy="3" input="SourceAlpha"/>
      <feGaussianBlur stdDeviation="3" result="blur"/>
      <feFlood flood-opacity="0.161"/>
      <feComposite operator="in" in2="blur"/>
      <feComposite in="SourceGraphic"/>
    </filter>
  </defs>
  <g id="Grupo_959765" data-name="Grupo 959765" transform="translate(3273 11090)">
    <g transform="matrix(1, 0, 0, 1, -3273, -11090)" filter="url(#Elipse_5737)">
      <circle id="Elipse_5737-2" data-name="Elipse 5737" cx="60" cy="60" r="60" transform="translate(9 6)" fill="#badc61"/>
    </g>
    <g id="organigrama" transform="translate(-3241.247 -11060.334)">
      <g id="Grupo_959731" data-name="Grupo 959731" transform="translate(2.124 1.06)">
        <g id="Grupo_959730" data-name="Grupo 959730" transform="translate(0)">
          <path id="Trazado_726061" data-name="Trazado 726061" d="M17.048,219.458H9.871a1.308,1.308,0,0,1-1.308-1.308V206.132a1.308,1.308,0,0,1,1.308-1.308h7.177a1.308,1.308,0,0,1,1.308,1.308V218.15A1.308,1.308,0,0,1,17.048,219.458Z" transform="translate(-8.563 -176.938)" fill="#ea9a98"/>
          <path id="Trazado_726062" data-name="Trazado 726062" d="M12.676,216.86a1.308,1.308,0,0,1-1.308-1.308V204.825h-1.5a1.308,1.308,0,0,0-1.308,1.308v12.018a1.308,1.308,0,0,0,1.308,1.308h7.177a1.308,1.308,0,0,0,1.308-1.308V216.86Z" transform="translate(-8.563 -176.939)" fill="#e5827f"/>
          <path id="Trazado_726063" data-name="Trazado 726063" d="M167.669,37.985H149.956a1.991,1.991,0,0,1-1.991-1.991V9.491A1.991,1.991,0,0,1,149.956,7.5h17.713a1.991,1.991,0,0,1,1.991,1.991v26.5A1.991,1.991,0,0,1,167.669,37.985Z" transform="translate(-128.265 -7.5)" fill="#cfeffc"/>
          <path id="Trazado_726064" data-name="Trazado 726064" d="M167.669,289.988H149.956a1.991,1.991,0,0,0-1.991,1.991v26.5a1.991,1.991,0,0,0,1.991,1.991h17.713a1.991,1.991,0,0,0,1.991-1.991v-26.5A1.991,1.991,0,0,0,167.669,289.988Z" transform="translate(-128.265 -250.067)" fill="#cfeffc"/>
          <path id="Trazado_726065" data-name="Trazado 726065" d="M155.871,34.028a1.991,1.991,0,0,1-1.991-1.991V7.5h-3.923a1.991,1.991,0,0,0-1.991,1.991v26.5a1.991,1.991,0,0,0,1.991,1.991h17.713a1.991,1.991,0,0,0,1.991-1.991V34.028Z" transform="translate(-128.265 -7.5)" fill="#a9e4f9"/>
          <path id="Trazado_726066" data-name="Trazado 726066" d="M155.871,316.516a1.991,1.991,0,0,1-1.991-1.991V289.988h-3.923a1.991,1.991,0,0,0-1.991,1.991v26.5a1.991,1.991,0,0,0,1.991,1.991h17.713a1.991,1.991,0,0,0,1.991-1.991v-1.966h-13.79Z" transform="translate(-128.265 -250.067)" fill="#a9e4f9"/>
          <path id="Trazado_726067" data-name="Trazado 726067" d="M438.11,19.39h-8.169a1.361,1.361,0,0,1-1.361-1.361V9.861A1.361,1.361,0,0,1,429.941,8.5h8.169a1.361,1.361,0,0,1,1.361,1.361V18.03A1.361,1.361,0,0,1,438.11,19.39Z" transform="translate(-369.224 -8.359)" fill="#fbe88c"/>
          <path id="Trazado_726068" data-name="Trazado 726068" d="M438.11,145.156h-8.169a1.361,1.361,0,0,0-1.361,1.361v8.169a1.361,1.361,0,0,0,1.361,1.361h8.169a1.361,1.361,0,0,0,1.361-1.361v-8.169A1.361,1.361,0,0,0,438.11,145.156Z" transform="translate(-369.224 -125.703)" fill="#fbe88c"/>
          <path id="Trazado_726069" data-name="Trazado 726069" d="M433.487,16.932a1.361,1.361,0,0,1-1.361-1.361V8.5h-2.186a1.361,1.361,0,0,0-1.361,1.361V18.03a1.361,1.361,0,0,0,1.361,1.361h8.169a1.361,1.361,0,0,0,1.361-1.361v-1.1Z" transform="translate(-369.224 -8.359)" fill="#fbe372"/>
          <path id="Trazado_726070" data-name="Trazado 726070" d="M433.487,153.588a1.361,1.361,0,0,1-1.361-1.361v-7.072h-2.186a1.361,1.361,0,0,0-1.361,1.361v8.169a1.361,1.361,0,0,0,1.361,1.361h8.169a1.361,1.361,0,0,0,1.361-1.361v-1.1Z" transform="translate(-369.224 -125.703)" fill="#fbe372"/>
          <path id="Trazado_726071" data-name="Trazado 726071" d="M438.11,429.644h-8.169A1.361,1.361,0,0,0,428.58,431v8.169a1.361,1.361,0,0,0,1.361,1.361h8.169a1.361,1.361,0,0,0,1.361-1.361V431A1.361,1.361,0,0,0,438.11,429.644Z" transform="translate(-369.224 -369.987)" fill="#b8de9c"/>
          <path id="Trazado_726072" data-name="Trazado 726072" d="M438.11,303.877h-8.169a1.361,1.361,0,0,1-1.361-1.361v-8.169a1.361,1.361,0,0,1,1.361-1.361h8.169a1.361,1.361,0,0,1,1.361,1.361v8.169A1.361,1.361,0,0,1,438.11,303.877Z" transform="translate(-369.224 -252.642)" fill="#b8de9c"/>
          <g id="Grupo_959729" data-name="Grupo 959729" transform="translate(59.356 40.345)">
            <path id="Trazado_726073" data-name="Trazado 726073" d="M433.162,438.26A1.361,1.361,0,0,1,431.8,436.9v-7.254h-1.86a1.361,1.361,0,0,0-1.361,1.361v8.169a1.361,1.361,0,0,0,1.361,1.361h8.169a1.361,1.361,0,0,0,1.361-1.361v-.914h-6.308Z" transform="translate(-428.58 -410.333)" fill="#a6d786"/>
            <path id="Trazado_726074" data-name="Trazado 726074" d="M433.162,301.6a1.361,1.361,0,0,1-1.361-1.361v-7.254h-1.86a1.361,1.361,0,0,0-1.361,1.361v8.169a1.361,1.361,0,0,0,1.361,1.361h8.169a1.361,1.361,0,0,0,1.361-1.361V301.6Z" transform="translate(-428.58 -292.988)" fill="#a6d786"/>
          </g>
        </g>
      </g>
      <path id="Trazado_726075" data-name="Trazado 726075" d="M62.841,13.151H71.01a2.423,2.423,0,0,0,2.421-2.421V2.562A2.423,2.423,0,0,0,71.01.141H62.841A2.423,2.423,0,0,0,60.42,2.562V5.586H51.765a1.06,1.06,0,0,0-1.06,1.06v8.6H44.579V3.051A3.055,3.055,0,0,0,41.528,0H23.815a3.055,3.055,0,0,0-3.051,3.051V15.243H17.9a2.106,2.106,0,0,0-2.1,2.1v18H12.977v-5.09a2.371,2.371,0,0,0-2.368-2.368H3.432a2.371,2.371,0,0,0-2.368,2.368V42.272A2.371,2.371,0,0,0,3.432,44.64h7.177a2.371,2.371,0,0,0,2.368-2.368V37.464h2.818V55.179a2.106,2.106,0,0,0,2.1,2.1h2.866V69.475a3.055,3.055,0,0,0,3.051,3.051H41.528a3.055,3.055,0,0,0,3.051-3.051v-4.6a1.06,1.06,0,1,0-2.12,0v4.6a.932.932,0,0,1-.931.931H23.815a.932.932,0,0,1-.931-.931v-26.5a.932.932,0,0,1,.931-.931H41.528a.932.932,0,0,1,.931.931V60.355a1.06,1.06,0,1,0,2.12,0V57.566h6.126v8.6a1.06,1.06,0,0,0,1.06,1.06h8.655v3.024a2.423,2.423,0,0,0,2.421,2.421H71.01a2.423,2.423,0,0,0,2.421-2.421V62.078a2.423,2.423,0,0,0-2.421-2.421H69.167a1.06,1.06,0,0,0,0,2.12H71.01a.3.3,0,0,1,.3.3v8.169a.3.3,0,0,1-.3.3H62.841a.3.3,0,0,1-.3-.3V62.078a.3.3,0,0,1,.3-.3h1.806a1.06,1.06,0,0,0,0-2.12H62.841a2.423,2.423,0,0,0-2.421,2.421V65.1h-7.6V47.91h7.6v3.024a2.423,2.423,0,0,0,2.421,2.421H71.01a2.423,2.423,0,0,0,2.421-2.421V42.765a2.423,2.423,0,0,0-2.421-2.421H62.841a2.423,2.423,0,0,0-2.421,2.421V45.79H51.765a1.06,1.06,0,0,0-1.06,1.06v8.6H44.579V42.972a3.054,3.054,0,0,0-3.051-3.051H23.815a3.054,3.054,0,0,0-3.051,3.051V55.163h-2.85v-37.8h2.85v4.214a1.06,1.06,0,1,0,2.12,0V3.051a.932.932,0,0,1,.931-.931H41.528a.932.932,0,0,1,.931.931v26.5a.932.932,0,0,1-.931.931H23.815a.932.932,0,0,1-.931-.931V26.1a1.06,1.06,0,1,0-2.12,0v3.457A3.054,3.054,0,0,0,23.815,32.6H41.528a3.054,3.054,0,0,0,3.051-3.051V17.362h6.126v8.6a1.06,1.06,0,0,0,1.06,1.06h8.655v3.025a2.423,2.423,0,0,0,2.421,2.421H71.01a2.423,2.423,0,0,0,2.421-2.421V21.874a2.423,2.423,0,0,0-2.421-2.421H62.841a2.423,2.423,0,0,0-2.421,2.421V24.9h-7.6V7.706h7.6v3.025a2.423,2.423,0,0,0,2.42,2.421ZM10.857,42.272a.249.249,0,0,1-.248.248H3.432a.249.249,0,0,1-.248-.248V30.254a.249.249,0,0,1,.248-.248h7.177a.249.249,0,0,1,.248.248Zm51.683.494a.3.3,0,0,1,.3-.3H71.01a.3.3,0,0,1,.3.3v8.169a.3.3,0,0,1-.3.3H62.841a.3.3,0,0,1-.3-.3Zm0-20.891a.3.3,0,0,1,.3-.3H71.01a.3.3,0,0,1,.3.3v8.169a.3.3,0,0,1-.3.3H62.841a.3.3,0,0,1-.3-.3Zm0-19.312a.3.3,0,0,1,.3-.3H71.01a.3.3,0,0,1,.3.3v8.169a.3.3,0,0,1-.3.3H62.841a.3.3,0,0,1-.3-.3Z"/>
    </g>
  </g>
</svg>
