<svg xmlns="http://www.w3.org/2000/svg" xmlns:xlink="http://www.w3.org/1999/xlink" width="138" height="138" viewBox="0 0 138 138">
  <defs>
    <filter id="Elipse_5738" x="0" y="0" width="138" height="138" filterUnits="userSpaceOnUse">
      <feOffset dy="3" input="SourceAlpha"/>
      <feGaussianBlur stdDeviation="3" result="blur"/>
      <feFlood flood-opacity="0.161"/>
      <feComposite operator="in" in2="blur"/>
      <feComposite in="SourceGraphic"/>
    </filter>
  </defs>
  <g id="Grupo_959767" data-name="Grupo 959767" transform="translate(2917 11090)">
    <g transform="matrix(1, 0, 0, 1, -2917, -11090)" filter="url(#Elipse_5738)">
      <circle id="Elipse_5738-2" data-name="Elipse 5738" cx="60" cy="60" r="60" transform="translate(9 6)" fill="#badc61"/>
    </g>
    <g id="nuclear" transform="translate(-2874 -11062)">
      <path id="Trazado_726076" data-name="Trazado 726076" d="M28.523,65l2.387,34.17a2.256,2.256,0,0,0,2.249,2.075h.462l1.541,15.37a2.256,2.256,0,0,0,2.249,2.075H63.846a2.256,2.256,0,0,0,2.249-2.075l1.54-15.37H68.1a2.256,2.256,0,0,0,2.249-2.075L72.733,65Zm0,0" transform="translate(-24.234 -55.225)" fill="#ff5368"/>
      <path id="Trazado_726077" data-name="Trazado 726077" d="M81.414,82.5a1.128,1.128,0,0,0-1.124,1.037l-1.9,28.064c-.09,0-35.21,0-35.3,0l.09,1.124.106,1.308a2.255,2.255,0,0,0,2.245,2.075H75.547l-1.4,12.934c-.09,0-26.707,0-26.8,0,.186,2.3.056,3.373,1.2,4.132l.5,6.2a2.255,2.255,0,0,0,2.248,2.075H74.719a2.256,2.256,0,0,0,2.249-2.075l.5-6.2a2.267,2.267,0,0,0,1.005-1.7l1.6-15.37h.4a2.256,2.256,0,0,0,2.249-2.075L84.9,82.5c-.091-.008-3.394,0-3.485,0Zm0,0" transform="translate(-36.612 -70.089)" fill="#d9435b"/>
      <path id="Trazado_726078" data-name="Trazado 726078" d="M103.77,444.5a4.512,4.512,0,1,0,4.512,4.512A4.517,4.517,0,0,0,103.77,444.5Zm0,0" transform="translate(-84.33 -377.651)" fill="#4d5967"/>
      <path id="Trazado_726079" data-name="Trazado 726079" d="M196.27,444.5a4.512,4.512,0,1,0,4.512,4.512A4.517,4.517,0,0,0,196.27,444.5Zm0,0" transform="translate(-162.919 -377.651)" fill="#4d5967"/>
      <path id="Trazado_726080" data-name="Trazado 726080" d="M55.777,15.4h-.3V12.012A4.512,4.512,0,0,0,50.964,7.5H14.871a4.511,4.511,0,0,0-4.512,4.512V15.4h-.6A2.256,2.256,0,0,0,7.5,17.651v3.384a2.256,2.256,0,0,0,2.256,2.256H55.777a2.256,2.256,0,0,0,2.256-2.256V17.651A2.256,2.256,0,0,0,55.777,15.4Zm0,0" transform="translate(-6.372 -6.372)" fill="#6c7a88"/>
      <path id="Trazado_726081" data-name="Trazado 726081" d="M55.777,15.4h-.3V12.012A4.511,4.511,0,0,0,50.964,7.5v3.384H10.5a4.52,4.52,0,0,0-.142,1.128V15.4H53.521v3.384H7.5v2.256a2.256,2.256,0,0,0,2.256,2.256H55.777a2.256,2.256,0,0,0,2.256-2.256V17.651A2.256,2.256,0,0,0,55.777,15.4Zm0,0" transform="translate(-6.372 -6.372)" fill="#4d5967"/>
      <path id="Trazado_726082" data-name="Trazado 726082" d="M124.014,468.128A1.128,1.128,0,1,1,122.886,467,1.128,1.128,0,0,1,124.014,468.128Zm0,0" transform="translate(-103.447 -396.768)"/>
      <path id="Trazado_726083" data-name="Trazado 726083" d="M216.514,468.128A1.128,1.128,0,1,1,215.386,467,1.128,1.128,0,0,1,216.514,468.128Zm0,0" transform="translate(-182.035 -396.768)"/>
      <path id="Trazado_726084" data-name="Trazado 726084" d="M50.232,8V5.64A5.646,5.646,0,0,0,44.592,0H8.5a5.646,5.646,0,0,0-5.64,5.64v2.3A3.389,3.389,0,0,0,0,11.279v3.384a3.388,3.388,0,0,0,3.384,3.384h.44L5.553,44.036a3.406,3.406,0,0,0,2.73,3.05L9.8,61.48a3.361,3.361,0,0,0,1.045,2.182l.459,5.713a3.4,3.4,0,0,0,3.373,3.112h.247a1.128,1.128,0,0,0,1.128-1.128,3.388,3.388,0,1,1,1.557,2.847,1.128,1.128,0,1,0-1.223,1.9,5.608,5.608,0,0,0,3.047.9h0a5.645,5.645,0,0,0,5.526-4.512h3.874a1.128,1.128,0,0,0,1.128-1.128,3.388,3.388,0,1,1,1.557,2.847,1.129,1.129,0,0,0-1.714,1.187,1.114,1.114,0,0,0,.492.71,5.607,5.607,0,0,0,3.045.9h0a5.643,5.643,0,0,0,5.544-4.609,3.4,3.4,0,0,0,2.587-3.015l.46-5.713a3.363,3.363,0,0,0,1.044-2.182l1.522-14.395a3.406,3.406,0,0,0,2.73-3.05l1.729-25.989h.44a3.388,3.388,0,0,0,3.384-3.384V11.279A3.39,3.39,0,0,0,50.232,8ZM44.988,43.855a1.135,1.135,0,0,1-1.124,1.037H33.914a1.128,1.128,0,0,0,0,2.256h8.324L40.737,61.3a1.122,1.122,0,0,1-.5.848l0,0a1.124,1.124,0,0,1-.619.187H28.65a1.128,1.128,0,1,0,0,2.256H39.6l-.371,4.6a1.128,1.128,0,0,1-.414.783,5.641,5.641,0,0,0-10.995.254H24.966a5.641,5.641,0,0,0-10.995-.254,1.128,1.128,0,0,1-.414-.783l-.371-4.6H24.139a1.128,1.128,0,1,0,0-2.256H13.178A1.132,1.132,0,0,1,12.053,61.3l-1.5-14.151h8.324a1.128,1.128,0,1,0,0-2.256H8.926A1.135,1.135,0,0,1,7.8,43.855L6.087,18.047H46.7Zm5.545-29.192a1.129,1.129,0,0,1-1.128,1.128H3.384a1.129,1.129,0,0,1-1.128-1.128V11.279a1.129,1.129,0,0,1,1.128-1.128H44.668a1.128,1.128,0,1,0,0-2.256H5.115V5.64A3.388,3.388,0,0,1,8.5,2.256H44.592A3.388,3.388,0,0,1,47.976,5.64V9.024A1.127,1.127,0,0,0,49.1,10.151h.3a1.129,1.129,0,0,1,1.128,1.128Zm0,0"/>
      <path id="Trazado_726085" data-name="Trazado 726085" d="M95.827,154.008a1.128,1.128,0,0,0,.736-1.415,3.767,3.767,0,0,1,3.235-4.888,6.574,6.574,0,0,0,3.542,5.759,3.759,3.759,0,0,1-4.323,1.582,1.128,1.128,0,0,0-.679,2.151,6.019,6.019,0,0,0,7.2-3.046,6.4,6.4,0,0,0,1.649,0,6.013,6.013,0,0,0,7.2,3.047,1.128,1.128,0,0,0-.679-2.151,3.758,3.758,0,0,1-4.323-1.582,6.574,6.574,0,0,0,3.542-5.76,3.768,3.768,0,0,1,3.235,4.888,1.128,1.128,0,1,0,2.151.679,6.022,6.022,0,0,0-5.766-7.839,6.582,6.582,0,0,0-1.033-1.862,6.018,6.018,0,0,0-2.378-8.458,1.128,1.128,0,1,0-1.041,2,3.763,3.763,0,0,1,1.687,4.918,6.552,6.552,0,0,0-6.843,0,3.762,3.762,0,0,1,1.686-4.918,1.128,1.128,0,1,0-1.041-2,6.019,6.019,0,0,0-2.377,8.459,6.553,6.553,0,0,0-1.034,1.862h-.023a6.022,6.022,0,0,0-5.742,7.839,1.128,1.128,0,0,0,1.415.737Zm14.81-5.784a4.313,4.313,0,0,1-1.815,2.954A3.761,3.761,0,0,1,110.637,148.224Zm-2.426-4.485a3.754,3.754,0,0,1-3.692,0A4.3,4.3,0,0,1,108.211,143.739Zm-5.454,1.538a6.009,6.009,0,0,0,7.216,0,4.247,4.247,0,0,1,.328.6,6.022,6.022,0,0,0-3.725,6.068,4.008,4.008,0,0,1-.42,0,6.019,6.019,0,0,0-3.727-6.068A4.308,4.308,0,0,1,102.757,145.277Zm1.151,5.9a4.315,4.315,0,0,1-1.815-2.954A3.761,3.761,0,0,1,103.909,151.178Zm0,0" transform="translate(-79.97 -114.684)"/>
    </g>
  </g>
</svg>
