<svg xmlns="http://www.w3.org/2000/svg" xmlns:xlink="http://www.w3.org/1999/xlink" width="138" height="138" viewBox="0 0 138 138">
  <defs>
    <filter id="Elipse_5739" x="0" y="0" width="138" height="138" filterUnits="userSpaceOnUse">
      <feOffset dy="3" input="SourceAlpha"/>
      <feGaussianBlur stdDeviation="3" result="blur"/>
      <feFlood flood-opacity="0.161"/>
      <feComposite operator="in" in2="blur"/>
      <feComposite in="SourceGraphic"/>
    </filter>
  </defs>
  <g id="Grupo_959766" data-name="Grupo 959766" transform="translate(3629 10723)">
    <g transform="matrix(1, 0, 0, 1, -3629, -10723)" filter="url(#Elipse_5739)">
      <circle id="Elipse_5739-2" data-name="Elipse 5739" cx="60" cy="60" r="60" transform="translate(9 6)" fill="#badc61"/>
    </g>
    <g id="Layer_29" transform="translate(-3602.994 -10700.377)">
      <g id="Grupo_959757" data-name="Grupo 959757" transform="translate(-0.006 0.377)">
        <g id="Grupo_959752" data-name="Grupo 959752" transform="translate(0 10.469)">
          <g id="Grupo_959739" data-name="Grupo 959739" transform="translate(7.431)">
            <g id="Grupo_959732" data-name="Grupo 959732">
              <circle id="Elipse_5743" data-name="Elipse 5743" cx="34.138" cy="34.138" r="34.138" transform="translate(0.998 0.974)" fill="#55bde3"/>
              <path id="Trazado_726096" data-name="Trazado 726096" d="M80.536,134.582a35.12,35.12,0,1,1,24.826-10.294A35.107,35.107,0,0,1,80.536,134.582Zm0-68.26a33.148,33.148,0,1,0,33.14,33.14A33.183,33.183,0,0,0,80.536,66.322Z" transform="translate(-45.4 -64.35)"/>
            </g>
            <g id="Grupo_959738" data-name="Grupo 959738" transform="translate(3.895 0.008)">
              <g id="Grupo_959733" data-name="Grupo 959733" transform="translate(41.224 16.398)">
                <path id="Trazado_726097" data-name="Trazado 726097" d="M351.282,187.025l-3.224,1.571-3.388,7.053-10.834,2.668-5.237-6.792,5.7-7.9-1.326-2.929,4.451-4.7h.131a7.3,7.3,0,0,0,2.046-.311l.818.131a7.044,7.044,0,0,0,1.015.065,8.4,8.4,0,0,0,5.45-1.98,33.99,33.99,0,0,1,4.4,13.125Z" transform="translate(-327.373 -172.378)" fill="#2a8078"/>
                <path id="Trazado_726098" data-name="Trazado 726098" d="M327.188,191.652,321.1,183.78l5.793-8.052-1.358-3.011,5.2-5.5h.54a5.644,5.644,0,0,0,1.735-.262l.262-.082.262.049a5.088,5.088,0,0,0,.72.131,7.456,7.456,0,0,0,5.711-1.7l.9-.753.589,1.015a34.2,34.2,0,0,1,4.517,13.5l.082.7-3.535,1.735-3.437,7.168Zm-3.633-7.921,4.4,5.711,9.754-2.406,3.339-6.955,2.9-1.407a32.9,32.9,0,0,0-3.649-11.112,9.394,9.394,0,0,1-5.139,1.522,8.962,8.962,0,0,1-1.146-.065l-.638-.1a7.5,7.5,0,0,1-1.8.278l-3.715,3.911,1.293,2.848Z" transform="translate(-321.1 -164.6)"/>
              </g>
              <g id="Grupo_959734" data-name="Grupo 959734" transform="translate(4.157 0)">
                <path id="Trazado_726099" data-name="Trazado 726099" d="M127.946,80.787l3.944,8.821-.507,7.708-7.954,3.093-2.324-5.4-6.988.622-2.8-6.4a51.252,51.252,0,0,0-7.2-4.713,19.116,19.116,0,0,1-3.519-2h.016A34.183,34.183,0,0,1,131.89,70.788Z" transform="translate(-99.618 -69.413)" fill="#2a8078"/>
                <path id="Trazado_726100" data-name="Trazado 726100" d="M117.888,96.656l-2.422-5.613-6.988.606L105.5,84.84a49.741,49.741,0,0,0-6.808-4.451,18.12,18.12,0,0,1-3.7-2.111l-.393-.295V77.1l.262-.262A35.076,35.076,0,0,1,121.684,64.4a36.411,36.411,0,0,1,5.335.393l1.211.2-4.239,10.768,3.879,8.657L127.3,92.99Zm-1.178-7.692,2.242,5.171,6.464-2.52.458-6.841-4.009-8.968,3.633-9.23A33.294,33.294,0,0,0,97.055,77.312,19.482,19.482,0,0,0,99.51,78.6a53.732,53.732,0,0,1,7.4,4.828l.2.147,2.618,5.99Z" transform="translate(-94.6 -64.4)"/>
              </g>
              <g id="Grupo_959735" data-name="Grupo 959735" transform="translate(4.157)">
                <path id="Trazado_726101" data-name="Trazado 726101" d="M100.6,82.522a34.227,34.227,0,0,1,31.29-11.734l-3.944,10,3.944,8.821-.507,7.708-7.954,3.093-2.324-5.4-6.988.622-2.8-6.4Z" transform="translate(-99.618 -69.413)" fill="#2a8078"/>
                <path id="Trazado_726102" data-name="Trazado 726102" d="M117.888,96.656l-2.422-5.613-6.988.606-2.946-6.759L94.6,78.048V77.1l.262-.262A35.076,35.076,0,0,1,121.684,64.4a36.41,36.41,0,0,1,5.335.393l1.211.2-4.239,10.768,3.879,8.657L127.3,92.99Zm-1.178-7.692,2.242,5.171,6.464-2.52.458-6.841-4.009-8.968,3.633-9.23a33.271,33.271,0,0,0-28.41,10.7l10,6.268,2.635,6.022Z" transform="translate(-94.6 -64.4)"/>
              </g>
              <g id="Grupo_959736" data-name="Grupo 959736" transform="translate(13.207 34.168)">
                <path id="Trazado_726103" data-name="Trazado 726103" d="M165.2,279.817s2.864-.295,3.96-.475c2.7-.475,8.035.753,8.035.753l2.177,6.988-2.488,2.324-2.488,5.941-.916,9-5.139,5.761s-1.015-3.911-1.227-5.63-.622-5.384-.622-5.384l-2.095-1.178-2.078-5.5-5.417-1.751,1.915-8.575Z" transform="translate(-155.754 -278.244)" fill="#2a8078"/>
                <path id="Trazado_726104" data-name="Trazado 726104" d="M161.994,307.064l-.458-1.767c-.049-.164-1.031-3.993-1.244-5.744-.164-1.326-.458-3.846-.573-4.91l-1.964-1.1-2.046-5.4-5.81-1.882,2.226-9.983,6.988-2.488h.131c.016-.016,2.848-.311,3.895-.491,2.864-.491,8.183.72,8.412.769l.556.131,2.52,8.117-2.766,2.6-2.357,5.613-.933,9.165Zm-2.651-14.876,2.209,1.227.065.507c0,.033.409,3.7.622,5.384.115.9.458,2.471.753,3.7l3.7-4.124.884-8.837,2.635-6.268,2.177-2.046-1.817-5.859c-1.391-.295-5.106-.966-7.1-.622-1,.164-3.355.426-3.911.475l-5.761,2.046-1.587,7.168,5.008,1.62Z" transform="translate(-149.9 -273.186)"/>
              </g>
              <g id="Grupo_959737" data-name="Grupo 959737" transform="translate(0 28.377)">
                <path id="Trazado_726105" data-name="Trazado 726105" d="M77.8,248.669l2.9-3.469,3.731,1.735v5.548H82.775Z" transform="translate(-76.393 -243.989)" fill="#2a8078"/>
                <path id="Trazado_726106" data-name="Trazado 726106" d="M78.217,247.275H75.239L69.2,242.644l4.042-4.844,4.975,2.324Zm-2.308-1.964h.344v-3.944l-2.471-1.146-1.767,2.111Z" transform="translate(-69.2 -237.8)"/>
              </g>
            </g>
          </g>
          <g id="Grupo_959745" data-name="Grupo 959745" transform="translate(43.454 35.259)">
            <g id="Grupo_959740" data-name="Grupo 959740" transform="translate(0 26.273)">
              <path id="Trazado_726107" data-name="Trazado 726107" d="M280.49,455.679l-3.339,1.653a3.287,3.287,0,0,1-3.944-1.784l-1.375-3.06a3.981,3.981,0,0,1,1.767-5.139l1.817-.949" transform="translate(-270.511 -445.408)" fill="#ffc9a3"/>
              <path id="Trazado_726108" data-name="Trazado 726108" d="M271.2,453.376a4.247,4.247,0,0,1-3.879-2.488l-1.375-3.077a4.984,4.984,0,0,1,2.209-6.4l1.817-.949a.955.955,0,0,1,1.309.376.016.016,0,0,0,.016.016.971.971,0,0,1-.393,1.326.016.016,0,0,0-.016.016l-1.8.949a2.961,2.961,0,0,0-1.342,3.862l1.375,3.077a2.249,2.249,0,0,0,2.684,1.244l3.273-1.6a.981.981,0,0,1,1.309.458.954.954,0,0,1-.426,1.293.016.016,0,0,0-.016.016l-3.42,1.669-.082.033A4.015,4.015,0,0,1,271.2,453.376Z" transform="translate(-265.523 -440.34)"/>
            </g>
            <g id="Grupo_959741" data-name="Grupo 959741" transform="translate(3.421 23.324)">
              <path id="Trazado_726109" data-name="Trazado 726109" d="M305.888,439.345l-3.928,2.537a4.152,4.152,0,0,1-5.368-1.7l-3.8-7.07a2.96,2.96,0,0,1,1.1-3.944l.8-.491a2.969,2.969,0,0,1,4.075,1.047.016.016,0,0,0,.016.016l.884,1.555" transform="translate(-291.458 -427.287)" fill="#ffc9a3"/>
              <path id="Trazado_726110" data-name="Trazado 726110" d="M295.176,438.289a5.135,5.135,0,0,1-4.468-2.586h-.016l-3.8-7.086a3.938,3.938,0,0,1,1.456-5.253l.8-.475a3.938,3.938,0,0,1,5.4,1.326l.049.1.884,1.538a.982.982,0,1,1-1.7.982l-.884-1.555a1.956,1.956,0,0,0-1.211-.916,1.919,1.919,0,0,0-1.522.213l-.8.475a1.966,1.966,0,0,0-.736,2.635l3.78,7.053a3.182,3.182,0,0,0,4.042,1.309l3.862-2.487a.983.983,0,1,1,1.064,1.653l-3.977,2.553-.049.033A5.035,5.035,0,0,1,295.176,438.289Z" transform="translate(-286.424 -422.32)"/>
            </g>
            <g id="Grupo_959742" data-name="Grupo 959742" transform="translate(8.775 18.807)">
              <path id="Trazado_726111" data-name="Trazado 726111" d="M340.3,413.281l-4.419,2.864a4.683,4.683,0,0,1-6.072-1.915l-4.271-7.986a3.333,3.333,0,0,1,1.227-4.451l.916-.556a3.367,3.367,0,0,1,4.582,1.162.06.06,0,0,1,.016.049L333.3,404.2" transform="translate(-324.159 -399.783)" fill="#ffc9a3"/>
              <path id="Trazado_726112" data-name="Trazado 726112" d="M328.889,412.506a5.7,5.7,0,0,1-4.942-2.848v-.033l-4.288-7.986a4.327,4.327,0,0,1,1.587-5.761l.916-.54a4.3,4.3,0,0,1,5.908,1.473c.016.033.033.049.049.082l1.015,1.751a.982.982,0,1,1-1.7.982l-1.015-1.751a2.344,2.344,0,0,0-3.257-.851l-.9.54a2.356,2.356,0,0,0-.884,3.142l4.288,7.986a3.726,3.726,0,0,0,4.73,1.522l4.37-2.815a.983.983,0,0,1,1.064,1.653l-4.484,2.88-.065.033a5.54,5.54,0,0,1-2.389.54Z" transform="translate(-319.142 -394.72)"/>
            </g>
            <g id="Grupo_959743" data-name="Grupo 959743" transform="translate(16.186 16.527)">
              <path id="Trazado_726113" data-name="Trazado 726113" d="M387.457,389.688l-2.128,8.248a5.167,5.167,0,0,1-4.484,3.862l-.36.033a5.144,5.144,0,0,1-4.762-2.16l-4.582-6.481a4.039,4.039,0,0,1,.769-5.466l.065-.049a4.029,4.029,0,0,1,5.662.622l.147.2,2.8,3.977" transform="translate(-369.427 -385.807)" fill="#ffc9a3"/>
              <path id="Trazado_726114" data-name="Trazado 726114" d="M374.964,397.827a6.183,6.183,0,0,1-5.041-2.6l-4.582-6.5a5.012,5.012,0,0,1,.966-6.792l.049-.049a5.014,5.014,0,0,1,7.233,1.031l2.8,3.96a.979.979,0,0,1-1.538,1.211c-.016-.033-.033-.049-.049-.082l-2.8-3.96a3,3,0,0,0-2.062-1.26,3.082,3.082,0,0,0-2.34.638l-.049.049a3.043,3.043,0,0,0-.589,4.124l4.582,6.5a4.256,4.256,0,0,0,3.862,1.751l.36-.033a4.229,4.229,0,0,0,3.633-3.142l2.127-8.248a.974.974,0,0,1,1.227-.638.986.986,0,0,1,.671,1.129l-2.127,8.248a6.2,6.2,0,0,1-5.335,4.6l-.344.033Z" transform="translate(-364.43 -380.789)"/>
            </g>
            <g id="Grupo_959744" data-name="Grupo 959744" transform="translate(24.72)">
              <path id="Trazado_726115" data-name="Trazado 726115" d="M430.047,294.5l6.153,7.07c3.224,4.435-.262,8.9-1.587,9.574l-5.482,2.749a4.529,4.529,0,0,1-6.072-2.046c0-.016-.016-.016-.016-.033a4.388,4.388,0,0,1,1.555-5.548l3.551-3.077a23.243,23.243,0,0,0,1.276-3.911A47.326,47.326,0,0,0,430.047,294.5Z" transform="translate(-421.631 -292.094)" fill="#ffc9a3"/>
              <path id="Trazado_726116" data-name="Trazado 726116" d="M422.063,303.055a5.608,5.608,0,0,1-1.8-.295,5.465,5.465,0,0,1-3.159-2.815,5.358,5.358,0,0,1,1.833-6.759l3.339-2.9a20.092,20.092,0,0,0,1.146-3.519,43.214,43.214,0,0,0,.589-4.631l.18-2.34,7.757,8.9a7.394,7.394,0,0,1,1.293,6.252,7.779,7.779,0,0,1-3.24,4.762l-5.482,2.749A5.373,5.373,0,0,1,422.063,303.055Zm3.682-18.476c-.115.884-.245,1.866-.409,2.618a25.815,25.815,0,0,1-1.342,4.091l-.1.2-3.813,3.306a3.35,3.35,0,0,0-1.195,4.3,3.415,3.415,0,0,0,2.013,1.8,3.526,3.526,0,0,0,2.733-.18l5.482-2.749a6,6,0,0,0,2.209-3.469,5.439,5.439,0,0,0-.949-4.615Z" transform="translate(-416.577 -279.8)"/>
            </g>
          </g>
          <g id="Grupo_959751" data-name="Grupo 959751" transform="translate(0 35.259)">
            <g id="Grupo_959746" data-name="Grupo 959746" transform="translate(30.623 26.277)">
              <path id="Trazado_726117" data-name="Trazado 726117" d="M193.2,455.679l3.355,1.653a3.276,3.276,0,0,0,3.928-1.784l1.375-3.06a3.981,3.981,0,0,0-1.767-5.139l-1.817-.949" transform="translate(-192.205 -445.412)" fill="#ffc9a3"/>
              <path id="Trazado_726118" data-name="Trazado 726118" d="M192.417,453.4a4.016,4.016,0,0,1-1.244-.18l-.082-.033-3.42-1.669a.991.991,0,0,1-.458-1.309,1,1,0,0,1,1.326-.458l3.273,1.6a2.277,2.277,0,0,0,2.7-1.244l1.358-3.077a2.959,2.959,0,0,0-1.326-3.862l-1.817-.949a1.01,1.01,0,0,1-.409-1.342.975.975,0,0,1,1.326-.393l1.817.949a4.984,4.984,0,0,1,2.209,6.4l-1.375,3.077a4.22,4.22,0,0,1-3.879,2.488Z" transform="translate(-187.118 -440.364)"/>
            </g>
            <g id="Grupo_959747" data-name="Grupo 959747" transform="translate(22.771 23.311)">
              <path id="Trazado_726119" data-name="Trazado 726119" d="M145.1,439.345l3.928,2.537a4.147,4.147,0,0,0,5.368-1.7l3.8-7.07a2.944,2.944,0,0,0-1.1-3.944l-.8-.491a2.969,2.969,0,0,0-4.075,1.047.016.016,0,0,1-.016.016l-.884,1.555" transform="translate(-144.124 -427.274)" fill="#ffc9a3"/>
              <path id="Trazado_726120" data-name="Trazado 726120" d="M145.793,438.224a5.036,5.036,0,0,1-2.177-.491l-.049-.033-3.977-2.553a.983.983,0,0,1,1.064-1.653l3.862,2.488a3.182,3.182,0,0,0,4.042-1.309l3.78-7.07a1.976,1.976,0,0,0-.72-2.635l-.818-.475a1.871,1.871,0,0,0-1.506-.213,2.033,2.033,0,0,0-1.227.916l-.884,1.555a.955.955,0,0,1-1.309.376c-.016,0-.016-.016-.033-.016a.973.973,0,0,1-.36-1.342l.884-1.538a3.918,3.918,0,0,1,5.351-1.473l.1.049.8.475a3.938,3.938,0,0,1,1.457,5.253l-3.813,7.1A5.135,5.135,0,0,1,145.793,438.224Z" transform="translate(-139.139 -422.242)"/>
            </g>
            <g id="Grupo_959748" data-name="Grupo 959748" transform="translate(15.702 18.81)">
              <path id="Trazado_726121" data-name="Trazado 726121" d="M101.9,413.247l4.419,2.864a4.683,4.683,0,0,0,6.072-1.915l4.288-7.986a3.354,3.354,0,0,0-1.244-4.451l-.9-.556a3.362,3.362,0,0,0-4.6,1.178c0,.016-.016.016-.016.033l-1,1.751" transform="translate(-100.924 -399.752)" fill="#ffc9a3"/>
              <path id="Trazado_726122" data-name="Trazado 726122" d="M103.313,412.522a5.54,5.54,0,0,1-2.389-.54l-.065-.033-4.468-2.88a.983.983,0,0,1,1.064-1.653l4.353,2.815a3.692,3.692,0,0,0,4.73-1.522l4.288-7.986a2.371,2.371,0,0,0-.867-3.142l-.916-.54a2.349,2.349,0,0,0-3.224.786.124.124,0,0,0-.033.065l-1,1.751a.99.99,0,0,1-1.718-.982l1.015-1.751a4.311,4.311,0,0,1,5.875-1.6c.033.016.049.033.082.049l.916.54a4.343,4.343,0,0,1,1.6,5.761l-4.3,8.019a5.7,5.7,0,0,1-4.942,2.848Z" transform="translate(-95.939 -394.739)"/>
            </g>
            <g id="Grupo_959749" data-name="Grupo 959749" transform="translate(6.403 16.535)">
              <path id="Trazado_726123" data-name="Trazado 726123" d="M45.1,389.688l2.127,8.248a5.167,5.167,0,0,0,4.484,3.862l.36.033a5.144,5.144,0,0,0,4.762-2.16l4.582-6.481a4.039,4.039,0,0,0-.769-5.466l-.065-.049a4.029,4.029,0,0,0-5.662.622l-.147.2-2.8,3.977" transform="translate(-44.121 -385.815)" fill="#ffc9a3"/>
              <path id="Trazado_726124" data-name="Trazado 726124" d="M47.592,397.865l-.622-.033-.36-.033a6.2,6.2,0,0,1-5.335-4.6l-2.127-8.248a.988.988,0,1,1,1.915-.491l2.111,8.248a4.229,4.229,0,0,0,3.633,3.142l.36.033a4.256,4.256,0,0,0,3.862-1.751l4.582-6.5a3.043,3.043,0,0,0-.589-4.124l-.049-.049a3.055,3.055,0,0,0-4.4.622l-2.8,3.96a.974.974,0,0,1-1.358.245.994.994,0,0,1-.245-1.375l2.8-3.96a5.046,5.046,0,0,1,7-1.211,1.235,1.235,0,0,1,.229.18l.049.049a5.012,5.012,0,0,1,.966,6.792l-4.582,6.5a6.183,6.183,0,0,1-5.041,2.6Z" transform="translate(-39.117 -380.834)"/>
            </g>
            <g id="Grupo_959750" data-name="Grupo 959750">
              <path id="Trazado_726125" data-name="Trazado 726125" d="M13.515,294.5l-6.17,7.07c-3.208,4.435.262,8.9,1.6,9.574l5.482,2.749a4.51,4.51,0,0,0,6.055-2.046.057.057,0,0,1,.016-.033,4.364,4.364,0,0,0-1.538-5.548L15.4,303.19a23.247,23.247,0,0,1-1.276-3.911,45.513,45.513,0,0,1-.606-4.779Z" transform="translate(-5.037 -292.094)" fill="#ffc9a3"/>
              <path id="Trazado_726126" data-name="Trazado 726126" d="M11.385,303.055a5.257,5.257,0,0,1-2.438-.589l-5.482-2.749a7.723,7.723,0,0,1-3.257-4.762A7.45,7.45,0,0,1,1.5,288.7l.065-.065L9.258,279.8l.18,2.34c.016.033.245,3.011.589,4.631a24.523,24.523,0,0,0,1.146,3.519l3.339,2.9a5.334,5.334,0,0,1,1.833,6.759,5.465,5.465,0,0,1-3.158,2.815,5.608,5.608,0,0,1-1.8.295ZM3.072,289.881a5.438,5.438,0,0,0-.949,4.615,6,6,0,0,0,2.226,3.469l5.466,2.749a3.544,3.544,0,0,0,4.746-1.587.057.057,0,0,1,.016-.033,3.385,3.385,0,0,0-1.195-4.3l-.115-.082-3.715-3.224-.1-.2A25.808,25.808,0,0,1,8.112,287.2c-.164-.753-.295-1.735-.409-2.618Z" transform="translate(0.006 -279.8)"/>
            </g>
          </g>
        </g>
        <g id="Grupo_959754" data-name="Grupo 959754" transform="translate(21.718)">
          <g id="Grupo_959753" data-name="Grupo 959753">
            <path id="Trazado_726127" data-name="Trazado 726127" d="M149.237,6a8.513,8.513,0,0,0-7.79,5.09A6.644,6.644,0,0,0,145.359,23.1a6.567,6.567,0,0,0,2.029-.311,8.764,8.764,0,0,0,1.849.2,8.494,8.494,0,0,0,0-16.987Z" transform="translate(-137.733 -5.08)" fill="#719b29"/>
            <path id="Trazado_726128" data-name="Trazado 726128" d="M140.326,19.381a7.625,7.625,0,0,1-4.7-13.632A9.439,9.439,0,1,1,142.4,19.086,7.417,7.417,0,0,1,140.326,19.381Zm3.879-17.1a7.512,7.512,0,0,0-6.89,4.5.851.851,0,0,1-.327.393,5.68,5.68,0,0,0,5.073,9.983.9.9,0,0,1,.507-.033,7.834,7.834,0,0,0,1.637.18,7.512,7.512,0,1,0,0-15.023Z" transform="translate(-132.7 -0.377)"/>
          </g>
          <path id="Trazado_726129" data-name="Trazado 726129" d="M190.8,58.3h1.964V76.973H190.8Z" transform="translate(-181.292 -48.821)"/>
          <path id="Trazado_726130" data-name="Trazado 726130" d="M0,0H5.908V1.964H0Z" transform="translate(9.821 14.544) rotate(-40.782)"/>
          <path id="Trazado_726131" data-name="Trazado 726131" d="M0,0H1.964V3.453H0Z" transform="translate(6.989 11.617) rotate(-61.719)"/>
        </g>
        <g id="Grupo_959756" data-name="Grupo 959756" transform="translate(55.101 12.406)">
          <g id="Grupo_959755" data-name="Grupo 959755">
            <path id="Trazado_726132" data-name="Trazado 726132" d="M361.711,90.6a8.486,8.486,0,0,1-8.494,8.494,7.043,7.043,0,0,1-1.015-.065l-.818-.131a7.3,7.3,0,0,1-2.046.311h-.131a6.642,6.642,0,0,1-3.78-12.012,8.494,8.494,0,0,1,16.283,3.4Z" transform="translate(-341.711 -81.125)" fill="#719b29"/>
            <path id="Trazado_726133" data-name="Trazado 726133" d="M344.319,95.25h-.164a7.625,7.625,0,0,1-4.533-13.632,9.48,9.48,0,1,1,8.592,13.518,8.963,8.963,0,0,1-1.146-.065l-.638-.1A8.5,8.5,0,0,1,344.319,95.25Zm3.879-17.1a7.546,7.546,0,0,0-6.89,4.5,1.038,1.038,0,0,1-.311.393A5.663,5.663,0,0,0,344.2,93.286h.115a5.644,5.644,0,0,0,1.735-.262.945.945,0,0,1,.524-.033,5.088,5.088,0,0,0,.72.131A7.512,7.512,0,0,0,349.016,78.2,6.862,6.862,0,0,0,348.2,78.148Z" transform="translate(-336.691 -76.181)"/>
          </g>
          <path id="Trazado_726134" data-name="Trazado 726134" d="M394.8,134.5h1.964v18.673H394.8Z" transform="translate(-385.29 -124.956)"/>
          <path id="Trazado_726135" data-name="Trazado 726135" d="M0,0H5.908V1.964H0Z" transform="translate(9.82 14.607) rotate(-40.782)"/>
          <path id="Trazado_726136" data-name="Trazado 726136" d="M0,0H1.964V3.453H0Z" transform="translate(6.994 11.664) rotate(-61.719)"/>
        </g>
      </g>
    </g>
  </g>
</svg>
