<svg xmlns="http://www.w3.org/2000/svg" width="225.884" height="391" viewBox="0 0 225.884 391">
  <g id="Grupo_960021" data-name="Grupo 960021" transform="translate(0 0)">
    <g id="Grupo_959976" data-name="Grupo 959976" transform="translate(8.206 133.081)">
      <path id="Trazado_726582" data-name="Trazado 726582" d="M1748.106,946.723h60.507l-28.427,115.256c-.059,0-29.4,126.888-29.4,126.888h-26.519c1.63-36.143,4.428-85.154,14.84-127.745C1740.373,1022.257,1743.238,986.092,1748.106,946.723Z" transform="translate(-1723.869 -946.328)" fill="#130f40"/>
      <path id="Trazado_726583" data-name="Trazado 726583" d="M1723.66,1188.658h26.519a.4.4,0,0,0,.385-.306c.29-1.255,28.966-125.249,29.393-126.855,0-.009.005-.018.008-.028l28.427-115.256a.4.4,0,0,0-.384-.49H1747.5a.4.4,0,0,0-.392.347c-4.882,39.476-7.743,75.828-9,114.394-9.785,40.048-12.916,85.08-14.841,127.781a.4.4,0,0,0,.4.413Zm26.2-.791h-25.792c1.926-42.552,5.066-87.394,14.811-127.256a.4.4,0,0,0,.011-.081c1.255-38.445,4.1-74.685,8.956-114.017H1807.5L1779.2,1061.28l.02,0c-.083.239-.183.665-.361,1.424-.218.93-.536,2.293-.94,4.028-.808,3.47-1.959,8.426-3.339,14.375-2.759,11.9-6.432,27.757-10.1,43.618C1757.55,1154.635,1750.634,1184.541,1749.865,1187.867Z" transform="translate(-1723.264 -945.723)" fill="#130f40"/>
    </g>
    <g id="Grupo_959977" data-name="Grupo 959977" transform="translate(55.385 133.053)">
      <path id="Trazado_726584" data-name="Trazado 726584" d="M1625.789,946.681l20.49,115.264,22.844,126.88h-28.645c-20.95-52.378-26.791-83.885-35.235-124.68-13.566-35.107-28.226-81.014-33.646-117.491Z" transform="translate(-1571.201 -946.258)" fill="#130f40"/>
      <path id="Trazado_726585" data-name="Trazado 726585" d="M1639.873,1188.616h28.644a.4.4,0,0,0,.389-.465l-22.843-126.88-20.49-115.264a.4.4,0,0,0-.389-.326l-54.193-.028a.4.4,0,0,0-.391.453c6.631,44.627,25.737,97.047,33.657,117.545q.755,3.651,1.487,7.21c7.852,38.123,14.053,68.234,33.761,117.506A.4.4,0,0,0,1639.873,1188.616Zm28.171-.791h-27.9c-19.6-49.056-25.791-79.1-33.621-117.123q-.737-3.578-1.494-7.242a.441.441,0,0,0-.019-.062c-7.877-20.383-26.872-72.482-33.556-116.953l53.4.027,20.432,114.938Z" transform="translate(-1570.597 -945.653)" fill="#130f40"/>
    </g>
    <g id="Grupo_959984" data-name="Grupo 959984" transform="translate(187.155 48.967)">
      <g id="Grupo_959978" data-name="Grupo 959978" transform="translate(0 3.912)">
        <path id="Trazado_726586" data-name="Trazado 726586" d="M1446.431,760.087c-4.892,2.335-9.254,4.168-13.71,3.01l-6.079,2.9-5.413-11.337,22.631-10.805Z" transform="translate(-1420.834 -743.461)" fill="#f492b8"/>
        <path id="Trazado_726587" data-name="Trazado 726587" d="M1426.038,765.789a.4.4,0,0,0,.17-.039l5.95-2.841c4.514,1.112,8.941-.733,13.839-3.071a.4.4,0,0,0,.22-.419l-2.571-16.23a.4.4,0,0,0-.561-.295L1420.454,753.7a.395.395,0,0,0-.186.527l5.413,11.337A.4.4,0,0,0,1426.038,765.789Zm6.078-3.693a.392.392,0,0,0-.17.039l-5.722,2.732-5.073-10.624,21.8-10.407,2.442,15.416c-4.7,2.234-8.948,3.955-13.173,2.857A.388.388,0,0,0,1432.116,762.1Z" transform="translate(-1420.229 -742.856)" fill="#130f40"/>
      </g>
      <g id="Grupo_959979" data-name="Grupo 959979" transform="translate(20.703 6.886)">
        <path id="Trazado_726588" data-name="Trazado 726588" d="M1420.351,755.156l-3.254,1.553a1.969,1.969,0,0,1-1.7-3.554l3.313-1.582a1.97,1.97,0,0,1,2.641.962A2.012,2.012,0,0,1,1420.351,755.156Z" transform="translate(-1413.882 -750.985)" fill="#f492b8"/>
        <path id="Trazado_726589" data-name="Trazado 726589" d="M1415.649,756.693a2.359,2.359,0,0,0,1.017-.232l3.254-1.554a2.41,2.41,0,0,0,1.193-3.141,2.365,2.365,0,0,0-3.171-1.155l-3.313,1.582a2.366,2.366,0,0,0,1.021,4.5Zm3.31-5.523a1.578,1.578,0,0,1,1.434.924,1.616,1.616,0,0,1-.814,2.1l-3.254,1.554a1.574,1.574,0,0,1-1.356-2.841l3.313-1.581A1.568,1.568,0,0,1,1418.959,751.17Z" transform="translate(-1413.282 -750.379)" fill="#130f40"/>
      </g>
      <g id="Grupo_959980" data-name="Grupo 959980" transform="translate(20.185 0)">
        <path id="Trazado_726590" data-name="Trazado 726590" d="M1390.717,742.609l8.494-4.06,5.8-.65a1.975,1.975,0,0,0-.44-3.925l-5.762.646a4.182,4.182,0,0,0-1.345.387l-8.451,4.035Z" transform="translate(-1388.618 -733.565)" fill="#f492b8"/>
        <path id="Trazado_726591" data-name="Trazado 726591" d="M1390.112,742.4a.4.4,0,0,0,.17-.039l8.433-4.032,5.734-.643a2.37,2.37,0,1,0-.528-4.711l-5.762.646a4.57,4.57,0,0,0-1.473.423l-8.449,4.034a.4.4,0,0,0-.187.527l1.7,3.569a.4.4,0,0,0,.357.225Zm14.075-8.649a1.58,1.58,0,0,1,.175,3.15l-5.8.65a.39.39,0,0,0-.126.036l-8.137,3.89-1.363-2.855,8.094-3.864a3.78,3.78,0,0,1,1.219-.351l5.762-.646A1.666,1.666,0,0,1,1404.188,733.751Z" transform="translate(-1388.013 -732.96)" fill="#130f40"/>
      </g>
      <g id="Grupo_959981" data-name="Grupo 959981" transform="translate(20.954 11.206)">
        <path id="Trazado_726592" data-name="Trazado 726592" d="M1419.957,766.084l-3.1,1.478a1.969,1.969,0,0,1-1.7-3.555l3.154-1.506a1.969,1.969,0,0,1,2.641.962A2.012,2.012,0,0,1,1419.957,766.084Z" transform="translate(-1413.647 -761.912)" fill="#f492b8"/>
        <path id="Trazado_726593" data-name="Trazado 726593" d="M1415.417,767.543a2.35,2.35,0,0,0,1.015-.231l3.1-1.478a2.41,2.41,0,0,0,1.193-3.141,2.365,2.365,0,0,0-3.172-1.155l-3.154,1.506a2.364,2.364,0,0,0,1.023,4.5Zm3.149-5.445a1.577,1.577,0,0,1,1.434.924,1.616,1.616,0,0,1-.814,2.1l-3.1,1.478a1.574,1.574,0,0,1-1.356-2.841l3.154-1.506A1.574,1.574,0,0,1,1418.566,762.1Z" transform="translate(-1413.047 -761.306)" fill="#130f40"/>
      </g>
      <g id="Grupo_959982" data-name="Grupo 959982" transform="translate(21.365 15.527)">
        <path id="Trazado_726594" data-name="Trazado 726594" d="M1419.405,777.011l-2.778,1.326a1.969,1.969,0,1,1-1.7-3.554l2.837-1.354a1.969,1.969,0,0,1,2.641.962A2.012,2.012,0,0,1,1419.405,777.011Z" transform="translate(-1413.413 -772.84)" fill="#f492b8"/>
        <path id="Trazado_726595" data-name="Trazado 726595" d="M1415.181,778.321a2.352,2.352,0,0,0,1.017-.232l2.777-1.326a2.41,2.41,0,0,0,1.193-3.141,2.365,2.365,0,0,0-3.171-1.155l-2.836,1.354a2.366,2.366,0,0,0,1.02,4.5Zm3.454-2.272-2.778,1.326a1.574,1.574,0,0,1-1.356-2.841l2.837-1.354a1.574,1.574,0,0,1,2.111.769,1.616,1.616,0,0,1-.814,2.1Z" transform="translate(-1412.813 -772.235)" fill="#130f40"/>
      </g>
      <g id="Grupo_959983" data-name="Grupo 959983" transform="translate(6.078 3.528)">
        <path id="Trazado_726596" data-name="Trazado 726596" d="M1422.091,751.17c.905-3.083,3.179-5.481,6.389-7.422a5.986,5.986,0,0,1,4.82-.614l7.574,2.276a4.323,4.323,0,0,1-5.138,2.782l-3.024-.812c-.094,3.74-1.362,6.861-4.861,9.95Z" transform="translate(-1421.695 -742.488)" fill="#f492b8"/>
        <path id="Trazado_726597" data-name="Trazado 726597" d="M1427.245,757.122a.393.393,0,0,0,.261-.1,13.24,13.24,0,0,0,4.975-9.736l2.546.683a4.732,4.732,0,0,0,5.61-3.022.394.394,0,0,0-.255-.52l-7.573-2.276a6.389,6.389,0,0,0-5.139.654c-3.533,2.136-5.68,4.638-6.564,7.649a.4.4,0,0,0,.759.223c.825-2.812,2.858-5.166,6.214-7.195a5.6,5.6,0,0,1,4.5-.574l7.145,2.148a3.885,3.885,0,0,1-4.483,2.153l-3.034-.814a.395.395,0,0,0-.5.372c-.1,3.935-1.513,6.825-4.728,9.663a.4.4,0,0,0,.262.692Z" transform="translate(-1421.09 -741.884)" fill="#130f40"/>
      </g>
    </g>
    <g id="Grupo_959985" data-name="Grupo 959985" transform="translate(97.89 52.439)">
      <path id="Trazado_726598" data-name="Trazado 726598" d="M1471.617,742.742c13.946,5.208,27.262,19.469,44.28,30.343l35.454-23,7.17,15.684-27.29,25.084a25.484,25.484,0,0,1-29.06,3.818l-43.193-22.6Z" transform="translate(-1458.581 -742.347)" fill="#fff"/>
      <path id="Trazado_726599" data-name="Trazado 726599" d="M1513.353,797.35a25.907,25.907,0,0,0,17.54-6.814l27.29-25.084a.4.4,0,0,0,.092-.456l-7.17-15.684a.4.4,0,0,0-.575-.167l-35.24,22.864c-6.662-4.275-12.71-9.029-18.561-13.628-8.8-6.919-17.118-13.455-25.579-16.615a.4.4,0,0,0-.5.214l-12.64,29.328a.4.4,0,0,0,.18.507l43.193,22.6A25.8,25.8,0,0,0,1513.353,797.35Zm44.083-32.285-27.078,24.89a25.152,25.152,0,0,1-28.609,3.759l-42.868-22.428,12.345-28.644c8.227,3.166,16.385,9.579,25.016,16.362,5.928,4.66,12.059,9.478,18.838,13.81a.4.4,0,0,0,.428,0l35.07-22.753Z" transform="translate(-1457.977 -741.742)" fill="#130f40"/>
    </g>
    <g id="Grupo_959986" data-name="Grupo 959986" transform="translate(21.95 48.873)">
      <path id="Trazado_726600" data-name="Trazado 726600" d="M1737.014,766.99l11.034,115.6H1646.831s10.38-70.137,9.144-75.694c-3.18-14.3-9.812-51.686-7.74-66.042,25.458-7.9,65.362-9.462,87.176-3.568Z" transform="translate(-1646.436 -733.323)" fill="#fff"/>
      <path id="Trazado_726601" data-name="Trazado 726601" d="M1646.226,882.381h101.217a.4.4,0,0,0,.394-.433L1736.8,766.35a.4.4,0,1,0-.787.075l10.993,115.166H1646.684c.967-6.558,10.271-69.993,9.071-75.384-3.257-14.645-9.7-51.347-7.768-65.653,25.274-7.778,64.912-9.38,86.716-3.489a.4.4,0,1,0,.206-.763c-21.992-5.943-62.014-4.308-87.4,3.571a.4.4,0,0,0-.274.321c-2.054,14.232,4.458,51.41,7.745,66.185,1.206,5.423-9.045,74.849-9.149,75.55a.4.4,0,0,0,.391.453Z" transform="translate(-1645.831 -732.721)" fill="#130f40"/>
    </g>
    <g id="Grupo_959987" data-name="Grupo 959987" transform="translate(87.601 111.75)">
      <path id="Trazado_726602" data-name="Trazado 726602" d="M1736.19,977.4a.4.4,0,0,0,.4-.4V892.163a.4.4,0,0,0-.791,0v84.844A.4.4,0,0,0,1736.19,977.4Z" transform="translate(-1735.795 -891.768)" fill="#99b4ff"/>
    </g>
    <g id="Grupo_959990" data-name="Grupo 959990" transform="translate(45.293 50.339)">
      <g id="Grupo_959988" data-name="Grupo 959988" transform="translate(42.308 0)">
        <path id="Trazado_726603" data-name="Trazado 726603" d="M1693,798.631a.4.4,0,0,0,.356-.223l17.075-35.22a.395.395,0,0,0-.2-.536l-10.687-4.574,9.072-3.034a.4.4,0,0,0,.2-.6L1696.465,736.6a.4.4,0,0,0-.65.45l12.05,17.413-9.559,3.2a.4.4,0,0,0-.03.738l11.261,4.82-16.895,34.847a.4.4,0,0,0,.356.568Z" transform="translate(-1692.603 -736.429)" fill="#99b4ff"/>
      </g>
      <g id="Grupo_959989" data-name="Grupo 959989" transform="translate(0 0.971)">
        <path id="Trazado_726604" data-name="Trazado 726604" d="M1778.5,800.116a.4.4,0,0,0,.266-.688l-38.355-34.856,8.108-4.711a.4.4,0,0,0-.093-.723l-11.815-3.277,1.266-16.55a.4.4,0,0,0-.788-.06l-1.29,16.874a.4.4,0,0,0,.289.411l11.223,3.113-7.763,4.511a.4.4,0,0,0-.067.635l38.755,35.219A.394.394,0,0,0,1778.5,800.116Z" transform="translate(-1735.795 -738.885)" fill="#99b4ff"/>
      </g>
    </g>
    <g id="Grupo_959991" data-name="Grupo 959991" transform="translate(20.86 159.764)">
      <path id="Trazado_726605" data-name="Trazado 726605" d="M1714.987,1091.8l55.232-35.712a5.6,5.6,0,0,0,1.664-7.75l-20.4-31.556a5.6,5.6,0,0,0-7.75-1.663L1688.5,1050.83a5.6,5.6,0,0,0-1.664,7.75l20.4,31.557A5.605,5.605,0,0,0,1714.987,1091.8Z" transform="translate(-1685.537 -1013.823)" fill="#99b4ff"/>
      <path id="Trazado_726606" data-name="Trazado 726606" d="M1711.348,1092.489a5.959,5.959,0,0,0,3.246-.963l55.232-35.712a6,6,0,0,0,1.781-8.3l-20.4-31.556a6,6,0,0,0-8.3-1.781l-55.232,35.712a6,6,0,0,0-1.781,8.3l20.4,31.556a5.96,5.96,0,0,0,3.779,2.609A6.054,6.054,0,0,0,1711.348,1092.489Zm34.806-78.482a5.264,5.264,0,0,1,1.1.118,5.178,5.178,0,0,1,3.281,2.265l20.4,31.556a5.209,5.209,0,0,1-1.546,7.2l-55.232,35.712a5.21,5.21,0,0,1-7.2-1.546l-20.4-31.557a5.21,5.21,0,0,1,1.546-7.2l55.232-35.712A5.172,5.172,0,0,1,1746.154,1014.007Z" transform="translate(-1684.93 -1013.216)" fill="#130f40"/>
    </g>
    <g id="Grupo_959998" data-name="Grupo 959998" transform="translate(37.295 163.03)">
      <g id="Grupo_959992" data-name="Grupo 959992" transform="translate(0 0)">
        <path id="Trazado_726607" data-name="Trazado 726607" d="M1808.655,1030.855l5.414,7.648a3.813,3.813,0,0,1-5.315-.909l-2.482-3.506-2.256.151,10.779,12.01a1.907,1.907,0,0,1-.167,2.732,1.96,1.96,0,0,1-2.7-.221l1.67,1.94a1.907,1.907,0,0,1-.166,2.732,1.959,1.959,0,0,1-2.7-.221l-.315-.345a1.907,1.907,0,0,1-.166,2.732,1.96,1.96,0,0,1-2.7-.221l-1.492-1.7c-.013.019-.024.04-.037.059a1.96,1.96,0,0,1-2.676.44l-4.889-3.38-5.666-6.375c-1.48-1.622-3.343-5.278-4.515-7.756-.792-1.673-4.844-5.253-4.844-5.253l10.063-8.936,3.007,3.379.022.025,6.365,1.243A9.247,9.247,0,0,1,1808.655,1030.855Z" transform="translate(-1783.026 -1022.082)" fill="#f492b8"/>
        <path id="Trazado_726608" data-name="Trazado 726608" d="M1808.431,1055.829a2.237,2.237,0,0,0,1.466-.534,2.286,2.286,0,0,0,.8-1.607c0-.069.005-.137,0-.205a2.312,2.312,0,0,0,2.383-.354,2.3,2.3,0,0,0,.2-3.3l-.533-.62a2.286,2.286,0,0,0,1.733-3.832l-10.235-11.4,1.225-.082,2.354,3.325a4.208,4.208,0,0,0,5.866,1,.4.4,0,0,0,.094-.551l-5.414-7.648a9.6,9.6,0,0,0-6.023-3.892l-6.234-1.217-2.941-3.3a.4.4,0,0,0-.558-.033l-10.063,8.937a.4.4,0,0,0,0,.592c.04.035,4,3.545,4.749,5.125,1.271,2.686,3.1,6.23,4.581,7.854l5.662,6.371a.393.393,0,0,0,.071.063l4.889,3.38a2.389,2.389,0,0,0,2.946-.217l1.188,1.354A2.43,2.43,0,0,0,1808.431,1055.829Zm1.085-3.3a1.511,1.511,0,0,1-.134,2.164,1.564,1.564,0,0,1-2.153-.188l-1.488-1.7a.388.388,0,0,0-.324-.134.4.4,0,0,0-.3.177l-.023.037a1.566,1.566,0,0,1-2.141.35l-4.844-3.349-5.634-6.339a36.06,36.06,0,0,1-4.454-7.662c-.688-1.455-3.608-4.176-4.608-5.082l9.437-8.38,2.744,3.084a.5.5,0,0,0,.242.15l6.365,1.242a8.815,8.815,0,0,1,5.529,3.573l5.173,7.307a3.422,3.422,0,0,1-4.428-1.024l-2.482-3.506a.392.392,0,0,0-.349-.166l-2.256.151a.4.4,0,0,0-.268.659l10.779,12.01a1.511,1.511,0,0,1-.13,2.168,1.565,1.565,0,0,1-2.154-.187.4.4,0,0,0-.591.525l1.67,1.94a1.511,1.511,0,0,1-.125,2.174,1.565,1.565,0,0,1-2.153-.188l-.315-.345a.4.4,0,0,0-.584.533Z" transform="translate(-1782.42 -1021.477)" fill="#130f40"/>
      </g>
      <g id="Grupo_959993" data-name="Grupo 959993" transform="translate(20.552 17.24)">
        <path id="Trazado_726609" data-name="Trazado 726609" d="M1799.894,1075.129l-7.953-9.044Z" transform="translate(-1791.546 -1065.69)" fill="#f492b8"/>
        <path id="Trazado_726610" data-name="Trazado 726610" d="M1799.289,1074.919a.4.4,0,0,0,.3-.656l-7.953-9.043a.4.4,0,1,0-.594.522l7.953,9.044A.393.393,0,0,0,1799.289,1074.919Z" transform="translate(-1790.941 -1065.085)" fill="#130f40"/>
      </g>
      <g id="Grupo_959994" data-name="Grupo 959994" transform="translate(17.367 19.406)">
        <path id="Trazado_726611" data-name="Trazado 726611" d="M1805.4,1082.549l-9.623-10.984Z" transform="translate(-1795.377 -1071.169)" fill="#f492b8"/>
        <path id="Trazado_726612" data-name="Trazado 726612" d="M1804.791,1082.339a.4.4,0,0,0,.3-.656l-9.623-10.984a.4.4,0,0,0-.595.521l9.623,10.984A.393.393,0,0,0,1804.791,1082.339Z" transform="translate(-1794.772 -1070.564)" fill="#130f40"/>
      </g>
      <g id="Grupo_959995" data-name="Grupo 959995" transform="translate(14.497 21.918)">
        <path id="Trazado_726613" data-name="Trazado 726613" d="M1806.806,1077.918l8.131,9.282Z" transform="translate(-1806.41 -1077.523)" fill="#f492b8"/>
        <path id="Trazado_726614" data-name="Trazado 726614" d="M1814.332,1086.991a.395.395,0,0,0,.3-.656l-8.131-9.282a.4.4,0,1,0-.6.521l8.131,9.282A.4.4,0,0,0,1814.332,1086.991Z" transform="translate(-1805.806 -1076.918)" fill="#130f40"/>
      </g>
      <g id="Grupo_959996" data-name="Grupo 959996" transform="translate(17.553 8.337)">
        <path id="Trazado_726615" data-name="Trazado 726615" d="M1814.99,1046.991l-3.042-3.426Z" transform="translate(-1811.553 -1043.17)" fill="#fff"/>
        <path id="Trazado_726616" data-name="Trazado 726616" d="M1814.386,1046.781a.4.4,0,0,0,.3-.658l-3.042-3.426a.4.4,0,1,0-.591.525l3.042,3.426A.393.393,0,0,0,1814.386,1046.781Z" transform="translate(-1810.948 -1042.565)" fill="#130f40"/>
      </g>
      <g id="Grupo_959997" data-name="Grupo 959997" transform="translate(12.865 16.436)">
        <path id="Trazado_726617" data-name="Trazado 726617" d="M1808.851,1070.465a.393.393,0,0,0,.239-.08l8.716-6.623a.4.4,0,1,0-.478-.63l-8.716,6.623a.4.4,0,0,0,.239.71Z" transform="translate(-1808.455 -1063.051)"/>
      </g>
    </g>
    <g id="Grupo_959999" data-name="Grupo 959999" transform="translate(0 56.006)">
      <path id="Trazado_726618" data-name="Trazado 726618" d="M1870.533,781.975l-15.6,30.476,25.552,48.887-13.79,9.588-33.06-46.258c-4.831-6.759-4.558-15.073-3.3-23.286,1.8-11.793,10.988-42.573,22.574-49.616Z" transform="translate(-1829.153 -751.37)" fill="#fff"/>
      <path id="Trazado_726619" data-name="Trazado 726619" d="M1866.086,870.716a.392.392,0,0,0,.225-.071l13.79-9.588a.4.4,0,0,0,.125-.508l-25.458-48.706,15.512-30.293a.4.4,0,1,0-.7-.36l-15.6,30.476a.4.4,0,0,0,0,.363l25.391,48.578-13.183,9.166-32.833-45.94c-4.9-6.855-4.384-15.471-3.233-23,1.713-11.211,10.889-42.347,22.389-49.338a.4.4,0,1,0-.411-.676c-11.884,7.224-20.972,38.2-22.76,49.894-1.174,7.682-1.692,16.49,3.372,23.575l33.06,46.258A.4.4,0,0,0,1866.086,870.716Z" transform="translate(-1828.547 -750.765)" fill="#130f40"/>
    </g>
    <g id="Grupo_960006" data-name="Grupo 960006" transform="translate(51.677 84.468)">
      <g id="Grupo_960000" data-name="Grupo 960000" transform="translate(8.083 0)">
        <path id="Trazado_726620" data-name="Trazado 726620" d="M1797.961,834.858h2.823l-1.384-11.1h-2.823Z" transform="translate(-1796.182 -823.362)" fill="#99b4ff"/>
        <path id="Trazado_726621" data-name="Trazado 726621" d="M1797.356,834.648h2.822a.395.395,0,0,0,.393-.444l-1.384-11.1a.4.4,0,0,0-.392-.346h-2.823a.4.4,0,0,0-.392.444l1.383,11.1A.4.4,0,0,0,1797.356,834.648Zm2.375-.791h-2.026l-1.285-10.31h2.026Z" transform="translate(-1795.578 -822.757)" fill="#130f40"/>
      </g>
      <g id="Grupo_960004" data-name="Grupo 960004" transform="translate(0 11.496)">
        <g id="Grupo_960001" data-name="Grupo 960001">
          <path id="Trazado_726622" data-name="Trazado 726622" d="M1788.868,868.711h7.445A4.075,4.075,0,0,0,1800.44,864l-1.516-12.16h-16.875l1.516,12.16A5.5,5.5,0,0,0,1788.868,868.711Z" transform="translate(-1782.049 -851.836)" fill="#fff"/>
        </g>
        <g id="Grupo_960002" data-name="Grupo 960002">
          <path id="Trazado_726623" data-name="Trazado 726623" d="M1788.868,868.711h7.445A4.075,4.075,0,0,0,1800.44,864l-1.516-12.16h-16.875l1.516,12.16A5.5,5.5,0,0,0,1788.868,868.711Z" transform="translate(-1782.049 -851.836)" fill="#fff"/>
        </g>
        <g id="Grupo_960003" data-name="Grupo 960003">
          <path id="Trazado_726624" data-name="Trazado 726624" d="M1788.868,868.711h7.445A4.075,4.075,0,0,0,1800.44,864l-1.516-12.16h-16.875l1.516,12.16A5.5,5.5,0,0,0,1788.868,868.711Z" transform="translate(-1782.049 -851.836)" fill="none" stroke="#130f40" stroke-linecap="round" stroke-linejoin="round" stroke-width="2"/>
        </g>
      </g>
      <g id="Grupo_960005" data-name="Grupo 960005" transform="translate(3.299 3.389)">
        <path id="Trazado_726625" data-name="Trazado 726625" d="M1811.276,832.329a1.686,1.686,0,0,1,1.626,1.446l.781,6.266-1.264,1.458.681,5.467h-1.446l-1.644-13.191A1.249,1.249,0,0,1,1811.276,832.329Z" transform="translate(-1809.603 -831.934)" fill="#99b4ff"/>
        <path id="Trazado_726626" data-name="Trazado 726626" d="M1811.05,846.757h1.446a.4.4,0,0,0,.393-.444l-.66-5.292,1.148-1.325a.4.4,0,0,0,.094-.308l-.781-6.266a2.094,2.094,0,0,0-2.018-1.792,1.656,1.656,0,0,0-1.263.553,1.673,1.673,0,0,0-.4,1.337l1.644,13.191A.4.4,0,0,0,1811.05,846.757Zm1-.791h-.649l-1.6-12.845a.894.894,0,0,1,.2-.716.876.876,0,0,1,.67-.286,1.3,1.3,0,0,1,1.233,1.1l.759,6.091-1.149,1.325a.4.4,0,0,0-.094.308Z" transform="translate(-1808.999 -831.329)" fill="#130f40"/>
      </g>
    </g>
    <g id="Grupo_960007" data-name="Grupo 960007" transform="translate(48.91 48.878)">
      <path id="Trazado_726627" data-name="Trazado 726627" d="M1775.487,734.012V796.6l-38.692-61.06A216.115,216.115,0,0,1,1775.487,734.012Z" transform="translate(-1736.4 -733.335)" fill="#99b4ff"/>
      <path id="Trazado_726628" data-name="Trazado 726628" d="M1774.882,796.4a.4.4,0,0,0,.4-.4V733.41a.4.4,0,0,0-.374-.395,217.3,217.3,0,0,0-38.764,1.535.4.4,0,0,0-.283.6l38.692,61.06A.4.4,0,0,0,1774.882,796.4Zm-.4-62.612v60.854l-37.63-59.384A216.751,216.751,0,0,1,1774.486,733.785Z" transform="translate(-1735.795 -732.734)" fill="#130f40"/>
    </g>
    <g id="Grupo_960008" data-name="Grupo 960008" transform="translate(61.382 4.451)">
      <path id="Trazado_726629" data-name="Trazado 726629" d="M1735.411,646.445c0-4.44-.668-14.533.595-17.269l.321-.7a12.074,12.074,0,0,1,11.009-7.12,11.854,11.854,0,0,1,11.714,11.812l.022.977a9.693,9.693,0,0,0,.682,3.358l1.572,3.959a1.8,1.8,0,0,1-1.675,2.468h-.565l.023,6.866a4.762,4.762,0,0,1-4.426,4.878c-1.695.2-2.843,1.273-2.732,2.875l.391,7.351-18.126.481S1735.411,650.4,1735.411,646.445Z" transform="translate(-1733.823 -620.963)" fill="#f492b8"/>
      <path id="Trazado_726630" data-name="Trazado 726630" d="M1733.618,666.175l18.136-.481a.4.4,0,0,0,.384-.416l-.392-7.351c-.092-1.338.821-2.279,2.384-2.461a5.163,5.163,0,0,0,4.775-5.279l-.022-6.462h.168a2.2,2.2,0,0,0,2.042-3.009l-1.572-3.959a9.273,9.273,0,0,1-.654-3.221l-.022-.977a12.31,12.31,0,0,0-12.1-12.2,12.464,12.464,0,0,0-11.374,7.35l-.321.7c-1.011,2.192-.841,8.545-.7,13.65.038,1.425.074,2.771.074,3.785,0,3.9-1.18,19.75-1.192,19.909a.4.4,0,0,0,.394.425Zm17.709-1.261-17.283.459c.191-2.595,1.161-15.972,1.161-19.532,0-1.025-.036-2.376-.074-3.807-.127-4.757-.3-11.273.633-13.3l.321-.7a11.668,11.668,0,0,1,10.5-6.891h.143a11.517,11.517,0,0,1,11.323,11.418l.022.984a10.054,10.054,0,0,0,.71,3.5l1.573,3.959a1.407,1.407,0,0,1-1.308,1.927h-.564a.4.4,0,0,0-.4.4l.023,6.867a4.357,4.357,0,0,1-4.085,4.484,3.126,3.126,0,0,0-3.072,3.294Z" transform="translate(-1733.223 -620.358)" fill="#130f40"/>
    </g>
    <g id="Grupo_960009" data-name="Grupo 960009" transform="translate(71.633 34.827)">
      <path id="Trazado_726631" data-name="Trazado 726631" d="M1758.7,702.126a13.79,13.79,0,0,0,2.32-.2.4.4,0,0,0-.133-.78c-4.259.726-7.838-.647-9.819-3.767a.4.4,0,0,0-.668.424A9.431,9.431,0,0,0,1758.7,702.126Z" transform="translate(-1750.336 -697.193)" fill="#130f40"/>
    </g>
    <g id="Grupo_960010" data-name="Grupo 960010" transform="translate(60.124 42.276)">
      <path id="Trazado_726632" data-name="Trazado 726632" d="M1749.86,717.036l17.852,2.878,3.555,13.856-8.463-5.1-5.058,6.435-9.383-10.68Z" transform="translate(-1747.968 -716.64)" fill="#99b4ff"/>
      <path id="Trazado_726633" data-name="Trazado 726633" d="M1757.141,734.892a.4.4,0,0,0,.311-.151l4.842-6.161,8.163,4.924a.4.4,0,0,0,.587-.437l-3.554-13.857a.4.4,0,0,0-.32-.292l-17.852-2.878a.394.394,0,0,0-.45.312l-1.5,7.387a.4.4,0,0,0,.09.339l9.383,10.68A.4.4,0,0,0,1757.141,734.892Zm5.059-7.226a.4.4,0,0,0-.311.151l-4.765,6.061-8.939-10.175,1.383-6.822,17.221,2.777,3.25,12.67-7.635-4.6A.4.4,0,0,0,1762.2,727.667Z" transform="translate(-1747.364 -716.035)" fill="#130f40"/>
    </g>
    <g id="Grupo_960011" data-name="Grupo 960011" transform="translate(57.656 0)">
      <path id="Trazado_726634" data-name="Trazado 726634" d="M1735.839,611.024h18.5a12.732,12.732,0,0,0,4.778-.926c2.077,4.786,1.254,8.518-3.774,10.723l-10.654,2.844a5.231,5.231,0,0,0-3.84,4.7c-.247,3.36-.891,5.147-2.01,5.048a6.211,6.211,0,0,0-.445-1.807c-.805-1.959-2.351-3.179-3.453-2.726s-1.342,2.408-.536,4.366a12.026,12.026,0,0,1,.138,8.943l-3.959,4.166c-2.236-2.236.548-6.118-.385-9.1l-3.46-11.074C1724.228,617.051,1727.6,610.933,1735.839,611.024Z" transform="translate(-1725.538 -609.703)" fill="#130f40"/>
      <path id="Trazado_726635" data-name="Trazado 726635" d="M1729.981,646.152a.4.4,0,0,0,.286-.123l3.959-4.166a.4.4,0,0,0,.082-.131,12.4,12.4,0,0,0-.142-9.237,5.231,5.231,0,0,1-.42-2.548,1.217,1.217,0,0,1,2.184-.9,5.233,5.233,0,0,1,1.494,2.107,5.788,5.788,0,0,1,.417,1.692.4.4,0,0,0,.359.359,1.315,1.315,0,0,0,1-.329c.775-.66,1.233-2.276,1.44-5.084a4.849,4.849,0,0,1,3.548-4.352l10.654-2.843a.488.488,0,0,0,.057-.02c4.937-2.165,6.275-5.948,3.977-11.243a.4.4,0,0,0-.5-.214,12.308,12.308,0,0,1-4.627.9h-18.511c-3.688-.033-6.567,1.15-8.334,3.443-2.143,2.78-2.551,7.118-1.15,12.218l3.464,11.088a8.363,8.363,0,0,1-.174,3.949c-.378,1.913-.768,3.891.657,5.315A.394.394,0,0,0,1729.981,646.152Zm3.618-4.776-3.6,3.791c-.8-1.114-.5-2.662-.176-4.292a8.92,8.92,0,0,0,.153-4.338l-3.46-11.075c-1.33-4.841-.97-8.934,1.018-11.512,1.61-2.089,4.284-3.171,7.7-3.135h18.5a12.383,12.383,0,0,0,4.559-.823c1.916,4.689.708,7.914-3.685,9.852l-10.624,2.835a5.639,5.639,0,0,0-4.132,5.058c-.231,3.131-.76,4.2-1.164,4.54a.74.74,0,0,1-.11.078,6.6,6.6,0,0,0-.421-1.5,6.023,6.023,0,0,0-1.736-2.427,1.982,1.982,0,0,0-3.458,1.422,6.025,6.025,0,0,0,.474,2.946A11.619,11.619,0,0,1,1733.6,641.376Z" transform="translate(-1724.936 -609.098)" fill="#130f40"/>
    </g>
    <g id="Grupo_960012" data-name="Grupo 960012" transform="translate(78.429 32.249)">
      <path id="Trazado_726636" data-name="Trazado 726636" d="M1745.239,691.463h5.594a.4.4,0,1,0,0-.791h-5.594a.4.4,0,1,0,0,.791Z" transform="translate(-1744.844 -690.672)" fill="#130f40"/>
    </g>
    <g id="Grupo_960013" data-name="Grupo 960013" transform="translate(9.56 370.567)">
      <path id="Trazado_726637" data-name="Trazado 726637" d="M1867.962,1547.435c1.178,4.882,4.244,9.635,8.566,11.071,4.632,1.54,6.19,4.685,5.926,8.571H1848.67l1.885-19.642Z" transform="translate(-1848.275 -1547.04)" fill="#130f40"/>
      <path id="Trazado_726638" data-name="Trazado 726638" d="M1848.067,1566.868h33.783a.4.4,0,0,0,.394-.368c.305-4.486-1.779-7.5-6.2-8.973-3.766-1.252-7.027-5.488-8.306-10.789a.4.4,0,0,0-.384-.3h-17.406a.4.4,0,0,0-.393.357l-1.886,19.642a.4.4,0,0,0,.394.433Zm33.408-.791H1848.5l1.81-18.852h16.738c1.124,4.361,3.982,9.466,8.75,11.051C1879.763,1559.6,1881.623,1562.149,1881.475,1566.078Z" transform="translate(-1847.671 -1546.435)" fill="#130f40"/>
    </g>
    <g id="Grupo_960014" data-name="Grupo 960014" transform="translate(130.208 370.567)">
      <path id="Trazado_726639" data-name="Trazado 726639" d="M1531.575,1547.435l11.245,7.656a9.353,9.353,0,0,0,2.624,1.246l7.383,2.169a9.424,9.424,0,0,1,6.749,8.571h-45.407v-19.642Z" transform="translate(-1513.774 -1547.04)" fill="#130f40"/>
      <path id="Trazado_726640" data-name="Trazado 726640" d="M1513.564,1566.868h45.406a.4.4,0,0,0,.4-.406,9.775,9.775,0,0,0-7.033-8.939l-7.383-2.169a8.934,8.934,0,0,1-2.513-1.193l-11.246-7.657a.4.4,0,0,0-.223-.068h-17.405a.4.4,0,0,0-.4.4v19.642A.4.4,0,0,0,1513.564,1566.868Zm44.99-.791h-44.594v-18.852h16.888l11.145,7.588a9.723,9.723,0,0,0,2.735,1.3l7.383,2.169A9,9,0,0,1,1558.554,1566.078Z" transform="translate(-1513.169 -1546.435)" fill="#130f40"/>
    </g>
    <path id="Trazado_726641" data-name="Trazado 726641" d="M1752.68,662.6a.775.775,0,0,0,.777-.773l0-1.385a.775.775,0,0,0-1.55,0l0,1.385A.775.775,0,0,0,1752.68,662.6Z" transform="translate(-1671.439 -639.674)" fill="#130f40"/>
    <g id="Grupo_960015" data-name="Grupo 960015" transform="translate(79.154 16.9)">
      <path id="Trazado_726642" data-name="Trazado 726642" d="M1753.688,653.194a.4.4,0,0,0,.085-.781l-2.53-.556a.4.4,0,1,0-.17.772l2.53.556A.389.389,0,0,0,1753.688,653.194Z" transform="translate(-1750.762 -651.846)" fill="#130f40"/>
    </g>
    <g id="Grupo_960020" data-name="Grupo 960020" transform="translate(66.246 20.343)">
      <g id="Grupo_960016" data-name="Grupo 960016" transform="translate(7.461 0)">
        <path id="Trazado_726643" data-name="Trazado 726643" d="M1740.48,661.556l4.508,8.083a13.337,13.337,0,0,1-6.82,9.273l-10.8-5.451a10.463,10.463,0,0,0,0-9.4C1733.732,666.408,1738.929,665.6,1740.48,661.556Z" transform="translate(-1726.97 -661.161)" fill="#fff"/>
        <path id="Trazado_726644" data-name="Trazado 726644" d="M1737.563,678.7a.4.4,0,0,0,.2-.052,13.775,13.775,0,0,0,7.011-9.538.4.4,0,0,0-.042-.271l-4.508-8.083a.4.4,0,0,0-.373-.2.4.4,0,0,0-.341.253c-1.435,3.742-6.266,4.614-12.608,2.276a.4.4,0,0,0-.479.569,10.056,10.056,0,0,1-.017,9.037.4.4,0,0,0,.181.518l10.8,5.451A.4.4,0,0,0,1737.563,678.7Zm6.4-9.6a12.976,12.976,0,0,1-6.416,8.76l-10.276-5.185a11.13,11.13,0,0,0,.271-8.525c5.937,1.947,10.542,1.075,12.365-2.323Z" transform="translate(-1726.366 -660.556)" fill="#130f40"/>
      </g>
      <g id="Grupo_960017" data-name="Grupo 960017" transform="translate(0 4.265)">
        <path id="Trazado_726645" data-name="Trazado 726645" d="M1778.8,679.776a.4.4,0,0,0,.2-.738,19.117,19.117,0,0,1-7.311-7.489.4.4,0,0,0-.693.381,19.9,19.9,0,0,0,7.611,7.793A.394.394,0,0,0,1778.8,679.776Z" transform="translate(-1770.939 -671.344)" fill="#130f40"/>
      </g>
      <g id="Grupo_960018" data-name="Grupo 960018" transform="translate(3.73 0.526)">
        <path id="Trazado_726646" data-name="Trazado 726646" d="M1775.065,664.657a.4.4,0,0,0,.186-.744l-3.731-1.979a.4.4,0,0,0-.371.7l3.731,1.979A.4.4,0,0,0,1775.065,664.657Z" transform="translate(-1770.939 -661.887)" fill="#130f40"/>
      </g>
      <g id="Grupo_960019" data-name="Grupo 960019" transform="translate(15.198 5.097)">
        <path id="Trazado_726647" data-name="Trazado 726647" d="M1743.02,678.548a2.55,2.55,0,1,0-2.55-2.55A2.553,2.553,0,0,0,1743.02,678.548Zm0-4.309a1.759,1.759,0,1,1-1.759,1.759A1.761,1.761,0,0,1,1743.02,674.24Z" transform="translate(-1740.47 -673.449)" fill="#130f40"/>
      </g>
    </g>
  </g>
</svg>
