<svg xmlns="http://www.w3.org/2000/svg" width="294.059" height="320.277" viewBox="0 0 294.059 320.277">
  <g id="Grupo_960519" data-name="Grupo 960519" transform="translate(-285 -2177)">
    <path id="Trazado_727056" data-name="Trazado 727056" d="M743.767,296.074c19.049,5.582,37.161,17.632,45.325,35.725,4.116,9.125,5.576,19.409,10.755,27.977,8.3,13.74,24.72,20.82,33.621,34.182,10.872,16.322,8.155,37.8,5.019,57.158l-12.45,76.814c-2.335,14.406-5.511,30.269-17.166,39.049-10.321,7.779-24.36,7.711-37.278,7.308q-75.936-2.371-151.872-4.738c-9.3-.293-19.2-.773-26.812-6.134-12.545-8.842-13.7-26.677-13.639-42.026q.227-58.629.456-117.253c.059-14.908,1.078-31.923,12.712-41.243,10.318-8.272,26.64-8.124,34.314-18.9,8.124-11.405,2.875-27.142,10.6-39.016,6.445-9.9,20.108-17.45,31.729-19.175,9.569-1.42,18.975,1.753,28.313,3.37C712.873,291.856,728.563,291.622,743.767,296.074Z" transform="translate(-267.404 1905.695)" fill="#d9e2f4"/>
    <g id="Grupo_960238" data-name="Grupo 960238" transform="translate(285 2177)">
      <g id="Grupo_960199" data-name="Grupo 960199" transform="translate(224.025 107.471)">
        <path id="Trazado_727057" data-name="Trazado 727057" d="M596.75,355.785c0,2.124,6.7,3.842,14.936,3.842s14.917-1.718,14.917-3.842v-.038c-.019-12.911-9.59-17.755-10.825-35.409-.019-.426-.038-.851-.057-1.292a.23.23,0,0,0-.153-.038h-7.758a.23.23,0,0,0-.153.038c-.019.441-.038.867-.057,1.292-1.235,17.616-10.768,22.479-10.829,35.352C596.769,355.728,596.75,355.747,596.75,355.785Z" transform="translate(-596.75 -319.007)" fill="#b5cfe0"/>
        <path id="Trazado_727058" data-name="Trazado 727058" d="M599.452,319.7a.648.648,0,0,0,.464.637.385.385,0,0,0,.211.058h7.758a.385.385,0,0,0,.211-.058.648.648,0,0,0,.464-.637.663.663,0,0,0-.522-.656.23.23,0,0,0-.153-.038h-7.758a.23.23,0,0,0-.153.038A.663.663,0,0,0,599.452,319.7Z" transform="translate(-589.068 -319.007)" fill="#a3c3d8"/>
      </g>
      <g id="Grupo_960201" data-name="Grupo 960201" transform="translate(203.253 107.471)">
        <g id="Grupo_960200" data-name="Grupo 960200">
          <path id="Trazado_727059" data-name="Trazado 727059" d="M602.167,355.785c0,2.124,6.7,3.842,14.936,3.842s14.917-1.718,14.917-3.842v-.038c-.019-12.911-9.59-17.755-10.825-35.409-.019-.426-.038-.851-.061-1.292a.226.226,0,0,0-.154-.038h-7.757a.231.231,0,0,0-.154.038c-.019.441-.038.867-.058,1.292-1.235,17.616-10.767,22.479-10.825,35.352C602.186,355.728,602.167,355.747,602.167,355.785Z" transform="translate(-602.167 -319.007)" fill="#a3c3d8"/>
          <path id="Trazado_727060" data-name="Trazado 727060" d="M602.673,345.285c1,.809,5.537,2.2,12.965,2.2,7.489,0,12.045-1.407,12.988-2.216-.077-5.6-2.082-9.571-4.418-14.146a74.029,74.029,0,0,1-3.842-8.509h-9.433a69.188,69.188,0,0,1-3.842,8.49C604.755,335.714,602.73,339.687,602.673,345.285Z" transform="translate(-600.713 -308.791)" fill="#6278a1"/>
          <path id="Trazado_727061" data-name="Trazado 727061" d="M604.869,319.7a.653.653,0,0,0,.464.637.387.387,0,0,0,.211.058H613.3a.409.409,0,0,0,.215-.058.653.653,0,0,0,.464-.637.666.666,0,0,0-.525-.656.226.226,0,0,0-.154-.038h-7.757a.231.231,0,0,0-.154.038A.666.666,0,0,0,604.869,319.7Z" transform="translate(-594.489 -319.007)" fill="#a3c3d8"/>
        </g>
        <path id="Trazado_727062" data-name="Trazado 727062" d="M604.875,323.393c0,.583,2.036,1.058,4.544,1.058s4.544-.476,4.544-1.058-2.033-1.058-4.544-1.058S604.875,322.807,604.875,323.393Z" transform="translate(-594.494 -309.573)" fill="#8193b4"/>
      </g>
      <g id="Grupo_960203" data-name="Grupo 960203" transform="translate(249.633 107.471)">
        <g id="Grupo_960202" data-name="Grupo 960202">
          <path id="Trazado_727063" data-name="Trazado 727063" d="M590.072,355.785c0,2.124,6.7,3.842,14.936,3.842s14.917-1.718,14.917-3.842v-.038c-.019-12.911-9.587-17.755-10.825-35.409l-.057-1.292a.231.231,0,0,0-.153-.038h-7.758a.231.231,0,0,0-.153.038c-.019.441-.038.867-.058,1.292-1.235,17.616-10.768,22.479-10.829,35.352C590.091,355.728,590.072,355.747,590.072,355.785Z" transform="translate(-590.072 -319.007)" fill="#a3c3d8"/>
          <path id="Trazado_727064" data-name="Trazado 727064" d="M590.578,336.1c1,.809,5.537,2.2,12.988,2.2,7.466,0,12.022-1.407,12.965-2.216a22.335,22.335,0,0,0-1.756-8.436.309.309,0,0,0-.058-.173c-.579-.9-5.365-1.622-11.174-1.622-5.767,0-10.514.7-11.151,1.6a.246.246,0,0,0-.077.192A22.892,22.892,0,0,0,590.578,336.1Z" transform="translate(-588.618 -299.607)" fill="#f9a806"/>
          <path id="Trazado_727065" data-name="Trazado 727065" d="M592.774,319.7a.648.648,0,0,0,.464.637.387.387,0,0,0,.211.058h7.758a.385.385,0,0,0,.211-.058.648.648,0,0,0,.464-.637.663.663,0,0,0-.521-.656.231.231,0,0,0-.153-.038h-7.758a.231.231,0,0,0-.153.038A.663.663,0,0,0,592.774,319.7Z" transform="translate(-582.39 -319.007)" fill="#a3c3d8"/>
        </g>
        <path id="Trazado_727066" data-name="Trazado 727066" d="M591.036,327.646c0,.985,5.035,1.8,11.228,1.8s11.232-.813,11.232-1.8a.309.309,0,0,0-.058-.173c-.579-.9-5.365-1.622-11.174-1.622-5.767,0-10.514.7-11.151,1.6A.246.246,0,0,0,591.036,327.646Z" transform="translate(-587.339 -299.607)" fill="#f9bd38"/>
      </g>
      <path id="Trazado_727067" data-name="Trazado 727067" d="M624.865,315.677,618.1,326.071l-9.263-6.145,10.109-9.173Z" transform="translate(-417.344 -234.934)" fill="#f9bd38"/>
      <path id="Trazado_727068" data-name="Trazado 727068" d="M618.5,326.495l7.773,2.489a4.868,4.868,0,0,1,2.953,4.536h0a1.54,1.54,0,0,1-1.538,1.538h-6.546l-1.99-4.126Z" transform="translate(-458.765 -190.31)" fill="#f9a806"/>
      <path id="Trazado_727069" data-name="Trazado 727069" d="M626.133,326.525l9.889.792v7.657H625.156l-1.917-6.455Z" transform="translate(-483.721 -190.225)" fill="#f9bd38"/>
      <path id="Trazado_727070" data-name="Trazado 727070" d="M616.331,317.5h0a35.708,35.708,0,0,0-1.588-6.193L613.42,307.6c-.307-.771-.774-1.269-1.518-.9h0a.591.591,0,0,0-.326.525l-.035,5.311a10.05,10.05,0,0,1-1.361,4.425,14.536,14.536,0,0,0-1.354,2.19,13.493,13.493,0,0,0-.56,3.443l5.752-.844A3.943,3.943,0,0,0,616.331,317.5Z" transform="translate(-406.662 -246.774)" fill="#f9a806"/>
      <g id="Grupo_960204" data-name="Grupo 960204" transform="translate(58.579 69.513)">
        <rect id="Rectángulo_340542" data-name="Rectángulo 340542" width="62.361" height="66.674" transform="translate(6.695)" fill="#d86254"/>
        <rect id="Rectángulo_340543" data-name="Rectángulo 340543" width="11.719" height="66.674" rx="1.31" transform="translate(0)" fill="#ce3b29"/>
      </g>
      <path id="Trazado_727071" data-name="Trazado 727071" d="M621.355,308.911s10.411,1.085,15.25,6.143c15.1,15.768,31.084,46.725,31.084,46.725l-11.88,6.155s-28.365-27.751-33.1-35.455C615.818,321.285,621.355,308.911,621.355,308.911Z" transform="translate(-500.091 -240.154)" fill="#ef8d72"/>
      <path id="Trazado_727072" data-name="Trazado 727072" d="M607.4,358.99a7.255,7.255,0,0,0,2.278,3.551,7.48,7.48,0,0,0,5.02,1.906h94.317a7.653,7.653,0,0,0,7.159-5.054,18.049,18.049,0,0,0,.506-11.615,7.563,7.563,0,0,0-7.232-5.254H614.259a7.568,7.568,0,0,0-7.362,5.691A20.22,20.22,0,0,0,607.4,358.99Z" transform="translate(-500.433 -144.873)" fill="#d86254"/>
      <path id="Trazado_727073" data-name="Trazado 727073" d="M628.978,359a7.683,7.683,0,0,0,7.328,5.453h55.227a7.466,7.466,0,0,0,4.985-1.906,7.609,7.609,0,0,0,2.174-3.183,17.9,17.9,0,0,0,.5-11.577,7.446,7.446,0,0,0-3.95-4.521,8.424,8.424,0,0,0-2.542-.7,5.283,5.283,0,0,0-.736-.034H635.872a8.546,8.546,0,0,0-.97.069,6.517,6.517,0,0,0-1.81.468,7.6,7.6,0,0,0-3.647,2.98,6.635,6.635,0,0,0-.935,2.174A20.6,20.6,0,0,0,628.978,359Z" transform="translate(-565.828 -144.862)" fill="#ce3b29"/>
      <g id="Grupo_960220" data-name="Grupo 960220" transform="translate(68.327 219.566)">
        <g id="Grupo_960208" data-name="Grupo 960208" transform="translate(50.832)">
          <g id="Grupo_960207" data-name="Grupo 960207" transform="translate(2.426)">
            <g id="Grupo_960206" data-name="Grupo 960206">
              <g id="Grupo_960205" data-name="Grupo 960205">
                <path id="Trazado_727074" data-name="Trazado 727074" d="M639.418,348.239l-.462,85.81H628.368l.461-85.381Z" transform="translate(-628.368 -348.239)" fill="#898994"/>
              </g>
            </g>
          </g>
          <path id="Trazado_727075" data-name="Trazado 727075" d="M643.977,348.239v12.439a1.529,1.529,0,0,1-1.522,1.534H629.141a1.532,1.532,0,0,1-1.526-1.534V348.239Z" transform="translate(-627.615 -348.239)" fill="#45464b"/>
        </g>
        <g id="Grupo_960213" data-name="Grupo 960213" transform="translate(0 74.799)">
          <g id="Grupo_960212" data-name="Grupo 960212" transform="translate(1.783 12.417)">
            <g id="Grupo_960211" data-name="Grupo 960211" transform="translate(0)">
              <g id="Grupo_960209" data-name="Grupo 960209" transform="translate(2.101)">
                <path id="Trazado_727076" data-name="Trazado 727076" d="M650.452,376.631c0-3.118-1.917-5.648-4.279-5.648s-4.28,2.531-4.28,5.648,1.917,5.645,4.28,5.645S650.452,379.749,650.452,376.631Z" transform="translate(-641.893 -370.983)" fill="#45464b"/>
              </g>
              <g id="Grupo_960210" data-name="Grupo 960210">
                <path id="Trazado_727077" data-name="Trazado 727077" d="M651,376.631c0-3.118-1.913-5.648-4.276-5.648s-4.279,2.531-4.279,5.648,1.913,5.645,4.279,5.645S651,379.749,651,376.631Z" transform="translate(-642.442 -370.983)" fill="#45464b"/>
              </g>
            </g>
          </g>
          <path id="Trazado_727078" data-name="Trazado 727078" d="M684.506,378.754s-33.016,1-50.625,7.067a1.986,1.986,0,0,1-2.631-1.883h0a6.46,6.46,0,0,1,4.023-5.99c8.141-3.321,27.636-10.2,49.233-10.2Z" transform="translate(-631.25 -367.745)" fill="#45464b"/>
        </g>
        <g id="Grupo_960215" data-name="Grupo 960215" transform="translate(63.851 74.799)">
          <path id="Trazado_727079" data-name="Trazado 727079" d="M626.314,380.328l-.391-.652a11.456,11.456,0,0,0,.391-3.045c0-3.118-1.112-5.648-2.481-5.648s-2.481,2.531-2.481,5.648,1.112,5.648,2.481,5.648h2.841Z" transform="translate(-599.314 -358.566)" fill="#45464b"/>
          <g id="Grupo_960214" data-name="Grupo 960214">
            <path id="Trazado_727080" data-name="Trazado 727080" d="M620.7,376.631c0-3.118,1.112-5.648,2.481-5.648s2.481,2.531,2.481,5.648-1.112,5.648-2.481,5.648S620.7,379.749,620.7,376.631Z" transform="translate(-595.826 -358.566)" fill="#45464b"/>
            <path id="Trazado_727081" data-name="Trazado 727081" d="M620.436,378.758s19.139,1,29.351,7.064c.748.445,1.522-.518,1.522-1.883h0c0-2.63-.921-5-2.332-5.99-4.721-3.321-16.021-10.2-28.541-10.2Z" transform="translate(-620.436 -367.745)" fill="#45464b"/>
          </g>
        </g>
        <g id="Grupo_960217" data-name="Grupo 960217" transform="translate(22.337 74.799)">
          <g id="Grupo_960216" data-name="Grupo 960216" transform="translate(1.035 12.417)">
            <path id="Trazado_727082" data-name="Trazado 727082" d="M642.614,380.328l-.391-.652a11.461,11.461,0,0,0,.391-3.045c0-3.118-1.108-5.648-2.477-5.648s-2.481,2.531-2.481,5.648,1.108,5.648,2.481,5.648h2.838Z" transform="translate(-637.656 -370.983)" fill="#45464b"/>
            <path id="Trazado_727083" data-name="Trazado 727083" d="M637.009,376.631c0-3.118,1.112-5.648,2.481-5.648s2.481,2.531,2.481,5.648-1.112,5.648-2.481,5.648S637.009,379.749,637.009,376.631Z" transform="translate(-634.171 -370.983)" fill="#45464b"/>
          </g>
          <path id="Trazado_727084" data-name="Trazado 727084" d="M662.138,378.758s-19.142,1-29.35,7.064c-.752.445-1.526-.518-1.526-1.883h0c0-2.63.92-5,2.331-5.99,4.72-3.321,16.025-10.2,28.545-10.2Z" transform="translate(-631.261 -367.745)" fill="#6c6b79"/>
        </g>
        <g id="Grupo_960219" data-name="Grupo 960219" transform="translate(63.851 74.799)">
          <g id="Grupo_960218" data-name="Grupo 960218" transform="translate(40.812 12.417)">
            <path id="Trazado_727085" data-name="Trazado 727085" d="M615.613,376.631c0-3.118,1.914-5.648,4.276-5.648s4.28,2.531,4.28,5.648-1.913,5.645-4.28,5.645S615.613,379.749,615.613,376.631Z" transform="translate(-615.613 -370.983)" fill="#45464b"/>
            <path id="Trazado_727086" data-name="Trazado 727086" d="M615.064,376.631c0-3.118,1.917-5.648,4.279-5.648s4.279,2.531,4.279,5.648-1.917,5.645-4.279,5.645S615.064,379.749,615.064,376.631Z" transform="translate(-612.963 -370.983)" fill="#45464b"/>
          </g>
          <path id="Trazado_727087" data-name="Trazado 727087" d="M614.6,378.754s33.016,1,50.625,7.067a1.986,1.986,0,0,0,2.631-1.883h0a6.458,6.458,0,0,0-4.026-5.99c-8.141-3.321-27.637-10.2-49.229-10.2Z" transform="translate(-614.599 -367.745)" fill="#6c6b79"/>
        </g>
        <path id="Rectángulo_340544" data-name="Rectángulo 340544" d="M.466,0H16.931A.465.465,0,0,1,17.4.465V10.545a.465.465,0,0,1-.465.465H.466A.466.466,0,0,1,0,10.544V.466A.466.466,0,0,1,.466,0Z" transform="translate(49.832 74.799)" fill="#6c6b79"/>
        <path id="Rectángulo_340545" data-name="Rectángulo 340545" d="M.341,0H12.388a.34.34,0,0,1,.34.34V8.055a0,0,0,0,1,0,0H0a0,0,0,0,1,0,0V.341A.341.341,0,0,1,.341,0Z" transform="translate(52.166 66.744)" fill="#45464b"/>
      </g>
      <path id="Trazado_727088" data-name="Trazado 727088" d="M681.957,322.441a13.111,13.111,0,0,1,5.733,4.191,4.648,4.648,0,0,1,.2,5.219c-7.55,12.125-28.465,40.053-41.591,39.006-13.981-1.12-32.257-28.672-32.257-28.672l-4-33.143s17.467-1.837,38.27,41.453c7.42-5.035,23.2-21.232,28.675-26.938A4.549,4.549,0,0,1,681.957,322.441Z" transform="translate(-485.702 -239.811)" fill="#a3c3d8"/>
      <path id="Trazado_727089" data-name="Trazado 727089" d="M609.428,363.01h78.384L683.2,347.579s-28.254-9.571-67.279-12.282Z" transform="translate(-482.55 -165.359)" fill="#6278a1"/>
      <g id="Grupo_960221" data-name="Grupo 960221" transform="translate(72.337 36.979)">
        <path id="Trazado_727090" data-name="Trazado 727090" d="M631.475,336.252l26.06-.338c-5.948-14.173-4.1-35.29-4.1-35.29l-16.807,2.243S638.926,322.083,631.475,336.252Z" transform="translate(-609.152 -300.624)" fill="#ef8d72"/>
        <path id="Trazado_727091" data-name="Trazado 727091" d="M641.354,423.213a76.315,76.315,0,0,0,33.369-1.438c12.953-3.382,18.951-8.647,18.951-8.647-12.486-32.7-4.456-44.267-1.043-51.7a49.926,49.926,0,0,0,2.776-7.128v-.034c1.941-6.726,1.438-13.253-2.88-23.564-1.538-3.681-3.547-7.8-6.09-12.616-.2-.4-.433-.771-.636-1.173a14.536,14.536,0,0,0-3.781-4.349c-.334-.268-.671-.537-1-.771a18.017,18.017,0,0,0-6.492-2.876l-1.776.065h-.034l-3.547.169-12.685.568-3.746.165s-1.407.1-3.582.3c-.3.035-.636.069-1,.1h-.069c-1.538.169-3.378.4-5.384.706-1.308.2-11.117,3.647-13.157,6.661a10.213,10.213,0,0,0-.8,1.269,15.763,15.763,0,0,0-1.039,2.443,14.3,14.3,0,0,0,0,8.536c.468,1.472.936,3.045,1.438,4.72.034.134.1.3.134.433.169.568.338,1.173.5,1.776.3.97.568,1.975.87,3.01,2.577,9.406,3.881,16.132,4.084,22.962.065,1.841.034,3.681-.069,5.587a122.948,122.948,0,0,1-2.2,16.167c-.035.2-5.154,19.376-6.462,25.033-.034.2-.065.372-.1.537C624.221,418.024,629.977,421,641.354,423.213Z" transform="translate(-625.608 -277.116)" fill="#c9dbe9"/>
      </g>
      <path id="Trazado_727092" data-name="Trazado 727092" d="M678.43,330.1c1,6.546-3.252,15.8-6.216,19.453-1.879.978-8.007,1.089-8.007,1.089-16.455-3.447-19.959-9.759-19.959-9.759l-1.607-8.935s-10.407-4.314-12.977-11.73c-8.01-27.479,24.2-32.3,34.949-27.257C676.49,298.925,675.6,315.4,675.3,318.9c-.168,1.933.537,3.424,1.35,5.326a24.188,24.188,0,0,1,1.607,4.9C678.322,329.441,678.376,329.763,678.43,330.1Z" transform="translate(-546.064 -290.36)" fill="#fba284"/>
      <path id="Trazado_727093" data-name="Trazado 727093" d="M653.694,321.459l.767-1.223L636.1,308.716a4.054,4.054,0,0,1,4-7.044l18.387,9.391.66-1.288-18.391-9.391a5.5,5.5,0,0,0-5.422,9.56Z" transform="translate(-543.297 -266.054)" fill="#a3c3d8"/>
      <path id="Trazado_727094" data-name="Trazado 727094" d="M637.156,302.145s3.06,15.653,11.657,21.34c-2.968-5.5-6.12-16.972-2.163-24.837C643.322,296.891,637.156,302.145,637.156,302.145Z" transform="translate(-549.878 -270.266)" fill="#362f41"/>
      <path id="Trazado_727095" data-name="Trazado 727095" d="M664.813,292.922a30.7,30.7,0,0,0-19.039-.863c-19.277,4.548-17.931,16.489-17.931,16.489l2.473-4.364c-5.813,19.971,5.476,32.43,9.238,34.711-1.519-1.986-3.582-13.621-1.223-18.115-.395,6.239.755,14.928,4.072,20.017,3.294,3.77,9.836,8.153,9.836,8.153-9.836-8.153-8.091-22-6.814-25.366-.119,20.228,9.169,27.153,13.034,28.91-11.8-11.834-11.926-35.82-.207-38.787,10.817-2.738,9.2-9.169,9.2-9.169s8.816,3.286,11.289,23.334a63.944,63.944,0,0,0-2.274-21.309c1.9,3.386,4.7,17.724,4.563,26.682C681.774,327.488,685.4,299.817,664.813,292.922Z" transform="translate(-547.023 -290.981)" fill="#433f4d"/>
      <g id="Grupo_960222" data-name="Grupo 960222" transform="translate(114.818 50.784)">
        <path id="Trazado_727096" data-name="Trazado 727096" d="M630.589,304.282a6.222,6.222,0,0,0,3.156.322,3.109,3.109,0,0,1,2.492.372,4.419,4.419,0,0,1,1.265-.383c.38.023,1.131.4,2.013.579a6.435,6.435,0,0,1-4.433,1.219A9.394,9.394,0,0,1,630.589,304.282Z" transform="translate(-630.217 -304.06)" fill="#ef8d72"/>
        <path id="Trazado_727097" data-name="Trazado 727097" d="M630.5,304.224a11.528,11.528,0,0,0,1.116.548,10.889,10.889,0,0,0,1.166.418,11.945,11.945,0,0,0,2.427.456,14.79,14.79,0,0,0,2.473,0l.617-.061c.1-.008.207-.023.31-.038l.307-.046.306-.042c.1-.015.2-.038.307-.057.2-.038.407-.077.613-.111a15.212,15.212,0,0,1-2.447.5,12.694,12.694,0,0,1-2.5.038,10.729,10.729,0,0,1-2.454-.5,9.864,9.864,0,0,1-1.162-.476A9.495,9.495,0,0,1,630.5,304.224Z" transform="translate(-630.499 -304.224)" fill="#ef8d72"/>
      </g>
      <path id="Trazado_727098" data-name="Trazado 727098" d="M655.6,317.4c8.613-3.62-1.407-8.467-1.407-8.467h-.015l-20,.909s-1.384.088-3.581.314C629.211,313.9,647,321.021,655.6,317.4Z" transform="translate(-534.724 -240.089)" fill="#ef8d72"/>
      <path id="Trazado_727099" data-name="Trazado 727099" d="M625.308,409.849c.1.034.2.034.3.065,9,2.078,31.8,9.61,48.731,12.186,7.462,1.1,13.789,1.3,17.336-.337,5.875-2.692,6.2-5.2,5.05-7.029-2.581-4.126-4.8-8.444-5.583-13.249-.659-4.057-1.507-9.525-2.546-16.738,0,0-2.408-8.6,4.989-25.3a21.331,21.331,0,0,0,1.438-4.82v-.035c1.239-6.929-.1-15.6-2.88-23.564a58.087,58.087,0,0,0-6.09-12.616,33.191,33.191,0,0,0-4.417-5.522,14.775,14.775,0,0,0-5.622-3.681c-2.412-.97-3.651.1-3.651.1a20.28,20.28,0,0,1,3.581,2.343c3.781,2.979,9.437,9.238,10.541,20.316a11.809,11.809,0,0,1-5.756,11.347l-.034.031a12.044,12.044,0,0,1-5.587,1.641h-.268a19.549,19.549,0,0,1-5.622-.637,19.905,19.905,0,0,1-11.814-8.164,66.219,66.219,0,0,1-4.521-7.6.55.55,0,0,1-.065-.1.094.094,0,0,0-.035-.065c-2.711-5.392-4.885-11.615-4.851-17.808H647.7a15.112,15.112,0,0,0-5.384.706c.264,2.04.667,4.214,1.135,6.492.1.468.2.936.3,1.4,1.538,7.3,3.612,15.465,4.517,22.793.065.6.134,1.208.2,1.81a41.377,41.377,0,0,1,.269,4.92,29.328,29.328,0,0,1-.3,4.314c-.035.169-.069.337-.1.5a9.744,9.744,0,0,1-.3,1.442c-.1.4-.234.8-.368,1.2-1.676,4.82-5.622,7.666-13.322,6.929a4.818,4.818,0,0,1-.667-.069,54.972,54.972,0,0,0-.706,5.591C632.4,375.844,631.463,388.229,625.308,409.849Z" transform="translate(-552.886 -240.463)" fill="#6278a1"/>
      <g id="Grupo_960223" data-name="Grupo 960223" transform="translate(185.79 182.209)">
        <path id="Trazado_727100" data-name="Trazado 727100" d="M605.914,367.284c0-21.654,7.742-28.787,14.863-28.787,2.117,0,20.193,6.373,17.881,25.585-6.1,50.66-5.894,53.068-6.914,93.937H615.363C612.7,425.329,605.914,400.645,605.914,367.284Z" transform="translate(-605.914 -338.497)" fill="#6278a1"/>
        <path id="Trazado_727101" data-name="Trazado 727101" d="M621.992,369.666c2.937,3.39,13.149,5.959,16.489,7.573a6.25,6.25,0,0,1,3.324,7.175h0a2.26,2.26,0,0,1-2.186,1.7H603.328a19.55,19.55,0,0,1,.944-13.475l1.338-2.972Z" transform="translate(-596.162 -250.144)" fill="#3b4a62"/>
      </g>
      <g id="Grupo_960224" data-name="Grupo 960224" transform="translate(66.599 167.959)">
        <path id="Trazado_727102" data-name="Trazado 727102" d="M620.752,370.306c0-21.654,7.742-32.875,14.859-32.875a10.8,10.8,0,0,1,5.936,1.837s15.181,5.441,13.383,20.623c-5.99,50.675-7.332,60.281-8.348,101.15H630.2C627.544,428.351,620.752,403.667,620.752,370.306Z" transform="translate(-559.84 -327.269)" fill="#6278a1"/>
        <path id="Trazado_727103" data-name="Trazado 727103" d="M626.576,335.966a103.328,103.328,0,0,1,20.412-.936c23.1,1.461,50.315,9.51,51.833,9.962a11.334,11.334,0,0,1,3.639,1.545s15.181,5.438,13.383,20.623c-5.99,50.675-7.332,60.281-8.348,101.15H691.113c-2.657-32.69-9.448-57.374-9.448-90.732a72.413,72.413,0,0,1,1.158-13.333H624.2a8.532,8.532,0,0,0-.97.069,6.517,6.517,0,0,0-1.81.468A42.862,42.862,0,0,1,626.576,335.966Z" transform="translate(-620.752 -334.539)" fill="#6278a1"/>
        <path id="Trazado_727104" data-name="Trazado 727104" d="M687.488,352.689a.406.406,0,0,0,.292-.119.418.418,0,0,0,.007-.591,24.769,24.769,0,0,0-8.344-5.552,11.649,11.649,0,0,0-3.77-1.6c-1.139-.341-28.767-8.509-51.9-9.974-.441-.031-.882-.054-1.319-.073h-.019a.415.415,0,0,0-.418.4.419.419,0,0,0,.4.437c.433.019.867.042,1.308.069,23.035,1.461,50.575,9.6,51.737,9.947a11.024,11.024,0,0,1,3.528,1.5,24.481,24.481,0,0,1,8.2,5.434A.415.415,0,0,0,687.488,352.689Z" transform="translate(-597.51 -334.781)" fill="#2b3954" opacity="0.25"/>
        <path id="Trazado_727105" data-name="Trazado 727105" d="M638.7,369.666c2.937,3.39,7.347,5.959,10.683,7.573a6.245,6.245,0,0,1,3.325,7.175h0a2.256,2.256,0,0,1-2.186,1.7H620.037a19.573,19.573,0,0,1,.947-13.475l1.338-2.972Z" transform="translate(-551.962 -235.894)" fill="#3b4a62"/>
      </g>
      <path id="Trazado_727106" data-name="Trazado 727106" d="M607.886,321.552c1.289-1.933,3.194-9.015,3.194-9.015a2.232,2.232,0,0,0-.023-1.269l-1.8-5.679a.259.259,0,0,0-.338-.169h0a1.516,1.516,0,0,0-.963,1.58l.521,4.878-2.661,7.017Z" transform="translate(-392.059 -250.096)" fill="#f9a806"/>
      <path id="Trazado_727107" data-name="Trazado 727107" d="M613.455,319.657l-1.284-8.164a2.07,2.07,0,0,0-.564-1.1l-4.076-4.115a.261.261,0,0,0-.38.011h0a1.51,1.51,0,0,0-.2,1.833l2.569,4.023.583,7.389Z" transform="translate(-397.831 -247.824)" fill="#f9a806"/>
      <path id="Trazado_727108" data-name="Trazado 727108" d="M609.512,320.933l1.753-8.383a2.273,2.273,0,0,0-.1-1.262l-2.128-5.541a.254.254,0,0,0-.345-.146h0a1.524,1.524,0,0,0-.874,1.63l.8,4.828-2.262,7.155Z" transform="translate(-394.288 -249.599)" fill="#f9a806"/>
      <path id="Trazado_727109" data-name="Trazado 727109" d="M632.921,341.208a11.81,11.81,0,0,0,5.756-11.347c-1.1-11.078-6.76-17.336-10.541-20.316l-.035.134S645.94,329.493,632.921,341.208Z" transform="translate(-505.076 -238.357)" fill="#a3c3d8"/>
      <g id="Grupo_960228" data-name="Grupo 960228" transform="translate(10.131 98.927)">
        <path id="Trazado_727110" data-name="Trazado 727110" d="M649.754,324.62a2.763,2.763,0,1,0,2.761-2.761A2.762,2.762,0,0,0,649.754,324.62Z" transform="translate(-614.785 -302.378)" fill="#819ac1"/>
        <path id="Trazado_727111" data-name="Trazado 727111" d="M651.9,324.465a2.763,2.763,0,1,0,2.761-2.765A2.759,2.759,0,0,0,651.9,324.465Z" transform="translate(-625.155 -302.829)" fill="#618d77"/>
        <path id="Trazado_727112" data-name="Trazado 727112" d="M653.34,324.71a2.763,2.763,0,1,0,2.761-2.765A2.759,2.759,0,0,0,653.34,324.71Z" transform="translate(-632.122 -302.134)" fill="#819ac1"/>
        <path id="Trazado_727113" data-name="Trazado 727113" d="M654.8,324.572a2.763,2.763,0,1,0,2.765-2.765A2.762,2.762,0,0,0,654.8,324.572Z" transform="translate(-639.175 -302.526)" fill="#c9dbe9"/>
        <rect id="Rectángulo_340546" data-name="Rectángulo 340546" width="7.663" height="1.978" transform="translate(25.438 1.322)" fill="#819ac1"/>
        <rect id="Rectángulo_340547" data-name="Rectángulo 340547" width="7.663" height="2.312" transform="translate(18.348 0.478)" fill="#acdac2"/>
        <rect id="Rectángulo_340548" data-name="Rectángulo 340548" width="7.663" height="2.312" transform="translate(12.276 1.156)" fill="#d3dceb"/>
        <rect id="Rectángulo_340549" data-name="Rectángulo 340549" width="6.047" height="3.873" transform="translate(7.488)" fill="#d3dceb"/>
        <rect id="Rectángulo_340550" data-name="Rectángulo 340550" width="2.65" height="41.871" transform="translate(43.632 3.873)" fill="#819ac1"/>
        <rect id="Rectángulo_340551" data-name="Rectángulo 340551" width="2.649" height="41.871" transform="translate(1.679 3.873)" fill="#819ac1"/>
        <rect id="Rectángulo_340552" data-name="Rectángulo 340552" width="2.65" height="41.871" transform="translate(53.622 3.873)" fill="#dce3ef"/>
        <rect id="Rectángulo_340553" data-name="Rectángulo 340553" width="2.65" height="41.871" transform="translate(11.667 3.873)" fill="#dce3ef"/>
        <path id="Trazado_727114" data-name="Trazado 727114" d="M648.746,324.62a2.763,2.763,0,1,0,2.761-2.761A2.763,2.763,0,0,0,648.746,324.62Z" transform="translate(-609.911 -302.378)" fill="#618d77"/>
        <g id="Grupo_960225" data-name="Grupo 960225" transform="translate(0 40.087)">
          <rect id="Rectángulo_340554" data-name="Rectángulo 340554" width="43.494" height="5.734" fill="#819ac1"/>
          <rect id="Rectángulo_340555" data-name="Rectángulo 340555" width="43.495" height="5.734" transform="translate(15.347)" fill="#d3dceb"/>
        </g>
        <g id="Grupo_960226" data-name="Grupo 960226" transform="translate(0 21.161)">
          <rect id="Rectángulo_340556" data-name="Rectángulo 340556" width="43.494" height="5.734" fill="#819ac1"/>
          <rect id="Rectángulo_340557" data-name="Rectángulo 340557" width="43.495" height="5.734" transform="translate(15.347)" fill="#d3dceb"/>
        </g>
        <g id="Grupo_960227" data-name="Grupo 960227" transform="translate(0 2.312)">
          <rect id="Rectángulo_340558" data-name="Rectángulo 340558" width="43.494" height="5.734" fill="#819ac1"/>
          <rect id="Rectángulo_340559" data-name="Rectángulo 340559" width="43.495" height="5.734" transform="translate(15.347)" fill="#d3dceb"/>
        </g>
        <rect id="Rectángulo_340560" data-name="Rectángulo 340560" width="29.27" height="3.572" transform="translate(22.459 3.393)" fill="#fff"/>
        <rect id="Rectángulo_340561" data-name="Rectángulo 340561" width="29.27" height="3.571" transform="translate(22.459 22.242)" fill="#fff"/>
        <rect id="Rectángulo_340562" data-name="Rectángulo 340562" width="29.27" height="3.572" transform="translate(22.459 41.091)" fill="#fff"/>
        <rect id="Rectángulo_340563" data-name="Rectángulo 340563" width="7.662" height="1.978" transform="translate(35.442 0.334)" fill="#d3dceb"/>
        <rect id="Rectángulo_340564" data-name="Rectángulo 340564" width="7.663" height="1.978" transform="translate(29.27 0.334)" fill="#acdac2"/>
      </g>
      <g id="Grupo_960233" data-name="Grupo 960233" transform="translate(0 144.749)">
        <path id="Trazado_727115" data-name="Trazado 727115" d="M586.272,328.728l1.172,9.338.333,2.778H878.824l.334-2.778,1.172-9.338Z" transform="translate(-586.272 -328.728)" fill="#d3dceb"/>
        <rect id="Rectángulo_340565" data-name="Rectángulo 340565" width="10.247" height="163.404" transform="translate(256.557 12.124)" fill="#a0acc4"/>
        <g id="Grupo_960232" data-name="Grupo 960232" transform="translate(58.564 12.124)">
          <g id="Grupo_960231" data-name="Grupo 960231" transform="translate(0)">
            <g id="Grupo_960229" data-name="Grupo 960229" transform="translate(166.682)">
              <rect id="Rectángulo_340566" data-name="Rectángulo 340566" width="10.247" height="163.404" fill="#819ac1"/>
            </g>
            <g id="Grupo_960230" data-name="Grupo 960230">
              <rect id="Rectángulo_340567" data-name="Rectángulo 340567" width="10.247" height="163.404" fill="#819ac1"/>
            </g>
          </g>
        </g>
        <rect id="Rectángulo_340568" data-name="Rectángulo 340568" width="10.247" height="163.404" transform="translate(18.045 12.124)" fill="#a0acc4"/>
        <rect id="Rectángulo_340569" data-name="Rectángulo 340569" width="228.265" height="10.823" transform="translate(28.292 58.279)" fill="#a0acc4"/>
        <rect id="Rectángulo_340570" data-name="Rectángulo 340570" width="10.247" height="4.558" transform="translate(256.557 12.124)" fill="#819ac1"/>
        <rect id="Rectángulo_340571" data-name="Rectángulo 340571" width="10.247" height="4.558" transform="translate(18.045 12.124)" fill="#819ac1"/>
        <path id="Trazado_727116" data-name="Trazado 727116" d="M586.577,331.163l.333,2.778H877.958l.334-2.778Z" transform="translate(-585.405 -321.826)" fill="#a0acc4"/>
      </g>
      <path id="Trazado_727117" data-name="Trazado 727117" d="M640.549,316.627a8.5,8.5,0,0,1,15.883-.579,18.614,18.614,0,0,1,1.358,5.614c1.979,22.966-2.6,48.792-2.6,48.792H642.348s-3.789-36.609-3.171-47.055A24.817,24.817,0,0,1,640.549,316.627Z" transform="translate(-566.838 -234.644)" fill="#fba284"/>
      <path id="Trazado_727118" data-name="Trazado 727118" d="M636.353,310.622c-10.1-.4-16.24,16.355-4.214,69.449h64.3s2.5-3.455.115-8.563c-30.01-3.313-32.476-6.051-50.525-6.576C648.248,349.785,649.605,311.144,636.353,310.622Z" transform="translate(-554.018 -235.323)" fill="#dfe9f2"/>
      <path id="Trazado_727119" data-name="Trazado 727119" d="M652.046,363.931a.472.472,0,0,0,.468-.418c1.358-10.726,3.121-40.647-4.928-50.15a7.4,7.4,0,0,0-5.453-2.864,8.147,8.147,0,0,0-3.367.552.474.474,0,0,0,.349.882,7.026,7.026,0,0,1,2.984-.487,6.5,6.5,0,0,1,4.763,2.531c6.952,8.206,6.58,34.665,4.713,49.421a.479.479,0,0,0,.41.529Z" transform="translate(-559.783 -235.675)" fill="#97a4af"/>
      <path id="Trazado_727120" data-name="Trazado 727120" d="M620.224,327.522s4.364-1.572,7.436-.9a5.816,5.816,0,0,1,.732.215,5.493,5.493,0,0,1,3.367,5.729l-.238,2.619h-11.3Z" transform="translate(-467.922 -190.432)" fill="#f9bd38"/>
      <path id="Trazado_727121" data-name="Trazado 727121" d="M642.374,301.2c-3.946-.859-12.29,5.108-13.467,10.215a9.789,9.789,0,0,0,3.351,9.989c3.271,1.235,7.144,2.865,14.158.506C649,319.327,658.373,304.674,642.374,301.2Z" transform="translate(-519.872 -262.258)" fill="#a3c3d8"/>
      <path id="Trazado_727122" data-name="Trazado 727122" d="M628.946,303.789l.015.372a8.061,8.061,0,0,0,9.341,7.654l2.3-.372a2.529,2.529,0,0,0,1.937-1.607c.406-1.055,1.147-2.381,2.335-2.7.821-.222,1.53.437,2.04,1.047a4.419,4.419,0,0,0,4.13,1.4l1.9-.322a3.413,3.413,0,0,0,2.811-3.881l-.882-5.771a3.554,3.554,0,0,0-3.961-2.995l-17.762,2.24A4.8,4.8,0,0,0,628.946,303.789Z" transform="translate(-525.363 -275.112)" fill="#dfe9f2"/>
      <g id="Grupo_960235" data-name="Grupo 960235" transform="translate(105.699 28.627)">
        <path id="Trazado_727123" data-name="Trazado 727123" d="M643.595,300.745a7.706,7.706,0,0,1-3.371,1.833,24.075,24.075,0,0,1-3.187.759,23.817,23.817,0,0,1-2.366.3c-1.718-.491-2.408-3.156-2.408-3.156h0c.932-.311,2.692-.882,4.356-1.327a23.935,23.935,0,0,1,2.5-.556c.18-.027.349-.046.5-.057A6.845,6.845,0,0,1,643.595,300.745Z" transform="translate(-631.596 -298.191)" fill="#dfe9f2"/>
        <path id="Trazado_727124" data-name="Trazado 727124" d="M637.326,300.813a3.681,3.681,0,0,1-.161,1.722,24.07,24.07,0,0,1-3.187.759,3.505,3.505,0,0,1-.851-1.906,3.425,3.425,0,0,1,.434-2.282,23.922,23.922,0,0,1,2.5-.556A3.291,3.291,0,0,1,637.326,300.813Z" transform="translate(-628.537 -298.148)" fill="#a3c3d8"/>
        <path id="Trazado_727125" data-name="Trazado 727125" d="M632.2,300.958c.625-.311,1.269-.583,1.917-.84s1.3-.487,1.967-.709,1.334-.414,2.013-.587a12.858,12.858,0,0,1,2.1-.372l.042,0,.031,0a5.714,5.714,0,0,1,1.269.357,6.2,6.2,0,0,1,1.139.629,6.571,6.571,0,0,1,.974.832,5.469,5.469,0,0,1,.779,1,10.116,10.116,0,0,0-.966-.782,8.566,8.566,0,0,0-1.039-.64,6.681,6.681,0,0,0-1.1-.468,5.743,5.743,0,0,0-1.147-.253l.069,0a18.083,18.083,0,0,0-1.99.372c-.667.157-1.342.314-2.009.487C634.913,300.325,633.571,300.674,632.2,300.958Z" transform="translate(-632.202 -298.446)" fill="#a3c3d8"/>
        <g id="Grupo_960234" data-name="Grupo 960234" transform="translate(3.784 1.668)">
          <path id="Trazado_727126" data-name="Trazado 727126" d="M635.72,299.667a.894.894,0,1,1-1.009-.779A.907.907,0,0,1,635.72,299.667Z" transform="translate(-633.939 -298.881)" fill="#dfe9f2"/>
        </g>
      </g>
      <path id="Trazado_727127" data-name="Trazado 727127" d="M645.2,299.134c-.287-.054-.567-.119-.844-.184s-.552-.142-.824-.211l-.817-.219c-.265-.069-.533-.142-.786-.2l.134.023-.284.035c-.046,0-.092.008-.142.015l-.146.023-.3.05c-.1.015-.2.042-.3.057l-.3.058-.3.069c-.2.038-.4.081-.606.13-.805.176-1.618.368-2.431.556s-1.634.364-2.458.537c-.2.042-.41.088-.617.126s-.41.084-.617.13l-.311.065-.157.031-.153.038-.311.069c-.1.031-.207.058-.314.088.081-.077.161-.15.245-.222s.173-.13.265-.2c.177-.13.364-.238.548-.353s.38-.211.572-.314.387-.192.579-.284a20.231,20.231,0,0,1,2.4-.916,21.307,21.307,0,0,1,2.5-.625c.211-.038.426-.069.641-.1.107-.015.214-.027.326-.042l.326-.031c.111-.012.219-.023.33-.027l.338-.012.169-.008c.057,0,.119.008.176.008l.349.019.092,0,.046.019c.069.031.138.058.207.088l.2.1c.13.061.265.127.391.2q.38.2.748.426c.245.15.487.3.725.468S644.976,298.95,645.2,299.134Z" transform="translate(-527.727 -273.087)" fill="#a3c3d8"/>
      <g id="Grupo_960236" data-name="Grupo 960236" transform="translate(121.03 27.55)">
        <path id="Trazado_727128" data-name="Trazado 727128" d="M637,298.337a3.6,3.6,0,0,1-.786,2.7,2.218,2.218,0,0,1-.874.5,9.546,9.546,0,0,1-1.837.119c-1.776.012-4.084-.107-4.084-.107a5.269,5.269,0,0,1,.717-1.542,3.9,3.9,0,0,1,2.262-1.6c.165-.019.333-.038.5-.054a21.326,21.326,0,0,1,3.087-.077A10.082,10.082,0,0,1,637,298.337Z" transform="translate(-629.417 -297.908)" fill="#dfe9f2"/>
        <path id="Trazado_727129" data-name="Trazado 727129" d="M633.2,299.445a3.477,3.477,0,0,1-.138,1.591,2.217,2.217,0,0,1-.874.5,9.544,9.544,0,0,1-1.837.119,3.294,3.294,0,0,1-.733-1.722,3.431,3.431,0,0,1,.13-1.576,21.326,21.326,0,0,1,3.087-.077A3.55,3.55,0,0,1,633.2,299.445Z" transform="translate(-626.263 -297.908)" fill="#a3c3d8"/>
        <path id="Trazado_727130" data-name="Trazado 727130" d="M629.205,301.079a6.874,6.874,0,0,1,.441-1.089,3.149,3.149,0,0,1,.771-.959,3.258,3.258,0,0,1,1.1-.606,3.875,3.875,0,0,1,.617-.138c.192-.023.387-.046.583-.065a11.949,11.949,0,0,1,2.343,0,11.393,11.393,0,0,1,2.293.452c-.782.061-1.549.069-2.308.1s-1.507.073-2.262.146l-.564.057a3.2,3.2,0,0,0-.514.088,3.3,3.3,0,0,0-.959.406,3.521,3.521,0,0,0-.813.7C629.688,300.47,629.454,300.776,629.205,301.079Z" transform="translate(-628.96 -298.165)" fill="#a3c3d8"/>
        <path id="Trazado_727131" data-name="Trazado 727131" d="M631.809,299.072a.759.759,0,1,1-.855-.648A.76.76,0,0,1,631.809,299.072Z" transform="translate(-627.618 -297.45)" fill="#dfe9f2"/>
      </g>
      <path id="Trazado_727132" data-name="Trazado 727132" d="M629.453,299.245a9.889,9.889,0,0,1,.7-1,3.377,3.377,0,0,1,2.366-1.334c.449-.042.886-.077,1.127-.077a9.932,9.932,0,0,1,2.979,1.012c-.322.027-.633.046-.943.058s-4,.426-4.218.518l-.652.268q-.328.138-.667.276Z" transform="translate(-508.154 -274.391)" fill="#a3c3d8"/>
      <path id="Trazado_727133" data-name="Trazado 727133" d="M652.429,297.647a3.615,3.615,0,0,0-.449.031l-17.762,2.239a4.8,4.8,0,0,0-4.2,4.943l.015.372a8.062,8.062,0,0,0,8.037,7.758,8.392,8.392,0,0,0,1.3-.1l2.3-.372a2.529,2.529,0,0,0,1.937-1.607c.406-1.055,1.147-2.381,2.335-2.7a1.235,1.235,0,0,1,.33-.042,2.493,2.493,0,0,1,1.71,1.089,4.283,4.283,0,0,0,3.313,1.461,5.314,5.314,0,0,0,.817-.065l1.9-.322a3.413,3.413,0,0,0,2.811-3.881l-.878-5.771a3.562,3.562,0,0,0-3.516-3.026Zm0-1.446h0a5.042,5.042,0,0,1,4.947,4.253l.878,5.771a4.879,4.879,0,0,1-4,5.526l-1.9.322a6.528,6.528,0,0,1-1.058.088,5.73,5.73,0,0,1-4.425-1.983c-.426-.514-.629-.571-.637-.575a3.275,3.275,0,0,0-1.277,1.825,3.99,3.99,0,0,1-3.056,2.512l-2.3.372a9.376,9.376,0,0,1-1.534.127,9.471,9.471,0,0,1-9.483-9.153l-.015-.368a6.22,6.22,0,0,1,5.464-6.438l17.766-2.24a5,5,0,0,1,.629-.038Z" transform="translate(-526.433 -276.183)" fill="#a3c3d8"/>
      <g id="Grupo_960237" data-name="Grupo 960237" transform="translate(196.105 23.048)">
        <path id="Trazado_727134" data-name="Trazado 727134" d="M604.031,333.969c0,1.311,2.527,3.087,6.385,4.264a29.855,29.855,0,0,0,8.551,1.235c8.237,0,14.917-3.378,14.917-5.5v-.042c0-16.884-9.59-17.751-10.825-35.409-.019-.426-.038-.848-.057-1.292a.241.241,0,0,0-.157-.038h-7.757a.231.231,0,0,0-.154.038c-.019.445-.038.867-.057,1.292-1.235,17.62-10.825,20.186-10.825,35.352C604.05,333.908,604.031,333.927,604.031,333.969Z" transform="translate(-604.031 -296.435)" fill="#a3c3d8"/>
        <path id="Trazado_727135" data-name="Trazado 727135" d="M604.535,323c.832,1.177,5.982,3.723,12.988,3.723,7.044,0,12.233-2.585,12.984-3.743-.038-8.045-2.274-12.022-4.862-16.616-.79-1.407-1.618-2.891-2.412-4.533a.146.146,0,0,0-.038-.1c-.345-.426-2.7-.736-5.575-.736-2.914,0-5.326.33-5.614.755a.1.1,0,0,0-.038.077c-.87,1.986-1.818,3.743-2.723,5.422C606.717,311.926,604.554,315.96,604.535,323Z" transform="translate(-602.587 -285.624)" fill="#8a9f6a"/>
        <path id="Trazado_727136" data-name="Trazado 727136" d="M606.608,298.628c0,.426.349.775.909,1.024a9.881,9.881,0,0,0,3.493.617c.23.019.441.019.656.019,2.316,0,5.035-.445,5.035-1.66s-2.719-1.637-5.035-1.637C609.33,296.991,606.608,297.413,606.608,298.628Z" transform="translate(-596.73 -296.991)" fill="#b5cfe0"/>
        <ellipse id="Elipse_5779" data-name="Elipse 5779" cx="4.082" cy="1.012" rx="4.082" ry="1.012" transform="translate(10.847 0.234)" fill="#a3c3d8"/>
        <path id="Trazado_727137" data-name="Trazado 727137" d="M606.432,301.833c0,.441,2.546.809,5.652.809s5.614-.368,5.614-.809a.147.147,0,0,0-.038-.1c-.345-.426-2.7-.736-5.575-.736-2.914,0-5.326.33-5.614.755A.1.1,0,0,0,606.432,301.833Z" transform="translate(-597.052 -285.624)" fill="#a1b288"/>
        <path id="Trazado_727138" data-name="Trazado 727138" d="M606.9,306.555a1.308,1.308,0,1,0,1.308-1.308A1.309,1.309,0,0,0,606.9,306.555Z" transform="translate(-590.659 -273.588)" fill="#6e893f"/>
        <path id="Trazado_727139" data-name="Trazado 727139" d="M609.148,305.027a1.664,1.664,0,1,0,1.664-1.668A1.663,1.663,0,0,0,609.148,305.027Z" transform="translate(-602.246 -278.94)" fill="#6e893f"/>
        <path id="Trazado_727140" data-name="Trazado 727140" d="M606.668,303.97a.658.658,0,1,0,.659-.656A.656.656,0,0,0,606.668,303.97Z" transform="translate(-588.242 -279.068)" fill="#6e893f"/>
        <ellipse id="Elipse_5780" data-name="Elipse 5780" cx="0.592" cy="0.592" rx="0.592" ry="0.592" transform="translate(6.31 35.968)" fill="#6e893f"/>
        <path id="Trazado_727141" data-name="Trazado 727141" d="M605.281,306.843a.514.514,0,1,0,.514-.514A.514.514,0,0,0,605.281,306.843Z" transform="translate(-581.249 -270.521)" fill="#6e893f"/>
        <path id="Trazado_727142" data-name="Trazado 727142" d="M610.016,306.38a1.319,1.319,0,1,0,1.319-1.319A1.319,1.319,0,0,0,610.016,306.38Z" transform="translate(-605.752 -274.115)" fill="#6e893f"/>
        <path id="Trazado_727143" data-name="Trazado 727143" d="M607.874,302.951a.521.521,0,1,0,.521-.522A.522.522,0,0,0,607.874,302.951Z" transform="translate(-593.801 -281.576)" fill="#6e893f"/>
        <path id="Trazado_727144" data-name="Trazado 727144" d="M608.088,332.557c0,1.311,2.527,3.087,6.385,4.264-.441-5.211-.46-14.127,3.493-19.9,4.111-6.02,4.517-14.242,4.4-18.621a9.88,9.88,0,0,1-3.494-.617c-1.388,17.1-10.768,19.779-10.768,34.773C608.107,332.5,608.088,332.515,608.088,332.557Z" transform="translate(-608.088 -295.024)" fill="#fff" opacity="0.15"/>
      </g>
      <path id="Trazado_727145" data-name="Trazado 727145" d="M612.254,330.3a61.87,61.87,0,0,0,6.868-7.163,11.154,11.154,0,0,0,2.7-6.9c.069-2.132.012-3.923-.038-4.935a2.359,2.359,0,0,0-.618-1.492l-2.516-2.715-1.979-1.442a.308.308,0,0,0-.418.065,1.289,1.289,0,0,0,.1,1.772l1.028.9,1.871,3.091-1.415,4.345a3.426,3.426,0,0,1-2.631,2.516c-3.585.686-4.417,1.07-5.637,2.542a35.182,35.182,0,0,0-3.229,4.49Z" transform="translate(-404.733 -249.554)" fill="#f9bd38"/>
    </g>
  </g>
</svg>
