<svg xmlns="http://www.w3.org/2000/svg" width="250.421" height="360.52" viewBox="0 0 250.421 360.52">
  <g id="Grupo_960474" data-name="Grupo 960474" transform="translate(-317.245 -4355.15)">
    <path id="Trazado_726820" data-name="Trazado 726820" d="M348.772,126.378l-12.79,193.24c-.619,9.324-1.17,19.051,2.5,27.647,8.829,20.709,36,24.576,58.5,25.417,26.678.994,56.878.638,75.266-18.715,14.586-15.353,17.216-38.519,15.7-59.642s-6.385-42.261-3.745-63.274c3.416-27.176,19.06-51.27,36.662-72.253s37.651-40.075,52.61-63.019c6.459-9.905,12.044-20.922,12.466-32.742s-5.511-24.511-16.479-28.932c-14.406-5.8-29.956,4-42.519,13.132-23.881,17.359-41.494,18.019-59.28-5.878-12.272-16.49-25.127-31.94-47.718-28.379C364.577,21.706,351.829,80.173,348.772,126.378Z" transform="translate(-18.288 4342.685)" fill="#34bc85"/>
    <g id="Grupo_960148" data-name="Grupo 960148" transform="translate(340.898 4377.181)">
      <path id="Trazado_726821" data-name="Trazado 726821" d="M399.683,156.561c-.425,0-.846,0-1.268-.014a30.483,30.483,0,0,1-29.395-35.654l9.472-54.949,1.454.249-9.472,54.949a29.012,29.012,0,0,0,27.97,33.931,58.966,58.966,0,0,0,47.222-21.8l52.895-64.832,1.142.931L446.809,134.2a60.787,60.787,0,0,1-47.126,22.36Z" transform="translate(-363.448 58.515)" fill="#2e3c54"/>
      <g id="Grupo_960135" data-name="Grupo 960135" transform="translate(60.675 54.94)">
        <g id="Grupo_960134" data-name="Grupo 960134" transform="translate(57.833 53.065)">
          <g id="Grupo_960133" data-name="Grupo 960133" transform="translate(0)">
            <path id="Trazado_726822" data-name="Trazado 726822" d="M369.834,72.19,387.381,69.3l-.836-9.36-17.463,2.03s-1.134,7.067-1.115,7.295S369.834,72.19,369.834,72.19Z" transform="translate(-367.968 -59.937)" fill="#fac902"/>
          </g>
        </g>
        <path id="Trazado_726823" data-name="Trazado 726823" d="M437.46,105.649c-5.648,1.781-30.54,8.845-46.929.764-5.739-2.83-10.853-10.839-14.343-17.616-.219-.419-.427-.835-.63-1.244-2.6-5.218-4.144-9.409-4.144-9.409l22.654-37.58s.159,1.452.419,3.892.619,5.826,1.022,9.746v.005c.948,9.256,2.137,21.393,2.813,30.384.378,4.991,4.41,7.988,9.4,8.363,12.565.951,23.179,1.1,28.132,1.312a2.676,2.676,0,0,1,2.216,1.644,18.584,18.584,0,0,1,1.093,4.123,13.728,13.728,0,0,1-.238,3.966A2.157,2.157,0,0,1,437.46,105.649Z" transform="translate(-371.414 -40.565)" fill="#cadef9"/>
        <path id="Trazado_726824" data-name="Trazado 726824" d="M376.282,66.127a4.32,4.32,0,0,1-1.112,2.12,7.915,7.915,0,0,1-2.994,2.153,8.539,8.539,0,0,1-5.944.2l-1.748-.578-.833-9.36s4.144-1.452,6.785-1.082a8.066,8.066,0,0,1,4.739,3.139,6.193,6.193,0,0,1,.888,1.619A3.783,3.783,0,0,1,376.282,66.127Z" transform="translate(-287.24 -7.598)" fill="#fac902"/>
      </g>
      <g id="Grupo_960136" data-name="Grupo 960136" transform="translate(7.733 43.26)">
        <rect id="Rectángulo_340531" data-name="Rectángulo 340531" width="45.406" height="85.425" rx="2.51" transform="translate(8.436 0) rotate(5.667)" fill="#2e3c54"/>
        <rect id="Rectángulo_340532" data-name="Rectángulo 340532" width="45.406" height="85.425" rx="2.51" transform="translate(26.125 1.755) rotate(5.668)" fill="#2e3c54"/>
      </g>
      <g id="Grupo_960137" data-name="Grupo 960137" transform="translate(4.639 44.363)">
        <rect id="Rectángulo_340533" data-name="Rectángulo 340533" width="48.694" height="91.61" rx="2.692" transform="matrix(0.995, 0.099, -0.099, 0.995, 9.047, 0)" fill="#fac902"/>
        <rect id="Rectángulo_340534" data-name="Rectángulo 340534" width="48.694" height="91.61" rx="2.692" transform="translate(28.017 1.882) rotate(5.668)" fill="#f9a806"/>
      </g>
      <path id="Trazado_726825" data-name="Trazado 726825" d="M385.978,32.837a24.032,24.032,0,0,0,1.151-4.172c.227.071.438.14.63.214L386.528,39.1C386.534,35.987,385.781,33.544,385.978,32.837Z" transform="translate(-299.08 -6.322)" fill="#5c6c81"/>
      <path id="Trazado_726826" data-name="Trazado 726826" d="M385.97,71.587s6.347,40.993,8.212,56.957c1.315,11.245,2.8,22.462,4.38,31.775-4.55,28.5,2.608,32.742,3.01,74.039l5.415,1.507,7.191-1.507c1.515-26.423,9.1-47.315,10.987-74.039,1.512-21.448-3.914-90.242-3.914-90.242Z" transform="translate(-336.822 65.705)" fill="#2e3c54"/>
      <path id="Trazado_726827" data-name="Trazado 726827" d="M401.154,130.968c1.107,1.726,3.843,3.884,8.171,4.662a5.332,5.332,0,0,1,4.161,6.793h-28c-1.134-4.624.586-11.913,2.043-11.913s5.758,1.255,6.377.638C396.273,128.788,400.05,129.24,401.154,130.968Z" transform="translate(-322.789 169.095)" fill="#2e3c54"/>
      <path id="Trazado_726828" data-name="Trazado 726828" d="M432.16,157.023c-2.419,20.446-7.621,49.884-8.99,57.513a2.921,2.921,0,0,1-2.222,2.326c-3.542.816-11.3,2.32-16.43,1.222a5.6,5.6,0,0,1-4.249-4.29c-3.457-15.551-3.947-41.009-2.627-52.993.575-5.207-1.52-17.128-4.2-29.376-.137-.63-.277-1.266-.419-1.9-3.273-14.726-7.223-29.447-8.212-33.09-.151-.559-.233-.857-.233-.857l4.794-23.516,22.16-1.424L424.6,69.8s.14.868.386,2.443C426.845,84.129,434.633,136.134,432.16,157.023Z" transform="translate(-340.227 65.227)" fill="#cadef9"/>
      <path id="Trazado_726829" data-name="Trazado 726829" d="M442.484,103.022s-21.8,48.044-26.91,74.946l-7.226,5.747-5.542-5.563c2.846-19.128,1.027-38.612,3.72-52.347a58.242,58.242,0,0,1,9.809-22.782Z" transform="translate(-399.992 123.003)" fill="#2e3c54"/>
      <path id="Trazado_726830" data-name="Trazado 726830" d="M457.046,74.559s-1.276,18.391-1.923,22.026c-.526,2.953-2.233,13.852-6.35,23.473-1.783,4.158-3.492,8.544-5.078,12.855-5.58,15.156-9.6,29.37-9.6,29.37l-18.4,55.82a4.9,4.9,0,0,1-4.019,3.323c-8.212,1.071-12.633-.14-14.937-1.419a4.544,4.544,0,0,1-2.309-4.032c.436-38.434,8.99-53.692,8.99-53.692s3.523-28.2,5.763-54.968a80.792,80.792,0,0,1,10.71-33.405,5.34,5.34,0,0,0,.249-.479c1.375-2.978,2.257-4.481,2.257-4.481L455.455,74.3Z" transform="translate(-391.602 63.742)" fill="#cadef9"/>
      <path id="Trazado_726831" data-name="Trazado 726831" d="M394.614,167.481a.253.253,0,0,1-.1-.019.294.294,0,0,1-.178-.375,35.97,35.97,0,0,1,1.991-4.706c.175-1.43,3.586-29.011,5.755-54.9A80.609,80.609,0,0,1,412.832,73.95c.068-.123.162-.29.233-.452,1.37-2.961,2.265-4.5,2.276-4.512a.3.3,0,0,1,.3-.142l34.649,5.61a.3.3,0,0,1,.247.312c-.052.753-1.285,18.452-1.926,22.059-.036.2-.077.441-.126.718-.655,3.783-2.4,13.83-6.243,22.818-1.635,3.819-3.345,8.138-5.073,12.844-2.263,6.147-4.533,12.847-6.752,19.914a.294.294,0,0,1-.561-.175c2.219-7.078,4.492-13.787,6.758-19.944,1.737-4.712,3.446-9.042,5.087-12.872,3.821-8.924,5.552-18.923,6.2-22.686.047-.277.09-.518.126-.72.592-3.339,1.739-19.44,1.9-21.728L448.6,74.78,415.75,69.46c-.268.477-1.055,1.917-2.148,4.284-.082.181-.181.362-.257.5a80.006,80.006,0,0,0-10.672,33.285c-2.216,26.467-5.73,54.7-5.766,54.982a.3.3,0,0,1-.036.107,34.783,34.783,0,0,0-1.978,4.67A.3.3,0,0,1,394.614,167.481Z" transform="translate(-384.798 63.554)" fill="#94c4f7"/>
      <path id="Trazado_726832" data-name="Trazado 726832" d="M386.186,40.38s8.453,6.21,9.034,16.205A81.438,81.438,0,0,1,390.388,88.9c-.671,1.833-4.868-.666-4.868-.666l-.857-15.225Z" transform="translate(-303.156 14.053)" fill="#2e3c54"/>
      <g id="Grupo_960139" data-name="Grupo 960139" transform="translate(132.985 32.361)">
        <g id="Grupo_960138" data-name="Grupo 960138" transform="translate(0 0)">
          <path id="Trazado_726833" data-name="Trazado 726833" d="M358.134,33.615a.649.649,0,0,0-.69-.981l-6.659,1.487a.653.653,0,0,0-.408.285l-5.509,8.675a.648.648,0,0,0,1.093.7l5.366-8.448,6.4-1.427A.657.657,0,0,0,358.134,33.615Z" transform="translate(-289.74 -31.806)" fill="#2e3c54"/>
          <path id="Trazado_726834" data-name="Trazado 726834" d="M348.87,126.1a1.589,1.589,0,0,0,2.189-.488L407.153,37.27a1.585,1.585,0,1,0-2.676-1.7l-56.094,88.343A1.583,1.583,0,0,0,348.87,126.1Z" transform="translate(-348.135 -27.952)" fill="#2e3c54"/>
          <path id="Trazado_726835" data-name="Trazado 726835" d="M362.821,83.4l2.526,1.6a.313.313,0,0,0,.079.041.608.608,0,0,0,.77-.23l15.482-24.593a.614.614,0,0,0-.118-.8.375.375,0,0,0-.071-.055l-2.523-1.6a.366.366,0,0,0-.079-.041.615.615,0,0,0-.773.23L362.632,82.546a.616.616,0,0,0,.118.8A.448.448,0,0,0,362.821,83.4Z" transform="translate(-361.957 11.76)" fill="#677ca1"/>
          <path id="Trazado_726836" data-name="Trazado 726836" d="M348.138,36.868l1.969,1.252a.708.708,0,0,0,.967-.216l.7-1.1a.7.7,0,0,0-.216-.967l-1.97-1.252a.7.7,0,0,0-.967.216l-.7,1.1a.7.7,0,0,0-.063.625A.707.707,0,0,0,348.138,36.868Z" transform="translate(-291.73 -28.572)" fill="#677ca1"/>
          <rect id="Rectángulo_340535" data-name="Rectángulo 340535" width="3.278" height="5.873" rx="0.306" transform="matrix(0.172, 0.985, -0.985, 0.172, 68.274, 0)" fill="#677ca1"/>
          <path id="Trazado_726837" data-name="Trazado 726837" d="M349.982,53.6l1.759,1.118a.829.829,0,0,0,1.14-.255l9.4-14.8a.823.823,0,0,0-.255-1.14l-1.759-1.118a.829.829,0,0,0-1.14.255l-9.4,14.8a.831.831,0,0,0,.255,1.14Z" transform="translate(-307.15 -23.699)" fill="#677ca1"/>
        </g>
        <path id="Trazado_726838" data-name="Trazado 726838" d="M347.812,126.254a1.589,1.589,0,0,0,2.189-.488l.545-.86a.608.608,0,0,0,.77-.23L366.8,100.083a.614.614,0,0,0-.118-.8l25.554-40.045a.824.824,0,0,0,.573-.373l9.4-14.8a.818.818,0,0,0,.1-.677l3.58-5.637a.689.689,0,0,0,.54-.32l.7-1.1a.7.7,0,0,0-.216-.967l-.986-.627Z" transform="translate(-347.077 -28.105)" fill="#232d3f" opacity="0.25"/>
      </g>
      <path id="Trazado_726839" data-name="Trazado 726839" d="M442.731,71.729c-1.016,5.939-2.189,12.354-3.279,18.134-.274,1.457-.542,2.876-.8,4.235v0l-.071.373c-.364,1.915-.709,3.7-1.022,5.322a51.247,51.247,0,0,0-.482,16.512c.288,2.148.575,4.533.8,6.889.1,1.044.189,2.074.26,3.082.016.216.036.477.055.751l-.025-.071s-9.105,3.361-22.875,3.3a83.68,83.68,0,0,1-29.628-5.531c.353-1.3.734-2.657,1.115-4.035.518-1.852,1.044-3.734,1.55-5.525a68.2,68.2,0,0,0,1.879-8.938q.32-2.268.485-4.55a66.7,66.7,0,0,0-.181-11.716l-.011-.134c-.5-4.8-1.126-9.07-1.655-13.047-.474-3.572-.871-6.914-1.038-10.209-.1-1.926-.12-3.835-.033-5.763.249-5.372.63-9.231,1.038-12.006.622-4.243,1.375-7.908,5.528-8.966.614-.153,2.956-.52,5.667-.929,1.2-.175,2.471-.362,3.7-.54,3.454-.5,6.574-.929,6.791-.961.192-.025.384-.049.578-.079a147.7,147.7,0,0,1,17.838,2.1c1.005.205,1.958.436,2.813.679a5.29,5.29,0,0,1,2.265,1.315l.008,0a5.355,5.355,0,0,1,.742.9c.534.814,1.241,1.939,2.049,3.345.583,1.022,1.219,2.189,1.89,3.5l.252.5q.6,1.192,1.219,2.528A33.154,33.154,0,0,1,442.731,71.729Z" transform="translate(-353.762 8.752)" fill="#dfebfb"/>
      <path id="Trazado_726840" data-name="Trazado 726840" d="M412.7,41.37l-7.779,12.255L398.2,94.659l4.98-2.884,7.237-9.481,5.873-15.534s.181-8.766,0-9.086S412.7,41.37,412.7,41.37Z" transform="translate(-361.271 15.775)" fill="#94c4f7"/>
      <path id="Trazado_726841" data-name="Trazado 726841" d="M420.319,129.689c2.23-.2,2.4,1.6,3.912,3.265,2.6,2.865,11.086,1.907,12.223,4.911a3.988,3.988,0,0,1-.857,4.3H408.489a6.951,6.951,0,0,1-.693-3.969c.457-2.638,1.852-8.522,3.775-7.76C417.054,132.979,418.21,129.878,420.319,129.689Z" transform="translate(-407.724 169.356)" fill="#2e3c54"/>
      <path id="Trazado_726842" data-name="Trazado 726842" d="M390.792,38.2c.06.082.112.17.17.252C390.907,38.369,390.852,38.284,390.792,38.2Z" transform="translate(-315.561 10.265)" fill="#5272b9"/>
      <path id="Trazado_726843" data-name="Trazado 726843" d="M405.869,63.778a1,1,0,0,1-.852.449c-.948-.016-1.635-.014-2.142-.008a6.468,6.468,0,0,1-3.005-.682c-.622-.312-1.4-.715-2.279-1.2a62.527,62.527,0,0,1-5.711-3.556c-1.307-.912-2.643-1.928-3.947-3.046a34.411,34.411,0,0,1-1.852-6.04h.022a1.072,1.072,0,0,0,1.066-1.066c0-.411.005-.934,0-1.52,0-1.115-.016-2.468-.066-3.775.488.071.43-.033.9-.236.071-4.29,2.6-9.124,2.6-9.124a13.165,13.165,0,0,0,2.931-.866c.348-1.156.8-4.684,1.049-5.8,3.619-1.786,10.026-4.029,14.074-2.611,1.008.353.507,3.268.507,3.268a5.04,5.04,0,0,0,.564-.945c.025-.055.044-.107.068-.164a5.766,5.766,0,0,1,2.241,2.706,11.484,11.484,0,0,1,.523,6.8,24.032,24.032,0,0,1-1.151,4.172c-.2.707.556,3.15.551,6.259V46.8c0,.164,0,.334-.005.5C411.86,50.586,410.164,57.22,405.869,63.778Z" transform="translate(-324.512 -14.012)" fill="#f6c1af"/>
      <g id="Grupo_960140" data-name="Grupo 960140" transform="translate(55.744 4.587)">
        <path id="Trazado_726844" data-name="Trazado 726844" d="M390.512,35.726a29.213,29.213,0,0,0,1.1,7.421,10.6,10.6,0,0,1,4.446.86,25.261,25.261,0,0,1,.581,5.363,3.885,3.885,0,0,0,1.948-.126,40.869,40.869,0,0,1,2.326-11.3,16.089,16.089,0,0,0,3.577-1.057c.422-1.413,1.134-4.6,1.433-5.966h0c-.055-.3-.1-.625-.14-.961a17.106,17.106,0,0,1,.022-3.662,25.637,25.637,0,0,1,5.133-3.684c-2.342-.307-8.442-.92-12.809.29-3.194,2.438-4.175,5.125-5.613,8.215-.227,2.408-.219,3-.219,3Z" transform="translate(-390.509 -22.183)" fill="#612d4b"/>
        <path id="Trazado_726845" data-name="Trazado 726845" d="M398.733,27.937c-.378.074-.756.126-1.134.17s-.759.079-1.14.107c-.761.063-1.523.093-2.29.142a10.769,10.769,0,0,0,1.151.074c.384.005.77-.005,1.153-.036a10.73,10.73,0,0,0,1.145-.151A6.054,6.054,0,0,0,398.733,27.937Z" transform="translate(-388.326 -12.175)" fill="#3b1c3b"/>
      </g>
      <path id="Trazado_726846" data-name="Trazado 726846" d="M403.949,37.155c-.433.025-.83.041-1.151.047a1.22,1.22,0,0,1-1.035-.507,1.468,1.468,0,0,0-1.14-.709c-.036,0-.071,0-.107,0l-.041.005c-.6.071-1.033.709-1.257,1.148a1.051,1.051,0,0,1-.7.551,20.055,20.055,0,0,1-10.376-.707,2.665,2.665,0,0,1-1.857-2.342c-.293-4.251,5.969-5.867,5.969-5.867a95.2,95.2,0,0,0,12.8,1.172,56.612,56.612,0,0,1-.153,6.284A1.024,1.024,0,0,1,403.949,37.155Z" transform="translate(-317.32 -6.129)" fill="#677ca1"/>
      <path id="Trazado_726847" data-name="Trazado 726847" d="M402.5,35.958c-.208.008-.4.011-.553.014a2.41,2.41,0,0,0-1.978-1.219c-.049,0-.1,0-.153.005l-.041.005a1.057,1.057,0,0,0-.134.016,2.881,2.881,0,0,0-1.885,1.687,15.357,15.357,0,0,1-3.5.37,21.183,21.183,0,0,1-5.966-.888,2.339,2.339,0,0,1-1.479-3.23l.011-.025a7.629,7.629,0,0,1,3.386-3.72c.931.153,6.314,1.129,10.247,1.457l.036,0c.74.063,1.479.112,2.2.151a.948.948,0,0,1,.9.956c-.008,1.378-.077,2.605-.145,3.509A.983.983,0,0,1,402.5,35.958Z" transform="translate(-316.681 -5.781)" fill="#dfebfb"/>
      <g id="Grupo_960141" data-name="Grupo 960141" transform="translate(71.95 24.565)">
        <path id="Trazado_726848" data-name="Trazado 726848" d="M389.161,31.635s.775,1.624,3.857,1.833a7.541,7.541,0,0,0,.994,0A5.071,5.071,0,0,0,395.88,33a2.935,2.935,0,0,0,1.2-.972h0a4.793,4.793,0,0,0-2.021-2.556A9.281,9.281,0,0,0,389.161,31.635Z" transform="translate(-389.161 -29.476)" fill="#ecf3fd"/>
        <path id="Trazado_726849" data-name="Trazado 726849" d="M389.161,31.635a9.479,9.479,0,0,1,4.183-1.671h0c.586-.1,1.134-.145,1.616-.181a4.434,4.434,0,0,1,1.487,1.287,7.154,7.154,0,0,1,.633.961,4.793,4.793,0,0,0-2.021-2.556A9.281,9.281,0,0,0,389.161,31.635Z" transform="translate(-389.161 -29.476)" fill="#cadef9"/>
        <path id="Trazado_726850" data-name="Trazado 726850" d="M389.371,31.251a1.977,1.977,0,0,0,1.537,2.024,5.071,5.071,0,0,0,1.868-.466,1.91,1.91,0,0,0,.567-1.934,4.434,4.434,0,0,0-1.487-1.287c-.482.036-1.03.085-1.616.181h0A1.924,1.924,0,0,0,389.371,31.251Z" transform="translate(-386.056 -29.281)" fill="#cadef9"/>
      </g>
      <g id="Grupo_960142" data-name="Grupo 960142" transform="translate(82.844 25.077)">
        <path id="Trazado_726851" data-name="Trazado 726851" d="M386.7,32.638l.057.205c.123.038.3.09.526.142a9.755,9.755,0,0,0,2.117.252c.307,0,.633-.005.975-.03a3.6,3.6,0,0,0-.041-1.753,4.665,4.665,0,0,0-2.813-1.791l-.131.405c-.049.156-.1.312-.142.468-.1.351-.205.7-.3,1.055-.022.088-.047.175-.066.263l-.066.266c-.022.088-.041.178-.063.266Z" transform="translate(-386.7 -29.663)" fill="#ecf3fd"/>
        <path id="Trazado_726852" data-name="Trazado 726852" d="M386.7,30.068a9.243,9.243,0,0,1,1.093.37A5.759,5.759,0,0,1,389,31.1a2.5,2.5,0,0,1,.488.455,4.787,4.787,0,0,1,.2,1.657,3.6,3.6,0,0,0-.041-1.753,4.665,4.665,0,0,0-2.813-1.791Z" transform="translate(-386.009 -29.663)" fill="#cadef9"/>
        <path id="Trazado_726853" data-name="Trazado 726853" d="M386.9,32.129a1.452,1.452,0,0,0,.156.364,9.955,9.955,0,0,0,2.117.252,1.743,1.743,0,0,0,.485-.9,1.7,1.7,0,0,0-.2-1.241,5.666,5.666,0,0,0-1.208-.657,1.412,1.412,0,0,0-.9.414.947.947,0,0,1-.455,1.77Z" transform="translate(-386.47 -29.171)" fill="#cadef9"/>
      </g>
      <path id="Trazado_726854" data-name="Trazado 726854" d="M390.544,38.79a1.843,1.843,0,0,1-.047.318,2.078,2.078,0,0,1-.1.3,1.624,1.624,0,0,1-.372.515,1.836,1.836,0,0,1-.529.351,2.826,2.826,0,0,1-.6.2,4.747,4.747,0,0,1-1.244.068,5.916,5.916,0,0,0,.622-.019,4.651,4.651,0,0,0,.611-.1,2.87,2.87,0,0,0,.581-.205,1.882,1.882,0,0,0,.5-.351,1.6,1.6,0,0,0,.34-.5,1.671,1.671,0,0,0,.129-.586,1.843,1.843,0,0,0-.066-.6,1.521,1.521,0,0,0-.1-.282.943.943,0,0,0-.162-.244.066.066,0,0,1-.014-.052v0c.019-.164.047-.334.068-.5l.036-.378.006-.063.005-.063.014-.252.008-.126.005-.126.005-.252,0-.126,0-.123c0-.173,0-.34-.008-.507l-.014-.252c0-.041-.006-.085-.008-.126l-.008-.126-.019-.252-.025-.252-.027-.249-.033-.252c-.088-.666-.211-1.329-.353-1.991-.011-.058-.025-.115-.038-.173l.041-.005c.036,0,.071,0,.107,0l.036.151.055.247.049.252.052.247.047.249.044.252.041.252.041.252.033.252a15.285,15.285,0,0,1,.142,2.035,13.249,13.249,0,0,1-.164,2,1.425,1.425,0,0,1,.156.252,1.734,1.734,0,0,1,.1.3A2.011,2.011,0,0,1,390.544,38.79Z" transform="translate(-306.544 -1.551)" fill="#f1a19a"/>
      <path id="Trazado_726855" data-name="Trazado 726855" d="M388.808,29.511c-.03.085-.06.17-.085.255-.022.055-.038.112-.057.167-.044.134-.088.268-.131.408s-.1.31-.142.466c-.107.351-.205.7-.3,1.052-.022.09-.047.178-.066.266l-.066.266c-.025.088-.041.178-.063.266l-.055.252c.016.066.036.134.055.205.066.241.129.485.189.726a1.057,1.057,0,0,0-.134.016c-.066-.266-.131-.526-.2-.792l-.036-.14v-.03c.085-.353.172-.709.274-1.06s.206-.7.321-1.052c.049-.153.1-.307.153-.46.047-.131.1-.268.145-.4.022-.06.041-.115.066-.17.027-.082.058-.164.09-.244Z" transform="translate(-305 -4.856)" fill="#cadef9"/>
      <g id="Grupo_960143" data-name="Grupo 960143" transform="translate(55.777 24.219)">
        <path id="Trazado_726856" data-name="Trazado 726856" d="M395.443,34.514a24.419,24.419,0,0,0,2.731,5.684c.236.09.466.173.685.236a8.242,8.242,0,0,0,2.375.378h.022a1.07,1.07,0,0,0,1.063-1.066c.005-.411.008-.931.008-1.52,0-1.115-.019-2.471-.068-3.775a21.271,21.271,0,0,0-.477-4.394,8.712,8.712,0,0,0-3.643-.7c-.367-.008-.764,0-1.186.022A21.054,21.054,0,0,0,395.443,34.514Z" transform="translate(-395.443 -29.35)" fill="#f6c1af"/>
        <path id="Trazado_726857" data-name="Trazado 726857" d="M400.551,33.944a11.964,11.964,0,0,0,.057-1.718,8.877,8.877,0,0,0-.2-1.715.1.1,0,0,0-.055-.071,3.96,3.96,0,0,0-.74-.257c-.246-.066-.5-.121-.745-.175-.5-.1-1-.186-1.5-.257a.155.155,0,0,0-.151.071,8.557,8.557,0,0,0-.573,1.1,11.089,11.089,0,0,0-.433,1.148,10.354,10.354,0,0,0-.307,1.189,11.4,11.4,0,0,0-.167,1.219.168.168,0,0,0,.005.052c.1.405.214.808.348,1.205s.282.786.449,1.17a10.7,10.7,0,0,0,.573,1.115,7.775,7.775,0,0,0,.718,1.038.109.109,0,0,0,.153.014l.019-.022a3.606,3.606,0,0,1,.559-.616,2.511,2.511,0,0,1,.7-.444,1.49,1.49,0,0,1,.819-.066,1.869,1.869,0,0,1,.756.375,1.792,1.792,0,0,0-.74-.444,1.541,1.541,0,0,0-.877.014,2.547,2.547,0,0,0-.775.425,3.473,3.473,0,0,0-.622.63l.17-.008a7.73,7.73,0,0,1-.646-1.027c-.195-.359-.362-.731-.526-1.107s-.3-.759-.422-1.148-.23-.783-.323-1.181l0,.052a12.275,12.275,0,0,1,.463-2.331,10.739,10.739,0,0,1,.408-1.12,8.109,8.109,0,0,1,.529-1.057l-.153.071c.5.063,1,.137,1.493.216.246.041.493.088.737.14a4.152,4.152,0,0,1,.7.211l-.055-.071A13.311,13.311,0,0,1,400.551,33.944Z" transform="translate(-394.763 -28.656)" fill="#f1a19a"/>
      </g>
      <path id="Trazado_726858" data-name="Trazado 726858" d="M390.513,30.745a.941.941,0,1,0,1.12-.72A.939.939,0,0,0,390.513,30.745Z" transform="translate(-316.147 -3.994)" fill="#fff"/>
      <path id="Trazado_726859" data-name="Trazado 726859" d="M391.258,33a34.771,34.771,0,0,0,9.026,4.648l-.846,2.567s-6.065-2.022-9.053-5.161A15.636,15.636,0,0,1,391.258,33Z" transform="translate(-323.765 1.219)" fill="#5c6c81"/>
      <path id="Trazado_726860" data-name="Trazado 726860" d="M440.024,74.1,440,74.027a68.327,68.327,0,0,1-19.008,3.23c-1.244.055-2.534.082-3.868.074A83.68,83.68,0,0,1,387.5,71.8c.353-1.3.734-2.657,1.115-4.035,1.608.992,15.263,8.519,51.1,2.5.1,1.044.189,2.074.26,3.082C439.985,73.564,440,73.824,440.024,74.1Z" transform="translate(-355.594 61.682)" fill="#94c4f7"/>
      <path id="Trazado_726861" data-name="Trazado 726861" d="M409.81,86.7l-.063-1.156a3,3,0,0,1,1.638-2.843h0l.1,2.328Z" transform="translate(-387.997 87.661)" fill="#f9a806"/>
      <path id="Trazado_726862" data-name="Trazado 726862" d="M399.7,33.907c3.471.866,3.58,6.777.274,12.031a6.142,6.142,0,0,1-6.081,2.86,8.632,8.632,0,0,1-6.665-5.185,4.679,4.679,0,0,1,.3-4.49C389.248,36.416,393.07,32.25,399.7,33.907Z" transform="translate(-316.022 2.138)" fill="#cadef9"/>
      <path id="Trazado_726863" data-name="Trazado 726863" d="M397.885,37.712s8.489,7.914,6.807,30.718c9.264,3.909,30.044.857,30.044.857s-12.858,5-30.044,2.139c-1.422,10.163-4.731,26.19-18.06,32.575l3.219-5.865,5.213-6.393,3.635-9.894,2.041-8.327.97-8.872-.131-9.119-.26-5.344Z" transform="translate(-347.939 9.413)" fill="#94c4f7"/>
      <path id="Trazado_726864" data-name="Trazado 726864" d="M424.336,47.336a44.271,44.271,0,0,1-2.076,5.961v-.011l1.156-9.587a.786.786,0,0,0-.551-.844l-.005,0a35.068,35.068,0,0,0-4.167-.918,12.754,12.754,0,0,0-14.9,11.853c-.408,7.01,1.233,11.283,2.252,13.209a8.021,8.021,0,0,0,.753,1.219s-6.029,1.767-20.084-.86c2.819-14.069-3.651-18.194-.416-30.348,2.339-8.774,6.391-13.995,11.258-15.789a11.881,11.881,0,0,1,6.654-.425c1.668.348,3.41.737,5.174,1.164A20.553,20.553,0,0,1,424.336,47.336Z" transform="translate(-334.811 -20.508)" fill="#dfebfb"/>
      <path id="Trazado_726865" data-name="Trazado 726865" d="M419.337,72.246a82.369,82.369,0,0,1-16.375,2.876c-1.972,29.5-14.992,55.949-15.167,56.3-.137-.63-.277-1.266-.419-1.9,1.383-3.693,2.852-7.407,4.372-10.954,4.117-9.62,5.824-20.52,6.35-23.473.575-3.23,1.646-18.109,1.876-21.388a68.327,68.327,0,0,0,19.008-3.23l.025.071c-.019-.274-.038-.534-.055-.751C418.95,69.8,419.09,70.671,419.337,72.246Z" transform="translate(-334.575 65.227)" fill="#94c4f7"/>
      <path id="Trazado_726866" data-name="Trazado 726866" d="M419.677,78.558c-3.594,17.545-13.655,24.859-17.649,27.127a15.794,15.794,0,0,1-1.644.833,1.771,1.771,0,1,1-1.345-3.276,19.625,19.625,0,0,0,3.473-2.106,29.384,29.384,0,0,0,3.583-3.12c3.449-3.514,8-9.867,10.111-20.166,5.309-25.908-4.336-39.2-4.377-39.483a4.248,4.248,0,0,1,3.7-.54C417.592,41.1,424.613,54.447,419.677,78.558Z" transform="translate(-365.582 9.3)" fill="#2e3c54"/>
      <rect id="Rectángulo_340536" data-name="Rectángulo 340536" width="18.689" height="8.322" rx="0.824" transform="translate(8.023 87.772) rotate(5.668)" fill="#2e3c54"/>
      <g id="Grupo_960147" data-name="Grupo 960147" transform="translate(21.227 150.077)">
        <g id="Grupo_960146" data-name="Grupo 960146" transform="translate(0)">
          <g id="Grupo_960144" data-name="Grupo 960144">
            <path id="Trazado_726867" data-name="Trazado 726867" d="M418.215,94.627h-9.4l-2.178-14-.367-2.375-.1-.633s4.172-2.326,4.4-2.326,7.166,1.759,7.166,1.759l.033,1.244.052,1.781Z" transform="translate(-406.173 -75.296)" fill="#fac902"/>
          </g>
          <g id="Grupo_960145" data-name="Grupo 960145" transform="translate(0.587 19.331)">
            <path id="Trazado_726868" data-name="Trazado 726868" d="M408.231,82.353l-1.641,3.254a3.87,3.87,0,0,0,1.235,4.914l1.931,1.353a4.481,4.481,0,0,0,7.012-3.079l.857-6.443Z" transform="translate(-406.174 -82.353)" fill="#fac902"/>
          </g>
        </g>
      </g>
      <path id="Trazado_726869" data-name="Trazado 726869" d="M432.475,63.31c-5.542,16.493-13.765,55.576-14.639,74.3-.055,1.241-.079,2.394-.071,3.446a2.06,2.06,0,0,1-1.424,1.994c-3.536,1.112-8.837.186-11.258-.34a2.19,2.19,0,0,1-1.646-1.575c-.219-.825-.526-2.022-.866-3.536h0c-1.748-7.741-4.429-23.708-1.427-39.448,4.177-21.9,9.5-59.861,24.922-59.954C431.242,38.169,438.551,45.234,432.475,63.31Z" transform="translate(-384.014 10.265)" fill="#cadef9"/>
      <path id="Trazado_726870" data-name="Trazado 726870" d="M414.723,135.619l-.022,0a.291.291,0,0,1-.271-.315c1.427-19.734,9.166-56.028,14.5-71.9,4.2-12.5,1.668-18.742-.216-21.347a7.519,7.519,0,0,0-5.881-3.372H422.8c-5.678.033-10.423,5.281-14.5,16.038-3.493,9.2-5.922,20.966-8.029,32.307a.3.3,0,1,1-.581-.11c2.112-11.365,4.55-23.158,8.059-32.405,4.175-11.014,9.1-16.386,15.049-16.422a8.1,8.1,0,0,1,6.4,3.619c1.95,2.7,4.583,9.124.3,21.878-5.325,15.838-13.047,52.059-14.471,71.754A.3.3,0,0,1,414.723,135.619Z" transform="translate(-380.75 10.077)" fill="#94c4f7"/>
      <path id="Trazado_726871" data-name="Trazado 726871" d="M408.816,30.437a35.067,35.067,0,0,0-4.167-.918,12.754,12.754,0,0,0-14.9,11.853c-.408,7.01,1.233,11.283,2.252,13.209-7.012-6.6-8.749-19.651.715-24.8S408.816,30.437,408.816,30.437Z" transform="translate(-320.767 -8.094)" fill="#cadef9"/>
      <path id="Trazado_726872" data-name="Trazado 726872" d="M398.44,55.739c1.614,8.289-1.682,11.165-1.682,11.165,2.819-14.069-3.651-18.194-.416-30.348,2.339-8.774,6.391-13.995,11.258-15.789C394.413,28.716,396.827,47.453,398.44,55.739Z" transform="translate(-344.854 -20.058)" fill="#cadef9"/>
      <path id="Trazado_726873" data-name="Trazado 726873" d="M417.815,76.42a1.865,1.865,0,0,1-.5.241c-3.416,1.071-8.481.247-11-.285l.367,2.375c1.572.553,5.125,1.23,11.184-.551Z" transform="translate(-384.99 76.659)" fill="#f9a806"/>
      <path id="Trazado_726874" data-name="Trazado 726874" d="M367.339,65.859l-3.046-2.789a1.176,1.176,0,0,1-.074-1.665h0a1.176,1.176,0,0,1,1.665-.074l3.046,2.789Z" transform="translate(-219.89 49.952)" fill="#fac902"/>
      <path id="Trazado_726875" data-name="Trazado 726875" d="M368.945,64.724a7.942,7.942,0,0,1-2.1,1.271l-2.068-1.89a1.181,1.181,0,0,1,1.594-1.742Z" transform="translate(-221.234 51.748)" fill="#fac902"/>
      <path id="Trazado_726876" data-name="Trazado 726876" d="M364.273,60.712a16.072,16.072,0,0,1,8-1.142l2.564,1.589a.844.844,0,0,1,.271,1.161h0a1.047,1.047,0,0,1-1.2.444l-2.931-.923a9.87,9.87,0,0,1-6.256,3.849C364.536,63.646,364.374,60.825,364.273,60.712Z" transform="translate(-227.186 47.292)" fill="#fac902"/>
      <path id="Trazado_726877" data-name="Trazado 726877" d="M368.363,63.524l-1.192,1.3-3.046-2.791a1.178,1.178,0,1,1,1.591-1.737l1.759,1.608A6.193,6.193,0,0,1,368.363,63.524Z" transform="translate(-218.865 48.156)" fill="#fac902"/>
    </g>
  </g>
</svg>
