<svg xmlns="http://www.w3.org/2000/svg" xmlns:xlink="http://www.w3.org/1999/xlink" width="295" height="223" viewBox="0 0 295 223">
  <defs>
    <clipPath id="clip-path">
      <rect id="Rectángulo_340541" data-name="Rectángulo 340541" width="295" height="223" transform="translate(1021 6121)" fill="#a7bce6"/>
    </clipPath>
  </defs>
  <g id="Grupo_960532" data-name="Grupo 960532" transform="translate(-1021 -6621)">
    <path id="Trazado_727582" data-name="Trazado 727582" d="M0,0H295V223H0Z" transform="translate(1021 6621)" fill="#0e494d"/>
    <g id="Enmascarar_grupo_927246" data-name="Enmascarar grupo 927246" transform="translate(0 500)" clip-path="url(#clip-path)">
      <g id="Grupo_960173" data-name="Grupo 960173" transform="translate(606.865 6078.736)">
        <path id="Trazado_726878" data-name="Trazado 726878" d="M485.884,102.807Q473.152,130,460.412,157.2c-9.19,19.622-18.508,39.7-20.806,61.241s3.683,45.211,20.506,58.863c15.555,12.617,37.362,14.715,53.908,26.006,28.308,19.319,33.116,58.3,36.263,92.428s10.659,73.449,40.936,89.5c32.63,17.294,75.086-4.937,92.242-37.64s15.6-71.728,12.332-108.513a1582.2,1582.2,0,0,0-36.818-226.363C645.748,57.175,624.825-10.106,556.089,21.26,520.013,37.725,502.093,68.2,485.884,102.807Z" transform="translate(-59 64)" fill="#f1f4fb"/>
        <g id="Grupo_960172" data-name="Grupo 960172" transform="translate(474.779 49.685)">
          <g id="Grupo_960171" data-name="Grupo 960171">
            <path id="Trazado_726879" data-name="Trazado 726879" d="M456.964,59.374l-2.81,2.795,2.975,5.668s8.086.314,11.673-.75,4.891-2.8,4.891-2.8l-9.267-5.762Z" transform="translate(-439.219 82.355)" fill="#232d3f"/>
            <path id="Trazado_726880" data-name="Trazado 726880" d="M460.349,57.827l-6.543.5-.526,2.182,7.129.345Z" transform="translate(-441.774 80.311)" fill="#232d3f"/>
            <g id="Grupo_960159" data-name="Grupo 960159" transform="translate(0 130.025)">
              <path id="Trazado_726881" data-name="Trazado 726881" d="M459.457,57.482l-4.863,8.435a1.744,1.744,0,0,1-.192.279l-.051.055a1.706,1.706,0,0,1-1.248.542.516.516,0,0,1-.471-.726l3.576-7.944.286-.64Z" transform="translate(-443.807 -50.723)" fill="#f9a806"/>
              <g id="Grupo_960151" data-name="Grupo 960151">
                <path id="Trazado_726882" data-name="Trazado 726882" d="M484.175,88.325v37.833c0,.279-2.453.534-6.041.734-4.3.239-10.217.4-15.473.42H461.6c-9.809,0-11.249-.518-11.249-1.154V92.8a4.1,4.1,0,0,1,3.517-4.055l7.827-2.049a4.132,4.132,0,0,0,3.482-4.883l-1.256-6.523a1.86,1.86,0,0,1,1.825-2.21h.412a1.915,1.915,0,0,0,1.9-1.649l.443-11.52.134-.958.051-.334h10.672v.334c.078,7.764,2.759,23,4.09,25.956A8.334,8.334,0,0,1,484.175,88.325Z" transform="translate(-450.349 -47.394)" fill="#dee7f0"/>
                <path id="Trazado_726883" data-name="Trazado 726883" d="M470.528,57.106v9.679a.535.535,0,0,1-.538.534h-10.26a.534.534,0,0,1-.534-.534l-.891-3.5a1.02,1.02,0,0,0-.985-.765h-3.576a.267.267,0,0,1-.267-.267V56.031a.271.271,0,0,1,.267-.271h15.437a1.351,1.351,0,0,1,1.339,1.2C470.524,57.012,470.528,57.059,470.528,57.106Z" transform="translate(-441.197 -55.76)" fill="#fac902"/>
                <path id="Trazado_726884" data-name="Trazado 726884" d="M456.627,55.815v6.331h-3.772a.443.443,0,0,1-.443-.444V56.259a.443.443,0,0,1,.443-.444Z" transform="translate(-444.315 -55.599)" fill="#f9a806"/>
                <path id="Rectángulo_340537" data-name="Rectángulo 340537" d="M.074,0H1.948a0,0,0,0,1,0,0V4.573a0,0,0,0,1,0,0H.074A.074.074,0,0,1,0,4.5V.074A.074.074,0,0,1,.074,0Z" transform="translate(6.149 1.094)" fill="#f77f08"/>
              </g>
              <rect id="Rectángulo_340538" data-name="Rectángulo 340538" width="12.851" height="1.783" rx="0.204" transform="translate(17.205 9.967)" fill="#f9a806"/>
              <g id="Grupo_960158" data-name="Grupo 960158" transform="translate(4.471 43.853)">
                <path id="Rectángulo_340539" data-name="Rectángulo 340539" d="M.75,0h32.4A.749.749,0,0,1,33.9.749v26.6a.749.749,0,0,1-.749.749H.75a.75.75,0,0,1-.75-.75V.75A.75.75,0,0,1,.75,0Z" transform="translate(28.096 0) rotate(90)" fill="#f2f5f9" opacity="0.5"/>
                <g id="Grupo_960157" data-name="Grupo 960157" transform="translate(0.967 0.967)">
                  <rect id="Rectángulo_340540" data-name="Rectángulo 340540" width="26.161" height="31.962" rx="0.503" fill="#c1d3f7"/>
                  <path id="Trazado_726885" data-name="Trazado 726885" d="M472.548,71.948a12.039,12.039,0,1,0,3.525,8.509A11.972,11.972,0,0,0,472.548,71.948Zm-15.657,1.366a10.122,10.122,0,0,1,13.569-.652l-14.22,14.22A10.114,10.114,0,0,1,456.892,73.314ZM471.179,87.6a10.114,10.114,0,0,1-13.569.652l14.221-14.22a10.1,10.1,0,0,1-.652,13.569Z" transform="translate(-450.955 -63.541)" fill="#f95353"/>
                  <g id="Grupo_960156" data-name="Grupo 960156" transform="translate(6.041 8.755)">
                    <g id="Grupo_960152" data-name="Grupo 960152" transform="translate(7.491)">
                      <path id="Trazado_726886" data-name="Trazado 726886" d="M455.757,72.1l-.575-2.686,1.15,2.8Z" transform="translate(-455.182 -69.41)" fill="#2e3c54"/>
                      <path id="Trazado_726887" data-name="Trazado 726887" d="M456.256,71.369,458.638,70l-2.855,1.017Z" transform="translate(-453.422 -67.675)" fill="#2e3c54"/>
                    </g>
                    <path id="Trazado_726888" data-name="Trazado 726888" d="M458.7,72.738a1.934,1.934,0,1,1-.977-2.551A1.939,1.939,0,0,1,458.7,72.738Z" transform="translate(-448.238 -67.63)" fill="#2e3c54"/>
                    <path id="Trazado_726889" data-name="Trazado 726889" d="M461.554,76.324a9.133,9.133,0,0,1-5.589,4.671l-.059-1.3-.993.82a9.293,9.293,0,0,1-.263-7.277c1-2.249,3.018-3.54,5.271-2.536S462.555,74.071,461.554,76.324Z" transform="translate(-451.123 -66.624)" fill="#2e3c54"/>
                    <g id="Grupo_960155" data-name="Grupo 960155" transform="translate(0 2.498)">
                      <g id="Grupo_960153" data-name="Grupo 960153">
                        <path id="Trazado_726890" data-name="Trazado 726890" d="M455.507,72.723,453.442,70.9l2.734.323Z" transform="translate(-452.781 -67.536)" fill="#2e3c54"/>
                        <path id="Trazado_726891" data-name="Trazado 726891" d="M455.293,72.489l-1.268-2.443,2.432,1.289Z" transform="translate(-451.073 -70.046)" fill="#2e3c54"/>
                        <path id="Trazado_726892" data-name="Trazado 726892" d="M455.823,71.761,453.273,72.8l2.688.594Z" transform="translate(-453.273 -65.031)" fill="#2e3c54"/>
                      </g>
                      <g id="Grupo_960154" data-name="Grupo 960154" transform="translate(7.833 3.929)">
                        <path id="Trazado_726893" data-name="Trazado 726893" d="M455.865,73.329l2.734.322-2.066-1.819Z" transform="translate(-453.527 -68.749)" fill="#2e3c54"/>
                        <path id="Trazado_726894" data-name="Trazado 726894" d="M456.131,72.683l2.665-.688-2.584-.948Z" transform="translate(-452.749 -71.047)" fill="#2e3c54"/>
                        <path id="Trazado_726895" data-name="Trazado 726895" d="M456.577,72.51l.93,2.591-2.237-1.6Z" transform="translate(-455.269 -66.768)" fill="#2e3c54"/>
                      </g>
                    </g>
                  </g>
                </g>
              </g>
              <path id="Trazado_726896" data-name="Trazado 726896" d="M470.652,88.121v37.833c0,.279-2.453.538-6.041.734V85.876a48.813,48.813,0,0,1-2.916-11.9c-.436-3.383-3.309-14.264-6.724-14.264h0l.134-.954h10.723c.079,7.76,2.759,23,4.09,25.956A8.315,8.315,0,0,1,470.652,88.121Z" transform="translate(-436.827 -47.002)" fill="#677ca1" opacity="0.15"/>
              <path id="Trazado_726897" data-name="Trazado 726897" d="M462.662,65.755V106.63H461.6c-9.809,0-11.249-.514-11.249-1.154V72.117a4.092,4.092,0,0,1,3.517-4.051l7.827-2.053A4.1,4.1,0,0,0,462.662,65.755Z" transform="translate(-450.349 -26.524)" fill="#f2f5f9" opacity="0.5"/>
              <path id="Trazado_726898" data-name="Trazado 726898" d="M469.182,55.76l-14.5,1.1v5.664h-.938a.267.267,0,0,1-.267-.267V56.031a.271.271,0,0,1,.267-.271Z" transform="translate(-441.197 -55.76)" fill="#f2f5f9" opacity="0.5"/>
              <path id="Trazado_726899" data-name="Trazado 726899" d="M458.142,57.482l-4.863,8.435a1.742,1.742,0,0,1-.192.279l-.051.055,4.141-8.129h-2.284l.286-.64Z" transform="translate(-442.492 -50.723)" fill="#f77f08"/>
              <path id="Trazado_726900" data-name="Trazado 726900" d="M456.6,56.265V60.83h-3.741a.443.443,0,0,1-.443-.444h.879a3.206,3.206,0,0,0,3.191-2.9Z" transform="translate(-444.315 -54.283)" fill="#f77f08"/>
              <path id="Trazado_726901" data-name="Trazado 726901" d="M464.991,56.211v8.619h-9.62l9.036-.553.577-8.211C464.987,56.117,464.991,56.164,464.991,56.211Z" transform="translate(-435.659 -54.865)" fill="#f77f08"/>
            </g>
            <path id="Trazado_726902" data-name="Trazado 726902" d="M493.116,94.985s10.751-8.914,15.516-27.938S492.6,41.561,492.6,41.561s-11.19,19.178-17.816,35.82C488.3,90.632,493.116,94.985,493.116,94.985Z" transform="translate(-378.882 32.732)" fill="#bdcce8"/>
            <path id="Trazado_726903" data-name="Trazado 726903" d="M484.732,38.827l-5.411,2.407,3.26,3.135,4.183-3.566Z" transform="translate(-365.605 24.735)" fill="#bdcce8"/>
            <g id="Grupo_960160" data-name="Grupo 960160" transform="translate(121.762 191.714)">
              <path id="Trazado_726904" data-name="Trazado 726904" d="M481.372,71.477s0,55.567,1.892,107.428a160.4,160.4,0,0,0,3.466,27.864c3.7,17.231,11.34,55.465,14.554,95.374q.5,6.253.793,12.686h13.679c.2-4.506.439-8.7.722-12.619,2.559-35.788,8.137-54.083,6.869-85.66-.337-8.353-4.957-22.027-4.957-22.027s14.538-79.148,14.538-106.439c0-5.931-2.469-16.607-2.469-16.607Z" transform="translate(-481.368 -71.477)" fill="#acbfe2"/>
              <path id="Trazado_726905" data-name="Trazado 726905" d="M481.372,71.477s0,55.567,1.892,107.428a160.4,160.4,0,0,0,3.466,27.864c3.7,17.231,11.34,55.465,14.554,95.374q.5,6.253.793,12.686h13.679c.2-4.506.439-8.7.722-12.619,2.559-35.788,8.137-54.083,6.869-85.66-.337-8.353-4.957-22.027-4.957-22.027s14.538-79.148,14.538-106.439c0-5.931-2.469-16.607-2.469-16.607Z" transform="translate(-481.368 -71.477)" fill="#41313b"/>
              <path id="Trazado_726906" data-name="Trazado 726906" d="M486.445,130.245c.334,4.168.734,13.467.926,17.757h13.51c.2-4.506.475-13.769.758-17.69C499.59,131.5,493.518,132.985,486.445,130.245Z" transform="translate(-466.529 100.421)" fill="#f6c1af"/>
              <path id="Trazado_726907" data-name="Trazado 726907" d="M481.522,148.3a1.182,1.182,0,0,0,1.181,1.166h34.042a11.057,11.057,0,0,0,.44-1.44c.016-.106.028-.212.039-.318a27.9,27.9,0,0,0-1.2-11.893l-.706-2.163s-4.314,4.027-13.679,0c-3.046-1.311-2.693,3.325-3.281,3.858-5.177,4.639-10.331,5.04-13.738,6.3a4.746,4.746,0,0,0-2.842,2.912,4.7,4.7,0,0,0-.247,1.3C481.522,148.114,481.522,148.208,481.522,148.3Z" transform="translate(-480.929 109.702)" fill="#41313b"/>
              <path id="Trazado_726908" data-name="Trazado 726908" d="M481.371,138.362a1.184,1.184,0,0,0,1.181,1.166h34.635a11.056,11.056,0,0,0,.44-1.44c.016-.106.028-.212.039-.318l-34.941-.954a1.306,1.306,0,0,0-1.346,1.217v.055C481.371,138.177,481.371,138.272,481.371,138.362Z" transform="translate(-481.371 119.639)" fill="#41313b"/>
            </g>
            <path id="Trazado_726909" data-name="Trazado 726909" d="M492.009,28.776S490.862,44.994,500.6,62.9a12.451,12.451,0,0,1,.259,11.559,10.668,10.668,0,0,1-3.442,4.1l-12.07-13.294s-.106-13.934-.059-14.287S492.009,28.776,492.009,28.776Z" transform="translate(-348.195 -4.665)" fill="#bf6449"/>
            <path id="Trazado_726910" data-name="Trazado 726910" d="M501.082,28.936s-2.861,24.586,7.473,39.431S489.511,90.92,483.534,84.416s9.589-21.093,4.043-37.445S501.082,28.936,501.082,28.936Z" transform="translate(-357.352 -4.197)" fill="#7f452f"/>
            <g id="Grupo_960161" data-name="Grupo 960161" transform="translate(141.988 191.714)">
              <path id="Trazado_726911" data-name="Trazado 726911" d="M486.525,71.477s0,4.29.039,11.6c.106,19,.487,58.377,1.853,95.83a161.058,161.058,0,0,0,3.466,27.86c3.7,17.231,11.339,55.465,14.554,95.378q.506,6.247.8,12.686h13.679c.2-4.51.436-8.7.722-12.623,2.559-35.788,8.133-54.079,6.869-85.656-.338-8.356-4.961-22.027-4.961-22.027s8.062-73.206,9.09-103.087c.043-1.189.063-2.312.063-3.356,0-5.927-2.469-16.6-2.469-16.6Z" transform="translate(-486.521 -71.477)" fill="#56414f"/>
              <path id="Trazado_726912" data-name="Trazado 726912" d="M491.6,130.245c.338,4.165.738,13.467.926,17.757h13.51c.2-4.51.479-13.769.761-17.694C504.743,131.5,498.671,132.985,491.6,130.245Z" transform="translate(-471.682 100.421)" fill="#f6c1af"/>
              <path id="Trazado_726913" data-name="Trazado 726913" d="M486.675,148.3a1.187,1.187,0,0,0,1.181,1.166H521.9a11.054,11.054,0,0,0,.44-1.44c.016-.106.028-.212.039-.322a27.825,27.825,0,0,0-1.2-11.889l-.706-2.163s-4.314,4.027-13.679,0c-3.05-1.315-2.7,3.325-3.285,3.854-5.177,4.643-10.331,5.044-13.734,6.3a4.752,4.752,0,0,0-2.842,2.916,4.543,4.543,0,0,0-.251,1.3C486.675,148.115,486.675,148.205,486.675,148.3Z" transform="translate(-486.082 109.701)" fill="#56414f"/>
              <path id="Trazado_726914" data-name="Trazado 726914" d="M486.524,138.362a1.188,1.188,0,0,0,1.185,1.166H522.34a11.054,11.054,0,0,0,.44-1.44c.016-.106.028-.212.039-.322l-34.941-.95a1.3,1.3,0,0,0-1.342,1.213l0,.059C486.528,138.177,486.524,138.268,486.524,138.362Z" transform="translate(-486.524 119.639)" fill="#41313b"/>
            </g>
            <path id="Trazado_726915" data-name="Trazado 726915" d="M483.745,62.641,479.7,34.109l16.446-3.116s.864,13.216,5.526,24.166c0,0-4.09,2.469-8.753,4.71-4.73,2.277-8.827,3.564-9.157,2.881l-.008-.02A.229.229,0,0,1,483.745,62.641Z" transform="translate(-364.49 1.82)" fill="#f1a19a"/>
            <path id="Trazado_726916" data-name="Trazado 726916" d="M483.98,24.458s-6.362.958-8.368,3.458c-2.865,3.572-2.579,11.073,4.247,16.293C484.577,40.1,486.139,26.88,483.98,24.458Z" transform="translate(-381.47 -17.295)" fill="#7f452f"/>
            <path id="Trazado_726917" data-name="Trazado 726917" d="M478.685,66.129c1.554,5.888,6.288,11.693,10.237,15.359.75.695,2,.495,3.788.114,5.762-1.24,12.788-6.708,17.659-13.7,1.44-2.791.762-7.179,1.857-12.383,1.264-5.994,7.4-11.626,6.72-15.206-2.288-12.073-11.481-18.4-28.221-15.979-13.074,1.892-17.859,11.332-14.428,22.852.216.722.4,1.405.573,2.045.106.4.2.785.29,1.154.078.33.149.648.216.954.035.145.063.294.094.436.11.538.2,1.04.279,1.519.059.365.11.718.153,1.056l.028.224C478.525,59.558,477.426,61.356,478.685,66.129Z" transform="translate(-377.596 -19.154)" fill="#f6c1af"/>
            <path id="Trazado_726918" data-name="Trazado 726918" d="M478.423,33.4a6.5,6.5,0,0,0,2.975,2.457,9.314,9.314,0,0,0,1.817.6c.161.035.326.063.491.082,3.913.487,7.269-3.4,7.269-3.4a12.94,12.94,0,0,0-1.346-1.217,10.432,10.432,0,0,0-3.76-2.01c-1.825-.455-4.828,1.511-6.406,2.677C478.827,33.061,478.423,33.4,478.423,33.4Z" transform="translate(-368.232 -1.535)" fill="#fff"/>
            <path id="Trazado_726919" data-name="Trazado 726919" d="M479.048,33.219a2.381,2.381,0,0,0,.648,1.248,9.313,9.313,0,0,0,1.817.6c.161.035.326.063.491.082a2.444,2.444,0,1,0-2.956-1.927Z" transform="translate(-366.529 -0.143)" fill="#6b3c2a"/>
            <path id="Trazado_726920" data-name="Trazado 726920" d="M479.981,31.583a.9.9,0,1,0,.714-1.052A.9.9,0,0,0,479.981,31.583Z" transform="translate(-363.722 0.422)" fill="#fff"/>
            <path id="Trazado_726921" data-name="Trazado 726921" d="M476.484,35.639c.055.008.137.024.243.039a9.867,9.867,0,0,0,3.328-.212,13.237,13.237,0,0,0,3.67-1.452c-.024-.691-.063-1.386-.11-2.076-.02-.283-.039-.565-.063-.848l-.012-.153a9.19,9.19,0,0,0-7.827.514c.078.33.149.648.216.954.153.7.275,1.346.373,1.955C476.374,34.807,476.437,35.235,476.484,35.639Z" transform="translate(-376.152 -0.22)" fill="#fff"/>
            <path id="Trazado_726922" data-name="Trazado 726922" d="M476.226,34.636a2.458,2.458,0,0,0,.271.263,9.867,9.867,0,0,0,3.328-.212,2.445,2.445,0,1,0-4.031-2.626c.11.538.2,1.04.279,1.519C476.131,33.945,476.182,34.3,476.226,34.636Z" transform="translate(-375.921 0.56)" fill="#6b3c2a"/>
            <path id="Trazado_726923" data-name="Trazado 726923" d="M476.789,31.827a.9.9,0,1,0,.714-1.052A.9.9,0,0,0,476.789,31.827Z" transform="translate(-373.058 1.139)" fill="#fff"/>
            <path id="Trazado_726924" data-name="Trazado 726924" d="M475.715,31.451c.078.33.149.648.216.954,2.8-1.252,6.394-.722,7.685-.467-.02-.283-.039-.565-.063-.848l-.012-.153A9.19,9.19,0,0,0,475.715,31.451Z" transform="translate(-376.152 -0.22)" fill="#f1a19a"/>
            <path id="Trazado_726925" data-name="Trazado 726925" d="M475.534,32.06c.369-.149.726-.287,1.1-.4s.738-.2,1.111-.279.75-.13,1.13-.173.758-.075,1.138-.094c.765-.035,1.531-.031,2.3,0,.612.027,1.225.071,1.841.122l0-.063,0-.075a10.789,10.789,0,0,0-1.794-.408,11.909,11.909,0,0,0-2.367-.126,9.766,9.766,0,0,0-2.347.4,7.942,7.942,0,0,0-1.107.444A5.756,5.756,0,0,0,475.534,32.06Z" transform="translate(-376.682 0.541)" fill="#97452d"/>
            <g id="Grupo_960162" data-name="Grupo 960162" transform="translate(111.232 28.311)">
              <path id="Trazado_726926" data-name="Trazado 726926" d="M478.688,32.59a17.568,17.568,0,0,1,10.166-.667,10.433,10.433,0,0,0-3.76-2.01C483.269,29.458,480.266,31.424,478.688,32.59Z" transform="translate(-478.688 -29.846)" fill="#f1a19a"/>
              <path id="Trazado_726927" data-name="Trazado 726927" d="M478.688,31.53c.836-.228,1.668-.432,2.508-.585.212-.031.42-.067.632-.1s.42-.055.632-.082.424-.047.636-.067c.106-.012.212-.024.318-.027l.318-.02.322-.02.318-.012c.212-.008.424-.012.64-.012s.424,0,.64,0,.424.012.64.024c.852.039,1.7.122,2.563.232a12.169,12.169,0,0,0-2.539-.553c-.106-.012-.216-.027-.322-.039l-.326-.024c-.216-.016-.436-.024-.652-.031s-.436,0-.655,0l-.326.008-.326.016a14.319,14.319,0,0,0-2.579.4A12.377,12.377,0,0,0,478.688,31.53Z" transform="translate(-478.688 -28.786)" fill="#97452d"/>
            </g>
            <g id="Grupo_960163" data-name="Grupo 960163" transform="translate(109.218 46.408)">
              <path id="Trazado_726928" data-name="Trazado 726928" d="M480.228,34.482a2.46,2.46,0,0,0-.612-.012,2.893,2.893,0,0,0-.6.122,1.539,1.539,0,0,0-.553.294.75.75,0,0,0-.283.546.92.92,0,0,1,.361-.444,2.063,2.063,0,0,1,.526-.239,4.549,4.549,0,0,1,.573-.149Z" transform="translate(-478.175 -34.457)" fill="#f1a19a"/>
            </g>
            <g id="Grupo_960165" data-name="Grupo 960165" transform="translate(109.914 25.395)">
              <g id="Grupo_960164" data-name="Grupo 960164">
                <path id="Trazado_726929" data-name="Trazado 726929" d="M490.656,30.563a7.617,7.617,0,0,0-1.091-.793,4.984,4.984,0,0,0-1.268-.542l-.027,0-.016,0a24.521,24.521,0,0,0-4.8,0,22.511,22.511,0,0,0-4.73,1,.537.537,0,1,0,.334,1.021l.023-.008,0,0a21.818,21.818,0,0,1,4.471-1.213,23.683,23.683,0,0,1,4.659-.259l-.039-.008a4.628,4.628,0,0,1,1.166.424,7.1,7.1,0,0,1,1.071.691.2.2,0,0,0,.271-.035A.2.2,0,0,0,490.656,30.563Z" transform="translate(-478.352 -29.103)" fill="#97452d"/>
              </g>
            </g>
            <path id="Trazado_726930" data-name="Trazado 726930" d="M484.532,31.035a4.6,4.6,0,0,0-1.963-1.3,5.466,5.466,0,0,0-1.178-.247c-.2-.016-.408-.024-.6-.024s-.393.008-.589.016a21.888,21.888,0,0,0-2.324.247c-.766.114-1.527.267-2.284.436a.334.334,0,0,0,.145.652h0c.373-.086.746-.173,1.119-.247s.75-.153,1.122-.224q1.125-.212,2.257-.33c.188-.016.377-.031.565-.043a5.21,5.21,0,0,1,.553-.008,4.9,4.9,0,0,1,1.087.169,5.951,5.951,0,0,1,1.04.393,7.8,7.8,0,0,1,.977.581.051.051,0,0,0,.071-.016.047.047,0,0,0,0-.059Z" transform="translate(-377.261 -2.638)" fill="#97452d"/>
            <path id="Trazado_726931" data-name="Trazado 726931" d="M477.251,47.483l.008-.008a5.9,5.9,0,0,0,.969-1.959,15.03,15.03,0,0,0,.494-2.167,37.63,37.63,0,0,0,.4-4.463c.055-1.5.063-3,.035-4.5s-.071-3-.145-4.506c.208,1.492.349,2.991.436,4.5s.118,3.01.075,4.518c-.024.754-.059,1.511-.125,2.261s-.161,1.507-.29,2.253a13.926,13.926,0,0,1-.561,2.21,6,6,0,0,1-1.044,1.939c.063.094.125.188.192.279.086.11.169.228.263.338a6.32,6.32,0,0,0,.589.624,5.855,5.855,0,0,0,.683.526,3.6,3.6,0,0,0,.777.389,3.309,3.309,0,0,1-.813-.322,5.4,5.4,0,0,1-.734-.487,6.7,6.7,0,0,1-.652-.6c-.1-.1-.192-.22-.29-.334s-.181-.232-.271-.349A.112.112,0,0,1,477.251,47.483Z" transform="translate(-371.738 -1.427)" fill="#f1a19a"/>
            <path id="Trazado_726932" data-name="Trazado 726932" d="M475.42,40.712c1.315-1.468,10.755-7.257,16.866-3.713,15.673,9.086,6.5,15.19,16.619,17.294l8.823.726a15.609,15.609,0,0,0,3.682-10.586,13.58,13.58,0,0,0-.2-1.554c-1.311-6.9-4.223-16.053-11.795-17.753s-26.3-7.218-32.491,6.908C474.474,37.638,475.42,40.712,475.42,40.712Z" transform="translate(-377.541 -22.633)" fill="#bf6449"/>
            <path id="Trazado_726933" data-name="Trazado 726933" d="M475.286,34.576c1.315-1.468,10.755-7.257,16.866-3.713,15.673,9.086,6.5,15.19,16.619,17.294.84-3.038,3.116-5.13,5.55-4.879,2.029.212,3.611,1.994,4.2,4.4a15.237,15.237,0,0,0,2.755-9.381c-15.472,3.878-11.261-11.4-26.321-13.329C479.132,22.942,475.286,34.576,475.286,34.576Z" transform="translate(-377.407 -16.497)" fill="#7f452f" opacity="0.25"/>
            <path id="Trazado_726934" data-name="Trazado 726934" d="M479.514,50.411l5.742-7.108c2.449-.852,5.77-3.014,8.835-5.33l-9.773,4.365A48.682,48.682,0,0,0,479.514,50.411Z" transform="translate(-365.04 22.237)" fill="#f1a19a"/>
            <path id="Trazado_726935" data-name="Trazado 726935" d="M483.959,93.114c14.9,24.041,6.555,78.787,6.555,78.787s18.938-.055,39.486-.043c4.235,0,8.549,0,12.768.008,4.015.008,7.948.02,11.677.035-1.558-44.463-8-74.324-15.4-94.409-1.558-4.223-3.156-8.011-4.757-11.414-5.158-10.955-10.378-17.9-14.436-22.33a24.335,24.335,0,0,0-8.67-5.625c-2.61-.985-5.228-1.358-7.14-.506L497.8,40.4c-3.061,2.312-6.378,4.478-8.831,5.322l-5.742,7.112-.008.012C478.825,61.981,474.343,77.6,483.959,93.114Z" transform="translate(-368.752 19.813)" fill="#acbfe2"/>
            <path id="Trazado_726936" data-name="Trazado 726936" d="M485.99,77.393c1,10.766.9,27.64-.852,56.8-.267,4.451-.475,8.977-.628,13.541l0,.024c-1.739,51.622,3.309,108.2,4.663,122.143a4.335,4.335,0,0,0,3.674,3.87c6.6,1,22.467,2.265,43.435-3.7a3.823,3.823,0,0,0,2.524-5.016c-9.923-26.69-2.559-114.917,11.665-137.875a14.405,14.405,0,0,0-.447-7A62.746,62.746,0,0,1,544.1,116a125.45,125.45,0,0,1-16.626-15.692,153.11,153.11,0,0,1-29.1-49.039,1.892,1.892,0,0,0-1.813-1.232c-.188.008-.393.016-.608.027a41.384,41.384,0,0,0-4.533.491,34.858,34.858,0,0,0-8.172,2.355l-.008.008a24.5,24.5,0,0,0-2.94,1.519,1.416,1.416,0,0,0-.491,1.9C482.654,61.41,484.938,65.963,485.99,77.393Z" transform="translate(-364.707 57.518)" fill="#9a88a0"/>
            <path id="Trazado_726937" data-name="Trazado 726937" d="M489.525,149.123l2.724.612c2.787-4.671,11.5-32.927,17.525-53.039,2.406-8.019,4.38-14.746,5.381-18.161a125.446,125.446,0,0,1-16.626-15.692l1.39,13.993-2.912,19.853-5.2,35.388Z" transform="translate(-335.758 94.983)" fill="#56414f" opacity="0.25"/>
            <path id="Trazado_726938" data-name="Trazado 726938" d="M489.446,57.291l4.965,17.227,4.349,43.748a125.451,125.451,0,0,0,16.626,15.692l.012-.043a11.691,11.691,0,0,0,.369-4.8l-9.483-71.365c-1.558-4.223-3.156-8.011-4.757-11.414L493.693,43.9Z" transform="translate(-335.989 39.559)" fill="#90aad3"/>
            <g id="Grupo_960168" data-name="Grupo 960168" transform="translate(139.618 66.725)">
              <g id="Grupo_960166" data-name="Grupo 960166">
                <path id="Trazado_726939" data-name="Trazado 726939" d="M485.963,55.388c.471,10.2,3.423,23.334,6.834,35.537.349,1.264.71,2.524,1.075,3.764,5.02,17.243,9.616,33.889,9.616,33.889l15.586-3.081s-1.146-15.029-3.854-33.857c-.188-1.3-.385-2.622-.585-3.956-1.684-11.061-3.882-23.118-6.684-34.05-1.8-7.034-7.426-13.9-15.52-14C487.929,39.574,485.567,46.93,485.963,55.388Z" transform="translate(-485.92 -39.633)" fill="#f6c1af"/>
                <path id="Trazado_726940" data-name="Trazado 726940" d="M511.1,61.509s.616,5.095.542,6.559c-.7,13.274-13.051,64.637-13.051,64.637l-9.938-1.9c3.109-24.316,2.469-40.648,4.447-57.706.546-4.71,3.352-10.707,3.352-10.707Z" transform="translate(-477.941 24.355)" fill="#f6c1af"/>
              </g>
              <g id="Grupo_960167" data-name="Grupo 960167" transform="translate(2.838 155.161)">
                <path id="Trazado_726941" data-name="Trazado 726941" d="M504.05,83.332l-6.092,16.988a.891.891,0,0,1-1.021.569h0a.888.888,0,0,1-.675-1.083l2.477-10.036-4.113,10.857a.854.854,0,0,1-.965.538h0a.857.857,0,0,1-.679-1.013l2.312-11.21-3.886,10.927a1.041,1.041,0,0,1-1.279.648h0a1.044,1.044,0,0,1-.714-1.268l2.967-11.131L488.2,98.373a.808.808,0,0,1-1.017.459h0a.812.812,0,0,1-.514-.958l4.263-17,9.247.95Z" transform="translate(-486.643 -74.159)" fill="#232d3f"/>
                <path id="Trazado_726942" data-name="Trazado 726942" d="M501.356,81.064l-.063,4.981a8.769,8.769,0,0,1-2.512,6.025h0a5.389,5.389,0,0,1-5.8,1.236l-1.472-.577a5.992,5.992,0,0,1-3.7-6.72h0a13.335,13.335,0,0,1,3.607-6.845h0Z" transform="translate(-483.549 -79.164)" fill="#2e3c54"/>
              </g>
              <path id="Trazado_726943" data-name="Trazado 726943" d="M503.4,78.168a26.04,26.04,0,0,0-13.918-2.92l-.832,15.484,9.938,1.9Z" transform="translate(-477.941 64.429)" fill="#2e3c54"/>
            </g>
            <path id="Trazado_726944" data-name="Trazado 726944" d="M479.512,46.453l7.317-4.1.842-.473-2.41-2.547-5.743,7.109Z" transform="translate(-365.045 26.208)" fill="#bdcce8"/>
            <path id="Trazado_726945" data-name="Trazado 726945" d="M480.977,48.6a6.413,6.413,0,0,0,1.57,3.018,14.48,14.48,0,0,0,1.217,1.3A48.809,48.809,0,0,0,503.193,41a9.176,9.176,0,0,0-5.248-4.836,61.992,61.992,0,0,1-8.133,7.108C486.747,45.586,483.426,47.749,480.977,48.6Z" transform="translate(-360.761 16.94)" fill="#bdcce8"/>
            <path id="Trazado_726946" data-name="Trazado 726946" d="M472.228,76.59l11.057,5.719s6.437-6.806,13.671-15.845c.2-.243.392-.491.593-.734l.008,0a1.625,1.625,0,0,0,.133-.165c.785-1.335-1.6-5.4-5.542-9.346-4.117-4.117-8.372-6.539-9.5-5.4a.7.7,0,0,0-.121.157.629.629,0,0,0-.083.188C476.2,65.447,472.228,76.59,472.228,76.59Z" transform="translate(-386.352 58.969)" fill="#f6c1af"/>
            <path id="Trazado_726947" data-name="Trazado 726947" d="M527.556,62.919a9.894,9.894,0,0,0-9.039-7.038c-12.16-1.083-17.286,6.013-60.646,7.976l.766,9.809s45.063,1.715,62.369-3.529C525.609,68.744,527.556,62.919,527.556,62.919Z" transform="translate(-428.347 74.292)" fill="#f6c1af"/>
            <path id="Trazado_726948" data-name="Trazado 726948" d="M483.169,85.53a41.489,41.489,0,0,1,4.529-.495c-1.028-7.6-4.62-42.606,16.3-44.435l3.564.416-3.513-2.928S477.823,36.169,483.169,85.53Z" transform="translate(-356.453 22.545)" fill="#6f6377"/>
            <path id="Trazado_726949" data-name="Trazado 726949" d="M483.787,80.451a24.02,24.02,0,0,1,2.944-1.523l0-.008s-11.088-22.51-4.07-37.778C478.167,48.18,475.557,64.759,483.787,80.451Z" transform="translate(-368.191 31.506)" fill="#6f6377"/>
            <path id="Trazado_726950" data-name="Trazado 726950" d="M480.872,127.355l5.118-54.048A11.64,11.64,0,0,1,498.456,62.8l7.666.581L482.356,57l0,.008c1,10.766.9,27.64-.852,56.8C481.233,118.265,481.025,122.791,480.872,127.355Z" transform="translate(-361.068 77.9)" fill="#56414f" opacity="0.25"/>
            <path id="Trazado_726951" data-name="Trazado 726951" d="M457.358,58.125l-2.1,2.9a2.632,2.632,0,0,0,.043,3.14l.8,1.048a.937.937,0,0,0,1.232.232h0a1.636,1.636,0,0,0,.538-2.261l-.294-.467,1.59-1.574s2.575,7.124,8.572,7.285l-.766-9.809S460.188,56.61,457.358,58.125Z" transform="translate(-437.446 79.529)" fill="#2e3c54"/>
            <g id="Grupo_960169" data-name="Grupo 960169" transform="translate(14.461 143.956)">
              <path id="Trazado_726952" data-name="Trazado 726952" d="M455.665,61.863l1.142-.655a1.018,1.018,0,0,0,.424-1.3h0a1.014,1.014,0,0,0-1.24-.553l-1.256.408a1.011,1.011,0,0,0-.612,1.378l.11.247A1.017,1.017,0,0,0,455.665,61.863Z" transform="translate(-454.033 -59.309)" fill="#232d3f"/>
              <path id="Trazado_726953" data-name="Trazado 726953" d="M455.913,62.416l1.142-.655a1.013,1.013,0,0,0,.424-1.291h0a1.019,1.019,0,0,0-1.244-.553l-1.252.4a1.018,1.018,0,0,0-.616,1.378l.11.251A1.018,1.018,0,0,0,455.913,62.416Z" transform="translate(-453.312 -57.68)" fill="#232d3f"/>
              <path id="Trazado_726954" data-name="Trazado 726954" d="M456.16,62.976l1.142-.655a1.012,1.012,0,0,0,.42-1.291h0a1.011,1.011,0,0,0-1.24-.557l-1.252.408a1.015,1.015,0,0,0-.616,1.378l.11.247A1.017,1.017,0,0,0,456.16,62.976Z" transform="translate(-452.59 -56.054)" fill="#232d3f"/>
            </g>
            <path id="Trazado_726955" data-name="Trazado 726955" d="M498.921,34.634a28.655,28.655,0,0,0,2.9,3.764,6.752,6.752,0,0,1,1.35,6.849c-1.472,4.051-4.369,7.693-12.042,10.2a6.982,6.982,0,0,1-7.195-1.8,26.382,26.382,0,0,1-7.925-15.889c1.515-1.181,4.153-4.482,7.34-4.066,2.167.283,4.51,1.036,11.559-.663A3.743,3.743,0,0,1,498.921,34.634Z" transform="translate(-375.298 7.481)" fill="#6f6377"/>
            <path id="Trazado_726956" data-name="Trazado 726956" d="M486.046,47.463a.886.886,0,0,0,.62-.255l8.627-8.592a.892.892,0,0,0,.231-.844l-1.515-5.915a.881.881,0,0,0-.534-.6.87.87,0,0,0-.8.082L481.543,38.6a.879.879,0,0,0,.962,1.472l10.1-6.594,1.087,4.243-8.27,8.235a.879.879,0,0,0,.62,1.5Z" transform="translate(-360.264 2.416)" fill="#6f6377"/>
            <g id="Grupo_960170" data-name="Grupo 960170" transform="translate(131.016 26.76)">
              <path id="Trazado_726957" data-name="Trazado 726957" d="M487.023,43.354c1.715.373,6.594-2.575,6.995-6.406a9.138,9.138,0,0,0-.192-3.077c-.589-2.406-2.171-4.188-4.2-4.4-2.434-.251-4.71,1.841-5.55,4.879a9.021,9.021,0,0,0-.29,1.531C483.385,39.708,485.159,42.95,487.023,43.354Z" transform="translate(-483.728 -29.451)" fill="#f6c1af"/>
              <path id="Trazado_726958" data-name="Trazado 726958" d="M486.374,40.379c1.527-.287,4.486-2.359,4.749-4.871.3-2.85-1.1-5.424-3.046-5.628a2.3,2.3,0,0,0-.714.031c-1.727.326-3.171,2.363-3.43,4.843-.318,3.05,1.06,5.42,2.112,5.648A1,1,0,0,0,486.374,40.379Z" transform="translate(-483.267 -28.238)" fill="#f1a19a"/>
            </g>
            <path id="Trazado_726959" data-name="Trazado 726959" d="M453.182,58.815a1.009,1.009,0,0,0,.447,1.319c.428.133.926-.243,1.111-.84a1.013,1.013,0,0,0-.448-1.319C453.865,57.842,453.367,58.218,453.182,58.815Z" transform="translate(-442.263 80.665)" fill="#232d3f"/>
            <path id="Trazado_726960" data-name="Trazado 726960" d="M470.639,57.56s2.575,6.622,1.083,11.74l-13.086-.871-.766-9.809Z" transform="translate(-428.347 79.53)" fill="#2e3c54"/>
          </g>
          <path id="Trazado_726961" data-name="Trazado 726961" d="M492.071,88.75c-5.479-19.319-12.98-45.393,1.26-49.612,8.109-2.261,21.611,3.379,25.67,49.679,0,0,2.273,21.14,4.078,42.43s-3.992,52.164-9.393,53.651-13.918-2.92-13.918-2.92-2.163-8.352.063-38.238a89.163,89.163,0,0,0-1.7-25.132C494.951,103.638,492.3,89.555,492.071,88.75Z" transform="translate(-348.611 24.424)" fill="#bdcce8"/>
          <path id="Trazado_726962" data-name="Trazado 726962" d="M536.854,68.568S524.086,85.677,514.415,90.1s-47.367,6.158-51.508,2.736a12.915,12.915,0,0,1-1.083-11.74s21.391-3.807,44.851-7.732a238.191,238.191,0,0,1,10.676-23.856l14.7,12.819Z" transform="translate(-419.531 55.989)" fill="#bdcce8"/>
        </g>
      </g>
    </g>
  </g>
</svg>
