<svg xmlns="http://www.w3.org/2000/svg" width="89.851" height="76.333" viewBox="0 0 89.851 76.333">
  <g id="papelera-de-reciclaje_2_" data-name="papelera-de-reciclaje (2)" transform="translate(0 -38.478)">
    <path id="Trazado_726292" data-name="Trazado 726292" d="M275.15,279.065l.564.106a1.318,1.318,0,0,0,.485-2.59l-3.486-.653a1.319,1.319,0,0,0-1.526,1l-.8,3.455a1.318,1.318,0,1,0,2.567.6l.076-.328,2.773,4.512a1.122,1.122,0,0,1-.955,1.709,1.318,1.318,0,0,0,0,2.635,3.756,3.756,0,0,0,3.2-5.723Z" transform="translate(-222.86 -195.719)" fill="#12263f"/>
    <path id="Trazado_726293" data-name="Trazado 726293" d="M207.026,316.169a1.317,1.317,0,1,0-1.9,1.823l.318.331h-6.832a1.121,1.121,0,0,1-.951-1.716l.33-.528a1.318,1.318,0,1,0-2.234-1.4l-.33.528a3.756,3.756,0,0,0,3.186,5.747h6.832l-.317.331a1.317,1.317,0,1,0,1.9,1.823l2.454-2.56a1.318,1.318,0,0,0,0-1.823Z" transform="translate(-160.617 -227.175)" fill="#12263f"/>
    <path id="Trazado_726294" data-name="Trazado 726294" d="M206.725,256.547a1.317,1.317,0,0,0,1.526,1l3.486-.653a1.318,1.318,0,0,0-.485-2.59l-.537.1,3.105-4.969a1.117,1.117,0,0,1,.955-.527,1.106,1.106,0,0,1,.951.534l.578.941a1.318,1.318,0,1,0,2.245-1.38l-.578-.941a3.733,3.733,0,0,0-3.186-1.79h-.015a3.733,3.733,0,0,0-3.185,1.766l-3.011,4.818-.083-.358a1.317,1.317,0,1,0-2.567.6Z" transform="translate(-169.721 -171.29)" fill="#12263f"/>
    <path id="Trazado_726295" data-name="Trazado 726295" d="M387.526,55.837,381.884,40.93a3.812,3.812,0,0,0-3.547-2.451H364.553a1.318,1.318,0,0,0,0,2.635h11.279V49.93a.744.744,0,0,1-.744.744h-5.92a1.318,1.318,0,1,0,0,2.635h5.92a3.382,3.382,0,0,0,3.379-3.379V41.124a1.163,1.163,0,0,1,.953.738l5.218,13.79h-12.69a1.318,1.318,0,0,0,0,2.635h14.6a.1.1,0,0,1,.1.1v2.435a.1.1,0,0,1-.1.1h-14.6a1.318,1.318,0,0,0,0,2.635h13.159l-.648,7.39a1.318,1.318,0,0,0,1.2,1.428c.039,0,.078,0,.117,0a1.318,1.318,0,0,0,1.311-1.2l.694-7.917a2.733,2.733,0,0,0,1.5-2.434V58.384a2.734,2.734,0,0,0-1.752-2.547Z" transform="translate(-299.426 -0.001)" fill="#12263f"/>
    <path id="Trazado_726296" data-name="Trazado 726296" d="M167.858,60.818V58.383a2.737,2.737,0,0,0-1.753-2.551l-5.64-14.9a3.812,3.812,0,0,0-3.547-2.451H142.237a1.318,1.318,0,1,0,0,2.635h12.175v8.816a.744.744,0,0,1-.744.744H134.435a.744.744,0,0,1-.744-.744V41.113h2.931a1.318,1.318,0,1,0,0-2.635H131.2a3.812,3.812,0,0,0-3.547,2.451l-5.64,14.9a2.736,2.736,0,0,0-1.753,2.551v2.435a2.735,2.735,0,0,0,1.5,2.437l4.146,47.3a4.633,4.633,0,0,0,4.641,4.252h27.026a4.633,4.633,0,0,0,4.641-4.252l4.146-47.3A2.736,2.736,0,0,0,167.858,60.818Zm-44.865.1a.1.1,0,0,1-.1-.1V58.383a.1.1,0,0,1,.1-.1h42.133a.1.1,0,0,1,.1.1v2.435a.1.1,0,0,1-.1.1Zm7.126-19.054a1.164,1.164,0,0,1,.937-.737V49.93a3.382,3.382,0,0,0,3.379,3.379h19.234a3.382,3.382,0,0,0,3.379-3.379V41.123a1.163,1.163,0,0,1,.953.738l5.218,13.79H124.9Zm29.469,68.467a2.012,2.012,0,0,1-2.016,1.847H130.547a2.013,2.013,0,0,1-2.016-1.847l-4.1-46.778h39.257Z" transform="translate(-99.136)" fill="#12263f"/>
    <path id="Trazado_726297" data-name="Trazado 726297" d="M391.278,248.39a1.316,1.316,0,0,0-1.428,1.2l-2.96,33.774a2.013,2.013,0,0,1-2.016,1.847H371.688a1.318,1.318,0,0,0,0,2.635h13.186a4.633,4.633,0,0,0,4.641-4.252l2.96-33.774A1.317,1.317,0,0,0,391.278,248.39Z" transform="translate(-305.308 -173.033)" fill="#12263f"/>
    <path id="Trazado_726298" data-name="Trazado 726298" d="M5.8,97.285A1.318,1.318,0,0,0,7,95.858L4.17,63.551H17.325a1.318,1.318,0,0,0,0-2.635H2.732a.1.1,0,0,1-.1-.1V58.384a.1.1,0,0,1,.1-.1h14.6a1.318,1.318,0,0,0,0-2.635H4.639l5.218-13.79a1.163,1.163,0,0,1,.937-.737V49.93a3.382,3.382,0,0,0,3.379,3.379h5.933a1.318,1.318,0,1,0,0-2.635H14.173a.744.744,0,0,1-.744-.744V41.114H24.721a1.318,1.318,0,1,0,0-2.635H10.94A3.812,3.812,0,0,0,7.393,40.93L1.752,55.837A2.734,2.734,0,0,0,0,58.384v2.435a2.732,2.732,0,0,0,1.5,2.434L4.376,96.088a1.318,1.318,0,0,0,1.311,1.2c.038,0,.077,0,.116-.005Z" transform="translate(0 -0.001)" fill="#12263f"/>
    <path id="Trazado_726299" data-name="Trazado 726299" d="M46.281,402.045H33.1a2.012,2.012,0,0,1-2.016-1.847l-.778-8.875a1.317,1.317,0,1,0-2.625.23l.778,8.875A4.633,4.633,0,0,0,33.1,404.68H46.282a1.318,1.318,0,1,0,0-2.635Z" transform="translate(-22.814 -289.87)" fill="#12263f"/>
  </g>
</svg>
