<svg xmlns="http://www.w3.org/2000/svg" width="43.87" height="47" viewBox="0 0 43.87 47">
  <g id="veneno_1_" data-name="veneno (1)" transform="translate(-17.046 0.001)">
    <path id="Trazado_726267" data-name="Trazado 726267" d="M126.476,26.107l.338-4.6a12.924,12.924,0,1,0-25.767-.14l.349,4.735a1.626,1.626,0,0,1-.706,1.472,2.512,2.512,0,0,0,1.4,4.6h2.663a2.107,2.107,0,0,1,2.089,1.833l.814,6.2a1.241,1.241,0,0,0,1.231,1.08h10.1a1.241,1.241,0,0,0,1.231-1.08l.814-6.2a2.107,2.107,0,0,1,2.089-1.833h2.663a2.512,2.512,0,0,0,1.4-4.6,1.626,1.626,0,0,1-.706-1.472Z" transform="translate(-74.954 -6.812)" fill="#b4d0d5"/>
    <path id="Trazado_726268" data-name="Trazado 726268" d="M206.116,33.361a1.626,1.626,0,0,1-.706-1.472l.338-4.6a12.956,12.956,0,0,0-9-13.428,13.039,13.039,0,0,1,5.323,11.592l-.338,4.6a1.626,1.626,0,0,0,.706,1.472,2.512,2.512,0,0,1-1.4,4.6h-2.663a2.107,2.107,0,0,0-2.089,1.833l-.814,6.2a1.241,1.241,0,0,1-1.231,1.08h-7.76l.1.756a1.241,1.241,0,0,0,1.231,1.08h10.1a1.241,1.241,0,0,0,1.231-1.08l.814-6.2a2.107,2.107,0,0,1,2.089-1.833h2.663a2.512,2.512,0,0,0,1.4-4.6Z" transform="translate(-153.888 -12.593)" fill="#9bb9c1"/>
    <g id="Grupo_959808" data-name="Grupo 959808" transform="translate(29.289 14.692)">
      <path id="Trazado_726269" data-name="Trazado 726269" d="M232.257,248.5c-1.325,0-2.4,2.984-2.4,4.123a1.169,1.169,0,0,0,.41.951,1.227,1.227,0,0,0,1.99-.97v0a1.227,1.227,0,0,0,1.99.97,1.169,1.169,0,0,0,.41-.951C234.657,251.48,233.583,248.5,232.257,248.5Z" transform="translate(-222.564 -240.377)" fill="#617881"/>
      <circle id="Elipse_5747" data-name="Elipse 5747" cx="3.847" cy="3.847" r="3.847" fill="#617881"/>
      <circle id="Elipse_5748" data-name="Elipse 5748" cx="3.847" cy="3.847" r="3.847" transform="translate(11.693)" fill="#617881"/>
    </g>
    <path id="Trazado_726270" data-name="Trazado 726270" d="M159.75,160.055q-.193,0-.381.019a3.848,3.848,0,0,1-2.911,5.82,3.847,3.847,0,1,0,3.291-5.839Z" transform="translate(-126.615 -145.363)" fill="#475959"/>
    <path id="Trazado_726271" data-name="Trazado 726271" d="M287.128,160.055q-.193,0-.381.019a3.848,3.848,0,0,1-2.911,5.82,3.847,3.847,0,1,0,3.291-5.839Z" transform="translate(-242.3 -145.363)" fill="#475959"/>
    <path id="Trazado_726272" data-name="Trazado 726272" d="M66.991,294.571a2.982,2.982,0,0,0-.859-1.535,1.407,1.407,0,0,1-.4-1.423,2.992,2.992,0,1,0-5.789-.249q.018.084.04.167a.466.466,0,0,1-.33.573l-7.485,2.006-.082.625a1.241,1.241,0,0,1-1.231,1.08H45.808l-14.789,3.963a.466.466,0,0,1-.572-.331q-.022-.082-.048-.165a2.992,2.992,0,1,0-4.889,3.11,1.408,1.408,0,0,1,.368,1.431,2.982,2.982,0,0,0,.023,1.759,3.069,3.069,0,0,0,3.616,1.974,2.992,2.992,0,0,0,2.121-3.665v0a.47.47,0,0,1,.328-.581L60.6,295.631a.47.47,0,0,1,.574.339v0a2.992,2.992,0,0,0,3.669,2.114,3.069,3.069,0,0,0,2.145-3.518Z" transform="translate(-6.826 -261.337)" fill="#b4d0d5"/>
    <path id="Trazado_726273" data-name="Trazado 726273" d="M45.807,295.815l-7.055,1.891-7.739-2.074a.47.47,0,0,0-.574.339v0a2.98,2.98,0,0,1-1.252,1.729,2.986,2.986,0,0,0-3.264-.006,3.082,3.082,0,0,1-1.3-3.127,2.982,2.982,0,0,1,.859-1.535,1.407,1.407,0,0,0,.4-1.423,2.992,2.992,0,1,1,5.789-.249q-.018.084-.04.167a.466.466,0,0,0,.33.572l7.485,2.006.082.625a1.241,1.241,0,0,0,1.231,1.08ZM65.692,297.7a2.811,2.811,0,0,1-.846.391,2.984,2.984,0,0,1-2.418-.385,2.974,2.974,0,0,0-1.213,1.577q-.027.082-.048.164a.466.466,0,0,1-.572.331l-7.733-2.072L45.807,299.6l13.843,3.709a.47.47,0,0,1,.328.581v0a2.992,2.992,0,0,0,2.121,3.665,3.069,3.069,0,0,0,3.616-1.974,2.981,2.981,0,0,0,.023-1.759,1.408,1.408,0,0,1,.368-1.431,2.993,2.993,0,0,0-.413-4.693Z" transform="translate(-6.825 -261.338)" fill="#86a0af"/>
    <path id="Trazado_726274" data-name="Trazado 726274" d="M224.206,247.721a1.953,1.953,0,0,0,1.24-.456,1.985,1.985,0,0,0,.433.274,1.852,1.852,0,0,0,2.656-1.733,7.369,7.369,0,0,0-.773-2.791c-.646-1.322-1.447-2.02-2.316-2.02s-1.669.7-2.316,2.02a7.37,7.37,0,0,0-.773,2.791,1.85,1.85,0,0,0,1.848,1.914Zm.162-4.1c.419-.858.853-1.248,1.079-1.248s.659.391,1.079,1.248a6.138,6.138,0,0,1,.633,2.186.479.479,0,0,1-.7.485.554.554,0,0,1-.327-.5V245.7a.688.688,0,1,0-1.377,0v.088a.554.554,0,0,1-.327.5.479.479,0,0,1-.7-.485A6.14,6.14,0,0,1,224.368,243.62Z" transform="translate(-186.464 -218.873)"/>
    <path id="Trazado_726275" data-name="Trazado 726275" d="M147.446,153.932a3.162,3.162,0,0,1,3.158,3.158,3.194,3.194,0,0,1-.042.52.688.688,0,1,0,1.359.224,4.535,4.535,0,1,0-4.474,3.791,4.523,4.523,0,0,0,2.392-.682.688.688,0,1,0-.727-1.169,3.158,3.158,0,1,1-1.665-5.842Z" transform="translate(-114.311 -138.552)"/>
    <path id="Trazado_726276" data-name="Trazado 726276" d="M279.359,157.09a4.535,4.535,0,1,0-4.535,4.535A4.54,4.54,0,0,0,279.359,157.09Zm-7.693,0a3.158,3.158,0,1,1,3.158,3.158A3.162,3.162,0,0,1,271.666,157.09Z" transform="translate(-229.995 -138.552)"/>
    <path id="Trazado_726277" data-name="Trazado 726277" d="M59.75,41.558a3.683,3.683,0,0,0,.169-5.209,3.651,3.651,0,0,0-.138-5.148.725.725,0,0,1-.213-.723,3.68,3.68,0,1,0-7.124-.32L46.163,31.84l.6-4.552a1.423,1.423,0,0,1,1.407-1.234H50.83A3.2,3.2,0,0,0,52.611,20.2a.937.937,0,0,1-.4-.85l.056-.757a.688.688,0,1,0-1.373-.1l-.056.757a2.317,2.317,0,0,0,1.009,2.094,1.823,1.823,0,0,1-1.014,3.338H48.167A2.8,2.8,0,0,0,45.4,27.109l-.73,5.559c0,.01,0,.02,0,.03l-.08.61a.554.554,0,0,1-.548.481h-.544V31.541a.688.688,0,1,0-1.377,0v2.248H40.943V31.541a.688.688,0,1,0-1.377,0v2.248H38.4V31.541a.688.688,0,1,0-1.377,0v2.248H35.852V31.541a.688.688,0,1,0-1.377,0v2.248h-.544a.554.554,0,0,1-.548-.481l-.08-.61c0-.01,0-.02,0-.03l-.73-5.559A2.8,2.8,0,0,0,29.8,24.678H27.134a1.823,1.823,0,0,1-1.014-3.338,2.317,2.317,0,0,0,1.009-2.094l-.349-4.735a12.235,12.235,0,1,1,24.393.14l-.044.6a.689.689,0,0,0,1.373.1l.044-.6a13.612,13.612,0,1,0-27.14-.14l.349,4.735a.937.937,0,0,1-.4.85,3.2,3.2,0,0,0,1.781,5.859H29.8A1.423,1.423,0,0,1,31.2,27.289l.6,4.552L25.52,30.157a3.68,3.68,0,1,0-7.124.32.725.725,0,0,1-.213.723,3.656,3.656,0,0,0-.141,5.152,3.723,3.723,0,0,0-.466.618,3.677,3.677,0,0,0,.638,4.586.716.716,0,0,1,.177.733A3.7,3.7,0,0,0,21.982,47a3.444,3.444,0,0,0,.887-.115,3.678,3.678,0,0,0,2.657-4.307l7.788-2.087a.688.688,0,1,0-.356-1.33l-8,2.143a1.158,1.158,0,0,0-.814,1.424v.005a2.3,2.3,0,1,1-4.435-.052,2.084,2.084,0,0,0-.558-2.128,2.3,2.3,0,1,1,3.8-2.267,1.154,1.154,0,0,0,1.416.821l14.7-3.939h4.961a1.935,1.935,0,0,0,1.913-1.678l.022-.169,7.04-1.886a1.148,1.148,0,0,0,.7-.541,1.232,1.232,0,0,0,.081-1.007,2.3,2.3,0,1,1,4.457.192,2.084,2.084,0,0,0,.581,2.122,2.327,2.327,0,0,1-1.064,3.908l-.02,0a2.3,2.3,0,0,1-2.732-1.654,1.158,1.158,0,0,0-1.418-.827l-17.525,4.7a.688.688,0,1,0,.356,1.33l2.553-.684,13.456,3.606A3.678,3.678,0,0,0,55.1,46.884a3.445,3.445,0,0,0,.887.115,3.7,3.7,0,0,0,3.591-4.708.716.716,0,0,1,.177-.733ZM19.91,35.282a3.737,3.737,0,0,0-.742.254,2.288,2.288,0,0,1-.036-3.338,2.084,2.084,0,0,0,.581-2.122,2.3,2.3,0,1,1,4.426-.063,1.154,1.154,0,0,0,.816,1.419L32,33.318l.022.169a1.936,1.936,0,0,0,1.758,1.672l-1.849.5-7.56-2.026a1.158,1.158,0,0,0-1.416.82l0,.011a2.3,2.3,0,0,1-.653,1.088,3.656,3.656,0,0,0-2.384-.266Zm4.314,2.437a3.624,3.624,0,0,0-.8-1.351,3.665,3.665,0,0,0,.8-1.352l5.048,1.353Zm29.522-2.7a3.652,3.652,0,0,0,.8,1.352,3.66,3.66,0,0,0-.8,1.352L48.7,36.368Zm5.064,5.536a2.085,2.085,0,0,0-.558,2.128,2.328,2.328,0,0,1-2.8,2.874,2.3,2.3,0,0,1-1.633-2.822v-.006A1.158,1.158,0,0,0,53,41.3L41.642,38.258l4.4-1.178,7.555,2.024a1.154,1.154,0,0,0,1.415-.82,2.283,2.283,0,0,1,.657-1.095,3.661,3.661,0,0,0,3.146,0,2.305,2.305,0,0,1,0,3.364Z" transform="translate(0 0)"/>
  </g>
</svg>
