<svg xmlns="http://www.w3.org/2000/svg" width="35.542" height="57" viewBox="0 0 35.542 57">
  <g id="Grupo_959806" data-name="Grupo 959806" transform="translate(-850.922 -1783)">
    <g id="Grupo_959805" data-name="Grupo 959805" transform="translate(11.358 128.689)">
      <g id="Grupo_959799" data-name="Grupo 959799" transform="translate(840.548 1655.294)">
        <path id="Trazado_726240" data-name="Trazado 726240" d="M133.589,158.721l.291,1.965,3.155,36a2.5,2.5,0,0,0,2.486,2.277H159.7a2.5,2.5,0,0,0,2.486-2.277l3.155-36,.291-1.965Z" transform="translate(-132.824 -143.932)" fill="#fb060e"/>
        <path id="Trazado_726243" data-name="Trazado 726243" d="M162.871,47.176a1.847,1.847,0,0,0-1.729-1.194h-19.2a1.847,1.847,0,0,0-1.729,1.194l-4.4,11.63V60.46h31.462V58.806Z" transform="translate(-134.754 -45.982)" fill="#f42d33"/>
        <g id="Grupo_959797" data-name="Grupo 959797" transform="translate(8.06 0)">
          <g id="XMLID_382_">
            <g id="Grupo_959796" data-name="Grupo 959796">
              <g id="XMLID_383_">
                <g id="Grupo_959795" data-name="Grupo 959795">
                  <path id="Trazado_726244" data-name="Trazado 726244" d="M206.642,46.113V53.55a1.538,1.538,0,0,1-1.539,1.539H190.74a1.54,1.54,0,0,1-1.54-1.539V45.982h17.442Z" transform="translate(-189.2 -45.982)" fill="#f42d33"/>
                </g>
              </g>
            </g>
          </g>
        </g>
        <g id="Grupo_959798" data-name="Grupo 959798" transform="translate(0 0)">
          <path id="Trazado_726245" data-name="Trazado 726245" d="M140.205,158.721h-6.616l.291,1.965,3.155,36a2.5,2.5,0,0,0,2.486,2.277H159.7a2.5,2.5,0,0,0,2.486-2.277l.119-1.356H145.7a2.5,2.5,0,0,1-2.486-2.277l-2.261-25.8a3.626,3.626,0,0,1,3.613-3.943h20.547l.23-2.624.291-1.965Z" transform="translate(-132.824 -143.932)" fill="#cf050c"/>
          <path id="Trazado_726246" data-name="Trazado 726246" d="M166.279,56.181H144.031a1.029,1.029,0,0,1-.962-1.393l2.02-5.337a1.847,1.847,0,0,1,1.729-1.194h16.463l-.41-1.083a1.847,1.847,0,0,0-1.729-1.194h-19.2a1.847,1.847,0,0,0-1.729,1.194l-4.4,11.63v1.654h31.462V58.805Z" transform="translate(-134.754 -45.981)" fill="#d02c32"/>
          <path id="Trazado_726247" data-name="Trazado 726247" d="M161.334,144.8v1.818a1.055,1.055,0,0,1-1.056,1.056H128.816a1.055,1.055,0,0,1-1.056-1.056V144.8a1.057,1.057,0,0,1,1.056-1.056h31.462A1.055,1.055,0,0,1,161.334,144.8Z" transform="translate(-127.76 -130.918)" fill="#f42d33"/>
        </g>
        <path id="Trazado_726248" data-name="Trazado 726248" d="M206.642,46.112v-.131H189.2v7.568a1.531,1.531,0,0,0,.353.981l1.922-5.078a1.847,1.847,0,0,1,1.729-1.194h13.438Z" transform="translate(-181.14 -45.981)" fill="#d02c32"/>
      </g>
      <g id="Grupo_959800" data-name="Grupo 959800" transform="translate(839.565 1654.311)">
        <path id="Trazado_726253" data-name="Trazado 726253" d="M155.8,55.16V53.342a2.044,2.044,0,0,0-1.309-1.9l-4.211-11.129a2.847,2.847,0,0,0-2.649-1.83H136.672a.984.984,0,1,0,0,1.968h9.092v6.584a.556.556,0,0,1-.555.555H130.845a.556.556,0,0,1-.555-.555V40.446h2.189a.984.984,0,0,0,0-1.968h-4.047a2.847,2.847,0,0,0-2.649,1.83l-4.212,11.129a2.043,2.043,0,0,0-1.309,1.9v1.818a2.042,2.042,0,0,0,1.119,1.82l3.1,35.323a3.46,3.46,0,0,0,3.465,3.175h20.181a3.46,3.46,0,0,0,3.465-3.175l3.1-35.323A2.043,2.043,0,0,0,155.8,55.16Zm-33.5.072a.072.072,0,0,1-.072-.072V53.342a.072.072,0,0,1,.072-.072h31.462a.072.072,0,0,1,.072.072V55.16a.072.072,0,0,1-.072.072ZM127.622,41a.869.869,0,0,1,.7-.55v6.575a2.526,2.526,0,0,0,2.523,2.523h14.363a2.526,2.526,0,0,0,2.523-2.523V40.453a.868.868,0,0,1,.712.551l3.9,10.3H123.726Zm22.006,51.127a1.5,1.5,0,0,1-1.505,1.379H127.942a1.5,1.5,0,0,1-1.505-1.379L123.375,57.2H152.69Z" transform="translate(-120.262 -38.478)"/>
      </g>
    </g>
    <path id="Trazado_726265" data-name="Trazado 726265" d="M95.369,148.889a.825.825,0,0,0,.538-1.034,2.754,2.754,0,0,1,2.365-3.572,4.8,4.8,0,0,0,2.589,4.21,2.747,2.747,0,0,1-3.16,1.156.824.824,0,0,0-.5,1.572,4.4,4.4,0,0,0,5.265-2.226,4.678,4.678,0,0,0,1.205,0,4.395,4.395,0,0,0,5.263,2.227.824.824,0,0,0-.5-1.572,2.747,2.747,0,0,1-3.16-1.156,4.805,4.805,0,0,0,2.589-4.21,2.754,2.754,0,0,1,2.365,3.572.824.824,0,1,0,1.572.5,4.4,4.4,0,0,0-4.214-5.73,4.81,4.81,0,0,0-.755-1.361,4.4,4.4,0,0,0-1.738-6.182.824.824,0,1,0-.761,1.462,2.75,2.75,0,0,1,1.233,3.594,4.789,4.789,0,0,0-5,0,2.75,2.75,0,0,1,1.232-3.594.824.824,0,0,0-.761-1.462A4.4,4.4,0,0,0,99.3,141.26a4.789,4.789,0,0,0-.756,1.361h-.017a4.4,4.4,0,0,0-4.2,5.73.824.824,0,0,0,1.034.538Zm10.825-4.228a3.152,3.152,0,0,1-1.327,2.159A2.749,2.749,0,0,1,106.194,144.661Zm-1.773-3.278a2.744,2.744,0,0,1-2.7,0A3.146,3.146,0,0,1,104.421,141.383Zm-3.986,1.124a4.392,4.392,0,0,0,5.274,0,3.1,3.1,0,0,1,.24.438,4.4,4.4,0,0,0-2.722,4.435,2.93,2.93,0,0,1-.307,0,4.4,4.4,0,0,0-2.724-4.435A3.147,3.147,0,0,1,100.434,142.507Zm.842,4.313a3.153,3.153,0,0,1-1.327-2.159A2.749,2.749,0,0,1,101.276,146.82Zm0,0" transform="translate(765.622 1672.174)"/>
  </g>
</svg>
