<svg xmlns="http://www.w3.org/2000/svg" width="46.667" height="42.887" viewBox="0 0 46.667 42.887">
  <path id="Trazado_726266" data-name="Trazado 726266" d="M97.368,171.252a2.151,2.151,0,0,0,1.4-2.7,7.182,7.182,0,0,1,6.168-9.318,12.533,12.533,0,0,0,6.753,10.98,7.166,7.166,0,0,1-8.242,3.016,2.15,2.15,0,0,0-1.295,4.1,11.474,11.474,0,0,0,13.734-5.807,12.2,12.2,0,0,0,3.144,0,11.464,11.464,0,0,0,13.729,5.808,2.15,2.15,0,0,0-1.295-4.1,7.165,7.165,0,0,1-8.242-3.016,12.534,12.534,0,0,0,6.753-10.981,7.183,7.183,0,0,1,6.168,9.318,2.15,2.15,0,1,0,4.1,1.295A11.482,11.482,0,0,0,129.256,154.9a12.547,12.547,0,0,0-1.97-3.549,11.474,11.474,0,0,0-4.534-16.125,2.15,2.15,0,1,0-1.985,3.815,7.173,7.173,0,0,1,3.215,9.375,12.491,12.491,0,0,0-13.047,0,7.173,7.173,0,0,1,3.214-9.375,2.15,2.15,0,0,0-1.985-3.815,11.474,11.474,0,0,0-4.533,16.127,12.492,12.492,0,0,0-1.971,3.549h-.045A11.482,11.482,0,0,0,94.67,169.847a2.151,2.151,0,0,0,2.7,1.4ZM125.6,160.225a8.222,8.222,0,0,1-3.461,5.632A7.171,7.171,0,0,1,125.6,160.225Zm-4.624-8.55a7.156,7.156,0,0,1-7.039,0A8.207,8.207,0,0,1,120.979,151.675Zm-10.4,2.932a11.456,11.456,0,0,0,13.757,0,8.093,8.093,0,0,1,.625,1.141,11.48,11.48,0,0,0-7.1,11.568,7.65,7.65,0,0,1-.8,0,11.474,11.474,0,0,0-7.105-11.568A8.213,8.213,0,0,1,110.581,154.607Zm2.2,11.25a8.226,8.226,0,0,1-3.461-5.632A7.171,7.171,0,0,1,112.776,165.857Zm0,0" transform="translate(-94.126 -134.985)"/>
</svg>
