<svg xmlns="http://www.w3.org/2000/svg" width="100" height="100" viewBox="0 0 100 100">
  <g id="Grupo_960522" data-name="Grupo 960522" transform="translate(-1170 -2172)">
    <circle id="Elipse_5758" data-name="Elipse 5758" cx="50" cy="50" r="50" transform="translate(1170 2172)" fill="#badc61"/>
    <g id="solucion" transform="translate(1059.318 2190)">
      <path id="Trazado_726777" data-name="Trazado 726777" d="M173.707,91.278v-2.55H161.788v2.55a4.841,4.841,0,0,1-1.841,3.792,12.542,12.542,0,0,0-4.765,9.851v32a3.626,3.626,0,0,0,3.626,3.626h17.877a3.626,3.626,0,0,0,3.626-3.626v-32a12.542,12.542,0,0,0-4.765-9.851A4.842,4.842,0,0,1,173.707,91.278Z" transform="translate(-6.565 -77.67)" fill="#95d6a4"/>
      <path id="Trazado_726778" data-name="Trazado 726778" d="M176.818,95.07a4.842,4.842,0,0,1-1.841-3.792v-2.55h-4.985v.058a4.842,4.842,0,0,0,1.841,3.792,12.542,12.542,0,0,1,4.765,9.851v25.054a10.57,10.57,0,0,1-10.57,10.57h-9.394a3.628,3.628,0,0,0,3.446,2.493h17.877a3.626,3.626,0,0,0,3.626-3.626v-32A12.542,12.542,0,0,0,176.818,95.07Z" transform="translate(-7.835 -77.67)" fill="#78c2a4"/>
      <path id="Trazado_726779" data-name="Trazado 726779" d="M155.182,232.754h25.13V252.3h-25.13Z" transform="translate(-6.565 -203.746)" fill="#ffd064"/>
      <path id="Trazado_726780" data-name="Trazado 726780" d="M316.817,232.754H321.8V252.3h-4.985Z" transform="translate(-148.055 -203.746)" fill="#ffc250"/>
      <path id="Trazado_726781" data-name="Trazado 726781" d="M211.791,13.917V7.956a.456.456,0,0,0-.456-.456H197.569a.456.456,0,0,0-.456.456v5.961a.456.456,0,0,0,.456.456h13.767A.456.456,0,0,0,211.791,13.917Z" transform="translate(-43.27 -6.565)" fill="#ffd064"/>
      <path id="Trazado_726782" data-name="Trazado 726782" d="M211.335,7.5h-4.529V8.835a3.045,3.045,0,0,1-3.045,3.045h-6.648v2.037a.456.456,0,0,0,.456.456h13.767a.456.456,0,0,0,.456-.456V7.956A.456.456,0,0,0,211.335,7.5Z" transform="translate(-43.27 -6.565)" fill="#ffc250"/>
      <path id="Trazado_726783" data-name="Trazado 726783" d="M197.113,63.1v2.339a.456.456,0,0,0,.456.456h13.767a.456.456,0,0,0,.456-.456V63.1a.456.456,0,0,0-.456-.456H197.569a.456.456,0,0,0-.456.456Z" transform="translate(-43.27 -54.837)" fill="#ffd064"/>
      <path id="Trazado_726784" data-name="Trazado 726784" d="M219.725,275.555l-3.933,3.933a.564.564,0,0,1-.8,0l-1.5-1.5a.564.564,0,0,0-.8,0l-1.53,1.53a.564.564,0,0,0,0,.8l3.827,3.827a.564.564,0,0,0,.8,0l6.26-6.26a.564.564,0,0,0,0-.8l-1.53-1.53A.564.564,0,0,0,219.725,275.555Z" transform="translate(-55.428 -241.068)" fill="#f1f4f6"/>
      <path id="Trazado_726785" data-name="Trazado 726785" d="M148.617,44.469a.935.935,0,0,0-.935.935V59.25a4.566,4.566,0,0,0,4.561,4.561h17.877a4.566,4.566,0,0,0,4.561-4.561v-32a13.436,13.436,0,0,0-5.119-10.584,3.888,3.888,0,0,1-1.487-3.06V11.993a1.392,1.392,0,0,0,1.38-1.391V8.263a1.388,1.388,0,0,0-.077-.456,1.384,1.384,0,0,0,.077-.456V1.391A1.392,1.392,0,0,0,168.065,0H154.3a1.392,1.392,0,0,0-1.391,1.391V7.352a1.385,1.385,0,0,0,.077.456,1.384,1.384,0,0,0-.077.456V10.6a1.392,1.392,0,0,0,1.38,1.391v1.616a3.888,3.888,0,0,1-1.487,3.06,13.436,13.436,0,0,0-5.119,10.584v13.79a.935.935,0,0,0,1.869,0v-11.1h17.01a.935.935,0,1,0,0-1.869h-17.01v-.822a11.576,11.576,0,0,1,4.411-9.119,5.747,5.747,0,0,0,2.195-4.525V11.993h5.423a.935.935,0,1,0,0-1.869h-6.8V8.742h12.809v1.381H164.82a.935.935,0,1,0,0,1.869h1.387v1.615a5.747,5.747,0,0,0,2.195,4.525,11.577,11.577,0,0,1,4.411,9.119v.822h-1.888a.935.935,0,0,0,0,1.869h1.888V47.62H149.552V45.4a.935.935,0,0,0-.935-.935Zm18.969-42.6v5h-1.831V5.16a.935.935,0,0,0-1.869,0V6.873h-1.769V5.16a.935.935,0,0,0-1.869,0V6.873h-1.769V5.16a.935.935,0,1,0-1.869,0V6.873h-1.831v-5Zm5.226,47.62V59.25a2.7,2.7,0,0,1-2.692,2.692h-.981a6.106,6.106,0,0,0,.587-2.692.935.935,0,0,0-1.869,0c0,1.643-.747,2.692-1.262,2.692h-2.1a14.424,14.424,0,0,0,.227-2.692.935.935,0,1,0-1.869,0,10.613,10.613,0,0,1-.276,2.692H159.79a10.612,10.612,0,0,1-.276-2.692.935.935,0,0,0-1.869,0,14.424,14.424,0,0,0,.227,2.692h-2.1c-.514,0-1.262-1.049-1.262-2.692a.935.935,0,0,0-1.869,0,6.108,6.108,0,0,0,.587,2.692h-.981a2.7,2.7,0,0,1-2.692-2.692V49.489Z"/>
      <path id="Trazado_726786" data-name="Trazado 726786" d="M209.888,278.236l6.261-6.26a1.5,1.5,0,0,0,0-2.12l-1.53-1.53a1.5,1.5,0,0,0-2.12,0L208.828,272l-1.237-1.237a1.5,1.5,0,0,0-2.12,0l-1.53,1.53a1.5,1.5,0,0,0,0,2.12l3.827,3.827A1.5,1.5,0,0,0,209.888,278.236Zm-3.357-5.893,1.237,1.238a1.5,1.5,0,0,0,2.12,0l3.671-3.671,1.006,1.006-5.736,5.736-3.3-3.3Z" transform="translate(-48.863 -234.5)"/>
      <path id="Trazado_726787" data-name="Trazado 726787" d="M216.748,141.783a.935.935,0,1,0,0,1.869H224.9a.935.935,0,0,0,0-1.869Z" transform="translate(-59.64 -124.112)"/>
    </g>
  </g>
</svg>
