<svg xmlns="http://www.w3.org/2000/svg" width="71.677" height="70" viewBox="0 0 71.677 70">
  <g id="reciclar" transform="translate(0 -5.986)">
    <path id="Trazado_726527" data-name="Trazado 726527" d="M113.976,18.583l-5.5,9.706a2.349,2.349,0,0,0,.895,3.207l9.4,5.272a2.349,2.349,0,0,0,3.194-.893l12.793-22.4-12.205.057A9.877,9.877,0,0,0,113.976,18.583Z" transform="translate(-93.031 -6.443)" fill="#cdf09c"/>
    <path id="Trazado_726528" data-name="Trazado 726528" d="M235.59,24.131l-3.624-6.215a8.881,8.881,0,0,0-7.707-4.408l-13.364.05,11.332,18.381-3.737,2.184a1.285,1.285,0,0,0,.519,2.389l13.527,1.376a3.569,3.569,0,0,0,3.643-2.148l5.28-12.353a1.285,1.285,0,0,0-1.831-1.615Z" transform="translate(-181.372 -6.469)" fill="#a1e42c"/>
    <path id="Trazado_726529" data-name="Trazado 726529" d="M312.194,21.772l-4.038,2.359-3.624-6.215a8.881,8.881,0,0,0-7.707-4.408l-1.551.006a8.871,8.871,0,0,1,2.286,2.588l11.144,19.725q.02-.044.039-.088l5.28-12.353A1.285,1.285,0,0,0,312.194,21.772Z" transform="translate(-253.939 -6.469)" fill="#95d528"/>
    <path id="Trazado_726530" data-name="Trazado 726530" d="M372.978,197.328l-6.206-9.269a2.349,2.349,0,0,0-3.267-.64l-8.93,6.032a2.349,2.349,0,0,0-.636,3.255l14.272,21.485,5.428-10.932A9.877,9.877,0,0,0,372.978,197.328Z" transform="translate(-304.047 -155.687)" fill="#cdf09c"/>
    <path id="Trazado_726531" data-name="Trazado 726531" d="M417.965,197.328l-6.206-9.269a2.349,2.349,0,0,0-3.267-.64l-2.642,1.784,5.971,8.917a9.878,9.878,0,0,1,.661,9.932c-1.586,3.188,0,0,0,0h0l-1.173,2.357-1.4,2.828,3.291,4.953,5.428-10.932A9.878,9.878,0,0,0,417.965,197.328Z" transform="translate(-349.035 -155.687)" fill="#b9ea6a"/>
    <path id="Trazado_726532" data-name="Trazado 726532" d="M279.936,326.519l7.18-.448a8.881,8.881,0,0,0,7.4-4.908l5.954-11.964-21.512,1.875-.274-4.32a1.285,1.285,0,0,0-2.367-.609l-7.3,11.47a3.569,3.569,0,0,0,.284,4.219l8.669,10.263a1.285,1.285,0,0,0,2.265-.911Z" transform="translate(-230.874 -257.625)" fill="#a1e42c"/>
    <path id="Trazado_726533" data-name="Trazado 726533" d="M387.518,332.146q-.062.134-.128.268c-.044.089,0,0,0,0h0l-1.173,2.357-4.257,8.575-.006-.008-.518,1.041a8.881,8.881,0,0,1-4.765,4.334l3.511-.219a8.881,8.881,0,0,0,7.4-4.908l5.954-11.964Z" transform="translate(-323.942 -280.048)" fill="#95d528"/>
    <path id="Trazado_726534" data-name="Trazado 726534" d="M48.091,348.824a2.387,2.387,0,0,0-2.394-2.34L19.9,346.39l6.064,10.593a9.877,9.877,0,0,0,8.62,4.976H45.742a2.349,2.349,0,0,0,2.349-2.359Z" transform="translate(-17.117 -292.75)" fill="#cdf09c"/>
    <path id="Trazado_726535" data-name="Trazado 726535" d="M31.267,201.261,25.8,188.812a3.568,3.568,0,0,0-3.664-2.111L8.784,188.194a1.285,1.285,0,0,0-.5,2.389l4.043,2.351L8.7,199.15a8.881,8.881,0,0,0-.038,8.878l6.629,11.6L25.7,200.713l3.742,2.176A1.285,1.285,0,0,0,31.267,201.261Z" transform="translate(-6.444 -155.397)" fill="#a1e42c"/>
    <path id="Trazado_726536" data-name="Trazado 726536" d="M54.283,203.462,40.5,228.5l3.178,5.563,10.41-18.918,3.742,2.176a1.285,1.285,0,0,0,1.823-1.628Z" transform="translate(-34.834 -169.831)" fill="#95d528"/>
    <path id="Trazado_726537" data-name="Trazado 726537" d="M137.622,32.462a4.6,4.6,0,0,0,4.715-2.78l5.281-12.354a2.336,2.336,0,0,0-3.326-2.935l-3.13,1.829-3.095-5.308a9.96,9.96,0,0,0-8.58-4.929h-.039c-14,.053-13.368.047-13.44.053a10.944,10.944,0,0,0-9.413,5.581l-5.5,9.707a3.4,3.4,0,0,0,1.295,4.64l9.4,5.273a3.405,3.405,0,0,0,4.622-1.29l4.5-7.928a1.05,1.05,0,0,0-1.826-1.037l-4.5,7.93a1.3,1.3,0,0,1-1.767.494l-9.4-5.273a1.3,1.3,0,0,1-.495-1.774l5.5-9.711a8.843,8.843,0,0,1,7.091-4.492L125.961,25.1l-2.809,1.642a2.336,2.336,0,0,0,.942,4.34Zm-13.411-3.9,3.738-2.184a1.05,1.05,0,0,0,.364-1.458L117.962,8.129l11.492-.043h.031a7.854,7.854,0,0,1,6.766,3.887l3.624,6.216a1.05,1.05,0,0,0,1.437.378l4.038-2.36a.234.234,0,0,1,.335.3L140.4,28.857a2.51,2.51,0,0,1-2.571,1.516L124.306,29a.234.234,0,0,1-.095-.438Z" transform="translate(-86.563)"/>
    <path id="Trazado_726538" data-name="Trazado 726538" d="M28.587,201.623h0l-9.012-.051a1.05,1.05,0,1,0-.012,2.1l9.019.051h0a1.34,1.34,0,0,1,1.343,1.29v10.782a1.3,1.3,0,0,1-1.3,1.3h-11.2a8.844,8.844,0,0,1-7.363-3.957l9.6-17.44,2.813,1.636a2.336,2.336,0,0,0,3.312-2.958l-5.469-12.45a4.6,4.6,0,0,0-4.742-2.733L2.22,180.69a2.336,2.336,0,0,0-.915,4.34l3.134,1.823-3.093,5.308a9.96,9.96,0,0,0-.042,9.928C8.25,214.247,7.933,213.7,7.973,213.758a10.944,10.944,0,0,0,9.446,5.442h11.2a3.4,3.4,0,0,0,3.4-3.409V205.009a3.426,3.426,0,0,0-3.436-3.386Zm-25.426-8.4L6.783,187a1.05,1.05,0,0,0-.379-1.436l-4.043-2.351a.234.234,0,0,1,.092-.438l13.352-1.493a2.548,2.548,0,0,1,.285-.016,2.506,2.506,0,0,1,2.3,1.506l5.469,12.45a.234.234,0,0,1-.334.3l-3.742-2.176a1.05,1.05,0,0,0-1.448.4L8.828,211.027l-5.7-9.979A7.854,7.854,0,0,1,3.161,193.218Z" transform="translate(0 -148.937)"/>
    <path id="Trazado_726539" data-name="Trazado 726539" d="M294.2,190.283,288,181.013a3.4,3.4,0,0,0-4.728-.926l-8.931,6.032a3.4,3.4,0,0,0-.923,4.707l4.362,6.566a1.05,1.05,0,0,0,1.749-1.162l-4.364-6.57a1.3,1.3,0,0,1,.352-1.8l8.931-6.032a1.3,1.3,0,0,1,1.807.354l6.209,9.273a8.844,8.844,0,0,1,.831,8.353l-19.831,1.729-.206-3.247a2.336,2.336,0,0,0-4.3-1.106l-7.3,11.471a4.6,4.6,0,0,0,.368,5.461l8.67,10.264a2.336,2.336,0,0,0,4.115-1.655l-.229-3.619,6.132-.383a9.959,9.959,0,0,0,8.273-5.489c6.225-12.511,5.958-11.966,5.985-12.033A10.944,10.944,0,0,0,294.2,190.283ZM287.1,212.3a7.853,7.853,0,0,1-6.524,4.328l-7.181.449a1.05,1.05,0,0,0-.982,1.114l.3,4.668a.234.234,0,0,1-.415.167l-8.67-10.264a2.508,2.508,0,0,1-.2-2.978l7.3-11.471a.234.234,0,0,1,.434.111l.274,4.32a1.05,1.05,0,0,0,1.139.98l19.648-1.713Z" transform="translate(-224.396 -149.227)"/>
  </g>
</svg>
