<svg xmlns="http://www.w3.org/2000/svg" width="66.021" height="62.515" viewBox="0 0 66.021 62.515">
  <g id="reciclar-simbolo" transform="translate(-0.001 -13.594)">
    <g id="Grupo_959898" data-name="Grupo 959898" transform="translate(1.291 14.884)">
      <g id="Grupo_959897" data-name="Grupo 959897" transform="translate(0 0)">
        <path id="Trazado_726509" data-name="Trazado 726509" d="M11.739,62.258a29.185,29.185,0,0,1,9.69-32.973l-2.14-3.706a1.321,1.321,0,0,1,1.392-1.958l13.145,2.507a1.321,1.321,0,0,1,1,1.732L30.425,40.5a1.321,1.321,0,0,1-2.392.226L26.195,37.54a19.739,19.739,0,0,0-5.431,22.068,1.321,1.321,0,0,1-.892,1.746L13.33,63.1a1.321,1.321,0,0,1-1.583-.825Z" transform="translate(-10.007 -23.597)" fill="#a0e5a5"/>
        <path id="Trazado_726510" data-name="Trazado 726510" d="M266.792,57.594l-5.081-5.886a1.321,1.321,0,0,1,1-2.184H266.4A19.841,19.841,0,0,0,250,33.781a1.321,1.321,0,0,1-1.066-1.645l1.759-6.559a1.322,1.322,0,0,1,1.5-.96A29.213,29.213,0,0,1,275.92,49.524H280.2a1.321,1.321,0,0,1,1,2.184l-5.681,6.583-3.063,3.547a1.321,1.321,0,0,1-2,0Z" transform="translate(-218.082 -24.467)" fill="#a0e5a5"/>
        <path id="Trazado_726511" data-name="Trazado 726511" d="M85.225,340.848l7.637-1.457a1.321,1.321,0,0,1,1.392,1.958l-1.844,3.194a19.841,19.841,0,0,0,21.836-6.335,1.321,1.321,0,0,1,1.958-.1l4.8,4.8a1.322,1.322,0,0,1,.08,1.782,29.213,29.213,0,0,1-33.435,8.095l-2.139,3.7a1.321,1.321,0,0,1-2.392-.226l-2.861-8.211-1.54-4.426a1.321,1.321,0,0,1,1-1.732Z" transform="translate(-69.794 -297.217)" fill="#a0e5a5"/>
      </g>
    </g>
    <g id="Grupo_959903" data-name="Grupo 959903" transform="translate(0.001 13.594)">
      <g id="Grupo_959899" data-name="Grupo 959899" transform="translate(0 0)">
        <path id="Trazado_726512" data-name="Trazado 726512" d="M4.261,55.728a2.594,2.594,0,0,1-2.442-1.722l-.005-.015a30.5,30.5,0,0,1,9.222-33.746L9.457,17.512a2.611,2.611,0,0,1,2.75-3.87l13.145,2.507a2.611,2.611,0,0,1,1.976,3.423l-4.4,12.637a2.61,2.61,0,0,1-4.726.447l-1.022-1.769a18.444,18.444,0,0,0-3.926,19.551,2.61,2.61,0,0,1-1.764,3.449L4.948,55.637a2.653,2.653,0,0,1-.687.091Zm7.421-39.52.008.014,2.14,3.706a1.29,1.29,0,0,1-.345,1.678A27.843,27.843,0,0,0,4.231,53.094l0,.011.008.021a.032.032,0,0,0,.038.02l6.541-1.751a.025.025,0,0,0,.019-.015.029.029,0,0,0,0-.027,20.992,20.992,0,0,1,5.789-23.5,1.289,1.289,0,0,1,1.964.327l1.839,3.184a.08.08,0,0,0,.011.015.065.065,0,0,0,.041-.006h0s0-.005.006-.015l4.4-12.637a.027.027,0,0,0,0-.026.026.026,0,0,0-.021-.015L11.723,16.175a.074.074,0,0,0-.019,0,.066.066,0,0,0-.023.034Z" transform="translate(-0.001 -13.594)"/>
      </g>
      <g id="Grupo_959900" data-name="Grupo 959900" transform="translate(30.803 0.128)">
        <path id="Trazado_726513" data-name="Trazado 726513" d="M262.749,54.868h0a2.608,2.608,0,0,1-1.976-.905l-8.743-10.13a2.61,2.61,0,0,1,1.976-4.316h2.057a18.671,18.671,0,0,0-14.979-13.181,2.61,2.61,0,0,1-2.106-3.252l1.759-6.559a2.6,2.6,0,0,1,2.972-1.9,30.532,30.532,0,0,1,16.641,8.983,30.01,30.01,0,0,1,7.988,15.906h3.154a2.611,2.611,0,0,1,1.976,4.316l-8.744,10.131a2.608,2.608,0,0,1-1.976.9Zm-8.777-12.733.01.013,5.081,5.886h0l3.662,4.244a.039.039,0,0,0,.048,0l8.743-10.13a.07.07,0,0,0,.011-.015.066.066,0,0,0-.019-.037h-4.294a1.29,1.29,0,0,1-1.281-1.14,28.006,28.006,0,0,0-22.67-23.787.032.032,0,0,0-.036.024l-1.759,6.559a.025.025,0,0,0,0,.024.03.03,0,0,0,.024.015,21.354,21.354,0,0,1,11.359,5.623,20.726,20.726,0,0,1,6.105,11.149,1.289,1.289,0,0,1-1.266,1.533h-3.689l-.019,0A.065.065,0,0,0,253.971,42.136Z" transform="translate(-238.889 -14.588)"/>
      </g>
      <g id="Grupo_959901" data-name="Grupo 959901" transform="translate(8.852 40.493)">
        <path id="Trazado_726514" data-name="Trazado 726514" d="M75.672,349.659q-.126,0-.255-.012a2.584,2.584,0,0,1-2.22-1.74l-4.4-12.637a2.61,2.61,0,0,1,1.977-3.423l13.143-2.507a2.61,2.61,0,0,1,2.75,3.869l-1.029,1.783a18.47,18.47,0,0,0,18.9-6.4,2.61,2.61,0,0,1,3.865-.192l4.8,4.8a2.623,2.623,0,0,1,.133,3.549,30.947,30.947,0,0,1-10.7,8.1,1.289,1.289,0,1,1-1.053-2.354,28.354,28.354,0,0,0,9.8-7.424.033.033,0,0,0,0-.045l-4.8-4.8a.028.028,0,0,0-.023-.009.029.029,0,0,0-.024.012,21.188,21.188,0,0,1-16.4,7.907,20.938,20.938,0,0,1-6.846-1.157,1.289,1.289,0,0,1-.7-1.863l1.844-3.2a.03.03,0,0,0-.017-.049l-.016,0L71.256,334.38a.027.027,0,0,0-.021.015.027.027,0,0,0,0,.026l4.4,12.637a.079.079,0,0,0,.008.017.066.066,0,0,0,.041,0h0s0,0,.009-.014l2.136-3.7a1.29,1.29,0,0,1,1.615-.545,27.466,27.466,0,0,0,11.038,2.13H90.5a1.289,1.289,0,0,1,.016,2.579,30.079,30.079,0,0,1-11.009-1.91l-1.579,2.735a2.581,2.581,0,0,1-2.252,1.306Z" transform="translate(-68.651 -327.637)"/>
      </g>
      <g id="Grupo_959902" data-name="Grupo 959902" transform="translate(35.329 57.128)">
        <circle id="Elipse_5755" data-name="Elipse 5755" cx="1.289" cy="1.289" r="1.289"/>
      </g>
    </g>
  </g>
</svg>
