<svg xmlns="http://www.w3.org/2000/svg" width="100" height="100" viewBox="0 0 100 100">
  <g id="Grupo_960521" data-name="Grupo 960521" transform="translate(-750 -2172)">
    <circle id="Elipse_5757" data-name="Elipse 5757" cx="50" cy="50" r="50" transform="translate(750 2172)" fill="#badc61"/>
    <g id="limpieza" transform="translate(756.933 2194)">
      <g id="Grupo_960128" data-name="Grupo 960128" transform="translate(17.988 20.271)">
        <path id="Trazado_726788" data-name="Trazado 726788" d="M80.686,250.431h-25.8L51.2,221.867H84.372Z" transform="translate(-48.436 -218.181)" fill="#4398d1"/>
        <rect id="Rectángulo_340514" data-name="Rectángulo 340514" width="38.7" height="3.686" transform="translate(0)" fill="#4398d1"/>
      </g>
      <path id="Trazado_726789" data-name="Trazado 726789" d="M51.2,221.867l.475,3.686H83.9l.475-3.686Z" transform="translate(-30.447 -197.91)" fill="#398cc4"/>
      <path id="Trazado_726790" data-name="Trazado 726790" d="M81.167,81.167h-12.9V72.874l3.686-4.607h5.529l3.686,4.607Z" transform="translate(-45.671 -60.896)" fill="#726891"/>
      <rect id="Rectángulo_340515" data-name="Rectángulo 340515" width="5.529" height="6.45" transform="translate(26.281 0.921)" fill="#e8594a"/>
      <rect id="Rectángulo_340516" data-name="Rectángulo 340516" width="12.9" height="8.293" transform="translate(22.596 11.979)" fill="#7a709c"/>
      <rect id="Rectángulo_340517" data-name="Rectángulo 340517" width="1.843" height="8.422" transform="matrix(-0.895, 0.447, -0.447, -0.895, 53.827, 11.567)" fill="#e66712"/>
      <g id="Grupo_960129" data-name="Grupo 960129" transform="translate(39.181 0.921)">
        <rect id="Rectángulo_340518" data-name="Rectángulo 340518" width="3.686" height="3.686" transform="translate(12.9)" fill="#f77219"/>
        <path id="Trazado_726791" data-name="Trazado 726791" d="M230.16,15.9h-8.293a7.372,7.372,0,0,1,7.371-7.371h5.529v3.686Z" transform="translate(-221.867 -8.533)" fill="#f77219"/>
      </g>
      <rect id="Rectángulo_340519" data-name="Rectángulo 340519" width="5.529" height="3.686" transform="translate(41.946 8.293)" fill="#d4d4d4"/>
      <path id="Trazado_726792" data-name="Trazado 726792" d="M224.631,110.933h5.529l4.607,4.607v3.686h-12.9V113.7Z" transform="translate(-182.686 -98.954)" fill="#ebebeb"/>
      <path id="Trazado_726793" data-name="Trazado 726793" d="M299.107,366.933h-1.443a5.608,5.608,0,0,0-2.5.591,5.593,5.593,0,0,1-5.007,0,5.61,5.61,0,0,0-2.5-.591h-1.443a4.608,4.608,0,0,0-4.607,4.607v5.529a4.608,4.608,0,0,0,4.607,4.607h1.443a5.609,5.609,0,0,0,2.5-.591,5.593,5.593,0,0,1,5.007,0,5.609,5.609,0,0,0,2.5.591h1.443a4.608,4.608,0,0,0,4.607-4.607V371.54A4.608,4.608,0,0,0,299.107,366.933Z" transform="translate(-235.969 -327.311)" fill="#f5a338"/>
      <path id="Trazado_726794" data-name="Trazado 726794" d="M299.107,376.147h-1.443a5.609,5.609,0,0,1-2.5-.591h0a5.593,5.593,0,0,0-5.007,0h0a5.61,5.61,0,0,1-2.5.591h-1.443a4.608,4.608,0,0,1-4.607-4.607h0a4.608,4.608,0,0,1,4.607-4.607h1.443a5.609,5.609,0,0,1,2.5.591h0a5.593,5.593,0,0,0,5.007,0h0a5.61,5.61,0,0,1,2.5-.591h1.443a4.608,4.608,0,0,1,4.607,4.607h0A4.608,4.608,0,0,1,299.107,376.147Z" transform="translate(-235.969 -327.311)" fill="#f9b44d"/>
      <g id="Grupo_960130" data-name="Grupo 960130" transform="translate(49.317 42.386)">
        <rect id="Rectángulo_340520" data-name="Rectángulo 340520" width="1.843" height="1.843" transform="translate(12.9)" fill="#f5a338"/>
        <rect id="Rectángulo_340521" data-name="Rectángulo 340521" width="1.843" height="1.843" transform="translate(3.686)" fill="#f5a338"/>
        <rect id="Rectángulo_340522" data-name="Rectángulo 340522" width="1.843" height="1.843" transform="translate(0 0.922)" fill="#f5a338"/>
        <rect id="Rectángulo_340523" data-name="Rectángulo 340523" width="1.843" height="1.843" transform="translate(9.214 0.922)" fill="#f5a338"/>
      </g>
      <path id="Trazado_726795" data-name="Trazado 726795" d="M125.676,195.1v-7.371H110.933v21.193a2.764,2.764,0,0,0,2.764,2.764h9.214a2.764,2.764,0,0,0,2.764-2.764v-9.214l3.741,1.871a2,2,0,0,0,2.68-.892v0l.023-.046a2.058,2.058,0,0,0-.9-2.767l-.013-.006Z" transform="translate(-83.73 -167.462)" fill="#97d3e6"/>
      <path id="Trazado_726796" data-name="Trazado 726796" d="M131.529,197.869,126,195.1v-7.371h-.7c-3.345,11-9.214,17.718-14.006,21.6a2.757,2.757,0,0,0,2.726,2.358h9.214A2.764,2.764,0,0,0,126,208.926v-9.214l3.741,1.871a2,2,0,0,0,2.68-.892v0l.023-.046a2.058,2.058,0,0,0-.9-2.767Z" transform="translate(-84.051 -167.462)" fill="#8ac9de"/>
      <g id="Grupo_960131" data-name="Grupo 960131" transform="translate(29.967 35.014)">
        <rect id="Rectángulo_340524" data-name="Rectángulo 340524" width="1.843" height="9.214" fill="#7dbdd1"/>
        <rect id="Rectángulo_340525" data-name="Rectángulo 340525" width="1.843" height="9.214" transform="translate(3.686)" fill="#7dbdd1"/>
        <rect id="Rectángulo_340526" data-name="Rectángulo 340526" width="1.843" height="9.214" transform="translate(7.371)" fill="#7dbdd1"/>
      </g>
      <path id="Trazado_726797" data-name="Trazado 726797" d="M17.988,24.879h1.954L23.524,52.64a.921.921,0,0,0,.914.8H46.129a5.512,5.512,0,0,0,4.11,1.843h1.443A6.55,6.55,0,0,0,54.6,54.6a4.7,4.7,0,0,1,4.183,0,6.548,6.548,0,0,0,2.915.688h1.443a5.534,5.534,0,0,0,5.529-5.529V44.229A5.534,5.534,0,0,0,63.138,38.7H61.7a6.55,6.55,0,0,0-2.915.688,4.7,4.7,0,0,1-4.183,0,6.506,6.506,0,0,0-1.659-.553l1.8-13.957h1.954a.922.922,0,0,0,.921-.921V20.272a.922.922,0,0,0-.921-.921H53V16.586a.919.919,0,0,0-.27-.651L48.4,11.6V8.735l1.4-1.117,2.386,4.772,1.649-.824L51.264,6.441l1.14-.912h3.363a.922.922,0,0,0,.921-.921V.921A.922.922,0,0,0,55.767,0H46.553A8.3,8.3,0,0,0,38.26,8.293a.922.922,0,0,0,.921.921h1.843V11.6L38.53,14.091a.919.919,0,0,0-.27.651V19.35H36.417V11.979a.916.916,0,0,0-.067-.333.883.883,0,0,0-.057-.1,1.032,1.032,0,0,0-.077-.139L32.731,7.049V.921A.922.922,0,0,0,31.81,0H26.281a.922.922,0,0,0-.921.921V7.049L21.876,11.4a1.032,1.032,0,0,0-.077.139.883.883,0,0,0-.057.1.916.916,0,0,0-.067.333V19.35H17.988a.922.922,0,0,0-.921.921v3.686A.922.922,0,0,0,17.988,24.879Zm45.15,28.564H61.7a4.7,4.7,0,0,1-2.091-.494,6.551,6.551,0,0,0-5.833,0,4.7,4.7,0,0,1-2.091.494H50.239a3.686,3.686,0,0,1-3.686-3.686V48.338a5.5,5.5,0,0,0,3.686,1.419h1.443a6.55,6.55,0,0,0,2.915-.688,4.7,4.7,0,0,1,4.183,0,6.548,6.548,0,0,0,2.915.688h1.443a5.5,5.5,0,0,0,3.686-1.419v1.419A3.686,3.686,0,0,1,63.139,53.443ZM59.6,41.037a4.7,4.7,0,0,1,2.091-.494h1.443a3.686,3.686,0,0,1,0,7.371H61.7a4.7,4.7,0,0,1-2.091-.494,6.551,6.551,0,0,0-5.833,0,4.7,4.7,0,0,1-2.091.494H50.239a3.686,3.686,0,1,1,0-7.371h1.443a4.7,4.7,0,0,1,2.091.494A6.558,6.558,0,0,0,59.6,41.037ZM51.093,38.7h-.854a5.534,5.534,0,0,0-5.529,5.529v5.529a5.509,5.509,0,0,0,.323,1.843H25.248L21.8,24.879h4.481V41.464a3.686,3.686,0,0,0,3.686,3.686h9.214a3.686,3.686,0,0,0,3.686-3.686V33.741l2.407,1.2a2.936,2.936,0,0,0,3.933-1.333l.009-.018a2.985,2.985,0,0,0,.169-2.281,2.948,2.948,0,0,0-1.493-1.727l-5.025-2.512V24.879h10.01ZM39.181,21.193h1.843v6.45a.921.921,0,0,0,.51.829l5.529,2.764a1.114,1.114,0,0,1,.567.655,1.183,1.183,0,0,1-.092.921,1.076,1.076,0,0,1-1.443.483h0L42.35,31.424a.922.922,0,0,0-1.326.826v9.215a1.842,1.842,0,0,1-1.843,1.843V35.014H37.338v8.293H35.5V35.014H33.653v8.293H31.81V35.014H29.967v8.293a1.842,1.842,0,0,1-1.843-1.843V21.193Zm16.586,1.843h-12.9V21.193h12.9Zm-.922-19.35H53V1.843h1.843ZM46.553,1.843H51.16V4.165L47.151,7.371H40.168A6.46,6.46,0,0,1,46.553,1.843Zm0,7.371v1.843H42.867V9.214Zm-6.45,5.91L42.327,12.9h4.766l4.067,4.067V19.35H40.1ZM26.724,8.293h4.644l2.211,2.764H24.512Zm.479-6.45h3.686V6.45H27.2ZM23.517,12.9H34.574v6.45H23.517ZM18.91,21.193h7.371v1.843H18.91Z"/>
      <rect id="Rectángulo_340527" data-name="Rectángulo 340527" width="1.843" height="1.843" transform="translate(62.217 42.386)"/>
      <rect id="Rectángulo_340528" data-name="Rectángulo 340528" width="1.843" height="1.843" transform="translate(53.003 42.386)"/>
      <rect id="Rectángulo_340529" data-name="Rectángulo 340529" width="1.843" height="1.843" transform="translate(49.317 43.307)"/>
      <rect id="Rectángulo_340530" data-name="Rectángulo 340530" width="1.843" height="1.843" transform="translate(58.531 43.307)"/>
    </g>
  </g>
</svg>
